<svg id="Layer_1" viewBox="0 0 24 24" xmlns="http://www.w3.org/2000/svg" data-name="Layer 1"><path d="m23.271 17.232s-3.199-3.074-3.209-3.083c-.08-.415-.166-.879.28-1.147.991-.632 1.649-1.803 1.632-2.997.017-1.205-.637-2.37-1.633-3.007-.268-.173-.405-.48-.34-.765.134-.593.114-1.2-.06-1.805-.329-1.148-1.247-2.065-2.394-2.394-.605-.174-1.212-.194-1.804-.059-.285.064-.591-.072-.764-.34-.321-.499-.758-.903-1.297-1.202-1.044-.58-2.342-.58-3.387 0-.539.299-.975.703-1.296 1.201-.173.269-.477.406-.765.341-.591-.135-1.198-.114-1.803.059-1.148.329-2.066 1.247-2.394 2.394-.174.606-.194 1.213-.06 1.805.064.284-.072.591-.341.765-.992.633-1.65 1.803-1.633 2.997-.017 1.206.637 2.369 1.634 3.007.452.272.354.743.276 1.163-.002.002-3.184 3.067-3.184 3.067-.672.648-.9 1.599-.596 2.481.305.882 1.07 1.489 1.998 1.585l.744.077.081.579c.124.892.73 1.626 1.582 1.917.839.289 1.779.085 2.421-.545l3.721-3.606c.421.17.861.282 1.31.282.455 0 .9-.114 1.325-.289l3.724 3.609c.645.633 1.583.838 2.424.549.852-.291 1.458-1.025 1.583-1.917l.08-.578.744-.077c.928-.096 1.694-.703 1.998-1.585s.076-1.833-.596-2.481zm-17.708 4.66c-.255.222-.583.131-.627-.214l-.188-1.354c-.063-.456-.43-.81-.888-.857l-1.524-.158c-.363-.032-.454-.423-.22-.637l2.315-2.232c.453.727 1.162 1.286 1.999 1.526.605.173 1.213.194 1.804.059.346-.091.66.158.855.449l-3.527 3.418zm5.702-4.074c-.247-.137-.444-.318-.585-.537-.518-.801-1.397-1.271-2.306-1.271-.472-.002-.911.202-1.391.034-.483-.138-.885-.54-1.023-1.023-.08-.278-.09-.551-.031-.811.249-1.1-.235-2.26-1.205-2.887-.433-.281-.729-.782-.719-1.327-.01-.533.29-1.041.718-1.317.972-.627 1.456-1.787 1.206-2.888-.059-.26-.048-.532.032-.811.138-.483.539-.884 1.023-1.022.278-.079.551-.09.81-.032 1.098.251 2.261-.233 2.888-1.206.141-.219.338-.399.585-.537.439-.243 1.008-.243 1.448 0 .248.138.445.318.586.537.627.972 1.788 1.455 2.887 1.206.261-.058.533-.048.81.032.483.138.885.54 1.024 1.023.08.278.09.551.031.81-.25 1.1.234 2.261 1.205 2.887.432.281.728.782.718 1.327.01.533-.29 1.041-.717 1.317-.972.627-1.457 1.787-1.207 2.887.059.261.049.534-.031.811-.139.483-.54.885-1.024 1.023-.275.08-.548.092-.809.032-1.098-.25-2.26.235-2.888 1.206-.141.219-.338.399-.586.537-.439.243-1.008.243-1.448 0zm10.399 1.491-1.524.158c-.458.047-.824.401-.888.857l-.187 1.354c-.059.336-.387.442-.631.211l-3.536-3.427c.193-.289.504-.527.846-.437.592.135 1.198.114 1.803-.059.843-.241 1.557-.804 2.009-1.538l2.328 2.244c.149.144.207.571-.22.637zm-5.315-7.581.621-2.485c.165-1.067-.588-2.235-1.97-2.243h-2.429l.387-1.205c.042-.249.021-.387.005-.447-.14-.515-.56-.848-1.069-.848-.433.004-.712.23-.987.635l-1.479 1.864h-.427c-1.103 0-2 .897-2 2v3c0 1.103.897 2 2 2h4.438c1.379 0 2.576-.935 2.91-2.272zm-1.94-.485c-.111.446-.51.758-.97.758h-2.438v-3h3.969l-.56 2.242z"/></svg>