<svg id="Layer_1" viewBox="0 0 24 24" xmlns="http://www.w3.org/2000/svg" data-name="Layer 1"><path d="m10.272 8.615c4.647-2.376 7.194-6.698 6.657-7.752-.537-1.054-5.523-1.523-10.17.854s-7.328 6.435-6.657 7.752 5.523 1.523 10.17-.854zm-2.217-4.224c3.534-1.807 6.808-2.471 6.808-2.471s-2.457 2.267-5.991 4.074-6.808 2.471-6.808 2.471 2.457-2.267 5.991-4.074zm-3.752 9.829c-3.696 3.697-5 8.386-3.954 9.431s5.735-.259 9.431-3.955 4.792-8.594 3.955-9.431-5.735.258-9.431 3.955zm3.333 3.416c-2.812 2.812-5.727 4.455-5.727 4.455s1.643-2.916 4.455-5.727c2.812-2.812 5.727-4.455 5.727-4.455s-1.643 2.916-4.455 5.727zm12.364-12.671c-1.222 0-4 4.253-4 9.5s2.472 9.5 4 9.5 4-4.215 4-9.5c0-5.247-2.778-9.5-4-9.5zm0 16.785s-.93-3.235-.93-7.226.93-7.226.93-7.226.93 3.235.93 7.226-.93 7.226-.93 7.226z"/></svg>