<svg id="Layer_1" viewBox="0 0 24 24" xmlns="http://www.w3.org/2000/svg" data-name="Layer 1"><path d="m19 2h-1v-1c0-.552-.448-1-1-1s-1 .448-1 1v1h-8v-1c0-.552-.448-1-1-1s-1 .448-1 1v1h-1c-2.757 0-5 2.243-5 5v12c0 2.283 1.542 4.274 3.751 4.842.521.138 1.082-.181 1.217-.719.138-.535-.184-1.08-.719-1.217-1.324-.341-2.249-1.536-2.249-2.906v-9h20v3c0 .552.448 1 1 1s1-.448 1-1v-6c0-2.757-2.243-5-5-5zm-17 6v-1c0-1.654 1.346-3 3-3h14c1.654 0 3 1.346 3 3v1zm9 8.838v4.931c0 1.348-1.164 2.427-2.539 2.288-1.142-.116-1.971-1.123-2.046-2.26.038-.406.369-.728.785-.728.442 0 .8.358.8.8v-.1c0 .386.314.7.7.7s.7-.314.7-.7v-4.931c0-.442.358-.8.8-.8s.8.358.8.8zm13 0v6.23c0 .535-.434.97-.97.97-.383 0-.731-.226-.886-.576l-1.544-3.478v3.254c0 .442-.358.8-.8.8s-.8-.358-.8-.8v-6.226c0-.537.437-.972.974-.969.381.002.725.227.88.576l1.546 3.482v-3.263c0-.442.358-.8.8-.8s.8.358.8.8zm-9.015-.8c-.873-.001-1.575.717-1.742 1.581l-1.165 5.479c-.103.484.266.939.76.939.365 0 .68-.253.759-.61l.175-.79h2.379l.165.782c.076.36.393.617.761.617.509.026.911-.437.804-.937l-1.142-5.435c-.19-.937-.859-1.621-1.753-1.627zm-.86 5 .686-3.104c.03-.149.105-.253.176-.296l.017.006c.024.016.121.118.168.349l.641 3.044h-1.688z"/></svg>