<svg id="Layer_1" viewBox="0 0 24 24" xmlns="http://www.w3.org/2000/svg" data-name="Layer 1"><path d="m23.451 7.107c-.493-.25-1.094-.051-1.343.442l-3.125 6.191-.8-.431c-1.199-.646-2.662-.266-3.407.88-.594.914-1.305 1.826-2.112 2.709-1.056 1.101-.845 3.032.434 3.869 1.44.99 3.172 1.884 4.875 2.517 1.12.424 2.421.033 3.094-.989.942-1.416 1.574-2.863 1.878-4.303.237-1.122-.306-2.285-1.317-2.827l-.884-.476 3.149-6.238c.249-.493.051-1.095-.442-1.343zm-2.464 10.472c-.251 1.19-.785 2.404-1.586 3.609-.151.229-.459.323-.731.221-.224-.083-.448-.181-.672-.274.295-.922.559-1.93.662-2.636.053-.364-.398-.573-.661-.315-.689.675-1.434 1.369-2.095 1.949-.586-.321-1.159-.652-1.675-1.015-.352-.248-.388-.537-.092-.87.87-.976 1.661-1.964 2.315-2.97.172-.266.509-.354.781-.208l3.447 1.855c.231.124.36.398.306.652zm-10.15 4.235c-.748.123-1.535.186-2.337.186-3.968 0-6.5-1.48-6.5-2.5v-2.041c1.535.954 3.835 1.541 6.5 1.541.178 0 .355-.003.53-.008.552-.017.986-.478.97-1.029-.016-.552-.446-.955-1.029-.971-.155.005-.312.008-.47.008-3.968 0-6.5-1.48-6.5-2.5v-2.041c1.535.954 3.835 1.541 6.5 1.541 4.846 0 8.5-1.935 8.5-4.5v-5c0-2.565-3.654-4.5-8.5-4.5s-8.501 1.935-8.501 4.5v15c0 2.565 3.654 4.5 8.5 4.5.912 0 1.808-.071 2.663-.213.545-.09.914-.604.824-1.149-.09-.544-.603-.925-1.149-.823zm-2.337-9.814c-3.968 0-6.5-1.48-6.5-2.5v-2.041c1.535.954 3.835 1.541 6.5 1.541s4.965-.588 6.5-1.541v2.041c0 1.02-2.532 2.5-6.5 2.5zm0-10c3.968 0 6.5 1.48 6.5 2.5s-2.532 2.5-6.5 2.5-6.5-1.48-6.5-2.5 2.532-2.5 6.5-2.5z"/></svg>