<svg id="Layer_1" viewBox="0 0 24 24" xmlns="http://www.w3.org/2000/svg" data-name="Layer 1"><path d="m17 10c-3.859 0-7 3.141-7 7s3.141 7 7 7 7-3.141 7-7-3.141-7-7-7zm-1.262 11.819-.689-2.148h-2.262c-.451-.71-.72-1.538-.763-2.427l1.82-1.282-.664-2.148c.536-.641 1.217-1.151 2.008-1.46l1.811 1.316 1.811-1.316c.791.31 1.472.819 2.008 1.46l-.664 2.148 1.82 1.282c-.044.89-.312 1.718-.763 2.427h-2.262s-.689 2.149-.689 2.149c-.406.107-.823.181-1.262.181s-.856-.075-1.262-.181zm3.212-2.148h-3.901l-1.205-3.71 3.156-2.293 3.156 2.293-1.205 3.71zm5.05-14.671v1c0 .553-.447 1-1 1-.712 0-1.376.384-1.733 1.001-.275.478-.887.642-1.366.364-.478-.276-.642-.888-.364-1.366.542-.937 1.439-1.604 2.464-1.871v-.128c0-1.654-1.346-3-3-3h-14.001c-1.654 0-3 1.346-3 3v.115c1.767.432 3.082 2.028 3.082 3.926s-1.315 3.494-3.082 3.926v.033c0 1.654 1.346 3 3 3h2c.553 0 1 .447 1 1s-.447 1-1 1h-2c-2.757 0-5-2.243-5-5v-.923c-.013-.57.525-1.065 1.092-.996 1.102-.026 1.99-.932 1.99-2.04s-.895-2.02-2.001-2.041c-.579.051-1.083-.415-1.081-.996v-1.004c0-2.757 2.243-5 5-5h14c2.757 0 5 2.243 5 5z"/></svg>