<svg id="Layer_1" viewBox="0 0 24 24" xmlns="http://www.w3.org/2000/svg" data-name="Layer 1"><path d="m19.5 19c0 .828-.672 1.5-1.5 1.5s-1.5-.672-1.5-1.5.672-1.5 1.5-1.5 1.5.672 1.5 1.5zm4.5-14v3c0 .552-.448 1-1 1s-1-.448-1-1h-9v2c0 .552-.448 1-1 1s-1-.448-1-1v-2h-3v3h2c.552 0 1 .448 1 1s-.448 1-1 1h-2v3h1c.552 0 1 .448 1 1s-.448 1-1 1h-1v4h1.5c.552 0 1 .448 1 1s-.448 1-1 1h-4.5c-2.757 0-5-2.243-5-5v-14c0-2.757 2.243-5 5-5h14c2.757 0 5 2.243 5 5zm-22 0v1h4v-4h-1c-1.654 0-3 1.346-3 3zm4 13h-4v1c0 1.654 1.346 3 3 3h1zm0-5h-4v3h4zm0-5h-4v3h4zm5-2v-4h-3v4zm2 0h3v-4h-3zm9 0v-1c0-1.654-1.346-3-3-3h-1v4zm2 12v2c0 2.206-1.794 4-4 4h-4c-2.206 0-4-1.794-4-4v-2c0-1.474.81-2.75 2-3.444v-1.556c0-2.206 1.794-4 4-4s4 1.794 4 4v1.556c1.19.694 2 1.97 2 3.444zm-8-4h4v-1c0-1.103-.897-2-2-2s-2 .897-2 2zm6 4c0-1.103-.897-2-2-2h-4c-1.103 0-2 .897-2 2v2c0 1.103.897 2 2 2h4c1.103 0 2-.897 2-2z"/></svg>