<svg id="Layer_1" viewBox="0 0 24 24" xmlns="http://www.w3.org/2000/svg" data-name="Layer 1"><path d="m16 12c2.205 0 4 1.795 4 4s-1.795 4-4 4-4-1.795-4-4 1.795-4 4-4zm-7.984-5.938.568-.314c-.053-.241-.085-.49-.085-.747s.032-.506.085-.747l-.568-.314c-.483-.267-.659-.876-.391-1.359s.876-.658 1.359-.391l.57.315c.4-.392.897-.675 1.446-.841v-.663c0-.552.448-1 1-1s1 .448 1 1v.663c.549.165 1.047.449 1.446.841l.57-.315c.484-.267 1.092-.092 1.359.391.268.483.092 1.092-.391 1.359l-.568.314c.053.241.085.49.085.747s-.032.506-.085.747l.568.314c.483.267.659.876.391 1.359-.269.488-.885.656-1.359.391l-.57-.315c-.4.392-.897.675-1.446.841v.663c0 .552-.448 1-1 1s-1-.448-1-1v-.663c-.549-.165-1.047-.449-1.446-.841l-.57.315c-.474.265-1.09.097-1.359-.391-.268-.483-.092-1.092.391-1.359zm2.484-1.062c0 .827.673 1.5 1.5 1.5s1.5-.673 1.5-1.5-.673-1.5-1.5-1.5-1.5.673-1.5 1.5zm8.357 3.525c-.515-.197-1.094.061-1.292.577-.197.516.061 1.094.577 1.292 2.307.883 3.857 3.136 3.857 5.606 0 3.309-2.691 6-6 6h-7.999c-3.309 0-6-2.691-6-6 0-2.471 1.55-4.724 3.857-5.606.516-.197.774-.775.577-1.292-.198-.516-.777-.774-1.292-.577-3.075 1.178-5.142 4.181-5.142 7.475 0 4.411 3.589 8 8 8h8c4.411 0 8-3.589 8-8 0-3.294-2.067-6.297-5.143-7.475z"/></svg>