<svg id="Layer_1" viewBox="0 0 24 24" xmlns="http://www.w3.org/2000/svg" data-name="Layer 1"><path d="m24 3v4c0 1.103-.897 2-2 2h-4c-.552 0-1-.448-1-1s.448-1 1-1h2.637c-1.776-3.06-5.052-5-8.637-5-5.514 0-10 4.486-10 10 0 4.151 2.498 7.809 6.364 9.318.515.201.769.781.568 1.295-.201.52-.794.768-1.295.568-4.639-1.811-7.637-6.2-7.637-11.181 0-6.617 5.383-12 12-12 4.058 0 7.8 2.061 10 5.375v-2.375c0-.552.448-1 1-1s1 .448 1 1zm0 15v3c0 1.654-1.346 3-3 3s-3-1.346-3-3v-3c0-1.654 1.346-3 3-3s3 1.346 3 3zm-2 0c0-.551-.449-1-1-1s-1 .449-1 1v3c0 .551.449 1 1 1s1-.449 1-1zm-9-6v-5c0-.552-.448-1-1-1s-1 .448-1 1v4h-3c-.552 0-1 .448-1 1s.448 1 1 1h4c.552 0 1-.448 1-1zm3.116 7.242c.28-.431.446-.942.446-1.492 0-1.517-1.233-2.75-2.75-2.75h-1.812c-.552 0-1 .448-1 1s.448 1 1 1h1.812c.414 0 .75.336.75.75s-.336.75-.75.75h-.812c-.552 0-1 .448-1 1s.448 1 1 1h1.25c.414 0 .75.336.75.75s-.336.75-.75.75h-2.25c-.552 0-1 .448-1 1s.448 1 1 1h2.25c1.517 0 2.75-1.233 2.75-2.75 0-.794-.343-1.505-.884-2.008z"/></svg>