<svg id="Layer_1" viewBox="0 0 24 24" xmlns="http://www.w3.org/2000/svg" data-name="Layer 1"><path d="m22.362 5.816c.802-1.02 1.359-2.132 1.591-3.218.309-1.292-.783-2.632-2.11-2.598h-2.343c-2.969 0-4.521 1.276-5.215 2.103-.765-.187-1.576-.117-2.314.23-1.084.509-1.81 1.521-1.95 2.78-.021.191-.004.379.007.568-.507-.007-1.018.09-1.503.306-.892.399-1.554 1.125-1.881 2.046-.148-.127-.302-.247-.467-.358-.983-.662-2.156-.807-3.222-.526-.159-.658-.747-1.149-1.454-1.149-.828 0-1.5.672-1.5 1.5 0 .523.268.982.674 1.25-1.219 1.812-.737 4.28 1.075 5.501.966.65 2.451.748 3.251.748 2.036 0 3.311-.251 4.479-.693l.345.343c1.383 1.373 2.176 3.278 2.176 5.226v3.125c0 .552.447 1 1 1s1-.448 1-1v-3.125c0-1.415-.339-2.808-.949-4.071.401.208.818.407 1.248.598 1.079 1.112 1.701 2.625 1.701 4.177v2.422c0 .552.447 1 1 1s1-.448 1-1v-2.422c0-1.071-.221-2.129-.633-3.106.506.132 1.022.249 1.556.341.689.878 1.077 1.961 1.077 3.081v2.107c0 .552.447 1 1 1s1-.448 1-1v-2.107c0-1.045-.259-2.061-.702-2.993 1.515-.308 2.67-1.72 2.7-3.263.036-1.17-.496-2.251-1.365-2.951.863-.687 1.367-1.693 1.367-2.803.023-1.256-.611-2.397-1.638-3.067zm-.519-3.816c.11.005.17.089.153.181-.201.946-.772 1.942-1.593 2.845-1.514-.519-2.902-1.167-4.247-1.981.546-.475 1.563-1.045 3.344-1.045zm-9.826 3.263c.084-1.071 1.429-1.617 2.284-1.007 2.036 1.34 4.101 2.297 6.497 3.011.719.214 1.202.835 1.202 1.547.072 1.127-1.139 1.983-2.193 1.599-3.329-1.095-6.022-2.764-7.317-3.86-.353-.298-.532-.754-.473-1.289zm-7.017 7.736c-1.129 0-1.855-.219-2.134-.407-.898-.605-1.137-1.828-.533-2.726.379-.563 1.001-.867 1.633-.867 1.095.017 1.636.772 2.39 1.645.497.589 1.074 1.273 1.891 1.977-.774.231-1.743.378-3.246.378zm16.536 2.602c-.313.295-.754.437-1.209.39-5.603-.583-9.862-4.103-11.435-5.589-.767-.67-.563-2.199.448-2.589.504-.226 1.058-.177 1.517.142 2.98 2.077 5.287 3.547 10.004 5.002 1.094.299 1.546 1.858.675 2.645zm-12.462 1.314c1.234 1.234 1.234 3.234 0 4.468-.653.653-2.902 2.037-3.998 2.544-.61.282-1.272-.302-1.052-.937.211-.606.628-1.261.961-1.975-.722.337-1.396.74-1.976.942-.635.221-1.22-.441-.938-1.052.507-1.096 1.88-3.337 2.534-3.99 1.234-1.234 3.234-1.234 4.468 0z"/></svg>