<svg id="Layer_1" viewBox="0 0 24 24" xmlns="http://www.w3.org/2000/svg" data-name="Layer 1"><path d="m13 1v2c0 .552-.447 1-1 1s-1-.448-1-1v-2c0-.552.447-1 1-1s1 .448 1 1zm-1 19c-.553 0-1 .448-1 1v2c0 .552.447 1 1 1s1-.448 1-1v-2c0-.552-.447-1-1-1zm11-9h-2c-.553 0-1 .448-1 1s.447 1 1 1h2c.553 0 1-.448 1-1s-.447-1-1-1zm-4.982-9.382c-.478-.278-1.09-.114-1.366.364l-1.003 1.73c-.277.478-.114 1.09.364 1.367.157.091.33.135.5.135.345 0 .681-.179.866-.499l1.003-1.73c.277-.478.114-1.09-.364-1.367zm4 15.033-1.73-1.003c-.477-.278-1.089-.114-1.366.364s-.114 1.09.364 1.367l1.73 1.003c.469.274 1.088.118 1.366-.364.277-.478.114-1.09-.364-1.367zm-4.639 2.633c-.276-.478-.889-.64-1.366-.364-.479.277-.642.889-.364 1.367l1.003 1.73c.279.482.897.638 1.366.364.479-.277.642-.889.364-1.367zm2.408-10.798c.17 0 .343-.043.5-.135l1.73-1.003c.479-.277.642-.889.364-1.367-.276-.477-.889-.64-1.366-.364l-1.73 1.003c-.479.277-.642.889-.364 1.367.186.32.521.499.866.499z"/></svg>