<?xml version="1.0" encoding="UTF-8"?>
<svg xmlns="http://www.w3.org/2000/svg" id="Layer_1" data-name="Layer 1" viewBox="0 0 24 24">
  <path d="M23.981,5.519c0,1.381-1.119,2.5-2.5,2.5s-2.5-1.119-2.5-2.5,1.119-2.5,2.5-2.5,2.5,1.119,2.5,2.5Zm-1.011,9.739l.03,.246v3.996c0,.553-.447,1-1,1s-1-.447-1-1v-3.877l-.27-1.08c-.145-.58-.383-1.127-.661-1.653l-3.795,4.651c-.779,.922-1.803,1.459-2.76,1.459h-5.243c-.161,0-.313,.078-.406,.209l-2.052,2.872c-.322,.452-.95,.552-1.395,.232-.449-.321-.554-.945-.232-1.395l2.052-2.872c.469-.657,1.227-1.047,2.034-1.047h4.13l-3.303-2.877c-.091-.079-.208-.123-.329-.123h-3.771c-.553,0-1-.447-1-1s.447-1,1-1h3.771c.604,0,1.187,.218,1.642,.615l1.319,1.149,4.11-5.044-1.887-1.483c-.603-.474-.955-1.198-.955-1.965V2.356L2.973,11.548c-.62,.568-.973,1.37-.973,2.211v9.241c0,.553-.447,1-1,1s-1-.447-1-1V13.76c0-1.397,.591-2.741,1.621-3.687L12.037,.526c.369-.338,.851-.526,1.351-.526h.611c.552,0,1,.448,1,1V5.271c0,.153,.07,.297,.19,.392l4.158,3.268c1.645,1.293,2.814,3.097,3.321,5.127l.3,1.199Zm-4.104-4.054c-.237-.247-.483-.488-.753-.701l-.697-.547-4.174,5.123,1.432,1.247c.02-.022,.043-.039,.062-.062l4.129-5.06Z"/>
</svg>
