<svg id="Layer_1" viewBox="0 0 24 24" xmlns="http://www.w3.org/2000/svg" data-name="Layer 1"><path d="m12.912 21.959c-.174.015-.352.017-.528.024-.669-.663-2.399-2.514-3.611-4.983h2.227c.552 0 1-.447 1-1s-.448-1-1-1h-3.03c-.291-.952-.47-1.96-.47-3s.18-2.047.472-3h8.05c.207.675.364 1.375.434 2.097.051.551.551.954 1.092.898.55-.053.952-.542.898-1.092-.064-.654-.188-1.287-.347-1.903h3.435c.029.091.063.18.089.272.149.532.709.839 1.234.69.531-.15.84-.703.689-1.234-1.446-5.12-6.165-8.699-11.487-8.726-6.629-.034-12.063 5.359-12.059 11.998 0 6.617 5.383 12 11.999 12 .367 0 .73-.017 1.089-.049.55-.049.956-.534.907-1.085-.049-.549-.531-.955-1.084-.907zm-7.008-6.959h-3.443c-.299-.948-.461-1.955-.461-3s.162-2.052.461-3h3.442c-.246.956-.403 1.958-.403 3s.157 2.044.403 3zm2.874-8c1.024-2.082 2.411-3.723 3.223-4.585.813.863 2.198 2.507 3.221 4.585zm11.883 0h-3.238c-.79-1.883-1.878-3.479-2.821-4.647 2.544.691 4.735 2.366 6.058 4.647zm-11.272-4.642c-.94 1.167-2.024 2.767-2.811 4.642h-3.225c1.308-2.253 3.466-3.945 6.036-4.642zm-6.036 14.642h3.225c.787 1.875 1.87 3.475 2.811 4.642-2.569-.697-4.728-2.39-6.035-4.642zm20.647 0c0-.651-.419-1.201-1-1.408v-2.592c0-.499-.367-.921-.86-.99-.487-.069-.964.234-1.101.714-.236.823-.913 1.276-1.905 1.276h-2.134c-1.654 0-3 1.346-3 3 0 .695.247 1.327.645 1.836l1.887 4.376c.206.478.677.788 1.198.788.932 0 1.564-.95 1.203-1.81l-.919-2.19h1.12c.992 0 1.669.453 1.905 1.275.135.481.615.786 1.1.715.493-.069.86-.491.86-.99v-2.592c.581-.207 1.001-.757 1.001-1.408zm-3 1.398c-.549-.259-1.18-.398-1.866-.398h-2.134c-.552 0-1-.448-1-1s.448-1 1-1h2.134c.687 0 1.317-.14 1.866-.398v2.797z"/></svg>