<svg id="Layer_1" viewBox="0 0 24 24" xmlns="http://www.w3.org/2000/svg" data-name="Layer 1"><path d="m23.596 7.466c-.813-1.652-2.978-2.426-4.829-1.721-.55.21-.998.532-1.393.816-.301.216-.902.696-1.235.35-.132-.137-.071-.515.186-1.062.837-2.304-.115-4.689-2.215-5.55-.459-.188-.9-.248-1.233-.279-1.184-.114-2.338.255-3.166 1.008-.589.536-1.291 1.515-1.291 3.133 0 .945.25 1.845.527 2.76.021.07.197.688-.164.834-.287.117-.811-.236-1.16-.628-.399-.445-.841-.913-1.367-1.308-.374-.282-.729-.479-1.086-.604-1.014-.354-2.157-.242-3.134.306-.999.56-1.707 1.499-1.943 2.577-.226 1.026-.038 2.08.529 2.965.575.898 1.457 1.511 2.483 1.725.23.049.465.088.7.126.561.093 1.09.181 1.506.404.405.218.778.747.689 1.188-.134.663-1.632 1.17-2.196 1.36-1.265.428-2.23 1.489-2.583 2.842-.365 1.397-.036 2.839.859 3.829.793.942 1.952 1.463 3.172 1.463.329 0 .663-.038.996-.116 1.542-.36 2.73-1.525 3.085-2.981.248-.795.518-1.4.852-1.906.277-.422.852-1.102 1.541-.953.22.047.511.176.821.749.293.542.545 1.185.77 1.965.29 1.005.947 1.912 1.803 2.489 1.625 1.096 3.745.982 5.277-.281.873-.722 1.424-1.812 1.512-2.995.088-1.182-.295-2.342-1.014-3.14-.456-.57-1.032-.953-1.541-1.291-.296-.196-.576-.382-.805-.584-.223-.197-.706-.726-.386-1.383.145-.298.471-.425.652-.475.441-.119 1.038-.207 1.727-.254.464-.032 1.155-.117 1.791-.484 1.792-1.033 2.051-3.3 1.265-4.894zm-2.278 3.137c-.383.219-.832.237-1.267.267-.594.041-1.186.142-1.76.298-.878.238-1.562.78-1.927 1.527-.621 1.273-.283 2.748.86 3.759.333.293.684.526 1.022.751.424.281.824.548 1.122.917.394.439.593 1.059.545 1.699-.047.642-.336 1.226-.791 1.601-.843.694-2.001.762-2.885.166-.473-.319-.838-.824-1-1.386-.265-.919-.57-1.691-.932-2.361-.521-.966-1.247-1.556-2.156-1.753-1.362-.292-2.686.363-3.636 1.809-.433.657-.79 1.446-1.107 2.471-.194.792-.797 1.378-1.615 1.569-.648.152-1.562.052-2.205-.713-.458-.507-.623-1.277-.432-2.011.185-.708.655-1.238 1.289-1.452 1.023-.346 3.153-1.066 3.515-2.858.291-1.44-.637-2.774-1.703-3.347-.708-.381-1.461-.506-2.126-.615-.208-.034-.415-.068-.618-.11-.495-.104-.924-.404-1.207-.846-.279-.436-.372-.953-.261-1.459.114-.52.467-.979.967-1.26.3-.168.627-.254.947-.254.19 0 .377.03.554.092.157.055.333.156.54.312.389.292.748.674 1.079 1.044 1.04 1.162 2.311 1.587 3.403 1.147 1.213-.494 1.758-1.838 1.325-3.268-.241-.795-.441-1.508-.441-2.18 0-.702.22-1.274.637-1.653.411-.375 1.002-.552 1.631-.497.294.028.493.07.664.141 1.238.507 1.487 1.932 1.09 3.021-.551 1.328-.464 2.381.259 3.129 1.005 1.041 2.507.804 3.479.142.122-.084.242-.17.362-.257.324-.233.631-.453.937-.57 1.239-.474 2.645.427 2.551 1.799-.029.426-.232.845-.575 1.099-.045.033-.091.063-.138.09z"/></svg>