<svg id="Layer_1" viewBox="0 0 24 24" xmlns="http://www.w3.org/2000/svg" data-name="Layer 1"><path d="m12 3c0-.552-.448-1-1-1s-1 .448-1 1v4c0 .337-.17.652-.452.836l-6.958 4.556c-.391.217-.59.553-.59.919-.014.457.481.812.908.652l5.707-2.386c.31-.129.661-.095.939.091.279.186.446.497.446.832v5.882c0 .335-.168.648-.448.834l-2.104 1.394c-.28.186-.448.498-.448.834.068.455.295.62.748.521l1.448-.534c.519-.188 1.093.074 1.284.593.191.518-.074 1.093-.592 1.284l-1.448.534c-.287.105-.586.157-.884.157-1.366.03-2.585-1.182-2.556-2.555 0-1.008.502-1.943 1.342-2.501l1.658-1.098v-3.844l-4.387 1.832c-1.744.649-3.641-.705-3.613-2.522 0-1.099.599-2.107 1.563-2.634l6.437-4.217v-3.46c0-1.657 1.343-3 3-3s3 1.343 3 3v3.459l.458.3c.462.303.591.923.289 1.385s-.923.59-1.385.289l-.91-.596c-.282-.185-.452-.499-.452-.836zm6 14.5c-.828 0-1.5.672-1.5 1.5s.672 1.5 1.5 1.5 1.5-.672 1.5-1.5-.672-1.5-1.5-1.5zm6 .5v2c0 2.206-1.794 4-4 4h-4c-2.206 0-4-1.794-4-4v-2c0-1.477.806-2.766 2-3.459v-1.541c0-2.206 1.794-4 4-4s4 1.794 4 4v1.541c1.194.693 2 1.982 2 3.459zm-8-4h4v-1c0-1.103-.897-2-2-2s-2 .897-2 2zm6 4c0-1.103-.897-2-2-2h-4c-1.103 0-2 .897-2 2v2c0 1.103.897 2 2 2h4c1.103 0 2-.897 2-2z"/></svg>