<svg id="Layer_1" viewBox="0 0 24 24" xmlns="http://www.w3.org/2000/svg" data-name="Layer 1"><path d="m24 13c0 .97-.701 2-2 2h-.33l-.219 1.656c-.328 2.477-2.459 4.344-4.957 4.344h-.494c0 1.654-1.346 3-3 3h-7c-1.654 0-3-1.346-3-3v-.971c0-.896-.263-1.732-.739-2.354-.901-1.177-1.545-2.498-1.914-3.925-.138-.535.185-1.08.719-1.218.536-.135 1.08.184 1.219.718.301 1.166.827 2.246 1.564 3.209.742.969 1.151 2.237 1.151 3.57v.971c0 .551.448 1 1 1h7c.552 0 1-.449 1-1v-1c0-.552.447-1 1-1h1.494c1.499 0 2.777-1.121 2.975-2.607l.334-2.524c.065-.497.489-.869.991-.869h1.206c-.082-.807-2.458-5.721-3.777-7.353-1.167-1.557-2.723-2.665-4.523-3.233-.527-.166-.819-.728-.653-1.255.166-.526.73-.818 1.255-.652 2.202.695 4.104 2.048 5.5 3.912 1.268 1.567 4.199 7.162 4.199 8.581zm-24-7c0-3.314 2.686-6 6-6s6 2.686 6 6-2.686 6-6 6-6-2.686-6-6zm7-1.5c0 .828.672 1.5 1.5 1.5s1.5-.672 1.5-1.5-.672-1.5-1.5-1.5-1.5.672-1.5 1.5zm-2.061 3.061c-.391-.391-1.023-.391-1.414 0s-.391 1.023 0 1.414c.661.661 1.54 1.025 2.475 1.025s1.813-.364 2.475-1.025c.391-.391.391-1.023 0-1.414s-1.023-.391-1.414 0c-.566.566-1.555.566-2.121 0zm-2.939-3.061c0 .828.672 1.5 1.5 1.5s1.5-.672 1.5-1.5-.672-1.5-1.5-1.5-1.5.672-1.5 1.5zm11.5 6.5c-.377 0-.717-.144-.981-.374-.375.527-.81 1.006-1.299 1.427.831.049 1.647.364 2.255.972.391.391.391 1.023 0 1.414-.195.195-.451.293-.707.293s-.512-.098-.707-.293c-.566-.566-1.555-.566-2.121 0-.391.391-1.023.391-1.414 0-.21-.21-.298-.489-.282-.764-.769.22-1.605.356-2.44.315 1.036 1.797 2.973 3.01 5.197 3.01 3.314 0 6-2.686 6-6 0-2.224-1.213-4.16-3.01-5.197.039.757-.078 1.515-.258 2.22.718.112 1.268.728 1.268 1.477 0 .828-.672 1.5-1.5 1.5z"/></svg>