<svg id="Layer_1" viewBox="0 0 24 24" xmlns="http://www.w3.org/2000/svg" data-name="Layer 1"><path d="m23 5.5h-3c0-1.379-1.121-2.5-2.5-2.5h-1.366l-1.653-1.378c-1.256-1.046-2.847-1.622-4.481-1.622h-5c-2.757 0-5 2.243-5 5v3c0 2.177 1.407 4.014 3.352 4.699l-.627 5.329c-1.524.141-2.725 1.412-2.725 2.972 0 1.654 1.346 3 3 3h7c1.654 0 3-1.346 3-3s-1.346-3-3-3h-.875l.588-5h.287c1.634 0 3.226-.576 4.48-1.622l1.654-1.378h1.366c1.379 0 2.5-1.121 2.5-2.5h3c.553 0 1-.447 1-1s-.447-1-1-1zm-13 14.5c.551 0 1 .448 1 1s-.449 1-1 1h-7c-.551 0-1-.448-1-1s.449-1 1-1zm-5.258-2 .588-5h2.368l-.588 5zm9.258-8.825-.8.666c-.896.748-2.033 1.159-3.2 1.159h-5c-1.654 0-3-1.346-3-3v-3c0-1.654 1.346-3 3-3h5c1.167 0 2.304.411 3.2 1.159l.8.667zm4-1.675c0 .275-.225.5-.5.5h-1.5v-3h1.5c.275 0 .5.225.5.5zm-7-2.5c0 .553-.448 1-1 1h-5c-.552 0-1-.447-1-1s.448-1 1-1h5c.552 0 1 .447 1 1zm0 3c0 .553-.448 1-1 1h-5c-.552 0-1-.447-1-1s.448-1 1-1h5c.552 0 1 .447 1 1z"/></svg>