<svg id="Layer_1" viewBox="0 0 24 24" xmlns="http://www.w3.org/2000/svg" data-name="Layer 1"><path d="m13 10.396c0 2.587-1.648 4.875-4.103 5.692l-2.581.86c-.51.175-1.091-.104-1.265-.632-.175-.524.108-1.09.632-1.265l2.581-.86c1.636-.545 2.735-2.07 2.735-3.795v-9.396c0-.552.447-1 1-1s1 .448 1 1v9.396zm-2.906 9.217c-.488-.255-1.094-.063-1.348.426-.292.56-.809.974-1.419 1.136-.484.112-2.88.822-3.332.825-1.064.016-2.022-.927-1.995-2.002 0-1.251.143-2.502.424-3.72l1.656-7.178c.421-1.825 2.023-3.1 3.897-3.1.553 0 1-.448 1-1s-.447-1-1-1c-2.811 0-5.215 1.913-5.847 4.651l-1.655 7.177c-.314 1.364-.475 2.767-.475 4.169-.05 2.152 1.858 4.038 3.996 4.002.899.02 2.97-.707 3.846-.892 1.152-.307 2.128-1.089 2.678-2.146.255-.49.064-1.094-.426-1.349zm5.929-13.613c1.874 0 3.477 1.275 3.897 3.101l.26 1.125c.123.542.675.874 1.199.749.539-.124.874-.661.75-1.199l-.26-1.124c-.632-2.738-3.036-4.651-5.847-4.651-.553 0-1 .448-1 1s.447 1 1 1zm7.978 12c0 3.314-2.686 6-6 6s-6-2.686-6-6 2.686-6 6-6 6 2.686 6 6zm-6 2.5c0-.828-.672-1.5-1.5-1.5s-1.5.672-1.5 1.5.672 1.5 1.5 1.5 1.5-.672 1.5-1.5zm1-4.5c0-1.105-.895-2-2-2s-2 .895-2 2 .895 2 2 2 2-.895 2-2zm3.5 2.5c0-.828-.672-1.5-1.5-1.5s-1.5.672-1.5 1.5.672 1.5 1.5 1.5 1.5-.672 1.5-1.5z"/></svg>