<svg id="Layer_1" viewBox="0 0 24 24" xmlns="http://www.w3.org/2000/svg" data-name="Layer 1"><path d="m20.257 23.967c-.52.141-1.083-.172-1.223-.71-.823-3.095-3.715-5.257-7.034-5.257s-6.211 2.162-7.034 5.257c-.141.533-.689.852-1.223.71-.534-.143-.852-.689-.709-1.224 1.055-3.971 4.742-6.743 8.966-6.743s7.911 2.772 8.966 6.743c.142.534-.176 1.081-.709 1.224zm-15.255-16.936c0-.01-.002-.02-.002-.031 0-3.86 3.14-7 7-7s7 3.14 7 7c0 .01-.002.02-.002.031 0 .013-.002.025-.003.038-.013 1.298-.383 2.51-1.013 3.548-.037-.757-.174-1.387-.341-1.902-.535.417-1.137.79-1.784 1.025.148.558.188 1.5.082 2.121-.185 1.24-1.227 2.139-2.479 2.139h-2.92c-1.251 0-2.293-.899-2.479-2.138-.106-.622-.066-1.563.082-2.122-.647-.235-1.25-.608-1.784-1.025-.167.515-.304 1.145-.341 1.902-.63-1.039-1-2.25-1.013-3.548 0-.013-.003-.025-.003-.038zm8.998 3.97c0-.435-.064-.767-.135-1.001h-3.73c-.118.323-.178 1.122-.094 1.569.037.249.248.431.5.431h2.92c.252 0 .463-.182.5-.433.025-.167.04-.356.04-.566zm-6.966-4.337c.901.841 1.804 1.336 2.466 1.336h5c.662 0 1.565-.495 2.466-1.336-.176-2.598-2.324-4.664-4.966-4.664s-4.79 2.066-4.966 4.664z"/></svg>