<svg id="Layer_1" viewBox="0 0 24 24" xmlns="http://www.w3.org/2000/svg" data-name="Layer 1"><path d="m15.588 0h-3.176c-4.639 0-8.412 3.773-8.412 8.412v1.581c0 1.315.667 1.994 2.231 1.994 1.459 0 2.761-.594 3.947-1.184-.11.209-.179.444-.179.696 0 .828.672 1.5 1.5 1.5s1.5-.672 1.5-1.5c0-.799-.627-1.447-1.415-1.491.907-.595 1.721-1.275 2.439-1.979.795.771 1.614 1.422 2.451 1.973-.817.013-1.476.677-1.476 1.498 0 .828.672 1.5 1.5 1.5s1.5-.672 1.5-1.5c0-.258-.071-.498-.186-.71 1.351.675 2.738 1.108 4.179 1.21 1.073.022 2.029-.931 2.007-2.006v-1.582c.002-4.639-3.772-8.412-8.41-8.412zm-9.588 9.993v-1.581c0-3.536 2.876-6.412 6.412-6.412h3.176c.153 0 .305.006.455.016-.895 1.646-4.393 7.368-10.043 7.978zm15.995.007c-2.305-.249-4.53-1.407-6.616-3.443 1.588-1.91 2.482-3.675 2.671-4.065 2.317.968 3.95 3.257 3.95 5.921l-.005 1.588zm-14.995 4h-3c-2.206 0-4 1.794-4 4v3c0 1.654 1.346 3 3 3s3-1.346 3-3v-4h1c.552 0 1-.447 1-1v-1c0-.553-.448-1-1-1zm-3 7c0 .552-.449 1-1 1s-1-.448-1-1v-3c0-1.103.897-2 2-2zm18.357-5.485c-1.249 2.082-2.711 3.557-4.357 4.455v3.03c0 .553-.447 1-1 1s-1-.447-1-1v-2.254c-.645.156-1.308.254-2 .254-.373 0-1.092-.008-2-.23v2.23c0 .553-.448 1-1 1s-1-.447-1-1v-3.019c-.18-.099-.359-.196-.543-.315-.464-.3-.597-.919-.297-1.383.3-.463.919-.597 1.383-.297 1.567 1.014 2.892 1.014 3.457 1.014 2.61 0 4.845-1.519 6.642-4.515.283-.474.898-.627 1.372-.343s.627.898.343 1.372z"/></svg>