<svg id="Layer_1" viewBox="0 0 24 24" xmlns="http://www.w3.org/2000/svg" data-name="Layer 1"><path d="m15 12.943c0 .553-.448 1-1 1h-1v1c0 .553-.448 1-1 1s-1-.447-1-1v-1h-1c-.552 0-1-.447-1-1s.448-1 1-1h1v-1c0-.553.448-1 1-1s1 .447 1 1v1h1c.552 0 1 .447 1 1zm8.999-1.554c-.003.502-.203.975-.559 1.329-.765.761-2.334 1.958-4.689 2.179-.609 2.519-2.41 4.494-5.416 5.875-.401.186-.827.277-1.251.277-.493 0-.986-.124-1.438-.372-2.928-1.598-4.71-3.54-5.357-5.778-2.377-.211-3.96-1.416-4.73-2.182-.355-.353-.555-.826-.559-1.328-.012-1.745.113-4.336 2.859-7.582 0 0 .692-.857 1.713-.857.939 0 1.594.172 2.023.577.968.914-.115 1.136-.596 1.136 0 0 .135.729-.538.979s-1.457.449-1.457.449c-.275.825.329 3.49-.506 5.402.165-.186.665-.677 1.501-.92v-.508c0-1.729 1.102-3.254 2.741-3.797l3.629-1.204c.413-.137.848-.136 1.258 0l3.631 1.205c1.639.543 2.741 2.068 2.741 3.796v.509c.836.243 1.336.734 1.501.92-.835-1.912-.231-4.577-.506-5.402 0 0-.784-.199-1.457-.449s-.538-.979-.538-.979c-.481 0-1.564-.222-.596-1.136.43-.405 1.084-.577 2.023-.577 1.021 0 1.713.857 1.713.857 2.747 3.246 2.871 5.837 2.859 7.582zm-6.999-1.325c0-.863-.551-1.626-1.37-1.897l-3.63-1.204-3.629 1.204c-.819.271-1.37 1.034-1.37 1.898v3.033c.049 2.216 1.599 4.183 4.606 5.824.281.154.606.166.893.033 2.978-1.369 4.45-3.291 4.501-5.877v-3.015z"/></svg>