<svg id="Layer_1" viewBox="0 0 24 24" xmlns="http://www.w3.org/2000/svg" data-name="Layer 1"><path d="m24 13.5v9.5c0 .552-.448 1-1 1s-1-.448-1-1v-9.5c0-1.928-.727-3.73-2-5.098v3.598c0 3.309-2.691 6-6 6-.834 0-1.642-.168-2.4-.5-.506-.221-.737-.811-.516-1.317.222-.507.811-.736 1.317-.516.505.221 1.043.333 1.6.333 2.206 0 4-1.794 4-4v-7c0-1.654-1.346-3-3-3h-2c-.527 0-1.046.139-1.5.401-.477.276-1.089.113-1.366-.365-.276-.478-.113-1.089.365-1.366.757-.438 1.622-.669 2.5-.669h2c2.757 0 5 2.243 5 5v.776c2.507 1.784 4 4.621 4 7.724zm-13.458-.091-2.102-3.56-1.586-1.582c-.472.473-1.1.733-1.768.733s-1.295-.26-1.768-.732l-2.292-2.293c-1.359-1.303-1.358-3.648-.001-4.95 1.321-1.321 3.627-1.322 4.95 0l2.292 2.292c.472.472.732 1.1.732 1.768s-.26 1.295-.732 1.768l1.602 1.597 3.545 2.083c.669.393.787 1.313.238 1.862l-1.25 1.25c-.548.548-1.466.432-1.86-.236zm-5.103-6.555 1.414-1.414c.195-.195.195-.512 0-.708l-2.293-2.292c-.566-.566-1.555-.566-2.121 0-.583.558-.583 1.563 0 2.121l2.292 2.293c.196.196.513.195.708 0zm-.132 4.162c-.544-.1-1.062.266-1.159.81-.098.55-.147 1.114-.147 1.675v9.5c0 .552.448 1 1 1s1-.448 1-1v-9.5c0-.444.039-.89.116-1.325.097-.544-.266-1.063-.81-1.159z"/></svg>