<svg id="Layer_1" viewBox="0 0 24 24" xmlns="http://www.w3.org/2000/svg" data-name="Layer 1"><path d="m23.982 14.647c-.073-1.426-1.201-2.555-2.623-2.626-1.456-.07-2.977.076-4.398.434-1.311.33-2.153 1.597-1.957 2.948.134.932.202 1.729.195 2.307-.008.795-.123 1.483-.325 2.016l-1.895 1.715v-8.495c.292-.669.808-1.4 1.52-2.128.531-.544 1.342-1.223 2.345-1.964 1.132-.837 1.461-2.38.763-3.59-.974-1.691-2.26-3.26-3.72-4.538-1.106-.967-2.709-.967-3.814 0-1.459 1.277-2.745 2.845-3.721 4.538-.697 1.21-.369 2.753.763 3.59.698.516 1.671 1.274 2.346 1.965.712.727 1.228 1.457 1.52 2.127v8.482l-1.894-1.809c-.177-.518-.28-1.165-.288-1.91-.006-.577.061-1.374.196-2.305.195-1.351-.646-2.619-1.957-2.949-1.422-.358-2.939-.51-4.397-.434-1.423.072-2.55 1.201-2.622 2.626-.075 1.459.076 2.982.433 4.403.33 1.312 1.595 2.156 2.945 1.961.643-.094 1.565-.195 2.302-.196.858.01 1.595.139 2.137.37l2.028 1.936c.566.566 1.318.879 2.118.879s1.552-.312 2.08-.844l2.227-2.015c.53-.202 1.217-.317 2.013-.326.747-.005 1.659.103 2.304.197 1.351.196 2.612-.649 2.944-1.962.357-1.424.507-2.946.434-4.403zm-17.099 4.247c-.367-.048-.755-.073-1.163-.078-.864.007-1.898.113-2.609.217-.328.051-.644-.158-.722-.47-.062-.248-.112-.5-.16-.754l1.489-.422c.387-.149.425-.677.067-.887-.25-.147-.994-.412-1.776-.674-.012-.361-.014-.721.005-1.076.02-.403.327-.711.73-.73.211-.011.423-.017.636-.017.148 0 .298.023.447.028.257.775.518 1.512.665 1.763.21.359.737.321.886-.067l.416-1.472c.253.048.511.079.759.141.31.078.515.395.468.724-.151 1.046-.224 1.925-.216 2.613.003.336.024.736.079 1.163zm4.007-9.474c-.767-.785-1.831-1.617-2.587-2.175-.314-.232-.409-.654-.22-.982.176-.306.371-.603.569-.898l1.413.581c.502.224 1.035-.233.894-.765-.088-.332-.371-1.068-.693-1.849.36-.386.731-.758 1.122-1.1.172-.15.382-.226.593-.226s.421.075.592.226c.391.342.762.715 1.122 1.1-.322.781-.605 1.517-.693 1.849-.141.532.392.989.894.765l1.413-.581c.198.295.393.592.568.897.189.329.095.751-.219.983-1.104.816-1.973 1.548-2.587 2.174-.333.342-.724.78-1.091 1.286-.366-.506-.758-.944-1.091-1.285zm9.393 7.967 1.488.422c-.047.253-.097.506-.159.753-.078.311-.394.517-.721.472-.688-.101-1.763-.218-2.611-.218-.409.005-.797.03-1.163.078.056-.427.075-.827.079-1.162.008-.687-.065-1.567-.216-2.615-.047-.327.159-.644.469-.723.248-.062.5-.112.753-.16l.422 1.491c.149.388.676.426.886.067.148-.253.411-.998.67-1.779.361-.012.721-.013 1.078.005.402.02.709.327.729.73.018.355.017.715.004 1.076-.782.262-1.526.527-1.776.674-.358.21-.32.738.067.887z"/></svg>