<svg id="Layer_1" viewBox="0 0 24 24" xmlns="http://www.w3.org/2000/svg" data-name="Layer 1"><path d="m12 15c3.309 0 6-2.691 6-6v-6c0-1.654-1.346-3-3-3h-6c-1.654 0-3 1.346-3 3v6c0 3.309 2.691 6 6 6zm0-2c-1.858 0-3.411-1.279-3.858-3h.297c1.561 0 3.25-.86 4.321-2h3.24v1c0 2.206-1.794 4-4 4zm4-10v3h-3v-1h1c.552 0 1-.447 1-1s-.448-1-1-1h-1v-1h2c.551 0 1 .448 1 1zm-8 0c0-.552.449-1 1-1h2v1h-1c-.552 0-1 .447-1 1s.448 1 1 1h1v1h-3zm13 20c0 .553-.448 1-1 1s-1-.447-1-1c0-1.823-.769-3.817-1.869-4.849-.304-.25-.6-.163-.833.062l-3.517 4.411c-.377.497-1.189.496-1.564-.002l-3.543-4.457c-.194-.177-.525-.257-.798-.021-1.105 1.032-1.876 3.029-1.876 4.856 0 .553-.448 1-1 1s-1-.447-1-1c0-2.412.986-4.892 2.511-6.317 1.011-.99 2.782-.87 3.694.197l2.795 3.515 2.769-3.471c.95-1.113 2.687-1.232 3.729-.231 1.519 1.424 2.501 3.899 2.501 6.308z"/></svg>