<?xml version="1.0" encoding="UTF-8"?>
<svg xmlns="http://www.w3.org/2000/svg" id="Layer_1" data-name="Layer 1" viewBox="0 0 24 24">
  <path d="M17.085,1.824C15.233,.297,12.798-.312,10.401,.156c-3.156,.614-5.672,3.153-6.26,6.318-.636,3.423,.887,6.745,3.879,8.463,.604,.347,.979,1.002,.979,1.71v2.368c0,1.591,.493,2.891,1.465,3.862l.828,.829c.372,.387,1.042,.387,1.414,0l.828-.829c.944-.944,1.465-2.2,1.465-3.535v-2.694c0-.704,.391-1.369,1.02-1.735,2.455-1.428,3.98-4.078,3.98-6.914,0-2.398-1.063-4.649-2.915-6.176Zm-4.964,19.641l-.121,.121c-.685-.636-1-1.423-1-2.569v-2.016h2v2.343c0,.79-.32,1.562-.879,2.121Zm2.893-8.279c-.735,.428-1.3,1.071-1.643,1.814h-.371v-5.184c1.161-.414,2-1.514,2-2.816,0-.552-.447-1-1-1s-1,.448-1,1-.448,1-1,1-1-.449-1-1-.447-1-1-1-1,.448-1,1c0,1.302,.839,2.402,2,2.816v5.184h-.363c-.338-.743-.894-1.38-1.62-1.797-2.245-1.29-3.387-3.788-2.908-6.364,.494-2.779,3.061-4.881,5.875-4.837,3.229-.072,6.084,2.765,6.017,5.998,0,2.127-1.145,4.114-2.986,5.186Z"/>
</svg>
