<svg id="Layer_1" viewBox="0 0 24 24" xmlns="http://www.w3.org/2000/svg" data-name="Layer 1"><path d="m22.929 13.697c-.677-.529-1.542-.712-2.375-.503-.442.111-.977.239-1.555.369v-4.629l3.515-1.275c1.948-.622 1.952-3.67.008-4.3l-7.901-2.9c-1.657-.607-3.48-.611-5.136-.007l-7.998 2.91c-1.949.626-1.947 3.679.002 4.302l3.511 1.274v4.624c-.577-.131-1.112-.259-1.554-.369-1.69-.469-3.493.945-3.446 2.698v3.366c-.047 1.753 1.755 3.168 3.445 2.697 1.048-.263 2.561-.615 4.143-.898-.486-.529-.88-1.142-1.153-1.82-1.241.242-2.442.519-3.476.778-.596.104-.927-.266-.959-.757v-3.366c.033-.491.361-.862.96-.757.943.236 2.027.488 3.153.714.153-.787.459-1.518.887-2.163v-4.022l2.442.886c.823.299 1.687.448 2.552.448s1.728-.149 2.55-.448l2.455-.891v4.026c.428.644.734 1.376.887 2.163 1.126-.227 2.21-.478 3.153-.714.594-.106.928.267.959.757v3.366c-.032.491-.363.862-.96.757-1.033-.259-2.234-.535-3.475-.778-.273.678-.666 1.291-1.153 1.82 1.95.299 3.323.811 4.821.982 1.48.029 2.803-1.291 2.767-2.781v-3.366c0-.864-.39-1.663-1.07-2.194zm-9.067-5.026c-1.206.437-2.534.436-3.739 0l-7.952-2.886c-.236-.122-.237-.42 0-.542l7.999-2.911c.604-.22 1.238-.33 1.873-.33.64 0 1.28.112 1.889.335l7.902 2.9c.237.123.236.419 0 .542l-7.97 2.892zm-1.863 4.329c-2.205 0-4 1.794-4 4 0 1.255.593 2.363 1.5 3.097v3.249c0 .581.703.872 1.114.461l1.386-1.386 1.386 1.386c.411.411 1.114.12 1.114-.461v-3.249c.907-.734 1.5-1.842 1.5-3.097 0-2.206-1.794-4-4-4zm0 2c1.103 0 2 .897 2 2s-.897 2-2 2-2-.897-2-2 .897-2 2-2z"/></svg>