<svg id="Layer_1" viewBox="0 0 24 24" xmlns="http://www.w3.org/2000/svg" data-name="Layer 1"><path d="m4.316 21.432c.296.426.205 1.011-.198 1.338-.46.373-1.113.281-1.451-.206-1.676-2.414-2.667-5.191-2.667-8.149 0-6.941 4.724-11.253 11.417-12.408.305-.052.583.183.583.492 0 .238-.168.443-.401.488-5.776 1.13-9.599 5.527-9.599 11.428 0 2.553.867 4.934 2.316 7.017zm10.884-16.965c.285.338.705.533 1.147.533h2.32l-.879 2.26c-.138.356.124.74.506.74h.32c.407 0 .781-.222.975-.579l1.911-2.421h1.5c.552 0 1-.448 1-1s-.448-1-1-1h-1.5l-1.929-2.421c-.195-.357-.569-.579-.975-.579h-.298c-.383 0-.646.386-.505.742l.891 2.258h-2.241l-1.11-.772c-.146-.146-.345-.228-.551-.228-.599 0-.974.647-.677 1.167l1.096 1.3zm7.124 4.643c1.097 1.589 1.676 3.453 1.676 5.39 0 5.238-4.262 9.5-9.5 9.5s-9.5-4.262-9.5-9.5c-.011-4.448 3.096-8.183 7.196-9.216.563-.142 1.161.04 1.537.483l.43.506c.421.496.47 1.201.131 1.756-.874 1.429-1.635 3.187-1.848 5.471h4c-.07-.727-.21-1.469-.429-2.22-.154-.53.149-1.085.68-1.24.531-.156 1.085.149 1.24.68.273.937.446 1.868.52 2.78h3.469c-.155-1.166-.573-2.277-1.247-3.254-.313-.455-.199-1.077.255-1.391.456-.315 1.077-.199 1.392.255zm-9.879 6.39c.243 2.4 1.287 4.484 2.039 5.709.725-1.229 1.728-3.311 1.961-5.709zm-5.362-2h3.346c.188-2.521 1.052-4.711 1.935-6.186-2.787.83-4.885 3.241-5.281 6.186zm5.369 8.209c-.835-1.472-1.806-3.671-2.019-6.209h-3.359c.399 2.978 2.547 5.403 5.378 6.209zm9.473-6.209h-3.469c-.206 2.546-1.15 4.751-1.958 6.221 2.854-.791 5.024-3.227 5.426-6.221z"/></svg>