<svg id="Layer_1" viewBox="0 0 24 24" xmlns="http://www.w3.org/2000/svg" data-name="Layer 1"><path d="m.293 17.707c-.391-.391-.391-1.023 0-1.414l10.962-10.962c-1.911-1.608-4.1-2.606-6.403-3.151-.495-.117-.856-.542-.863-1.051-.009-.635.527-1.132 1.162-1.102 3.552.164 6.477 1.089 8.599 2.809l.543-.543c.391-.391 1.023-.391 1.414 0s.391 1.023 0 1.414l-.543.543c1.72 2.122 2.646 5.047 2.809 8.599.029.635-.467 1.171-1.103 1.163-.509-.007-.933-.368-1.05-.863-.545-2.303-1.543-4.493-3.151-6.403l-10.962 10.961c-.391.391-1.023.391-1.414 0zm22.707-17.707c-.553 0-1 .448-1 1v12.21c0 .263-.106.521-.293.707l-1.828 1.829c-.566.566-.879 1.32-.879 2.121v1.172c0 .551-.448 1-1 1h-2.172c-.802 0-1.555.312-2.121.878l-.828.829c-.187.186-.444.293-.707.293h-11.172c-.553 0-1 .448-1 1s.447 1 1 1h11.172c.801 0 1.555-.312 2.121-.879l.828-.829c.188-.188.439-.292.707-.292h2.172c1.654 0 3-1.346 3-3v-1.172c0-.263.106-.521.293-.707l1.828-1.829c.566-.566.879-1.32.879-2.121v-12.21c0-.552-.447-1-1-1zm-12.756 14.125-1.376.609c-.528.233-.868.756-.868 1.334v.695c0 .488.244.943.649 1.213l1.19.793c.62.413 1.452.293 1.929-.28l.894-1.072c.419-.503.452-1.223.08-1.762l-.708-1.025c-.398-.576-1.149-.788-1.79-.505z"/></svg>