<svg id="Layer_1" viewBox="0 0 24 24" xmlns="http://www.w3.org/2000/svg" data-name="Layer 1"><path d="m7.842 16.741.627 1.296c.14.482-.221.963-.723.963h-1.494c-.502 0-.863-.481-.723-.963l.627-1.296c-.397-.27-.658-.725-.658-1.241 0-.828.672-1.5 1.5-1.5s1.5.672 1.5 1.5c0 .516-.261.971-.658 1.241zm3.408 4.244c-.569.646-1.39 1.016-2.25 1.016h-4c-1.654 0-3-1.346-3-3v-14.001c0-1.654 1.346-3 3-3h4c1.654 0 3 1.346 3 3v.39c-1.78.271-3.642.499-5.041.579-.541.031-.959.472-.959 1.014 0 .562.452 1.018 1.014 1.017 1.442-.003 3.234-.028 4.986-.178v3.178c0 .552.448 1 1 1s1-.448 1-1v-3.419c1.672-.31 3.508-.497 5.062-.541.248 1.119 1.245 1.96 2.438 1.96 1.565 0 2.8-1.447 2.436-3.073-.267-1.192-1.419-1.948-2.641-1.925-1.85.025-4.702.585-7.295 1.059v-.061c0-2.757-2.243-5-5-5h-4c-2.757 0-5 2.243-5 5v14c0 2.757 2.243 5 5 5h4c1.434 0 2.801-.617 3.75-1.693.365-.414.326-1.046-.088-1.411-.415-.367-1.046-.326-1.412.089zm3.124-2.888c-.431.346-.5.976-.154 1.406.345.431.975.498 1.406.154 1.086-.871 2.662-.871 3.748 0 .428.343 1.059.279 1.406-.154.346-.431.277-1.061-.154-1.406-1.812-1.453-4.44-1.453-6.252 0zm-3.062-2.632c-.401.38-.417 1.013-.038 1.413.38.402 1.013.419 1.414.038 2.698-2.557 6.926-2.557 9.624 0 .4.38 1.034.364 1.414-.038.38-.4.363-1.033-.038-1.413-3.47-3.289-8.906-3.289-12.376 0zm6.188 5.535c-.828 0-1.5.672-1.5 1.5s.672 1.5 1.5 1.5 1.5-.672 1.5-1.5-.672-1.5-1.5-1.5z"/></svg>