<svg id="Layer_1" viewBox="0 0 24 24" xmlns="http://www.w3.org/2000/svg" data-name="Layer 1"><path d="m23.707 22.293-4-4c-.776-.776-.742-3.782-.717-5.978-.009-.479.041-.955-.008-1.408-.062-2.46-1.249-5.046-3.546-7.343-4.281-4.28-9.572-4.743-13.165-1.151-2.932 3.118-2.993 7.404-.228 11.238.43-.521.965-.947 1.585-1.232-.096-.137-.188-.277-.277-.418h6.648v4.872c-.058.699-.647 1.921-.647 1.921.495.134 2.453.26 3.239.195 2.419-.032 4.924-.058 5.701.719l4 4c.391.391 1.023.391 1.414 0s.391-1.023 0-1.414zm-6.825-12.293h-4.882v-2h4.206c.313.644.547 1.316.676 2zm-1.949-4h-2.933v-2.644c.737.469 1.423 1.024 2.021 1.622.318.318.624.661.912 1.021zm-11.171-2.241c.715-.696 1.469-1.153 2.238-1.428v3.669h-3.67c.275-.77.736-1.525 1.431-2.241zm4.238-1.745c.676.018 1.347.148 2 .369v3.617h-2zm-5.985 5.986h3.985v2h-3.617c-.221-.653-.352-1.324-.368-2zm5.985 2v-2h2v2zm8.931 2c-.17 1.114-.694 2.216-1.69 3.238-1.033 1.003-2.13 1.523-3.241 1.689v-4.927zm-8.931 4.5c0 1.381-1.119 2.5-2.5 2.5s-2.5-1.119-2.5-2.5 1.119-2.5 2.5-2.5 2.5 1.119 2.5 2.5z"/></svg>