<svg id="Layer_1" viewBox="0 0 24 24" xmlns="http://www.w3.org/2000/svg" data-name="Layer 1"><path d="m20 0c-.553 0-1 .447-1 1v3.029l-6.024-3.147c-.061-.494-.466-.882-.976-.882s-.915.387-.976.881l-6.024 3.148v-3.029c0-.552-.448-1-1-1s-1 .447-1 1v15.909c0 1.868 1.029 3.566 2.684 4.431l4 2.092c.725.378 1.52.567 2.315.567s1.591-.189 2.315-.568l4-2.09c1.656-.865 2.685-2.563 2.685-4.432v-15.909c.001-.552-.446-1-.999-1zm-1 12.529-4.362-2.279 4.362-2.279v4.559zm-8 4.763c-.131-.047-.265-.082-.39-.147l-5.062-2.645 5.452-2.849zm2-5.641 5.452 2.849-5.063 2.646c-.125.065-.258.1-.389.147zm0-2.801v-5.699l5.452 2.849-5.452 2.849zm-2-5.699v5.699l-5.452-2.849 5.452-2.849zm-1.639 7.099-4.361 2.279v-4.558zm8.028 9.318-4 2.09c-.87.455-1.91.454-2.779 0l-4-2.092c-.993-.519-1.61-1.537-1.61-2.658v-.439l4.684 2.447c.726.38 1.521.569 2.316.569s1.591-.189 2.315-.568l4.685-2.448v.439c0 1.121-.617 2.14-1.61 2.659z"/></svg>