<?xml version="1.0" encoding="UTF-8"?>
<svg xmlns="http://www.w3.org/2000/svg" id="Layer_1" data-name="Layer 1" viewBox="0 0 24 24">
  <path d="M17.075,13.59c.966-2.001,1.92-4.491,1.925-6.59,0-3.86-3.14-7-7-7S5,3.14,5,7c0,1.995,.852,4.379,1.925,6.59-2.429,1.669-3.925,4.439-3.925,7.41v2c0,.552,.448,1,1,1s1-.448,1-1v-2c0-2.229,1.079-4.318,2.853-5.629,1.302,2.355,2.651,4.273,3.147,4.956v2.673c0,.552,.448,1,1,1s1-.448,1-1v-2.673c.497-.683,1.845-2.601,3.147-4.956,1.773,1.311,2.853,3.4,2.853,5.629v2c0,.552,.448,1,1,1s1-.448,1-1v-2c0-2.97-1.496-5.741-3.925-7.41Zm-5.075,4.679c-1.112-1.624-3.107-4.745-4.21-7.69-.265-1.274-.056-2.414,.591-3.213,.726-.895,1.977-1.367,3.619-1.367s2.899,.474,3.627,1.372c.641,.791,.849,1.916,.597,3.171-1.101,2.956-3.107,6.096-4.224,7.727Zm0-16.27c2.306,0,4.234,1.578,4.809,3.706-.862-.852-2.338-1.706-4.809-1.706s-3.951,.857-4.81,1.711c.573-2.13,2.502-3.711,4.81-3.711Z"/>
</svg>
