<svg id="Layer_1" viewBox="0 0 24 24" xmlns="http://www.w3.org/2000/svg" data-name="Layer 1"><path d="m24 10.383v-1.468c0-.955-.555-1.839-1.428-2.258-1.451-.696-2.872-1.354-3.384-3.399l-.188-.758v-2.5c-1.654 0-2.994 1.339-2.999 2.991-2.313 1.113-3.001 3.878-3.001 5.507 0 .035-.038 3.502-2 3.502-.948.031-1.832.169-2.654.356-.591-1.702-2.488-4.356-6.346-4.356v2c3.002 0 4.11 2.12 4.425 2.932-4.22 1.644-6.313 4.906-6.427 5.089l1.694 1.062c.131-.207 3.295-5.084 9.776-5.084.27 0 .531.021.793.038l-3.945 3.226 3.529 2.336-2.792 2.4h-4.053v2h14v-2h-6.878l3.033-2.607-3.471-2.299 3.21-2.624c4.6 1.269 7.452 4.673 7.487 4.716l1.548-1.267c-.105-.129-1.508-1.802-3.929-3.337v-3.699l4-.5zm-6-1.266v4.37c-1.175-.548-2.5-1.005-3.969-1.261.722-1.182.969-2.699.969-3.724.002-.376.1-3.438 2.559-3.936.896 2.332 2.756 3.225 4.163 3.899.076.037.141.094.188.162l-3.91.488z"/></svg>