<svg id="Layer_1" viewBox="0 0 24 24" xmlns="http://www.w3.org/2000/svg" data-name="Layer 1"><path d="m24 1v7c0 .553-.448 1-1 1s-1-.447-1-1v-7c0-.553.448-1 1-1s1 .447 1 1zm-5 8c.552 0 1-.447 1-1v-5c0-.553-.448-1-1-1s-1 .447-1 1v5c0 .553.448 1 1 1zm-4 0c.552 0 1-.447 1-1v-3c0-.553-.448-1-1-1s-1 .447-1 1v3c0 .553.448 1 1 1zm9 12c0 1.654-1.346 3-3 3h-18c-1.654 0-3-1.346-3-3 0-1.302.839-2.402 2-2.816v-7.184c0-2.757 2.243-5 5-5h4c.552 0 1 .447 1 1s-.448 1-1 1h-4c-1.654 0-3 1.346-3 3v7h4.5c.265 0 .52.105.707.293l.707.707h4.172l.707-.707c.188-.188.442-.293.707-.293h4.5v-6c0-.553.448-1 1-1s1 .447 1 1v6.184c1.161.414 2 1.514 2 2.816zm-2 0c0-.552-.449-1-1-1h-5.086l-.707.707c-.188.188-.442.293-.707.293h-5c-.265 0-.52-.105-.707-.293l-.707-.707h-5.086c-.551 0-1 .448-1 1s.449 1 1 1h18c.551 0 1-.448 1-1z"/></svg>