<svg id="Layer_1" viewBox="0 0 24 24" xmlns="http://www.w3.org/2000/svg" data-name="Layer 1"><path d="m5 8h1v1c-.064 3.228 2.787 6.068 6.013 5.999 3.275.026 5.995-2.829 5.987-6.214v-.785h1c.553 0 1-.447 1-1s-.447-1-1-1h-1c0-3.309-2.691-6-6-6s-6 2.691-6 6h-1c-.552 0-1 .447-1 1s.448 1 1 1zm7.396 4.981c-1.147.107-2.243-.253-3.086-1.021-.833-.758-1.31-1.836-1.31-2.961v-1h8v.785c0 2.16-1.583 4.003-3.604 4.196zm-1.396-10.839v1.858c0 .553.448 1 1 1s1-.447 1-1v-1.858c1.721.447 3 1.999 3 3.858h-8c0-1.859 1.28-3.411 3-3.858zm12 16.858v4c0 .553-.447 1-1 1s-1-.447-1-1v-4c.031-1.212-1.176-2.213-2.358-1.968l-4.224.768c-.821.15-1.418.865-1.418 1.7v3.5c0 .553-.448 1-1 1s-1-.447-1-1v-3.5c0-.835-.597-1.55-1.418-1.7l-4.224-.768c-1.188-.244-2.387.756-2.358 1.968v4c0 .553-.448 1-1 1s-1-.447-1-1v-4c-.06-2.422 2.345-4.428 4.716-3.935l4.224.768c.82.149 1.528.567 2.06 1.143.533-.576 1.24-.994 2.06-1.143l4.225-.768c2.369-.496 4.777 1.514 4.716 3.935z"/></svg>