<svg id="Layer_1" viewBox="0 0 24 24" xmlns="http://www.w3.org/2000/svg" data-name="Layer 1"><path d="m22 18.184c0-.774-.365-1.189-1-1.184-.552 0-1 .448-1 1h-4.5c-.265 0-.52.105-.707.293l-.707.707h-4.172l-.707-.707c-.188-.188-.442-.293-.707-.293h-4.5v-7c0-1.654 1.346-3 3-3h2c.552 0 1-.448 1-1s-.448-1-1-1h-2c-2.757 0-5 2.243-5 5v7.184c-1.161.414-2 1.514-2 2.816 0 1.654 1.346 3 3 3h18c1.654 0 3-1.346 3-3 0-1.302-.839-2.402-2-2.816zm-1 3.816h-18c-.551 0-1-.449-1-1s.449-1 1-1h5.086l.707.707c.188.188.442.293.707.293h5c.265 0 .52-.105.707-.293l.707-.707h5.086c.551 0 1 .449 1 1s-.449 1-1 1zm1-16.444v-1.556c0-2.206-1.794-4-4-4s-4 1.794-4 4v1.556c-1.19.694-2 1.97-2 3.444v2c0 2.206 1.794 4 4 4h4c2.206 0 4-1.794 4-4v-2c0-1.474-.81-2.75-2-3.444zm-6-1.556c0-1.103.897-2 2-2s2 .897 2 2v1h-4zm6 7c0 1.103-.897 2-2 2h-4c-1.103 0-2-.897-2-2v-2c0-1.103.897-2 2-2h4c1.103 0 2 .897 2 2zm-2.5-1c0 .828-.672 1.5-1.5 1.5s-1.5-.672-1.5-1.5.672-1.5 1.5-1.5 1.5.672 1.5 1.5z"/></svg>