<svg id="Layer_1" viewBox="0 0 24 24" xmlns="http://www.w3.org/2000/svg" data-name="Layer 1"><path d="m2.212 13.174c-.083-1.02.07-1.802.474-2.351.941-1.278 3.427-1.823 8.313-1.823 3.193 0 5.36.235 6.742.755.574.216 1.194.285 1.806.258.382-.017.753-.01 1.113.021.682.058 1.237-.589 1.099-1.26-1.03-5.001-5.457-8.774-10.759-8.774-6.065 0-11 4.935-11 11 0 .509.085 1.346.217 2.346.244 1.925.627 4.037.959 5.959.34 1.907 1.714 3.416 3.584 3.936 1.804.504 3.566.759 5.24.759.552 0 1-.447 1-1s-.448-1-1-1c-.253 0-.512-.016-.77-.029l-.72-4.971h1.491c.552 0 1-.447 1-1s-.448-1-1-1h-7.454c-.174-.604-.258-1.247-.334-1.826zm8.788-11.174c4.088 0 7.543 2.743 8.635 6.483-1.13-.714-3.737-1.103-5.807-1.302.17-.595-.361-1.191-.963-1.181h-3.865c-.569-.006-1.077.514-.983 1.086-2.379.149-4.298.543-5.653 1.4 1.092-3.742 4.547-6.486 8.636-6.486zm-3.826 19.733c-.618-.109-1.243-.241-1.877-.419-1.124-.312-1.948-1.217-2.152-2.36-.123-.691-.234-1.334-.339-1.954h3.682zm15.801-8.709c-.879-.879-2.429-1.219-4.249-.922-1.728.278-3.351 1.069-4.453 2.172-2.371 2.372-3.025 6.926-1.25 8.701.883.95 2.788 1.198 4.249.922 1.728-.278 3.351-1.069 4.453-2.172 2.371-2.372 3.025-6.926 1.25-8.701zm-2.664 7.287c-.8.8-2.055 1.402-3.357 1.612-1.281.206-2.186-.033-2.516-.362-.828-.828-.516-4.106 1.25-5.873.8-.8 2.055-1.402 3.357-1.612.787-.167 2.167-.058 2.516.362.828.828.516 4.106-1.25 5.873zm-.604-4.019c.391.391.391 1.023 0 1.414l-2 2c-.391.391-1.023.391-1.414 0s-.391-1.023 0-1.414l2-2c.391-.391 1.023-.391 1.414 0z"/></svg>