<svg id="Layer_1" viewBox="0 0 24 24" xmlns="http://www.w3.org/2000/svg" data-name="Layer 1"><path d="m12 7c.552 0 1 .448 1 1v3c0 .552-.448 1-1 1s-1-.448-1-1v-3c0-.552.448-1 1-1zm3 1v2c0 .552.448 1 1 1s1-.448 1-1v-2c0-.552-.448-1-1-1s-1 .448-1 1zm-8 0v2c0 .552.448 1 1 1s1-.448 1-1v-2c0-.552-.448-1-1-1s-1 .448-1 1zm0-3h10c2.206 0 4-1.794 4-4 0-.552-.448-1-1-1s-1 .448-1 1c0 1.103-.897 2-2 2h-10c-1.103 0-2-.897-2-2 0-.552-.448-1-1-1s-1 .448-1 1c0 2.206 1.794 4 4 4zm13 9h-8.858c-1.14 0-2.13.616-2.681 1.527l-3.224-3.543c-1.065-1.22-3.082-1.317-4.255-.199-1.213 1.106-1.312 3.003-.219 4.229l6.805 7.638c.369.414 1.001.448 1.412.082.413-.367.449-1 .082-1.412l-6.806-7.638c-.367-.412-.334-1.049.073-1.42.393-.371 1.071-.344 1.428.066l4.433 4.872c.387 1.066 1.335 1.883 2.507 2.05l5.161.737c.546.073 1.053-.301 1.131-.848s-.302-1.053-.848-1.131l-5.161-.737c-.559-.08-.981-.566-.981-1.131 0-.63.512-1.142 1.142-1.142h8.858c1.103 0 2 .897 2 2v5c0 .552.448 1 1 1s1-.448 1-1v-5c0-2.206-1.794-4-4-4z"/></svg>