<svg id="Layer_1" viewBox="0 0 24 24" xmlns="http://www.w3.org/2000/svg" data-name="Layer 1"><path d="m19.013 12.5c0 .553.447 1 1 1s1-.447 1-1c1.654 0 2.987-1.346 2.987-3 0-.846-.394-1.725-1.034-2.275.345-.488.547-1.083.547-1.725 0-1.483-1.084-2.71-2.5-2.949v-.051c0-.553-.447-1-1-1s-1 .447-1 1c-1.103 0-2 .897-2 2v6c0 1.103.897 2 2 2zm0-8h1.5c.552 0 1 .448 1 1s-.448 1-1 1h-1.5zm0 4h2c.552 0 1 .448 1 1s-.448 1-1 1h-2zm-13.513 7c.828 0 1.5.672 1.5 1.5s-.672 1.5-1.5 1.5-1.5-.672-1.5-1.5.672-1.5 1.5-1.5zm18.5 1v1c0 2.757-2.243 5-5 5h-14c-2.757 0-5-2.243-5-5v-8c0-2.757 2.243-5 5-5h9c.553 0 1 .447 1 1s-.447 1-1 1h-9c-1.654 0-3 1.346-3 3h12c.553 0 1 .447 1 1s-.447 1-1 1h-12v6c0 1.654 1.346 3 3 3h14c1.654 0 3-1.346 3-3v-1c0-.553.447-1 1-1s1 .447 1 1z"/></svg>