<svg id="Layer_1" viewBox="0 0 24 24" xmlns="http://www.w3.org/2000/svg" data-name="Layer 1"><path d="m11 4v-3c0-.552.448-1 1-1s1 .448 1 1v3c0 .552-.448 1-1 1s-1-.448-1-1zm-5 5h-3c-.552 0-1 .448-1 1s.448 1 1 1h3c.552 0 1-.448 1-1s-.448-1-1-1zm.311-5.994c-.391-.391-1.023-.391-1.414 0s-.391 1.023 0 1.414l2.122 2.122c.391.391 1.023.391 1.414 0s.391-1.023 0-1.414zm9.932 3.751c.256 0 .512-.098.707-.293l2.121-2.121c.391-.391.391-1.023 0-1.414s-1.023-.391-1.414 0l-2.121 2.121c-.391.391-.391 1.023 0 1.414.195.195.451.293.707.293zm5.799 10.093c-.12.36-.435.621-.811.674l-2.695.375.723 1.611c.677 1.332.308 3.023-.877 3.891-1.455 1.122-3.734.589-4.535-1.058l-.891-1.946-2.297 2.01c-.296.258-.715.321-1.072.158-.357-.162-.587-.518-.587-.911v-11.859c0-1.106.625-2.079 1.63-2.539 1.006-.46 2.15-.296 2.986.426l8.183 8.143c.269.268.363.665.243 1.025zm-3.082-1.03-6.703-6.673c-.295-.251-.654-.136-.795-.073-.139.063-.462.261-.462.72v9.655l1.648-1.442c.238-.209.563-.292.869-.225.309.066.568.274.7.562l1.429 3.125c.121.233.375.432.676.503.307.072.618.006.878-.185.398-.292.51-.913.255-1.416l-1.289-2.87c-.129-.288-.115-.619.037-.894s.426-.463.737-.506l2.02-.28z"/></svg>