<svg id="Layer_1" viewBox="0 0 24 24" xmlns="http://www.w3.org/2000/svg" data-name="Layer 1"><path d="m9.996 24h-.909c-2.256 0-4.091-1.835-4.091-4.091v-7.168c0-1.361.674-2.629 1.803-3.391l5.409-3.65c1.392-.938 3.188-.937 4.577 0l5.409 3.65c.842.568 1.439 1.424 1.683 2.411.133.536-.194 1.078-.73 1.21-.542.134-1.079-.195-1.211-.731-.125-.504-.43-.942-.86-1.232l-5.409-3.649c-.712-.479-1.629-.479-2.339 0l-5.409 3.65c-.577.389-.922 1.037-.922 1.733v7.168c0 1.153.938 2.091 2.091 2.091h.909c.553 0 1 .448 1 1s-.447 1-1 1zm4.632-.206c.438-.335.522-.963.188-1.402-.536-.701-.819-1.54-.819-2.425 0-.47.234-1.347.515-2.112.292.569.749 1.112 1.511 1.112 1.817 0 2.163-1.899 2.416-3.286.079-.436.16-.881.272-1.291 3.152 2.935 4.009 5.328 2.697 7.499-.102.169-.215.332-.338.486-.345.431-.274 1.061.156 1.405.434.346 1.061.275 1.406-.156.178-.222.34-.456.488-.701 1.908-3.161.711-6.68-3.559-10.46-.583-.518-1.134-.491-1.412-.43-.272.061-.774.268-1.073.964-.318.746-.472 1.585-.606 2.325-.072.399-.181.989-.3 1.35-.098-.248-.168-.479-.25-.68-.252-.606-.737-.989-1.299-1.023-.543-.031-1.066.275-1.38.829-.508.897-1.245 2.967-1.245 4.168 0 1.328.425 2.586 1.229 3.64.338.441.967.521 1.402.187zm2.811-4.063-.77.767c-.754.754-.889 1.99-.195 2.8.802.937 2.242.937 3.045 0 .693-.809.559-2.046-.195-2.8l-.769-.767c-.154-.154-.356-.231-.558-.231s-.404.077-.558.231zm-14.706-7.945c.434-.341.51-.97.168-1.404-.114-.146-.221-.301-.316-.459-1.308-2.165-.459-4.551 2.689-7.489.083.362.116.724.149 1.078.082.87.233 2.489 2.072 2.489.83 0 1.298-.644 1.586-1.265.294.272.737.35 1.116.163.497-.242.702-.841.46-1.337-.144-.293-.276-.544-.382-.729-.312-.553-.825-.854-1.379-.829-.562.034-1.047.416-1.299 1.022-.05.118-.113.302-.168.458-.074-.742-.121-1.519-.516-2.452-.297-.696-.799-.903-1.071-.964-.277-.064-.828-.088-1.413.429-4.268 3.78-5.466 7.3-3.556 10.461.14.229.291.45.456.659.343.437.973.508 1.404.168zm20.041-3.837c.524-.175.807-.741.632-1.265-.7-2.1-2.25-3.922-3.354-5.109-.531-.572-1.082-.599-1.364-.564-.278.035-.798.192-1.161.856-.2.366-.375.787-.551 1.324-.171.525.116 1.089.642 1.26.524.171 1.09-.116 1.261-.641.047-.145.094-.278.14-.4.914 1.028 1.994 2.418 2.491 3.907.173.529.755.807 1.265.632zm-18.979 15.651c.331-.441.242-1.068-.199-1.4-1.018-.765-1.601-1.931-1.601-3.201 0-.702.523-2.313.938-3.098.378-.185.612-.596.553-1.034-.076-.547-.577-.935-1.127-.855-.457.062-.854.353-1.119.819-.507.897-1.244 2.967-1.244 4.169 0 1.904.874 3.654 2.399 4.799.438.33 1.066.245 1.4-.199z"/></svg>