<?xml version="1.0" encoding="UTF-8"?>
<svg xmlns="http://www.w3.org/2000/svg" id="Layer_1" data-name="Layer 1" viewBox="0 0 24 24">
  <path d="M6,2.783v2.217c0,2.206,1.794,4,4,4s4-1.794,4-4V3l.431-.826c.27-.787-.287-1.615-1.118-1.661L7.311,.003c-1.131-.063-1.987,1.008-1.675,2.097l.364,.683Zm2,1.217h4v1c0,1.103-.897,2-2,2s-2-.897-2-2v-1Zm16,12c0,.553-.448,1-1,1h-3.219c.031,.233,1.248,4.774,1.219,5,0,.97-.701,2-2,2h-1c-.552,0-1-.447-1-1v-6c-.552,0-1-.447-1-1v-7c0-.552,.448-1,1-1V3c-.552,0-1-.448-1-1s.448-1,1-1c0-.552,.448-1,1-1s1,.448,1,1V12.896c1.187-.215,3-.873,3-2.896,0-.552,.448-1,1-1s1,.448,1,1c0,3.251-2.903,4.646-5,5h4c.552,0,1,.447,1,1Zm-10,6h-5.5c-.193,0-.376-.04-.546-.106l5.62-7.493c.274-.365,.426-.818,.426-1.275,0-1.172-.953-2.125-2.125-2.125h-1.849c-3.143,0-6.006,1.852-7.295,4.718L.088,21.59c-.227,.503-.002,1.096,.502,1.322,.492,.224,1.095,.008,1.322-.502l2.643-5.872c.128-.284,.279-.552,.445-.808v4.77c0,1.93,1.57,3.5,3.5,3.5h5.5c.552,0,1-.447,1-1s-.448-1-1-1ZM7,13.837c.903-.53,1.939-.837,3.026-.837h1.849c.069,0,.125,.056,.1,.2l-4.975,6.634v-5.997Z"/>
</svg>
