<svg id="Layer_1" viewBox="0 0 24 24" xmlns="http://www.w3.org/2000/svg" data-name="Layer 1"><path d="m21.944 11.377-2.501-.829c-.607-.201-1.278-.201-1.888 0l-2.5.829c-1.229.407-2.056 1.552-2.056 2.848v3.208c.056 2.532 1.753 4.668 5.047 6.347.26.133.565.145.834.034 3.339-1.375 5.061-3.522 5.119-6.403v-3.187c0-1.296-.826-2.44-2.056-2.848zm.056 6.014c-.038 1.906-1.17 3.345-3.457 4.39-2.347-1.283-3.507-2.722-3.543-4.37v-3.187c0-.432.275-.813.685-.949l2.499-.829c.203-.067.427-.067.63 0l2.5.829c.41.136.685.517.685.949v3.167zm-9.029 5.751c.084-.32-.093-.653-.304-.887-.035-.031-2.375-2.163-3.894-5.255h1.227c.552 0 1-.448 1-1s-.448-1-1-1h-2.03c-.291-.952-.47-1.96-.47-3s.18-2.047.472-3h8.772s.002 0 .003 0h.003 4.784c.029.091.063.18.089.272.149.536.717.841 1.234.69.532-.15.841-.703.69-1.234-1.446-5.12-6.166-8.699-11.488-8.726-6.63-.034-12.063 5.359-12.059 11.998 0 6.616 5.383 12 11.999 12 .479.002.927-.381.972-.858zm-7.068-8.142h-3.442c-.299-.948-.461-1.955-.461-3s.162-2.052.461-3h3.442c-.246.956-.403 1.958-.403 3s.157 2.044.403 3zm6.099-12.587c.814.861 2.205 2.5 3.229 4.587h-6.453c1.025-2.083 2.412-3.725 3.224-4.587zm8.659 4.587h-3.236c-.79-1.881-1.881-3.479-2.821-4.647 2.544.691 4.735 2.366 6.058 4.647zm-11.272-4.642c-.94 1.167-2.024 2.767-2.811 4.642h-3.225c1.308-2.253 3.466-3.945 6.036-4.642zm-6.036 14.642h3.225c.787 1.875 1.87 3.475 2.811 4.642-2.57-.697-4.728-2.389-6.036-4.642z"/></svg>