<svg id="Layer_1" viewBox="0 0 24 24" xmlns="http://www.w3.org/2000/svg" data-name="Layer 1"><path d="m24 5.001v9.999c0 .552-.447 1-1 1s-1-.448-1-1v-9.999c0-.892-.393-1.731-1.077-2.303-.686-.572-1.585-.81-2.46-.648l-3.821.695c-.951.173-1.642 1.001-1.642 1.968v11.288c0 .552-.448 1-1 1s-1-.448-1-1v-11.289c0-.967-.691-1.794-1.643-1.968l-3.821-.695c-.877-.158-1.773.077-2.459.648-.685.572-1.078 1.411-1.078 2.303v12.792c0 1.451 1.036 2.692 2.464 2.952l5.715 1.039c.543.099.904.619.805 1.163-.096.547-.632.905-1.163.805l-5.715-1.039c-2.379-.433-4.106-2.502-4.106-4.919v-12.792c.001-1.487.656-2.886 1.797-3.839 1.142-.952 2.637-1.344 4.098-1.08l3.821.695c.916.167 1.706.642 2.284 1.3.578-.658 1.368-1.134 2.283-1.3l3.823-.695c1.459-.266 2.956.128 4.099 1.081 1.142.953 1.796 2.352 1.796 3.838zm-15.821.061-3-.545c-.546-.097-1.063.262-1.163.805-.099.543.262 1.064.805 1.163l3 .545c.531.1 1.066-.259 1.163-.805.099-.543-.262-1.064-.805-1.163zm0 3.955-3-.545c-.546-.095-1.063.262-1.163.805-.099.543.262 1.064.805 1.163l3 .545c.531.1 1.066-.259 1.163-.805.099-.543-.262-1.064-.805-1.163zm-.178 5.984c.474 0 .895-.338.983-.821.099-.543-.262-1.064-.805-1.163l-3-.545c-.546-.098-1.063.262-1.163.805-.099.543.262 1.064.805 1.163.172.017 3.017.577 3.18.562zm8.178-7.971 3-.545c.544-.099.904-.619.805-1.163-.098-.543-.617-.9-1.162-.805l-3 .545c-.544.099-.904.619-.805 1.163.095.547.631.905 1.162.805zm-11 9.486c-.546-.102-1.063.262-1.163.805-.099.543.262 1.064.805 1.163l1 .182c.531.1 1.066-.259 1.163-.805.099-.543-.262-1.064-.805-1.163zm16.307 1.301-2.485-.994v-3.323c0-.827-.673-1.5-1.5-1.5s-1.5.673-1.5 1.5v6.698l-.622-.573c-.401-.402-.947-.624-1.488-.624-.377 0-.752.108-1.074.34-.997.718-1.08 2.118-.249 2.949l1.05 1.011c.467.449 1.089.7 1.737.7h1.416c.68 0 1.231-.551 1.231-1.231v-4.192l2.743 1.097c.764.306 1.257 1.035 1.257 1.857v1.469c0 .552.447 1 1 1s1-.448 1-1v-1.469c0-1.645-.987-3.103-2.515-3.714z"/></svg>