<svg id="Layer_1" viewBox="0 0 24 24" xmlns="http://www.w3.org/2000/svg" data-name="Layer 1"><path d="m22.696 19.134-.974-.562c.166-.497.278-1.019.278-1.572s-.111-1.075-.278-1.572l.974-.562c.478-.276.642-.888.366-1.366s-.887-.643-1.366-.366l-.973.562c-.705-.794-1.644-1.375-2.723-1.594v-1.101c0-.552-.448-1-1-1s-1 .448-1 1v1.101c-1.079.22-2.018.801-2.723 1.594l-.973-.562c-.48-.277-1.09-.111-1.366.366-.276.479-.112 1.09.366 1.366l.974.562c-.166.497-.278 1.019-.278 1.572s.111 1.075.278 1.572l-.974.562c-.478.276-.642.888-.366 1.366.278.482.896.639 1.366.366l.973-.562c.705.794 1.644 1.375 2.723 1.594v1.101c0 .553.448 1 1 1s1-.447 1-1v-1.101c1.079-.22 2.018-.801 2.723-1.594l.973.562c.47.273 1.088.116 1.366-.366.276-.479.112-1.09-.366-1.366zm-5.696.866c-1.654 0-3-1.346-3-3s1.346-3 3-3 3 1.346 3 3-1.346 3-3 3zm-7.086 1.939c-.457.039-.93.061-1.414.061-4.206 0-6.5-1.463-6.5-2.214v-2.328c1.426.886 3.515 1.458 5.969 1.534h.031c.538 0 .982-.428.999-.97.017-.552-.417-1.013-.969-1.03-3.736-.114-6.031-1.528-6.031-2.492v-2.042c1.426.886 3.515 1.458 5.969 1.534h.031c.538 0 .982-.428.999-.97.017-.552-.417-1.013-.969-1.03-3.736-.115-6.031-1.529-6.031-2.493v-2.041c1.535.954 3.835 1.541 6.5 1.541s4.965-.588 6.5-1.541v.041c0 .552.448 1 1 1s1-.448 1-1v-3c.002-2.564-3.652-4.499-8.498-4.499s-8.5 1.935-8.5 4.5v15.286c0 2.767 4.276 4.214 8.5 4.214.53 0 1.064-.022 1.586-.068.55-.048.958-.532.91-1.082-.048-.551-.53-.97-1.083-.91zm-1.414-19.939c3.968 0 6.5 1.48 6.5 2.5s-2.532 2.5-6.5 2.5-6.5-1.48-6.5-2.5 2.532-2.5 6.5-2.5z"/></svg>