<svg id="Layer_1" viewBox="0 0 24 24" xmlns="http://www.w3.org/2000/svg" data-name="Layer 1"><path d="m19.876 17.482c-.44.481-1.876 2.158-1.876 3.518 0 .801.312 1.555.879 2.121.566.566 1.32.879 2.121.879s1.555-.312 2.121-.879c.567-.566.879-1.32.879-2.121 0-1.387-1.44-3.047-1.915-3.558-.599-.586-1.573-.586-2.209.04zm1.831 4.225c-.377.379-1.036.377-1.414 0-.189-.189-.293-.44-.293-.707 0-.301.457-1.08 1-1.759.523.649 1 1.429 1 1.759 0 .267-.104.518-.293.707zm1.366-11.692c-.351 0-.672.198-.829.512l-.744 1.488h-5.195l1.108-1.585c.89-1.237.763-2.923-.303-4.008-.062-.065-3.865-3.425-3.928-3.484-.643-.655-1.509-.952-2.362-.898-.444-.419-.886-.823-1.052-.937-2.054-1.42-4.831-1.454-6.912-.084-1.89 1.246-2.955 3.321-2.85 5.504 0 3.303.367 5.714 2.196 7.525.041.044 4.149 3.712 4.193 3.754.842.86 2.018 1.301 3.203 1.209 1.196-.091 2.289-.706 3.004-1.7l2.304-3.295h6.594l.744 1.487c.157.314.478.512.829.512.512 0 .927-.415.927-.927v-4.146c0-.512-.415-.927-.927-.927zm-21.005-1.672c-.039-.559-.062-1.167-.063-1.868-.072-1.518.658-2.934 1.952-3.787 1.406-.925 3.284-.902 4.674.06.072.05.131.114.2.168-.627.497-4.87 3.812-6.285 4.95-.177.142-.329.309-.478.477zm13.715.93-4.811 6.88c-.362.503-.918.817-1.525.863-.595.05-1.194-.178-1.67-.66l-4.156-3.719c-.428-.436-.652-1.039-.616-1.655.036-.621.319-1.174.796-1.558 1.407-1.132 5.879-4.625 6.569-5.175.184-.146.403-.221.626-.221.282 0 .572.118.809.357l3.899 3.458c.357.384.396.988.079 1.429z"/></svg>