<svg id="Layer_1" viewBox="0 0 24 24" xmlns="http://www.w3.org/2000/svg" data-name="Layer 1"><path d="m21 3h-1.202l-.437-.438c-.75-.748-1.971-.749-2.721 0l-.639.64-.64-.641c-.75-.748-1.971-.749-2.721 0l-.639.64-.64-.641c-.75-.748-1.971-.749-2.721 0l-.639.64-.64-.641c-.75-.748-1.971-.749-2.721 0l-.436.437h-1.203c-1.657 0-3 1.343-3 3v1h1.999c.552 0 1 .448 1 1s-.448 1-1 1h-2v2h2c.552 0 1 .448 1 1s-.448 1-1 1h-2v2h2c.552 0 1 .448 1 1s-.448 1-1 1h-2v1c0 1.657 1.343 3 3 3h1.202l.437.438c.75.748 1.971.749 2.721 0l.639-.64.64.641c.75.748 1.971.749 2.721 0l.639-.64.64.641c.75.748 1.971.749 2.721 0l.639-.64.64.641c.375.374.868.562 1.36.562s.986-.188 1.361-.562l.436-.437h1.203c1.657 0 3-1.343 3-3v-12c0-1.657-1.343-3-3-3zm-16 15.969v-13.938l1-1 1 1v13.938l-1 1zm4 0v-13.938l1-1 1 1v13.938l-1 1zm4 0v-13.938l1-1 1 1v13.938l-1 1zm4 0v-13.938l1-1 1 1v13.938l-1 1zm4.5-.969c-.828 0-1.5-.672-1.5-1.5s.672-1.5 1.5-1.5 1.5.672 1.5 1.5-.672 1.5-1.5 1.5zm0-4.5c-.828 0-1.5-.672-1.5-1.5s.672-1.5 1.5-1.5 1.5.672 1.5 1.5-.672 1.5-1.5 1.5zm0-4.5c-.828 0-1.5-.672-1.5-1.5s.672-1.5 1.5-1.5 1.5.672 1.5 1.5-.672 1.5-1.5 1.5z"/></svg>