<svg id="Layer_1" viewBox="0 0 24 24" xmlns="http://www.w3.org/2000/svg" data-name="Layer 1"><path d="m24 16.5c0-.678-1.058-1.245-2.5-1.43v-1.07c0-1.378-1.122-2.5-2.5-2.5h-6v-1.5h1.048c2.19 0 3.784-1.159 4.059-2.951.252-1.633-.665-3.232-2.184-3.832-.385-1.94-2.139-3.331-4.136-3.211-2.124.111-3.787 1.94-3.787 4.164-1.366.481-2.187 1.845-1.964 3.297.221 1.444 1.541 2.533 3.072 2.533h1.892v1.5h-6c-1.378 0-2.5 1.122-2.5 2.5v1.07c-1.442.185-2.5.752-2.5 1.43v6c0 .265.105.52.293.707.238.238 1.028.793 3.207.793s2.969-.555 3.207-.793c.188-.188.293-.442.293-.707v-6c0-.678-1.058-1.245-2.5-1.43v-1.07c0-.276.224-.5.5-.5h6v1.57c-1.442.185-2.5.752-2.5 1.43v6c0 .265.105.52.293.707.238.238 1.028.793 3.207.793s2.969-.555 3.207-.793c.188-.188.293-.442.293-.707v-6c0-.678-1.058-1.245-2.5-1.43v-1.57h6c.276 0 .5.224.5.5v1.07c-1.442.185-2.5.752-2.5 1.43v6c0 .265.105.52.293.707.238.238 1.028.793 3.207.793s2.969-.555 3.207-.793c.188-.188.293-.442.293-.707zm-15.987-9.336c-.087-.571.285-.997.698-1.122.771-.233 1.29-.913 1.29-1.69-.083-1.186.779-2.3 1.891-2.35.999-.054 1.904.652 2.078 1.642.116.647.572 1.191 1.19 1.421.579.214 1.098.859.972 1.679-.119.774-.917 1.255-2.083 1.255h-4.94c-.542 0-1.023-.367-1.095-.836zm-3.013 11.688c-.288.073-.759.148-1.5.148s-1.212-.075-1.5-.148v-1.002c.456.093.961.15 1.5.15s1.044-.057 1.5-.15zm-1.5 3.148c-.736 0-1.211-.074-1.5-.146v-.965c.408.067.896.112 1.5.112s1.092-.045 1.5-.112v.965c-.289.072-.764.146-1.5.146zm10-3.148c-.288.073-.759.148-1.5.148s-1.212-.075-1.5-.148v-1.002c.456.093.961.15 1.5.15s1.044-.057 1.5-.15zm-1.5 3.148c-.736 0-1.211-.074-1.5-.146v-.965c.408.067.896.112 1.5.112s1.092-.045 1.5-.112v.965c-.289.072-.764.146-1.5.146zm10-3.148c-.288.073-.759.148-1.5.148s-1.212-.075-1.5-.148v-1.002c.456.093.961.15 1.5.15s1.044-.057 1.5-.15zm-1.5 3.148c-.736 0-1.211-.074-1.5-.146v-.965c.408.067.896.112 1.5.112s1.092-.045 1.5-.112v.965c-.289.072-.764.146-1.5.146z"/></svg>