<svg id="Layer_1" viewBox="0 0 24 24" xmlns="http://www.w3.org/2000/svg" data-name="Layer 1"><path d="m22.666 11.911-4.457-2.222c-.319-.143-.651-.266-.985-.365-.768-.227-1.577-.084-2.218.395-.64.477-1.006 1.207-1.006 2.004v11.277c0 .553.447 1 1 1s1-.447 1-1v-4.314l6.589-2.545c.862-.366 1.411-1.141 1.411-2.111 0-.914-.518-1.755-1.334-2.118zm-.828 2.376-5.838 2.255v-4.819c.037-.399.302-.551.654-.48.251.074.498.165.701.255l4.457 2.222c.156.07.188.197.188.292s-.035.222-.162.276zm-7.838-9.287c0-1.654-1.346-3-3-3h-6c-1.654 0-3 1.346-3 3v14c0 1.654 1.346 3 3 3h6c.553 0 1 .447 1 1s-.447 1-1 1h-6c-2.757 0-5-2.243-5-5v-14c0-2.757 2.243-5 5-5h6c2.757 0 5 2.243 5 5v1c0 .553-.447 1-1 1s-1-.447-1-1zm-7 9c0 .553-.447 1-1 1h-1c-.553 0-1-.447-1-1s.447-1 1-1h1c.553 0 1 .447 1 1zm5 0c0 .553-.447 1-1 1h-1c-.553 0-1-.447-1-1s.447-1 1-1h1c.553 0 1 .447 1 1zm-5 4c0 .553-.447 1-1 1h-1c-.553 0-1-.447-1-1s.447-1 1-1h1c.553 0 1 .447 1 1zm5 0c0 .553-.447 1-1 1h-1c-.553 0-1-.447-1-1s.447-1 1-1h1c.553 0 1 .447 1 1zm-5-12c0 .553-.447 1-1 1h-1c-.553 0-1-.447-1-1s.447-1 1-1h1c.553 0 1 .447 1 1zm5 0c0 .553-.447 1-1 1h-1c-.553 0-1-.447-1-1s.447-1 1-1h1c.553 0 1 .447 1 1zm-5 4c0 .553-.447 1-1 1h-1c-.553 0-1-.447-1-1s.447-1 1-1h1c.553 0 1 .447 1 1zm5 0c0 .553-.447 1-1 1h-1c-.553 0-1-.447-1-1s.447-1 1-1h1c.553 0 1 .447 1 1z"/></svg>