<svg id="Layer_1" viewBox="0 0 24 24" xmlns="http://www.w3.org/2000/svg" data-name="Layer 1"><path d="m24 13v2c0 2.757-2.243 5-5 5h-6v2h4c.552 0 1 .448 1 1s-.448 1-1 1h-10c-.552 0-1-.448-1-1s.448-1 1-1h4v-2h-6c-2.757 0-5-2.243-5-5v-8c0-2.757 2.243-5 5-5h6.5c.552 0 1 .448 1 1s-.448 1-1 1h-6.5c-1.654 0-3 1.346-3 3v8c0 1.654 1.346 3 3 3h14c1.654 0 3-1.346 3-3v-2c0-.552.448-1 1-1s1 .448 1 1zm-8.536-3.466c-1.949-1.951-1.949-5.125 0-7.076l1.789-1.751c.962-.944 2.529-.943 3.493 0l1.781 1.743c1.958 1.958 1.958 5.132.008 7.083-.944.945-2.2 1.466-3.535 1.466s-2.591-.52-3.536-1.466zm1.414-1.414c1.134 1.134 3.11 1.134 4.242 0 1.17-1.17 1.17-3.076 0-4.246l-1.773-1.736c-.098-.096-.223-.144-.348-.144s-.25.048-.347.143l-1.782 1.744c-1.162 1.163-1.162 3.068.008 4.238z"/></svg>