<svg id="Layer_1" viewBox="0 0 24 24" xmlns="http://www.w3.org/2000/svg" data-name="Layer 1"><path d="m12.036 24c-.801 0-1.555-.312-2.121-.879l-2.157-2.157h-1.722c-1.654 0-3-1.346-3-3v-1.722l-2.157-2.157c-1.17-1.169-1.17-3.073 0-4.243l2.157-2.157v-1.721c0-1.654 1.346-3 3-3h1.722l2.157-2.158c1.134-1.135 3.111-1.132 4.243 0l2.157 2.157h1.721c1.654 0 3 1.346 3 3v1.721l2.158 2.158c1.168 1.17 1.168 3.073 0 4.243l-2.159 2.157v1.722c0 1.654-1.346 3-3 3h-1.721l-2.158 2.157c-.565.566-1.319.879-2.121.879zm-6-19.036c-.552 0-1 .449-1 1v2.135c0 .265-.105.52-.293.707l-2.45 2.45c-.39.39-.39 1.024 0 1.415l2.45 2.45c.188.188.293.441.293.707v2.136c0 .552.448 1 1 1h2.136c.266 0 .52.105.707.293l2.45 2.45c.379.378 1.037.378 1.413 0l2.452-2.45c.188-.188.441-.293.707-.293h2.135c.552 0 1-.448 1-1v-2.136c0-.266.105-.52.293-.707l2.451-2.45c.39-.39.39-1.025 0-1.415l-2.451-2.45c-.188-.188-.293-.442-.293-.707v-2.135c0-.551-.448-1-1-1h-2.135c-.266 0-.52-.105-.707-.293l-2.451-2.451c-.377-.376-1.034-.378-1.414 0l-2.45 2.451c-.188.188-.441.293-.707.293zm6.888 13.001c-1.527 0-3.056-.654-4.19-1.807-1.127-1.146-1.744-2.674-1.697-4.199-.033-1.528.6-3.06 1.74-4.207 1.16-1.169 2.718-1.821 4.28-1.788.432 0 1.627.182 2.149.466.555.301.872.868.828 1.479-.047.645-.488 1.213-1.125 1.448-1.278.471-1.874 1.299-1.874 2.607s.596 2.136 1.874 2.606c.638.235 1.078.805 1.125 1.449.043.611-.274 1.178-.829 1.479-.587.305-1.757.475-2.282.467zm.04-10.002c-1.012 0-2.01.435-2.769 1.198-.765.77-1.188 1.781-1.159 2.775v.032s0 .032 0 .032c-.036.988.373 1.993 1.124 2.754.777.79 1.819 1.251 2.855 1.209.048 0 .107-.004.176-.011-1.397-.858-2.154-2.242-2.154-3.989s.757-3.131 2.156-3.99c-.098-.01-.165-.01-.229-.011z"/></svg>