<svg id="Layer_1" viewBox="0 0 24 24" xmlns="http://www.w3.org/2000/svg" data-name="Layer 1"><path d="m9 8c0 .893-.209 2.17-.484 3 0 0-3.015.003-3.016 0 0 0-.5-1.618-.5-2.317 0-3 1.5-3.183 2.5-3.183.876 0 1.5 1 1.5 2.5zm-3.306 4c0 1.25.152 3 1.447 3 .735 0 1.36-.629 1.36-1.5-.01-.309 0-1.5 0-1.5h-2.806zm5.806 1.5c0 .871.625 1.5 1.36 1.5 1.294 0 1.447-1.75 1.447-3h-2.806s.01 1.191 0 1.5zm1-8c-.876 0-1.5 1-1.5 2.5 0 .893.209 2.17.484 3 0 0 3.015.003 3.016 0 0 0 .5-1.618.5-2.317 0-3-1.5-3.183-2.5-3.183zm11.207 18.207c-.391.391-1.023.391-1.414 0l-5.969-5.969c-1.725 1.412-3.927 2.262-6.324 2.262-5.514 0-10-4.486-10-10s4.486-10 10-10 10 4.486 10 10c0 2.398-.85 4.6-2.262 6.324l5.969 5.969c.391.391.391 1.023 0 1.414zm-5.707-13.707c0-4.411-3.589-8-8-8s-8 3.589-8 8 3.589 8 8 8 8-3.589 8-8z"/></svg>