<svg id="Layer_1" viewBox="0 0 24 24" xmlns="http://www.w3.org/2000/svg" data-name="Layer 1"><path d="m13 22v1c0 .552-.447 1-1 1s-1-.448-1-1v-1c0-.552.447-1 1-1s1 .448 1 1zm8 1c0 .552-.447 1-1 1s-1-.448-1-1c0-1.902-.765-3.627-2-4.889v1.142c0 .666-.37 1.264-.966 1.562-.597.297-1.296.234-1.828-.165l-2.206-1.452-2.257 1.487c-.498.378-1.212.417-1.777.13-.596-.298-.966-.896-.966-1.562v-1.142c-1.235 1.263-2 2.988-2 4.889 0 .552-.447 1-1 1s-1-.448-1-1c0-4.962 4.037-9 9-9s9 4.038 9 9zm-6-6.315c-.911-.435-1.926-.685-3-.685s-2.089.251-3 .685v2.096l2.45-1.616c.332-.22.768-.22 1.1 0l2.45 1.614zm-11.934-7.122c-.276-1.338.334-2.681 1.519-3.34.434-.241 1.483-1.134 1.606-1.697.66-2.597 3.01-4.526 5.809-4.526s5.149 1.929 5.809 4.525c.123.563 1.172 1.457 1.605 1.697 1.186.66 1.796 2.002 1.52 3.341-.296 1.446-1.66 2.471-3.211 2.435-1.331-.03-2.258-.365-2.885-.714-.846.456-1.812.716-2.838.716s-1.992-.26-2.838-.716c-.626.349-1.553.684-2.884.713-1.551.038-2.916-.988-3.212-2.435zm13.539.277c.322.083.694.148 1.161.159.569 0 1.106-.349 1.208-.84.122-.591-.21-1.01-.532-1.189-.007-.004-.283-.172-.645-.449-.227.863-.636 1.653-1.192 2.319zm-8.605-3.84c0 2.206 1.794 4 4 4s4-1.794 4-4-1.794-4-4-4-4 1.794-4 4zm-2.975 3.158c.102.492.577.88 1.209.84.467-.01.839-.075 1.16-.158-.556-.666-.965-1.455-1.192-2.319-.363.277-.638.445-.646.449-.321.179-.653.598-.531 1.188z"/></svg>