<svg id="Layer_1" viewBox="0 0 24 24" xmlns="http://www.w3.org/2000/svg" data-name="Layer 1"><path d="m6.159 15.459 4.5-7c.299-.464.918-.601 1.382-.3.465.298.599.917.301 1.382l-4.5 7c-.301.467-.924.597-1.382.3-.465-.298-.599-.917-.301-1.382zm2.253 6.541h-3.411c-1.654 0-3-1.346-3-3v-11.887c0-.405.218-.779.572-.978l7.307-4.104c.073-.041.166-.041.239 0l7.308 4.104c.248.141.492.586.557 1.015.083.547.591.922 1.139.839.546-.082.921-.592.839-1.138-.126-.835-.6-1.919-1.553-2.458l-7.311-4.106c-.677-.38-1.518-.379-2.197 0l-7.307 4.105c-.983.551-1.594 1.594-1.594 2.722v11.887c0 2.757 2.244 5 5.001 5h3.411c.552 0 1-.447 1-1s-.448-1-1-1zm10.709-5h-1.121v-2c0-.553-.448-1-1-1s-1 .447-1 1v2h-1.121c-.355 0-.676.213-.812.541-.138.329-.062.706.19.957l1.5 1.5c.685.685 1.8.685 2.485 0l1.5-1.5c.253-.252.326-.632.19-.957-.136-.328-.456-.541-.812-.541zm4.879 0c0 3.859-3.14 7-7 7s-7-3.141-7-7 3.14-7 7-7 7 3.141 7 7zm-2 0c0-2.757-2.243-5-5-5s-5 2.243-5 5 2.243 5 5 5 5-2.243 5-5zm-14-7.5c0-.828-.672-1.5-1.5-1.5s-1.5.672-1.5 1.5.672 1.5 1.5 1.5 1.5-.672 1.5-1.5z"/></svg>