<svg id="Layer_1" viewBox="0 0 24 24" xmlns="http://www.w3.org/2000/svg" data-name="Layer 1"><path d="m11.886 2.5c0-1.381 1.119-2.5 2.5-2.5s2.5 1.119 2.5 2.5-1.119 2.5-2.5 2.5-2.5-1.119-2.5-2.5zm10.114 17.5c-1.105 0-2 .895-2 2s.895 2 2 2 2-.895 2-2-.895-2-2-2zm-4.071 2.629c.205.513-.044 1.095-.557 1.3-.5.203-1.095-.039-1.3-.558l-1.591-3.979c-.2-.501-.533-.939-.961-1.267l-4.218-3.229c-1.159-.729-1.652-2.274-1.099-3.623l2.101-4.224-2.855-1.378c-.72-.348-1.354-.869-1.833-1.511l-1.917-2.561c-.331-.442-.24-1.069.203-1.399.443-.332 1.068-.24 1.4.202l1.915 2.562c.288.385.668.698 1.1.907l14.119 6.812c.498.24.706.838.466 1.335-.241.503-.849.703-1.335.466l-5.969-2.88-2.664 5.556 1.802 1.377c.714.546 1.269 1.276 1.604 2.113l1.591 3.979zm-7.485-9.371.857.655 2.495-5.178-1.693-.817-2.081 4.18c-.154.384.011.898.422 1.159zm-3.625 1.917-1.99 1.538-3.231-2.489c-.442-.327-1.065-.237-1.396.202-.334.444-.244 1.074.202 1.406l3.215 2.485c.718.534 1.702.526 2.412-.018l2.209-1.696c-.543-.359-1.073-.899-1.421-1.427z"/></svg>