<svg id="Layer_1" viewBox="0 0 24 24" xmlns="http://www.w3.org/2000/svg" data-name="Layer 1"><path d="m13 22v1c0 .553-.448 1-1 1s-1-.447-1-1v-1c0-.553.448-1 1-1s1 .447 1 1zm-1-19c.552 0 1-.448 1-1v-1c0-.552-.448-1-1-1s-1 .448-1 1v1c0 .552.448 1 1 1zm11 8h-1c-.553 0-1 .448-1 1s.447 1 1 1h1c.553 0 1-.448 1-1s-.447-1-1-1zm-21 0h-1c-.552 0-1 .448-1 1s.448 1 1 1h1c.552 0 1-.448 1-1s-.448-1-1-1zm2.222 7.364-.707.707c-.391.391-.391 1.023 0 1.414s1.023.391 1.414 0l.707-.707c.391-.391.391-1.023 0-1.414s-1.023-.391-1.414 0zm14.849-14.849-.707.707c-.391.391-.391 1.023 0 1.414s1.023.391 1.414 0l.707-.707c.391-.391.391-1.023 0-1.414s-1.023-.391-1.414 0zm.707 14.85c-.391-.391-1.023-.391-1.414 0s-.391 1.023 0 1.414l.707.707c.391.391 1.023.391 1.414 0s.391-1.023 0-1.414zm-15.556-12.729c.391.391 1.023.391 1.414 0s.391-1.023 0-1.414l-.707-.707c-.391-.391-1.023-.391-1.414 0s-.391 1.023 0 1.414zm14.778 6.364c0 3.859-3.141 7-7 7s-7-3.141-7-7 3.14-7 7-7 7 3.14 7 7zm-2 0c0-2.757-2.243-5-5-5v10c2.757 0 5-2.243 5-5z"/></svg>