<svg id="Layer_1" viewBox="0 0 24 24" xmlns="http://www.w3.org/2000/svg" data-name="Layer 1"><path d="m8 19h-3c-1.654 0-3-1.346-3-3v-11c0-1.654 1.346-3 3-3v3c0 1.654 1.346 3 3 3h5c1.654 0 3-1.346 3-3v-2.086l2.121 2.121c.566.566.879 1.32.879 2.122v.843c0 .553.447 1 1 1s1-.447 1-1v-.843c0-1.336-.521-2.592-1.465-3.536l-2.156-2.156c-.936-.954-1.879-1.465-3.536-1.465h-8.843c-2.757 0-5 2.243-5 5v11c0 2.757 2.243 5 5 5h3c.552 0 1-.447 1-1s-.448-1-1-1zm6-16.985v2.985c0 .552-.448 1-1 1h-5c-.551 0-1-.448-1-1v-3h6.843c.053 0 .104.013.157.015zm-4.958 14.658c-1.202-.554-2.042-1.762-2.042-3.173 0-1.933 1.567-3.5 3.5-3.5.746 0 1.434.237 2.002.635-1.91 1.393-3.221 3.556-3.46 6.038zm8.458-5.673c-3.59 0-6.5 2.91-6.5 6.5s2.91 6.5 6.5 6.5 6.5-2.91 6.5-6.5-2.91-6.5-6.5-6.5zm3.191 9.653c-.812.83-1.939 1.347-3.191 1.347-1.228 0-2.327-.507-3.133-1.311l-.695.695c-.248.248-.672.072-.672-.278v-2.526c0-.32.259-.579.579-.579h2.526c.351 0 .526.424.278.672l-.607.607c.449.438 1.048.721 1.723.721s1.289-.275 1.738-.716c.171-.168.473-.284.774-.284.862 0 1.281 1.037.679 1.653zm1.309-4.232c0 .32-.259.579-.579.579h-2.526c-.351 0-.526-.424-.278-.672l.607-.607c-.449-.438-1.048-.721-1.723-.721s-1.289.275-1.738.716c-.171.168-.438.284-.774.284-.862 0-1.281-1.037-.679-1.653.812-.83 1.939-1.347 3.191-1.347 1.228 0 2.327.506 3.133 1.311l.695-.695c.248-.248.672-.072.672.278v2.526z"/></svg>