<?xml version="1.0" encoding="UTF-8"?>
<svg xmlns="http://www.w3.org/2000/svg" id="Layer_1" data-name="Layer 1" viewBox="0 0 24 24">
  <path d="M19,0H5C2.243,0,0,2.243,0,5V13c0,2.757,2.243,5,5,5h14c2.757,0,5-2.243,5-5V5c0-2.757-2.243-5-5-5Zm3,13c0,1.654-1.346,3-3,3H5c-1.654,0-3-1.346-3-3V5c0-1.654,1.346-3,3-3h14c1.654,0,3,1.346,3,3V13Zm-12,9c0,1.105-.895,2-2,2s-2-.895-2-2,.895-2,2-2,2,.895,2,2ZM15.329,7.009l-3.997-2.221c-1.444-.867-3.44,.307-3.384,1.991v4.441c-.057,1.684,1.94,2.857,3.384,1.991l3.998-2.221c1.539-.795,1.539-3.187,0-3.981Zm-.972,2.233l-3.997,2.221c-.115,.064-.213,.033-.275-.003-.062-.037-.137-.108-.137-.239V6.779c0-.131,.074-.203,.137-.239,.036-.021,.084-.041,.141-.041,.041,0,.086,.01,.135,.037l3.997,2.221c.119,.066,.144,.168,.144,.243s-.025,.177-.143,.243Zm9.643,12.757c0,.553-.448,1-1,1H13c-.552,0-1-.447-1-1s.448-1,1-1h10c.552,0,1,.447,1,1Zm-20,0c0,.553-.448,1-1,1H1c-.552,0-1-.447-1-1s.448-1,1-1H3c.552,0,1,.447,1,1Z"/>
</svg>
