<svg id="Layer_1" viewBox="0 0 24 24" xmlns="http://www.w3.org/2000/svg" data-name="Layer 1"><path d="m12 0c-6.617 0-12 5.383-12 12v6c0 2.667.967 3.763 2.228 4.706.915.684 2.105 1.281 3.867 1.281 1.724 0 3.26-.822 4.137-2.083.34-.465.84-.87 1.768-.903.929.033 1.428.438 1.768.903.877 1.262 2.413 2.083 4.137 2.083 1.761 0 2.952-.597 3.867-1.281 1.261-.943 2.228-2.039 2.228-4.706v-6c0-6.617-5.383-12-12-12zm-3.018 19.791c-.164 1.382-1.62 2.173-3.282 2.173-2.239 0-3.48-1.99-3.652-3.24.657-.561 2.262-1.725 4.285-1.725.793 0 1.541.329 2.05.902.468.527.681 1.198.599 1.889zm9.317 2.173c-1.662 0-3.118-.792-3.282-2.173-.082-.691.131-1.362.599-1.889.509-.573 1.256-.902 2.05-.902 2.023 0 3.628 1.164 4.285 1.725-.172 1.25-1.413 3.24-3.652 3.24zm3.701-5.671c-1.062-.652-2.558-1.293-4.333-1.293-1.365 0-2.657.573-3.545 1.573-.209.235-.388.487-.54.751-.166.288-.877.668-1.581.675-.704-.008-1.415-.387-1.581-.675-.152-.264-.331-.516-.54-.751-.888-1-2.18-1.573-3.545-1.573-1.775 0-3.271.641-4.333 1.293v-4.293c-.002-5.514 4.484-10 9.998-10s10 4.486 10 10z"/></svg>