<svg id="Layer_1" viewBox="0 0 24 24" xmlns="http://www.w3.org/2000/svg" data-name="Layer 1"><path d="m17 14.5c0-1.381 1.119-2.5 2.5-2.5s2.5 1.119 2.5 2.5-1.119 2.5-2.5 2.5-2.5-1.119-2.5-2.5zm2.5 3.5c-1.937 0-3.577 1.236-4.21 2.956-.946-.607-2.094-.956-3.29-.956s-2.344.349-3.29.956c-.633-1.719-2.273-2.956-4.21-2.956-2.481 0-4.5 2.019-4.5 4.5v.5c0 .553.448 1 1 1s1-.447 1-1v-.5c0-1.379 1.122-2.5 2.5-2.5s2.5 1.121 2.5 2.5v.5c.03.528.456 1.003 1.001 1 .329-.006.64-.176.83-.444.641-.96 1.855-1.556 3.168-1.556s2.527.596 3.169 1.556c.219.267.572.484.924.425.512-.036.875-.486.907-.981v-.5c0-1.379 1.121-2.5 2.5-2.5s2.5 1.121 2.5 2.5v.5c0 .553.447 1 1 1s1-.447 1-1v-.5c0-2.481-2.019-4.5-4.5-4.5zm-15-1c1.381 0 2.5-1.119 2.5-2.5s-1.119-2.5-2.5-2.5-2.5 1.119-2.5 2.5 1.119 2.5 2.5 2.5zm5-.5c0 1.381 1.119 2.5 2.5 2.5s2.5-1.119 2.5-2.5-1.119-2.5-2.5-2.5-2.5 1.119-2.5 2.5zm-2.33-8.866.549-.317c-.129-.419-.219-.856-.219-1.317s.09-.897.219-1.317l-.549-.317c-.478-.276-.642-.888-.366-1.366s.885-.644 1.366-.366l.544.314c.604-.65 1.392-1.122 2.286-1.327v-.621c0-.552.448-1 1-1s1 .448 1 1v.621c.894.204 1.682.677 2.286 1.327l.544-.314c.477-.276 1.089-.113 1.366.366.276.479.112 1.09-.366 1.366l-.549.317c.129.419.219.856.219 1.317s-.09.897-.219 1.317l.549.317c.479.276.643.888.366 1.366-.278.482-.897.639-1.366.366l-.544-.314c-.604.65-1.392 1.122-2.286 1.327v.621c0 .552-.448 1-1 1s-1-.448-1-1v-.621c-.894-.204-1.682-.677-2.286-1.327l-.544.314c-.47.273-1.088.116-1.366-.366-.276-.479-.112-1.09.366-1.366zm2.33-1.634c0 1.378 1.122 2.5 2.5 2.5s2.5-1.122 2.5-2.5-1.121-2.5-2.5-2.5-2.5 1.122-2.5 2.5z"/></svg>