<svg id="Layer_1" viewBox="0 0 24 24" xmlns="http://www.w3.org/2000/svg" data-name="Layer 1"><path d="m13 8c0 2.175-.915 3.803-2.575 4.583-.488.232-1.095.025-1.331-.48-.235-.5-.02-1.095.48-1.331.946-.444 1.425-1.377 1.425-2.773 0-.552.448-1 1-1s1 .448 1 1zm1 .011c.003.292 0 .6-.023.919-.043.575.421 1.072.999 1.07.521 0 .959-.403.997-.93.031-.613.063-1.157-.027-1.736-.092-.544-.608-.911-1.152-.82-.544.092-.912.607-.82 1.152.019.108.028.22.028.345zm-5 .989c.552 0 1-.448 1-1 0-1.103.897-2 2-2 .229 0 .453.039.666.114.521.185 1.093-.088 1.277-.609s-.088-1.092-.609-1.277c-.429-.151-.877-.229-1.334-.229-2.206 0-4 1.794-4 4 0 .552.448 1 1 1zm5.587 2.144c-.472-.286-1.087-.132-1.373.34-.264.439-.607.861-1.02 1.254-.4.381-.415 1.014-.034 1.414s1.015.414 1.414.034c.542-.516.997-1.078 1.353-1.669.285-.473.132-1.088-.34-1.373zm5.413-6.144v14c0 2.757-2.243 5-5 5h-6c-2.757 0-5-2.243-5-5v-14c0-2.757 2.243-5 5-5h6c2.757 0 5 2.243 5 5zm-14 0v11h12v-11c0-1.654-1.346-3-3-3h-6c-1.654 0-3 1.346-3 3zm12 14v-1h-12v1c0 1.654 1.346 3 3 3h6c1.654 0 3-1.346 3-3zm-5 0h-2c-.552 0-1 .448-1 1s.448 1 1 1h2c.552 0 1-.448 1-1s-.448-1-1-1z"/></svg>