<svg id="Layer_1" viewBox="0 0 24 24" xmlns="http://www.w3.org/2000/svg" data-name="Layer 1"><path d="m22.678 11.668c1.02-1.014 1.483-2.414 1.272-3.842-.322-2.182-2.297-3.826-4.593-3.826h-1.049c-.679-.546-1.512-.908-2.43-.984-.445-1.767-2.026-3.016-3.878-3.016s-3.433 1.249-3.878 3.016c-.918.077-1.751.438-2.43.984h-1.049c-2.296 0-4.271 1.645-4.593 3.826-.211 1.428.253 2.828 1.272 3.842.105.104.135.262.075.401-.264.614-.397 1.265-.397 1.931 0 1.561.754 3.035 2 3.974v2.308c.021 2.428 1.704 3.658 5 3.658.735 0 1.344-.058 1.881-.161.611.146 1.315.222 2.119.222s1.507-.076 2.119-.222c.537.103 1.147.161 1.881.161 3.296 0 4.978-1.23 5-3.658v-2.308c1.246-.938 2-2.413 2-3.974 0-.666-.134-1.316-.397-1.931-.06-.14-.03-.297.075-.401zm-17.678 8.604v-2.833c0-.356-.189-.686-.497-.864-.941-.548-1.503-1.511-1.503-2.575 0-.394.079-.778.234-1.142.387-.897.189-1.922-.503-2.609-.563-.561-.82-1.338-.703-2.131.161-1.088 1.091-1.928 2.233-2.085-.16.462-.261.952-.261 1.467 0 1.189.466 2.311 1.311 3.155.112.112.146.274.087.414-.264.614-.397 1.265-.397 1.931 0 1.561.754 3.035 2 3.974v3.368c.005.599.114 1.123.32 1.576-2.11-.13-2.313-.882-2.32-1.645zm10.497-4.697c-.308.179-.497.508-.497.864v3.894c-.007.723-.188 1.436-2 1.62v-9.953c0-.553-.447-1-1-1s-1 .447-1 1v9.953c-1.812-.184-1.993-.897-2-1.62v-3.894c0-.356-.189-.686-.497-.864-.941-.548-1.503-1.511-1.503-2.575 0-.394.079-.778.235-1.143.384-.894.184-1.92-.51-2.615-.468-.468-.726-1.087-.726-1.742 0-1.379 1.121-2.5 2.416-2.504.677.063 1.455-.382 1.611-1.33.162-.966.991-1.666 1.973-1.666s1.811.7 1.973 1.666c.156.948.935 1.394 1.611 1.33 1.295.004 2.416 1.125 2.416 2.504 0 .655-.258 1.274-.726 1.742-.693.695-.894 1.722-.51 2.615.156.364.235.749.235 1.143 0 1.064-.562 2.027-1.503 2.575zm5.771-5.326c-.692.688-.89 1.712-.503 2.609.155.363.234.748.234 1.142 0 1.064-.562 2.027-1.503 2.575-.308.179-.497.508-.497.864v2.833c-.007.763-.211 1.515-2.32 1.645.207-.453.315-.977.32-1.576v-3.368c1.246-.938 2-2.413 2-3.974 0-.666-.134-1.316-.397-1.931-.06-.14-.025-.302.087-.414.845-.845 1.311-1.966 1.311-3.155 0-.516-.101-1.005-.261-1.467 1.142.157 2.072.997 2.233 2.085.117.793-.14 1.57-.703 2.131z"/></svg>