<svg id="Layer_1" viewBox="0 0 24 24" xmlns="http://www.w3.org/2000/svg" data-name="Layer 1"><path d="m20 12c-2.206 0-4 1.794-4 4 0 1.474.81 2.75 2 3.444v3.927c0 .559.676.839 1.072.444l.928-.928.928.928c.395.395 1.072.115 1.072-.444v-3.927c1.19-.694 2-1.97 2-3.444 0-2.206-1.794-4-4-4zm0 6c-1.103 0-2-.897-2-2s.897-2 2-2 2 .897 2 2-.897 2-2 2zm-14-13.5c0 .828-.672 1.5-1.5 1.5s-1.5-.672-1.5-1.5.672-1.5 1.5-1.5 1.5.672 1.5 1.5zm4 0c0 .828-.672 1.5-1.5 1.5s-1.5-.672-1.5-1.5.672-1.5 1.5-1.5 1.5.672 1.5 1.5zm9-4.5h-14c-2.757 0-5 2.243-5 5v12c0 2.757 2.243 5 5 5h10c.552 0 1-.448 1-1s-.448-1-1-1h-10c-1.654 0-3-1.346-3-3v-8h20v1c0 .552.448 1 1 1s1-.448 1-1v-5c0-2.757-2.243-5-5-5zm-17 7v-2c0-1.654 1.346-3 3-3h14c1.654 0 3 1.346 3 3v2zm2.578 9.26c.881-.801 2.129-1.26 3.422-1.26s2.541.459 3.422 1.26c.409.371.439 1.004.068 1.413-.372.41-1.005.438-1.413.068-1.036-.94-3.119-.94-4.155 0-.408.372-1.041.34-1.413-.068-.371-.409-.341-1.042.068-1.413zm3.422-2.257c-1.105 0-2-.895-2-2s.895-2 2-2 2 .895 2 2-.895 2-2 2z"/></svg>