<svg id="Layer_1" viewBox="0 0 24 24" xmlns="http://www.w3.org/2000/svg" data-name="Layer 1"><path d="m23 22h-8v-5c0-.553-.447-1-1-1s-1 .447-1 1v5h-2v-5.307c1.308-1.17 2-2.961 2-4.693v-1c0-.552-.447-1-1-1s-1 .448-1 1-.448 1-1 1h-5c-2.206 0-4 1.794-4 4v6c-.553 0-1 .447-1 1s.447 1 1 1h22c.553 0 1-.447 1-1s-.447-1-1-1zm-18 0h-2v-4h2zm4 0h-2v-4h.5c.539 0 1.037-.078 1.5-.208zm-1.5-6h-4.5c0-1.103.897-2 2-2h5c.203 0 .402-.021.594-.059-.529 1.175-1.57 2.059-3.094 2.059zm6.095-6.319c-.58-.58-.657-1.494-.183-2.163l.995-1.404-.26-2.6c-.12-1.198.3-2.374 1.151-3.227.391-.391 1.023-.39 1.414 0 .391.391.391 1.023 0 1.415-.426.426-.636 1.014-.575 1.613l.287 2.866.896.896 2.865.286c.597.061 1.188-.149 1.613-.576l.495-.495c.391-.39 1.023-.391 1.414 0s.391 1.023 0 1.414l-.495.495c-.756.756-1.767 1.171-2.823 1.171-.22.016-2.663-.252-2.94-.274l-1.285 1.03c-.67.537-1.637.484-2.244-.124l-.325-.326z"/></svg>