<svg id="Layer_1" viewBox="0 0 24 24" xmlns="http://www.w3.org/2000/svg" data-name="Layer 1"><path d="m10.744 0h-5.488c-2.5 0-4.632 1.872-4.96 4.353-.197 1.485-.296 3.048-.296 4.647 0 3.648.714 7.989 1.314 10.988.464 2.325 2.526 4.012 4.902 4.012h3.568c2.375 0 4.438-1.687 4.902-4.012.6-3 1.313-7.342 1.313-10.988 0-1.601-.1-3.165-.296-4.647-.329-2.482-2.462-4.353-4.96-4.353zm-5.488 2h5.488c1.5 0 2.779 1.125 2.978 2.616.017.125.022.258.037.384h-11.518c.015-.126.021-.26.037-.385.197-1.491 1.477-2.615 2.977-2.615zm7.47 17.596c-.279 1.393-1.516 2.404-2.941 2.404h-3.568c-1.426 0-2.662-1.011-2.941-2.404-.582-2.911-1.275-7.111-1.275-10.596 0-.676.025-1.342.063-2h11.875c.037.658.063 1.323.063 2 0 3.482-.693 7.685-1.274 10.596zm6.274-9.596c0-1.105.895-2 2-2s2 .895 2 2-.895 2-2 2-2-.895-2-2zm-11 0c-2.206 0-4 1.794-4 4s1.794 4 4 4 4-1.794 4-4-1.794-4-4-4zm0 6c-1.103 0-2-.897-2-2s.897-2 2-2 2 .897 2 2-.897 2-2 2zm13.328 1.11c.11-.265.172-.555.172-.86 0-1.243-1.007-2.25-2.25-2.25s-2.25 1.007-2.25 2.25c0 .766.384 1.44.969 1.846-.596.628-.969 1.471-.969 2.404 0 1.93 1.57 3.5 3.5 3.5s3.5-1.57 3.5-3.5c0-1.643-1.143-3.016-2.672-3.39zm-.828 4.89c-.827 0-1.5-.673-1.5-1.5s.673-1.5 1.5-1.5 1.5.673 1.5 1.5-.673 1.5-1.5 1.5z"/></svg>