<svg id="Layer_1" viewBox="0 0 24 24" xmlns="http://www.w3.org/2000/svg" data-name="Layer 1"><path d="m11.923 12c3.309 0 6-2.691 6-6s-2.692-6-6-6-6 2.691-6 6 2.691 6 6 6zm0-10c.395 0 .769.075 1.13.182-.764 1.692-2.447 2.818-4.344 2.818-.21 0-.42-.021-.628-.049.464-1.695 2.003-2.951 3.843-2.951zm-3.214 5c2.619 0 4.939-1.515 6.061-3.803.711.722 1.153 1.711 1.153 2.803 0 2.206-1.794 4-4 4-1.877 0-3.445-1.304-3.874-3.051.22.022.438.051.66.051zm12.292 16c0 .552-.448 1-1 1s-1-.448-1-1c0-3.019-1.925-5.59-4.609-6.571l-1.517 2.276 1.093 3.99c.183.666-.405 1.305-1.201 1.305h-1.532c-.796 0-1.383-.639-1.201-1.305l1.093-3.99-1.517-2.276c-2.684.98-4.609 3.551-4.609 6.571 0 .552-.448 1-1 1s-1-.448-1-1c0-4.962 4.038-9 9-9s9 4.038 9 9z"/></svg>