<svg id="Layer_1" viewBox="0 0 24 24" xmlns="http://www.w3.org/2000/svg" data-name="Layer 1"><path d="m19 0h-14c-2.757 0-5 2.243-5 5v14c0 2.757 2.243 5 5 5h14c2.757 0 5-2.243 5-5v-14c0-2.757-2.243-5-5-5zm3 19c0 1.654-1.346 3-3 3h-14c-1.654 0-3-1.346-3-3v-14c0-1.654 1.346-3 3-3h14c1.654 0 3 1.346 3 3zm-7-13h-6c-2.206 0-4 1.794-4 4v4c0 2.206 1.794 4 4 4h6c2.206 0 4-1.794 4-4v-4c0-2.206-1.794-4-4-4zm0 2c.455 0 .87.159 1.206.415l-3.146 3.146c-.565.566-1.554.567-2.121 0l-3.146-3.145c.336-.257.751-.415 1.206-.415h6zm0 8h-6c-1.103 0-2-.897-2-2v-3.55l2.525 2.525c.661.662 1.54 1.026 2.475 1.026s1.814-.364 2.475-1.025l2.525-2.525v3.55c0 1.103-.897 2-2 2z"/></svg>