<svg id="Layer_1" viewBox="0 0 24 24" xmlns="http://www.w3.org/2000/svg" data-name="Layer 1"><path d="m24 14.535v8.465c0 .552-.448 1-1 1s-1-.448-1-1v-8.465c0-.347-.225-.656-.513-.703-.474-.044-.707.23-.737.616v2.575c0 .552-.448 1-1 1s-1-.448-1-1v-5.498c0-.347-.225-.656-.513-.703-.472-.046-.708.231-.737.616v5.585c0 .552-.448 1-1 1s-1-.448-1-1v-6.311c0-.347-.225-.656-.513-.703-.473-.045-.708.23-.737.616v6.398c0 .552-.448 1-1 1s-1-.448-1-1v-4.113c0-.348-.225-.656-.513-.703-.474-.043-.707.23-.737.616v5.984c0 .404-.244.769-.617.924-.376.155-.804.069-1.09-.217l-.696-.696c-.341-.342-.876-.418-1.215-.174-.521.434-.478.949-.12 1.365l2.134 2.313c.374.406.349 1.039-.058 1.413-.405.374-1.038.349-1.413-.058l-2.105-2.284c-.573-.571-.878-1.402-.81-2.25.068-.847.506-1.621 1.203-2.123.808-.581 1.87-.666 2.788-.29v-3.909c0-.771.337-1.5.925-2s1.368-.712 2.134-.589c.078.013.152.04.228.06.083-.645.387-1.242.889-1.669.587-.5 1.364-.714 2.134-.589.679.111 1.261.507 1.657 1.054.487-.24 1.04-.332 1.593-.241 1.249.203 2.191 1.354 2.191 2.676v.383c.342-.084.701-.106 1.059-.049 1.249.203 2.191 1.354 2.191 2.676zm-20.752 1.015c.201.341.431.661.673.971-.442.614-.732 1.325-.853 2.08-1.895-1.977-3.068-4.653-3.068-7.601 0-6.065 4.935-11 11-11 2.353 0 4.531.748 6.32 2.012-.21.677-.326 2.329-.326 2.329-.656-.597-1.389-1.112-2.204-1.492.698 1.081 1.257 2.236 1.684 3.441-.269-.101-.548-.18-.838-.228-.471-.077-.94-.056-1.401.008-.633-1.465-1.504-2.829-2.599-4.039-.211-.015-.422-.032-.637-.032-1.057 0-2.068.193-3.011.529 1.609 1.333 2.784 3.097 3.428 5.061-.189.216-.353.446-.498.69-.435.068-.857.188-1.256.375-.137-.506-.313-1.001-.536-1.474-2.912 2.006-4.979 4.953-5.878 8.368zm4.84-10.083c-.583-.749-1.296-1.398-2.101-1.937-2.402 1.618-3.986 4.362-3.986 7.47 0 .547.057 1.081.151 1.602 1.254-2.877 3.296-5.343 5.937-7.134zm11.757-2.002c.527-.177 1.526-.465 2.655-.465.95 0 1.694-.883 1.455-1.873-.175-.726-.889-1.154-1.635-1.123-1.913.08-2.948 1.585-3.291 2.697-.152.493.327.928.816.765zm-.438 2.403c-.515.25-.552.973-.045 1.239.487.255 1.32.697 2.078 1.454.672.672 1.822.573 2.353-.296.39-.637.188-1.445-.362-1.95-1.338-1.23-3-.944-4.024-.447z"/></svg>