<svg id="Layer_1" viewBox="0 0 24 24" xmlns="http://www.w3.org/2000/svg" data-name="Layer 1"><path d="m.291 16.705c-.389-.393-.387-1.025.005-1.415l14.221-14.121c.753-.753 1.758-1.169 2.826-1.169s2.073.416 2.828 1.172l3.536 3.535c.391.391.391 1.023 0 1.414s-1.023.391-1.414 0l-3.536-3.535c-.75-.75-2.05-.754-2.809-.016l4.962 4.962c.391.391.391 1.023 0 1.414s-1.023.391-1.414 0l-4.968-4.969-1.439 1.429 2.077 2.077c.391.391.391 1.023 0 1.414s-1.023.391-1.414 0l-2.082-2.082-1.38 1.37 2.436 2.436c.391.391.391 1.023 0 1.414s-1.023.391-1.414 0l-2.441-2.441-1.481 1.47 3.805 3.805c.391.391.391 1.023 0 1.414s-1.023.391-1.414 0l-3.81-3.81-4.266 4.237c-.391.389-1.025.386-1.414-.005zm14.202-2.701c-.553-.054-1.038.353-1.089.903-.08.82-.078 1.735-.278 2.487-.418 1.583-1.645 2.605-3.125 2.605-1.942-.034-3.451-1.027-5.5-1-2.353.001-4.114 1.509-4.488 3.843-.087.545.284 1.059.829 1.146.533.089 1.061-.281 1.146-.829.22-1.371 1.136-2.158 2.513-2.158 1.942.034 3.451 1.027 5.5 1 2.379 0 4.413-1.646 5.059-4.095.254-.964.249-1.866.335-2.812.052-.55-.353-1.037-.902-1.089zm8.508 4.996c-.552 0-1 .447-1 1 0 1.103-.897 2-2 2s-2-.897-2-2c0-1.998 1.005-3.001 1.893-3.885 1.43-1.324 1.48-3.673.099-5.051-.876-.875-2.078-1.24-3.212-.982-.471.107-.914.315-1.317.619-.441.332-.529.959-.197 1.4.333.44.959.529 1.4.197.176-.133.363-.222.559-.267.465-.108.961.056 1.354.447.604.574.538 1.697-.097 2.219-.988.985-2.48 2.474-2.48 5.302 0 2.206 1.794 4 4 4s4-1.794 4-4c0-.553-.448-1-1-1z"/></svg>