<svg id="Layer_1" viewBox="0 0 24 24" xmlns="http://www.w3.org/2000/svg" data-name="Layer 1"><path d="m24 23c0 .552-.447 1-1 1s-1-.448-1-1v-1.461c-.067-1.125-.829-2.159-1.939-2.575l-5.405-2.027c-.39-.146-.648-.52-.648-.937v-5.893c0-.537-.362-1.017-.825-1.093-.599-.113-1.187.38-1.175.986v9.493c0 .609-.341 1.151-.889 1.415-.549.263-1.184.192-1.66-.187 0 0-1.76-1.404-1.771-1.414-.402-.373-1.034-.354-1.41.048-.377.403-.356 1.038.046 1.416l1.53 1.509c.648.624.206 1.72-.694 1.72-.259 0-.508-.1-.694-.28l-1.52-1.5c-1.196-1.12-1.26-3.022-.13-4.23 1.103-1.182 2.942-1.26 4.152-.208.008.006 1.039.82 1.039.82v-8.602c0-.881.385-1.715 1.058-2.286.671-.572 1.56-.817 2.439-.673 1.427.232 2.503 1.551 2.503 3.066v5.2l4.756 1.783c1.85.693 3.12 2.417 3.235 4.39zm-18-11c0-.552-.448-1-1-1h-1.586l7.586-7.586v1.586c0 .552.448 1 1 1s1-.448 1-1v-3c0-1.103-.897-2-2-2h-3c-.552 0-1 .448-1 1s.448 1 1 1h1.586l-7.586 7.586v-1.586c0-.552-.448-1-1-1s-1 .448-1 1v3c0 1.103.897 2 2 2h3c.552 0 1-.448 1-1z"/></svg>