<svg id="Layer_1" viewBox="0 0 24 24" xmlns="http://www.w3.org/2000/svg" data-name="Layer 1"><path d="m16 19h-1c-1.103 0-2 .897-2 2v1c0 1.103.897 2 2 2h1c1.103 0 2-.897 2-2v-1c0-1.103-.897-2-2-2zm-1 3v-1h1v1s-1 0-1 0zm1-9h-1c-1.103 0-2 .897-2 2v1c0 1.103.897 2 2 2h1c1.103 0 2-.897 2-2v-1c0-1.103-.897-2-2-2zm-1 3v-1h1v1s-1 0-1 0zm-5 2c.553 0 1 .448 1 1s-.447 1-1 1h-1c-.553 0-1-.448-1-1s.447-1 1-1zm8-13v5c0 .552-.447 1-1 1s-1-.448-1-1v-5c0-1.654-1.346-3-3-3h-.127c-.444 1.723-2.013 3-3.873 3s-3.429-1.277-3.873-3h-.127c-1.654 0-3 1.346-3 3v14c0 1.654 1.346 3 3 3h5c.553 0 1 .448 1 1s-.447 1-1 1h-5c-2.757 0-5-2.243-5-5v-14c0-2.757 2.243-5 5-5h1c.553 0 1 .448 1 1 0 1.103.897 2 2 2s2-.897 2-2c0-.552.447-1 1-1h1c2.757 0 5 2.243 5 5zm6 15c0 .552-.448 1-1 1s-1-.448-1-1 .448-1 1-1 1 .448 1 1zm-2-7h-1c-1.103 0-2 .897-2 2v1c0 1.103.897 2 2 2h1c1.103 0 2-.897 2-2v-1c0-1.103-.897-2-2-2zm-1 3v-1h1v1s-1 0-1 0zm0 4c0 .552-.448 1-1 1s-1-.448-1-1 .448-1 1-1 1 .448 1 1zm0 3c0 .552-.448 1-1 1s-1-.448-1-1 .448-1 1-1 1 .448 1 1zm-16-5c.553 0 1 .448 1 1s-.447 1-1 1h-1c-.553 0-1-.448-1-1s.447-1 1-1z"/></svg>