<svg id="Layer_1" viewBox="0 0 24 24" xmlns="http://www.w3.org/2000/svg" data-name="Layer 1"><path d="m2.5 8h.85c.826 2.327 3.043 4 5.65 4s4.824-1.673 5.65-4h.85c.828 0 1.5-.672 1.5-1.5v-1c0-.828-.672-1.5-1.5-1.5h-.85c-.826-2.327-3.043-4-5.65-4s-4.824 1.673-5.65 4h-.85c-.828 0-1.5.672-1.5 1.5v1c0 .828.672 1.5 1.5 1.5zm6.5 2c-1.877 0-3.445-1.304-3.874-3.051.22.022.438.051.66.051 2.619 0 4.939-1.515 6.061-3.803.711.722 1.153 1.711 1.153 2.803 0 2.206-1.794 4-4 4zm0-8c.395 0 .769.075 1.13.182-.764 1.692-2.447 2.818-4.344 2.818-.211 0-.42-.021-.628-.049.464-1.695 2.002-2.951 3.843-2.951zm-.008 12.938c.068.548-.32 1.048-.869 1.116-3.491.436-6.124 3.422-6.124 6.946 0 .553-.448 1-1 1s-1-.447-1-1c0-4.531 3.386-8.371 7.876-8.931.542-.062 1.047.32 1.116.868zm13.81 1.581c-.411-1.374-1.417-2.24-2.802-2.459.03-.573-.424-1.061-1-1.059-.553 0-1 .447-1 1h-3c0-.553-.447-1-1-1-.576-.002-1.03.487-1 1.059-1.386.22-2.392 1.089-2.808 2.477-.819 2.419-1.192 4.45-1.192 5.314 0 1.186.964 2.149 2.15 2.149 1.638 0 3.501-2.536 4.034-3.314.588-.857 2.045-.857 2.633 0 .532.778 2.396 3.314 4.034 3.314 1.186 0 2.149-.964 2.149-2.149 0-.864-.373-2.896-1.198-5.332zm-.922 5.483c-.354-.066-1.443-1.029-2.413-2.445-.667-.975-1.776-1.557-2.967-1.557s-2.3.582-2.967 1.557c-.969 1.416-2.059 2.378-2.383 2.443-.081 0-.15-.068-.15-.149 0-.38.2-2.054 1.113-4.758.152-.509.472-1.093 1.601-1.093h5.572c1.128 0 1.447.584 1.627 1.179.888 2.618 1.087 4.292 1.087 4.672 0 .081-.068.149-.12.151z"/></svg>