<svg id="Layer_1" viewBox="0 0 24 24" xmlns="http://www.w3.org/2000/svg" data-name="Layer 1"><path d="m23.707 22.276-3.687-3.689 2.687-2.687c.242-.242.344-.59.27-.924-.075-.334-.314-.606-.636-.723l-8.731-3.162c-.717-.245-1.495-.065-2.031.472-.535.536-.715 1.314-.47 2.031.001.005.003.011.005.016l3.156 8.714c.116.322.39.562.724.636.33.074.683-.027.924-.269l2.689-2.689 3.687 3.689c.391.391 1.023.39 1.414 0 .391-.391.391-1.024 0-1.415zm-8.092-2.112-2.593-7.16 7.158 2.593-4.565 4.566zm-4.615-1.165c0 .552-.448 1-1 1-5.443.007-10.004-4.448-10-9.999 0-5.514 4.486-10 10-10s10 4.486 10 10c0 .552-.447 1-1 1s-1-.448-1-1c0-4.411-3.589-8-8-8s-8 3.589-8 8c0 2.254.941 4.29 2.446 5.745.581-1.43 1.699-2.61 3.154-3.246.505-.22 1.095.009 1.317.516.221.506-.01 1.096-.516 1.317-1.137.496-1.965 1.488-2.269 2.665 1.148.637 2.466 1.003 3.869 1.003.552 0 1 .448 1 1zm-4.5-11.499c0 1.93 1.57 3.5 3.5 3.5s3.5-1.57 3.5-3.5-1.57-3.5-3.5-3.5-3.5 1.57-3.5 3.5zm5 0c0 .827-.673 1.5-1.5 1.5s-1.5-.673-1.5-1.5.673-1.5 1.5-1.5 1.5.673 1.5 1.5z"/></svg>