<?xml version="1.0" encoding="UTF-8"?>
<svg xmlns="http://www.w3.org/2000/svg" id="Layer_1" data-name="Layer 1" viewBox="0 0 24 24">
  <path d="M18.5,3c0-1.105,.895-2,2-2s2,.895,2,2-.895,2-2,2-2-.895-2-2Zm.229,5.685c.805-.857,2.736-.857,3.541,0,.197,.209,.463,.315,.729,.315,.245,0,.491-.09,.685-.271,.402-.378,.423-1.011,.045-1.414-.785-.836-1.962-1.315-3.229-1.315s-2.444,.479-3.229,1.315c-.378,.403-.357,1.036,.045,1.414,.402,.377,1.035,.357,1.414-.044ZM0,6.5V3.5C0,2.122,1.122,1,2.5,1h3c1.378,0,2.5,1.122,2.5,2.5v3c0,1.378-1.122,2.5-2.5,2.5H2.5c-1.378,0-2.5-1.122-2.5-2.5Zm2,0c0,.276,.224,.5,.5,.5h3c.276,0,.5-.224,.5-.5V3.5c0-.276-.224-.5-.5-.5h-.5v1c0,.552-.448,1-1,1s-1-.448-1-1v-1h-.5c-.276,0-.5,.224-.5,.5v3Zm18.849,4.503c-.804,.037-1.545,.386-2.085,.981l-3.224,3.543c-.551-.911-1.541-1.528-2.682-1.528H4c-2.206,0-4,1.794-4,4v5c0,.552,.448,1,1,1s1-.448,1-1v-5c0-1.103,.897-2,2-2H12.858c.629,0,1.142,.512,1.142,1.142,0,.564-.422,1.051-.98,1.131l-5.161,.737c-.546,.078-.926,.584-.848,1.131s.587,.926,1.131,.848l5.161-.737c1.172-.167,2.119-.985,2.506-2.05l4.434-4.872c.354-.411,1.036-.435,1.427-.067,.407,.372,.44,1.009,.072,1.421l-6.805,7.638c-.367,.412-.33,1.044,.082,1.412,.19,.17,.428,.253,.665,.253,.275,0,.549-.113,.747-.335l6.804-7.637c1.094-1.225,.996-3.123-.218-4.23-.595-.541-1.356-.825-2.169-.782Zm-10.047-1.063c.468,.408,1.198,.076,1.198-.545v-.395h2c.553,0,1-.448,1-1s-.447-1-1-1h-2v-.403c0-.619-.728-.952-1.196-.547l-1.528,1.321c-.369,.331-.369,.908,0,1.239l1.525,1.33Zm.198-5.94h2v.403c0,.619,.728,.952,1.196,.547l1.528-1.321c.369-.331,.369-.908,0-1.239l-1.525-1.33c-.468-.408-1.198-.076-1.198,.545v.395h-2c-.552,0-1,.448-1,1s.448,1,1,1Z"/>
</svg>
