<svg id="Layer_1" viewBox="0 0 24 24" xmlns="http://www.w3.org/2000/svg" data-name="Layer 1"><path d="m12 0c-6.617 0-12 5.383-12 12s5.383 12 12 12 12-5.383 12-12-5.383-12-12-12zm10 12c0 2.397-.85 4.6-2.262 6.324l-2.851-2.851c.327-.459.589-.965.777-1.507.11.019.221.034.336.034 1.105 0 2-.895 2-2s-.895-2-2-2c-.117 0-.23.015-.341.034-.821-2.334-3.053-4.015-5.659-4.032 0 .812.427 1.09.476 1.119.462.275.641.877.383 1.349-.259.477-.835.663-1.307.425-.536-.268-1.406-1.101-1.528-2.557-.526.154-1.028.443-1.49.783l-2.859-2.859c1.725-1.412 3.927-2.262 6.325-2.262 5.514 0 10 4.486 10 10zm-7.279 1.307-2.029-2.029c.256-.462.742-.779 1.307-.779.828 0 1.5.672 1.5 1.5 0 .565-.317 1.052-.779 1.307zm-12.721-1.307c0-2.398.85-4.599 2.262-6.324l14.063 14.062c-1.725 1.412-3.927 2.262-6.324 2.262-5.514 0-10-4.486-10-10zm11.551 5.79c-.495.132-1.013.21-1.551.21-2.624 0-4.849-1.687-5.664-4.034-.11.019-.221.034-.336.034-1.105 0-2-.895-2-2 0-1.03.782-1.868 1.782-1.978z"/></svg>