<svg id="Layer_1" viewBox="0 0 24 24" xmlns="http://www.w3.org/2000/svg" data-name="Layer 1"><path d="m2.5 14.5c0-1.381 1.119-2.5 2.5-2.5s2.5 1.119 2.5 2.5-1.119 2.5-2.5 2.5-2.5-1.119-2.5-2.5zm14 0c0 1.381 1.119 2.5 2.5 2.5s2.5-1.119 2.5-2.5-1.119-2.5-2.5-2.5-2.5 1.119-2.5 2.5zm2.5 3.5c-1.723 0-3.245.876-4.145 2.207-.727-.742-1.736-1.207-2.855-1.207s-2.128.464-2.855 1.207c-.899-1.33-2.422-2.207-4.145-2.207-2.757 0-5 2.243-5 5 0 .552.447 1 1 1s1-.448 1-1c0-1.654 1.346-3 3-3s3 1.346 3 3c0 .552.447 1 1 1s1-.448 1-1c0-1.103.897-2 2-2s2 .897 2 2c0 .552.447 1 1 1s1-.448 1-1c0-1.654 1.346-3 3-3s3 1.346 3 3c0 .552.447 1 1 1s1-.448 1-1c0-2.757-2.243-5-5-5zm-9-2c0 1.105.895 2 2 2s2-.895 2-2-.895-2-2-2-2 .895-2 2zm-1.665-8.027c.984-.16 1.665-1.083 1.665-2.079v-.23l-.842-2.664h1.842v6h-2c-.553 0-1 .448-1 1s.447 1 1 1h6c.553 0 1-.448 1-1s-.447-1-1-1h-2v-6h1.842l-.842 2.664v.23c0 .996.681 1.92 1.665 2.079 1.253.203 2.335-.758 2.335-1.973v-.336l-1.054-3.276c-.266-.827-1.035-1.388-1.904-1.388h-2.042c0-.552-.447-1-1-1s-1 .448-1 1h-2.042c-.869 0-1.638.561-1.904 1.388l-1.054 3.276v.336c0 1.214 1.082 2.176 2.335 1.973z"/></svg>