<svg id="Layer_1" viewBox="0 0 24 24" xmlns="http://www.w3.org/2000/svg" data-name="Layer 1"><path d="m24 6c0-2.206-1.794-4-4-4-1.222 0-2.11.56-2.894 1.054-.805.508-1.5.946-2.606.946-1.7 0-2.699-.719-3.964-1.629-1.545-1.111-3.296-2.371-6.536-2.371h-3c-.553 0-1 .447-1 1s.447 1 1 1h1v20h-1c-.553 0-1 .447-1 1s.447 1 1 1h11c.553 0 1-.447 1-1s-.447-1-1-1h-1.433c8.373-7.078 13.433-13.924 13.433-16zm-2-.011c-.034.42-.689 1.644-2 3.418v-5.407c1.103 0 2 .897 2 1.989zm-4-1.135v7.053c-.598.701-1.262 1.445-2 2.23v-8.343c.807-.224 1.448-.595 2-.941zm-4 11.326c-.628.618-1.294 1.251-2 1.899v-12.537c.588.227 1.246.381 2 .431zm-4-11.739v15.413c-.639.551-1.306 1.11-2 1.674v-18.453c.474.283.919.596 1.368.919.208.15.419.299.632.447zm-6-2.441c.767 0 1.417.092 2 .238v19.762h-2z"/></svg>