<svg id="Layer_1" viewBox="0 0 24 24" xmlns="http://www.w3.org/2000/svg" data-name="Layer 1"><path d="m20.999 0h-5c-1.65.002-2.999 1.352-2.999 3.002l.002 7.772c0 .638.524 1.088 1.089 1.088.196 0 .397-.054.583-.173l2.454-1.69h3.872c1.657 0 3-1.343 3-3v-3.999c0-1.657-1.344-3-3.001-3zm.372 4.745-1.203.98.498 1.516c.068.205-.001.431-.172.563-.172.132-.407.141-.588.023l-1.401-.912-1.378.922c-.179.12-.415.114-.588-.016-.173-.129-.245-.354-.18-.56l.479-1.534-1.209-.984c-.163-.138-.222-.363-.148-.563.073-.2.264-.333.477-.333h1.527l.54-1.516c.074-.199.264-.331.477-.331s.403.132.477.331l.54 1.516h1.527c.214 0 .405.134.478.334.073.201.013.426-.15.564zm2.629 8.255v6c0 2.757-2.243 5-5 5h-14c-2.757 0-5-2.243-5-5v-11c0-2.757 2.243-5 5-5h5c.552 0 1 .447 1 1s-.448 1-1 1h-5c-1.148 0-2.135.655-2.639 1.604l7.518 7.517c1.17 1.17 3.073 1.169 4.243 0l.884-.885c.391-.391 1.024-.391 1.415 0s.391 1.023 0 1.414l-.884.885c-.975.975-2.256 1.462-3.536 1.462s-2.561-.487-3.536-1.462l-6.464-6.464v9.929c0 1.654 1.346 3 3 3h14c1.654 0 3-1.346 3-3v-6c0-.553.448-1 1-1s1 .447 1 1z"/></svg>