<svg id="Layer_1" viewBox="0 0 24 24" xmlns="http://www.w3.org/2000/svg" data-name="Layer 1"><path d="m13.715 18.25c.4.38.417 1.013.036 1.413-.382.401-1.014.417-1.414.036l-1.026-.975c-.199-.188-.311-.45-.311-.725v-2c0-.553.448-1 1-1s1 .447 1 1v1.57l.715.68zm4.285-.25c0 3.309-2.691 6-6 6s-6-2.691-6-6 2.691-6 6-6 6 2.691 6 6zm-2 0c0-2.206-1.794-4-4-4s-4 1.794-4 4 1.794 4 4 4 4-1.794 4-4zm5-9h-3.81l-3.744-7.436c-.553-1.025-1.658-1.621-2.816-1.564-.834 0-1.601.382-2.102 1.049s-.656 1.51-.424 2.312l1.634 5.639h-2.094c-.802 0-1.555-.312-2.122-.878l-1.417-1.417c-.741-.741-1.872-.915-2.814-.433-.566.29-.98.793-1.166 1.418-.195.655-.112 1.372.228 1.967l1.614 2.825c.455.796 1.119 1.451 1.921 1.895.485.269 1.092.093 1.359-.392.267-.483.092-1.091-.392-1.358-.481-.266-.88-.659-1.153-1.137l-1.614-2.825c-.112-.188-.092-.506.113-.612.207-.105.393-.03.489.067l1.417 1.417c.944.944 2.2 1.464 3.536 1.464h3.425c.314 0 .61-.148.799-.399s.249-.577.161-.879l-2.004-6.917c-.237-1.023 1.321-1.013 1.65-.313l4.005 7.958c.17.337.515.55.893.55h4.426c.551 0 1 .449 1 1s-.449 1-1 1h-1c-.552 0-1 .447-1 1s.448 1 1 1h1c1.654 0 3-1.346 3-3s-1.346-3-3-3z"/></svg>