<svg id="Layer_1" viewBox="0 0 24 24" xmlns="http://www.w3.org/2000/svg" data-name="Layer 1"><path d="m9 22h-6c-.552 0-1-.448-1-1v-9h2.343c1.336 0 2.592-.52 3.536-1.464l2.707-2.708c.752-.751 1.958-.783 2.747-.077.184.165.421.255.667.255l4.999-.006c1.091 0 2.097.593 2.625 1.547.268.483.878.658 1.359.39.483-.268.658-.876.391-1.359-.882-1.59-2.558-2.578-4.376-2.578l-4.647.006c-.415-.302-.875-.508-1.352-.631v-.375l3.53-1.652c.627-.392.627-1.304 0-1.696l-3.199-1.498c-.217-.102-.454-.154-.693-.154-.904 0-1.636.732-1.636 1.636v3.734c-.472.121-.922.335-1.331.629h-4.67c-2.757.001-5 2.244-5 5.001v10c0 1.654 1.346 3 3 3h6c.553 0 1-.447 1-1s-.447-1-1-1zm-4-14h2.586l-1.121 1.122c-.566.566-1.32.878-2.122.878h-2.159c.414-1.161 1.514-2 2.816-2zm2 7c0 .553-.447 1-1 1h-1c-.553 0-1-.447-1-1s.447-1 1-1h1c.553 0 1 .447 1 1zm0 4c0 .553-.447 1-1 1h-1c-.553 0-1-.447-1-1s.447-1 1-1h1c.553 0 1 .447 1 1zm10-9c-3.859 0-7 3.141-7 7s3.141 7 7 7 7-3.141 7-7-3.141-7-7-7zm0 12c-2.757 0-5-2.243-5-5s2.243-5 5-5 5 2.243 5 5-2.243 5-5 5zm-1-6v-2c0-.553.447-1 1-1s1 .447 1 1v2c0 .553-.447 1-1 1s-1-.447-1-1zm2.5 3.5c0 .828-.672 1.5-1.5 1.5s-1.5-.672-1.5-1.5.672-1.5 1.5-1.5 1.5.672 1.5 1.5z"/></svg>