<?xml version="1.0" encoding="UTF-8"?>
<svg xmlns="http://www.w3.org/2000/svg" id="Layer_1" data-name="Layer 1" viewBox="0 0 24 24">
  <path d="M16.5,2.5c0-1.381,1.119-2.5,2.5-2.5s2.5,1.119,2.5,2.5-1.119,2.5-2.5,2.5-2.5-1.119-2.5-2.5Zm6.749,16.485c-.34,.385-.775,.657-1.249,.826v3.189c0,.553-.447,1-1,1s-1-.447-1-1v-3h-2v3c0,.553-.447,1-1,1s-1-.447-1-1v-3.189c-.474-.169-.909-.441-1.249-.826-.569-.646-.834-1.504-.728-2.357l.876-7.008c.257-2.063,2.02-3.62,4.101-3.62s3.844,1.557,4.101,3.62l.876,7.008c.106,.854-.158,1.712-.728,2.357Zm-7.241-2.109c-.087,.579,.407,1.139,.992,1.124h4c.585,.015,1.079-.545,.992-1.124l-.876-7.008c-.133-1.065-1.043-1.868-2.116-1.868s-1.983,.803-2.116,1.868l-.876,7.008Zm-1.637-11.867l-2.245-3.981c-.666-1.352-2.762-1.35-3.425,.002l-1.171,2.199L3.386,1.062C1.898,.218,.168,2.037,1.128,3.502l2.497,3.734-2.669,1.231c-1.295,.591-1.249,2.586,.089,3.116l2.615,1.078c-.064,.142-1.354,2.624-1.408,2.776-.55,1.376,.898,2.853,2.3,2.31l2.974-1.124,1.257,2.349c.674,1.366,2.799,1.346,3.446-.032,.251-.491,.106-1.095-.386-1.346-.491-.253-1.045-.058-1.297,.435l-1.671-3.122c-.237-.443-.763-.643-1.235-.464l-3.274,1.237,1.568-3.075c.268-.5,.02-1.174-.51-1.379l-2.997-1.235,3.099-1.43c.548-.238,.756-.976,.412-1.464L3.423,3.339l4.06,2.122c.489,.256,1.088,.067,1.346-.417l1.544-3.055,2.256,4.002c.271,.48,.881,.652,1.362,.38,.48-.271,.651-.881,.38-1.362Z"/>
</svg>
