<svg id="Layer_1" viewBox="0 0 24 24" xmlns="http://www.w3.org/2000/svg" data-name="Layer 1"><path d="m13 23c0 .553-.448 1-1 1h-7c-2.757 0-5-2.243-5-5v-12c-.005-2.821 2-5 5.171-5 .413-1.164 1.525-2 2.829-2h2c1.304 0 2.416.836 2.829 2 3.171 0 5.177 2.179 5.171 5v1c0 .553-.448 1-1 1s-1-.447-1-1v-1c0-1.654-1.346-3-3-3h-1c-.552 0-1-.447-1-1s-.449-1-1-1h-2c-.551 0-1 .448-1 1s-.448 1-1 1h-1c-1.654 0-3 1.346-3 3v12c0 1.654 1.346 3 3 3h7c.552 0 1 .447 1 1zm-3-11h-4c-.552 0-1 .447-1 1s.448 1 1 1h4c.552 0 1-.447 1-1s-.448-1-1-1zm0 4h-4c-.552 0-1 .447-1 1s.448 1 1 1h4c.552 0 1-.447 1-1s-.448-1-1-1zm3-7c0-.553-.448-1-1-1h-6c-.552 0-1 .447-1 1s.448 1 1 1h6c.552 0 1-.447 1-1zm11 5.335v3.187c0 4.029-3.764 5.857-4.917 6.322-.178.074-.395.156-.583.156s-.453-.102-.648-.206c-1.138-.568-4.853-2.701-4.853-6.272v-3.187c0-1.295.826-2.439 2.055-2.848l2.5-.829c.609-.201 1.279-.201 1.89 0l2.5.829c1.229.408 2.057 1.553 2.057 2.848zm-2.001 0c0-.432-.275-.813-.686-.949l-2.5-.829c-.203-.068-.426-.068-.629 0l-2.5.829c-.41.136-.685.518-.685.949v3.187c0 2.281 2.629 3.889 3.545 4.379 1.031-.454 3.455-1.798 3.455-4.379z"/></svg>