<svg id="Layer_1" viewBox="0 0 24 24" xmlns="http://www.w3.org/2000/svg" data-name="Layer 1"><path d="m11 14.5c0 .828-.672 1.5-1.5 1.5s-1.5-.672-1.5-1.5.672-1.5 1.5-1.5 1.5.672 1.5 1.5zm3.5-1.5c-.828 0-1.5.672-1.5 1.5s.672 1.5 1.5 1.5 1.5-.672 1.5-1.5-.672-1.5-1.5-1.5zm5.5 0v3c.008.585-.55 1.108-1.134.973-.438 1.735-1.998 3.027-3.866 3.027h-6c-1.868 0-3.429-1.292-3.866-3.027-.583.135-1.141-.388-1.134-.973v-3c-.008-.585.55-1.108 1.134-.973.438-1.734 1.998-3.027 3.866-3.027h2v-1c0-.553.448-1 1-1s1 .447 1 1v1h2c1.868 0 3.429 1.292 3.866 3.027.583-.135 1.141.388 1.134.973zm-3 0c0-1.103-.897-2-2-2h-6c-1.103 0-2 .897-2 2v3c0 1.103.897 2 2 2h6c1.103 0 2-.897 2-2zm7-3.276v9.276c0 2.757-2.243 5-5 5h-14c-2.757 0-5-2.243-5-5v-9.276c0-1.665.824-3.214 2.204-4.145l6.999-4.724c1.699-1.146 3.895-1.146 5.594 0l7 4.724c1.379.931 2.203 2.479 2.203 4.145zm-2 0c0-.999-.494-1.928-1.322-2.486l-7-4.724c-.509-.345-1.094-.517-1.678-.517s-1.168.172-1.678.517l-7 4.723c-.828.559-1.322 1.487-1.322 2.486v9.276c0 1.654 1.346 3 3 3h14c1.654 0 3-1.346 3-3z"/></svg>