<svg id="Layer_1" viewBox="0 0 24 24" xmlns="http://www.w3.org/2000/svg" data-name="Layer 1"><path d="m23.772 3.992c-.333-.619-.976-1.004-1.679-1.004h-1.455c.034-.069.113-.211.139-.283.236-.615.154-1.307-.219-1.85s-.989-.867-1.648-.867h-1.894c-.853 0-1.612.541-1.875 1.306l-2.058 5.215c-.178.588-.07 1.209.296 1.703s.929.777 1.544.777h1.691l-.538 1.622c-.257.9.155 1.807 1.001 2.207.828.394 1.805.148 2.342-.634l4.262-6.237c.388-.586.423-1.334.091-1.954zm-5.484 6.301.661-1.989c.101-.305.05-.64-.138-.9-.188-.261-.49-.415-.811-.415l-2.972.031 1.988-5.031h1.888l-.793 1.543c-.16.31-.146.681.036.978s.505.479.854.479l2.947-.049-3.659 5.354zm4.107 4.046c-.9 2.494-2.201 5.187-3.977 8.229-.516.884-1.477 1.433-2.509 1.433-1.604 0-2.909-1.305-2.909-2.909v-6.091c0-.552-.449-1-1-1s-1 .448-1 1v6.091c0 1.604-1.305 2.909-2.909 2.909-1.032 0-1.993-.549-2.509-1.433-2.396-4.105-5.582-10.289-5.582-16.568 0-2.075 1.254-6 6-6 1.793 0 2.97.341 3.916.615.451.13.84.244 1.252.313.544.092.911.609.818 1.153s-.61.914-1.153.818c-.524-.089-1.007-.229-1.474-.364-.909-.264-1.849-.536-3.358-.536-3.955 0-4 3.837-4 4 0 5.794 3.03 11.655 5.31 15.56.159.271.458.44.781.44.501 0 .909-.408.909-.909v-6.091c0-1.654 1.346-3 3-3s3 1.346 3 3v6.091c0 .501.408.909.909.909.323 0 .623-.169.781-.44 1.715-2.937 2.965-5.521 3.823-7.898.187-.521.761-.792 1.28-.602.52.188.789.76.602 1.279z"/></svg>