<svg id="Layer_1" viewBox="0 0 24 24" xmlns="http://www.w3.org/2000/svg" data-name="Layer 1"><path d="m24 16c0 1.105-.895 2-2 2-.366 0-.705-.106-1-.277v5.277c0 .553-.448 1-1 1s-1-.447-1-1v-6.732c-.589-.271-1-.863-1-1.554 0-.947.768-1.714 1.714-1.714.74 0 1.364.471 1.604 1.127.214-.078.441-.127.681-.127 1.105 0 2 .895 2 2zm-18-1.286c0 .691-.411 1.283-1 1.554v6.732c0 .553-.448 1-1 1s-1-.447-1-1v-5.277c-.295.172-.634.277-1 .277-1.105 0-2-.895-2-2s.895-2 2-2c.24 0 .468.049.681.127.24-.656.865-1.127 1.604-1.127.947 0 1.714.768 1.714 1.714zm10.957 6.914c.16.529-.138 1.087-.667 1.248-.271.082-.537.124-.791.124-1.599 0-2.499-.94-3.095-1.563-.121-.127-.291-.304-.405-.396-.114.093-.284.27-.405.396-.596.623-1.497 1.563-3.095 1.563-.253 0-.519-.042-.791-.124-.528-.161-.827-.719-.667-1.248.161-.528.721-.825 1.248-.666.791.156 1.247-.278 1.86-.908.449-.47 1.008-1.054 1.85-1.054s1.4.584 1.85 1.054c.613.63 1.069 1.065 1.86.908.525-.162 1.086.137 1.248.666zm-16.4-10.144c-.365-1.032-.557-2.064-.557-2.984 0-3.584 2.916-6.5 6.5-6.5 1.693-.033 3.215.704 4.5 1.745v-2.745c0-.553.448-1 1-1s1 .447 1 1v2.745c1.285-1.041 2.807-1.778 4.5-1.745 3.584 0 6.5 2.916 6.5 6.5 0 .866-.173 1.841-.5 2.817-.174.523-.738.809-1.266.631-.523-.175-.806-.741-.631-1.266.259-.774.396-1.529.396-2.183 0-2.481-2.019-4.5-4.5-4.5-1.091 0-2.144.396-2.963 1.113-.653.572-1.469.887-2.299.887h-.477c-.83 0-1.646-.314-2.299-.887-.819-.718-1.872-1.113-2.963-1.113-2.481 0-4.5 2.019-4.5 4.5 0 .696.153 1.497.443 2.318.184.521-.089 1.092-.61 1.276-.508.181-1.093-.085-1.276-.61zm11.444 5.241c-.46 0-.946-.116-1.443-.345-.839-.388-1.59-1.054-2.172-1.927l-1.76-2.258c-.861-1.047-.833-2.543.083-3.459.949-.951 2.604-.949 3.553 0l1.739 1.466 1.804-1.523c.413-.418 1.044-.679 1.714-.679s1.302.261 1.777.736c.915.915.943 2.412.065 3.479l-1.785 2.297c-.54.813-1.291 1.48-2.128 1.867-.499.23-.985.345-1.445.345zm-3.517-6.716c-.078 0-.227.02-.355.147-.198.198-.123.553.066.783l1.82 2.338c.419.625.884 1.046 1.385 1.277.455.21.747.21 1.205 0 .499-.231.964-.652 1.34-1.217l1.845-2.378c.206-.25.281-.605.083-.804-.128-.129-.277-.147-.355-.147s-.227.02-.355.147l-2.513 2.127c-.375.316-.922.316-1.297 0l-2.451-2.07c-.19-.185-.339-.204-.417-.204z"/></svg>