<svg id="Layer_1" viewBox="0 0 24 24" xmlns="http://www.w3.org/2000/svg" data-name="Layer 1"><path d="m24 17c0-.121.01.118 0 0zm-17-9.979c0-1.866 1.246-3.021 2.401-3.021.262 0 .498.048.721.116.163-.86.51-1.849 1.234-2.648.881-.974 2.107-1.468 3.645-1.468.552 0 1 .448 1 1s-.448 1-1 1c-.958 0-1.663.263-2.156.804-.324.356-.519.796-.647 1.233.125-.02.251-.037.386-.037 1.162 0 2.417 1.155 2.417 3.021 0 2.194-1.794 3.979-4 3.979s-4-1.785-4-3.979zm2 0c0 1.091.897 1.979 2 1.979s2-.888 2-1.979c0-.675-.338-.992-.455-1.025-.294.004-.624.417-.693.528-.198.269-.519.474-.854.474-.357 0-.669-.178-.849-.473-.067-.104-.409-.525-.748-.525-.032.018-.401.283-.401 1.021zm15 9.979v3c0 2.206-1.794 4-4 4h-16.289c-1.256 0-2.391-.736-2.892-1.875-.432-.983-.819-2-.819-3.625 0-3.305 1.273-6.891 3.783-9.671.369-.409 1.001-.443 1.413-.072.41.37.442 1.002.072 1.413-.832.921-1.503 1.878-2.019 2.864.152-.022.306-.034.462-.034h16.289c.196 0 .383.031.572.058-.329-.432-.708-.832-1.139-1.184l-2.566-2.1c-.427-.35-.49-.98-.141-1.407.35-.427.979-.49 1.407-.141l2.566 2.1c1.93 1.579 3.126 4.209 3.301 6.674zm-16-1c0 .551.449 1 1 1s1-.449 1-1-.449-1-1-1-1 .449-1 1zm10 4.5c0-.827-.673-1.5-1.5-1.5s-1.5.673-1.5 1.5.673 1.5 1.5 1.5 1.5-.673 1.5-1.5zm4-3.639c0-1.194-1.018-1.861-2-1.861h-8.184c.112.314.184.648.184 1 0 1.654-1.346 3-3 3s-3-1.346-3-3c0-.352.072-.686.184-1h-2.473c-.463 0-.879.267-1.061.68-.305.694-.65 1.48-.65 2.82s.346 2.126.65 2.82c.182.413.598.68 1.061.68h9.64c-.219-.456-.351-.961-.351-1.5 0-1.93 1.57-3.5 3.5-3.5s3.5 1.57 3.5 3.5c0 .539-.133 1.044-.351 1.5h.351c1.103 0 2-.897 2-2 0 0 .019-2.926 0-3.139z"/></svg>