<svg id="Layer_1" viewBox="0 0 24 24" xmlns="http://www.w3.org/2000/svg" data-name="Layer 1"><path d="m20 12h-16c-2.209 0-4 1.791-4 4v4c0 2.209 1.791 4 4 4h16c2.209 0 4-1.791 4-4v-4c0-2.209-1.791-4-4-4zm-13.314 8.984c.156.514-.228 1.033-.765 1.033-.376.024-.727-.211-.832-.577l-.705-2.423h-.784v2.2c0 .442-.358.8-.8.8-.442 0-.8-.358-.8-.8v-6.4c0-.442.358-.8.8-.8h1.567c1.284 0 2.456.909 2.613 2.182.121.976-.311 1.847-1.034 2.355l.739 2.43zm2.914.233c0 .442-.358.8-.8.8s-.8-.358-.8-.8v-6.4c0-.442.358-.8.8-.8s.8.358.8.8zm6.4-1.237c-.191 1.175-1.215 2.028-2.436 2.028-.664 0-1.301-.196-1.84-.553-.387-.257-.447-.801-.118-1.129l.002-.002c.236-.235.602-.283.886-.11.316.191.689.298 1.07.298.604 0 1.031-.404 1.096-.795.089-.55-.602-.873-.817-.959-.915-.371-1.751-.78-1.753-.78-.692-.484-1.027-1.231-.921-2.049.111-.845.674-1.534 1.471-1.796.839-.277 1.603-.076 2.152.203.405.205.518.733.24 1.093-.203.263-.559.358-.863.225-.306-.134-.71-.226-1.137-.088-.412.136-.517.447-.515.577.005.442.335.57.433.615.282.128.806.368 1.366.595 1.461.591 1.828 1.745 1.685 2.627zm5.607.962c.191.522-.196 1.075-.751 1.075h-.042c-.335 0-.634-.209-.75-.523l-1.063-2.877h-.4v2.6c0 .442-.358.8-.8.8-.442 0-.8-.358-.8-.8v-6.4c0-.442.358-.8.8-.8.442 0 .8.358.8.8v2.2h.523l.938-2.483c.118-.311.416-.517.748-.517h.047c.556 0 .942.553.751 1.075l-1.069 2.925 1.069 2.925zm-16.207-4.425c0 .496-.404.9-.9.9h-.9v-1.8h.9c.496 0 .9.404.9.9zm2.419-6.517h8.361c1.093 0 1.774-1.186 1.224-2.13l-4.18-7.167c-.547-.937-1.9-.937-2.447 0l-4.181 7.167c-.551.944.13 2.13 1.224 2.13zm3.181-7c0-.552.448-1 1-1s1 .448 1 1v2c0 .552-.448 1-1 1s-1-.448-1-1zm1 4c.552 0 1 .448 1 1s-.448 1-1 1-1-.448-1-1 .448-1 1-1z"/></svg>