<svg id="Layer_1" viewBox="0 0 24 24" xmlns="http://www.w3.org/2000/svg" data-name="Layer 1"><path d="m0 7v-2c0-2.757 2.243-5 5-5h2c.553 0 1 .447 1 1s-.447 1-1 1h-2c-1.654 0-3 1.346-3 3v2c0 .553-.447 1-1 1s-1-.447-1-1zm19-7h-2c-.553 0-1 .447-1 1s.447 1 1 1h2c1.654 0 3 1.346 3 3v2c0 .553.447 1 1 1s1-.447 1-1v-2c0-2.757-2.243-5-5-5zm4 16c-.553 0-1 .447-1 1v2c0 1.654-1.346 3-3 3h-2c-.553 0-1 .447-1 1s.447 1 1 1h2c2.757 0 5-2.243 5-5v-2c0-.553-.447-1-1-1zm-16 6h-2c-1.654 0-3-1.346-3-3v-2c0-.553-.447-1-1-1s-1 .447-1 1v2c0 2.757 2.243 5 5 5h2c.553 0 1-.447 1-1s-.447-1-1-1zm17-10c0 .553-.447 1-1 1h-22c-.553 0-1-.447-1-1s.447-1 1-1h5v-1c0-1.302.839-2.402 2-2.816v-1.684c0-1.379 1.121-2.5 2.5-2.5h3c1.379 0 2.5 1.121 2.5 2.5v1.684c1.161.414 2 1.514 2 2.816v1h5c.553 0 1 .447 1 1zm-14-6.5v1.5h4v-1.5c0-.275-.225-.5-.5-.5h-3c-.275 0-.5.225-.5.5zm-2 5.5h8v-1c0-.552-.448-1-1-1h-6c-.552 0-1 .448-1 1zm9.88 5.199c.11-.541-.239-1.069-.78-1.179-.538-.11-1.069.239-1.179.78-.377 1.854-2.026 3.199-3.921 3.199s-3.544-1.346-3.921-3.199c-.109-.541-.641-.891-1.179-.78-.541.109-.891.638-.78 1.179.564 2.782 3.038 4.801 5.88 4.801s5.315-2.019 5.88-4.801z"/></svg>