<svg id="Layer_1" viewBox="0 0 24 24" xmlns="http://www.w3.org/2000/svg" data-name="Layer 1"><path d="m20 0c-2.206 0-4 1.794-4 4s1.794 4 4 4 4-1.794 4-4-1.794-4-4-4zm0 6c-1.103 0-2-.897-2-2s.897-2 2-2 2 .897 2 2-.897 2-2 2zm-11 16c0 1.105-.895 2-2 2s-2-.895-2-2 .895-2 2-2 2 .895 2 2zm10 0c0 1.105-.895 2-2 2s-2-.895-2-2 .895-2 2-2 2 .895 2 2zm3.562-10.75c-.569 2.208-2.56 3.75-4.841 3.75h-11.984c.416 1.174 1.528 2 2.82 2h10.443c.552 0 1 .448 1 1s-.448 1-1 1h-10.443c-2.535 0-4.67-1.898-4.966-4.416l-1.376-11.701c-.059-.503-.486-.883-.993-.883h-.222c-.552 0-1-.448-1-1s.448-1 1-1h.222c1.521 0 2.801 1.139 2.979 2.649l.041.351h8.758c.552 0 1 .448 1 1s-.448 1-1 1h-8.522l.941 8h12.302c1.369 0 2.563-.925 2.905-2.25.137-.535.683-.855 1.218-.719.535.138.856.683.719 1.218z"/></svg>