<?xml version="1.0" encoding="UTF-8"?>
<svg xmlns="http://www.w3.org/2000/svg" id="Layer_1" data-name="Layer 1" viewBox="0 0 24 24">
  <path d="M15,23c0,.553-.448,1-1,1h-5.5c-1.93,0-3.5-1.57-3.5-3.5v-4.77c-.167,.256-.318,.524-.445,.808l-2.643,5.872c-.227,.51-.83,.726-1.322,.502-.504-.227-.729-.819-.502-1.322l2.643-5.872c1.29-2.866,4.153-4.718,7.295-4.718h2.974c.552,0,1,.448,1,1s-.448,1-1,1h-2.974c-1.087,0-2.123,.307-3.026,.836v6.664c0,.827,.673,1.5,1.5,1.5h5.5c.552,0,1,.447,1,1Zm8-8h-3.719l-.028-.112c2.097-.354,4.747-1.637,4.747-4.888,0-.552-.448-1-1-1s-1,.448-1,1c0,2.023-1.813,2.681-3,2.896V1c0-.552-.448-1-1-1s-1,.448-1,1c-.552,0-1,.448-1,1s.448,1,1,1v5c-.552,0-1,.448-1,1v7c0,.553,.448,1,1,1v6c0,.553,.448,1,1,1h1c1.299,0,2-1.03,2-2,.028-.226-1.188-4.767-1.219-5h3.219c.552,0,1-.447,1-1s-.448-1-1-1ZM6,5c0-2.206,1.794-4,4-4s4,1.794,4,4-1.794,4-4,4-4-1.794-4-4Zm2,0c0,1.103,.897,2,2,2s2-.897,2-2-.897-2-2-2-2,.897-2,2Z"/>
</svg>
