<svg id="Layer_1" viewBox="0 0 24 24" xmlns="http://www.w3.org/2000/svg" data-name="Layer 1"><path d="m18 18.5v1.5h-12v-1.5c0-.828.672-1.5 1.5-1.5h2.5s0 1 1 1h2s1 .105 1-1h2.5c.828 0 1.5.672 1.5 1.5zm0 2.5h-4c0 1.105-1 1-1 1h-2c-1 0-1-1-1-1h-4v1.5c0 .828.672 1.5 1.5 1.5h9c.828 0 1.5-.672 1.5-1.5zm-14-16c0-.553.448-1 1-1h1.35c.826-2.327 3.043-4 5.65-4 3.309 0 6 2.691 6 6s-2.691 6-6 6-6-2.691-6-6h-1c-.552 0-1-.447-1-1zm12 1h-8c0 2.206 1.794 4 4 4s4-1.794 4-4zm-7.444-2h6.887c-.694-1.19-1.97-2-3.444-2s-2.75.81-3.444 2zm5.444 9h-4c-4.411 0-8 3.589-8 8v2c0 .553.448 1 1 1s1-.447 1-1v-2c0-3.309 2.691-6 6-6h4c3.309 0 6 2.691 6 6v2c0 .553.448 1 1 1s1-.447 1-1v-2c0-4.411-3.589-8-8-8z"/></svg>