<svg id="Layer_1" viewBox="0 0 24 24" xmlns="http://www.w3.org/2000/svg" data-name="Layer 1"><path d="m24 14v2c0 2.206-1.794 4-4 4h-2.852l-3.847 3.18c-.362.322-.826.484-1.293.484-.476 0-.955-.168-1.337-.507l-3.748-3.157h-2.923c-2.206 0-4-1.794-4-4v-12c0-2.206 1.794-4 4-4h6c.552 0 1 .448 1 1s-.448 1-1 1h-6c-1.103 0-2 .897-2 2v12c0 1.103.897 2 2 2h3.289c.236 0 .464.083.645.235l4.047 3.41 4.171-3.416c.179-.148.405-.229.637-.229h3.211c1.103 0 2-.897 2-2v-2c0-.552.448-1 1-1s1 .448 1 1zm-20-3.5c0 .828.672 1.5 1.5 1.5s1.5-.672 1.5-1.5-.672-1.5-1.5-1.5-1.5.672-1.5 1.5zm14.293-2.793c.391.391 1.023.391 1.414 0s.391-1.023 0-1.414l-.707-.707v-1.586c0-.552-.448-1-1-1s-1 .448-1 1v2c0 .265.105.52.293.707zm-6.293-1.707c0-3.309 2.691-6 6-6s6 2.691 6 6-2.691 6-6 6-6-2.691-6-6zm2 0c0 2.206 1.794 4 4 4s4-1.794 4-4-1.794-4-4-4-4 1.794-4 4zm-5 4.5c0 .828.672 1.5 1.5 1.5s1.5-.672 1.5-1.5-.672-1.5-1.5-1.5-1.5.672-1.5 1.5z"/></svg>