<svg id="Layer_1" viewBox="0 0 24 24" xmlns="http://www.w3.org/2000/svg" data-name="Layer 1"><path d="m9 17v6c0 .552-.447 1-1 1s-1-.448-1-1v-6c0-.552.447-1 1-1s1 .448 1 1zm4-4c-.553 0-1 .448-1 1v9c0 .552.447 1 1 1s1-.448 1-1v-9c0-.552-.447-1-1-1zm-10 6c-.553 0-1 .448-1 1v3c0 .552.447 1 1 1s1-.448 1-1v-3c0-.552-.447-1-1-1zm15-4c-.553 0-1 .448-1 1v7c0 .552.447 1 1 1s1-.448 1-1v-7c0-.552-.447-1-1-1zm0-10.5c-.828 0-1.5.672-1.5 1.5s.672 1.5 1.5 1.5 1.5-.672 1.5-1.5-.672-1.5-1.5-1.5zm0 4.5c-.553 0-1 .448-1 1v2c0 .552.447 1 1 1s1-.448 1-1v-2c0-.552-.447-1-1-1zm4.8.601c.785-1.045 1.2-2.29 1.2-3.601 0-3.309-2.691-6-6-6s-6 2.691-6 6c0 1.311.415 2.556 1.2 3.601.333.444.963.529 1.4.199.441-.332.53-.958.199-1.4-.523-.696-.8-1.526-.8-2.4 0-2.206 1.794-4 4-4s4 1.794 4 4c0 .874-.276 1.704-.8 2.399-.331.441-.242 1.068.199 1.4s1.067.243 1.4-.199zm.2 2.399c-.553 0-1 .448-1 1v10c0 .552.447 1 1 1s1-.448 1-1v-10c0-.552-.447-1-1-1zm-15-3c0-1.36-.974-2.51-2.315-2.733l-3.041-.507c-.373-.062-.644-.382-.644-.76 0-.551.448-1 1-1h2.268c.356 0 .688.192.867.5.274.478.885.641 1.366.365.478-.277.642-.888.364-1.366-.534-.925-1.53-1.499-2.598-1.499h-.268v-1c0-.552-.447-1-1-1s-1 .448-1 1v1c-1.653 0-2.999 1.346-2.999 3 0 1.36.974 2.51 2.315 2.733l3.041.507c.373.062.644.382.644.76 0 .551-.448 1-1 1h-2.268c-.356 0-.688-.192-.867-.5-.275-.479-.887-.643-1.366-.365-.32.185-.499.521-.499.866 0 .17.043.343.135.5.534.925 1.53 1.499 2.598 1.499h.268v1c0 .552.447 1 1 1s1-.448 1-1v-1c1.654 0 3-1.346 3-3z"/></svg>