<svg id="Layer_1" viewBox="0 0 24 24" xmlns="http://www.w3.org/2000/svg" data-name="Layer 1"><path d="m23.411 19.788c-.041-.036-2.054-1.298-2.054-1.298s2.061-1.404 2.091-1.432c.365-.321.551-.691.552-1.101 0-.41-.184-.783-.549-1.108-.034-.03-2.34-1.586-2.34-1.586-.373-.287-.886-.346-1.332-.146-.462.207-.761.661-.761 1.155v2.002l-.409-.299c-.448-.327-1.072-.23-1.397.216-.326.446-.229 1.071.216 1.397l1.245.911-1.245.911c-.445.326-.542.951-.216 1.397.327.448.956.54 1.397.216l.409-.299v2.002c0 .494.299.948.761 1.155.425.198 1.005.154 1.336-.148l2.354-1.757c.433-.383.523-.789.523-1.062 0-.613-.438-1-.582-1.127z"/><circle cx="11" cy="5" r="1"/><circle cx="7" cy="5" r="1"/><path d="m17.843 11.751c-.291-1.131-.959-2.082-1.844-2.746 0-.002 0-5.005 0-5.005 0-2.206-1.794-4-4-4h-5.999c-2.206 0-4 1.794-4 4v5.026c-1.207.914-2 2.347-2 3.974v2c0 4.963 4.037 9 9 9 2.039 0 4.037-.701 5.626-1.975.431-.346.5-.975.154-1.406-.345-.43-.974-.498-1.406-.154-1.252 1.004-2.765 1.535-4.374 1.535-3.859 0-7-3.141-7-7v-2c0-1.654 1.346-3 3-3h8c1.37 0 2.564.925 2.905 2.249.138.535.689.857 1.218.72.535-.138.857-.684.72-1.218zm-3.843-3.639c-.325-.066-.658-.112-1-.112h-8c-.342 0-.677.035-1 .101v-4.101c0-1.103.897-2 2-2h6c1.103 0 2 .897 2 2z"/></svg>