<?xml version="1.0" encoding="UTF-8"?>
<svg xmlns="http://www.w3.org/2000/svg" id="Layer_1" data-name="Layer 1" viewBox="0 0 24 24">
  <path d="M19,1H5C2.243,1,0,3.243,0,6v12c0,2.757,2.243,5,5,5h14c2.757,0,5-2.243,5-5V6c0-2.757-2.243-5-5-5ZM5,3h14c1.654,0,3,1.346,3,3v2H2v-2c0-1.654,1.346-3,3-3Zm14,18H5c-1.654,0-3-1.346-3-3V10H22v8c0,1.654-1.346,3-3,3ZM3,5.5c0-.828,.672-1.5,1.5-1.5s1.5,.672,1.5,1.5-.672,1.5-1.5,1.5-1.5-.672-1.5-1.5Zm4,0c0-.828,.672-1.5,1.5-1.5s1.5,.672,1.5,1.5-.672,1.5-1.5,1.5-1.5-.672-1.5-1.5Zm12.866,11.422c0,1.349-1.173,2.078-2.276,2.078-.64,0-1.344-.354-1.858-.681-.404-.258-.484-.815-.165-1.173l.004-.004c.254-.286,.678-.342,1.001-.137,.35,.222,.769,.438,1.019,.438,.074,0,.719-.015,.719-.52,0-.246-.299-.429-1.014-.771-.794-.38-1.882-.9-1.882-2.15,0-1.141,.914-2.001,2.127-2.001,.678,0,1.263,.299,1.68,.593,.372,.261,.435,.788,.141,1.135h0c-.257,.304-.703,.367-1.03,.14-.237-.164-.522-.31-.791-.31-.058,0-.57,.012-.57,.444,0,.249,.395,.456,.997,.745,.802,.383,1.899,.909,1.899,2.176Zm-5.355,0c0,1.349-1.173,2.078-2.276,2.078-.632,0-1.319-.335-1.823-.65-.409-.255-.49-.816-.169-1.176l.003-.003c.253-.284,.672-.341,.995-.141,.341,.211,.746,.412,.995,.412,.074,0,.719-.015,.719-.52,0-.246-.299-.429-1.014-.771-.794-.38-1.882-.9-1.882-2.15,0-1.141,.914-2.001,2.127-2.001,.669,0,1.249,.286,1.666,.569,.379,.257,.446,.79,.15,1.14l-.005,.006c-.26,.307-.709,.362-1.04,.133-.232-.16-.496-.29-.77-.29-.059,0-.57,.012-.57,.444,0,.249,.395,.456,.996,.745,.802,.383,1.899,.909,1.899,2.176Zm-8.911-2.391v1.937c0,.479,.361,.897,.838,.929,.375,.025,.705-.181,.863-.489,.132-.258,.409-.409,.699-.409,.606,0,.99,.647,.703,1.182-.414,.771-1.222,1.3-2.155,1.318-1.401,.027-2.548-1.154-2.548-2.556v-1.887c0-1.402,1.147-2.582,2.548-2.556,.933,.018,1.741,.547,2.155,1.318,.287,.534-.097,1.182-.703,1.182-.29,0-.567-.151-.699-.409-.158-.308-.488-.514-.863-.489-.478,.032-.838,.45-.838,.929Z"/>
</svg>
