<svg id="Layer_1" viewBox="0 0 24 24" xmlns="http://www.w3.org/2000/svg" data-name="Layer 1"><path d="m20 4.101v-2.101c.553 0 1-.447 1-1s-.447-1-1-1h-2c-.553 0-1 .447-1 1s.447 1 1 1v2h-5v-2c.553 0 1-.447 1-1s-.447-1-1-1h-2c-.553 0-1 .447-1 1s.447 1 1 1v2h-5v-2c.553 0 1-.447 1-1s-.447-1-1-1h-2c-.553 0-1 .447-1 1s.447 1 1 1v2.101c-2.279.465-4 2.485-4 4.899v6c0 2.757 2.243 5 5 5h6v3c0 .553.447 1 1 1s1-.447 1-1v-3h6c2.757 0 5-2.243 5-5v-6c0-2.414-1.721-4.434-4-4.899zm2 10.899c0 1.654-1.346 3-3 3h-14c-1.654 0-3-1.346-3-3v-6c0-1.654 1.346-3 3-3h14c1.654 0 3 1.346 3 3z"/></svg>