<svg id="Layer_1" viewBox="0 0 24 24" xmlns="http://www.w3.org/2000/svg" data-name="Layer 1"><path d="m24 13v2c0 2.757-2.243 5-5 5h-6v2h4c.552 0 1 .448 1 1s-.448 1-1 1h-10c-.552 0-1-.448-1-1s.448-1 1-1h4v-2h-6c-2.757 0-5-2.243-5-5v-8c0-2.757 2.243-5 5-5h4c.552 0 1 .448 1 1s-.448 1-1 1h-4c-1.654 0-3 1.346-3 3v8c0 1.654 1.346 3 3 3h14c1.654 0 3-1.346 3-3v-2c0-.552.448-1 1-1s1 .448 1 1zm-11.265-4.621.983-.567c-.129-.418-.218-.853-.218-1.313s.09-.895.218-1.313l-.983-.567c-.479-.275-.643-.887-.367-1.366.275-.479.886-.643 1.366-.367l.977.563c.605-.652 1.393-1.126 2.289-1.33v-1.121c0-.552.448-1 1-1s1 .448 1 1v1.121c.896.205 1.685.678 2.289 1.33l.977-.563c.48-.276 1.09-.111 1.366.367.276.479.112 1.09-.367 1.366l-.983.567c.129.418.218.853.218 1.313s-.09.895-.218 1.313l.983.567c.479.275.643.887.367 1.366-.278.483-.896.64-1.366.367l-.977-.563c-.605.652-1.393 1.126-2.289 1.33v1.121c0 .552-.448 1-1 1s-1-.448-1-1v-1.121c-.896-.205-1.685-.678-2.289-1.33l-.977.563c-.47.273-1.088.116-1.366-.367-.276-.479-.112-1.09.367-1.366zm2.765-1.879c0 1.378 1.122 2.5 2.5 2.5s2.5-1.122 2.5-2.5-1.122-2.5-2.5-2.5-2.5 1.122-2.5 2.5z"/></svg>