<svg id="Layer_1" viewBox="0 0 24 24" xmlns="http://www.w3.org/2000/svg" data-name="Layer 1"><path d="m22.957 5h-1.346l-1.066-1.535c-.194-.29-.52-.465-.868-.465h-1.22c-.216 0-.423-.103-.552-.276l-1.048-1.307c-.197-.263-.506-.417-.835-.417h-1.565c0-.576-.358-1-.935-1h-.522c-.277 0-.542.11-.738.306l-1.565 1.565c-.196.196-.306.461-.306.738v.522l-.977.717c-.132.099-.294.153-.458.153h-.007l-.708-.007-1.138-.553c-.19-.147-.415-.218-.637-.218-.304 0-.605.133-.811.387l-.77.95c-.184.227-.263.519-.223.803-.159-.094-.342-.146-.531-.146-.057 0-.115.005-.173.015l-2.303.384c-.984.164-1.698 1.007-1.698 2.005 0 .894.573 1.674 1.426 1.94l.562.176 2.494 1.475 2.519 3.514c-.25.13-.444.359-.524.645l-1.256 3.227-.926.959c-.189.194-.293.455-.293.725v.588c0 .466.309.875.757 1.003l2.958.795c.669.192 1.451.332 2.147.332.623-.006 1.167.034 1.757.234l2.138.713c.218.083.602.046.852.054.449 0 .848-.287.989-.713l.902-2.287h1.194l2.155.49c.206.057.415.084.621.084.703 0 1.378-.319 1.827-.889l.262-.333c.719-.915.649-2.233-.164-3.065l-.482-.494v-.219l.671-.746c.238-.265.324-.634.228-.978l-.509-1.979c-.108-.386-.767-.776-1.163-.846l-.14-.025.39-.522h.884c.341 0 .661-.167.857-.448.195-.28.24-.638.121-.959l-.405-1.089 1.099-1.979c.063-.137.096-.286.096-.438v-.522c0-.576-.467-1.043-1.043-1.043zm-1.9 3.011c-.259.466-.32 1.013-.174 1.522-.45.107-.854.369-1.137.747l-.39.522c-.416.555-.514 1.287-.259 1.932.238.602.75 1.049 1.373 1.206l.24.933-.327.364c-.33.367-.513.843-.513 1.337v.219c0 .522.204 1.023.568 1.396l.484.496c.112.115.122.304.022.431l-.26.331c-.105.142-.281.146-.434.092l-2.155-.49c-.145-.033-.294-.05-.443-.05h-1.194c-.821 0-1.559.502-1.861 1.266l-.651 1.649-1.737-.579c-.964-.317-1.682-.338-2.39-.336-.449 0-1.031-.093-1.628-.263l-1.826-.491.25-.259c.185-.191.329-.417.425-.664l1.188-3.054c.333-.274.571-.651.673-1.078.135-.564.018-1.159-.32-1.631l-2.519-3.514c-.162-.226-.368-.415-.607-.556l-2.494-1.475c-.132-.078-.273-.141-.42-.187l-.562-.176c-.043-.02-.034-.054.004-.064l2.019-.337c.213.074.436.111.658.111.388 0 .775-.113 1.111-.337.506-.338.823-.882.88-1.471l.064-.079.651.316c.267.129.559.198.855.201l.734.007c.593 0 1.182-.196 1.641-.54l.977-.717c.552-.401.849-1.06.817-1.738l.621-.621c.364.38.876.616 1.444.616h1.105l.768.958c.506.654 1.298 1.042 2.127 1.042h.719l.792 1.141c.374.538.988.859 1.643.859h.008l-.562 1.011z"/></svg>