<svg id="Layer_1" viewBox="0 0 24 24" xmlns="http://www.w3.org/2000/svg" data-name="Layer 1"><path d="m19.931 8c-.453-3.612-3.319-6.477-6.931-6.931.035-.576-.42-1.072-1-1.069-.58-.002-1.035.494-1 1.069-3.593.451-6.446 3.295-6.92 6.931-.579-.039-1.082.415-1.08 1-.002.58.494 1.034 1.069 1l.669 9.356c.186 2.604 2.376 4.644 4.987 4.644h4.551c2.611 0 4.801-2.04 4.987-4.644l.669-9.356c.665 0 1.069-.447 1.069-1s-.433-1-1.069-1zm-6.931-4.91c2.507.423 4.486 2.403 4.909 4.91h-4.909zm-2 0v4.91h-4.91c.423-2.507 2.403-4.486 4.91-4.91zm-4.928 6.91h4.928v4.107c-.373-.061-.773-.107-1.242-.107-1.343 0-2.515.373-3.347.735l-.34-4.735zm11.196 9.214c-.111 1.562-1.426 2.786-2.992 2.786h-4.551c-1.566 0-2.881-1.224-2.992-2.786l-.167-2.329c.53-.298 1.758-.885 3.192-.885.973 0 1.589.207 2.302.447.769.26 1.64.553 2.94.553.857 0 1.734-.192 2.455-.406l-.187 2.619zm.342-4.784c-.791.296-1.79.57-2.609.57-.833 0-1.406-.154-2-.349v-4.651h4.926z"/></svg>