<svg id="Layer_1" viewBox="0 0 24 24" xmlns="http://www.w3.org/2000/svg" data-name="Layer 1"><path d="m23.451 8.413c-1.516-4.921-6.274-8.457-11.451-8.413-6.617 0-12 5.383-12 12s5.383 12 12 12 12-5.383 12-12c0-1.249-.193-2.454-.549-3.587zm-7.415-5.555c2.272 1.007 4.099 2.834 5.106 5.106-.15.014-.299.036-.45.036-2.587 0-4.691-2.105-4.691-4.692 0-.151.022-.3.036-.45zm-4.036 19.142c-5.514 0-10-4.486-10-10 0-1.655.411-3.213 1.125-4.589.103 7.382 6.083 13.36 13.464 13.464-1.376.715-2.934 1.125-4.589 1.125zm7.543-3.456c-.901.218-1.827.34-2.762.34-6.433 0-11.666-5.233-11.666-11.666 0-.936.122-1.862.342-2.763.826-.717 1.767-1.303 2.796-1.72-.162.754-.253 1.523-.253 2.304 0 6.043 4.917 10.96 10.96 10.96.782 0 1.551-.091 2.305-.253-.418 1.03-1.004 1.971-1.721 2.797zm2.331-5.037c-.935.322-1.912.493-2.914.493-4.94 0-8.96-4.019-8.96-8.96 0-1.001.172-1.978.493-2.913.493-.075.993-.126 1.507-.126.717 0 1.414.079 2.089.223-.058.358-.089.72-.089 1.085 0 3.69 3.002 6.692 6.691 6.692.366 0 .729-.03 1.086-.088.144.674.223 1.372.223 2.088 0 .513-.051 1.014-.126 1.507z"/></svg>