<svg id="Layer_1" viewBox="0 0 24 24" xmlns="http://www.w3.org/2000/svg" data-name="Layer 1"><path d="m19 3h-14c-2.757 0-5 2.243-5 5v8c0 2.757 2.243 5 5 5h14c2.757 0 5-2.243 5-5v-8c0-2.757-2.243-5-5-5zm3 13c0 1.654-1.346 3-3 3h-14c-1.654 0-3-1.346-3-3v-8c0-1.654 1.346-3 3-3h14c1.654 0 3 1.346 3 3zm-7.4-6.4v1.65h1.601c.442 0 .8.358.8.8s-.358.8-.8.8h-1.601v1.551h1.601c.442 0 .8.358.8.8s-.358.8-.8.8h-2.2c-.552 0-1-.448-1-1v-6c0-.552.448-1 1-1h2.2c.442 0 .8.358.8.8s-.358.8-.8.8h-1.601zm-4.899-1.6h-1.7c-.552 0-1 .448-1 1v6c0 .552.448 1 1 1h1.7c1.27 0 2.3-1.03 2.3-2.3v-3.4c0-1.27-1.03-2.3-2.3-2.3zm.7 5.7c0 .386-.314.7-.7.7s-1.101 0-1.101 0v-4.802s.715 0 1.101 0 .7.314.7.7v3.4z"/></svg>