<svg id="Layer_1" viewBox="0 0 24 24" xmlns="http://www.w3.org/2000/svg" data-name="Layer 1"><path d="m22 14.071 2-2v9.783c.025 1.157-.998 2.171-2.148 2.149-.416 0-.831-.121-1.19-.36l-3.964-2.644h-5.697c-2.757 0-5-2.243-5-5 0-.553.448-1 1-1s1 .447 1 1c0 1.654 1.346 3 3 3h6c.197 0 .391.059.555.168l4.215 2.811c.019.012.072.051.152.007.078-.042.078-.109.078-.131v-7.784zm-6.527-8.071h.456l1.535-1.535c.177-.177.374-.32.569-.465h-2.561c-.544 0-.988.438-.991.981v.026c-.003.548.443.992.991.992zm-8.973 7h-4c-1.381 0-2.5-1.119-2.5-2.5v-4c0-3.59 2.91-6.5 6.5-6.5s6.5 2.91 6.5 6.5-2.91 6.5-6.5 6.5zm-1-8c0-.296.13-.576.358-.767.23-.194.527-.271.832-.217.391.069.725.402.794.793.093.532-.212.908-.502 1.067-.67.369-1.16.884-1.213.941-.375.403-.353 1.032.048 1.409.192.181.438.271.684.271.266 0 .532-.105.729-.313.003-.003.322-.338.718-.556 1.124-.62 1.729-1.892 1.506-3.165-.213-1.211-1.208-2.205-2.418-2.417-.886-.156-1.784.083-2.464.655-.681.572-1.071 1.409-1.071 2.298 0 .552.448 1 1 1s1-.448 1-1zm1 6c.552 0 1-.448 1-1s-.448-1-1-1-1 .448-1 1 .448 1 1 1zm5.5 3.414c0-1.068.416-2.073 1.172-2.828l5.707-5.707c1.17-1.17 3.072-1.17 4.242 0 1.164 1.117 1.164 3.126 0 4.243l-5.707 5.707c-.756.756-1.76 1.172-2.828 1.172h-1.586c-.552 0-1-.447-1-1v-1.586zm2 .586h.586c.534 0 1.036-.208 1.414-.586l5.707-5.707c.388-.372.388-1.042 0-1.414-.391-.391-1.023-.39-1.414 0l-5.707 5.707c-.378.378-.586.88-.586 1.414z"/></svg>