<svg id="Layer_1" viewBox="0 0 24 24" xmlns="http://www.w3.org/2000/svg" data-name="Layer 1"><path d="m11 7.5-1.017-.763c-.114-.884-.801-1.737-1.983-1.737h-3c-1.182 0-1.869.854-1.983 1.737l-1.017.763c-1.252.939-2 2.435-2 4v7.5c0 2.757 2.243 5 5 5h3c2.757 0 5-2.243 5-5v-7.5c0-1.565-.748-3.061-2-4zm-3 14.5h-3c-1.654 0-3-1.346-3-3v-7.5c0-.939.449-1.836 1.2-2.4l1.4-1.05c.251-.188.4-.485.4-.8v-.25h3v.25c0 .314.148.611.4.8l1.4 1.05c.751.564 1.2 1.461 1.2 2.4v.5h-4c-1.103 0-2 .897-2 2v3c0 1.103.897 2 2 2h4c0 1.654-1.346 3-3 3zm3-5h-4v-3h4zm9.414 3.586c.781.781.781 2.047 0 2.828-.391.391-.902.586-1.414.586s-1.024-.195-1.414-.586c-.781-.781-.781-2.047 0-2.828l.689-.79c.403-.394 1.048-.394 1.451 0l.689.79zm2.586-13.586c-.469 0-1 0-1-2v-2c0-1.654-1.346-3-3-3s-3 1.346-3 3v2c0 2-.531 2-1 2-.552 0-1 .447-1 1s.448 1 1 1h1v4.5c0 1.302.839 2.402 2 2.816v.684c0 .553.448 1 1 1s1-.447 1-1v-.684c1.161-.414 2-1.514 2-2.816v-4.5h1c.552 0 1-.447 1-1s-.448-1-1-1zm-5-2v-2c0-.552.449-1 1-1s1 .448 1 1v2c0 .78.087 1.447.261 2h-2.521c.174-.553.261-1.22.261-2zm2 8.5c0 .552-.449 1-1 1s-1-.448-1-1v-4.5h2z"/></svg>