<svg id="Layer_1" viewBox="0 0 24 24" xmlns="http://www.w3.org/2000/svg" data-name="Layer 1"><path d="m10 0h-5.5c-2.481 0-4.5 2.019-4.5 4.5v5.501c0 1.473.867 2.829 2.264 3.539 1.688.859 2.736 2.568 2.736 4.46v5c0 .552.447 1 1 1s1-.448 1-1v-5c0-1.779.958-3.439 2.501-4.332.478-.277.642-.889.364-1.367-.276-.478-.887-.641-1.366-.365-1.042.603-1.891 1.458-2.493 2.461-.663-1.106-1.633-2.028-2.836-2.64-.722-.367-1.17-1.041-1.17-1.757v-3.001h7c.553 0 1-.448 1-1s-.447-1-1-1h-1v-2.999h2c.553 0 1-.448 1-1s-.447-1-1-1zm-4 5h-4v-.5c0-1.378 1.121-2.5 2.5-2.5h1.5zm14-5h-4c-2.206 0-4 1.794-4 4v16c0 2.206 1.794 4 4 4h4c2.206 0 4-1.794 4-4v-16c0-2.206-1.794-4-4-4zm2 20c0 1.103-.897 2-2 2h-4c-1.103 0-2-.897-2-2v-16c0-1.103.897-2 2-2h4c1.103 0 2 .897 2 2zm-3-15v2c0 .552-.447 1-1 1s-1-.448-1-1v-2c0-.552.447-1 1-1s1 .448 1 1zm0 6v2c0 .552-.447 1-1 1s-1-.448-1-1v-2c0-.552.447-1 1-1s1 .448 1 1zm0 6v2c0 .552-.447 1-1 1s-1-.448-1-1v-2c0-.552.447-1 1-1s1 .448 1 1z"/></svg>