<svg id="Layer_1" viewBox="0 0 24 24" xmlns="http://www.w3.org/2000/svg" data-name="Layer 1"><path d="m15 12h-6c-2.206 0-4 1.794-4 4v4c0 2.206 1.794 4 4 4h6c2.206 0 4-1.794 4-4v-4c0-2.206-1.794-4-4-4zm2 8c0 1.103-.897 2-2 2h-6c-1.103 0-2-.897-2-2v-4c0-1.103.897-2 2-2h6c1.103 0 2 .897 2 2zm-3-3c0 .553-.448 1-1 1h-2c-.552 0-1-.447-1-1s.448-1 1-1h2c.552 0 1 .447 1 1zm8.641-13.115c.219.32.359.698.359 1.115 0 .872-.564 1.607-1.344 1.88.284.419.414.95.306 1.512-.183.956-1.089 1.608-2.062 1.608h-3.3c-.831 0-1.297-.969-.768-1.61.006-.007.011-.013.017-.02.191-.232.468-.37.768-.37h1.468c.357 0 .695-.186.869-.498.145-.26.283-.525.413-.795.159-.327-.07-.708-.433-.708-.71 0-1.182-.73-.906-1.384.003-.006.005-.013.008-.019.154-.366.51-.596.907-.596h.755c.444 0 .837-.3.956-.728.002-.007.004-.015.006-.022.173-.631-.301-1.25-.955-1.25h-1.203c-1.302 0-2.203 1.686-2.53 2.411-.79 1.751-1.915 3.221-3.344 4.369-.188.118-.401.222-.625.22-.225.002-.439-.102-.626-.22-1.429-1.148-2.554-2.618-3.344-4.369-.327-.725-1.228-2.411-2.53-2.411h-1.203c-.654 0-1.128.619-.955 1.25.002.007.004.015.006.022.118.428.511.728.956.728h.755c.397 0 .753.231.907.596.003.006.005.013.008.019.276.654-.196 1.384-.906 1.384-.363 0-.592.381-.433.708.131.269.269.535.413.795.174.312.511.498.869.498h1.468c.3 0 .577.138.768.37.006.007.011.013.017.02.529.641.063 1.61-.768 1.61h-3.3c-.974 0-1.879-.651-2.062-1.608-.108-.562.022-1.093.306-1.512-.78-.273-1.344-1.008-1.344-1.88 0-.417.14-.795.359-1.115-.891-.302-1.503-1.199-1.337-2.219.161-.985 1.086-1.666 2.084-1.666h3.389c1.764 0 3.31 1.274 4.353 3.589.536 1.188 1.262 2.209 2.147 3.063.885-.854 1.611-1.874 2.147-3.063 1.043-2.314 2.589-3.589 4.353-3.589h3.389c.998 0 1.923.681 2.084 1.666.167 1.02-.446 1.917-1.332 2.22z"/></svg>