<svg id="Layer_1" viewBox="0 0 24 24" xmlns="http://www.w3.org/2000/svg" data-name="Layer 1"><path d="m21.812 11.666 1.651-3.532c.352-.752.537-1.588.537-2.419 0-3.151-2.563-5.715-5.715-5.715h-12.57c-3.152 0-5.715 2.563-5.715 5.715 0 .831.186 1.667.538 2.419l1.65 3.532c-1.319 1.038-2.188 3.204-2.188 5.835 0 3.706 1.72 6.5 4 6.5h1c1.114 0 2.093-.671 2.804-1.786.95.815 2.446 1.786 4.196 1.786s3.245-.971 4.196-1.786c.711 1.115 1.69 1.786 2.804 1.786h1c2.28 0 4-2.794 4-6.5 0-2.631-.869-4.796-2.188-5.834zm-16.097-9.666h12.57c2.049 0 3.715 1.667 3.715 3.715 0 .54-.121 1.083-.35 1.572l-1.735 3.713h-.915c-1.114 0-2.093.671-2.804 1.786-.95-.815-2.446-1.786-4.196-1.786s-3.246.971-4.196 1.786c-.711-1.115-1.69-1.786-2.804-1.786h-.916l-1.735-3.713c-.229-.489-.349-1.032-.349-1.572 0-2.048 1.667-3.715 3.715-3.715zm-3.715 15.5c0-2.747 1.185-4.5 2-4.5s2 1.753 2 4.5-1.185 4.5-2 4.5-2-1.753-2-4.5zm10 4.5c-1.448 0-2.752-1.122-3.358-1.735.229-.832.358-1.763.358-2.765s-.129-1.934-.358-2.765c.607-.613 1.911-1.735 3.358-1.735s2.751 1.121 3.358 1.734c-.229.832-.358 1.763-.358 2.766s.129 1.934.358 2.765c-.607.613-1.911 1.735-3.358 1.735zm8 0c-.815 0-2-1.753-2-4.5s1.185-4.5 2-4.5 2 1.753 2 4.5-1.185 4.5-2 4.5z"/></svg>