<svg id="Layer_1" viewBox="0 0 24 24" xmlns="http://www.w3.org/2000/svg" data-name="Layer 1"><path d="m6 15c3.309 0 6-2.691 6-6s-2.691-6-6-6-6 2.691-6 6 2.691 6 6 6zm0-10c2.206 0 4 1.794 4 4s-1.794 4-4 4-4-1.794-4-4 1.794-4 4-4zm14.799 12.03-3.1-13.175c-.534-2.27-2.535-3.855-4.867-3.855h-.832c-.553 0-1 .448-1 1s.447 1 1 1h.832c1.399 0 2.6.951 2.92 2.313l1.821 7.74-3.147 3.846c-.571.7-1.418 1.101-2.321 1.101h-11.105c-.553 0-1 .448-1 1s.447 1 1 1h.351c-.219.456-.351.961-.351 1.5 0 1.93 1.57 3.5 3.5 3.5s3.5-1.57 3.5-3.5c0-.539-.133-1.044-.351-1.5h4.456c1.506 0 2.916-.668 3.869-1.834l2.177-2.66.69 2.931c-1.09.594-1.84 1.736-1.84 3.062 0 1.93 1.57 3.5 3.5 3.5s3.5-1.57 3.5-3.5c0-1.827-1.413-3.315-3.201-3.47zm-14.799 3.47c0 .827-.673 1.5-1.5 1.5s-1.5-.673-1.5-1.5.673-1.5 1.5-1.5 1.5.673 1.5 1.5zm14.5 1.5c-.827 0-1.5-.673-1.5-1.5s.673-1.5 1.5-1.5 1.5.673 1.5 1.5-.673 1.5-1.5 1.5zm-16.807-12.792.908-2.593c.143-.371.499-.615.896-.615h.754c.402 0 .672.411.513.78l-.457 1.222h1.482c.387-.002.621.428.409.752l-2.627 3.076c-.082.106-.208.169-.342.169-.296 0-.506-.289-.412-.57l.476-1.428h-1.003c-.415.002-.715-.397-.597-.795z"/></svg>