<svg id="Layer_1" viewBox="0 0 24 24" xmlns="http://www.w3.org/2000/svg" data-name="Layer 1"><path d="m23 8h-1.101c-.465-2.279-2.484-4-4.899-4h-12c-2.757 0-5 2.243-5 5v6c0 2.757 2.243 5 5 5h12c2.414 0 4.434-1.721 4.899-4h1.101c.552 0 1-.448 1-1v-6c0-.552-.448-1-1-1zm-6 10h-12c-1.654 0-3-1.346-3-3v-6c0-1.654 1.346-3 3-3h12c1.654 0 3 1.346 3 3v6c0 1.654-1.346 3-3 3zm-4-10.5c-.882 0-1.533.287-2 .676-.467-.39-1.118-.676-2-.676-1.654 0-3 1.417-3 3.16 0 1.491 1.135 3.189 3.374 5.046.471.392 1.049.587 1.626.587s1.155-.195 1.625-.586c2.239-1.858 3.375-3.556 3.375-5.047 0-1.743-1.346-3.16-3-3.16zm-1.652 6.668c-.204.17-.49.17-.696 0-1.636-1.357-2.652-2.701-2.652-3.508 0-.64.449-1.16 1-1.16.778 0 .972.487 1.016.677.084.468.489.8.964.811.451-.012.896-.327 1-.792.047-.209.242-.696 1.02-.696.551 0 1 .521 1 1.16 0 .807-1.016 2.15-2.652 3.508z"/></svg>