<svg id="Layer_1" viewBox="0 0 24 24" xmlns="http://www.w3.org/2000/svg" data-name="Layer 1"><path d="m19.969 6.06c-.074-.75-.477-1.42-1.103-1.837l-5.067-3.378c-.842-.562-1.81-.845-2.799-.845-.385 0-.666.033-.999.102-1.325.271-2.468 1.052-3.218 2.197-.93 1.42-1.026 3.231-.319 4.822l-1.415 1.415c-1.322 1.323-2.05 3.081-2.05 4.95v8.515h-1.999c-.552 0-1 .447-1 1s.448 1 1 1h6c.552 0 1-.447 1-1s-.448-1-1-1h-2v-8.516c0-1.335.52-2.591 1.464-3.536l1.069-1.069 2.669 4.004c.418.627 1.088 1.029 1.837 1.104.743.076 1.487-.188 2.02-.722l.844-.844c.982.807 2.429.763 3.346-.155s.961-2.364.155-3.346l.843-.843c.533-.533.796-1.269.722-2.019zm-7.324 5.793c-.147.147-.319.158-.408.146-.089-.009-.255-.049-.371-.223l-3.293-4.939c-.715-1.073-.762-2.456-.117-3.441.456-.696 1.146-1.17 1.945-1.333.79-.163 1.61-.006 2.288.447l5.066 3.378c.173.115.213.281.222.37s.001.26-.146.407l-5.188 5.188zm9.562 2.94c.391.391.391 1.023 0 1.414s-1.023.391-1.414 0l-1-1c-.391-.391-.391-1.023 0-1.414s1.023-.391 1.414 0zm-4.207 1.207v1c0 .553-.448 1-1 1s-1-.447-1-1v-1c0-.553.448-1 1-1s1 .447 1 1zm6-5c0 .553-.448 1-1 1h-1c-.552 0-1-.447-1-1s.448-1 1-1h1c.552 0 1 .447 1 1z"/></svg>