<svg id="Layer_1" viewBox="0 0 24 24" xmlns="http://www.w3.org/2000/svg" data-name="Layer 1"><path d="m20.626 18.097c.431.346.5.976.154 1.406-.347.433-.978.497-1.406.154-1.086-.871-2.662-.871-3.748 0-.431.343-1.061.275-1.406-.154-.346-.431-.277-1.061.154-1.406 1.812-1.453 4.44-1.453 6.252 0zm3.062-2.632c-3.47-3.289-8.906-3.289-12.376 0-.401.38-.417 1.013-.038 1.413.38.402 1.013.419 1.414.038 2.698-2.557 6.926-2.557 9.624 0 .4.38 1.034.364 1.414-.038.38-.4.363-1.033-.038-1.413zm-6.188 5.535c-.828 0-1.5.672-1.5 1.5s.672 1.5 1.5 1.5 1.5-.672 1.5-1.5-.672-1.5-1.5-1.5zm-10.5-14.5c.552 0 1-.447 1-1v-1c0-.553-.448-1-1-1s-1 .447-1 1v1c0 .553.448 1 1 1zm4 0c.552 0 1-.447 1-1v-1c0-.553-.448-1-1-1s-1 .447-1 1v1c0 .553.448 1 1 1zm1.927 15.542c.208.512-.039 1.095-.551 1.303-1.071.435-2.207.655-3.376.655-4.962 0-9-4.037-9-9v-2c0-1.629.795-3.065 2.004-3.978 0-.008-.004-.014-.004-.022v-5c0-2.206 1.794-4 4-4h6c2.206 0 4 1.794 4 4v5c0 .008-.004.014-.004.022.103.078.214.142.312.228.414.365.454.997.088 1.411-.366.416-.998.455-1.412.089-.548-.483-1.252-.75-1.984-.75h-8c-1.654 0-3 1.346-3 3v2c0 3.859 3.14 7 7 7 .91 0 1.792-.171 2.624-.509.512-.207 1.095.039 1.303.551zm-8.927-13.941c.323-.066.658-.101 1-.101h8c.339 0 .672.042 1 .109v-4.109c0-1.103-.897-2-2-2h-6c-1.103 0-2 .897-2 2z"/></svg>