<svg id="Layer_1" viewBox="0 0 24 24" xmlns="http://www.w3.org/2000/svg" data-name="Layer 1"><path d="m21 23c0 .552-.448 1-1 1s-1-.448-1-1 .448-1 1-1 1 .448 1 1zm2-4c-.552 0-1 .448-1 1s.448 1 1 1 1-.448 1-1-.448-1-1-1zm-3 0c-.552 0-1 .448-1 1s.448 1 1 1 1-.448 1-1-.448-1-1-1zm-2-4v1c0 1.103-.897 2-2 2h-1c-1.103 0-2-.897-2-2v-1c0-1.103.897-2 2-2h1c1.103 0 2 .897 2 2zm-1.999 1v-1h-1.001v1zm1.999 5v1c0 1.103-.897 2-2 2h-1c-1.103 0-2-.897-2-2v-1c0-1.103.897-2 2-2h1c1.103 0 2 .897 2 2zm-1.999 1v-1h-1.001v1zm7.999-7v1c0 1.103-.897 2-2 2h-1c-1.103 0-2-.897-2-2v-1c0-1.103.897-2 2-2h1c1.103 0 2 .897 2 2zm-1.999 1v-1h-1.001v1zm-11.5-3c-.828 0-1.5.672-1.5 1.5s.672 1.5 1.5 1.5 1.5-.672 1.5-1.5-.672-1.5-1.5-1.5zm3.535-.622c.391-.391.391-1.024 0-1.414-1.949-1.949-5.122-1.949-7.071 0-.391.39-.391 1.023 0 1.414s1.023.391 1.414 0c1.17-1.169 3.073-1.169 4.243 0 .391.391 1.023.391 1.414 0zm1.061-2.475c.391.391 1.023.391 1.414 0 .391-.39.391-1.023 0-1.414-1.605-1.605-3.74-2.49-6.01-2.49s-4.405.884-6.01 2.49c-.391.391-.391 1.024 0 1.414.391.391 1.023.391 1.414 0 1.228-1.228 2.86-1.904 4.596-1.904s3.369.676 4.596 1.904zm4.943 1.095c.552-.028.976-.499.947-1.05-.291-5.578-4.897-9.948-10.487-9.948-5.79 0-10.5 4.71-10.5 10.5 0 5.591 4.37 10.197 9.948 10.486.546.029 1.023-.394 1.05-.947.029-.552-.395-1.021-.947-1.051-4.515-.233-8.052-3.962-8.052-8.488.001-4.687 3.814-8.5 8.501-8.5 4.526 0 8.254 3.537 8.489 8.052.028.552.501.971 1.05.947z"/></svg>