<svg id="Layer_1" viewBox="0 0 24 24" xmlns="http://www.w3.org/2000/svg" data-name="Layer 1"><path d="m22 6.629v9.551c0 .988.126 1.991.376 2.979.229.906.522 2.296.621 3.773.037.551-.379 1.028-.931 1.064-.545.039-1.03-.379-1.064-.931-.089-1.328-.356-2.591-.565-3.418-.29-1.148-.437-2.315-.437-3.469v-8.395c-.457.136-.935.217-1.43.217h-4.57c-.552 0-1-.448-1-1s.448-1 1-1h4.57c1.3 0 2.448-.833 2.857-2.075.311-.942.504-1.949.575-2.993.037-.551.511-.977 1.065-.93.551.037.968.514.93 1.065-.082 1.211-.307 2.384-.67 3.484-.269.814-.735 1.517-1.327 2.077zm-12 1.371c.552 0 1-.448 1-1s-.448-1-1-1h-4.534c-1.241 0-2.356-.747-2.776-1.859-.378-1.005-.611-2.085-.692-3.213-.04-.55-.51-.957-1.07-.926-.551.04-.965.519-.926 1.07.095 1.319.37 2.589.816 3.774.257.681.668 1.278 1.181 1.767v9.567c0 .988-.126 1.991-.376 2.979-.229.906-.522 2.296-.621 3.773-.037.551.379 1.028.931 1.064.545.039 1.03-.379 1.064-.931.089-1.328.356-2.591.565-3.418.29-1.148.437-2.315.437-3.469v-8.398c.468.142.96.22 1.466.22h4.534zm8 2v11c0 1.654-1.346 3-3 3h-1c-.771 0-1.468-.301-2-.78-.532.48-1.229.78-2 .78h-1c-1.654 0-3-1.346-3-3v-11c0-.552.448-1 1-1s1 .448 1 1v1c0 .551.449 1 1 1h1c.551 0 1-.449 1-1v-1c0-.552.448-1 1-1s1 .448 1 1v1c0 .551.449 1 1 1h1c.551 0 1-.449 1-1v-1c0-.552.448-1 1-1s1 .448 1 1zm-5 3.816v2.184c0 .551.449 1 1 1h1c.551 0 1-.449 1-1v-2.184c-.314.112-.648.184-1 .184h-1c-.352 0-.686-.072-1-.184zm-5 0v2.184c0 .551.449 1 1 1h1c.551 0 1-.449 1-1v-2.184c-.314.112-.648.184-1 .184h-1c-.352 0-.686-.072-1-.184zm3 7.184v-2.184c-.314.112-.648.184-1 .184h-1c-.352 0-.686-.072-1-.184v2.184c0 .551.449 1 1 1h1c.551 0 1-.449 1-1zm5 0v-2.184c-.314.112-.648.184-1 .184h-1c-.352 0-.686-.072-1-.184v2.184c0 .551.449 1 1 1h1c.551 0 1-.449 1-1zm-9.5-17c.828 0 1.5-.672 1.5-1.5s-.672-1.5-1.5-1.5-1.5.672-1.5 1.5.672 1.5 1.5 1.5zm11 0c.828 0 1.5-.672 1.5-1.5s-.672-1.5-1.5-1.5-1.5.672-1.5 1.5.672 1.5 1.5 1.5z"/></svg>