<svg id="Layer_1" viewBox="0 0 24 24" xmlns="http://www.w3.org/2000/svg" data-name="Layer 1"><path d="m24 7v8c0 2.757-2.243 5-5 5h-6v2h4c.552 0 1 .447 1 1s-.448 1-1 1h-10c-.552 0-1-.447-1-1s.448-1 1-1h4v-2h-6c-2.757 0-5-2.243-5-5v-8c0-.553.448-1 1-1s1 .447 1 1v8c0 1.654 1.346 3 3 3h14c1.654 0 3-1.346 3-3v-8c0-.553.448-1 1-1s1 .447 1 1zm-7 3c.552 0 1-.447 1-1v-5c0-.552.449-1 1-1h1.277c.346.595.984 1 1.723 1 1.105 0 2-.895 2-2s-.895-2-2-2c-.738 0-1.376.405-1.723 1h-1.277c-1.654 0-3 1.346-3 3v5c0 .553.448 1 1 1zm-15-6c.738 0 1.376-.405 1.723-1h1.277c.551 0 1 .448 1 1v5c0 .553.448 1 1 1s1-.447 1-1v-5c0-1.654-1.346-3-3-3h-1.277c-.346-.595-.984-1-1.723-1-1.105 0-2 .895-2 2s.895 2 2 2zm9-.277v5.277c0 .553.448 1 1 1s1-.447 1-1v-5.277c.595-.346 1-.984 1-1.723 0-1.105-.895-2-2-2s-2 .895-2 2c0 .738.405 1.376 1 1.723z"/></svg>