<svg id="Layer_1" viewBox="0 0 24 24" xmlns="http://www.w3.org/2000/svg" data-name="Layer 1"><path d="m9.998 17.082c-.036.551-.514.955-1.063.933-.144-.01-.289-.015-.435-.015-3.08 0-5.908 2.186-6.519 5.199-.094.477-.522.801-.981.801-.577 0-.999-.543-1-1.071.648-4.04 4.424-6.931 8.5-6.929.19 0 .378.007.565.019.551.036.969.512.933 1.063zm-8.379-12.933c-.241-.835-.083-1.621.407-2.235.488-.611 1.231-.943 1.975-.9l3.5.267v-.281c0-.552.448-1 1-1 .603 0 1 .448 1 1v.434l4.297.328c.558.031 1.074.325 1.396.804.325.482.396 1.072.198 1.661l-.808 2.468c.067.368.103.742.103 1.12 0 3.411-2.775 6.186-6.186 6.186s-6.187-2.776-6.187-6.187c0-.473.072-.936.177-1.391-.012-.025-.872-2.275-.872-2.275zm11.066 3.665c0-.276-.032-.548-.085-.814h-8.201c-.053.267-.085.538-.085.814 0 2.308 1.877 4.186 4.186 4.186s4.186-1.877 4.186-4.186zm-9.168-4.292.561 1.478h8.955l.412-1.26-9.584-.731c-.193-.012-.437.292-.344.513zm20.483 14.298c-.038.765-.211 1.494-.493 2.166-.131.311-.439.511-.776.511h-.034c-.355 0-.662-.226-.793-.556-.229-.574-.803-.974-1.466-.942-.807.038-1.427.733-1.427 1.541v2.372c0 .589-.47 1.089-1.059 1.089-3.245 0-5.975-2.697-5.941-6.004 0-3.314 2.686-6 6-6 3.254 0 5.897 2.592 5.991 5.823zm-6.491 2.177c0-.828-.672-1.5-1.5-1.5s-1.5.672-1.5 1.5.672 1.5 1.5 1.5 1.5-.672 1.5-1.5zm0-4c0-.828-.672-1.5-1.5-1.5s-1.5.672-1.5 1.5.672 1.5 1.5 1.5 1.5-.672 1.5-1.5zm4 0c0-.828-.672-1.5-1.5-1.5s-1.5.672-1.5 1.5.672 1.5 1.5 1.5 1.5-.672 1.5-1.5z"/></svg>