<svg id="Layer_1" viewBox="0 0 24 24" xmlns="http://www.w3.org/2000/svg" data-name="Layer 1"><path d="m21 2.5c0-.828.672-1.5 1.5-1.5s1.5.672 1.5 1.5-.672 1.5-1.5 1.5-1.5-.672-1.5-1.5zm.25 9.498c-.291 0-.565.058-.829.141-.251-1.222-1.42-2.161-2.672-2.139-.971 0-1.821.51-2.309 1.273-.363-.173-.759-.273-1.173-.273-1.515 0-2.747 1.231-2.747 2.743l-.015 4.61c-.771-.134-1.585.019-2.236.488-1.695 1.168-1.599 3.661-.042 4.909.178.167.42.249.664.249.91 0 1.354-1.11.696-1.738l-.284-.27c-.436-.42-.372-1.184.134-1.528.381-.273.975-.192 1.356.19.287.287.719.371 1.088.217.374-.154.618-.517.619-.921l.02-6.204c0-.411.335-.746.747-.746.391-.007.731.32.739.712l.008 5.288c0 .552.447 1 1 1s1-.448 1-1l-.01-6.256c0-.41.334-.744.745-.744.405-.007.757.347.746.754l.005 6.246c0 .552.447 1 1 1s1-.448 1-1v-4.254c0-.413.337-.749.75-.749.407-.007.761.349.75.759v8.244c0 .552.447 1 1 1s1-.448 1-1v-8.239c.039-1.483-1.267-2.795-2.75-2.764zm-19.25 1.002c0-4.962 4.037-9 9-9 3.203 0 6.19 1.725 7.797 4.501.274.478.885.641 1.366.365.478-.277.642-.889.364-1.367-.464-.802-1.028-1.525-1.661-2.172.688-.546 1.134-1.38 1.134-2.327 0-1.657-1.343-3-3-3-.904 0-1.706.409-2.256 1.041-.341-.617-.99-1.041-1.744-1.041-1.103 0-2 .897-2 2-1.616 0-3.146.359-4.529.987-.455-.596-1.163-.987-1.971-.987-1.379 0-2.5 1.121-2.5 2.5 0 .177.035.344.07.51-.024 0-.046-.01-.07-.01-1.105 0-2 .895-2 2 0 .695.36 1.298.899 1.653-.576 1.334-.899 2.803-.899 4.347 0 3.493 1.604 6.7 4.399 8.8.437.329 1.067.245 1.4-.199.331-.441.242-1.068-.199-1.4-2.288-1.718-3.601-4.343-3.601-7.201zm6.144 2.8c-.737-.752-1.144-1.746-1.144-2.8 0-1.895 1.346-3.543 3.199-3.92.541-.11.891-.638.781-1.179-.11-.54-.631-.889-1.18-.781-2.781.565-4.801 3.038-4.801 5.88 0 1.581.609 3.072 1.716 4.2.387.395 1.02.4 1.414.014.395-.387.4-1.02.014-1.414z"/></svg>