<svg id="Layer_1" viewBox="0 0 24 24" xmlns="http://www.w3.org/2000/svg" data-name="Layer 1"><path d="m8.949 0c-1.821 0-3.301 1.355-3.673 3.219-1.918.333-3.233 1.721-3.233 3.542v.492c-1.716 1.173-2.095 2.662-2.095 3.747 0 .954.272 1.868.793 2.674-.483.747-.741 1.615-.741 2.516 0 1.774 1.032 3.401 2.611 4.179 1.079 2.346 2.979 3.631 5.389 3.631 2.57 0 5-2.43 5-5v-15c0-2.626-2.038-4-4.051-4zm2.051 19c0 1.486-1.514 3-3 3-1.741 0-2.951-.903-3.699-2.763-.104-.259-.312-.462-.574-.562-1.05-.397-1.728-1.373-1.728-2.485 0-.685.265-1.339.746-1.84.186-.194.286-.455.278-.724s-.125-.522-.323-.705l-.118-.107c-.415-.537-.634-1.163-.634-1.815 0-.613.165-1.521 1.585-2.319.315-.177.51-.51.51-.872v-1.047c0-1.112 1.111-1.619 2.143-1.619.552 0 1-.448 1-1 0-1.039.618-2.143 1.762-2.143.946 0 2.051.524 2.051 2v15zm10.465-3.225c-.944.898-1.465 2.066-1.465 3.288 0 1.619-1.317 2.937-2.937 2.937h-1.063c-.552 0-1-.447-1-1s.448-1 1-1h1.063c.517 0 .937-.42.937-.937 0-.36.038-.714.098-1.063h-2.098c-.552 0-1-.447-1-1v-6c0-.552.448-1 1-1s1-.449 1-1 .448-1 1-1 1 .448 1 1c0 1.304-.836 2.416-2 2.829v4.171h1.795c.333-.607.764-1.172 1.292-1.674 1.654-1.573 2.795-4.362 1.039-7.473-.994-1.76-2.958-2.853-5.125-2.853-.552 0-1-.448-1-1s.448-1 1-1c2.888 0 5.52 1.483 6.867 3.87 1.913 3.389 1.363 7.277-1.402 9.906z"/></svg>