<svg id="Layer_1" viewBox="0 0 24 24" xmlns="http://www.w3.org/2000/svg" data-name="Layer 1"><path d="m10.744 13.279.182.462-2.995 7.624c-.201.519-.796.766-1.296.565-.515-.202-.768-.782-.565-1.296l2.224-5.662c.853-.491 1.669-1.225 2.451-1.693zm12.943-7.353c-.333-.528-.88-.864-1.501-.922-.47-.043-1.201-.158-1.441-.239-1.144-.485-2.309-2.061-3.581-2.476-.599-.219-1.318-.312-2.153-.284-.757.029-1.436.388-1.88.946.003.008.008.015.01.023l1.007 2.562.472-1.201c.07-.193.253-.324.466-.332.554-.023 1.041.035 1.393.164 1.158.517 2.319 2.094 3.621 2.49.533.182 1.562.305 1.923.292l-2.026 4.588c-.295.712-1.216.43-1.737.259-.665-.246-1.54-1.004-2.234-1.482l1.272 3.237c.535.26 1.093.373 1.732.442 1.173.105 2.311-.547 2.798-1.648l2.05-4.647c.218-.592.148-1.238-.188-1.771zm-5.757 14.708c.202.514-.051 1.095-.565 1.296-.5.201-1.095-.046-1.296-.565l-3.963-10.088c-.507-.074-1.375-.13-1.986.094-.464.169-1.036.598-1.59 1.013-1.091.856-2.156 1.514-3.559 1.609-1.188.115-2.311-.548-2.798-1.648l-2.026-4.588c-.241-.652-.172-1.297.165-1.831.333-.528.88-.864 1.5-.922 1.357-.089 1.923-.355 2.941-1.304 1.234-1.153 2.448-1.811 4.234-1.695 1.032.04 1.924.687 2.272 1.65l6.67 16.979zm-6.636-11.422-1.905-4.851c-.106-.317-.412-.382-.698-.361-1.196-.031-1.701.404-2.634 1.217-1.029 1.088-2.678 1.771-4.061 1.779l2.007 4.542c.137.311.452.499.776.465 1.05-.077 1.641-.535 2.551-1.219.67-.501 1.361-1.02 2.104-1.291.61-.223 1.275-.292 1.86-.28z"/></svg>