<svg id="Layer_1" viewBox="0 0 24 24" xmlns="http://www.w3.org/2000/svg" data-name="Layer 1"><path d="m9.5 13c-.828 0-1.5-.672-1.5-1.5s.672-1.5 1.5-1.5 1.5.672 1.5 1.5-.672 1.5-1.5 1.5zm5 0c.828 0 1.5-.672 1.5-1.5s-.672-1.5-1.5-1.5-1.5.672-1.5 1.5.672 1.5 1.5 1.5zm9.45-.983c-.515 8.006-6.95 7.983-6.95 7.983h-1v3c0 .552-.447 1-1 1s-1-.448-1-1v-2.264c-.648.168-1.317.264-2 .264s-1.352-.096-2-.264v2.264c0 .552-.447 1-1 1s-1-.448-1-1v-3h-1s-6.436.023-6.95-7.985c-.072-.335-.026-.674-.05-1.015 0-7.222 6.037-11 12-11s12 3.778 12 11c-.005.173-.025.847-.05 1.017zm-11.95 6.983c3.13 0 6.215-2.78 7.131-5.377.2-.587.819-.745 1.369-.624.827 0 1.5-.673 1.5-1.5s-.673-1.499-1.5-1.499h-2.25c-1.065 0-2.07-.398-2.849-1.111-.357.083-.754.113-1.172.111-.789 0-1.56-.226-2.229-.648-.703.443-1.515.651-2.366.649-.367 0-.715-.037-1.036-.111-.777.712-1.782 1.11-2.848 1.11h-2.25c-.827 0-1.5.673-1.5 1.5s.673 1.499 1.5 1.499c.546-.122 1.17.031 1.369.624.916 2.597 4.001 5.377 7.131 5.377zm-9.563-10.817c.337-.108.69-.183 1.063-.183h2.25c.688 0 1.332-.32 1.767-.878.29-.373.802-.492 1.226-.285.241.117.569.179.987.163.601 0 1.153-.225 1.577-.632.387-.373 1-.373 1.387 0 .445.429 1.076.634 1.645.633.392 0 .695-.055.92-.164.424-.207.937-.087 1.226.285.435.558 1.078.878 1.767.878h2.25c.373 0 .725.074 1.063.183-1.317-4.066-5.456-6.183-9.563-6.183s-8.247 2.116-9.565 6.183zm11.926 7.798c.347-.368.059-.98-.447-.98h-3.831c-.506 0-.795.612-.447.98.592.628 1.431 1.02 2.362 1.02s1.77-.392 2.362-1.02z"/></svg>