<svg id="Layer_1" viewBox="0 0 24 24" xmlns="http://www.w3.org/2000/svg" data-name="Layer 1"><path d="m10 23c0 .553-.448 1-1 1h-4c-2.757 0-5-2.243-5-5v-14c0-2.757 2.243-5 5-5h8c2.283 0 4.274 1.542 4.842 3.751.138.534-.184 1.08-.719 1.218-.538.139-1.08-.185-1.218-.72-.341-1.324-1.536-2.249-2.906-2.249h-7.999c-1.654 0-3 1.346-3 3v14c0 1.654 1.346 3 3 3h4c.552 0 1 .447 1 1zm10-16h-4c-.985 0-1.932.361-2.667 1.019-.412.368-.447 1-.079 1.412s1 .447 1.412.078c.367-.328.841-.509 1.333-.509h4c1.103 0 2 .897 2 2v9c0 1.103-.897 2-2 2h-4c-.847 0-1.604-.536-1.886-1.333-.184-.521-.756-.79-1.276-.61-.521.185-.794.756-.61 1.276.563 1.596 2.08 2.667 3.772 2.667h4c2.206 0 4-1.794 4-4v-9c0-2.206-1.794-4-4-4zm-8 10c0 .553.448 1 1 1h3c1.103 0 2-.897 2-2v-3c0-.553-.448-1-1-1s-1 .447-1 1v1.586l-8.586-8.586h1.586c.552 0 1-.447 1-1s-.448-1-1-1h-3c-1.103 0-2 .897-2 2v3c0 .553.448 1 1 1s1-.447 1-1v-1.586l8.586 8.586h-1.586c-.552 0-1 .447-1 1zm-3 1h-1c-.552 0-1 .447-1 1s.448 1 1 1h1c.552 0 1-.447 1-1s-.448-1-1-1z"/></svg>