<svg id="Layer_1" viewBox="0 0 24 24" xmlns="http://www.w3.org/2000/svg" data-name="Layer 1"><path d="m9.973 2.989c.127.537-.205 1.076-.742 1.204-4.153.986-4.23 5.614-4.231 5.81v2.997c0 .815-.094 8.047-3.36 10.768-.422.352-1.053.298-1.408-.128-.354-.424-.296-1.055.128-1.408 1.054-.878 1.705-2.631 2.098-4.423l-2.265-1.516c-.316-.226-.228-.717.147-.82l2.551-.463c.044-.455.071-.87.088-1.239l-2.786-1.862c-.316-.226-.228-.717.147-.819l2.66-.482v-.565l-2.841-3.007c-.354-.375-.078-.99.437-.976l3.095.641c.09-.218.191-.436.302-.653l-1.884-3.279c-.219-.426.199-.899.649-.735l3.209 1.553c.751-.596 1.673-1.072 2.802-1.34.535-.125 1.076.204 1.204.742zm2.027 8.011c0-.552-.448-1-1-1s-1 .448-1 1c0 2.299.649 3.743 1.336 5.271.755 1.681 1.537 3.419 1.665 6.767.02.553.49.983 1.038.961.552-.021.982-.486.961-1.038-.143-3.736-1.044-5.741-1.839-7.51-.648-1.442-1.16-2.581-1.16-4.452zm4.648-.422c1.092-.524 1.828.518 1.828.518s1.701 2.471 1.701 2.471c.315.458.941.568 1.391.257.455-.313.57-.936.257-1.391l-1.969-2.861c.231-.731.137-1.565-.325-2.237l-.396-.575c.244-1.168.583-1.831.724-2.094.096-.178.208-.342.094-.508s-.344-.211-.508-.094c-.694.493-.962.666-1.444 1.147 0-1.058 0-3.212-.002-3.756-.001-.395-.441-.609-.719-.328-.621.626-1.279 1.873-1.716 3.639-1.064-1.421-2.101-3.615-2.518-4.535-.154-.341-.654-.295-.74.069-.264 1.123-.729 3.622.934 6.033-.853-.05-2.23.359-2.958.66-.387.16-.395.706-.009.871 1.014.434 3.048 1.033 3.727 2.02 1.411 2.055 1.457 4.033 1.325 5.005-.079.592.397 1.129.994 1.125.497 0 .927-.37.991-.875.121-.961.139-2.65-.662-4.56zm7.309 8.127c-.417-1.829-2.289-3.007-4.182-2.631s-3.151 2.178-2.673 3.992c.633 2.4 2.74 2.652 4.308 3.799.393.287.987.099 1.076-.38.26-1.406-1.89-2.714-1.367-3.76.17-.34.589-.481.936-.315.466.223.815.516 1.065.786.362.391.741.143.802-.188.091-.497.104-1.003.035-1.303z"/></svg>