<svg id="Layer_1" viewBox="0 0 24 24" xmlns="http://www.w3.org/2000/svg" data-name="Layer 1"><path d="m14.997 22.924c.042.551-.371 1.031-.921 1.073-.026.002-.052.003-.077.003-.518 0-.956-.399-.996-.924-.217-2.847-2.634-5.076-5.503-5.076s-5.286 2.229-5.503 5.076c-.042.55-.524.96-1.073.921-.55-.042-.963-.522-.921-1.073.296-3.882 3.589-6.924 7.497-6.924s7.201 3.042 7.497 6.924zm-12.997-14.424c0-3.033 2.467-5.5 5.5-5.5s5.5 2.467 5.5 5.5-2.467 5.5-5.5 5.5-5.5-2.467-5.5-5.5zm2 0c0 1.93 1.57 3.5 3.5 3.5s3.5-1.57 3.5-3.5-1.57-3.5-3.5-3.5-3.5 1.57-3.5 3.5zm18.94-5.207-2.862-2.862c-.556-.556-1.523-.556-2.079 0l-2.862 2.862c-.391.391-.391 1.023 0 1.414s1.023.391 1.414 0l1.452-1.452v4.745c0 .552.448 1 1 1s1-.448 1-1v-4.816l1.523 1.523c.391.391 1.023.391 1.414 0s.391-1.023 0-1.414z"/></svg>