<svg id="Layer_1" viewBox="0 0 24 24" xmlns="http://www.w3.org/2000/svg" data-name="Layer 1"><path d="m18.573 2.126-6.259-2.075c-.203-.067-.426-.067-.629 0l-6.259 2.075c-2.05.679-3.427 2.586-3.427 4.746v5.171c0 6.564 7.005 10.576 9.152 11.65.241.116.574.325.85.307.236.015.574-.159.791-.24 2.16-.869 9.207-4.283 9.207-11.716v-5.171c0-2.16-1.377-4.067-3.427-4.746zm1.427 9.916c0 6.18-6.088 9.11-7.953 9.861-1.889-.944-8.047-4.445-8.047-9.861v-5.171c0-1.296.826-2.44 2.056-2.848l5.944-1.971 5.944 1.971c1.229.408 2.056 1.552 2.056 2.848zm-6.478-6.961c-.491-.537-1.279-.659-1.549-.548-.273.061-.775.268-1.072.963-.333.777-.46 1.573-.571 2.275-.058.366-.141.887-.243 1.123-.071-.131-.141-.299-.171-.371-.234-.561-.588-.886-1.051-.967-.704-.121-1.197.413-1.383.616-.796.874-1.494 2.662-1.494 3.828-.01 3.277 2.683 5.988 5.964 5.999 2.04 0 4.047-1.168 5.181-3.042 2.64-4.36-1.426-7.948-3.61-9.875zm1.9 8.84c-.385.636-.913 1.149-1.509 1.509.166-.697-.049-1.477-.586-2.013l-.769-.686c-.308-.308-.807-.308-1.115 0l-.77.686c-.557.557-.773 1.377-.57 2.094-1.258-.679-2.114-1.996-2.114-3.51 0-.467.244-1.233.548-1.829.312.43.781.829 1.484.829 1.822 0 2.101-1.754 2.285-2.916.063-.401.129-.811.232-1.203 2.48 2.223 4.452 4.449 2.884 7.039z"/></svg>