<svg id="Layer_1" viewBox="0 0 24 24" xmlns="http://www.w3.org/2000/svg" data-name="Layer 1"><path d="m19.038 2h-2.539c-.201-.224-.413-.439-.649-.633-1.389-1.144-3.215-1.601-5.011-1.25-1.276.249-2.378.937-3.212 1.883h-2.589c-2.757 0-5 2.243-5 5v12c0 2.757 2.243 5 5 5h4c.553 0 1-.447 1-1s-.447-1-1-1h-4c-1.654 0-3-1.346-3-3v-12c0-1.654 1.346-3 3-3h1.393c-.251.692-.393 1.437-.393 2.215 0 1.536 1.249 2.785 2.785 2.785h6.43c1.536 0 2.785-1.25 2.785-2.785.018-.758-.094-1.517-.344-2.215h1.344c1.654 0 3 1.346 3 3v2c0 .552.447 1 1 1s1-.448 1-1v-2c0-2.757-2.243-5-5-5zm-3 4.215c0 .433-.353.785-.785.785h-2.346l.964-1.445c.307-.459.183-1.081-.277-1.387-.462-.308-1.081-.183-1.387.277l-1.703 2.555h-1.68c-.433 0-.785-.352-.785-.785-.01-2.347 1.785-4.256 4.008-4.216 2.226-.051 4.144 1.997 3.992 4.216zm.962 3.785c-3.859 0-7 3.141-7 7s3.141 7 7 7 7-3.141 7-7-3.141-7-7-7zm0 12c-2.757 0-5-2.243-5-5s2.243-5 5-5 5 2.243 5 5-2.243 5-5 5zm2.932-4.459c.135.325.062.705-.19.957l-1.5 1.5c-.685.685-1.8.685-2.485 0l-1.5-1.5c-.557-.518-.13-1.499.621-1.499h1.121v-2c0-.553.447-1 1-1s1 .447 1 1v2h1.121c.355 0 .676.213.812.541z"/></svg>