<svg id="Layer_1" viewBox="0 0 24 24" xmlns="http://www.w3.org/2000/svg" data-name="Layer 1"><path d="m22.066 9.919-4.008-1.328c-.362-.121-.752-.121-1.114 0l-4.011 1.328c-1.156.385-1.932 1.462-1.932 2.678v3.876c0 4.162 4.207 6.589 5.493 7.232 0 0 .62.295 1.008.295.592 0 .88-.217.88-.217 1.318-.531 5.618-2.621 5.618-7.311v-3.876h.001c0-1.216-.778-2.293-1.934-2.677zm-1.375 8.734c-.812.83-1.939 1.347-3.191 1.347-1.228 0-2.327-.507-3.133-1.311l-.695.695c-.248.248-.672.072-.672-.278v-2.526c0-.32.259-.579.579-.579h2.526c.351 0 .526.424.278.672l-.607.607c.449.438 1.048.721 1.723.721s1.289-.275 1.738-.716c.171-.168.473-.284.774-.284.862 0 1.281 1.037.679 1.653zm1.309-4.232c0 .32-.259.579-.579.579h-2.526c-.351 0-.526-.424-.278-.672l.607-.607c-.449-.438-1.048-.721-1.723-.721s-1.289.275-1.738.716c-.171.168-.438.284-.774.284-.862 0-1.281-1.037-.679-1.653.812-.83 1.939-1.347 3.191-1.347 1.228 0 2.327.506 3.133 1.311l.695-.695c.248-.248.672-.072.672.278v2.526zm-11.149 7.408c-.752.114-1.543.172-2.351.172-4.206 0-6.5-1.463-6.5-2.214v-2.328c1.426.886 3.515 1.458 5.969 1.534h.031c.538 0 .982-.428.999-.97.017-.552-.417-1.013-.969-1.03-3.736-.114-6.031-1.528-6.031-2.492v-2.042c1.426.886 3.515 1.458 5.969 1.534h.031c.538 0 .982-.428.999-.97.017-.552-.417-1.013-.969-1.03-3.736-.115-6.031-1.529-6.031-2.493v-2.041c1.535.954 3.835 1.541 6.5 1.541 4.846 0 8.5-1.935 8.5-4.5s-3.652-4.5-8.498-4.5-8.5 1.935-8.5 4.5v15.286c0 2.767 4.276 4.214 8.5 4.214.907 0 1.798-.065 2.649-.194.546-.082.922-.592.839-1.138-.082-.546-.59-.913-1.138-.84zm-2.351-19.829c3.968 0 6.5 1.48 6.5 2.5s-2.532 2.5-6.5 2.5-6.5-1.48-6.5-2.5 2.532-2.5 6.5-2.5z"/></svg>