<svg id="Layer_1" viewBox="0 0 24 24" xmlns="http://www.w3.org/2000/svg" data-name="Layer 1"><path d="m5 14c.552 0 1 .448 1 1v2c0 .552-.448 1-1 1s-1-.448-1-1v-2c0-.552.448-1 1-1zm3-2v5c0 .552.448 1 1 1s1-.448 1-1v-5c0-.552-.448-1-1-1s-1 .448-1 1zm-3.5-9c-.828 0-1.5.672-1.5 1.5s.672 1.5 1.5 1.5 1.5-.672 1.5-1.5-.672-1.5-1.5-1.5zm4 0c-.828 0-1.5.672-1.5 1.5s.672 1.5 1.5 1.5 1.5-.672 1.5-1.5-.672-1.5-1.5-1.5zm15.5 2v6c0 .552-.447 1-1 1s-1-.448-1-1v-2h-20v8c0 1.654 1.346 3 3 3h5c.552 0 1 .448 1 1s-.448 1-1 1h-5c-2.757 0-5-2.243-5-5v-12c0-2.757 2.243-5 5-5h14c2.757 0 5 2.243 5 5zm-2 2v-2c0-1.654-1.346-3-3-3h-14c-1.654 0-3 1.346-3 3v2zm1.707 15.293c.391.391.391 1.023 0 1.414s-1.023.391-1.414 0l-2.54-2.54c-.791.524-1.736.833-2.753.833-2.757 0-5-2.243-5-5s2.243-5 5-5 5 2.243 5 5c0 1.017-.309 1.962-.833 2.753zm-6.707-2.293c1.654 0 3-1.346 3-3s-1.346-3-3-3-3 1.346-3 3 1.346 3 3 3z"/></svg>