<svg id="Layer_1" viewBox="0 0 24 24" xmlns="http://www.w3.org/2000/svg" data-name="Layer 1"><path d="m23 20h-8.184c-.302-.847-.969-1.514-1.816-1.816v-2.184h4c3.309 0 6-2.691 6-6 0-3.139-2.423-5.722-5.496-5.979-.985-2.391-3.336-4.021-6.004-4.021-2.947 0-5.446 1.955-6.225 4.706-2.475.651-4.275 2.892-4.275 5.544 0 3.171 2.58 5.75 5.75 5.75h4.25v2.184c-.847.302-1.514.969-1.816 1.816h-8.184c-.552 0-1 .447-1 1s.448 1 1 1h8.184c.414 1.161 1.514 2 2.816 2s2.402-.839 2.816-2h8.184c.553 0 1-.447 1-1s-.447-1-1-1zm-7.5-12.034c0-.533.432-.966.966-.966.385 0 .733.229.886.582l1.048 2.418v-2.2c0-.442.358-.8.8-.8s.8.358.8.8v5.234c0 .533-.432.966-.966.966-.385 0-.733-.229-.886-.582l-1.048-2.418v2.2c0 .442-.358.8-.8.8s-.8-.358-.8-.8zm-7.706 4.611c-.169.835-.781 1.423-1.578 1.423s-1.418-.61-1.569-1.384l-1.017-4.649c-.109-.497.27-.968.779-.968.374 0 .698.26.779.626 0 0 1.026 4.666 1.028 4.674.003-.013 1.004-4.671 1.004-4.671.079-.367.404-.63.78-.63h.012c.508 0 .887.469.779.966l-.997 4.611zm3.006 1.423c-.442 0-.8-.358-.8-.8v-5.4c0-.442.358-.8.8-.8h1.2c1.381 0 2.5 1.119 2.5 2.5v.026c0 1.396-1.15 2.517-2.545 2.483l-.355-.009v1.2c0 .442-.358.8-.8.8zm1.2 8c-.551 0-1-.448-1-1s.449-1 1-1 1 .448 1 1-.449 1-1 1zm0-11.6h-.4v-1.8h.4c.496 0 .9.404.9.9s-.404.9-.9.9z"/></svg>