<svg id="Layer_1" viewBox="0 0 24 24" xmlns="http://www.w3.org/2000/svg" data-name="Layer 1"><path d="m17.633 21.866c.32.45.216 1.074-.234 1.395-.701.499-1.512.74-2.318.74-1.029 0-2.051-.394-2.829-1.172-.756-.755-1.172-1.76-1.172-2.828s.416-2.073 1.172-2.828l1.414-1.415c1.197-1.197 3.031-1.509 4.553-.782.499.238.71.835.472 1.333s-.837.71-1.333.471c-.764-.364-1.679-.208-2.277.392l-1.413 1.414c-.378.378-.587.88-.587 1.414s.209 1.036.586 1.414c.694.694 1.776.785 2.573.217.451-.32 1.075-.215 1.395.234zm.049-10.105c-.45.32-.555.945-.234 1.395s.945.557 1.395.234c.799-.569 1.88-.476 2.572.217.378.378.586.88.586 1.415s-.208 1.036-.586 1.414l-1.414 1.414c-.601.599-1.516.755-2.277.392-.496-.237-1.094-.026-1.333.471-.238.499-.027 1.095.472 1.333.548.262 1.136.389 1.72.389 1.039 0 2.066-.404 2.833-1.171l1.414-1.415c.756-.755 1.172-1.76 1.172-2.828s-.416-2.073-1.172-2.829c-1.387-1.387-3.55-1.569-5.146-.432zm6.318-4.761v2c0 .552-.447 1-1 1s-1-.448-1-1v-1h-20v9c0 1.654 1.346 3 3 3h3c.552 0 1 .448 1 1s-.448 1-1 1h-3c-2.757 0-5-2.243-5-5v-12c0-2.757 2.243-5 5-5h2.528c.463 0 .927.109 1.341.316l3.156 1.578c.138.069.293.105.447.105h6.528c2.757 0 5 2.243 5 5zm-22-1h19.816c-.414-1.161-1.514-2-2.816-2h-6.528c-.463 0-.927-.109-1.341-.316l-3.156-1.578c-.138-.069-.293-.105-.447-.105h-2.528c-1.654 0-3 1.346-3 3v1z"/></svg>