<svg id="Layer_1" viewBox="0 0 24 24" xmlns="http://www.w3.org/2000/svg" data-name="Layer 1"><path d="m23.148 15.195s-6.999-11.761-6.999-11.761c-.922-1.547-2.45-2.434-4.193-2.434-1.757 0-3.293.887-4.213 2.434l-7 11.762c-.946 1.59-.991 3.518-.121 5.155.883 1.658 2.502 2.648 4.331 2.648h13.986c1.785 0 3.701-1.249 4.555-2.97.774-1.56.661-3.141-.346-4.835zm-7.2 5.805h-8v-3c0-1.103.897-2 2-2h4c1.102 0 2 .897 2 2zm5.755-1.86c-.519 1.043-1.732 1.86-2.764 1.86h-.991v-3c0-2.206-1.794-4-4-4h-4c-2.206 0-4 1.794-4 4v3h-.996c-1.077 0-2.036-.594-2.565-1.587-.539-1.016-.512-2.21.074-3.194l7-11.762c.56-.939 1.445-1.457 2.495-1.457s1.907.504 2.474 1.457l6.999 11.761c.658 1.108.74 1.982.273 2.922z"/></svg>