<svg id="Layer_1" viewBox="0 0 24 24" xmlns="http://www.w3.org/2000/svg" data-name="Layer 1"><path d="m16 19.465v3.535c0 .553-.448 1-1 1s-1-.447-1-1v-2.101c-.328.066-.663.101-1 .101h-6c-.342 0-.677-.035-1-.101v2.101c0 .553-.448 1-1 1s-1-.447-1-1v-3.026c-1.207-.914-2-2.348-2-3.974v-8c0-1.627.793-3.061 2-3.974v-3.026c0-.553.448-1 1-1s1 .447 1 1v2.101c.323-.066.658-.101 1-.101h6c.337 0 .672.034 1 .101v-2.101c0-.553.448-1 1-1s1 .447 1 1v3.535c0 .357-.191.688-.5.866-.311.178-.692.178-1.001 0-.452-.262-.97-.4-1.499-.4h-6c-1.654 0-3 1.346-3 3v8c0 1.654 1.346 3 3 3h6c.528 0 1.046-.139 1.499-.4.309-.18.69-.18 1.001 0 .31.179.5.509.5.866zm5.485-4.398c-.475.593-1.195.933-1.975.933h-.794c-.123.844-.843 1.494-1.722 1.494s-1.598-.65-1.722-1.494h-.786c-.78 0-1.5-.34-1.975-.933-.446-.557-.614-1.271-.46-1.959.174-.782.38-1.395.56-2.178.555-2.424 2.236-3.931 4.388-3.931 2.165 0 3.847 1.509 4.389 3.937.176.788.38 1.391.554 2.169.155.689-.013 1.404-.458 1.962zm-1.493-1.524c-.177-.775-.379-1.377-.555-2.171-.159-.713-.715-2.372-2.437-2.372-1.709 0-2.275 1.662-2.438 2.377-.177.784-.366 1.395-.557 2.167-.061.248.123.456.482.456h5.023c.305 0 .538-.19.482-.457z"/></svg>