<svg id="Layer_1" viewBox="0 0 24 24" xmlns="http://www.w3.org/2000/svg" data-name="Layer 1"><path d="m23 0h-3.224c-1.702 0-3.329.529-4.706 1.53l-1.318.958c-.518-.303-1.112-.489-1.753-.489s-1.236.186-1.753.489l-1.318-.958c-1.375-1.001-3.002-1.53-4.704-1.53h-3.224c-.552 0-1 .447-1 1s.448 1 1 1h3.224c1.276 0 2.497.396 3.529 1.147l1.119.814c-.23.465-.371.981-.371 1.534-2.393.714-3.886 3.196-3.403 5.705l1.116 5.799h-2.213c-.552 0-1 .447-1 1s.448 1 1 1h2.62c.454 1.75 2.03 3 3.858 3h.522v1c0 .553.448 1 1 1s1-.447 1-1v-1h.522c1.828 0 3.404-1.25 3.858-3h2.62c.552 0 1-.447 1-1s-.448-1-1-1h-2.213l1.116-5.799c.483-2.51-1.011-4.993-3.403-5.705 0-.553-.142-1.069-.372-1.534l1.12-.814c1.032-.751 2.252-1.147 3.529-1.147h3.224c.552 0 1-.447 1-1s-.448-1-1-1zm-9.5 5.5c0 .827-.673 1.5-1.5 1.5s-1.5-.673-1.5-1.5.673-1.5 1.5-1.5 1.5.673 1.5 1.5zm3.439 5.324-1.453 7.554c-.181.939-1.006 1.622-1.964 1.622h-.522v-6c0-.553-.448-1-1-1s-1 .447-1 1v6h-.522c-.958 0-1.783-.683-1.964-1.622l-1.453-7.554c-.289-1.507.592-2.993 2.012-3.416.625.956 1.702 1.592 2.927 1.592s2.301-.635 2.927-1.592c1.419.421 2.302 1.908 2.012 3.416z"/></svg>