<svg id="Layer_1" viewBox="0 0 24 24" xmlns="http://www.w3.org/2000/svg" data-name="Layer 1"><path d="m11 3.496c0-2.025-1.367-3.496-3.25-3.496-.902 0-1.696.306-2.273.816-.582-.506-1.366-.816-2.227-.816-1.883 0-3.25 1.47-3.25 3.496 0 2.225 2.277 4.5 4.188 6.016.386.307.85.46 1.312.46s.926-.153 1.312-.46c1.91-1.516 4.188-3.791 4.188-6.016zm-5.431 4.449c-.04.031-.099.031-.139 0-2.116-1.68-3.431-3.384-3.431-4.449 0-.922.479-1.496 1.25-1.496.689 0 1.25.449 1.25 1s.448 1 1 1 1-.448 1-1c0-.687.648-1 1.25-1 .771 0 1.25.573 1.25 1.496 0 1.065-1.314 2.77-3.431 4.449zm17.731 6.048-2.247-4.161 2.034-3.798c.63-1.183.337-2.66-.683-3.438-.628-.479-1.426-.657-2.188-.49-.764.167-1.412.658-1.776 1.342l-.417.773-.415-.768c-.367-.689-1.016-1.18-1.779-1.346-.764-.167-1.562.011-2.189.49-1.019.777-1.312 2.255-.681 3.438l1.17 2.189c-.347.088-.677.246-.97.469-.494.377-.814.92-.944 1.513-.61-.02-1.213.162-1.711.54-.579.441-.915 1.111-.989 1.822-.54.023-1.069.202-1.511.539-1.019.777-1.312 2.254-.684 3.433l1.963 3.72c1.27 2.38 3.714 3.74 6.251 3.739 1.134 0 2.287-.271 3.361-.845l1.974-1.155c2.877-1.536 3.969-5.125 2.432-8.007zm-3.098-9.6c.219-.343.569-.482.989-.206.244.186.302.584.131.904l-1.409 2.631-.754-1.397zm-.31 15.861-1.974 1.155c-2.474 1.319-5.554.379-6.87-2.086l-1.963-3.72c-.171-.321-.114-.719.129-.905.414-.275.772-.136.987.199l1.432 2.749c.255.49.86.68 1.349.424.489-.256.678-.859.422-1.348l-1.82-3.48c-.171-.321-.114-.719.13-.905.407-.267.733-.145.96.17l1.884 3.584c.257.488.861.676 1.349.419.488-.257.676-.861.419-1.35l-2.088-3.971c-.172-.321-.114-.719.13-.905.378-.243.641-.161.896.072l2.219 4.179c.259.487.864.673 1.351.414.487-.259.672-.865.413-1.352l-4.523-8.504c-.172-.321-.115-.719.128-.905.423-.275.772-.139.994.211l5.693 10.541c1.016 1.904.293 4.281-1.646 5.316z"/></svg>