<svg id="Layer_1" viewBox="0 0 24 24" xmlns="http://www.w3.org/2000/svg" data-name="Layer 1"><path d="m12 14c-4.962 0-9 4.037-9 9 0 .553.448 1 1 1s1-.447 1-1c0-2.843 1.706-5.29 4.146-6.385l-.57 1.868c-.165.604-.041 1.236.34 1.734s.958.783 1.584.783h3c.626 0 1.204-.285 1.584-.783.381-.498.504-1.13.331-1.764l-.561-1.838c2.44 1.095 4.146 3.543 4.146 6.385 0 .553.447 1 1 1s1-.447 1-1c0-4.963-4.037-9-9-9zm1.5 5-3.003.037.919-3.008c.193-.016.387-.03.584-.03s.392.013.586.03l.914 2.97zm-9.5-8c0 1.105.895 2 2 2s2-.895 2-2c0-.227-.046-.442-.116-.646 1.076 1.017 2.522 1.646 4.116 1.646s3.041-.629 4.116-1.646c-.07.204-.116.419-.116.646 0 1.105.895 2 2 2s2-.895 2-2c0-.601-.27-1.133-.69-1.5.419-.367.69-.899.69-1.5 0-.731-.396-1.364-.981-1.712.296-.349.481-.794.481-1.288 0-.748-.415-1.392-1.023-1.735.012-.087.023-.174.023-.265 0-1.105-.895-2-2-2-.09 0-.173.021-.26.033-.342-.613-.989-1.033-1.74-1.033-.327 0-.632.083-.904.222-.509-.141-1.043-.222-1.596-.222s-1.087.081-1.596.222c-.272-.139-.577-.222-.904-.222-.752 0-1.399.42-1.74 1.033-.086-.011-.17-.033-.26-.033-1.105 0-2 .895-2 2 0 .09.012.177.023.265-.608.343-1.023.987-1.023 1.735 0 .493.185.939.481 1.288-.585.349-.981.982-.981 1.712 0 .601.27 1.133.69 1.5-.419.367-.69.899-.69 1.5zm12-5c0 2.206-1.794 4-4 4s-4-1.794-4-4 1.794-4 4-4 4 1.794 4 4z"/></svg>