<svg id="Layer_1" viewBox="0 0 24 24" xmlns="http://www.w3.org/2000/svg" data-name="Layer 1"><path d="m23 22h-2v-6.138c.98-.148 1.886-.453 2.647-1.099.421-.357.473-.989.115-1.41-.358-.42-.989-.47-1.41-.115-.764.649-1.965.748-3.353.76v-5.136c.98-.148 1.886-.454 2.647-1.1.421-.357.473-.988.115-1.41-.358-.421-.988-.471-1.41-.115-.83.705-2.174.762-3.716.762h-.637v-3c.015 0 .031.001.046.001.453 0 .917-.111 1.381-.33.5-.236.713-.832.478-1.331s-.83-.713-1.331-.478c-.208.098-.395.14-.558.138-.894-.035-2.03-.832-3.034-1.534l-.413-.289c-.342-.235-.795-.235-1.137 0l-.388.271c-1.024.716-2.185 1.527-3.096 1.552-.154-.002-.323-.04-.521-.133-.501-.235-1.095-.022-1.331.477-.235.5-.022 1.096.478 1.332.48.227.944.347 1.427.323v3.002h-.637c-1.542 0-2.886-.057-3.716-.762-.421-.356-1.051-.307-1.41.115-.357.421-.306 1.052.115 1.41.761.646 1.668.951 2.647 1.1v5.136c-1.388-.012-2.589-.112-3.353-.76-.422-.355-1.052-.305-1.41.115-.357.421-.306 1.053.115 1.41.761.646 1.668.951 2.647 1.099v6.138h-1.997c-.553 0-1 .447-1 1s.447 1 1 1h22c.553 0 1-.447 1-1s-.447-1-1-1zm-13.009-18.547c.703-.34 1.377-.793 2.009-1.234.631.441 1.305.896 2.009 1.238 0 .015-.009.028-.009.043v3.5h-4v-3.5c0-.016-.009-.03-.009-.047zm-2.627 5.547h9.273c.122 0 .242-.002.363-.003v5.003h-2v-2c0-.552-.447-1-1-1s-1 .448-1 1v2h-2v-2c0-.552-.447-1-1-1s-1 .448-1 1v2h-2v-5.003c.121.001.241.003.363.003zm-2.363 6.997c.121.001.241.003.363.003h13.273c.122 0 .242-.002.363-.003v6.003h-2v-3c0-.553-.447-1-1-1s-1 .447-1 1v3h-2v-3c0-.553-.447-1-1-1s-1 .447-1 1v3h-2v-3c0-.553-.447-1-1-1s-1 .447-1 1v3h-2v-6.003z"/></svg>