<svg id="Layer_1" viewBox="0 0 24 24" xmlns="http://www.w3.org/2000/svg" data-name="Layer 1"><path d="m22.41 8.327c-.22-.806-.41-1.502-.41-1.827.035-1.286 1.209-2.473 1.458-3.788.133-.61-.055-1.238-.502-1.679-.459-.454-1.111-.638-1.741-.491-.404.091-1.361.411-1.715.457-2.193-.067-4.612-1.034-7-1-4.34.001-8.291 3.858-8.482 8.177-2.1.486-3.455 1.986-3.864 3.413-.289 1.008-.178 2.039.312 2.904.165.29.462.479.795.504.329.026.655-.117.86-.378.114-.146.624-.619 2.378-.619h.941c.365.816.559 1.653.559 2.5 0 1.124-.605 2.144-1.14 3.042-.786 1.147-1.321 2.625-.235 3.731.63.669 1.579.891 2.435.604 2.746-.912 4.79-2.897 5.882-4.171.099.132 1.63 2.453 1.747 2.583.487.556 1.209.808 1.94.678.719-.131 1.302-.614 1.559-1.297.337-.895.607-2.368.734-3.879 1.002.811 1.645 1.673 1.653 1.685.599.683 1.709.659 2.436.186.627-.405.982-1.092.951-1.834-.186-4.502-1.008-7.51-1.552-9.5zm-17.91 3.673c-.979 0-1.805.124-2.476.368.013-.076.03-.152.052-.228.296-1.031 1.474-2.14 3.361-2.14 0 0 1.508 1.083 1.53 1.108-.019.03-.723.892-.723.892h-1.745zm17.409 5.941c-.533-.64-1.793-2.002-3.462-2.836-.635-.342-1.469.174-1.447.895 0 2.044-.353 4.084-.684 4.967-.022.055-.073.06-.111.008l-2.375-3.532c-.398-.593-1.29-.576-1.664.006-.022.033-2.28 3.383-5.737 4.53-.306.088-.492-.145-.404-.388.11-.277.326-.642.556-1.027.599-1.009 1.42-2.39 1.42-4.063 0-.967-.186-1.918-.537-2.844.047-.019.917-1.119.952-1.148.431-.513.624-1.046.574-1.585s-.336-1.028-.901-1.491l-2.041-1.537c.35-3.107 3.315-5.895 6.453-5.895 2.287-.014 4.772.986 7 1 .378.018 1.263-.251 1.927-.445-.113.323-.301.677-.496 1.046-.437.823-.931 1.756-.931 2.899 0 .592.202 1.331.481 2.354.52 1.904 1.306 4.78 1.482 9.056 0 .024-.023.067-.055.032zm-7.939-11.992c-.264.879-.967 2.051-2.842 2.051h-1.373c-.519 0-.874-.506-.718-1.001.276-.872.987-1.999 2.826-1.999h1.375c.496 0 .874.474.732.949z"/></svg>