<svg id="Layer_1" viewBox="0 0 24 24" xmlns="http://www.w3.org/2000/svg" data-name="Layer 1"><path d="m12 10c2.761 0 5-2.239 5-5s-2.239-5-5-5-5 2.239-5 5 2.239 5 5 5zm-2-6h1v-1c0-.552.448-1 1-1s1 .448 1 1v1h1c.552 0 1 .448 1 1s-.448 1-1 1h-1v1c0 .552-.448 1-1 1s-1-.448-1-1v-1h-1c-.552 0-1-.448-1-1s.448-1 1-1zm14 10v8c0 1.105-.895 2-2 2s-2-.895-2-2 .895-2 2-2v-3h-20v3c1.105 0 2 .895 2 2s-.895 2-2 2-2-.895-2-2v-19c0-.552.447-1 1-1s1 .448 1 1v7.026c.838-.635 1.87-1.026 3-1.026h1c.553 0 1 .448 1 1s-.447 1-1 1h-1c-1.654 0-3 1.346-3 3v1h20v-1c0-1.654-1.346-3-3-3h-1c-.553 0-1-.448-1-1s.447-1 1-1h1c2.757 0 5 2.243 5 5z"/></svg>