<svg id="Layer_1" viewBox="0 0 24 24" xmlns="http://www.w3.org/2000/svg" data-name="Layer 1"><path d="m0 12c0-1.105.895-2 2-2s2 .895 2 2-.895 2-2 2-2-.895-2-2zm19-9h-14c-2.283 0-4.274 1.542-4.842 3.751-.138.535.184 1.08.719 1.217.539.138 1.081-.184 1.217-.719.341-1.324 1.536-2.249 2.906-2.249h14c1.654 0 3 1.346 3 3v8c0 1.654-1.346 3-3 3h-14c-1.37 0-2.565-.925-2.906-2.249-.137-.534-.68-.857-1.217-.72-.535.138-.857.683-.719 1.218.568 2.209 2.559 3.751 4.842 3.751h14c2.757 0 5-2.243 5-5v-8c0-2.757-2.243-5-5-5zm-1.172 6.6c.299-.003.52.172.63.411.135.292.416.489.738.489.58 0 .97-.597.734-1.127-.359-.804-1.156-1.378-2.102-1.373-1.269 0-2.3 1.031-2.3 2.3v3.4c0 1.268 1.031 2.3 2.3 2.3.946.004 1.743-.57 2.102-1.373.236-.529-.154-1.127-.734-1.127-.322 0-.603.197-.738.489-.11.239-.331.414-.63.411-.386 0-.7-.314-.7-.7v-3.4c0-.386.314-.7.7-.7zm-8.883 2.933s.729 2.395.729 2.395c.162.533-.237 1.072-.794 1.072-.369 0-.694-.244-.797-.598l-.698-2.402h-.784v2.2c0 .442-.358.8-.8.8s-.8-.358-.8-.8v-6.2c0-.552.448-1 1-1h1.367c1.284 0 2.456.908 2.613 2.182.12.97-.32 1.841-1.035 2.351zm-.545-2.033c0-.496-.404-.9-.9-.9h-.9v1.8h.9c.496 0 .9-.404.9-.9zm5.3-.9c.442 0 .8-.358.8-.8s-.358-.8-.8-.8h-1.7c-.552 0-1 .448-1 1v6c0 .552.448 1 1 1h1.7c.442 0 .8-.358.8-.8s-.358-.8-.8-.8h-1.101v-1.551h1.101c.442 0 .8-.358.8-.8s-.358-.8-.8-.8h-1.101v-1.65h1.101z"/></svg>