<svg id="Layer_1" viewBox="0 0 24 24" xmlns="http://www.w3.org/2000/svg" data-name="Layer 1"><path d="m21 23c0 .553-.447 1-1 1s-1-.447-1-1c0-3.859-3.141-7-7-7s-7 3.141-7 7c0 .553-.447 1-1 1s-1-.447-1-1c0-4.963 4.037-9 9-9s9 4.037 9 9zm-5.001-3.001v2.002c0 1.104-.894 2-1.999 2h-4.001c-1.104 0-1.999-.895-1.999-2v-2.002c0-1.104.896-1.999 2-1.999l.168-.337c.203-.407.619-.663 1.073-.663h1.517c.455 0 .87.257 1.073.663l.168.337c1.104 0 1.999.895 1.999 1.999zm-2.499 1.001c0-.828-.672-1.5-1.5-1.5s-1.5.672-1.5 1.5.672 1.5 1.5 1.5 1.5-.672 1.5-1.5zm-9.5-16c0-.553.447-1 1-1h1.22l.242-.97c.445-1.784 2.042-3.03 3.881-3.03h3.314c1.839 0 3.436 1.246 3.881 3.03l.242.97h1.22c.553 0 1 .447 1 1s-.447 1-1 1h-1c0 3.309-2.691 6-6 6s-6-2.691-6-6h-1c-.553 0-1-.447-1-1zm12 1h-8c0 2.206 1.794 4 4 4s4-1.794 4-4zm-7.72-2h7.44l-.121-.485c-.224-.892-1.021-1.515-1.941-1.515h-3.314c-.92 0-1.718.623-1.941 1.515l-.121.485z"/></svg>