<svg id="Layer_1" viewBox="0 0 24 24" xmlns="http://www.w3.org/2000/svg" data-name="Layer 1"><path d="m18 21v2c0 .552-.448 1-1 1h-2c-.552 0-1-.448-1-1v-2c0-.552.448-1 1-1v-1.5h-6v1.5c.552 0 1 .448 1 1v2c0 .552-.448 1-1 1h-2c-.552 0-1-.448-1-1v-2c0-.552.448-1 1-1v-1.5c0-1.103.897-2 2-2h2v-1.5c-.552 0-1-.448-1-1v-2c0-.552.448-1 1-1h2c.552 0 1 .448 1 1v2c0 .552-.448 1-1 1v1.5h2c1.103 0 2 .897 2 2v1.5c.552 0 1 .448 1 1zm-13.5-18c-.828 0-1.5.672-1.5 1.5s.672 1.5 1.5 1.5 1.5-.672 1.5-1.5-.672-1.5-1.5-1.5zm4 0c-.828 0-1.5.672-1.5 1.5s.672 1.5 1.5 1.5 1.5-.672 1.5-1.5-.672-1.5-1.5-1.5zm15.5 2v12c0 1.817-.987 3.493-2.578 4.375-.473.265-1.09.098-1.359-.39-.268-.483-.093-1.092.391-1.359.954-.529 1.547-1.535 1.547-2.625v-8h-20.001v8c0 1.09.593 2.096 1.547 2.625.483.268.658.876.391 1.359-.268.483-.878.658-1.359.39-1.591-.881-2.578-2.558-2.578-4.375v-12c-.001-2.757 2.242-5 4.999-5h14c2.757 0 5 2.243 5 5zm-2 2v-2c0-1.654-1.346-3-3-3h-14c-1.654 0-3 1.346-3 3v2z"/></svg>