<svg id="Layer_1" viewBox="0 0 24 24" xmlns="http://www.w3.org/2000/svg" data-name="Layer 1"><path d="m13.793 1.707c-.391-.391-.391-1.023 0-1.414s1.023-.391 1.414 0l2.324 2.324c.391.391.391 1.023 0 1.414s-1.023.391-1.414 0zm-.59 5.09c.391.391 1.023.391 1.414 0 .391-.39.391-1.023 0-1.414l-3.391-3.391c-.391-.391-1.023-.391-1.414 0-.391.39-.391 1.023 0 1.414zm-5.586 5.734c.391.391 1.023.391 1.414 0s.391-1.023 0-1.414l-2.324-2.324c-.391-.391-1.023-.391-1.414 0s-.391 1.023 0 1.414zm2.779-2.927c.391.391 1.023.391 1.414 0 .391-.39.391-1.023 0-1.414l-3.391-3.391c-.391-.391-1.023-.391-1.414 0-.391.39-.391 1.023 0 1.414zm11.665-7.366c-.507-.511-1.181-.888-1.973-1.109-.674-.188-1.16.639-.668 1.135l1.313 1.324c.923.931 1.367 2.205 1.379 3.61l-1.974-1.975c-.391-.391-1.023-.391-1.414 0-.391.39-.391 1.023 0 1.414l3.001 3.002c-.209.663-.502 1.326-.875 1.976l-3.58-3.58c-.391-.391-1.023-.391-1.414 0s-.391 1.023 0 1.414l3.831 3.831c-.204.241-.417.479-.645.709-.241.243-.492.469-.747.686l-3.832-3.832c-.391-.391-1.023-.391-1.414 0s-.391 1.023 0 1.414l3.588 3.588c-.649.374-1.32.669-2 .878l-2.999-3c-.391-.391-1.023-.391-1.414 0-.391.39-.391 1.023 0 1.414l1.94 1.941c-1.382-.039-2.584-.505-3.455-1.384l-1.446-1.458c-.498-.502-1.341-.004-1.137.673.118.391.281.75.469 1.081l-6.302 6.303c-.391.391-.391 1.023 0 1.414s1.023.391 1.414 0l6.194-6.194c1.205.978 2.73 1.489 4.433 1.489.458 0 .929-.037 1.409-.111 2.37-.368 4.725-1.628 6.629-3.55 4.048-4.083 4.805-9.961 1.69-13.103z"/></svg>