<svg id="Layer_1" viewBox="0 0 24 24" xmlns="http://www.w3.org/2000/svg" data-name="Layer 1"><path d="m4 15h4v2.631c-.165.232-.448.369-.742.369h-.515c-.359 0-.712-.196-.839-.531-.214-.566-.762-.969-1.403-.969-.593 0-1.106.344-1.349.844-.208.426-.695.645-1.143.488-.859-.301-1.539-.981-1.84-1.84-.157-.448.062-.935.488-1.143.5-.243.844-.756.844-1.349 0-.641-.402-1.189-.969-1.403-.336-.127-.531-.48-.531-.839-.005-.363.191-.726.531-.854.566-.214.969-.762.969-1.403s-.402-1.189-.969-1.403c-.341-.129-.537-.491-.531-.854 0-.359.196-.712.531-.839.566-.214.969-.762.969-1.403 0-.593-.344-1.106-.844-1.349-.427-.21-.646-.698-.489-1.145.301-.859.981-1.539 1.84-1.84.448-.157.935.062 1.143.488.243.5.756.844 1.349.844.641 0 1.189-.403 1.403-.969.127-.336.48-.531.839-.531h.515c.359 0 .712.196.839.531.214.566.762.969 1.403.969.593 0 1.106-.344 1.349-.844.208-.426.695-.645 1.143-.488.859.301 1.539.981 1.84 1.84.157.448-.062.935-.488 1.143-.351.171-.617.479-.749.849h-1.595c0-.552-.448-1-1-1h-5.999c-.552 0-1 .448-1 1v10c0 .552.448 1 1 1zm18.5 0c0 .641.402 1.189.969 1.403.341.129.537.491.531.854 0 .359-.196.712-.531.839-.566.215-.969.762-.969 1.403 0 .593.344 1.106.844 1.349.426.208.645.695.488 1.143-.301.859-.981 1.539-1.84 1.84-.448.157-.935-.062-1.143-.488-.243-.5-.756-.844-1.349-.844-.641 0-1.189.402-1.403.969-.127.336-.48.531-.839.531h-.515c-.359 0-.712-.196-.839-.531-.214-.566-.762-.969-1.403-.969-.593 0-1.106.344-1.349.844-.208.426-.695.645-1.143.488-.859-.301-1.539-.981-1.84-1.84-.157-.448.062-.935.488-1.143.5-.243.844-.756.844-1.349 0-.641-.402-1.189-.969-1.403-.336-.127-.531-.48-.531-.839-.005-.363.191-.726.531-.854.566-.214.969-.762.969-1.403s-.402-1.189-.969-1.403c-.336-.127-.531-.48-.531-.839-.005-.363.191-.726.531-.854.566-.214.969-.762.969-1.403 0-.593-.344-1.106-.844-1.349-.426-.208-.645-.695-.488-1.143.301-.859.981-1.539 1.84-1.84.448-.157.935.062 1.143.488.243.5.756.844 1.349.844.641 0 1.189-.403 1.403-.969.127-.336.48-.531.839-.531h.515c.359 0 .712.196.839.531.214.566.762.969 1.403.969.593 0 1.106-.344 1.349-.844.208-.426.695-.645 1.143-.488.859.301 1.539.981 1.84 1.84.157.448-.062.935-.488 1.143-.5.243-.844.756-.844 1.349 0 .641.402 1.189.969 1.403.341.129.537.491.531.854 0 .359-.196.712-.531.839-.566.215-.969.762-.969 1.403zm-1.5-5c0-.552-.448-1-1-1h-6c-.552 0-1 .448-1 1v10c0 .552.448 1 1 1h6c.552 0 1-.448 1-1z"/></svg>