<?xml version="1.0" encoding="UTF-8"?>
<svg xmlns="http://www.w3.org/2000/svg" id="Layer_1" data-name="Layer 1" viewBox="0 0 24 24">
  <path d="M24,7.5c-.007-1.337-.535-2.591-1.487-3.531l-2.56-2.527c-1.96-1.933-5.128-1.915-7.062,.037L1.449,12.954c-1.935,1.872-1.916,5.226,.037,7.078h0l2.56,2.526c1.957,1.932,5.126,1.917,7.062-.037l11.442-11.475c.942-.95,1.456-2.209,1.449-3.547Zm-11.974,11.269l-6.828-6.743,6.776-6.795,6.828,6.743-6.776,6.795Zm-6.575,2.366l-2.56-2.526c-1.171-1.108-1.182-3.124-.024-4.244l.919-.921,6.827,6.743-.923,.925c-1.166,1.175-3.064,1.183-4.239,.023Zm15.682-11.499l-.918,.921L13.386,3.814l.923-.926c1.164-1.174,3.063-1.182,4.239-.023l2.56,2.527c1.171,1.11,1.183,3.123,.024,4.245Zm2.533,5.004c.705,1.83,.271,3.916-1.107,5.312l-2.526,2.56c-.96,.972-2.245,1.489-3.558,1.489-.619,0-1.243-.115-1.843-.353-.514-.203-.765-.784-.562-1.298,.204-.515,.786-.763,1.298-.562,1.121,.441,2.394,.175,3.24-.683l2.526-2.559c.827-.839,1.088-2.091,.664-3.189-.198-.516,.059-1.094,.574-1.293,.513-.195,1.094,.058,1.293,.574ZM.334,9.359C-.371,7.529,.063,5.443,1.441,4.047L3.968,1.487C5.379,.057,7.496-.391,9.368,.351c.514,.203,.765,.784,.562,1.298-.203,.514-.785,.764-1.298,.562-1.123-.444-2.395-.175-3.24,.683l-2.526,2.559c-.827,.838-1.088,2.09-.664,3.189,.198,.515-.059,1.094-.574,1.292-.502,.198-1.094-.053-1.293-.574Zm10.166-.359c0-.828,.672-1.5,1.5-1.5s1.5,.672,1.5,1.5-.672,1.5-1.5,1.5-1.5-.672-1.5-1.5Zm6,3c0,.828-.672,1.5-1.5,1.5s-1.5-.672-1.5-1.5,.672-1.5,1.5-1.5,1.5,.672,1.5,1.5Zm-6,0c0,.828-.672,1.5-1.5,1.5s-1.5-.672-1.5-1.5,.672-1.5,1.5-1.5,1.5,.672,1.5,1.5Zm3,3c0,.828-.672,1.5-1.5,1.5s-1.5-.672-1.5-1.5,.672-1.5,1.5-1.5,1.5,.672,1.5,1.5Z"/>
</svg>
