<svg id="Layer_1" viewBox="0 0 24 24" xmlns="http://www.w3.org/2000/svg" data-name="Layer 1"><path d="m20 10c0 .375-.021.745-.061 1.109-.061.548-.549.943-1.104.885-.549-.061-.945-.555-.885-1.104.032-.292.049-.59.049-.891 0-4.411-3.589-8-8-8s-7.999 3.59-7.999 8.001c0 1.826.631 3.611 1.776 5.027.348.43.281 1.059-.148 1.406-.426.346-1.058.283-1.406-.148-1.433-1.77-2.222-4.003-2.222-6.285 0-5.514 4.486-10 10-10s10 4.486 10 10zm-13 1h3c.553 0 1-.447 1-1v-4c0-.553-.447-1-1-1s-1 .447-1 1v3h-2c-.553 0-1 .447-1 1s.447 1 1 1zm16 7v-1c0-.553-.447-1-1-1s-1 .447-1 1v4c0 .553.447 1 1 1s1-.447 1-1v-1c.553 0 1-.447 1-1s-.447-1-1-1zm-15-2c-.553 0-1 .447-1 1v1c-.553 0-1 .447-1 1s.447 1 1 1v1c0 .553.447 1 1 1s1-.447 1-1v-4c0-.553-.447-1-1-1zm11-2c-.553 0-1 .447-1 1v3h-6v-3c0-.553-.447-1-1-1s-1 .447-1 1v8c0 .553.447 1 1 1s1-.447 1-1v-3h6v3c0 .553.447 1 1 1s1-.447 1-1v-8c0-.553-.447-1-1-1z"/></svg>