<svg id="Layer_1" viewBox="0 0 24 24" xmlns="http://www.w3.org/2000/svg" data-name="Layer 1"><path d="m15 14c-.553 0-1 .447-1 1v1h-12v-11c0-1.654 1.346-3 3-3h5c.552 0 1-.447 1-1s-.448-1-1-1h-5c-2.757 0-5 2.243-5 5v14c0 2.757 2.243 5 5 5h6c2.757 0 5-2.243 5-5v-4c0-.553-.447-1-1-1zm-4 8h-6c-1.654 0-3-1.346-3-3v-1h12v1c0 1.654-1.346 3-3 3zm-1-2c0 .553-.448 1-1 1h-2c-.552 0-1-.447-1-1s.448-1 1-1h2c.552 0 1 .447 1 1zm1-11c.552 0 1 .448 1 1s-.448 1-1 1h-1l-1.911 2.421c-.195.357-.569.579-.975.579-.426.066-.808-.317-.644-.74l.879-2.26h-1.001c-.442 0-.862-.195-1.147-.533l-1.096-1.3c-.297-.52.078-1.167.677-1.167.207 0 .405.082.551.228l1.11.772h.923l-.891-2.258c-.163-.411.2-.802.622-.742.407 0 .781.222.975.579l1.929 2.421h1zm7-9c-3.309 0-6 2.691-6 6s2.691 6 6 6 6-2.691 6-6-2.691-6-6-6zm0 10c-2.206 0-4-1.794-4-4s1.794-4 4-4 4 1.794 4 4-1.794 4-4 4zm2.706-5.659c.391.391.393 1.023.003 1.415l-1.68 1.687c-.376.388-.89.606-1.438.607h-.004c-.546 0-1.059-.217-1.444-.612l-.859-.88c-.386-.395-.378-1.027.018-1.414.396-.385 1.028-.379 1.414.018l.859.88 1.716-1.697c.392-.389 1.023-.393 1.415-.003z"/></svg>