<svg id="Layer_1" viewBox="0 0 24 24" xmlns="http://www.w3.org/2000/svg" data-name="Layer 1"><path d="m12 0c-6.617 0-12 5.383-12 12s5.383 12 12 12 12-5.383 12-12-5.383-12-12-12zm4.662 3.16c-.539-.101-1.094-.16-1.662-.16-4.411 0-8 3.589-8 8 0 3.309 2.691 6 6 6 2.757 0 5-2.243 5-5 .01-2.229-1.795-4-4-4-1.105 0-2 .895-2 2s.895 2 2 2c.738 0 1.376-.404 1.722-.999.172.295.278.634.278.999 0 1.654-1.346 3-3 3-2.206 0-4-1.794-4-4 0-3.309 2.691-6 6-6 3.618 0 6.604 2.76 6.964 6.285.017.237.036.474.036.715 0 1.496-.34 2.911-.931 4.187-1.26.35-2.818.876-3.412 1.47-.413.413-.772 1.2-1.056 2.007-.357 1.013-1.501 1.491-2.467 1.021-.785-.382-1.581-.685-2.134-.685-.578 0-1.38.297-2.146.662-.967.461-2.105-.011-2.462-1.02-.284-.8-.64-1.577-1.049-1.986s-1.186-.765-1.986-1.049c-1.009-.358-1.481-1.496-1.02-2.462.365-.766.662-1.567.662-2.146s-.297-1.38-.662-2.146c-.461-.967.01-2.105 1.02-2.462.8-.284 1.577-.64 1.986-1.049.609-.609 1.145-2.185 1.494-3.424 1.269-.584 2.676-.919 4.163-.919 1.683 0 3.268.422 4.662 1.16z"/></svg>