<svg id="Layer_1" viewBox="0 0 24 24" xmlns="http://www.w3.org/2000/svg" data-name="Layer 1"><path d="m20.5 0h-1c-1.93 0-3.5 1.57-3.5 3.5v8.285c0 2.16-1.583 4.003-3.604 4.196-1.146.108-2.243-.253-3.086-1.021-.833-.758-1.31-1.836-1.31-2.961v-8.499c0-1.93-1.57-3.5-3.5-3.5h-1c-1.93 0-3.5 1.57-3.5 3.5v8.137c-.005 6.778 5.436 12.363 12.003 12.363 3.165 0 6.141-1.214 8.403-3.435 2.317-2.275 3.594-5.316 3.594-8.563v-8.502c0-1.93-1.57-3.5-3.5-3.5zm-1 2h1c.827 0 1.5.673 1.5 1.5v1.5h-4v-1.5c0-.827.673-1.5 1.5-1.5zm-16 0h1c.827 0 1.5.673 1.5 1.5v1.5h-4v-1.5c0-.827.673-1.5 1.5-1.5zm15.505 17.139c-1.93 1.895-4.465 2.914-7.193 2.861-5.41-.099-9.812-4.747-9.812-10.363v-4.637h4v5c0 1.687.716 3.305 1.964 4.44 1.248 1.134 2.929 1.694 4.622 1.531 3.036-.289 5.414-3.007 5.414-6.187v-4.785h4v5.002c0 2.706-1.063 5.24-2.995 7.137zm-10.068-14.917 1.332-3.727c.106-.297.388-.495.703-.495h1.617c.411 0 .692.415.539.796l-.682 1.704h2c.484 0 .825.537.557.94l-3.606 4.433c-.065.08-.163.127-.266.127-.232 0-.397-.225-.328-.446l.791-2.554h-2.064c-.415 0-.713-.38-.593-.778z"/></svg>