<svg id="Layer_1" viewBox="0 0 24 24" xmlns="http://www.w3.org/2000/svg" data-name="Layer 1"><path d="m19 2h-1v-1c0-.553-.448-1-1-1s-1 .447-1 1v1h-8v-1c0-.553-.448-1-1-1s-1 .447-1 1v1h-1c-2.757 0-5 2.243-5 5v12c0 2.757 2.243 5 5 5 .552 0 1-.447 1-1s-.448-1-1-1c-1.654 0-3-1.346-3-3v-9h20v3c0 .553.448 1 1 1s1-.447 1-1v-6c0-2.757-2.243-5-5-5zm-17 6v-1c0-1.654 1.346-3 3-3h14c1.654 0 3 1.346 3 3v1zm22 8.838c0 .442-.358.8-.8.8h-.95v5.601c0 .442-.358.8-.8.8s-.8-.358-.8-.8v-5.601h-.851c-.442 0-.8-.358-.8-.8s.358-.8.8-.8h3.4c.442 0 .8.358.8.8zm-14.034-.8c-1.269 0-2.3 1.031-2.3 2.3v3.4c0 1.269 1.031 2.3 2.3 2.3s2.3-1.031 2.3-2.3v-3.4c0-1.269-1.031-2.3-2.3-2.3zm.7 5.7c0 .386-.314.7-.7.7s-.7-.314-.7-.7v-3.4c0-.386.314-.7.7-.7s.7.314.7.7zm4.433-3.168v2.936c0 .479.361.898.838.93.375.025.705-.181.863-.489.132-.258.409-.409.699-.409.606 0 .99.647.703 1.182-.414.772-1.222 1.3-2.155 1.318-1.401.027-2.548-1.154-2.548-2.556v-2.887c0-1.402 1.147-2.582 2.548-2.556.933.018 1.741.546 2.155 1.318.287.534-.097 1.182-.703 1.182-.29 0-.567-.151-.699-.409-.158-.308-.488-.514-.863-.489-.478.032-.838.451-.838.93z"/></svg>