<svg id="Layer_1" viewBox="0 0 24 24" xmlns="http://www.w3.org/2000/svg" data-name="Layer 1"><path d="m15 22.5v.5c0 .552-.447 1-1 1s-1-.448-1-1v-.5c0-3.033-2.468-5.5-5.5-5.5s-5.5 2.467-5.5 5.5v.5c0 .552-.447 1-1 1s-1-.448-1-1v-.5c0-4.136 3.364-7.5 7.5-7.5s7.5 3.364 7.5 7.5zm-2-18c0-2.481 2.019-4.5 4.5-4.5s4.5 2.019 4.5 4.5-2.019 4.5-4.5 4.5-4.5-2.019-4.5-4.5zm2 0c0 1.378 1.121 2.5 2.5 2.5s2.5-1.122 2.5-2.5-1.121-2.5-2.5-2.5-2.5 1.122-2.5 2.5zm2 6.5c-1.23 0-2.441.324-3.501.937-.478.277-.642.889-.364 1.367.274.478.886.642 1.366.365.756-.438 1.62-.668 2.499-.668 2.757 0 5 2.243 5 5v1c0 .552.447 1 1 1s1-.448 1-1v-1c0-3.86-3.141-7-7-7zm-14-2.5v-5.777c0-.296.167-.556.434-.681.247-.112.538-.096.729.04.032.023 1.303 1.717 1.303 1.717l1.223-1.474c.455-.456 1.154-.466 1.579-.045l1.284 1.516 1.101-1.546c.218-.267.547-.359.848-.252.304.109.498.386.498.706v5.795c0 2.481-2.019 4.5-4.5 4.5s-4.5-2.019-4.5-4.5zm2 0c0 1.378 1.121 2.5 2.5 2.5s2.5-1.122 2.5-2.5v-.5h-5z"/></svg>