<svg id="Layer_1" viewBox="0 0 24 24" xmlns="http://www.w3.org/2000/svg" data-name="Layer 1"><path d="m8.235 3.595c-.213-.181-.291-.476-.194-.738.096-.262.346-.437.626-.437h2.001l.708-1.987c.097-.261.346-.434.625-.434s.528.173.625.434l.708 1.987h2.001c.28 0 .53.175.626.438s.017.558-.197.739l-1.577 1.285.652 1.987c.089.269-.001.565-.226.738s-.534.185-.771.031l-1.836-1.196-1.805 1.208c-.235.157-.544.149-.771-.021s-.321-.464-.236-.734l.627-2.011-1.585-1.29zm11.765-2.595v22c0 .552-.447 1-1 1s-1-.448-1-1v-1h-12v1c0 .552-.447 1-1 1s-1-.448-1-1v-22c0-.552.447-1 1-1s1 .448 1 1v9h12v-9c0-.552.447-1 1-1s1 .448 1 1zm-14 11v3h12v-3zm12 8v-3h-12v3z"/></svg>