<svg id="Layer_1" viewBox="0 0 24 24" xmlns="http://www.w3.org/2000/svg" data-name="Layer 1"><path d="m22 18.184v-7.184c0-2.283-1.542-4.274-3.751-4.842-.528-.136-1.08.184-1.218.719s.185 1.08.72 1.217c1.324.341 2.249 1.536 2.249 2.906v7h-4.5c-.266 0-.52.105-.707.293l-.707.707h-4.172l-.707-.707c-.188-.188-.441-.293-.707-.293h-4.5v-7c0-1.37.925-2.565 2.249-2.906.535-.137.857-.683.72-1.217-.138-.535-.688-.855-1.218-.719-2.209.568-3.751 2.559-3.751 4.842v7.184c-1.161.414-2 1.514-2 2.816 0 1.654 1.346 3 3 3h18c1.654 0 3-1.346 3-3 0-1.302-.839-2.402-2-2.816zm-1 3.816h-18c-.552 0-1-.449-1-1s.448-1 1-1h5.086l.707.707c.188.188.441.293.707.293h5c.266 0 .52-.105.707-.293l.707-.707h5.086c.552 0 1 .449 1 1s-.448 1-1 1zm-13.941-8.616c.031.275.166.529.362.725.492.492 1.29.492 1.781 0l1.073-1.073h.725v.963c0 .552.447 1 1 1s1-.448 1-1v-.963h.738l1.073 1.073c.492.492 1.29.492 1.781 0l.005-.005c.196-.196.332-.45.362-.726.182-1.655-.242-3.31-1.476-4.59-.155-2.507-.871-5.057-2.256-8.005-.136-.288-.37-.52-.649-.649-.179-.084-.357-.133-.559-.133-.189 0-.32.023-.474.078-.338.121-.62.377-.774.704-1.377 2.929-2.091 5.466-2.251 8.003-1.239 1.294-1.644 2.955-1.461 4.599zm4.94-10.438c.924 2.229 1.405 4.201 1.501 6.091v2h-3v-1.951c.093-1.933.574-3.911 1.499-6.14z"/></svg>