<svg id="Layer_1" viewBox="0 0 24 24" xmlns="http://www.w3.org/2000/svg" data-name="Layer 1"><path d="m14.661 20.896c.414.365.454.997.089 1.411-.948 1.076-2.315 1.693-3.75 1.693h-6c-2.757 0-5-2.243-5-5v-14c0-2.757 2.243-5 5-5h6c2.757 0 5 2.243 5 5 0 .553-.447 1-1 1s-1-.447-1-1c0-1.654-1.346-3-3-3h-6c-1.654 0-3 1.346-3 3v11h4c.553 0 1 .447 1 1s-.447 1-1 1h-4v1c0 1.654 1.346 3 3 3h6c.861 0 1.681-.37 2.25-1.016.365-.416.997-.454 1.411-.089zm-5.661-1.896h-2c-.553 0-1 .447-1 1s.447 1 1 1h2c.553 0 1-.447 1-1s-.447-1-1-1zm14.892-13.55-3.149 6.239.884.476c1.011.542 1.553 1.705 1.316 2.827-.304 1.438-.936 2.887-1.877 4.303-.494.741-1.311 1.157-2.164 1.157-.564.016-1.107-.231-1.624-.451-.005.01-2.946-1.386-4.182-2.234-.616-.422-1.017-1.089-1.101-1.827-.085-.743.158-1.487.666-2.042.809-.885 1.52-1.796 2.112-2.709.744-1.146 2.208-1.524 3.407-.88l.8.431 3.125-6.191c.249-.492.851-.69 1.343-.442.493.249.691.851.442 1.343zm-3.21 8.477-3.447-1.855c-.272-.148-.608-.059-.781.207-.652 1.005-1.431 2.004-2.314 2.971-.25.367-.228.57.092.87.52.357 1.089.695 1.675 1.016.662-.581 1.407-1.276 2.094-1.95.263-.258.714-.049.661.315-.104.706-.367 1.713-.663 2.635.224.093.448.19.672.274.271.1.578.007.732-.222.8-1.205 1.334-2.419 1.585-3.608.054-.254-.075-.528-.306-.652zm-7.285-4.811-.558.322c.074.267.121.544.142.829-.645.965-1.439 1.925-2.312 2.811-.439.446-.669 1.058-.669 1.684v.237c0 .553-.447 1-1 1s-1-.447-1-1v-.642c-.708-.184-1.334-.563-1.835-1.066l-.659.38c-.47.273-1.088.117-1.366-.366-.276-.479-.112-1.09.366-1.366l.657-.379c-.181-.653-.229-1.401-.018-2.13l-.641-.37c-.479-.276-.643-.888-.366-1.366.277-.479.888-.643 1.366-.366l.632.365c.505-.512 1.149-.906 1.864-1.065v-.627c0-.553.447-1 1-1s1 .447 1 1v.633c.712.185 1.349.557 1.849 1.067l.547-.316c.478-.276 1.09-.112 1.366.366s.112 1.09-.366 1.366zm-2.897 1.384c0-.827-.673-1.5-1.5-1.5s-1.5.673-1.5 1.5.673 1.5 1.5 1.5 1.5-.673 1.5-1.5z"/></svg>