<svg id="Layer_1" viewBox="0 0 24 24" xmlns="http://www.w3.org/2000/svg" data-name="Layer 1"><path d="m24 11v8c0 2.757-2.243 5-5 5h-14c-2.757 0-5-2.243-5-5v-14c0-2.757 2.243-5 5-5h7c.552 0 1 .448 1 1s-.448 1-1 1h-7c-1.654 0-3 1.346-3 3v14c0 1.654 1.346 3 3 3h14c1.654 0 3-1.346 3-3v-8c0-.552.448-1 1-1s1 .448 1 1zm-16 8c.552 0 1-.448 1-1v-2h1c.552 0 1-.448 1-1s-.448-1-1-1h-1v-8c0-.552-.448-1-1-1s-1 .448-1 1v8h-1c-.552 0-1 .448-1 1s.448 1 1 1h1v2c0 .552.448 1 1 1zm10-2h-3c-.552 0-1 .448-1 1s.448 1 1 1h3c.552 0 1-.448 1-1s-.448-1-1-1zm0-4h-3c-.552 0-1 .448-1 1s.448 1 1 1h3c.552 0 1-.448 1-1s-.448-1-1-1zm6-7c0-1.105-.895-2-2-2v4c1.105 0 2-.895 2-2zm-9.5-3h.229l3.021-2.283c.661-.365 1.177-.216 1.426-.096.259.082.816.635.824 1.342l-.015 8.164c-.291 1.046-.627 1.202-1.401 1.302-.254.008-.665-.099-.956-.309l-2.778-2.12h-.351c-1.378 0-2.5-1.122-2.5-2.5v-1c0-1.378 1.122-2.5 2.5-2.5zm-.5 3.5c0 .276.224.5.5.5h1.026l2.474 1.888v-5.862l-2.597 1.974h-.903c-.276 0-.5.224-.5.5z"/></svg>