<svg id="Layer_1" viewBox="0 0 24 24" xmlns="http://www.w3.org/2000/svg" data-name="Layer 1"><path d="m19 2h-1v-1c0-.552-.447-1-1-1s-1 .448-1 1v1h-8v-1c0-.552-.447-1-1-1s-1 .448-1 1v1h-1c-2.757 0-5 2.243-5 5v12c0 2.282 1.542 4.273 3.751 4.843.52.137 1.082-.18 1.218-.72.138-.534-.185-1.08-.72-1.218-1.324-.341-2.249-1.535-2.249-2.905v-9h20v3c0 .553.447 1 1 1s1-.447 1-1v-6c0-2.757-2.243-5-5-5zm-17 6v-1c0-1.654 1.346-3 3-3h14c1.654 0 3 1.346 3 3v1zm15.805 8.808v4.931c0 1.348-1.164 2.427-2.539 2.288-1.197-.122-2.06-1.22-2.06-2.422v-4.796c0-.442.358-.8.8-.8s.8.358.8.8v4.931c0 .386.314.7.7.7s.7-.314.7-.7v-4.931c0-.442.358-.8.8-.8s.8.358.8.8zm-8.281-.77c-.873-.001-1.575.717-1.742 1.581l-1.165 5.479c-.103.484.266.939.76.939.365 0 .68-.253.759-.61l.175-.79h2.379l.165.782c.076.36.393.617.761.617.509.026.911-.437.804-.937l-1.142-5.435c-.19-.937-.859-1.621-1.753-1.627zm-.86 5 .686-3.104c.03-.149.105-.253.176-.296l.017.006c.024.016.121.118.168.349l.641 3.044h-1.688zm15.336-.7v1.201c0 1.365-1.093 2.474-2.452 2.5-1.401.027-2.548-1.154-2.548-2.556v-2.887c0-1.402 1.147-2.582 2.548-2.556.933.018 1.741.547 2.155 1.318.287.534-.097 1.182-.703 1.182-.29 0-.567-.151-.699-.409-.158-.308-.488-.514-.863-.489-.478.032-.838.451-.838.93v2.968c0 .517.438.933.962.898.478-.032.838-.451.838-.93v-.368h-.101c-.441 0-.799-.358-.799-.799 0-.443.358-.801.799-.801h.901c.441 0 .799.358.799.799z"/></svg>