<svg id="Layer_1" viewBox="0 0 24 24" xmlns="http://www.w3.org/2000/svg" data-name="Layer 1"><path d="m24 16v-8c0-2.757-2.243-5-5-5h-14.586l-2.707-2.707c-.391-.391-1.023-.391-1.414 0s-.391 1.023 0 1.414l6.133 6.133c-.374.527-.487 1.106-.487 1.106l-1.643 6.827c-.151.626.324 1.227.967 1.227.463 0 .864-.319.969-.77l.285-1.23h2.967l.285 1.23c.105.451.506.77.969.77.643 0 1.118-.602.967-1.227l-1.626-6.756s-.182-1.634-1.598-1.95l-2.066-2.066h12.586c1.654 0 3 1.346 3 3v8c0 1.219-.734 2.295-1.827 2.759l-2.265-2.265c1.24-.68 2.092-1.982 2.092-3.494v-2c0-2.206-1.794-4-4-4h-1.5c-.827 0-1.5.673-1.5 1.5v7c0 .827.673 1.5 1.5 1.5h1.086l6.707 6.707c.391.391 1.023.391 1.414 0s.391-1.023 0-1.414l-2.06-2.06c1.431-.895 2.353-2.473 2.353-4.233zm-17.02-3 .906-3.91c.023-.118.203-.118.227 0l.906 3.91zm8.02-4h1c1.103 0 2 .897 2 2v2c0 1.103-.897 2-2 2h-1zm.5 11c0 .552-.447 1-1 1h-9.5c-2.757 0-5-2.243-5-5v-8c0-.421.053-.841.157-1.249.138-.536.69-.857 1.217-.72.535.137.857.682.721 1.217-.062.245-.095.498-.095.751v8c0 1.654 1.346 3 3 3h9.5c.553 0 1 .448 1 1z"/></svg>