<svg id="Layer_1" viewBox="0 0 24 24" xmlns="http://www.w3.org/2000/svg" data-name="Layer 1"><path d="m11.047 17.002c-.344.001-.587-.335-.478-.661l.55-2.338h-1.9c-.385.002-.664-.368-.554-.738l1.391-3.691c.132-.344.463-.571.832-.571h1.628c.373 0 .624.382.476.725l-.758 1.775h2.196c.45-.002.721.497.474.873l-3.46 4.43c-.095.123-.241.196-.397.197zm-3.894-9.59c.466.294 1.084.157 1.38-.309l2.255-3.557c.212-.342.588-.545 1.024-.545.376.015.724.188.941.527l2.925 4.428c-.395.252-.778.496-1.116.712-.528.337-.404 1.141.201 1.304l3.102.837c.409.11.829-.132.94-.54.015-.052.324-1.848.563-3.238.106-.617-.57-1.066-1.097-.729-.279.178-.587.375-.908.579l-2.935-4.443c-.576-.899-1.548-1.436-2.585-1.436-1.168-.034-2.171.542-2.752 1.484l-2.249 3.547c-.296.467-.157 1.084.31 1.38zm16.327 8.72-2.15-3.264c-.303-.46-.924-.588-1.385-.285-.462.304-.589.924-.285 1.385l2.151 3.268c.228.343.25.78.059 1.14-.203.382-.597.62-1.038.62l-5.825.004v-1.197c0-.695-.824-1.06-1.336-.591l-2.403 2.197c-.327.298-.35.806-.052 1.133.036.041 1.379 1.267 2.456 2.25.513.468 1.335.102 1.335-.592v-1.199l5.836-.004c1.171 0 2.241-.644 2.793-1.68.536-1.008.476-2.228-.155-3.183zm-15.473 2.868h-4.847c-.422.001-.813-.233-1.023-.614-.192-.346-.18-.77.035-1.109l2.736-4.352c.329.226.645.444.93.641.513.354 1.202-.071 1.117-.689l-.434-3.166c-.057-.417-.441-.709-.859-.652-.053.006-1.818.418-3.184.737-.606.142-.756.934-.243 1.287.312.215.663.456 1.025.706l-2.78 4.421c-.604.956-.64 2.161-.093 3.145.561 1.015 1.623 1.646 2.78 1.646h4.84c.553-.001 1-.45 1-1.002s-.448-.999-1-.999z"/></svg>