<?xml version="1.0" encoding="UTF-8"?>
<svg xmlns="http://www.w3.org/2000/svg" id="Layer_1" data-name="Layer 1" viewBox="0 0 24 24">
  <path d="M12,12c3.309,0,6-2.691,6-6S15.309,0,12,0,6,2.691,6,6s2.691,6,6,6Zm0-10c2.206,0,4,1.794,4,4s-1.794,4-4,4-4-1.794-4-4,1.794-4,4-4Zm5,18c0,1.105-.895,2-2,2s-2-.895-2-2,.895-2,2-2,2,.895,2,2Zm-6,.951l3.962,3.049h-3.423l-1.757-1.351c-.493-.379-.781-.964-.781-1.586v-2.064c0-.552,.448-1,1-1s1,.448,1,1v1.951Zm11.086,2.674l-.428,.375h-3.034l2.097-1.835c.263-.266,.364-.718,.205-1.08-1.319-2.994-4.989-5.085-8.926-5.085s-7.606,2.091-8.926,5.085c-.159,.362-.058,.814,.254,1.126l2.047,1.789H2.339l-.376-.329c-.938-.936-1.208-2.28-.719-3.393,1.654-3.755,5.977-6.278,10.756-6.278s9.102,2.523,10.756,6.278c.489,1.112,.22,2.457-.67,3.347Z"/>
</svg>
