<svg id="Layer_1" viewBox="0 0 24 24" xmlns="http://www.w3.org/2000/svg" data-name="Layer 1"><path d="m19.5 19c0 .828-.672 1.5-1.5 1.5s-1.5-.672-1.5-1.5.672-1.5 1.5-1.5 1.5.672 1.5 1.5zm4.5-1v2c0 2.206-1.794 4-4 4h-4c-2.206 0-4-1.794-4-4v-2c0-1.474.81-2.75 2-3.444v-1.556c0-2.206 1.794-4 4-4s4 1.794 4 4v1.556c1.19.694 2 1.97 2 3.444zm-8-4h4v-1c0-1.103-.897-2-2-2s-2 .897-2 2zm6 4c0-1.103-.897-2-2-2h-4c-1.103 0-2 .897-2 2v2c0 1.103.897 2 2 2h4c1.103 0 2-.897 2-2zm-11.017 5c-.098.546-.634.904-1.164.803-5.689-1.046-9.819-6.01-9.819-11.803-.004-6.638 5.5-11.998 12.054-11.998 4.959 0 9.323 3.013 11.128 7.634.201.515-.054 1.094-.568 1.295-.501.2-1.094-.048-1.295-.568-1.185-3.035-3.697-5.221-6.73-6.022.688.853 1.457 1.926 2.134 3.185.262.486.079 1.093-.407 1.354-.476.26-1.092.084-1.354-.406-.987-1.835-2.215-3.271-2.96-4.06-.812.862-2.199 2.503-3.223 4.586h4.222c.553 0 1 .448 1 1s-.447 1-1 1h-5.029c-.292.953-.472 1.961-.472 3 0 .98.165 1.982.476 3h1.024c.553 0 1 .448 1 1s-.447 1-1 1h-.229c.317.644.688 1.293 1.122 1.945.307.459.183 1.081-.277 1.387-.454.304-1.079.186-1.387-.277-.68-1.021-1.235-2.04-1.662-3.055h-3.23c1.424 2.469 3.88 4.291 6.844 4.835.543.1.902.621.803 1.164zm-7.63-16h3.225c.787-1.875 1.87-3.475 2.81-4.642-2.569.697-4.728 2.39-6.035 4.642zm-.885 8h3.422c-.259-1.009-.39-2.01-.39-3 0-1.042.157-2.044.403-3h-3.442c-.299.948-.461 1.955-.461 3s.169 2.048.468 3z"/></svg>