<?xml version="1.0" encoding="UTF-8"?>
<svg xmlns="http://www.w3.org/2000/svg" id="Layer_1" data-name="Layer 1" viewBox="0 0 24 24">
  <path d="M8,12c3.309,0,6-2.691,6-6S11.309,0,8,0,2,2.691,2,6s2.691,6,6,6Zm0-10c2.206,0,4,1.794,4,4s-1.794,4-4,4-4-1.794-4-4,1.794-4,4-4Zm1.99,13.211c-.078,.547-.581,.927-1.131,.85-.284-.041-.574-.061-.859-.061-3.309,0-6,2.691-6,6v1c0,.552-.448,1-1,1s-1-.448-1-1v-1c0-4.411,3.589-8,8-8,.379,0,.763,.027,1.141,.081,.547,.078,.927,.584,.85,1.131Zm12.01-1.161v-.051c0-2.206-1.794-4-4-4s-4,1.794-4,4v.051c-1.14,.232-2,1.242-2,2.449v3.5c0,2.206,1.794,4,4,4h4c2.206,0,4-1.794,4-4v-3.5c0-1.207-.86-2.217-2-2.449Zm-4-2.051c1.103,0,2,.897,2,2h-4c0-1.103,.897-2,2-2Zm4,8c0,1.103-.897,2-2,2h-4c-1.103,0-2-.897-2-2v-3.5c0-.276,.224-.5,.5-.5h7c.276,0,.5,.224,.5,.5v3.5Z"/>
</svg>
