<svg id="Layer_1" viewBox="0 0 24 24" xmlns="http://www.w3.org/2000/svg" data-name="Layer 1"><path d="m23 11c.553 0 1-.447 1-1s-.447-1-1-1h-1v-2h1c.553 0 1-.447 1-1s-.447-1-1-1h-1.424c-.504-1.149-1.427-2.072-2.576-2.576v-1.424c0-.553-.447-1-1-1s-1 .447-1 1v1h-2v-1c0-.553-.447-1-1-1s-1 .447-1 1v1h-2v-1c0-.553-.448-1-1-1s-1 .447-1 1v1h-2v-1c0-.553-.448-1-1-1s-1 .447-1 1v1.424c-1.149.504-2.072 1.427-2.576 2.576h-1.424c-.552 0-1 .447-1 1s.448 1 1 1h1v2h-1c-.552 0-1 .447-1 1s.448 1 1 1h1v2h-1c-.552 0-1 .447-1 1s.448 1 1 1h1v2h-1c-.552 0-1 .447-1 1s.448 1 1 1h1.424c.504 1.149 1.427 2.072 2.576 2.576v1.424c0 .553.448 1 1 1s1-.447 1-1v-1h2v1c0 .553.448 1 1 1s1-.447 1-1v-1h2v1c0 .553.447 1 1 1s1-.447 1-1v-1h2v1c0 .553.447 1 1 1s1-.447 1-1v-1.424c1.149-.504 2.072-1.427 2.576-2.576h1.424c.553 0 1-.447 1-1s-.447-1-1-1h-1v-2h1c.553 0 1-.447 1-1s-.447-1-1-1h-1v-2zm-6 9h-10c-1.654 0-3-1.346-3-3v-10c0-1.654 1.346-3 3-3h10c1.654 0 3 1.346 3 3v10c0 1.654-1.346 3-3 3zm-8.159-6.144c-.305.706-1.013 1.209-1.841 1.212-1.109.001-2-.889-2-1.984v-2.099c0-1.094.891-1.985 2-1.985.77.006 1.438.446 1.773 1.081.219.417-.083.919-.554.919-.23 0-.444-.124-.55-.328-.125-.242-.38-.417-.668-.422-.391 0-.749.302-.749.751v2.067c0 .449.358.751.749.751.31-.004.573-.195.689-.455.096-.216.3-.364.536-.364h.05c.441 0 .741.451.566.856zm10.159-4.231v3.459c0 1.094-.891 1.985-2 1.985-1.104-.008-2-.895-2-1.985v-.016h-.001v-3.443c.001-.345.281-.625.626-.625s.625.28.625.625v3.459c0 .394.342.728.75.735.391 0 .749-.302.749-.751v-3.443c.001-.345.281-.625.626-.625s.625.28.625.625zm-7.033-.625h-.967c-.552 0-1 .448-1 1v4.444c0 .345.28.625.625.625s.625-.28.625-.625v-1.471l.717-.003c1.109 0 2.012-.891 2.012-1.985s-.902-1.985-2.012-1.985zm0 2.72-.71.003-.005-1.473h.715c.413 0 .762.336.762.735s-.349.735-.762.735z"/></svg>