<svg id="Layer_1" viewBox="0 0 24 24" xmlns="http://www.w3.org/2000/svg" data-name="Layer 1"><path d="m12 16c-1.474 0-2.75-.81-3.444-2h6.887c-.694 1.19-1.97 2-3.444 2zm9-.365c.351-.427.289-1.057-.138-1.407-.426-.351-1.056-.289-1.407.138-1.363 1.658-3.762 3.635-7.455 3.635s-6.092-1.977-7.455-3.635c-.352-.429-.981-.488-1.407-.138-.427.351-.488.98-.138 1.407 1.637 1.991 4.526 4.365 9 4.365s7.364-2.374 9-4.365zm-20-8.635c.552 0 1-.448 1-1v-1c0-1.654 1.346-3 3-3h1c.552 0 1-.448 1-1s-.448-1-1-1h-1c-2.757 0-5 2.243-5 5v1c0 .552.448 1 1 1zm18-7h-1c-.552 0-1 .448-1 1s.448 1 1 1h1c1.654 0 3 1.346 3 3v1c0 .552.448 1 1 1s1-.448 1-1v-1c0-2.757-2.243-5-5-5zm-13 22h-1c-1.654 0-3-1.346-3-3v-1c0-.553-.448-1-1-1s-1 .447-1 1v1c0 2.757 2.243 5 5 5h1c.552 0 1-.447 1-1s-.448-1-1-1zm17-5c-.552 0-1 .447-1 1v1c0 1.654-1.346 3-3 3h-1c-.552 0-1 .447-1 1s.448 1 1 1h1c2.757 0 5-2.243 5-5v-1c0-.553-.448-1-1-1zm1-6c0 .552-.448 1-1 1h-8.168s-.002 0-.003 0-.002 0-.003 0h-13.826c-.552 0-1-.448-1-1s.448-1 1-1h.842c1.311-2.141 4.464-6 10.158-6s8.847 3.859 10.158 6h.842c.552 0 1 .448 1 1zm-19.745-1h4.288c.706-1.217 2.014-2 3.456-2s2.751.783 3.456 2h4.288c-1.429-1.897-3.881-4-7.745-4s-6.314 2.103-7.745 4z"/></svg>