<svg id="Layer_1" viewBox="0 0 24 24" xmlns="http://www.w3.org/2000/svg" data-name="Layer 1"><path d="m23.707 22.293-5.969-5.969c1.412-1.725 2.262-3.927 2.262-6.324 0-5.514-4.486-10-10-10s-10 4.486-10 10 4.486 10 10 10c2.398 0 4.6-.85 6.324-2.262l5.969 5.969c.391.391 1.023.391 1.414 0s.391-1.023 0-1.414zm-21.707-12.293c0-4.411 3.589-8 8-8s8 3.589 8 8-3.589 8-8 8-8-3.589-8-8zm12-1.908v-2.592c0-.499-.367-.921-.861-.99-.491-.071-.963.235-1.1.714-.236.823-.913 1.276-1.905 1.276h-2.134c-1.654 0-3 1.346-3 3 0 .714.261 1.361.679 1.877l1.817 3.835c.206.478.677.788 1.198.788.932 0 1.564-.95 1.203-1.81l-.801-1.69h1.038c.992 0 1.669.453 1.905 1.276.135.48.616.785 1.1.714.494-.069.86-.491.86-.99v-2.592c.581-.207 1.001-.757 1.001-1.408s-.419-1.201-1-1.408zm-2 2.806c-.548-.259-1.18-.398-1.866-.398h-2.134c-.551 0-1-.449-1-1s.449-1 1-1h2.134c.687 0 1.318-.139 1.866-.398v2.797z"/></svg>