<svg id="Layer_1" viewBox="0 0 24 24" xmlns="http://www.w3.org/2000/svg" data-name="Layer 1"><path d="m14.205 12.295c-.261.261-.667.325-.985.137-.75-.442-1.69-.442-2.44 0-.318.187-.724.123-.985-.137-.356-.356-.295-.959.136-1.219 1.267-.766 2.871-.766 4.138 0 .431.26.492.863.136 1.219zm-2.205.705c-.552 0-1 .448-1 1s.448 1 1 1 1-.448 1-1-.448-1-1-1zm0-5c-1.426 0-2.783.456-3.902 1.3-.39.294-.434.864-.088 1.209.281.28.726.315 1.042.076.845-.639 1.87-.985 2.948-.985s2.103.346 2.948.985c.316.239.762.204 1.042-.076.346-.345.302-.915-.088-1.209-1.119-.844-2.476-1.3-3.902-1.3zm-1.001-1.5c0-.276.224-.5.5-.5h1c.276 0 .5.224.5.5v.58c1.074.142 2.086.52 3 1.102v-1.987c0-.506-.252-.98-.672-1.263l-2.476-1.671c-.515-.348-1.19-.348-1.705 0l-2.476 1.671c-.42.283-.672.757-.672 1.263v1.988c.915-.582 1.926-.961 3-1.103v-.58zm0 14.5h2c.552 0 1-.448 1-1s-.448-1-1-1h-2c-.552 0-1 .448-1 1s.448 1 1 1zm9.001-16v14c0 2.757-2.243 5-5 5h-6c-2.757 0-5-2.243-5-5v-14c0-2.757 2.243-5 5-5h6c2.757 0 5 2.243 5 5zm-2 13h-12v1c0 1.654 1.346 3 3 3h6c1.654 0 3-1.346 3-3zm0-13c0-1.654-1.346-3-3-3h-6c-1.654 0-3 1.346-3 3v11h12z"/></svg>