<?xml version="1.0" encoding="UTF-8"?>
<svg xmlns="http://www.w3.org/2000/svg" id="Layer_1" data-name="Layer 1" viewBox="0 0 24 24">
  <path d="M19,0H5C2.243,0,0,2.243,0,5v14c0,2.757,2.243,5,5,5h14c2.757,0,5-2.243,5-5V5c0-2.757-2.243-5-5-5Zm3,19c0,1.654-1.346,3-3,3H5c-1.654,0-3-1.346-3-3V5c0-1.654,1.346-3,3-3h14c1.654,0,3,1.346,3,3v14Zm-3.83-9.762c-1.432-.662-3.335,.101-3.907,1.534l-2.265,4.534-1.984-2.659c-.38-.452-.971-.692-1.548-.64-.589,.051-1.119,.386-1.44,.939l-2.914,5.592c-.255,.49-.065,1.094,.425,1.349,.479,.253,1.093,.07,1.349-.425l2.762-5.304,3.333,4.469c.329,.496,.8,.89,1.347,1.134,1.432,.661,3.335-.1,3.907-1.534l2.525-5.056c.661-1.471-.094-3.334-1.591-3.933Zm-.224,3.095l-2.526,5.057c-.199,.5-.822,.75-1.311,.53-.473-.171-.742-.824-.557-1.253l2.526-5.057c.199-.499,.82-.751,1.311-.53,.473,.171,.742,.824,.557,1.253Zm-6.946-5.833c0-1.381,1.119-2.5,2.5-2.5s2.5,1.119,2.5,2.5-1.119,2.5-2.5,2.5-2.5-1.119-2.5-2.5Z"/>
</svg>
