<svg id="Layer_1" viewBox="0 0 24 24" xmlns="http://www.w3.org/2000/svg" data-name="Layer 1"><path d="m9.5 13c-.828 0-1.5-.672-1.5-1.5 0-.829.672-1.501 1.5-1.501s1.5.672 1.5 1.5c0 .829-.672 1.501-1.5 1.501zm14.5-1.5c0 1.852-1.446 3.373-3.268 3.492-.892 1.942-2.61 3.834-4.732 4.961v3.047c0 .552-.447 1-1 1s-1-.448-1-1v-2.263c-.648.168-1.317.264-2 .264s-1.352-.096-2-.264v2.263c0 .552-.448 1-1 1s-1-.448-1-1v-3.047c-2.123-1.127-3.841-3.019-4.732-4.961-1.822-.12-3.268-1.64-3.268-3.492 0-1.434.87-2.692 2.15-3.226.823-4.762 4.945-8.274 9.85-8.274s9.027 3.512 9.851 8.274c1.279.534 2.149 1.792 2.149 3.226zm-6.406-4.83c-.212.073-.413.138-.571.219.141.194.905.705 1.062.791.458.244.849.584 1.156.993.17-.145.366-.264.575-.365-.172-.807-.467-1.562-.858-2.253-.453.299-.961.478-1.364.616zm-13.415 1.66c.191.097.372.209.529.343.307-.409.698-.749 1.156-.993.158-.085.922-.596 1.063-.709-.159-.163-.36-.228-.571-.3-.392-.135-.885-.305-1.328-.589-.387.691-.679 1.445-.849 2.249zm17.822 3.17c0-.689-.477-1.272-1.139-1.437-.639.094-.879 1.132-.882 1.143-.107.501-.585.842-1.085.786-.508-.055-.894-.48-.894-.991 0-.668-.335-1.278-.854-1.554-.266-.141-1.185-.755-1.403-.938-.533-.446-.807-1.123-.729-1.811.076-.68.485-1.273 1.097-1.586.463-.243 1.169-.402 1.648-.668-1.459-1.511-3.503-2.442-5.758-2.442s-4.316.938-5.776 2.461c.48.255 1.16.411 1.616.649.61.313 1.02.906 1.096 1.586.077.688-.195 1.364-.729 1.811-.219.184-1.138.798-1.405.939-.518.275-.854.886-.854 1.554 0 .514-.389.944-.9.995-.503.052-.98-.291-1.08-.796-.001-.005-.233-1.004-.847-1.129-.652.172-1.121.748-1.121 1.431 0 .827.673 1.5 1.5 1.5.145.002.283-.045.426-.043.417 0 .799.262.942.667.917 2.597 4.001 5.377 7.131 5.377s6.215-2.78 7.131-5.377c.2-.588.818-.746 1.369-.624.827 0 1.5-.673 1.5-1.5zm-7.5-1.501c-.828 0-1.5.672-1.5 1.5 0 .829.672 1.501 1.5 1.501s1.5-.672 1.5-1.5c0-.829-.672-1.501-1.5-1.501zm-.584 5.001h-3.831c-.506 0-.795.612-.447.98.592.628 1.431 1.02 2.362 1.02s1.77-.392 2.362-1.02c.347-.368.059-.98-.447-.98z"/></svg>