<svg id="Layer_1" viewBox="0 0 24 24" xmlns="http://www.w3.org/2000/svg" data-name="Layer 1"><path d="m12 0c-6.617 0-12 5.383-12 12s5.383 12 12 12 12-5.383 12-12-5.383-12-12-12zm-10 12c0-2.398.85-4.6 2.262-6.324l14.063 14.063c-1.725 1.412-3.927 2.262-6.324 2.262-5.514 0-10-4.486-10-10zm15 3c0 .165-.045.324-.12.466l-2.466-2.466h1.586c.551 0 1 .449 1 1zm-4.262-3.967c-.087.008-.173.017-.259.033l-1.065-1.065h.887c.196 0 .319.106.375.169s.146.198.121.393l-.059.471zm7 7.291-1.438-1.438c.432-.529.699-1.186.699-1.887v-1c0-1.654-1.346-3-3-3h-1.242l.024-.189c.089-.711-.131-1.427-.606-1.964-.474-.538-1.158-.846-1.875-.846h-.543l.125-1h1.117c.552 0 1-.448 1-1s-.448-1-1-1h-1.117c-1.007 0-1.86.753-1.984 1.752l-.156 1.248h-.328l-3.738-3.738c1.725-1.412 3.927-2.262 6.324-2.262 5.514 0 10 4.486 10 10 0 2.398-.85 4.6-2.262 6.324zm-5.981-.324h-4.992c-1.51 0-2.79-1.13-2.977-2.628l-.57-4.562c-.052-.409.011-.817.155-1.194l1.956 1.956.444 3.552c.062.5.489.876.992.876h1.419c-.112-.314-.184-.648-.184-1v-.758l3.758 3.758z"/></svg>