<svg id="Layer_1" viewBox="0 0 24 24" xmlns="http://www.w3.org/2000/svg" data-name="Layer 1"><path d="m22.895 15.618c-.398-2.27-3.959-5.482-8.763-8.189 3.48-1.611 5.875-1.88 6.646-.663.196.312.405.833-.057 1.766-.245.495-.042 1.095.453 1.34.497.247 1.095.042 1.34-.452.837-1.692.437-2.958-.047-3.723-1.726-2.857-6.446-2.035-13.264 2.12.402-3.705 1.386-5.816 2.797-5.816.317 0 .797.074 1.299.71.341.433.97.509 1.404.167s.508-.971.166-1.404c-.759-.963-1.751-1.473-2.869-1.473-3.363-.143-5.118 4.6-4.993 12.333-2.985-2.21-3.778-3.662-3.956-4.413-.146-1.041.195-1.683 1.543-1.9.549-.057.948-.549.892-1.098-.058-.549-.541-.944-1.099-.891-1.261.131-2.247.707-2.854 1.666-.508.802-.655 1.73-.428 2.686.399 2.268 3.959 5.488 8.766 8.188-3.482 1.612-5.879 1.881-6.648.664-.208-.329-.422-.883.119-1.889.262-.486.079-1.093-.407-1.354-.485-.261-1.093-.08-1.354.407-.956 1.778-.554 3.105-.048 3.905.714 1.129 1.856 1.694 3.418 1.694 2.308.139 6.95-1.987 9.846-3.814-.402 3.705-1.386 5.816-2.797 5.816-.315 0-.793-.073-1.291-.701-.343-.433-.973-.505-1.404-.162-.433.343-.506.973-.162 1.405.756.954 1.744 1.458 2.857 1.458 3.363.143 5.119-4.6 4.992-12.333 2.986 2.21 3.778 3.662 3.957 4.413.104.438.049.804-.172 1.154-.178.28-.515.662-1.39.748-.55.054-.951.543-.897 1.093.051.517.485.902.994.902.032 0 .065-.001.099-.005 1.275-.125 2.272-.702 2.884-1.669.508-.802.655-1.73.428-2.686zm-10.461-.618c-.253 0-.479-.156-.568-.393l-.352-.934h-1.983l-.352.932c-.089.236-.315.393-.568.393h-.003c-.425 0-.718-.426-.567-.823l1.788-4.693c.111-.29.389-.482.699-.482s.59.193.7.484l1.772 4.695c.15.397-.143.821-.568.821zm2.831-.618c0 .341-.277.618-.618.618s-.618-.277-.618-.618v-4.763c0-.341.277-.618.618-.618s.618.277.618.618zm-4.737-3.325.53 1.404h-1.064l.535-1.404z"/></svg>