<svg id="Layer_1" viewBox="0 0 24 24" xmlns="http://www.w3.org/2000/svg" data-name="Layer 1"><path d="m14.38 2c.792 0 1.561.232 2.214.668l1.884 1.275c.457.309 1.078.191 1.389-.268.31-.457.189-1.079-.268-1.389l-1.89-1.279c-.989-.659-2.141-1.008-3.329-1.008h-5.88c-1.93 0-3.5 1.57-3.5 3.5v1.76c-2.991 1.362-5 4.395-5 7.741v6c0 2.757 2.243 5 5 5h6c2.757 0 5-2.243 5-5v-6c0-3.346-2.009-6.379-5-7.74v-3.26zm-7.38 1.5c0-.827.673-1.5 1.5-1.5h.5v3h-2zm7 9.5v6c0 1.654-1.346 3-3 3h-6c-1.654 0-3-1.346-3-3v-6c0-2.64 1.643-5.012 4.051-6h3.898c2.408.988 4.051 3.36 4.051 6zm-4.493-.926c-.846-.825-2.168-.826-3.014 0l-.968.947c-1.365 1.364-1.365 3.586 0 4.95.661.661 1.54 1.025 2.475 1.025s1.813-.364 2.475-1.025c1.365-1.364 1.365-3.586-.008-4.958zm-.446 4.484c-.566.566-1.555.566-2.121 0-.585-.585-.585-1.537-.008-2.114l.96-.938c.06-.06.156-.06.217 0l.952.931c.585.585.585 1.537 0 2.122zm11.939-8.558c1.105 0 2 .895 2 2s-.895 2-2 2-2-.895-2-2 .895-2 2-2zm.328 9.11c.11-.265.172-.555.172-.86 0-1.243-1.007-2.25-2.25-2.25s-2.25 1.007-2.25 2.25c0 .766.384 1.44.969 1.846-.596.628-.969 1.471-.969 2.404 0 1.93 1.57 3.5 3.5 3.5s3.5-1.57 3.5-3.5c0-1.643-1.143-3.016-2.672-3.39zm-.828 4.89c-.827 0-1.5-.673-1.5-1.5s.673-1.5 1.5-1.5 1.5.673 1.5 1.5-.673 1.5-1.5 1.5z"/></svg>