<svg id="Layer_1" viewBox="0 0 24 24" xmlns="http://www.w3.org/2000/svg" data-name="Layer 1"><path d="m22 10v-4.354c0-2.22-1.501-4.201-3.649-4.816-.35-.1-.726-.197-1.134-.287-.535-.118-1.073.22-1.193.759-.119.539.221 1.073.76 1.193.365.082.704.168 1.017.258 1.1.315 1.89 1.182 2.123 2.248h-2.922c-.553 0-1 .448-1 1s.447 1 1 1h3v6h-7v-2c0-.552-.448-1-1-1s-1 .448-1 1v2h-7.002v-6.001h3c.552 0 1-.448 1-1s-.448-1-1-1h-2.922c.233-1.065 1.023-1.933 2.123-2.248.334-.096.7-.189 1.095-.275.54-.117.882-.649.765-1.189s-.648-.881-1.189-.765c-.441.096-.85.2-1.223.307-2.149.616-3.65 2.596-3.65 4.816v4.354c-1.105 0-2 .895-2 2v1c0 1.105.895 2 2 2v2c0 1.629.795 3.065 2.004 3.978 0 .008-.004.014-.004.022v.5c0 1.378 1.122 2.5 2.5 2.5 1.207 0 2.217-.86 2.449-2h6.101c.232 1.14 1.242 2 2.449 2 1.379 0 2.5-1.122 2.5-2.5v-.5c0-.008-.004-.014-.004-.022 1.21-.913 2.004-2.349 2.004-3.978v-2c1.105 0 2-.895 2-2v-1c0-1.105-.895-2-2-2zm-5 10h-10c-1.654 0-3-1.346-3-3v-2h2v1c0 .552.448 1 1 1s1-.448 1-1v-1h8v1c0 .552.447 1 1 1s1-.448 1-1v-1h2v2c0 1.654-1.346 3-3 3zm-8.027-15.792 1.332-3.59c.143-.371.499-.616.896-.616h1.754c.402 0 .672.411.513.78l-.959 2.22h1.88c.484-.003.776.535.511.94l-3.285 3.846c-.102.133-.26.211-.428.212-.37.001-.632-.361-.515-.712l.762-2.285h-1.865c-.415.002-.715-.397-.597-.795z"/></svg>