<svg id="Layer_1" viewBox="0 0 24 24" xmlns="http://www.w3.org/2000/svg" data-name="Layer 1"><path d="m16.993 14.897-3.714-2.506c-.773-.521-1.784-.521-2.557 0l-3.714 2.506c-.63.425-1.007 1.135-1.007 1.895v4.922c0 1.262 1.023 2.286 2.286 2.286h7.428c1.262 0 2.286-1.023 2.286-2.286v-4.922c0-.76-.378-1.47-1.007-1.895zm-4.993 8.103c-.552 0-1-.448-1-1s.448-1 1-1 1 .448 1 1-.448 1-1 1zm2.204-2.705c-.261.261-.667.325-.985.137-.75-.442-1.689-.442-2.439 0-.318.187-.725.124-.986-.137-.356-.356-.295-.959.136-1.219 1.267-.766 2.871-.766 4.138 0 .431.26.492.863.136 1.219zm1.787-1.786c-.281.28-.726.315-1.042.076-.845-.639-1.87-.985-2.948-.985s-2.103.346-2.948.985c-.316.239-.762.204-1.042-.076-.346-.345-.302-.915.088-1.209 1.12-.844 2.476-1.3 3.902-1.3s2.783.456 3.902 1.3c.39.294.434.864.088 1.209zm-12.992.733c-.191 0-.385-.055-.556-.169-1.529-1.024-2.443-2.734-2.443-4.573 0-1.546.656-3.03 1.801-4.07.272-.248.405-.594.346-.902-.184-.943-.194-1.916-.033-2.889.546-3.29 3.112-5.903 6.383-6.502 3.59-.657 7.184 1.168 8.734 4.439.141.295.411.502.742.569 3.492.697 6.026 3.79 6.026 7.354 0 2.062-.819 3.983-2.308 5.412-.399.382-1.031.369-1.414-.029-.382-.398-.369-1.032.029-1.414 1.092-1.047 1.692-2.457 1.692-3.968 0-2.614-1.857-4.882-4.417-5.394-.958-.191-1.744-.8-2.158-1.673-1.183-2.493-3.814-3.833-6.568-3.329-2.406.44-4.368 2.439-4.771 4.862-.122.737-.114 1.471.023 2.18.191.99-.178 2.048-.963 2.762-.729.663-1.146 1.607-1.146 2.591 0 1.171.582 2.259 1.557 2.911.459.307.582.928.274 1.387-.192.288-.51.444-.832.444z"/></svg>