<svg id="Layer_1" viewBox="0 0 24 24" xmlns="http://www.w3.org/2000/svg" data-name="Layer 1"><path d="m19.801 4.419c-2.072-2.767-5.363-4.419-8.801-4.419-.553 0-1 .447-1 1s.447 1 1 1c2.812 0 5.503 1.353 7.223 3.647.425.526.959 1.393 1.492 2.353h-2.714c-.553 0-1 .447-1 1s.447 1 1 1h3.756c.682 1.389 1.206 2.629 1.244 3h-1.206c-.502 0-.926.372-.991.869l-.334 2.523c-.197 1.486-1.476 2.607-2.975 2.607h-1.494c-.553 0-1 .447-1 1v1c0 .552-.448 1-1 1h-1v-11.999c0-1.103-.897-2-2-2h-1v-4c0-1.103-.897-2-2-2h-1.184c-.414-1.161-1.514-2-2.816-2-1.655 0-3.001 1.346-3.001 3s1.346 3 3 3c1.302 0 2.402-.839 2.816-2h1.184v4c0 1.103.897 2 2 2h1v12h-3c-.552 0-1-.448-1-1v-4c0-.266-.105-.52-.293-.707l-1.707-1.707v-.77c1.161-.414 2-1.514 2-2.816 0-1.654-1.346-3-3-3s-3 1.346-3 3c0 1.302.839 2.402 2 2.816v1.184c0 .266.105.52.293.707l1.707 1.707v3.586c0 1.654 1.346 3 3 3h6c1.654 0 3-1.346 3-3h.494c2.498 0 4.629-1.867 4.957-4.345l.219-1.655h.33c1.299 0 2-1.03 2-2 0-1.42-2.932-7.014-4.199-8.581zm-16.801-.419c-.552 0-1-.448-1-1s.448-1 1-1 1 .448 1 1-.448 1-1 1zm0 6c.552 0 1 .448 1 1s-.448 1-1 1-1-.448-1-1 .448-1 1-1z"/></svg>