<?xml version="1.0" encoding="UTF-8"?>
<svg xmlns="http://www.w3.org/2000/svg" id="Layer_1" data-name="Layer 1" viewBox="0 0 24 24">
  <path d="M24,11.5c0-1.434-.87-2.692-2.149-3.226C21.027,3.512,16.905,0,12,0,5.096,0,3.124,4.674,1.818,7.767c-.439,1.042-.895,2.121-1.321,2.369-.819,.44-.547,1.772,.379,1.856,.219,.028,3.521,.403,7.257-1.104-.084,.187-.133,.393-.133,.611,0,.828,.672,1.5,1.5,1.5s1.5-.672,1.5-1.5c0-.704-.487-1.291-1.142-1.452,1.728-.967,3.462-2.375,4.955-4.467,.321-.449,.217-1.074-.232-1.395-.448-.319-1.073-.216-1.395,.233-3.204,4.484-7.683,5.447-10.187,5.608,.227-.454,.438-.955,.661-1.483,1.23-2.916,2.762-6.544,8.339-6.544,4.104,0,7.524,3.074,7.954,7.15,.046,.441,.378,.799,.815,.879,.713,.129,1.23,.749,1.23,1.471,0,.827-.673,1.5-1.5,1.5-.088,0-.173-.014-.256-.028-.475-.08-.95,.193-1.113,.652-.293,.829-.817,1.681-1.481,2.452-.357-.259-.715-.526-1.081-.803-1.046-.831-2.143-1.286-3.25-1.273-.472,0-.915,.095-1.319,.282-.404-.187-.848-.282-1.319-.282-1.107-.013-2.204,.443-3.25,1.273-.347,.263-.688,.518-1.028,.766-.411-.481-.783-.988-1.059-1.508-.259-.488-.865-.674-1.352-.414-.488,.259-.674,.865-.414,1.353,.309,.582,.706,1.133,1.141,1.666-.267,.147-.536,.283-.808,.396-.537,.222-.895,.743-.911,1.328-.017,.591,.315,1.139,.847,1.394,.81,.388,1.812,.747,3.654,.747,.16,0,.328-.01,.5-.027v2.027c0,.552,.447,1,1,1s1-.448,1-1v-2.536c.744-.305,1.456-.733,2-1.292,.544,.558,1.256,.987,2,1.292v2.536c0,.552,.447,1,1,1s1-.448,1-1v-2.027c.172,.016,.34,.027,.5,.027,1.842,0,2.845-.359,3.655-.748,.53-.255,.862-.802,.846-1.394-.017-.585-.374-1.106-.91-1.327-.248-.103-.492-.229-.736-.361,.566-.69,1.033-1.426,1.378-2.179,1.822-.12,3.268-1.64,3.268-3.492Zm-7.5,7.5c-.977,0-2.466-.51-3.167-1.332-.338-.397-.824-.625-1.333-.625s-.995,.228-1.332,.624c-.702,.823-2.191,1.333-3.168,1.333-.734,0-1.281-.067-1.714-.166,1.001-.563,1.938-1.274,2.853-1.967,.676-.545,1.395-.885,2.042-.867,.186,0,.353,.035,.492,.103,.525,.257,1.129,.258,1.652,0,.143-.069,.309-.104,.494-.104,.646-.018,1.367,.321,2.042,.867,.914,.693,1.852,1.404,2.853,1.967-.433,.099-.979,.166-1.714,.166Zm-3.5-7.5c0-.828,.672-1.5,1.5-1.5s1.5,.672,1.5,1.5-.672,1.5-1.5,1.5-1.5-.672-1.5-1.5Z"/>
</svg>
