<svg id="Layer_1" viewBox="0 0 24 24" xmlns="http://www.w3.org/2000/svg" data-name="Layer 1"><path d="m24 3v16c0 2.757-2.243 5-5 5h-14c-2.757 0-5-2.243-5-5v-16c0-.552.447-1 1-1s1 .448 1 1c0 1.103.897 2 2 2h3c0 .712.154 1.387.422 2h-3.422c-.732 0-1.409-.212-2-.556v12.556c0 1.654 1.346 3 3 3h14c1.654 0 3-1.346 3-3v-12.556c-.591.344-1.268.556-2 .556h-3.422c.268-.613.422-1.288.422-2h3c1.103 0 2-.897 2-2 0-.552.447-1 1-1s1 .448 1 1zm-15 2c0-1.302.839-2.402 2-2.816v-1.184c0-.552.447-1 1-1s1 .448 1 1v1.184c1.161.414 2 1.514 2 2.816 0 .841-.35 1.599-.909 2.145l2.241 4.855h1.668c.553 0 1 .448 1 1s-.447 1-1 1h-.745l1.653 3.581c.231.501.013 1.095-.489 1.327-.49.23-1.095.017-1.327-.489l-2.04-4.419h-6.104l-2.04 4.419c-.232.506-.837.718-1.327.489-.502-.231-.721-.825-.489-1.327l1.653-3.581h-.745c-.553 0-1-.448-1-1s.447-1 1-1h1.668l2.241-4.855c-.559-.545-.909-1.304-.909-2.145zm3.27 2.973c-.179.032-.361.032-.54 0l-1.859 4.027h4.258zm-1.27-2.973c0 .551.448 1 1 1s1-.449 1-1-.448-1-1-1-1 .449-1 1z"/></svg>