<svg id="Layer_1" viewBox="0 0 24 24" xmlns="http://www.w3.org/2000/svg" data-name="Layer 1"><path d="m12 0c-6.617 0-12 5.383-12 12s5.383 12 12 12 12-5.383 12-12-5.383-12-12-12zm10 12c0 2.397-.85 4.599-2.262 6.324l-4.738-4.738v-3.009l3.371-2c.513-.206.763-.787.558-1.3s-.791-.76-1.3-.557l-3.899 1.58c.473-.455.771-1.091.771-1.799 0-1.381-1.119-2.5-2.5-2.5s-2.5 1.119-2.5 2.5c0 .718.307 1.361.791 1.817l-.935-.374-3.681-3.681c1.725-1.412 3.927-2.262 6.324-2.262 5.514 0 10 4.486 10 10zm-20 0c0-2.398.85-4.6 2.262-6.324l14.062 14.062c-1.725 1.412-3.927 2.262-6.324 2.262-5.514 0-10-4.486-10-10zm9.277 3.52-1.449 1.087.485 1.843c.232.58-.05 1.238-.63 1.47-.566.229-1.239-.044-1.471-.631l-1.131-2.828c-.151-.378-.087-.809.167-1.127l1.7-2.143z"/></svg>