<svg id="Layer_1" viewBox="0 0 24 24" xmlns="http://www.w3.org/2000/svg" data-name="Layer 1"><path d="m12.246 11.127c-.316-.149-.69-.168-1.021-.049-2.795 1.007-5.019 2.282-6.835 3.921h-.006c-1.883 0-3.383 1-4.383 2.415v1.586h1.999l.793.793-1 1 1.414 1.414 1-1 .793.793v2h1.586c1.414-1 2.386-2.5 2.386-4.35 1.622-1.793 2.951-4.106 3.949-6.874v-.002c.105-.292.104-.612 0-.895-.12-.335-.359-.602-.676-.752zm-4.726 7.147-1.703 1.715-1.805-1.806 1.714-1.703c1.285-1.166 2.849-2.141 4.749-2.959-.819 1.893-1.815 3.492-2.955 4.752zm8.48-18.274c-4.411 0-8 3.589-8 8 0 .735.108 1.444.294 2.12.592-.273 1.222-.523 1.866-.766-.101-.436-.16-.888-.16-1.355 0-2.611 1.679-4.832 4.012-5.654-.12 1.978 1.515 3.661 3.488 3.654 1.338 0 2.489-.763 3.078-1.87.885 1.046 1.422 2.395 1.422 3.87 0 3.309-2.691 6-6 6-.465 0-.916-.058-1.351-.159-.242.641-.493 1.269-.769 1.865.677.186 1.385.294 2.12.294 4.411 0 8-3.589 8-8s-3.589-7.999-8-7.999zm1.5 4c-.827 0-1.5-.673-1.5-1.5 0-.17.036-.336.094-.495 1.045.016 2.025.301 2.876.789-.137.687-.744 1.206-1.47 1.206zm-1 7c-.828 0-1.5-.672-1.5-1.5s.672-1.5 1.5-1.5 1.5.672 1.5 1.5-.672 1.5-1.5 1.5z"/></svg>