<svg id="Layer_1" viewBox="0 0 24 24" xmlns="http://www.w3.org/2000/svg" data-name="Layer 1"><path d="m23.093 16.739c-.107-.113-2.322-1.783-2.437-1.882-1.16-1.109-3.126-1.105-4.282.006l-1.464 1.165c-3.198-1.357-5.473-3.638-6.932-6.947l1.158-1.456c.557-.579.863-1.338.863-2.145s-.304-1.559-.857-2.138l-1.797-2.339c-1.075-1.278-3.286-1.322-4.411-.144l-1.15 1.005c-1.151 1.148-1.784 2.702-1.784 4.374 0 7.636 10.126 17.762 17.762 17.762 1.672 0 3.226-.633 4.421-1.833l.91-1.05c1.201-1.152 1.2-3.226 0-4.377zm-1.461 3.014-.911 1.05c-.771.772-1.822 1.197-2.959 1.197-5.989 0-15.762-8.805-15.762-15.762 0-1.138.425-2.188 1.147-2.913l1.15-1.005c.394-.41 1.096-.427 1.509-.038.103.12 1.756 2.314 1.873 2.424.425.408.425 1.141 0 1.548-.085.079-1.557 1.956-1.635 2.045-.224.281-.279.662-.145.995 1.714 4.268 4.682 7.232 8.822 8.812.33.127.702.069.979-.151.083-.073 1.976-1.558 2.045-1.635.413-.414 1.134-.414 1.548 0 .107.115 2.308 1.773 2.424 1.873.403.455.378 1.108-.085 1.559zm-6.632-8.753h3.266c2.921 0 5.507-2.176 5.719-5.09.245-3.355-2.54-6.14-5.895-5.895-2.913.212-5.09 2.798-5.09 5.719v3.266c0 1.105.895 2 2 2zm4-7.514c0-.276.224-.5.5-.5s.5.224.5.5v2c0 .5.5.5.5.5h.5v-2.5c0-.276.224-.5.5-.5s.5.224.5.5v4c0 .276-.224.5-.5.5s-.5-.224-.5-.5v-.5h-.5c-.828 0-1.5-.672-1.5-1.5zm-2.469.501c-.2-.012-.376.093-.467.254-.089.157-.265.245-.446.245-.376 0-.611-.405-.427-.733.269-.478.791-.794 1.384-.765.905.044 1.534.899 1.404 1.795-.117.806-.7 1.244-1.179 1.603-.298.224-.521.398-.654.6h1.354c.276 0 .5.224.5.5s-.224.5-.5.5h-2c-.276 0-.5-.224-.5-.5 0-1 .666-1.499 1.2-1.9.491-.368.777-.605.798-1.045.013-.275-.193-.537-.467-.554z"/></svg>