<svg id="Layer_1" viewBox="0 0 24 24" xmlns="http://www.w3.org/2000/svg" data-name="Layer 1"><path d="m0 2c0-1.105.895-2 2-2 .738 0 1.376.405 1.723 1h1.277c1.654 0 3 1.346 3 3v2c0 .552-.448 1-1 1s-1-.448-1-1v-2c0-.551-.449-1-1-1h-1.277c-.346.595-.984 1-1.723 1-1.105 0-2-.895-2-2zm11 1.723v.277c0 .552.448 1 1 1s1-.448 1-1v-.277c.595-.346 1-.984 1-1.723 0-1.105-.895-2-2-2s-2 .895-2 2c0 .738.405 1.376 1 1.723zm6 3.277c.552 0 1-.448 1-1v-2c0-.551.449-1 1-1h1.277c.346.595.984 1 1.723 1 1.105 0 2-.895 2-2s-.895-2-2-2c-.738 0-1.376.405-1.723 1h-1.277c-1.654 0-3 1.346-3 3v2c0 .552.448 1 1 1zm-1.167 8.362-.982-.565c-.5.51-1.14.876-1.852 1.061v1.142c0 .552-.448 1-1 1s-1-.448-1-1v-1.142c-.712-.185-1.351-.551-1.852-1.061l-.982.565c-.47.273-1.089.115-1.366-.368-.275-.479-.111-1.09.368-1.366l.992-.571c-.094-.339-.16-.689-.16-1.058s.066-.719.16-1.058l-.992-.571c-.479-.276-.643-.887-.368-1.366.276-.479.888-.642 1.366-.368l.982.565c.5-.51 1.14-.876 1.852-1.061v-1.142c0-.552.448-1 1-1s1 .448 1 1v1.142c.712.185 1.351.551 1.852 1.061l.982-.565c.479-.275 1.09-.111 1.366.368s.111 1.09-.368 1.366l-.992.571c.094.339.16.689.16 1.058s-.066.719-.16 1.058l.992.571c.479.276.643.887.368 1.366-.277.483-.896.64-1.366.368zm-1.833-3.362c0-1.103-.897-2-2-2s-2 .897-2 2 .897 2 2 2 2-.897 2-2zm8 8c-.738 0-1.376.405-1.723 1h-1.277c-.551 0-1-.449-1-1v-2c0-.552-.448-1-1-1s-1 .448-1 1v2c0 1.654 1.346 3 3 3h1.277c.346.595.984 1 1.723 1 1.105 0 2-.895 2-2s-.895-2-2-2zm-9 .277v-.277c0-.552-.448-1-1-1s-1 .448-1 1v.277c-.595.346-1 .984-1 1.723 0 1.105.895 2 2 2s2-.895 2-2c0-.738-.405-1.376-1-1.723zm-6-3.277c-.552 0-1 .448-1 1v2c0 .551-.449 1-1 1h-1.277c-.346-.595-.984-1-1.723-1-1.105 0-2 .895-2 2s.895 2 2 2c.738 0 1.376-.405 1.723-1h1.277c1.654 0 3-1.346 3-3v-2c0-.552-.448-1-1-1z"/></svg>