<svg id="Layer_1" viewBox="0 0 24 24" xmlns="http://www.w3.org/2000/svg" data-name="Layer 1"><path d="m23 16h-.346l-.186-1.584c-.297-2.517-2.432-4.416-4.966-4.416h-11.004c-2.534 0-4.669 1.898-4.966 4.416l-.186 1.584h-.346c-.553 0-1 .448-1 1s.447 1 1 1h.346l.186 1.584c.297 2.517 2.432 4.416 4.966 4.416h11.004c2.534 0 4.669-1.898 4.966-4.416l.186-1.584h.346c.553 0 1-.448 1-1s-.447-1-1-1zm-19.481-1.35c.178-1.511 1.459-2.65 2.979-2.65h11.004c1.521 0 2.802 1.139 2.979 2.649l.159 1.351h-17.28zm13.983 7.35h-11.004c-1.521 0-2.802-1.139-2.979-2.649l-.159-1.351h5.86l.121.485c.223.892 1.021 1.515 1.94 1.515h1.438c.92 0 1.718-.623 1.94-1.515l.121-.485h5.86l-.159 1.35c-.178 1.511-1.459 2.65-2.979 2.65zm-9.502-14c1.859 0 3.411-1.28 3.858-3h9.142c.553 0 1-.448 1-1s-.447-1-1-1h-9.142c-.447-1.72-1.999-3-3.858-3-2.061 0-6 1.558-6 4s3.939 4 6 4zm0-6c1.103 0 2 .897 2 2s-.897 2-2 2c-1.495 0-4-1.252-4-2s2.505-2 4-2z"/></svg>