<svg id="Layer_1" viewBox="0 0 24 24" xmlns="http://www.w3.org/2000/svg" data-name="Layer 1"><path d="m0 13c0-.552.447-1 1-1h6c.553 0 1 .448 1 1s-.447 1-1 1h-6c-.553 0-1-.447-1-1zm5 3h-4c-.553 0-1 .447-1 1s.447 1 1 1h4c.553 0 1-.447 1-1s-.447-1-1-1zm-2 4h-2c-.553 0-1 .447-1 1s.447 1 1 1h2c.553 0 1-.447 1-1s-.447-1-1-1zm20.949-12.292-1.429 10c-.35 2.447-2.478 4.293-4.95 4.293h-10.57c-.553 0-1-.447-1-1s.447-1 1-1h10.57c1.483 0 2.761-1.107 2.97-2.576l1.204-8.424h-5.844c-.412 1.172-1.533 2-2.811 2-1.241.014-2.421-.818-2.802-2h-5.571l-.02.143c-.078.547-.583.927-1.132.849-.546-.078-.927-.584-.849-1.131l.366-2.568c.35-2.447 2.478-4.293 4.95-4.293h10.968c1.451 0 2.828.628 3.778 1.725.95 1.095 1.377 2.547 1.172 3.983zm-4.95-3.708h-2.326l-.428 3h5.739c0-.717-.241-1.416-.718-1.965-.569-.658-1.396-1.035-2.267-1.035zm-13.998 3h5.223l.428-3h-2.621c-1.483 0-2.761 1.107-2.97 2.575l-.061.425zm9.058 1.159.594-4.159h-1.979l-.554 3.881c-.098.573.389 1.133.97 1.119.484 0 .901-.362.97-.841zm2.941 9.841c.553 0 1-.447 1-1s-.447-1-1-1h-2c-.553 0-1 .447-1 1s.447 1 1 1z"/></svg>