<svg id="Layer_1" viewBox="0 0 24 24" xmlns="http://www.w3.org/2000/svg" data-name="Layer 1"><g><path d="m18 0h.001z"/><path d="m22.445 2.067-2.587-1.552c-.561-.337-1.203-.515-1.857-.515-.552 0-1.001.448-1.001 1v10c0 .552.448 1 1 1s1-.448 1-1v-5l3.444-2.066c.705-.423.705-1.444 0-1.867z"/></g><circle cx="8.5" cy="2.5" r="2.5"/><path d="m21 14h-3c-1.654 0-3 1.346-3 3v1.171c-.312-.111-.649-.171-1-.171h-3v-2.277c0-.865-.552-1.627-1.373-1.899l-1.331-.44 1.428-5.384h1.222c.543 0 1.077-.148 1.543-.428l2.026-1.215c.474-.284.627-.898.343-1.372-.283-.474-.897-.628-1.372-.343l-2.025 1.215c-.156.093-.334.143-.515.143h-4.637c-1.17 0-2.198.831-2.432 1.926l-.897 3.348c-.266 1.027.16 2.076.988 2.662l-.688 2.064h-2.28c-.552 0-1 .448-1 1s.448 1 1 1h2.279c.862 0 1.625-.549 1.897-1.367l.652-1.957 3.171 1.047v3.058c-.609.549-1 1.337-1 2.22v1h-6.999c-.552 0-1 .448-1 1s.448 1 1 1h8c.552 0 1-.448 1-1v-2c0-.551.449-1 1-1h3c.552 0 1 .449 1 1v2c0 .552.447 1 1 1s1-.448 1-1v-6c0-.551.448-1 1-1h3c.552 0 1 .449 1 1v6c0 .552.447 1 1 1s1-.448 1-1v-6c0-1.654-1.346-3-3-3zm-16.087-2.216.907-3.389c.049-.229.255-.395.489-.395h1.346l-1.262 4.756-1.15-.38c-.25-.083-.393-.346-.33-.592z"/></svg>