<svg id="Layer_1" viewBox="0 0 24 24" xmlns="http://www.w3.org/2000/svg" data-name="Layer 1"><path d="m14.5 13c-.828 0-1.5-.672-1.5-1.5s.672-1.5 1.5-1.5 1.5.672 1.5 1.5-.672 1.5-1.5 1.5zm9.425 5.144c.253 1.457-.148 2.942-1.101 4.074-.952 1.132-2.347 1.781-3.826 1.781h-3.999c-.552 0-1-.448-1-1v-2.262c-.648.168-1.317.264-2 .264-.662 0-1.334-.094-2-.27v2.269c.011.537-.463 1.011-1 1h-3.999c-1.479 0-2.874-.65-3.826-1.782-.951-1.132-1.352-2.617-1.099-4.074l.302-1.74c.241-1.386 1.437-2.413 2.843-2.44 1.003.012 1.929.467 2.494 1.301 1.262 1.859 3.695 3.735 6.286 3.735h.002c3.13 0 6.212-2.779 7.129-5.376.143-.405.541-.674.958-.667l.433.006c.402.008.762-.144 1.042-.419.281-.277.436-.647.436-1.042 0-.726-.518-1.344-1.23-1.474-.437-.08-.769-.438-.816-.879-.43-4.076-3.849-7.15-7.954-7.15-5.577 0-7.108 3.628-8.338 6.544-.223.528-.435 1.03-.662 1.483 2.504-.161 6.983-1.124 10.186-5.608.321-.45.946-.553 1.395-.233.45.321.554.946.233 1.395-1.494 2.091-3.228 3.5-4.955 4.467.654.161 1.141.748 1.141 1.452 0 .828-.672 1.5-1.5 1.5s-1.5-.672-1.5-1.5c0-.218.049-.424.132-.611-3.736 1.507-7.037 1.132-7.256 1.103-.426-.053-.77-.372-.856-.792-.085-.42.106-.849.477-1.064.427-.249.882-1.327 1.322-2.37 1.305-3.091 3.277-7.765 10.181-7.765 4.905 0 9.027 3.512 9.85 8.274 1.279.533 2.149 1.791 2.15 3.223 0 .844-.31 1.628-.853 2.257.007.027.024.047.029.075l.75 4.315zm-15.925 1.797c-1.521-.806-2.91-2.034-3.941-3.554-.181-.267-.471-.424-.781-.424-.006 0-.012 0-.018 0-.452.009-.835.337-.912.782l-.302 1.74c-.152.874.089 1.765.66 2.444s1.408 1.069 2.296 1.069h2.999v-2.059zm13.955-1.455-.628-3.614c-.189.044-.382.075-.579.086-.886 1.954-2.613 3.861-4.748 4.995v2.047h2.999c.888 0 1.725-.39 2.296-1.069s.812-1.57.66-2.445zm-12.317-2.506c.592.628 1.431 1.02 2.362 1.02s1.77-.392 2.362-1.02c.347-.368.059-.98-.447-.98h-3.831c-.506 0-.795.612-.447.98z"/></svg>