<svg id="Layer_1" viewBox="0 0 24 24" xmlns="http://www.w3.org/2000/svg" data-name="Layer 1"><path d="m20 3h-16c-2.206 0-4 1.794-4 4v2.039c0 1.518.568 2.966 1.6 4.079l5.99 6.462c.56.605 1.272 1.016 2.057 1.186.713.155 1.504.234 2.353.234s1.64-.079 2.352-.234c.786-.17 1.498-.581 2.058-1.186l5.991-6.462c1.032-1.112 1.6-2.561 1.6-4.079v-2.039c0-2.206-1.794-4-4-4zm2 4v2.039s-.001.009-.001.013c-1.489.123-2.833.515-3.999 1.148v-5.2h2c1.103 0 2 .897 2 2zm-20 0c0-1.103.897-2 2-2h2v5.205c-1.167-.635-2.509-1.031-3.999-1.154 0-.004-.001-.008-.001-.013v-2.039zm1.066 4.758c-.179-.193-.334-.402-.47-.622 3.463.581 5.741 3.088 6.252 6.86l-5.783-6.238zm7.87 7.185c-.146-3.02-1.192-5.513-2.936-7.247v-6.695h8v6.69c-1.745 1.733-2.791 4.226-2.936 7.253-.69.071-1.437.071-2.128 0zm4.215-.947c.511-3.777 2.786-6.279 6.252-6.859-.136.22-.291.428-.469.621z"/></svg>