<svg id="Layer_1" viewBox="0 0 24 24" xmlns="http://www.w3.org/2000/svg" data-name="Layer 1"><path d="m23.865 20.146c-.304 1.324-1.166 2.48-2.367 3.171-.477.273-1.089.109-1.365-.369-.275-.479-.11-1.09.369-1.365.719-.413 1.234-1.1 1.414-1.884.412-1.795-.76-3.25-2.132-3.62-.532-.122-1.555-.353-2.088-1.633-.704-1.696-2.478-2.691-4.304-2.427-1.58.23-2.896 1.431-3.274 2.986-.146.602-.157 1.205-.031 1.792.209.968-.275 1.916-1.179 2.305-.574.245-1.085.912-.853 1.797.128.482.537.893 1.02 1.02.59.07 1.027.607.906 1.201-.104.546-.645.895-1.175.788-1.277-.238-2.355-1.242-2.685-2.5-.45-1.713.39-3.455 1.997-4.144-.177-.932-.163-1.835.056-2.731.569-2.341 2.551-4.146 4.929-4.493 2.747-.393 5.386 1.099 6.439 3.639.136.324.286.358.587.427 2.693.613 4.366 3.321 3.735 6.041zm-17.174-7.842c-.37-1.202-.2-2.585.469-3.642.8-1.291 2.242-2.157 3.826-2.162 1.544-.011 2.661.804 3.282 1.478.811.869 2.084 1.063 3.147.442l2.689-1.78c.461-.305.587-.925.282-1.386-.306-.461-.926-.588-1.386-.282l-2.641 1.75c-.204.119-.459.076-.63-.108-.186-.199-.398-.405-.641-.608l1.843-3.146c.278-.477.118-1.089-.358-1.368-.475-.28-1.089-.119-1.368.357l-1.823 3.115c-.419-.172-.88-.308-1.384-.387v-3.577c0-.552-.447-1-1-1s-1 .448-1 1v3.58c-.457.074-.901.197-1.326.363l-1.843-3.109c-.282-.477-.896-.632-1.37-.351-.476.282-.632.896-.351 1.37l1.834 3.093c-.348.279-.667.592-.951.934l-3.1-1.814c-.475-.281-1.089-.12-1.368.357-.278.477-.118 1.089.358 1.368l3.078 1.803c-.181.446-.312.917-.387 1.404h-3.572c-.553 0-1 .448-1 1s.447 1 1 1h3.576c.046.298.113.592.201.883.055.183-.06.409-.301.539l-2.709 1.612c-.475.282-.63.896-.348 1.371.285.479.904.627 1.371.348l2.668-1.59c1.047-.559 1.564-1.761 1.232-2.859zm9.394 5.138c.476.511 1.915 2.171 1.915 3.558 0 .801-.313 1.555-.879 2.121s-1.32.879-2.121.879-1.555-.312-2.121-.879c-.566-.566-.879-1.32-.879-2.121 0-1.359 1.437-3.036 1.876-3.518.636-.627 1.61-.626 2.209-.04zm-.085 3.558c0-.33-.478-1.109-1-1.759-.544.679-1 1.458-1 1.759 0 .267.104.518.293.707.379.377 1.035.377 1.414 0 .188-.189.293-.44.293-.707z"/></svg>