<?xml version="1.0" encoding="UTF-8"?>
<svg xmlns="http://www.w3.org/2000/svg" id="Layer_1" data-name="Layer 1" viewBox="0 0 24 24">
  <path d="M2.5,2.5C2.5,1.119,3.619,0,5,0s2.5,1.119,2.5,2.5-1.119,2.5-2.5,2.5-2.5-1.119-2.5-2.5Zm13.207,5.817l2.293-2.352v12.034c0,.553,.448,1,1,1s1-.447,1-1V6.024l2.293,2.293c.195,.195,.451,.293,.707,.293s.512-.098,.707-.293c.391-.391,.391-1.023,0-1.414l-3.335-3.336c-.756-.754-1.988-.755-2.745,0l-3.334,3.335c-.391,.391-.391,1.023,0,1.414s1.023,.391,1.414,0Zm8.293,14.683c0,.553-.448,1-1,1H1c-.552,0-1-.447-1-1s.448-1,1-1h1v-5.556c-1.19-.694-2-1.97-2-3.444v-3c0-2.206,1.794-4,4-4h2c2.206,0,4,1.794,4,4v3c0,1.474-.81,2.75-2,3.444v5.556h15c.552,0,1,.447,1,1ZM2,13c0,1.103,.897,2,2,2h2c1.103,0,2-.897,2-2v-3c0-1.103-.897-2-2-2h-2c-1.103,0-2,.897-2,2v3Zm2,9h2v-5h-2v5Z"/>
</svg>
