<svg id="Layer_1" viewBox="0 0 24 24" xmlns="http://www.w3.org/2000/svg" data-name="Layer 1"><path d="m23 0h-22c-.552 0-1 .448-1 1s.448 1 1 1v11c0 2.757 2.243 5 5 5h5v2.277c-.595.346-1 .984-1 1.723 0 1.105.895 2 2 2s2-.895 2-2c0-.738-.405-1.376-1-1.723v-2.277h5c2.757 0 5-2.243 5-5v-11c.552 0 1-.448 1-1s-.448-1-1-1zm-2 13c0 1.654-1.346 3-3 3h-12c-1.654 0-3-1.346-3-3v-11h18zm-12 1h6c1.654 0 3-1.346 3-3v-3c0-1.654-1.346-3-3-3h-1.862c-.208 0-.409-.064-.579-.185t0 0l-.369-.261c-.51-.362-1.111-.554-1.737-.554h-1.453c-1.654 0-3 1.346-3 3v4c0 1.654 1.346 3 3 3zm7-3c0 .551-.449 1-1 1h-6c-.551 0-1-.449-1-1v-3h8z"/></svg>