<svg id="Layer_1" viewBox="0 0 24 24" xmlns="http://www.w3.org/2000/svg" data-name="Layer 1"><path d="m18 7h-2c-3.309 0-6 2.691-6 6v4c0 3.86 3.141 7 7 7s7-3.14 7-7v-4c0-3.309-2.691-6-6-6zm4 6h-4v-4c2.206 0 4 1.794 4 4zm-6-4v4h-4c0-2.206 1.794-4 4-4zm1 13c-2.757 0-5-2.243-5-5v-2h10v2c0 2.757-2.243 5-5 5zm3.134-18.866.943-1.634c.276-.479.888-.643 1.366-.366s.643.888.366 1.366l-.943 1.634c-.278.482-.897.639-1.366.366-.479-.276-.643-.888-.366-1.366zm-4.134-.134v-2c0-.552.447-1 1-1s1 .448 1 1v2c0 .552-.447 1-1 1s-1-.448-1-1zm-8.5 16.5c.276.478.112 1.09-.366 1.366l-1.634.943c-.47.273-1.088.116-1.366-.366-.276-.478-.112-1.09.366-1.366l1.634-.943c.478-.277 1.09-.112 1.366.366zm-1.5-2.5h-2c-.552 0-1-.448-1-1s.448-1 1-1h2c.552 0 1 .448 1 1s-.448 1-1 1zm5.996-10.915c.061-3.341-2.657-6.088-5.996-6.085-3.314 0-6 2.686-6 6s2.686 6 6 6c.751 0 1.467-.144 2.13-.396.417-2.357 1.866-4.356 3.866-5.519zm-2.695 1.849c-.153 1.08-1.108 1.865-2.199 1.865h-.28v.408c0 .437-.353.792-.79.792h-.02c-.436 0-.789-.356-.789-.792v-.408h-.2c-.711 0-1.348-.325-1.77-.833-.418-.504-.063-1.266.592-1.266.227 0 .51.107.664.274.128.139.312.226.515.226h2.103c.278 0 .532-.187.586-.46.063-.318-.146-.615-.451-.677l-2.791-.559c-1.112-.223-1.888-1.281-1.725-2.439.152-1.08 1.108-1.866 2.199-1.866h.28v-.4c0-.442.358-.8.8-.8s.8.358.8.8v.4h.2c.711 0 1.348.324 1.77.833.418.504.063 1.266-.592 1.266-.227 0-.51-.107-.664-.274-.128-.139-.312-.226-.515-.226h-2.102c-.278 0-.532.186-.587.458-.064.318.146.617.449.678l2.792.559c1.112.222 1.889 1.282 1.725 2.439z"/></svg>