<svg id="Layer_1" viewBox="0 0 24 24" xmlns="http://www.w3.org/2000/svg" data-name="Layer 1"><path d="m19 8v-3.672c0-.801-.312-1.555-.879-2.121l-1.328-1.328c-.566-.566-1.32-.879-2.122-.879h-5.671c-2.206 0-4 1.794-4 4v2c-2.757 0-5 2.243-5 5v8c0 2.757 2.243 5 5 5h14c2.757 0 5-2.243 5-5v-6c0-2.757-2.243-5-5-5zm-12-4c0-1.103.897-2 2-2h5v2c0 .552.448 1 1 1h2v3h-5.028c-.154 0-.31-.036-.448-.105l-3.155-1.578c-.415-.207-.906-.316-1.369-.316v-2zm15 15c0 1.654-1.346 3-3 3h-14c-1.654 0-3-1.346-3-3v-8c0-1.654 1.346-3 3-3h2.028c.154 0 .31.036.447.105l3.155 1.578c.415.207.878.316 1.341.316h7.028c1.654 0 3 1.346 3 3v6zm-6-3c0 .553-.448 1-1 1h-2v2c0 .553-.448 1-1 1s-1-.447-1-1v-2h-2c-.552 0-1-.447-1-1s.448-1 1-1h2v-2c0-.553.448-1 1-1s1 .447 1 1v2h2c.552 0 1 .447 1 1z"/></svg>