<svg id="Layer_1" viewBox="0 0 24 24" xmlns="http://www.w3.org/2000/svg" data-name="Layer 1"><path d="m5.129 5.915c-.875-.875-2.129-1.125-3.274-.651-1.144.474-1.854 1.538-1.854 2.776v10.96c0 2.757 2.243 5 5 5h11.034c1.226 0 2.278-.703 2.748-1.836.469-1.132.222-2.374-.646-3.241zm11.806 15.483c-.059.142-.296.602-.9.602h-11.035c-1.654 0-3-1.346-3-3v-10.96c0-.623.475-.868.62-.928.316-.131.764-.124 1.095.218l13.008 13.008c.428.428.27.921.212 1.062zm7.065-8.035c0 .972-.378 1.885-1.065 2.571-.687.688-1.6 1.065-2.571 1.065s-1.884-.378-2.57-1.065l-9.775-9.966c-1.35-1.295-1.349-3.646.007-4.943 1.119-1.121 2.825-1.322 4.162-.581.561-.292 1.177-.444 1.812-.444 1.896 0 3.489 1.327 3.898 3.102 1.774.409 3.102 2.001 3.102 3.898 0 1.692-1.071 3.208-2.667 3.772-.507.184-1.093-.084-1.276-.61-.184-.521.09-1.092.61-1.276.797-.282 1.333-1.04 1.333-1.886 0-1.103-.897-2-2-2-.553 0-1-.448-1-1 0-1.103-.897-2-2-2-.553 0-.97.235-1.222.433-.382.299-.923.281-1.284-.042-.594-.533-1.497-.51-2.055.049-.583.558-.583 1.563 0 2.121l9.774 9.967c.605.605 1.688.611 2.307-.007.635-.609.636-1.704 0-2.313-.391-.391-.391-1.023 0-1.414.391-.392 1.023-.391 1.414 0 .688.687 1.065 1.6 1.065 2.571z"/></svg>