<svg id="Layer_1" viewBox="0 0 24 24" xmlns="http://www.w3.org/2000/svg" data-name="Layer 1"><path d="m22 23.2c0 .442-.358.8-.8.8h-1.9c-.442 0-.8-.358-.8-.8v-6.4c0-.442.358-.8.8-.8s.8.358.8.8v5.6h1.1c.442 0 .8.358.8.8zm-19.9-16c0 .442-.358.8-.8.8-.442 0-.8-.358-.8-.8v-6.4c0-.442.358-.8.8-.8h1.567c1.284 0 2.456.908 2.613 2.182.12.97-.32 1.841-1.035 2.351l.729 2.395c.162.533-.237 1.072-.794 1.072-.369 0-.694-.244-.797-.598l-.698-2.402h-.784v2.2zm0-3.8h.9c.496 0 .9-.404.9-.9s-.404-.9-.9-.9h-.9zm10.5 14.9v3.4c0 1.269-1.031 2.3-2.3 2.3s-2.3-1.031-2.3-2.3v-3.4c0-1.269 1.031-2.3 2.3-2.3s2.3 1.031 2.3 2.3zm-1.6 0c0-.386-.314-.7-.7-.7s-.7.314-.7.7v3.4c0 .386.314.7.7.7s.7-.314.7-.7zm4.048-10.3c.933-.018 1.741-.547 2.155-1.318.287-.534-.097-1.182-.703-1.182-.29 0-.567.151-.699.409-.158.308-.488.514-.863.489-.478-.032-.838-.45-.838-.929v-2.938c0-.479.361-.897.838-.929.375-.025.705.181.863.489.132.258.409.409.699.409.606 0 .99-.647.703-1.182-.414-.771-1.222-1.3-2.155-1.318-1.401-.027-2.548 1.154-2.548 2.556v2.887c0 1.402 1.147 2.583 2.548 2.556zm7.2-3.973.92-2.959c.165-.53-.231-1.067-.786-1.067h-.008c-.366 0-.688.242-.79.593l-.7 2.407h-.784v-2.201c0-.442-.358-.8-.8-.8-.442 0-.8.358-.8.8v6.4c0 .442.358.8.8.8.442 0 .8-.358.8-.8v-2.6l.688-.002.798 2.804c.101.354.424.598.792.598.556 0 .952-.54.785-1.07zm-9.047 9.873h-1.701c-.496 0-.9-.404-.9-.9 0-.447.22-.897.911-.982l.49.655c.21.284.582.327.788.327.692 0 .846-.628.602-.987-.086-.127-.615-.837-.954-1.292.074-.115.562-.873.562-1.221 0-.828-.672-1.5-1.5-1.5s-1.5.672-1.5 1.5c0 .42.267.836.574 1.182-1.023.409-1.716 1.47-1.55 2.673.173 1.256 1.331 2.145 2.598 2.145h1.577c.442 0 .8-.358.8-.8s-.357-.8-.799-.8zm-4.401-5.9c-1.269 0-2.3-1.031-2.3-2.3v-3.4c0-1.269 1.031-2.3 2.3-2.3s2.3 1.031 2.3 2.3v3.4c0 1.269-1.031 2.3-2.3 2.3zm0-1.6c.386 0 .7-.314.7-.7v-3.4c0-.386-.314-.7-.7-.7s-.7.314-.7.7v3.4c0 .386.314.7.7.7zm7.9 16h-1.1v-5.6c0-.442-.358-.8-.8-.8s-.8.358-.8.8v6.4c0 .442.358.8.8.8h1.9c.442 0 .8-.358.8-.8s-.358-.8-.8-.8zm-10.014.567c.156.514-.228 1.033-.765 1.033-.393 0-.739-.26-.849-.637l-.687-2.363h-.784v2.2c0 .442-.358.8-.8.8-.442 0-.8-.358-.8-.8v-6.4c0-.442.358-.8.8-.8h1.567c1.284 0 2.456.908 2.613 2.182.12.97-.32 1.841-1.035 2.351l.741 2.434zm-1.286-4.467c0-.496-.404-.9-.9-.9h-.9v1.8h.9c.496 0 .9-.404.9-.9z"/></svg>