<svg id="Layer_1" viewBox="0 0 24 24" xmlns="http://www.w3.org/2000/svg" data-name="Layer 1"><path d="m11 23c0 .553-.447 1-1 1-2.685 0-5.21-1.046-7.109-2.944-1.899-1.899-2.891-4.424-2.891-7.109 0-2.537 1.878-6.489 5.688-11.747 1.018-1.419 2.689-2.263 4.344-2.2h.003c1.689 0 3.289.823 4.276 2.2 1.405 1.939 2.572 3.727 3.463 5.31.271.481.101 1.091-.381 1.362-.479.271-1.09.101-1.361-.381-.854-1.517-1.979-3.24-3.343-5.122-.616-.859-1.609-1.369-2.661-1.369-1.055-.042-2.083.486-2.717 1.37-4.669 6.441-5.311 9.391-5.311 10.576 0 2.151.783 4.174 2.305 5.695 1.521 1.521 3.545 2.358 5.695 2.358.553 0 1 .447 1 1zm13-7.199v3.232c0 1.048-.558 2.034-1.456 2.572l-3 1.801c-.953.57-2.135.572-3.087 0l-3.001-1.801c-.898-.538-1.456-1.524-1.456-2.572v-3.232c0-1.048.558-2.034 1.456-2.572l3-1.8c.954-.572 2.137-.57 3.087 0l3.001 1.8c.898.538 1.456 1.524 1.456 2.572zm-7 2.434-3-1.8v2.597c0 .35.186.678.485.857l2.515 1.509v-3.164zm1-1.732 3.057-1.834-2.542-1.525c-.318-.19-.712-.19-1.03 0l-2.541 1.525 3.057 1.834zm4-.068-3 1.8v3.165l2.515-1.51c.3-.18.485-.508.485-.857v-2.597z"/></svg>