<svg id="Layer_1" viewBox="0 0 24 24" xmlns="http://www.w3.org/2000/svg" data-name="Layer 1"><path d="m14.363 15.98c-.592.628-1.431 1.02-2.362 1.02s-1.77-.392-2.362-1.02c-.347-.368-.059-.98.447-.98h3.831c.506 0 .795.612.447.98zm6.369-.988c-.477 1.04-1.196 2.064-2.082 2.966 1.246 1.37 2.028 3.059 2.261 4.918.068.548-.32 1.048-.868 1.116-.538.07-1.05-.318-1.116-.868-.184-1.467-.817-2.79-1.808-3.862-1.49 1.052-3.256 1.739-5.119 1.739s-3.639-.692-5.132-1.748c-.996 1.073-1.631 2.399-1.816 3.871-.067.551-.579.938-1.117.868-.548-.069-.937-.569-.867-1.117.234-1.865 1.021-3.557 2.272-4.928-.881-.9-1.596-1.919-2.071-2.955-1.821-.12-3.268-1.64-3.268-3.492 0-1.434.869-2.692 2.149-3.226.824-4.762 4.946-8.274 9.85-8.274s9.027 3.512 9.851 8.274c1.279.534 2.149 1.792 2.149 3.226 0 1.852-1.446 3.373-3.268 3.492zm-.232-1.992c.827 0 1.5-.673 1.5-1.5 0-.723-.518-1.342-1.23-1.471-.438-.08-.77-.438-.815-.879-.43-4.076-3.85-7.15-7.954-7.15-1.103 0-2 .897-2 2s.897 2 2 2c.846 0 1.604-.536 1.887-1.333.184-.52.758-.795 1.275-.609.521.184.794.756.609 1.276-.563 1.595-2.08 2.667-3.771 2.667-2.206 0-4-1.794-4-4 0-.35.06-.684.144-1.008-2.225 1.222-3.814 3.468-4.098 6.157-.046.441-.379.799-.815.879-.713.129-1.23.749-1.23 1.471 0 .827.673 1.5 1.5 1.5.551-.122 1.171.037 1.369.624.916 2.597 4.001 5.377 7.131 5.377s6.215-2.78 7.131-5.377c.2-.588.818-.746 1.369-.624zm-9.5-1.5c0-.828-.672-1.5-1.5-1.5s-1.5.672-1.5 1.5.672 1.5 1.5 1.5 1.5-.672 1.5-1.5zm3.5-1.5c-.828 0-1.5.672-1.5 1.5s.672 1.5 1.5 1.5 1.5-.672 1.5-1.5-.672-1.5-1.5-1.5z"/></svg>