<svg id="Layer_1" viewBox="0 0 24 24" xmlns="http://www.w3.org/2000/svg" data-name="Layer 1"><path d="m4.478 3.684c1.745 1.743 2.022 4.316 2.022 4.316s-2.553-.255-4.298-1.998c-.856-.855-1.359-1.91-1.649-2.763-.253-.742.44-1.438 1.184-1.187.846.285 1.89.781 2.742 1.632zm-4.434 10.061c-.225.727.452 1.407 1.181 1.184 1.018-.311 2.363-.896 3.441-1.973 2.015-2.013 1.834-4.956 1.834-4.956s-2.448.267-4.463 2.28c-1.083 1.082-1.676 2.44-1.993 3.465zm22.304 8.211c.679.219 1.329-.433 1.108-1.111-.283-.866-.789-1.969-1.677-2.857-1.737-1.736-4.279-1.989-4.279-1.989s.275 2.561 2.013 4.297c.884.883 1.975 1.382 2.835 1.66zm-4.88-6.207c.016.061.028.188.032.25-.002.107-.022.234-.059.336-.003.01-.441 1.285-.441 3.164 0 .629.104 1.253.312 1.855s.108 1.273-.265 1.796c-.379.531-.995.849-1.647.849h-6.845c-.651 0-1.265-.316-1.641-.846-.377-.531-.474-1.217-.258-1.835.229-.655.344-1.258.344-1.79 0-1.584-.458-3.243-.463-3.26-.045-.159-.042-.325-.013-.486.004-.021.476-2.167.476-3.783s-.479-3.796-.483-3.818c-.013-.06-.015-.121-.017-.182l.003-.013c.001-.09.012-.179.037-.266.004-.016.46-1.613.46-3.192 0-.546-.127-1.198-.369-1.885-.213-.607-.119-1.282.252-1.806.372-.525.98-.839 1.625-.839h2.923c.647 0 1.257.315 1.633.844.367.518.463 1.182.256 1.775-.213.61-.32 1.244-.32 1.881 0 1.088.147 1.954.271 2.5h2.222c.646 0 1.257.312 1.636.834.375.519.479 1.191.28 1.799-.268.814-.409 1.623-.409 2.338 0 1.938.464 3.761.468 3.779zm-6.069 6.25c-.257-.807-.399-1.649-.399-2.5 0-.994.105-1.847.224-2.5h-2.477c.129.702.253 1.613.253 2.529 0 .757-.153 1.581-.456 2.448l2.854.022zm-2.399-10c0 1.015-.153 2.157-.294 3h2.571c-.137-.788-.277-1.873-.277-3.029 0-1.125.133-2.184.266-2.967l-2.56-.003c.141.843.293 1.985.293 2.999zm2.432-10.037-2.923.038c.329.892.491 1.749.491 2.529 0 .902-.121 1.786-.248 2.471h2.476c-.121-.644-.228-1.495-.228-2.5 0-.861.145-1.716.432-2.538zm3.968 20.038c-.258-.807-.399-1.649-.399-2.5 0-1 .107-1.851.226-2.5h-1.963c-.123.566-.263 1.435-.263 2.5 0 .629.104 1.253.312 1.855.072.21.094.427.093.645h1.995zm.109-12.991-2.209-.002c-.134.706-.299 1.805-.299 2.964 0 1.193.175 2.327.311 3.029h1.964c-.136-.794-.275-1.88-.275-3.029 0-.938.171-1.934.509-2.962zm8.447 1.219c.225-.727-.452-1.407-1.181-1.185-1.018.311-2.363.896-3.441 1.973-2.015 2.013-1.834 4.984-1.834 4.984s2.448-.294 4.463-2.307c1.083-1.082 1.676-2.44 1.993-3.465z"/></svg>