<svg id="Layer_1" viewBox="0 0 24 24" xmlns="http://www.w3.org/2000/svg" data-name="Layer 1"><path d="m10 23c0 .553-.448 1-1 1h-4c-2.757 0-5-2.243-5-5v-14c0-2.757 2.243-5 5-5h10c2.757 0 5 2.243 5 5v4c0 .553-.448 1-1 1s-1-.447-1-1v-4c0-1.654-1.346-3-3-3h-10c-1.654 0-3 1.346-3 3v14c0 1.654 1.346 3 3 3h4c.552 0 1 .447 1 1zm-5.873-7.678 1.302 1.318c.455.478 1.216.481 1.674.007l2.223-2.306c.375-.389.373-1.006-.005-1.392-.394-.403-1.043-.4-1.434.005l-1.612 1.673-.726-.723c-.396-.394-1.038-.387-1.425.015l-.006.007c-.376.391-.372 1.01.009 1.395zm.166-6.115c.391.391 1.023.391 1.414 0l.793-.793.793.793c.391.391 1.023.391 1.414 0s.391-1.023 0-1.414l-.793-.793.793-.793c.391-.391.391-1.023 0-1.414s-1.023-.391-1.414 0l-.793.793-.793-.793c-.391-.391-1.023-.391-1.414 0s-.391 1.023 0 1.414l.793.793-.793.793c-.391.391-.391 1.023 0 1.414zm10.707-1.207c.552 0 1-.447 1-1s-.448-1-1-1h-3c-.552 0-1 .447-1 1s.448 1 1 1zm6.112 8c.087.313.177.653.264 1h1.623c.552 0 1 .447 1 1s-.448 1-1 1h-1.193c.062.378.099.718.106 1 1.133-.046 2.09.864 2.087 2v1c0 .553-.448 1-1 1s-1-.447-1-1v-1h-.606c-.673 1.188-1.934 2-3.394 2s-2.72-.812-3.394-2h-.606v1c0 .553-.448 1-1 1s-1-.447-1-1v-1c-.003-1.136.955-2.046 2.087-2 .007-.279.045-.62.108-1h-1.195c-.552 0-1-.447-1-1s.448-1 1-1h1.626c.087-.347.177-.686.264-1h-.89c-1.103 0-2-.897-2-2v-1c0-.553.448-1 1-1s1 .447 1 1v1h1.511c.1-.255.206-.496.323-.7.476-.817 1.284-1.3 2.167-1.3.99 0 1.84.551 2.274 1.475.054.113.132.3.218.525h1.508v-1c0-.553.448-1 1-1s1 .447 1 1v1c0 1.103-.897 2-2 2zm-1.196 4.083c0-1.019-.84-4.058-1.184-5.076-.108-.322-.198-.538-.263-.671-.047-.099-.158-.336-.47-.336-.165 0-.323.108-.434.299-.1.175-.203.419-.295.696-.419 1.263-1.187 4.152-1.187 5.088 0 1.057.859 1.917 1.916 1.917s1.916-.86 1.916-1.917z"/></svg>