<svg id="Layer_1" viewBox="0 0 24 24" xmlns="http://www.w3.org/2000/svg" data-name="Layer 1"><path d="m19.5 0c-1.496 0-2.815.742-3.634 1.869-.917-1.13-2.3-1.869-3.866-1.869s-2.949.738-3.866 1.868c-.819-1.127-2.137-1.868-3.634-1.868-2.481 0-4.5 2.019-4.5 4.502l.035 18.499c.026.538.468.983 1.002.998.49-.026.892-.378.988-.858.175-1.221 1.238-2.142 2.475-2.142s2.3.921 2.475 2.142c.09.485.499.846.991.858.452-.011.833-.327.968-.751.329-1.282 1.647-2.249 3.066-2.249s2.737.967 3.066 2.249c.12.43.527.736.968.751.485-.003.909-.386.991-.858.175-1.221 1.238-2.142 2.475-2.142 1.257 0 2.336.92 2.51 2.141.096.489.554.898 1.061.845.509-.02.903-.489.929-.986v-18.499c0-2.481-2.019-4.5-4.5-4.5zm-2.5 4.5c0-1.378 1.121-2.5 2.5-2.5s2.5 1.122 2.5 2.5v2.262c-.716-.48-1.575-.762-2.5-.762s-1.784.282-2.5.762zm-14.989 5.889c.059-1.326 1.148-2.389 2.489-2.389s2.444 1.067 2.5 2.396v2.358c-.713-.474-1.581-.754-2.5-.754s-1.772.279-2.484.753zm6.973 2.649s.016-2.018.016-2.038c0-1.654 1.346-3 3-3s3 1.346 3 3v2.026c-.838-.635-1.87-1.026-3-1.026-1.137 0-2.175.396-3.016 1.038zm8.016-2.538c0-1.378 1.121-2.5 2.5-2.5s2.5 1.122 2.5 2.5v2.262c-.716-.48-1.575-.762-2.5-.762s-1.784.282-2.5.762zm-5-8.5c1.654 0 3 1.346 3 3v2.026c-.838-.635-1.87-1.026-3-1.026s-2.165.392-3.004 1.029l.004-2.029c0-1.654 1.346-3 3-3zm-7.5 0c1.379 0 2.5 1.122 2.5 2.5 0 .059-.003 2.26-.003 2.26-.715-.479-1.573-.76-2.497-.76s-1.781.281-2.496.759l-.004-2.259c0-1.378 1.121-2.5 2.5-2.5zm0 17c-.907 0-1.754.286-2.471.762l-.007-3.483c.114-1.273 1.175-2.278 2.478-2.278s2.365 1.007 2.478 2.282l-.007 3.48c-.717-.476-1.564-.762-2.471-.762zm7.5 0c-1.112 0-2.164.364-3.029.971 0 0 .029-2.93.029-2.971 0-1.654 1.346-3 3-3s3 1.346 3 3v2.953c-.86-.595-1.9-.953-3-.953zm7.5 0c-.919 0-1.777.295-2.5.783v-3.283c0-1.378 1.121-2.5 2.5-2.5s2.5 1.122 2.5 2.5v3.267c-.724-.478-1.581-.767-2.5-.767z"/></svg>