<svg id="Layer_1" viewBox="0 0 24 24" xmlns="http://www.w3.org/2000/svg" data-name="Layer 1"><path d="m12.5 14h-6.5c-.552 0-1-.448-1-1s.448-1 1-1h6.5c.552 0 1 .448 1 1s-.448 1-1 1zm-2.5 9c0 .552-.448 1-1 1h-4c-2.757 0-5-2.243-5-5v-14c0-2.757 2.243-5 5-5h4.515c1.87 0 3.627.728 4.95 2.05l3.485 3.485c.888.888 1.521 2 1.833 3.217.077.299.011.617-.179.861s-.481.387-.79.387h-5.813c-1.654 0-3-1.346-3-3v-4.977c-.16-.015-.322-.023-.485-.023h-4.516c-1.654 0-3 1.346-3 3v14c0 1.654 1.346 3 3 3h4c.552 0 1 .448 1 1zm2-16c0 .551.449 1 1 1h4.338c-.219-.382-.489-.736-.803-1.05l-3.485-3.485c-.318-.318-.671-.587-1.05-.806zm-6 9c-.552 0-1 .448-1 1s.448 1 1 1h2.5c.552 0 1-.448 1-1s-.448-1-1-1zm16.828-3.808c-1.387-1.388-3.551-1.568-5.147-.432-.45.321-.554.945-.234 1.395.321.45.944.555 1.395.234.796-.568 1.877-.477 2.572.217.378.378.586.88.586 1.415s-.208 1.036-.586 1.414l-1.414 1.415c-.599.599-1.513.756-2.276.391-.498-.237-1.095-.028-1.333.471-.238.498-.027 1.095.471 1.333.549.262 1.136.39 1.72.39 1.04 0 2.066-.405 2.833-1.171l1.414-1.415c.756-.755 1.172-1.76 1.172-2.828s-.416-2.073-1.172-2.829zm-6.59 9.439c-.798.567-1.879.477-2.572-.217-.378-.378-.586-.88-.586-1.414s.208-1.036.586-1.414l1.414-1.415c.6-.598 1.514-.754 2.276-.391.497.237 1.095.028 1.333-.471.238-.498.027-1.095-.471-1.333-1.527-.73-3.356-.415-4.553.782l-1.414 1.415c-.756.755-1.172 1.76-1.172 2.828s.416 2.073 1.172 2.828c.777.778 1.799 1.172 2.828 1.172.807 0 1.618-.24 2.318-.74.45-.32.555-.945.234-1.395s-.945-.555-1.395-.234z"/></svg>