<svg id="Layer_1" viewBox="0 0 24 24" xmlns="http://www.w3.org/2000/svg" data-name="Layer 1"><path d="m23 14.75-3.341-2.506-3.799-5.97 1.95-1.039c.288-.154.613-.235.94-.235h3.25c.553 0 1-.448 1-1s-.447-1-1-1h-3.25c-.654 0-1.306.163-1.882.47l-5.661 3.018c-.926.493-1.71 1.225-2.268 2.118l-1.347 2.158c-.093.148-.251.236-.425.236h-2.168c-.553 0-1 .448-1 1s.447 1 1 1h2.168c.867 0 1.66-.439 2.121-1.176l1.347-2.158c.006-.01.014-.019.021-.029l6.191 9.906c.1.16.152.343.152.531v2.926c0 .552.447 1 1 1s1-.448 1-1v-2.926c0-.562-.157-1.112-.456-1.59l-1.853-2.965 2.165-1.378 2.943 2.207c.126.095.201.245.201.401v4.25c0 .552.447 1 1 1s1-.448 1-1v-4.25c0-.781-.373-1.529-1-2zm-10.851-6.497 1.94-1.034 3.436 5.399-1.895 1.206-3.481-5.57zm-4.652-5.753c0-1.381 1.119-2.5 2.5-2.5s2.5 1.119 2.5 2.5-1.119 2.5-2.5 2.5-2.5-1.119-2.5-2.5zm-3.497 6.5c0 1.105-.895 2-2 2s-2-.895-2-2 .895-2 2-2 2 .895 2 2z"/></svg>