<svg id="Layer_1" viewBox="0 0 24 24" xmlns="http://www.w3.org/2000/svg" data-name="Layer 1"><path d="m12.398.922c.393.499.936 1.274.936 1.744 0 .736-.597 1.333-1.333 1.333s-1.333-.597-1.333-1.333c0 .736-.597 1.333-1.333 1.333s-1.333-.597-1.333-1.333c0-.47.543-1.245.936-1.744.204-.259.592-.259.795 0 .393.499.935 1.274.936 1.744 0-.47.543-1.245.936-1.744.204-.259.592-.259.795 0zm1.871 0c-.393.499-.936 1.274-.936 1.744 0 .736.597 1.333 1.333 1.333s1.333-.597 1.333-1.333c0-.47-.543-1.245-.936-1.744-.204-.259-.592-.259-.795 0zm2.667 0c-.393.499-.936 1.274-.936 1.744 0 .736.597 1.333 1.333 1.333s1.333-.597 1.333-1.333c0-.47-.543-1.245-.936-1.744-.204-.259-.592-.259-.795 0zm2.667 0c-.393.499-.936 1.274-.936 1.744 0 .736.597 1.333 1.333 1.333s1.333-.597 1.333-1.333c0-.47-.543-1.245-.936-1.744-.204-.259-.592-.259-.795 0zm-18.667.001c-.393.499-.936 1.274-.936 1.744 0 .736.597 1.333 1.333 1.333s1.333-.597 1.333-1.333c0-.47-.543-1.245-.936-1.744-.204-.259-.592-.259-.795 0zm5.333 0c-.393.499-.936 1.274-.936 1.744 0 .736.597 1.333 1.333 1.333s1.333-.597 1.333-1.333c0-.47-.543-1.245-.936-1.744-.204-.259-.592-.259-.795 0zm-2.667 0c-.393.499-.936 1.274-.936 1.744 0 .736.597 1.333 1.333 1.333s1.333-.597 1.333-1.333c0-.47-.543-1.245-.936-1.744-.204-.259-.592-.259-.795 0zm19.462 0c-.204-.259-.592-.259-.795 0-.393.499-.936 1.274-.936 1.744 0 .736.597 1.333 1.333 1.333s1.333-.597 1.333-1.333c0-.47-.543-1.245-.936-1.744zm-.294 5.077c-.508-.004-.857.458-.8.947 0 5.224-4.044 9.514-9.165 9.924v-1.208c4.513-.406 8.063-4.205 8.063-8.822v-.042c0-.442-.358-.779-.8-.779s-.8.379-.8.821c0 3.735-2.835 6.818-6.465 7.216v-1.104c3.028-.393 5.377-2.983 5.377-6.117v-.037c0-.442-.358-.782-.8-.782s-.8.376-.8.818c0 2.25-1.636 4.116-3.779 4.495v-1.131c1.542-.363 2.698-1.745 2.698-3.4 0-.442-.358-.8-.8-.8s-.8.358-.8.8c0 .762-.452 1.417-1.1 1.719v-1.72c0-.442-.359-.799-.801-.799-.442 0-.8.358-.799.8v1.711c-.637-.305-1.082-.955-1.082-1.712 0-.442-.358-.8-.8-.8s-.8.358-.8.8c0 1.651 1.148 3.03 2.683 3.397v1.134c-2.139-.383-3.771-2.251-3.771-4.531 0-.442-.358-.782-.8-.782s-.8.376-.8.818c0 3.132 2.346 5.721 5.372 6.117v1.104c-3.628-.401-6.46-3.486-6.46-7.257 0-.442-.358-.779-.8-.779s-.8.379-.8.821c0 4.616 3.549 8.415 8.061 8.822v1.208c-5.12-.41-9.164-4.7-9.164-9.924.057-.489-.291-.951-.8-.947-.508-.004-.857.458-.8.947 0 6.037 4.652 11 10.558 11.513v3.54h-3.996c-.552 0-1 .448-1 1s.448 1 1 1h10c.552 0 1-.448 1-1s-.448-1-1-1h-4v-3.539c5.912-.507 10.57-5.473 10.57-11.514.057-.489-.291-.951-.8-.947z"/></svg>