<svg id="Layer_1" viewBox="0 0 24 24" xmlns="http://www.w3.org/2000/svg" data-name="Layer 1"><path d="m19 1h-14c-2.757 0-5 2.243-5 5v8c0 2.757 2.243 5 5 5h6v2h-4c-.552 0-1 .447-1 1s.448 1 1 1h10c.552 0 1-.447 1-1s-.448-1-1-1h-4v-2h6c2.757 0 5-2.243 5-5v-8c0-2.757-2.243-5-5-5zm3 13c0 1.654-1.346 3-3 3h-6v-1.5c0-.553-.448-1-1-1s-1 .447-1 1v1.5h-6c-1.654 0-3-1.346-3-3v-8c0-1.654 1.346-3 3-3h6v1.5c0 .552.448 1 1 1s1-.448 1-1v-1.5h6c1.654 0 3 1.346 3 3zm-9-6.5v1c0 .552-.448 1-1 1s-1-.448-1-1v-1c0-.552.448-1 1-1s1 .448 1 1zm0 4v1c0 .553-.448 1-1 1s-1-.447-1-1v-1c0-.552.448-1 1-1s1 .448 1 1zm-5-4.197v5.697c0 .553-.448 1-1 1s-1-.447-1-1v-3.651l-.217.273c-.343.433-.973.503-1.405.16-.432-.344-.504-.973-.16-1.405l1.493-1.877c.35-.43.924-.591 1.435-.408.511.182.854.669.854 1.211zm9.832 4.467c-.095.078-.189.155-.28.23h1.448c.552 0 1 .448 1 1s-.448 1-1 1h-2.346c-.646 0-1.22-.365-1.497-.952-.271-.574-.19-1.232.209-1.717.331-.401.774-.762 1.202-1.111.671-.547 1.432-1.167 1.432-1.72 0-.276-.224-.5-.5-.5-.249 0-.501.181-.561.343-.189.519-.763.784-1.282.597-.519-.189-.786-.764-.597-1.282.351-.96 1.376-1.657 2.439-1.657 1.378 0 2.5 1.122 2.5 2.5 0 1.503-1.202 2.483-2.168 3.27z"/></svg>