<svg id="Layer_1" viewBox="0 0 24 24" xmlns="http://www.w3.org/2000/svg" data-name="Layer 1"><path d="m20 10v-1c0-1.859-1.28-3.411-3-3.858 0 0-.026-2.142-2-2.142h-2v-2c0-.553-.448-1-1-1s-1 .447-1 1v2h-2c-1.949 0-2 2.142-2 2.142-1.72.447-3 1.999-3 3.858v1c0 1.201.542 2.266 1.382 3-.84.734-1.382 1.799-1.382 3v4c0 2.206 1.794 4 4 4h8c2.206 0 4-1.794 4-4v-4c0-1.201-.542-2.266-1.382-3 .84-.734 1.382-1.799 1.382-3zm-4 4c1.103 0 2 .897 2 2v4c0 1.103-.897 2-2 2h-8c-1.103 0-2-.897-2-2v-4c0-1.103.897-2 2-2h4c.552 0 1-.447 1-1s-.448-1-1-1h-4c-1.103 0-2-.897-2-2v-1c0-1.103.897-2 2-2h8c1.103 0 2 .897 2 2v1c0 1.103-.897 2-2 2-.552 0-1 .447-1 1s.448 1 1 1z"/></svg>