<svg id="Layer_1" viewBox="0 0 24 24" xmlns="http://www.w3.org/2000/svg" data-name="Layer 1"><path d="m6 4.5c0 .828-.672 1.5-1.5 1.5s-1.5-.672-1.5-1.5.672-1.5 1.5-1.5 1.5.672 1.5 1.5zm2.5-1.5c-.828 0-1.5.672-1.5 1.5s.672 1.5 1.5 1.5 1.5-.672 1.5-1.5-.672-1.5-1.5-1.5zm15.5 2v12c0 2.757-2.243 5-5 5h-2c-.552 0-1-.448-1-1s.448-1 1-1h2c1.654 0 3-1.346 3-3v-8h-20c0 .552-.448 1-1 1s-1-.448-1-1v-4c0-2.757 2.243-5 5-5h14c2.757 0 5 2.243 5 5zm-2 2v-2c0-1.654-1.346-3-3-3h-14c-1.654 0-3 1.346-3 3v2zm-4.158 10.791.407.234c.47.273 1.088.116 1.366-.367.276-.479.112-1.09-.367-1.366l-.406-.234c.094-.339.158-.69.158-1.059s-.063-.721-.158-1.06l.33-.19c.479-.276.643-.887.367-1.366s-.889-.644-1.366-.367l-.336.194c-.501-.505-1.128-.885-1.838-1.069 0-.706-.386-1.146-1-1.142-.552 0-1 .448-1 1v.37c.406.505.765 1.049 1.056 1.636 1.078.03 1.944.909 1.944 1.994 0 .744-.411 1.385-1.014 1.73.003.091.014.179.014.27 0 .66-.076 1.301-.21 1.92.799-.161 1.502-.569 2.052-1.129zm-3.842-.791c0 3.86-3.14 7-7 7s-7-3.14-7-7 3.14-7 7-7 7 3.14 7 7zm-2 0c0-2.757-2.243-5-5-5s-5 2.243-5 5 2.243 5 5 5 5-2.243 5-5zm-3.758-2.998c-.685-.685-1.8-.685-2.485 0l-1.5 1.5c-.252.251-.329.629-.19.958.135.328.456.541.812.541h1.121v2c0 .552.448 1 1 1s1-.448 1-1v-2h1.121c.355 0 .676-.213.812-.541.135-.325.062-.705-.19-.958l-1.5-1.5z"/></svg>