<?xml version="1.0" encoding="UTF-8"?>
<svg xmlns="http://www.w3.org/2000/svg" id="Layer_1" data-name="Layer 1" viewBox="0 0 24 24">
  <path d="M14.177,10.718c1.434,.741,3.265,.18,4.024-1.289l.454-.874c.374-.719,.442-1.538,.192-2.309s-.787-1.395-1.474-1.737L11.213,1.092C7.267-.959,4.303,.343,2.887,1.301c-.597,.403-.927,1.072-.883,1.789,.043,.708,.446,1.324,1.076,1.65l4.024,2.168L.314,19.665c-.723,1.455-.139,3.247,1.303,3.997,1.418,.782,3.374,.147,4.056-1.303l6.707-12.609,1.797,.968ZM4.008,2.957c.744-.504,1.776-.958,3.069-.958,.931,0,1.997,.235,3.19,.854l6.173,3.424c.491,.233,.701,.878,.44,1.355l-.454,.874c-.252,.485-.852,.679-1.321,.439L4.02,2.975c-.006-.003-.005-.015-.012-.018Zm-.114,18.488c-.12,.242-.327,.421-.584,.505-.257,.084-.531,.062-.771-.063-.48-.249-.675-.847-.447-1.307L8.865,7.857l1.754,.945L3.894,21.445Zm19.885-3.519l-1.004-2.677c-.504-1.343-1.807-2.246-3.241-2.247l-3.189-.002h-.005c-.926,0-1.828,.379-2.474,1.04l-1.876,1.915s0,0,0,0c-.638,.651-.989,1.513-.989,2.424v.801c0,.911,.352,1.772,.99,2.425l1.326,1.353c.647,.662,1.55,1.041,2.475,1.041h3.985c1.269,0,2.434-.691,3.042-1.805l.759-1.391c.483-.886,.557-1.935,.202-2.878Zm-1.958,1.919l-.759,1.392c-.257,.471-.75,.763-1.286,.763h-3.985c-.391,0-.772-.16-1.046-.44l-1.325-1.353c-.27-.276-.419-.641-.419-1.025v-.801c0-.385,.149-.749,.419-1.025l1.876-1.915c.273-.28,.619-.473,1.047-.439l3.189,.002c.606,0,1.157,.383,1.371,.95l1.004,2.677c.149,.398,.119,.842-.086,1.216Z"/>
</svg>
