<svg id="Layer_1" viewBox="0 0 24 24" xmlns="http://www.w3.org/2000/svg" data-name="Layer 1"><path d="m21 7.015v-3.015l2.626-1.302c.498-.332.498-1.064 0-1.396l-1.73-.858c-.589-.292-1.238-.444-1.896-.444-.552 0-1 .447-1 1v6h-6v-3l2.626-1.302c.498-.332.498-1.064 0-1.396l-1.73-.858c-.589-.292-1.238-.444-1.896-.444-.552 0-1 .447-1 1v6h-6v-3l2.626-1.302c.498-.332.498-1.064 0-1.396l-1.73-.858c-.589-.292-1.238-.444-1.896-.444-.552 0-1 .447-1 1v6.015c-1.666.081-3 1.451-3 3.136 0 .339.054.674.162.996l2.838 8.515v.338c0 2.206 1.794 4 4 4h10c2.206 0 4-1.794 4-4v-.338l2.838-8.515c.107-.322.162-.657.162-.996 0-1.686-1.334-3.055-3-3.136zm-11.156 6.985-.778-5h5.867l-.778 5zm-6.693-5h3.897l.783 5h-4.61l-1.162-3.485c-.039-.117-.059-.239-.059-.363 0-.635.516-1.151 1.151-1.151zm15.9 10.184c-.034.103-.051.209-.051.316v.5c0 1.103-.897 2-2 2h-3v-2c0-1.105-.895-2-2-2s-2 .895-2 2v2h-3c-1.103 0-2-.897-2-2v-.5c0-.107-.017-.214-.051-.316l-1.061-3.184h16.224zm2.89-8.669-1.162 3.485h-4.61l.783-5h3.897c.635 0 1.151.517 1.151 1.151 0 .124-.02.246-.059.363z"/></svg>