<svg id="Layer_1" viewBox="0 0 24 24" xmlns="http://www.w3.org/2000/svg" data-name="Layer 1"><path d="m23.707 6.793c-.391-.391-1.023-.391-1.414 0l-4.537 4.537-5.027-5.027 4.487-4.605c.385-.396.377-1.029-.019-1.414-.395-.386-1.029-.377-1.414.019l-4.469 4.586-3.108-3.095c-.391-.391-1.023-.391-1.414 0s-.391 1.023 0 1.414l.99.99-5.292 5.291c-1.605 1.605-2.49 3.74-2.49 6.011 0 1.933.646 3.764 1.827 5.257l-1.535 1.536c-.39.391-.39 1.024 0 1.414.391.391 1.024.391 1.415 0l1.534-1.535c1.537 1.213 3.396 1.824 5.259 1.824 2.176 0 4.353-.828 6.01-2.485l5.293-5.293.99.99c.391.391 1.023.391 1.414 0s.391-1.023 0-1.414l-3.037-3.049 4.537-4.537c.391-.391.391-1.023 0-1.414zm-10.611 13.304c-2.535 2.533-6.658 2.533-9.192 0-1.228-1.229-1.904-2.86-1.904-4.597s.676-3.369 1.904-4.597l5.293-5.292 9.192 9.192-5.293 5.293zm-1.147-8.814c.541-.108 1.068.243 1.176.785s-.243 1.068-.785 1.177l-3.117.622 1.435 1.435c.418.418.573 1.03.401 1.598-.171.566-.638.991-1.219 1.107l-3.937.482c-.538.07-1.049-.321-1.114-.871-.067-.548.323-1.047.872-1.113l3.005-.367-1.388-1.388c-.36-.36-.53-.875-.456-1.378.087-.595.516-1.142 1.111-1.287l4.015-.801z"/></svg>