<svg id="Layer_1" viewBox="0 0 24 24" xmlns="http://www.w3.org/2000/svg" data-name="Layer 1"><path d="m19.5 10h-.235l-5.875-3.357c.952-.503 1.61-1.492 1.61-2.643 0-1.105-.605-2.118-1.581-2.644-.101-.055-.368-.198-.408-.234 0 0-.011-.034-.011-.122 0-.553-.447-1-1-1s-1 .447-1 1c0 1.327.887 1.804 1.472 2.117.326.176.528.514.528.883 0 .552-.448 1-1 1s-1-.448-1-1-.447-1-1-1-1 .447-1 1c0 1.15.658 2.139 1.61 2.643l-5.875 3.357h-.235c-2.481 0-4.5 2.019-4.5 4.5v5c0 2.481 2.019 4.5 4.5 4.5h15c2.481 0 4.5-2.019 4.5-4.5v-5c0-2.481-2.019-4.5-4.5-4.5zm-7.5-1.849 3.235 1.849h-6.47zm-6 13.849v-6h2v6zm16-2.5c0 1.379-1.121 2.5-2.5 2.5h-9.5v-6c0-1.103-.897-2-2-2h-2c-1.103 0-2 .897-2 2v5.949c-1.14-.232-2-1.242-2-2.449v-5c0-1.379 1.121-2.5 2.5-2.5h15c1.379 0 2.5 1.121 2.5 2.5zm-4-5.5h-4c-1.103 0-2 .897-2 2v2c0 1.103.897 2 2 2h4c1.103 0 2-.897 2-2v-2c0-1.103-.897-2-2-2zm-4 4v-2h4l.002 2z"/></svg>