<svg id="Layer_1" viewBox="0 0 24 24" xmlns="http://www.w3.org/2000/svg" data-name="Layer 1"><path d="m23.954 9.983c-.455-5.038-4.411-9.191-9.407-9.877-4.042-.555-7.91 1.058-10.324 4.283-1.291 1.596-4.223 7.191-4.223 8.611 0 .97.701 2 2 2h.33l.219 1.655c.327 2.477 2.458 4.345 4.957 4.345h.494c0 1.654 1.346 3 3 3h7c1.654 0 3-1.346 3-3v-.971c0-.896.263-1.732.739-2.354 1.678-2.192 2.465-4.924 2.215-7.692zm-3.803 6.476c-.742.969-1.151 2.237-1.151 3.57v.971c0 .551-.448 1-1 1h-7c-.551 0-1-.449-1-1v-1c0-.552-.448-1-1-1h-1.494c-1.499 0-2.778-1.121-2.974-2.607l-.334-2.524c-.065-.497-.49-.869-.991-.869l-1.2-.028c.167-.967 2.478-5.726 3.794-7.354 1.996-2.665 5.166-3.986 8.475-3.53 4.082.56 7.314 3.956 7.687 8.075.205 2.268-.438 4.504-1.811 6.296zm-4.151-10.459c-1.657 0-3 1-3 1s-1.343-1-3-1-3 1.451-3 3.24c0 2.116 2.334 4.534 4.091 6.053 1.098.95 2.721.95 3.819 0 1.757-1.52 4.091-3.937 4.091-6.053 0-1.789-1.343-3.24-3-3.24zm-1 6h-1v1c0 .552-.448 1-1 1s-1-.448-1-1v-1h-1c-.552 0-1-.448-1-1s.448-1 1-1h1v-1c0-.552.448-1 1-1s1 .448 1 1v1h1c.552 0 1 .448 1 1s-.448 1-1 1z"/></svg>