<svg id="Layer_1" viewBox="0 0 24 24" xmlns="http://www.w3.org/2000/svg" data-name="Layer 1"><path d="m24.052 12.755c0-7.152-5.927-12.755-13.492-12.755-3.69 0-6.126 1.359-7.091 2.728-.291.342-.463.813-.469 1.272 0 1.103.897 2 2 2 .616 0 1.161-.286 1.528-.725.136.972.963 1.725 1.972 1.725.97 0 1.779-.694 1.961-1.611 1.995 1.001 3.539 2.918 3.539 6.111 0 .134-.031.265-.042.398-1.889-1.799-4.514-2.898-7.458-2.898-3.006 0-6.5 1.747-6.5 4 0 1.103.897 2 2 2 .415 0 .8-.127 1.12-.344.273.78 1.008 1.344 1.88 1.344.798 0 1.483-.473 1.804-1.15.782.779 1.196 1.829 1.196 3.15 0 2.198-1.794 3.987-4 3.987-.875 0-1.68-.276-2.392-.821-.438-.334-1.065-.254-1.402.187-.336.438-.252 1.066.186 1.401 1.055.807 2.302 1.233 3.608 1.233 3.309 0 6-2.686 6-5.987 0-2.007-.715-3.688-2.068-4.861-1.029-.892-2.42-1.455-3.956-1.649.734-.285 1.61-.49 2.525-.49 4.767 0 8.5 3.514 8.5 8 0 2.132-.827 3.438-.832 3.445-.307.46-.183 1.08.277 1.387.454.303 1.079.186 1.387-.277.048-.071 1.168-1.784 1.168-4.555 0-1.883-.53-3.622-1.443-5.111.288-.769.443-1.569.443-2.389 0-5.895-4.29-8.698-8.766-8.973.851-.303 1.951-.527 3.325-.527 6.444 0 11.492 4.724 11.493 10.798.152 3.57-.458 6.686-1.038 10.031-.094.545.271 1.062.814 1.156.532.095 1.065-.267 1.156-.814.581-3.362 1.224-6.637 1.066-10.416z"/></svg>