<svg id="Layer_1" viewBox="0 0 24 24" xmlns="http://www.w3.org/2000/svg" data-name="Layer 1"><path d="m6.555 3.832.732-.488c1.318-.879 2.853-1.344 4.438-1.344h2.275v3.141c-2.232 1.064-3.786 3.274-3.979 5.783-.042.551.37 1.031.92 1.074.544.044 1.034-.368 1.074-.92.135-1.755 1.208-3.3 2.75-4.077h4.465c.777.388 1.45.969 1.938 1.701.307.464.932.582 1.387.28.46-.306.585-.926.279-1.386-.706-1.063-1.693-1.9-2.833-2.443v-1.652c0-1.93-1.57-3.5-3.5-3.5h-4.775c-1.98 0-3.898.581-5.547 1.68l-.732.488c-.46.306-.584.927-.277 1.387.306.459.926.583 1.387.277zm9.445-1.832h.5c.827 0 1.5.673 1.5 1.5v1.5h-2zm-11 10c.801 0 1.555-.312 2.121-.878.566-.567.879-1.32.879-2.122s-.313-1.555-.887-2.129l-.805-.788c-.733-.715-1.883-.716-2.618 0l-.812.794c-.566.567-.879 1.32-.879 2.122-.033 1.612 1.388 3.033 3 3zm-.715-3.699.715-.7.707.692c.189.188.293.439.293.707s-.104.518-.293.707c-.379.378-1.035.379-1.414 0-.189-.188-.293-.439-.293-.707s.104-.518.285-.699zm18.95 7.715-6.804 7.637c-.369.414-1.001.448-1.412.082-.412-.368-.449-1-.082-1.412l6.805-7.638c.368-.412.336-1.05-.072-1.421-.391-.376-1.071-.342-1.427.066l-4.434 4.873c-.387 1.066-1.335 1.883-2.506 2.05l-5.161.737c-.548.075-1.054-.302-1.132-.849s.302-1.054.849-1.132l5.161-.737c.56-.079.98-.565.98-1.13 0-.63-.513-1.143-1.143-1.143h-8.857c-1.103 0-2 .897-2 2v5c0 .553-.447 1-1 1s-1-.447-1-1v-5c0-2.206 1.794-4 4-4h8.857c1.14 0 2.131.617 2.682 1.528l3.224-3.544c1.062-1.22 3.087-1.317 4.254-.199 1.214 1.106 1.312 3.004.218 4.23zm.765 3.984c0 2.206-1.794 4-4 4-.553 0-1-.447-1-1s.447-1 1-1c1.103 0 2-.897 2-2 0-.553.447-1 1-1s1 .447 1 1z"/></svg>