<svg id="Layer_1" viewBox="0 0 24 24" xmlns="http://www.w3.org/2000/svg" data-name="Layer 1"><path d="m9 12c3.309 0 6-2.691 6-6s-2.691-6-6-6-6 2.691-6 6 2.691 6 6 6zm0-10c2.206 0 4 1.794 4 4s-1.794 4-4 4-4-1.794-4-4 1.794-4 4-4zm8.551 19.861c.32.45.216 1.074-.234 1.395-.701.499-1.512.744-2.318.744-1.029 0-2.052-.399-2.829-1.176-1.559-1.56-1.559-4.097 0-5.656l1.414-1.415c1.197-1.198 3.031-1.509 4.553-.782.499.238.71.835.472 1.333s-.836.709-1.333.471c-.764-.364-1.679-.208-2.277.392l-1.414 1.414c-.779.78-.779 2.048 0 2.828.694.693 1.775.786 2.573.217.45-.32 1.074-.214 1.395.234zm6.449-6.84c0 1.068-.416 2.073-1.172 2.828l-1.414 1.415c-.767.767-1.794 1.171-2.833 1.171-.584 0-1.172-.127-1.72-.389-.499-.238-.71-.835-.472-1.333s.836-.709 1.333-.471c.762.363 1.678.208 2.277-.392l1.414-1.414c.378-.378.586-.88.586-1.414s-.208-1.037-.586-1.415c-.692-.692-1.773-.786-2.572-.217-.45.322-1.074.215-1.395-.234s-.216-1.074.234-1.395c1.596-1.137 3.76-.955 5.146.432.756.755 1.172 1.76 1.172 2.829zm-12.882.199c-.078.547-.578.929-1.131.85-.323-.046-.655-.069-.987-.069-3.859 0-7 3.14-7 7 0 .552-.447 1-1 1s-1-.448-1-1c0-4.962 4.037-9 9-9 .426 0 .853.03 1.269.089.547.078.927.584.85 1.131z"/></svg>