<svg id="Layer_1" viewBox="0 0 24 24" xmlns="http://www.w3.org/2000/svg" data-name="Layer 1"><path d="m14 12v-7c0-1.654-1.346-3-3-3h-6c-1.654 0-3 1.346-3 3v14c0 1.654 1.346 3 3 3h6c.552 0 1 .447 1 1s-.448 1-1 1h-6c-2.757 0-5-2.243-5-5v-14c0-2.757 2.243-5 5-5h6c2.757 0 5 2.243 5 5v7c0 .553-.447 1-1 1s-1-.447-1-1zm-8 1h-1c-.552 0-1 .447-1 1s.448 1 1 1h1c.552 0 1-.447 1-1s-.448-1-1-1zm5 0h-1c-.552 0-1 .447-1 1s.448 1 1 1h1c.552 0 1-.447 1-1s-.448-1-1-1zm-5 4h-1c-.552 0-1 .447-1 1s.448 1 1 1h1c.552 0 1-.447 1-1s-.448-1-1-1zm5 0h-1c-.552 0-1 .447-1 1s.448 1 1 1h1c.552 0 1-.447 1-1s-.448-1-1-1zm-5-12h-1c-.552 0-1 .447-1 1s.448 1 1 1h1c.552 0 1-.447 1-1s-.448-1-1-1zm5 0h-1c-.552 0-1 .447-1 1s.448 1 1 1h1c.552 0 1-.447 1-1s-.448-1-1-1zm-5 4h-1c-.552 0-1 .447-1 1s.448 1 1 1h1c.552 0 1-.447 1-1s-.448-1-1-1zm5 0h-1c-.552 0-1 .447-1 1s.448 1 1 1h1c.552 0 1-.447 1-1s-.448-1-1-1zm12.968 13.75c-.56-2.174-2.649-3.75-4.968-3.75s-4.409 1.577-4.968 3.75c-.138.534.185 1.08.72 1.218.527.138 1.08-.185 1.218-.72.33-1.282 1.633-2.249 3.031-2.249s2.701.967 3.031 2.249c.136.539.697.857 1.218.72.535-.138.857-.684.72-1.218zm-4.968-4.75c1.379 0 2.5-1.121 2.5-2.5s-1.121-2.5-2.5-2.5-2.5 1.121-2.5 2.5 1.121 2.5 2.5 2.5z"/></svg>