<svg id="Layer_1" viewBox="0 0 24 24" xmlns="http://www.w3.org/2000/svg" data-name="Layer 1"><path d="m19 2h-1v-1c0-.553-.448-1-1-1s-1 .447-1 1v1h-8v-1c0-.553-.448-1-1-1s-1 .447-1 1v1h-1c-2.757 0-5 2.243-5 5v12c0 2.282 1.542 4.273 3.75 4.843.521.137 1.082-.18 1.218-.72.138-.534-.184-1.08-.719-1.218-1.325-.341-2.25-1.535-2.25-2.905v-9h20.001v3c0 .553.448 1 1 1s1-.447 1-1v-6c0-2.757-2.243-5-5-5zm-17 6v-1c0-1.654 1.346-3 3-3h14c1.654 0 3 1.346 3 3v1zm10 8.838v6.23c0 .535-.434.97-.97.97-.383 0-.731-.226-.886-.576l-1.544-3.478v3.254c0 .442-.358.8-.8.8s-.8-.358-.8-.8v-6.226c0-.537.437-.972.974-.969.381.002.725.227.88.576l1.546 3.482v-3.263c0-.442.358-.8.8-.8s.8.358.8.8zm3.5-.8c-1.269 0-2.3 1.031-2.3 2.3v3.4c0 1.269 1.031 2.3 2.3 2.3s2.3-1.031 2.3-2.3v-3.4c0-1.269-1.031-2.3-2.3-2.3zm.7 5.7c0 .386-.314.7-.7.7s-.7-.314-.7-.7v-3.4c0-.386.314-.7.7-.7s.7.314.7.7zm7.787-4.75-1.015 5.588c-.12.668-.62 1.462-1.555 1.462s-1.442-.837-1.546-1.416l-1.037-5.637c-.091-.492.287-.946.788-.946.387 0 .719.276.788.657l1.007 5.488.984-5.482c.069-.384.403-.664.793-.664.503 0 .883.455.793.95z"/></svg>