<svg id="Layer_1" viewBox="0 0 24 24" xmlns="http://www.w3.org/2000/svg" data-name="Layer 1"><path d="m19 10.171c1.164.413 2 1.525 2 2.829 0 .553.447 1 1 1s1-.447 1-1c0-2.414-1.721-4.434-4-4.899v-.601c0-4.136-3.364-7.5-7.5-7.5s-7.5 3.364-7.5 7.5v.601c-2.279.465-4 2.484-4 4.899.012 2.319 1.629 4.758 3.928 4.999 1.104.024 2.097-.949 2.072-2.062v-8.437c0-3.032 2.468-5.5 5.5-5.5s5.5 2.468 5.5 5.5v5.5c0 .553.447 1 1 1s1-.447 1-1zm-15 5.879c-1.152-.434-2-1.773-2-3.049 0-1.304.836-2.416 2-2.829v5.879zm17.5-.049h-1.7c-.442 0-.8.358-.8.8v6.4c0 .442.358.8.8.8.442 0 .8-.358.8-.8v-2.2h.922c1.375 0 2.478-1 2.478-2.5 0-1.381-1.119-2.5-2.5-2.5zm0 3.4h-.9v-1.8h.9c.496 0 .9.404.9.9s-.404.9-.9.9zm-11-3.4h-1.7c-.442 0-.8.358-.8.8v6.4c0 .442.358.8.8.8.442 0 .8-.358.8-.8v-2.2h.922c1.375 0 2.492-1.125 2.478-2.5 0-1.381-1.119-2.5-2.5-2.5zm0 3.4h-.9v-1.8h.9c.496 0 .9.404.9.9s-.404.9-.9.9zm5.2-3.4c-1.269 0-2.3 1.031-2.3 2.3v3.4c0 1.269 1.031 2.3 2.3 2.3s2.3-1.031 2.3-2.3v-3.4c0-1.269-1.031-2.3-2.3-2.3zm.7 5.7c0 .386-.314.7-.7.7s-.7-.314-.7-.7v-3.4c0-.386.314-.7.7-.7s.7.314.7.7zm-6.8-14.901v2.2h1.078l.7-2.407c.102-.351.424-.593.79-.593h.008c.555 0 .951.538.786 1.067l-.92 2.959.915 2.903c.167.53-.229 1.07-.785 1.07-.368 0-.691-.244-.792-.598l-.798-2.804-.983.002v2.6c0 .442-.358.8-.8.8-.442 0-.8-.358-.8-.8v-6.399c0-.442.358-.8.8-.8.442 0 .8.358.8.8zm4.2 4c-.442 0-.8-.358-.8-.8s.358-.8.8-.8h.4c.442 0 .8.358.8.8s-.358.8-.8.8z"/></svg>