<svg id="Layer_1" viewBox="0 0 24 24" xmlns="http://www.w3.org/2000/svg" data-name="Layer 1"><path d="m19 2h-11.556c-.694-1.19-1.97-2-3.444-2-2.206 0-4 1.794-4 4v15c0 2.757 2.243 5 5 5h14c2.757 0 5-2.243 5-5v-12c0-2.757-2.243-5-5-5zm-17 2c0-1.103.897-2 2-2s2 .897 2 2v12c0 1.103-.897 2-2 2s-2-.897-2-2zm20 15c0 1.654-1.346 3-3 3h-14c-1.494 0-2.725-1.1-2.953-2.531.58.328 1.24.531 1.953.531 2.206 0 4-1.794 4-4v-12h11c1.654 0 3 1.346 3 3zm-3-1.5c0 .828-.672 1.5-1.5 1.5s-1.5-.672-1.5-1.5.672-1.5 1.5-1.5 1.5.672 1.5 1.5zm-5 0c0 .828-.672 1.5-1.5 1.5s-1.5-.672-1.5-1.5.672-1.5 1.5-1.5 1.5.672 1.5 1.5zm3.5-10.5h-5c-.828 0-1.5.672-1.5 1.5v4c-.002.847.705 1.527 1.55 1.5.232-1.141 1.24-2 2.45-2s2.218.859 2.45 2c.846.027 1.552-.653 1.55-1.5v-4c0-.828-.672-1.5-1.5-1.5zm-2.5 4c-.828 0-1.5-.672-1.5-1.5s.672-1.5 1.5-1.5 1.5.672 1.5 1.5-.672 1.5-1.5 1.5z"/></svg>