<svg id="Layer_1" viewBox="0 0 24 24" xmlns="http://www.w3.org/2000/svg" data-name="Layer 1"><path d="m13 2c0-1.105.895-2 2-2s2 .895 2 2-.895 2-2 2-2-.895-2-2zm10.744 19.565c-.368-.41-1.001-.445-1.412-.075-.366.329-.839.51-1.332.51-.89 0-1.793-.585-2.057-1.333-.141-.4-.519-.667-.943-.667s-.802.267-.943.667c-.264.748-1.167 1.333-2.057 1.333s-1.793-.585-2.057-1.333c-.141-.4-.519-.667-.943-.667s-.802.267-.943.667c-.264.748-1.167 1.333-2.057 1.333s-1.793-.585-2.057-1.333c-.141-.4-.519-.667-.943-.667s-.802.267-.943.667c-.264.748-1.167 1.333-2.057 1.333-.493 0-.965-.181-1.332-.51-.411-.369-1.043-.335-1.412.075-.369.411-.335 1.043.075 1.412.734.66 1.682 1.023 2.668 1.023 1.127 0 2.222-.472 3-1.225.778.753 1.873 1.225 3 1.225s2.222-.472 3-1.225c.778.753 1.873 1.225 3 1.225s2.222-.472 3-1.225c.778.753 1.873 1.225 3 1.225.987 0 1.935-.363 2.668-1.023.411-.369.444-1.001.075-1.412zm-21.57-9.108c.226-.317.611-.457 1.116-.457 1.45 0 3.955 1.02 6.448 2.374l.907-1.433-1.295-.85c-.698-.458-1.182-1.192-1.329-2.014s.054-1.678.55-2.35l1.278-1.728h-1.779c-.335 0-.646.167-.832.445l-1.406 2.109c-.307.459-.927.583-1.387.277-.459-.306-.583-.927-.277-1.387l1.406-2.109c.558-.836 1.491-1.336 2.496-1.336h2.085c.652 0 1.289.168 1.863.471.051.025 8.539 5.699 8.539 5.699.458.308.581.929.272 1.388-.31.462-.935.578-1.388.272l-4.658-3.128-1.528 2.083 1.044.567c.65.353 1.141.941 1.373 1.644l1.273 3.616c.225.684-.284 1.388-1.004 1.388h-3.942l1.119-1.825c.644.333 1.335.673 1.941 1.009l-1.109-3.293c-.104-.333-.334-.611-.642-.775l-.352-.187c-.026.085-.047.171-.096.25l-2.603 4.091c-.271.452-.759.729-1.286.729h-1.055c-.623 0-1.231-.197-1.741-.555-2.768-1.943-4.767-3.914-4.001-4.988zm8.678-1.772 2.271-3.098-1.309-.879-1.635 2.21c-.359.464-.229 1.191.269 1.502z"/></svg>