<svg id="Layer_1" viewBox="0 0 24 24" xmlns="http://www.w3.org/2000/svg" data-name="Layer 1"><path d="m9.033 11.19c.284.161.467.517.467.935 0 1.034.838 1.875 1.869 1.875h1.262c1.031 0 1.869-.838 1.869-1.922 0-.378.178-.724.454-.88 1.879-1.062 3.046-3.054 3.046-5.198 0-1.817-.811-3.517-2.223-4.663-1.413-1.145-3.263-1.582-5.073-1.2-2.307.487-4.153 2.376-4.593 4.701-.487 2.572.66 5.065 2.923 6.353zm-.958-5.98c.292-1.542 1.515-2.794 3.042-3.116 1.237-.262 2.444.022 3.4.797.942.764 1.483 1.897 1.483 3.109 0 1.424-.778 2.749-2.03 3.457-.4.226-.722.556-.97.944v-3.508c.4-.212.734-.532.935-.939.218-.44-.143-.954-.634-.954h-2.602c-.491 0-.852.514-.634.954.201.407.535.726.935.938v3.514c-.249-.39-.574-.725-.979-.955-1.508-.858-2.271-2.522-1.946-4.242zm15.925 1.791v10.792c0 2.417-1.727 4.486-4.105 4.919l-6.285 1.143c-1.068.194-2.152.194-3.22 0l-6.284-1.143c-2.379-.433-4.106-2.502-4.106-4.919v-10.792c0-2.045 1.226-3.865 3.124-4.636.513-.208 1.096.039 1.303.55.208.512-.038 1.095-.55 1.303-1.14.463-1.876 1.556-1.876 2.783v10.792c0 1.451 1.036 2.692 2.464 2.952l6.284 1.143c.084.015.168.011.252.023v-4.91c0-.552.448-1 1-1s1 .448 1 1v4.91c.084-.012.169-.008.252-.023l6.284-1.143c1.427-.26 2.463-1.501 2.463-2.952v-10.792c0-1.228-.736-2.32-1.876-2.783-.512-.208-.758-.791-.55-1.303.208-.511.789-.759 1.303-.55 1.897.771 3.124 2.59 3.124 4.636z"/></svg>