<svg id="Layer_1" viewBox="0 0 24 24" xmlns="http://www.w3.org/2000/svg" data-name="Layer 1"><path d="m15 5.5c0-.828.672-1.5 1.5-1.5s1.5.672 1.5 1.5-.672 1.5-1.5 1.5-1.5-.672-1.5-1.5zm8.96 9.003c-.109.67-.464 1.257-.96 1.698v1.799c0 3.309-2.691 6-6 6h-10c-3.309 0-6-2.691-6-6v-1.563c-.612-.548-1-1.433-1-2.334 0-1.201.713-2.327 1.735-2.806-.459-.651-.735-1.441-.735-2.296v-2c0-3.861 3.141-7.001 7-7.001h8c3.859 0 7 3.14 7 7v2c0 .853-.273 1.64-.729 2.29.385.18.733.441 1.015.774.571.671.816 1.561.674 2.439zm-20.96-5.503c0 1.103.897 2 2 2h14c1.103 0 2-.897 2-2v-2c0-2.757-2.243-5-5-5h-8c-2.757 0-5 2.243-5 5zm18 7.997c-.353 0-.812.107-1.126.294-.461.272-.89.579-1.275.914-1.187 1.031-3.009 1.019-4.234-.033-.415-.35-.937-.43-1.357-.224-.693.341-1.335.766-1.908 1.263-.609.529-1.355.794-2.102.794-.743 0-1.485-.263-2.091-.789-1.074-.944-1.957-1.701-3.906-2.01v.793c0 2.206 1.794 4 4 4h10c2.206 0 4-1.794 4-4v-1.003zm.985-2.815c.05-.303-.029-.595-.223-.822-.19-.225-.469-.353-.763-.353h-17.999c-.552 0-1 .545-1 1.096 0 .491.324.991.738 1.042 2.993.376 4.196 1.433 5.48 2.562.45.392 1.11.391 1.568-.006.703-.61 1.489-1.131 2.338-1.548 1.136-.558 2.513-.372 3.509.474.512.438 1.209.454 1.653.068.478-.414 1.006-.793 1.57-1.125.621-.368 1.326-.562 2.036-.562.537 0 1.017-.362 1.092-.825zm-9.485-5.182c.828 0 1.5-.672 1.5-1.5s-.672-1.5-1.5-1.5-1.5.672-1.5 1.5.672 1.5 1.5 1.5z"/></svg>