<?xml version="1.0" encoding="UTF-8"?>
<svg xmlns="http://www.w3.org/2000/svg" id="Layer_1" data-name="Layer 1" viewBox="0 0 24 24">
  <path d="M10,5.5c0,1.381-1.119,2.5-2.5,2.5s-2.5-1.119-2.5-2.5,1.119-2.5,2.5-2.5,2.5,1.119,2.5,2.5Zm14-.5v12c0,2.757-2.243,5-5,5h-2c-.553,0-1-.448-1-1s.447-1,1-1h2c.556,0,1.071-.162,1.518-.427l-2.15-2.262c-.188-.197-.453-.311-.726-.311h-5.993l2.495,5.593c.226,.504,0,1.096-.506,1.32-.492,.224-1.095,.003-1.32-.506l-.628-1.407H5c-2.757,0-5-2.243-5-5V5C0,2.243,2.243,0,5,0h14c2.757,0,5,2.243,5,5ZM10.757,15h2.135l-2.285-5.124-.755,.431c-.358,.205-.97,.749-.97,.749l1.876,3.943Zm9.059,.933l1.991,2.095c.118-.322,.193-.665,.193-1.027V5c0-1.654-1.346-3-3-3H5c-1.654,0-3,1.346-3,3v12c0,1.654,1.346,3,3,3h5.798l-3.157-7.079-1.707,4.438c-.199,.521-.79,.771-1.293,.575-.515-.198-.772-.777-.574-1.292l1.732-4.505c.577-1.5,1.664-2.767,3.061-3.565l4.971-2.84,1.031-1.341c.337-.438,.964-.521,1.402-.183,.438,.337,.52,.965,.184,1.402l-1.154,1.5c-.081,.105-.182,.193-.297,.258l-2.645,1.511,2.73,6.121h2.561c.817,0,1.61,.34,2.175,.933Z"/>
</svg>
