<svg id="Layer_1" viewBox="0 0 24 24" xmlns="http://www.w3.org/2000/svg" data-name="Layer 1"><path d="m3 5.5c0-.828.672-1.5 1.5-1.5s1.5.672 1.5 1.5-.672 1.5-1.5 1.5-1.5-.672-1.5-1.5zm5.5 1.5c.828 0 1.5-.672 1.5-1.5s-.672-1.5-1.5-1.5-1.5.672-1.5 1.5.672 1.5 1.5 1.5zm15.5-1v12c0 2.757-2.243 5-5 5h-14c-2.757 0-5-2.243-5-5v-12c0-2.757 2.243-5 5-5h14c2.757 0 5 2.243 5 5zm-15 10v5h6v-5zm13-2v-4h-20v4zm-20-8v2h20v-2c0-1.654-1.346-3-3-3h-14c-1.654 0-3 1.346-3 3zm3 15h2v-5h-5v2c0 1.654 1.346 3 3 3zm17-3v-2h-5v5h2c1.654 0 3-1.346 3-3z"/></svg>