<svg id="Layer_1" viewBox="0 0 24 24" xmlns="http://www.w3.org/2000/svg" data-name="Layer 1"><path d="m5 9.5c0-1.381 1.119-2.5 2.5-2.5s2.5 1.119 2.5 2.5-1.119 2.5-2.5 2.5-2.5-1.119-2.5-2.5zm19 7.5v-10c0-2.757-2.243-5-5-5h-14c-2.757 0-5 2.243-5 5v10c0 2.757 2.243 5 5 5h14c2.757 0 5-2.243 5-5zm-5-13c1.654 0 3 1.346 3 3v10c0 1.654-1.346 3-3 3h-14c-1.654 0-3-1.346-3-3v-10c0-1.654 1.346-3 3-3zm1 4c0-.552-.447-1-1-1h-5c-.553 0-1 .448-1 1s.447 1 1 1h5c.553 0 1-.448 1-1zm0 4c0-.552-.447-1-1-1h-5c-.553 0-1 .448-1 1s.447 1 1 1h5c.553 0 1-.448 1-1zm-2 4c0-.553-.447-1-1-1h-3c-.553 0-1 .447-1 1s.447 1 1 1h3c.553 0 1-.447 1-1zm-7.797.979c.541-.112.889-.642.776-1.183-.335-1.62-1.799-2.797-3.479-2.797s-3.144 1.177-3.479 2.797c-.112.541.235 1.07.776 1.183.538.107 1.07-.236 1.182-.776.145-.697.784-1.203 1.521-1.203s1.376.506 1.521 1.203c.109.544.654.889 1.182.776z"/></svg>