<svg id="Layer_1" viewBox="0 0 24 24" xmlns="http://www.w3.org/2000/svg" data-name="Layer 1"><path d="m6.155 10.382 4.845 4.845v.773s0 1-1 1c-.552 0-1-.448-1-1v-1h-1v1c0 .552-.448 1-1 1s-1-.448-1-1v-2.875h-.002s-.371.315-.371.315c-.426.337-1.042.275-1.392-.141-.362-.431-.299-1.075.139-1.427 0 0 1.779-1.49 1.781-1.49zm9.345-1.382c.828 0 1.5-.672 1.5-1.5s-.672-1.5-1.5-1.5-1.5.672-1.5 1.5.672 1.5 1.5 1.5zm8.5 3c0 6.617-5.383 12-12 12s-12-5.383-12-12 5.383-12 12-12 12 5.383 12 12zm-12-10c-2.398 0-4.6.85-6.325 2.262l1.992 1.991c.238-.16.525-.253.833-.253.828 0 1.5.672 1.5 1.5 0 .308-.094.595-.253.833l3.281 3.281c.174-.933 1.013-1.618 1.96-1.614h1.024c.883 0 1.662.579 1.916 1.425l.884 3.027s.726 1.548-.812 1.548v.586l1.738 1.738c1.412-1.725 2.262-3.927 2.262-6.324 0-5.514-4.486-10-10-10zm0 20c2.397 0 4.599-.85 6.324-2.262l-14.062-14.062c-1.412 1.725-2.262 3.926-2.262 6.324 0 5.514 4.486 10 10 10z"/></svg>