<svg id="Layer_1" viewBox="0 0 24 24" xmlns="http://www.w3.org/2000/svg" data-name="Layer 1"><path d="m23 20.5c0-1.007.725-1.812.728-1.814.344-.394.34-.969.005-1.366-.008-.008-.733-.812-.733-1.819s.725-1.812.728-1.814c.273-.291.348-.716.19-1.082s-.519-.604-.918-.604h-5.5c-.552 0-1 .448-1 1s.448 1 1 1h3.768c-.157.437-.268.943-.268 1.5s.115 1.062.273 1.5h-17.773c-.827 0-1.5-.673-1.5-1.5s.673-1.5 1.5-1.5h3c.552 0 1-.448 1-1s-.448-1-1-1h-3c-1.93 0-3.5 1.57-3.5 3.5 0 .98.407 1.864 1.058 2.5-.651.636-1.058 1.52-1.058 2.5 0 1.93 1.57 3.5 3.5 3.5h19.5c.396 0 .753-.237.913-.6s.088-.789-.18-1.081c-.008-.008-.733-.812-.733-1.819zm-19.5 1.5c-.827 0-1.5-.673-1.5-1.5s.673-1.5 1.5-1.5h17.773c-.158.438-.273.941-.273 1.5s.111 1.063.268 1.5zm5.533-10.81c.284.161.467.518.467.935 0 1.034.838 1.875 1.869 1.875h1.262c1.031 0 1.869-.838 1.869-1.922 0-.378.178-.724.454-.88 1.879-1.062 3.046-3.054 3.046-5.198 0-1.817-.811-3.517-2.223-4.663-1.413-1.145-3.262-1.582-5.073-1.2-2.307.487-4.153 2.376-4.593 4.701-.488 2.572.659 5.065 2.923 6.353zm-.958-5.98c.292-1.542 1.515-2.794 3.042-3.116 1.237-.262 2.444.022 3.4.797.942.764 1.483 1.897 1.483 3.109 0 1.424-.778 2.749-2.03 3.457-.4.226-.722.556-.97.944v-3.508c.4-.212.734-.532.935-.939.218-.44-.143-.954-.634-.954h-2.602c-.491 0-.852.514-.634.954.201.407.535.727.935.939v3.514c-.249-.39-.575-.726-.979-.955-1.508-.858-2.271-2.522-1.946-4.242z"/></svg>