<svg id="Layer_1" viewBox="0 0 24 24" xmlns="http://www.w3.org/2000/svg" data-name="Layer 1"><path d="m19 11c-.552 0-1-.448-1-1 0-2.354-.679-3.993-2.343-5.657-1.511-1.511-3.52-2.343-5.657-2.343s-4.146.832-5.657 2.343c-3.119 3.119-3.119 8.194 0 11.313l3.77 3.623c.513.493 1.187.769 1.898.777.552.006.995.459.989 1.011-.006.548-.453.989-1 .989h-.011c-1.222-.014-2.381-.488-3.262-1.335l-3.784-3.637c-3.913-3.913-3.913-10.257-.014-14.156 1.888-1.888 4.399-2.928 7.071-2.928s5.182 1.04 7.071 2.929c2.053 2.053 2.929 4.167 2.929 7.071 0 .552-.448 1-1 1zm-5-1c0 2.206-1.794 4-4 4s-4-1.794-4-4 1.794-4 4-4 4 1.794 4 4zm-2 0c0-1.103-.897-2-2-2s-2 .897-2 2 .897 2 2 2 2-.897 2-2zm8 12c-.552 0-1 .448-1 1s.448 1 1 1 1-.448 1-1-.448-1-1-1zm3-3c-.552 0-1 .448-1 1s.448 1 1 1 1-.448 1-1-.448-1-1-1zm-3 0c-.552 0-1 .448-1 1s.448 1 1 1 1-.448 1-1-.448-1-1-1zm-2-4v1c0 1.103-.897 2-2 2h-1c-1.103 0-2-.897-2-2v-1c0-1.103.897-2 2-2h1c1.103 0 2 .897 2 2zm-1.999 1v-1h-1.001v1zm1.999 5v1c0 1.103-.897 2-2 2h-1c-1.103 0-2-.897-2-2v-1c0-1.103.897-2 2-2h1c1.103 0 2 .897 2 2zm-1.999 1v-1h-1.001v1zm7.999-7v1c0 1.103-.897 2-2 2h-1c-1.103 0-2-.897-2-2v-1c0-1.103.897-2 2-2h1c1.103 0 2 .897 2 2zm-1.999 1v-1h-1.001v1z"/></svg>