<svg id="Layer_1" viewBox="0 0 24 24" xmlns="http://www.w3.org/2000/svg" data-name="Layer 1"><path d="m12 0c-4.962 0-9 4.037-8.997 9.081l.835 10.322c.209 2.577 2.398 4.597 4.984 4.597h6.453c2.611 0 4.802-2.04 4.987-4.644l.734-10.421c-.035-4.933-4.056-8.935-8.997-8.935zm-6.91 10.105c1.034.21 3.166.793 5.427 2.272-1.773 1.616-3.454 3.824-4.687 6.843l-.741-9.115zm13.179 9.109c-.112 1.562-1.427 2.786-2.993 2.786h-6.453c-.621 0-1.199-.201-1.683-.533 2.778-8.596 9.152-10.765 11.775-11.299l-.646 9.045zm-.694-10.747c-.523-.877-1.479-1.466-2.575-1.466-1.657 0-3 1.343-3 3 0 .364.069.71.19 1.03-.723-.511-1.486-.905-2.172-1.261.095-2.031 1.4-3.74 3.215-4.431-.641-.809-1.621-1.338-2.733-1.338-1.933 0-3.5 1.567-3.5 3.5 0 .384.079.745.195 1.089-.937-.299-1.683-.45-2.125-.523.459-3.418 3.388-6.066 6.93-6.066 3.57 0 6.519 2.687 6.943 6.145-.373.07-.836.172-1.368.322z"/></svg>