<svg id="Layer_1" viewBox="0 0 24 24" xmlns="http://www.w3.org/2000/svg" data-name="Layer 1"><path d="m13.025 3v-2c0-.552.447-1 1-1s1 .448 1 1v2c0 .552-.447 1-1 1s-1-.448-1-1zm-7 1c.553 0 1-.448 1-1v-2c0-.552-.447-1-1-1s-1 .448-1 1v2c0 .552.447 1 1 1zm4 0c.553 0 1-.448 1-1v-2c0-.552-.447-1-1-1s-1 .448-1 1v2c0 .552.447 1 1 1zm13.975 8.461c0 2.017-1.72 3.539-4 3.539h-2.677c-.95 2.013-3.054 3.783-5.325 3.916-.479 0-.902-.346-.985-.834-.092-.544.275-1.061.82-1.152 2.41-.406 4.159-2.48 4.159-4.93v-4c0-.551-.448-1-1-1h-10c-.552 0-1 .449-1 1s-.447 1-1 1-1-.448-1-1c0-1.654 1.346-3 3-3h10c1.654 0 3 1.346 3 3h2.008c2.317 0 4 1.456 4 3.461zm-2 0c0-1.154-1.257-1.461-2-1.461h-2.008v2c0 .34-.031.672-.077 1h2.085c.994 0 2-.528 2-1.539zm-10.002 7.455c-.056.003.055 0 0 0zm-11.707-3.887c-.388-.247-.388-.81 0-1.057.525-.334 1.301-.707 2.17-.73-.598-.631-.883-1.443-1.018-2.051-.1-.449.299-.848.748-.748.607.135 1.419.42 2.051 1.018.023-.869.396-1.645.73-2.17.247-.388.81-.388 1.057 0 .334.525.707 1.301.73 2.17.631-.598 1.443-.883 2.051-1.018.449-.1.848.298.748.748-.135.608-.42 1.42-1.018 2.051.869.023 1.645.396 2.17.73.388.247.388.81 0 1.057-.525.334-1.301.707-2.17.73.598.631.883 1.443 1.018 2.051.1.449-.298.848-.748.748-.607-.135-1.419-.42-2.051-1.018-.023.869-.396 1.645-.73 2.17-.247.388-.81.388-1.057 0-.334-.525-.707-1.301-.73-2.17-.631.598-1.443.883-2.051 1.018-.449.1-.848-.298-.748-.748.135-.607.42-1.419 1.018-2.051-.869-.023-1.645-.396-2.17-.73zm3.441-.175.986.429.429.987c.134.308.571.307.703-.002l.425-.992.996-.427c.308-.132.31-.569.002-.703l-.987-.431-.43-.987c-.134-.307-.571-.306-.703.002l-.426.996-.992.424c-.309.132-.31.569-.002.703zm15.268 6.146h-18c-.553 0-1 .447-1 1s.447 1 1 1h18c.553 0 1-.447 1-1s-.447-1-1-1z"/></svg>