<svg id="Layer_1" viewBox="0 0 24 24" xmlns="http://www.w3.org/2000/svg" data-name="Layer 1"><path d="m13 15h-.33l-.219 1.655c-.327 2.477-2.458 4.345-4.957 4.345h-.494c0 1.654-1.346 3-3 3h-3c-.552 0-1-.447-1-1s.448-1 1-1h3c.551 0 1-.448 1-1v-1c0-.553.448-1 1-1h1.494c1.499 0 2.778-1.12 2.974-2.606l.334-2.524c.065-.497.49-.869.991-.869h1.207c-.082-.807-2.458-5.722-3.777-7.353-1.93-2.576-4.955-3.913-8.126-3.604-.552.049-1.038-.349-1.092-.898s.349-1.039.898-1.092c3.87-.382 7.568 1.256 9.897 4.365 1.268 1.566 4.2 7.161 4.2 8.581 0 .97-.701 2-2 2zm10.953-3.429c-.467 2.179-1.171 5.601-1.712 8.235-.38 1.851-2.027 3.193-3.917 3.193h-2.33c-1.1 0-1.994-.897-1.994-2v-2c0-1.103.897-2 2-2h.619l1.464-6.195c.254-1.076 1.218-1.771 2.457-1.771h1.361c.637 0 1.232.284 1.633.779.4.495.553 1.136.42 1.759zm-3.924-.308-.41 1.736h1.988c.103-.49.273-1.31.357-1.719.027-.131-.074-.248-.207-.248h-1.339c-.17 0-.341.03-.388.23zm.253 8.141c.278-1.353.598-2.911.908-4.404h-2.043l-.763 3.229c-.106.452-.509.771-.973.771h-1.41v2h2.324c.944 0 1.768-.671 1.958-1.596z"/></svg>