<?xml version="1.0" encoding="UTF-8"?>
<svg xmlns="http://www.w3.org/2000/svg" id="Layer_1" data-name="Layer 1" viewBox="0 0 24 24">
  <path d="M18,8c2.206,0,4-1.794,4-4S20.206,0,18,0s-4,1.794-4,4,1.794,4,4,4Zm0-6c1.103,0,2,.897,2,2s-.897,2-2,2-2-.897-2-2,.897-2,2-2ZM8,11c0,2.206,1.794,4,4,4s4-1.794,4-4-1.794-4-4-4-4,1.794-4,4Zm4-2c1.103,0,2,.897,2,2s-.897,2-2,2-2-.897-2-2,.897-2,2-2Zm-6-1c2.206,0,4-1.794,4-4S8.206,0,6,0,2,1.794,2,4s1.794,4,4,4Zm0-6c1.103,0,2,.897,2,2s-.897,2-2,2-2-.897-2-2,.897-2,2-2ZM23,22h-5c0-3.309-2.691-6-6-6s-6,2.691-6,6H1c-.553,0-1,.447-1,1s.447,1,1,1H23c.553,0,1-.447,1-1s-.447-1-1-1Zm-11-4c2.206,0,4,1.794,4,4H8c0-2.206,1.794-4,4-4Zm12-2c0,.553-.447,1-1,1s-1-.447-1-1c0-1.922-1.375-3.65-3.199-4.02-.541-.11-.891-.638-.781-1.18,.11-.54,.633-.886,1.18-.781,2.781,.564,4.801,3.08,4.801,5.98ZM0,16c0-2.9,2.02-5.416,4.801-5.98,.55-.102,1.069,.241,1.18,.781,.109,.542-.24,1.069-.781,1.18-1.824,.369-3.199,2.098-3.199,4.02,0,.553-.447,1-1,1s-1-.447-1-1Z"/>
</svg>
