<svg id="Layer_1" viewBox="0 0 24 24" xmlns="http://www.w3.org/2000/svg" data-name="Layer 1"><path d="m6 5c.552 0 1 .448 1 1v6c0 .552-.448 1-1 1s-1-.448-1-1v-6c0-.552.448-1 1-1zm13-5h-14c-2.757 0-5 2.243-5 5v8c0 2.757 2.243 5 5 5h5c.552 0 1-.448 1-1s-.448-1-1-1h-5c-1.654 0-3-1.346-3-3v-8c0-1.654 1.346-3 3-3h14c1.654 0 3 1.346 3 3v7c0 .552.448 1 1 1s1-.448 1-1v-7c0-2.757-2.243-5-5-5zm3.357 14.527c.58.5.807 1.294.579 2.024-.229.73-.868 1.255-1.629 1.336l-1.815.193 2.266 4.467c.25.492.053 1.094-.44 1.344-.483.247-1.093.057-1.344-.44l-2.292-4.518-1.469 1.343c-.365.333-.82.506-1.286.506-1.034.012-1.952-.875-1.927-1.922v-7.709c0-.851.48-1.6 1.254-1.955.773-.354 1.654-.229 2.299.327l5.803 5.003zm-1.449 1.391-5.66-4.88c-.096-.086-.248-.023-.248.113v7.524l2.394-2.188c.158-.144.357-.233.569-.256l2.945-.312z"/></svg>