<svg id="Layer_1" viewBox="0 0 24 24" xmlns="http://www.w3.org/2000/svg" data-name="Layer 1"><path d="m19 2h-1v-1c0-.552-.448-1-1-1s-1 .448-1 1v1h-8v-1c0-.552-.448-1-1-1s-1 .448-1 1v1h-1c-2.757 0-5 2.243-5 5v12c0 1.526.684 2.948 1.875 3.902.428.344 1.058.278 1.406-.155.345-.431.275-1.061-.156-1.405-.715-.573-1.125-1.427-1.125-2.342v-9h20v3c0 .553.448 1 1 1s1-.447 1-1v-6c0-2.757-2.243-5-5-5zm-17 6v-1c0-1.654 1.346-3 3-3h14c1.654 0 3 1.346 3 3v1zm9.825 9.038.445 6.142c.034.463-.333.858-.798.858-.419 0-.768-.324-.798-.742l-.265-3.66-.798 1.756c-.304.668-1.253.668-1.557 0l-.798-1.756-.265 3.66c-.03.418-.379.742-.798.742-.465 0-.832-.394-.798-.858l.445-6.142c.043-.705.472-1 .988-1 .342 0 .66.242.841.64l1.164 2.56 1.164-2.56c.181-.398.499-.64.841-.64.516 0 .945.295.988 1zm4.354-1c-.873-.001-1.575.717-1.742 1.581l-1.165 5.479c-.103.484.266.939.76.939.365 0 .68-.253.759-.61l.175-.79h2.379l.165.782c.076.36.393.617.761.617.509.026.911-.437.804-.937l-1.142-5.435c-.19-.937-.859-1.621-1.753-1.627zm-.86 5 .686-3.104c.03-.149.105-.253.176-.296l.017.006c.024.016.121.118.168.349l.641 3.044h-1.688zm8.603-3.919-1.687 3.442v2.678c0 .442-.358.8-.8.8s-.8-.358-.8-.8v-2.749l-1.652-3.37c-.244-.498.119-1.08.674-1.08.286 0 .548.163.674.42l1.122 2.29 1.122-2.29c.126-.257.387-.42.674-.42.555 0 .918.582.674 1.08z"/></svg>