<svg id="Layer_1" viewBox="0 0 24 24" xmlns="http://www.w3.org/2000/svg" data-name="Layer 1"><path d="m19 3h-6.528c-.154 0-.31-.036-.448-.105l-3.155-1.578c-.415-.207-.878-.316-1.341-.316h-2.528c-2.757-.001-5 2.242-5 4.999v12c0 2.757 2.243 5 5 5h14c2.757 0 5-2.243 5-5v-10c0-2.757-2.243-5-5-5zm3 15c0 1.654-1.346 3-3 3h-14c-1.654 0-3-1.346-3-3v-12c0-1.654 1.346-3 3-3h2.528c.154 0 .31.036.447.105l3.155 1.578c.415.207.878.316 1.341.316h6.528c1.654 0 3 1.346 3 3v10zm-4-9v-1c0-.553-.448-1-1-1s-1 .447-1 1v1h-1.508c-.086-.225-.163-.413-.218-.525-.435-.924-1.285-1.475-2.274-1.475-.882 0-1.69.482-2.167 1.3-.117.205-.223.445-.323.7h-1.511v-1c0-.553-.448-1-1-1s-1 .447-1 1v1c0 1.103.897 2 2 2h.89c-.087.314-.176.653-.264 1h-1.626c-.552 0-1 .447-1 1s.448 1 1 1h1.195c-.062.38-.101.721-.108 1-1.133-.046-2.09.864-2.087 2v1c0 .553.448 1 1 1s1-.447 1-1v-1h.606c.673 1.188 1.934 2 3.394 2s2.72-.812 3.394-2h.606v1c0 .553.448 1 1 1s1-.447 1-1v-1c.003-1.136-.955-2.046-2.087-2-.006-.282-.044-.622-.106-1h1.193c.552 0 1-.447 1-1s-.448-1-1-1h-1.624c-.087-.347-.177-.687-.264-1h.888c1.103 0 2-.897 2-2zm-6 8c-1.057 0-1.916-.86-1.916-1.917 0-.936.768-3.825 1.187-5.088.092-.277.195-.521.295-.696.111-.19.269-.299.434-.299.312 0 .423.237.47.336.064.133.154.349.263.671.343 1.019 1.184 4.058 1.184 5.076 0 1.057-.859 1.917-1.916 1.917z"/></svg>