<svg id="Layer_1" viewBox="0 0 24 24" xmlns="http://www.w3.org/2000/svg" data-name="Layer 1"><path d="m21 14.489v-.489c0-.553-.447-1-1-1s-1 .447-1 1v.016c-.058-.002-.113-.016-.172-.016-1.008 0-1.828.82-1.828 1.828v6.172c0 1.299 1.03 2 2 2 1.406 0 2.755-.597 3.701-1.638.944-1.039 1.41-2.442 1.275-3.85-.171-1.791-1.362-3.291-2.977-4.024zm.221 6.529c-.567.624-1.377.982-2.221.982v-5.995c1.551.079 2.847 1.235 2.986 2.697.082.86-.19 1.683-.766 2.315zm2.772-13.103c0 .272-.091.679-.523 1.062l-2.354 1.757c-.19.173-.472.27-.77.27-.188 0-.383-.039-.566-.121-.462-.207-.761-.661-.761-1.155v-2.002l-.409.299c-.441.325-1.07.232-1.397-.216-.326-.446-.229-1.071.216-1.397l1.245-.911-1.245-.911c-.445-.326-.542-.951-.216-1.397.325-.445.949-.543 1.397-.216l.409.299v-2.003c0-.494.299-.948.761-1.155.447-.2.959-.143 1.332.146 0 0 2.306 1.556 2.34 1.586.365.325.55.698.549 1.108 0 .409-.187.779-.552 1.101-.03.027-2.091 1.432-2.091 1.432s2.013 1.262 2.054 1.298c.144.127.581.514.582 1.127zm-9.745-3.632c-.732-.188-1.489-.283-2.248-.283-4.963 0-9 4.037-9 9v1.489c-1.615.733-2.806 2.233-2.977 4.024-.135 1.407.331 2.811 1.275 3.85.946 1.041 2.295 1.638 3.701 1.638.97 0 2-.701 2-2v-6.172c0-1.008-.82-1.828-1.828-1.828-.059 0-.114.014-.172.016v-1.016c0-3.859 3.141-7 7-7 .592 0 1.181.074 1.752.221.528.139 1.079-.185 1.217-.721.137-.534-.186-1.079-.721-1.217zm-9.248 17.717c-.844 0-1.653-.358-2.221-.982-.575-.633-.848-1.455-.766-2.315.14-1.462 1.436-2.618 2.986-2.697v5.995z"/></svg>