<svg id="Layer_1" viewBox="0 0 24 24" xmlns="http://www.w3.org/2000/svg" data-name="Layer 1"><path d="m22 4h-2.142c-.447-1.72-2-3-3.858-3h-3.203c-2.843 0-5.496 1.528-6.921 3.988l-5.221 9.008c-1.148 1.894-.744 4.514.933 5.96l-1.456 2.548c-.274.479-.107 1.09.372 1.364.471.272 1.089.112 1.364-.372l1.441-2.522c.474.158.962.239 1.448.239 1.651 0 3.271-.88 4.19-2.388l1.114-1.826h5.938c1.858 0 3.411-1.279 3.858-3h2.142c1.103 0 2-.897 2-2v-5.999c0-1.103-.897-2-2-2zm-4 9c0 1.103-.897 2-2 2h-6.5c-.349 0-.672.182-.854.479l-1.406 2.306c-.715 1.172-2.117 1.711-3.331 1.285-1.661-.526-2.428-2.594-1.525-4.068l5.222-9.011c1.069-1.845 3.058-2.991 5.191-2.991h3.203c1.103 0 2 .897 2 2zm4-1h-2v-6h2z"/><path d="m13.396 8h-.975l1.475-1.883c.341-.435.264-1.063-.17-1.404-.436-.34-1.064-.264-1.404.17l-2.053 2.626c-.327.493-.357 1.123-.077 1.645s.821.846 1.413.846h.975l-1.475 1.883c-.341.435-.264 1.063.17 1.404.431.339 1.062.267 1.404-.171l2.053-2.626c.327-.493.357-1.123.077-1.645s-.821-.846-1.413-.846z"/></svg>