<svg id="Layer_1" viewBox="0 0 24 24" xmlns="http://www.w3.org/2000/svg" data-name="Layer 1"><path d="m14 12c0 .828-.672 1.5-1.5 1.5s-1.5-.672-1.5-1.5.672-1.5 1.5-1.5 1.5.672 1.5 1.5zm3.5-1.5c-.828 0-1.5.672-1.5 1.5s.672 1.5 1.5 1.5 1.5-.672 1.5-1.5-.672-1.5-1.5-1.5zm5 0c-.828 0-1.5.672-1.5 1.5s.672 1.5 1.5 1.5 1.5-.672 1.5-1.5-.672-1.5-1.5-1.5zm-10.21-6.468-5.134 5.178c-1.53 1.466-1.53 4.112-.003 5.577l5.137 5.181c.389.392 1.022.395 1.414.006s.395-1.021.006-1.414l-5.14-5.184c-.756-.727-.755-2.027.003-2.755l5.137-5.181c.389-.392.386-1.025-.006-1.414-.393-.389-1.026-.387-1.414.006zm-9.72 9.344c-.756-.726-.755-2.027.002-2.754l8.137-8.185c.39-.392.388-1.025-.004-1.414-.392-.39-1.024-.387-1.414.004l-8.135 8.183c-1.53 1.467-1.53 4.112-.002 5.578l8.137 8.184c.389.391 1.023.394 1.414.004.392-.39.394-1.022.004-1.414z"/></svg>