<svg id="Layer_1" viewBox="0 0 24 24" xmlns="http://www.w3.org/2000/svg" data-name="Layer 1"><path d="m23.223 18.073c-.268-.388-.654-.675-1.118-.83l-4.348-1.465-.944-1.89c4.259-2.639 6.671-6.417 7.174-11.245.212-1.606-1.441-3.001-2.995-2.573l-8.383 2.065c-1.912.471-3.371 2.019-3.717 3.942-.333 1.85-1.053 3.262-1.441 3.922h-4.025c-1.022.012-3.051.621-3.413 2.839-.11.588.389 1.175.987 1.161h3.029c.903 1.063 3.414 3.807 5.942 4.705l-.762 2.057-.221.276c-1.033.153-1.989.781-1.989 1.962 0 .553.447 1 1 1 .519 0 .945-.395.995-.9.116-.051.341-.097.505-.1.304 0 .591-.138.781-.375l.904-1.13 2.133-2.495h2.583l3.191 3.224c.457.528 1.145.818 1.833.776 1.727-.105 2.475-.899 2.798-1.547.499-.996.321-2.197-.5-3.38zm-11.723-1.073c-1.83 0-4.786-2.837-6.22-4.625-.189-.237-.477-.375-.78-.375h3.5c.32 0 .621-.153.81-.413.061-.084 1.501-2.094 2.052-5.156.206-1.148 1.08-2.072 2.227-2.354l8.382-2.064c.347-.036.515.107.528.422-.076.724-.215 1.407-.385 2.071l-7.288 1.624c-.497.138-.397.87.119.87h6.262c-.359.712-.808 1.37-1.309 2h-5.91c-.523 0-.678.713-.201.929l4.018 1.151c-.693.552-1.441 1.074-2.289 1.545-.468.26-.648.842-.409 1.321l1.526 3.053h-4.632zm10.434 3.56c-.175.35-.849.427-1.13.444-.123.141-3.137-3.133-3.261-3.187.121.076 3.955 1.264 4.036 1.395.18.259.574.909.354 1.348z"/></svg>