<?xml version="1.0" encoding="UTF-8"?>
<svg xmlns="http://www.w3.org/2000/svg" id="Layer_1" data-name="Layer 1" viewBox="0 0 24 24">
  <path d="M24,13c0,.97-.701,2-2,2h-.33l-.219,1.655c-.327,2.477-2.458,4.345-4.957,4.345h-.494c0,1.654-1.346,3-3,3H6c-1.654,0-3-1.346-3-3v-.971c0-.896-.263-1.731-.74-2.355C1.02,16.053,.256,14.125,.054,12.099c-.055-.549,.346-1.04,.896-1.094,.557-.056,1.04,.347,1.094,.896,.165,1.656,.789,3.232,1.804,4.557,.743,.971,1.151,2.239,1.151,3.571v.971c0,.552,.449,1,1,1h7c.551,0,1-.448,1-1v-1c0-.553,.448-1,1-1h1.494c1.499,0,2.778-1.12,2.974-2.606l.334-2.524c.065-.497,.49-.869,.991-.869h1.207c-.082-.807-2.458-5.722-3.777-7.353-1.745-2.329-4.369-3.647-7.223-3.647-.552,0-1-.448-1-1s.448-1,1-1c3.49,0,6.697,1.61,8.8,4.418,1.268,1.566,4.2,7.161,4.2,8.582ZM1.5,3c.828,0,1.5-.672,1.5-1.5S2.328,0,1.5,0,0,.672,0,1.5s.672,1.5,1.5,1.5Zm5,2c.828,0,1.5-.672,1.5-1.5s-.672-1.5-1.5-1.5-1.5,.672-1.5,1.5,.672,1.5,1.5,1.5ZM1,6.5c0,.828,.672,1.5,1.5,1.5s1.5-.672,1.5-1.5-.672-1.5-1.5-1.5-1.5,.672-1.5,1.5Zm6,7.5c.35,0,.683-.075,1-.188v5.188c0,.553,.448,1,1,1s1-.447,1-1v-6.031c.74-.102,1.411-.444,1.943-.969h2.057c1.654,0,3-1.346,3-3,0-1.217-.718-2.282-1.82-2.75-.717-.854-1.792-1.335-2.941-1.239-.56-.637-1.366-1.011-2.239-1.011-.552,0-1,.448-1,1s.448,1,1,1c.377,0,.718,.215,.89,.561,.217,.437,.717,.654,1.183,.514,.168-.051,.304-.074,.427-.074,.494,0,.957,.245,1.239,.656,.13,.189,.321,.329,.542,.394,.431,.127,.72,.509,.72,.951,0,.551-.449,1-1,1h-2.508c-.314,0-.611,.148-.8,.399-.287,.382-.721,.601-1.192,.601-.123,0-.259-.023-.427-.074-.466-.138-.966,.077-1.183,.514-.171,.346-.512,.561-.89,.561-.551,0-1-.449-1-1s.449-1,1-1,1-.448,1-1-.448-1-1-1c-1.654,0-3,1.346-3,3s1.346,3,3,3Z"/>
</svg>
