<svg id="Layer_1" viewBox="0 0 24 24" xmlns="http://www.w3.org/2000/svg" data-name="Layer 1"><path d="m13.2 9.601c-.785-1.045-1.2-2.291-1.2-3.601 0-3.309 2.691-6 6-6s6 2.691 6 6c0 1.311-.415 2.556-1.2 3.601-.333.442-.96.531-1.4.199-.441-.332-.53-.958-.199-1.4.523-.696.8-1.526.8-2.399 0-2.206-1.794-4-4-4s-4 1.794-4 4c0 .874.276 1.704.8 2.4.331.441.242 1.068-.199 1.4-.437.33-1.067.245-1.4-.199zm6.3-3.601c0-.828-.672-1.5-1.5-1.5s-1.5.672-1.5 1.5.672 1.5 1.5 1.5 1.5-.672 1.5-1.5zm-2.5 4v2c0 .552.447 1 1 1s1-.448 1-1v-2c0-.552-.447-1-1-1s-1 .448-1 1zm6 1.846c-.553 0-1 .448-1 1v4.947c0 1.451-1.036 2.692-2.463 2.952l-6.285 1.143c-.083.015-.168.011-.252.023v-9.68c0-.552-.447-1-1-1s-1 .448-1 1v9.679c-.084-.012-.168-.008-.252-.023l-6.285-1.143c-1.427-.26-2.463-1.501-2.463-2.952v-10.791c0-.892.393-1.731 1.077-2.303.686-.572 1.583-.809 2.46-.648l3.32.604c.544.1 1.064-.262 1.162-.805.1-.543-.261-1.064-.805-1.163l-3.32-.604c-1.464-.264-2.956.128-4.099 1.081-1.142.953-1.796 2.352-1.796 3.838v10.792c0 2.417 1.727 4.486 4.105 4.919l6.285 1.142c.534.097 1.071.146 1.609.146s1.075-.048 1.609-.146l6.285-1.142c2.379-.433 4.105-2.502 4.105-4.919v-4.947c0-.552-.447-1-1-1z"/></svg>