<svg id="Layer_1" viewBox="0 0 24 24" xmlns="http://www.w3.org/2000/svg" data-name="Layer 1"><path d="m12 12c3.309 0 6-2.691 6-6s-2.691-6-6-6-6 2.691-6 6 2.691 6 6 6zm0-2c-1.877 0-3.445-1.304-3.874-3.051.22.022.438.051.66.051 2.619 0 4.939-1.515 6.061-3.803.711.722 1.153 1.711 1.153 2.803 0 2.206-1.794 4-4 4zm0-8c.395 0 .769.075 1.13.182-.764 1.692-2.447 2.818-4.344 2.818-.211 0-.42-.021-.628-.049.464-1.695 2.002-2.951 3.843-2.951zm9 19v2c0 .553-.448 1-1 1s-1-.447-1-1v-2c0-1.823-.769-3.817-1.869-4.849-.305-.249-.6-.163-.833.062l-3.517 4.411c-.377.497-1.189.496-1.564-.002l-3.543-4.457c-.194-.176-.526-.258-.798-.021-1.105 1.032-1.876 3.029-1.876 4.856v2c0 .553-.448 1-1 1s-1-.447-1-1v-2c0-2.412.986-4.892 2.511-6.317 1.01-.991 2.782-.87 3.694.197l2.795 3.515 2.769-3.471c.951-1.114 2.684-1.23 3.729-.231 1.519 1.424 2.501 3.899 2.501 6.308z"/></svg>