<svg id="Layer_1" viewBox="0 0 24 24" xmlns="http://www.w3.org/2000/svg" data-name="Layer 1"><path d="m7.5 8.5c.828 0 1.5.672 1.5 1.5s-.672 1.5-1.5 1.5-1.5-.672-1.5-1.5.672-1.5 1.5-1.5zm5.599 9.5h-6.198c-2.843 0-5.316 2.019-5.881 4.801-.109.541.24 1.069.781 1.179.546.112 1.069-.241 1.18-.781.376-1.853 2.024-3.198 3.92-3.198h6.199c1.895 0 3.544 1.345 3.92 3.198.108.545.651.892 1.18.781.541-.11.891-.638.781-1.179-.564-2.782-3.038-4.801-5.881-4.801zm-10.957-5c.447 1.72 1.999 3 3.858 3h9c.553 0 1-.448 1-1s-.447-1-1-1h-9c-1.103 0-2-.897-2-2v-4c0-1.103.897-2 2-2h4c.553 0 1-.448 1-1v-3c0-.552-.447-1-1-1s-1 .448-1 1v2h-3c-2.206 0-4 1.794-4 4-1.103 0-2 .897-2 2v1c-.004 1.159.992 2.071 2.142 2zm18.857-13h-1.699v1h.257c.749 0 1.419.342 1.864.877.44.53.066 1.333-.623 1.333-.266.018-.519-.089-.699-.288-.135-.146-.328-.238-.542-.238h-2.212c-.292 0-.56.196-.618.483-.068.334.153.649.473.713l2.939.589c1.091.218 1.875 1.201 1.838 2.319-.041 1.243-1.1 2.212-2.343 2.212h-.333v1h1.7c1.657 0 3-1.343 3-3v-4c-.001-1.657-1.345-3-3.002-3zm-6.908 11.862c.196 0 .397-.054.583-.173l2.454-1.69h.572v-1h-.248c-.749 0-1.419-.342-1.864-.877-.44-.53-.066-1.333.623-1.333.266-.018.519.089.699.288.135.146.328.238.542.238h2.214c.293 0 .56-.197.617-.484.066-.335-.154-.647-.474-.712l-2.938-.588c-1.09-.218-1.874-1.2-1.838-2.319.041-1.243 1.099-2.213 2.343-2.213h.325v-.999h-1.701c-1.65 0-3 1.351-2.999 3.001l.002 7.772c0 .638.524 1.088 1.089 1.088z"/></svg>