<svg id="Layer_1" viewBox="0 0 24 24" xmlns="http://www.w3.org/2000/svg" data-name="Layer 1"><path d="m16.5 9.135c.071-1.7-1.295-3.139-3-3.135-.524 0-1.043.141-1.5.408-.456-.267-.974-.408-1.5-.408-1.706-.004-3.071 1.436-3 3.136-.939.654-1.5 1.726-1.5 2.864 0 .925.374 1.859 1 2.499 0 1.931 1.57 3.501 3.5 3.501.523 0 1.028-.115 1.5-.344.471.228.975.344 1.5.344 1.93 0 3.5-1.57 3.5-3.5.626-.641 1-1.575 1-2.5 0-1.14-.56-2.21-1.5-2.865zm-6 6.865c-.827 0-1.5-.673-1.5-1.5v-.407c0-.261-.102-.512-.284-.698l-.286-.293c-.265-.271-.43-.693-.43-1.102 0-.485.24-.942.642-1.223l.429-.298c.269-.187.429-.494.429-.821v-.658c0-.723.851-1.243 1.49-.865l.009.005v7.761c-.16.06-.326.099-.5.099zm5.069-2.897-.285.292c-.182.187-.284.438-.284.698v.407c0 .827-.673 1.5-1.5 1.5-.174 0-.339-.039-.5-.099v-7.761s.008-.005.008-.005c.151-.088.321-.135.491-.135.551 0 1 .448 1 1v.657c0 .327.161.635.429.821l.428.297c.403.281.643.738.643 1.225 0 .408-.165.83-.431 1.103zm7.431-2.103c.552 0 1-.447 1-1s-.448-1-1-1h-1v-2h1c.552 0 1-.447 1-1s-.448-1-1-1h-1.424c-.504-1.149-1.427-2.072-2.576-2.576v-1.424c0-.553-.448-1-1-1s-1 .447-1 1v1h-2v-1c0-.553-.448-1-1-1s-1 .447-1 1v1h-2v-1c0-.553-.448-1-1-1s-1 .447-1 1v1h-2v-1c0-.553-.448-1-1-1s-1 .447-1 1v1.424c-1.149.504-2.072 1.427-2.576 2.576h-1.424c-.552 0-1 .447-1 1s.448 1 1 1h1v2h-1c-.552 0-1 .447-1 1s.448 1 1 1h1v2h-1c-.552 0-1 .447-1 1s.448 1 1 1h1v2h-1c-.552 0-1 .447-1 1s.448 1 1 1h1.424c.504 1.149 1.427 2.072 2.576 2.576v1.424c0 .553.448 1 1 1s1-.447 1-1v-1h2v1c0 .553.448 1 1 1s1-.447 1-1v-1h2v1c0 .553.448 1 1 1s1-.447 1-1v-1h2v1c0 .553.448 1 1 1s1-.447 1-1v-1.424c1.149-.504 2.072-1.427 2.576-2.576h1.424c.552 0 1-.447 1-1s-.448-1-1-1h-1v-2h1c.552 0 1-.447 1-1s-.448-1-1-1h-1v-2zm-3 6c0 1.654-1.346 3-3 3h-10c-1.654 0-3-1.346-3-3v-10c0-1.654 1.346-3 3-3h10c1.654 0 3 1.346 3 3z"/></svg>