<svg id="Layer_1" viewBox="0 0 24 24" xmlns="http://www.w3.org/2000/svg" data-name="Layer 1"><path d="m18 2.952c.006-.307.198-.579.484-.687l1.299-.492.52-1.301c.114-.285.39-.472.697-.472s.583.187.697.472l.523 1.308 1.308.523c.285.114.472.39.472.697s-.187.583-.472.697l-1.308.523-.523 1.308c-.114.285-.39.472-.697.472s-.583-.187-.697-.472l-.526-1.316-1.318-.556c-.283-.119-.464-.398-.459-.705zm-13 18.048c-1.654 0-3-1.346-3-3v-9c0-1.654 1.346-3 3-3h9c1.09 0 2.096.593 2.625 1.547.268.483.877.658 1.359.39.483-.268.658-.876.39-1.359-.882-1.59-2.558-2.578-4.375-2.578h-8.999c-2.757 0-5 2.243-5 5v9c0 2.757 2.243 5 5 5 .552 0 1-.448 1-1s-.448-1-1-1zm18.199-8.192c-.52-.523-1.212-.811-1.949-.811-.291 0-.566.058-.829.142-.25-1.221-1.419-2.162-2.672-2.139-.971 0-1.821.51-2.31 1.272-.363-.172-.759-.272-1.173-.272-1.515 0-2.747 1.231-2.747 2.743l-.015 4.61c-.775-.137-1.586.019-2.236.488-.723.521-1.177 1.323-1.249 2.202-.126 1.056.451 2 1.207 2.708.178.167.42.249.664.249.91 0 1.354-1.11.696-1.738l-.284-.27c-.436-.42-.372-1.184.134-1.528.38-.274.975-.191 1.356.19.287.287.718.37 1.088.217.373-.154.617-.517.619-.921l.02-6.204c0-.411.335-.746.747-.746.391-.007.731.319.739.712l.008 5.288c0 .552.448 1 1 1s1-.448 1-1l-.01-6.256c0-.41.334-.744.746-.744.405-.007.756.346.745.754l.005 6.246c0 .552.448 1 1 1s1-.448 1-1v-4.254c0-.413.336-.749.75-.749.408-.007.76.348.75.759v8.244c0 .552.448 1 1 1s1-.448 1-1v-8.239c.004-.737-.281-1.431-.801-1.953zm-13.671-.111c.285-.114.472-.39.472-.697s-.187-.583-.472-.697l-1.308-.523-.523-1.308c-.114-.285-.39-.472-.697-.472s-.583.187-.697.472l-.52 1.301-1.299.492c-.287.108-.479.381-.484.687-.005.307.176.586.459.705l1.318.556.526 1.316c.114.285.39.472.697.472s.583-.187.697-.472l.523-1.308 1.308-.523z"/></svg>