<svg id="Layer_1" viewBox="0 0 24 24" xmlns="http://www.w3.org/2000/svg" data-name="Layer 1"><path d="m6 20c0-.553.448-1 1-1h1c.552 0 1 .447 1 1s-.448 1-1 1h-1c-.552 0-1-.447-1-1zm18-6.727v1.727c0 1.473-.812 2.744-2 3.437v1.563c0 1.654-1.346 3-3 3s-3-1.346-3-3v-1h-1c0 2.757-2.243 5-5 5h-5c-2.757 0-5-2.243-5-5v-14c0-2.757 2.243-5 5-5h5c1.629 0 3.065.795 3.978 2.004.008 0 .014-.004.022-.004h2.4c1.975 0 3.768 1.165 4.569 2.969l2.427 5.462c.4.898.604 1.855.604 2.843zm-11 4.727h-11v1c0 1.654 1.346 3 3 3h5c1.654 0 3-1.346 3-3zm0-13c0-1.654-1.346-3-3-3h-5c-1.654 0-3 1.346-3 3v11h11zm2 0v5h6.016l-1.875-4.219c-.48-1.082-1.557-1.781-2.741-1.781h-1.501c.066.323.101.658.101 1zm5 14h-2v1c0 .552.448 1 1 1s1-.448 1-1zm2-5.727c0-.436-.075-.859-.185-1.273h-6.815v5h5c1.103 0 2-.897 2-2zm-12.947-4.778-2.792-.559c-.304-.061-.514-.36-.449-.678.055-.272.309-.458.587-.458h2.102c.203 0 .387.087.515.226.17.189.411.29.664.274.654 0 1.01-.763.592-1.266-.422-.509-1.059-.833-1.77-.833h-.2v-.4c0-.442-.358-.8-.8-.8s-.8.358-.8.8v.4h-.28c-1.091 0-2.046.786-2.199 1.866-.163 1.158.613 2.216 1.725 2.439l2.791.559c.304.062.514.359.451.677-.054.273-.308.46-.586.46h-2.103c-.203 0-.387-.087-.515-.226-.17-.189-.411-.29-.664-.274-.654 0-1.01.763-.592 1.266.422.509 1.059.833 1.77.833h.2v.4c0 .442.358.8.8.8s.8-.358.8-.8v-.4h.28c1.091 0 2.046-.785 2.199-1.865.164-1.158-.613-2.217-1.725-2.439z"/></svg>