<svg id="Layer_1" viewBox="0 0 24 24" xmlns="http://www.w3.org/2000/svg" data-name="Layer 1"><path d="m21.497 1.041c-1.777-.333-3.537 1.156-3.497 2.959v2.315l-2.209-1.72c-1.292-.961-3.125-.692-4.086.6-.424.569-.609 1.258-.556 1.959-.686.15-1.293.526-1.716 1.096-.44.592-.61 1.296-.554 1.979-.695.147-1.31.526-1.738 1.101-.191.256-.323.54-.42.834l-2.006-1.493c-1.184-.881-2.838-.805-3.849.174-1.291 1.191-1.151 3.435.276 4.447l8.324 6.25c1.352 1.015 2.922 1.507 4.478 1.507 2.191 0 4.353-.978 5.829-2.847l1.862-2.36c1.526-1.932 2.367-4.353 2.367-6.816v-6.919c0-1.516-1.076-2.834-2.503-3.066zm-8.188 5.348c.305-.409.884-.49 1.288-.189l1.557 1.164c.39.29.471.885.172 1.269-.264.371-.803.481-1.188.237-.029-.023-1.685-1.256-1.716-1.277-.343-.299-.393-.845-.114-1.204zm-2.273 3.055c.261-.363.789-.483 1.174-.248.033.027 1.7 1.271 1.732 1.292.327.316.39.826.111 1.2-.303.407-.88.491-1.288.189l-1.54-1.146c-.407-.303-.492-.881-.189-1.288zm-2.465 3.764c-.036-.243.025-.485.172-.683.288-.403.895-.493 1.288-.189l1.54 1.146c.407.303.492.88.189 1.288-.304.406-.881.492-1.288.189l-1.54-1.145c-.197-.147-.327-.362-.362-.606zm13.429-2.179c0 2.015-.688 3.996-1.937 5.577l-1.862 2.36c-1.846 2.336-5.155 2.766-7.536.979l-8.328-6.254c-.427-.37-.548-.889-.082-1.409.311-.299.866-.301 1.263-.006l5.761 4.287c1.28.955 3.12.699 4.086-.6.439-.591.609-1.293.555-1.975.671-.142 1.297-.513 1.738-1.106.436-.586.606-1.282.555-1.959.687-.151 1.294-.527 1.718-1.097.146-.196.255-.409.347-.629.301.297.754.391 1.139.212.356-.163.584-.518.584-.909v-4.5c-.011-.606.573-1.101 1.175-.986.462.076.825.556.825 1.093v6.921z"/></svg>