<svg id="Layer_1" viewBox="0 0 24 24" xmlns="http://www.w3.org/2000/svg" data-name="Layer 1"><path d="m22.714 15.657c-.409-1.365-1.38-2.25-2.714-2.542.052-.591-.399-1.119-1-1.115-.552 0-1 .447-1 1h-4c0-.553-.448-1-1-1-.601-.003-1.052.525-1 1.116-1.334.293-2.306 1.18-2.72 2.564-.967 2.856-1.28 5.331-1.28 6.082 0 1.234 1.004 2.238 2.238 2.238 1.639 0 3.517-2.111 4.281-3.228.331-.483.885-.772 1.481-.772s1.15.289 1.481.771c.764 1.117 2.642 3.229 4.281 3.229 1.234 0 2.238-1.004 2.238-2.238 0-.751-.313-3.226-1.286-6.104zm-.951 6.343c-.368-.014-1.646-.918-2.631-2.358-.705-1.027-1.875-1.642-3.131-1.642s-2.427.614-3.131 1.643c-.985 1.439-2.264 2.344-2.63 2.357-.131 0-.238-.106-.238-.238 0-.526.278-2.794 1.202-5.53.158-.528.517-1.231 1.798-1.231h6c1.281 0 1.64.703 1.826 1.32.896 2.647 1.174 4.915 1.174 5.441 0 .132-.107.238-.237.238zm-7.763-17c.552 0 1 .447 1 1s-.448 1-1 1h-8c-.552 0-1-.447-1-1s.448-1 1-1zm-5 6h-3c-.552 0-1-.447-1-1s.448-1 1-1h3c.552 0 1 .447 1 1s-.448 1-1 1zm-3 12c0 .553-.448 1-1 1-2.757 0-5-2.243-5-5v-14c0-2.757 2.243-5 5-5h10c2.757 0 5 2.243 5 5v4c0 .553-.448 1-1 1s-1-.447-1-1v-4c0-1.654-1.346-3-3-3h-10c-1.654 0-3 1.346-3 3v14c0 1.654 1.346 3 3 3 .552 0 1 .447 1 1z"/></svg>