<svg id="Layer_1" viewBox="0 0 24 24" xmlns="http://www.w3.org/2000/svg" data-name="Layer 1"><path d="m21 7c-1.654 0-3 1.346-3 3s1.346 3 3 3c.216 0 .425-.025.628-.069-1.138 4.535-4.828 8.21-9.47 9.053-.385.071-.66-.104-.792-.213-.233-.195-.367-.479-.367-.781v-1.053c3-.3 5.71-1.924 7.382-4.493.301-.463.17-1.083-.293-1.384s-1.083-.169-1.384.293c-1.485 2.283-3.992 3.646-6.705 3.646-4.411 0-8-3.589-8-8s3.59-7.999 8.001-7.999c2.713 0 5.22 1.363 6.705 3.646.301.463.92.594 1.384.293.463-.301.594-.921.293-1.384-1.857-2.852-4.99-4.555-8.382-4.555-5.514 0-10 4.486-10 10 0 5.177 3.954 9.446 9 9.949v1.041c0 .896.396 1.74 1.085 2.316.542.452 1.214.694 1.903.694 6.788-.829 12.017-7.1 12.012-14 0-1.654-1.346-3-3-3zm0 4c-.551 0-1-.449-1-1s.449-1 1-1 1 .449 1 1-.449 1-1 1zm-11.145-6.468c-.256.057-.726.249-.999.889-.35.835-.412 1.536-.535 2.28-.213-.388-.512-.618-.891-.684-.67-.119-1.136.389-1.288.556-.716.787-1.155 2.521-1.155 3.419-.009 2.741 2.244 5.006 4.984 5.008 1.718 0 3.348-.953 4.304-2.536 2.276-3.77-1.5-7.115-3.112-8.543-.535-.474-1.049-.448-1.308-.39zm2.709 7.898c-.277.459-.652.83-1.074 1.099.047-.475-.127-.974-.484-1.331l-.584-.521c-.234-.234-.613-.234-.847 0l-.585.521c-.375.375-.543.906-.471 1.401-.912-.52-1.53-1.492-1.53-2.607 0-.366.13-.937.308-1.41.335.25.75.418 1.204.418 1.5 0 1.722-1.469 1.854-2.347.034-.22.067-.443.111-.663 1.854 1.741 3.219 3.586 2.099 5.44z"/></svg>