<svg id="Layer_1" viewBox="0 0 24 24" xmlns="http://www.w3.org/2000/svg" data-name="Layer 1"><path d="m10.167 8.408c-.988 1.107-2.167 2.803-2.167 4.592 0 1.858 1.28 3.411 3 3.858v1.142c0 .552.448 1 1 1s1-.448 1-1v-1.142c1.721-.447 3-2 3-3.858 0-1.789-1.179-3.484-2.167-4.592-.934-1.044-2.731-1.044-3.666 0zm2.833 6.314v-1.222c0-.552-.448-1-1-1s-1 .448-1 1v1.222c-.595-.347-1-.985-1-1.722 0-.904.589-2.062 1.659-3.259.263-.219.419-.219.682 0 1.07 1.198 1.659 2.356 1.659 3.26 0 .737-.405 1.375-1 1.722zm3-12.621v-1.101c0-.552-.448-1-1-1h-6c-.552 0-1 .448-1 1v1.101c-2.279.465-4 2.484-4 4.899v12c0 2.757 2.243 5 5 5h6c2.757 0 5-2.243 5-5v-12c0-2.414-1.721-4.434-4-4.899zm2 16.899c0 1.654-1.346 3-3 3h-6c-1.654 0-3-1.346-3-3v-12c0-1.654 1.346-3 3-3h6c1.654 0 3 1.346 3 3z"/></svg>