<svg id="Layer_1" viewBox="0 0 24 24" xmlns="http://www.w3.org/2000/svg" data-name="Layer 1"><path d="m10 22h-5c-1.654 0-3-1.346-3-3v-10h9c.732 0 1.436.266 1.983.75.415.366 1.046.326 1.412-.087.366-.414.326-1.046-.087-1.412-.914-.807-2.088-1.25-3.308-1.25h-3v-2c0-1.654-1.346-3-3-3v-1.001c0-.552-.448-1-1-1s-1 .448-1 1v1c-1.654 0-3 1.346-3 3v14c0 2.757 2.243 5 5 5h5c.552 0 1-.448 1-1s-.448-1-1-1zm-8-17c0-.551.449-1 1-1h2c.551 0 1 .449 1 1v2h-4zm15.5 6c-3.584 0-6.5 2.916-6.5 6.5s2.916 6.5 6.5 6.5 6.5-2.916 6.5-6.5-2.916-6.5-6.5-6.5zm0 11c-2.481 0-4.5-2.019-4.5-4.5 0-.879.263-1.693.7-2.386l6.186 6.186c-.693.437-1.508.7-2.386.7zm3.8-2.114-6.186-6.186c.693-.437 1.508-.7 2.386-.7 2.481 0 4.5 2.019 4.5 4.5 0 .879-.263 1.693-.7 2.386z"/></svg>