<svg id="Layer_1" viewBox="0 0 24 24" xmlns="http://www.w3.org/2000/svg" data-name="Layer 1"><path d="m22.521 4.554c-.986-.368-3.065-1.667-4.587-3.012-1.125-.994-2.549-1.542-4.011-1.542h-3.846c-1.462 0-2.887.548-4.011 1.542-1.523 1.345-3.602 2.644-4.589 3.012-.883.331-1.477 1.193-1.477 2.146 0 1.269 1.031 2.3 2.299 2.3h4.701v11.5c0 1.93 1.57 3.5 3.5 3.5h3c1.93 0 3.5-1.57 3.5-3.5v-11.5h4.701c1.268 0 2.299-1.031 2.299-2.3 0-.953-.594-1.815-1.479-2.146zm-20.222 2.446c-.165 0-.299-.135-.299-.3 0-.123.072-.233.178-.273 1.091-.407 3.122-1.634 4.822-3.057v3.63zm12.701 5h-2c-.552 0-1 .447-1 1s.448 1 1 1h2v3h-2c-.552 0-1 .447-1 1s.448 1 1 1h2v1.5c0 .827-.673 1.5-1.5 1.5h-3c-.827 0-1.5-.673-1.5-1.5v-18.331c.351-.101.711-.169 1.077-.169h3.846c.366 0 .726.068 1.077.169v4.831h-2c-.552 0-1 .447-1 1s.448 1 1 1h2zm6.701-5h-4.701v-3.631c1.7 1.423 3.731 2.65 4.821 3.057.107.04.179.15.179.273 0 .165-.134.3-.299.3z"/></svg>