<svg id="Layer_1" viewBox="0 0 24 24" xmlns="http://www.w3.org/2000/svg" data-name="Layer 1"><path d="m12 14c2.206 0 4-1.794 4-4s-1.794-4-4-4-4 1.794-4 4 1.794 4 4 4zm0-6c1.103 0 2 .897 2 2s-.897 2-2 2-2-.897-2-2 .897-2 2-2zm-4-3.999v-3.5c0-.198.116-.376.297-.457.181-.08.392-.047.538.085l1.377 1.242.856-.955c.497-.555 1.367-.555 1.864 0l.856.955 1.377-1.242c.146-.131.356-.164.538-.085.181.081.297.259.297.457v3.5c0 .552-.448 1-1 1h-6c-.552 0-1-.448-1-1zm11.637-1.258c-.427-.352-1.057-.291-1.408.134-.352.426-.291 1.056.135 1.408 2.312 1.909 3.637 4.72 3.637 7.715 0 3.388-1.698 6.383-4.283 8.193-.769-2.457-3.041-4.193-5.717-4.193s-4.948 1.736-5.717 4.193c-2.585-1.81-4.283-4.805-4.283-8.193 0-3.002 1.331-5.818 3.652-7.728.427-.351.488-.981.138-1.408-.351-.425-.98-.489-1.407-.137-2.786 2.291-4.384 5.671-4.384 9.273 0 6.617 5.383 12 12 12s12-5.383 12-12c0-3.593-1.591-6.967-4.363-9.257zm-11.541 18.463c.372-1.849 1.975-3.206 3.904-3.206s3.532 1.356 3.904 3.206c-1.2.511-2.519.794-3.904.794s-2.704-.284-3.904-.794z"/></svg>