<svg id="Layer_1" viewBox="0 0 24 24" xmlns="http://www.w3.org/2000/svg" data-name="Layer 1"><path d="m15.592 5.694c.445.327.541.953.214 1.398-.063.086-.916 1.215-2.449 2.238l.503.851c.281.476.124 1.089-.352 1.37-.467.278-1.087.128-1.369-.352l-.548-.926c-.769.319-1.632.565-2.592.668v1.058c0 .552-.447 1-1 1s-1-.448-1-1v-1.058c-.96-.103-1.823-.349-2.592-.668l-.548.926c-.282.479-.902.63-1.369.352-.476-.281-.633-.895-.352-1.37l.503-.851c-1.53-1.023-2.383-2.152-2.447-2.238-.327-.445-.231-1.071.213-1.398.445-.329 1.07-.232 1.396.211.035.046 2.362 3.095 6.196 3.095 3.877 0 6.172-3.062 6.194-3.092.327-.445.953-.542 1.397-.213zm8.408-4.694c0-.552-.447-1-1-1h-6.5c-2.877 0-3.806 1.329-4.625 2.501-.194.278-.394.566-.678.901-.049.065-1.227 1.597-3.197 1.597-1.96 0-3.136-1.516-3.197-1.596-.328-.442-.951-.537-1.396-.209-.444.327-.54.953-.213 1.398.072.099 1.805 2.408 4.806 2.408s4.733-2.31 4.76-2.35c.286-.334.525-.674.755-1.003.742-1.062 1.151-1.647 2.985-1.647h6.5c.553 0 1-.448 1-1zm-.854 5.864c.559.829.854 1.794.854 2.794v11.341c0 1.654-1.346 3-3 3s-3-1.346-3-3v-11.341c0-1 .295-1.966.854-2.794l.759-1.126c.621-.924 2.153-.925 2.776 0l.758 1.125zm-1.146 2.795c0-.6-.177-1.18-.512-1.676l-.488-.725-.488.725c-.335.497-.512 1.076-.512 1.676v11.341c0 .551.448 1 1 1s1-.449 1-1z"/></svg>