<svg id="Layer_1" viewBox="0 0 24 24" xmlns="http://www.w3.org/2000/svg" data-name="Layer 1"><path d="m9.5 19c-.828 0-1.5-.672-1.5-1.5s.672-1.5 1.5-1.5 1.5.672 1.5 1.5-.672 1.5-1.5 1.5zm2.465 3.002c-2.567 0-5.115-1.522-6.157-3.875-.068-.155-.176-.291-.312-.394-2.222-1.675-3.496-4.22-3.496-6.983 0-4.823 3.925-8.748 8.75-8.748.377 0 .755.024 1.122.071.567.076 1.05-.316 1.12-.864s-.316-1.049-.864-1.12c-.452-.058-.916-.087-1.378-.087-5.969 0-10.75 4.822-10.75 10.749 0 3.31 1.486 6.366 4.089 8.423 1.411 2.94 4.411 4.826 7.946 4.826.465 0 .983-.482.964-1.034-.02-.553-.521-1.012-1.034-.964zm.07 1.998c-.095.004.096 0 0 0zm11.168-9.441c-.271.385-.271.989 0 1.375.521.741.797 1.626.797 2.557 0 .973-.354 1.607-.696 2.222-.272.492-.304.851-.304 1.146 0 .839-.329 1.336-.605 1.604-.352.343-.845.535-1.36.536h-3.476c-.985 0-1.868-.55-2.305-1.433s-.336-1.917.261-2.699c.224-.288.485-.756.485-1.367 0-.517-.154-1.019-.434-1.417-.749-1.065-.749-2.611 0-3.676.283-.402.433-.889.433-1.407s-.149-1.005-.434-1.407c-.749-1.065-.749-2.611 0-3.676.285-.403.435-.89.435-1.408 0-.502-.161-.976-.467-1.371-.601-.789-.7-1.823-.263-2.705.437-.882 1.32-1.43 2.305-1.431h3.39c1.16 0 2.035.919 2.035 2.139 0 .283.027.621.227.976.345.61.773 1.371.773 2.393 0 .933-.275 1.817-.797 2.558-.267.378-.267.996 0 1.374.521.741.797 1.625.797 2.558s-.275 1.816-.797 2.558zm-1.637-7.641c.284-.403.434-.89.434-1.409 0-.473-.196-.845-.516-1.412-.435-.771-.517-1.634-.517-2.105l-3.393.008c-.32 0-.466.223-.513.319-.048.096-.137.346.058.601.574.743.88 1.64.88 2.589 0 .934-.276 1.818-.799 2.559-.266.378-.266.994 0 1.373.521.74.798 1.625.798 2.558s-.275 1.816-.797 2.558c-.271.386-.271.988 0 1.374.515.731.798 1.643.798 2.567 0 .93-.311 1.824-.899 2.586-.19.249-.102.499-.054.595.047.096.192.319.513.319h3.432c0-.478.062-1.35.519-2.177.354-.636.49-.897.49-1.332 0-.518-.149-1.005-.434-1.408-.759-1.082-.759-2.593 0-3.674.284-.404.434-.891.434-1.409s-.149-1.005-.434-1.408c-.747-1.065-.747-2.61 0-3.674zm-8.566 2.582c0 2.481-2.019 4.5-4.5 4.5s-4.5-2.018-4.5-4.5 2.019-4.5 4.5-4.5 4.5 2.018 4.5 4.5zm-2 0c0-1.378-1.121-2.5-2.5-2.5s-2.5 1.122-2.5 2.5 1.121 2.5 2.5 2.5 2.5-1.122 2.5-2.5z"/></svg>