<?xml version="1.0" encoding="UTF-8"?>
<svg xmlns="http://www.w3.org/2000/svg" id="Layer_1" data-name="Layer 1" viewBox="0 0 24 24">
  <path d="M2,2.5C2,1.119,3.119,0,4.5,0s2.5,1.119,2.5,2.5-1.119,2.5-2.5,2.5-2.5-1.119-2.5-2.5Zm5,7.5c-.553,0-1,.447-1,1v4h-2c-1.103,0-2-.897-2-2v-3c0-1.103,.897-2,2-2H14c.553,0,1-.447,1-1s-.447-1-1-1H4C1.794,6,0,7.794,0,10v3c0,1.474,.81,2.75,2,3.444v6.556c0,.553,.447,1,1,1s1-.447,1-1v-6h2v6c0,.553,.447,1,1,1s1-.447,1-1V11c0-.553-.447-1-1-1ZM19.5,0H10c-.553,0-1,.447-1,1s.447,1,1,1h9.5c1.379,0,2.5,1.121,2.5,2.5v6c0,1.379-1.121,2.5-2.5,2.5H11c-.553,0-1,.447-1,1s.447,1,1,1h8.5c2.481,0,4.5-2.019,4.5-4.5V4.5c0-2.481-2.019-4.5-4.5-4.5Z"/>
</svg>
