<svg id="Layer_1" viewBox="0 0 24 24" xmlns="http://www.w3.org/2000/svg" data-name="Layer 1"><path d="m2.038 10.163c-.081.891-.033 1.778.143 2.638.11.542-.239 1.069-.78 1.179-.528.112-1.072-.235-1.18-.78-.214-1.051-.273-2.133-.175-3.217.036-.4.094-.795.173-1.183.11-.542.635-.892 1.18-.78.541.111.89.639.78 1.18-.064.315-.112.637-.141.962zm17.762-5.745c-2.156-2.879-5.287-4.418-8.957-4.418-.674 0-1.372.082-2.04.216-.541.109-.892.636-.783 1.178.109.541.632.89 1.178.783.174-.035.351-.065.527-.089 3.314-.454 6.479.865 8.498 3.559 1.319 1.631 3.695 6.546 3.777 7.353h-1.207c-.501 0-.926.372-.991.869l-.334 2.524c-.196 1.486-1.475 2.606-2.974 2.606h-1.494c-.552 0-1 .447-1 1v1c0 .552-.449 1-1 1h-1c-.552 0-1 .447-1 1s.448 1 1 1h1c1.654 0 3-1.346 3-3h.494c2.499 0 4.63-1.868 4.957-4.345l.219-1.655h.33c1.299 0 2-1.03 2-2 0-1.42-2.932-7.015-4.2-8.582zm-15.122 13.208 1.142 5.435c.107.5-.296.964-.804.937-.368 0-.685-.258-.761-.617l-.165-.782h-2.379l-.175.79c-.079.356-.394.61-.759.61-.494 0-.863-.456-.76-.939l1.165-5.479c.168-.864.87-1.582 1.742-1.581.894.006 1.563.69 1.753 1.627zm-.924 3.373-.641-3.044c-.047-.231-.098-.355-.185-.355s-.163.221-.193.37l-.67 3.029h1.688zm4.446-5c-.442 0-.8.358-.8.8v6.4c0 .442.358.8.8.8s.8-.358.8-.8v-6.4c0-.442-.358-.8-.8-.8zm-5.925-12.387c-.368-.368-.367-.968 0-1.337.357-.358.991-.34 1.314-.018.133.14 2.305 2.549 3.926 4.374.367.413.998.449 1.412.083.413-.367.45-.999.083-1.412-1.525-1.718-3.796-4.239-3.988-4.441-1.111-1.111-3.053-1.11-4.162.001-1.146 1.149-1.146 3.016 0 4.164l4.096 4.096c.391.391 1.023.391 1.414 0s.391-1.023 0-1.414zm12.732 8.574c-.57-1.594-1.709-3.728-3.795-4.13-1.755-.338-3.542.879-3.699 2.66s1.241 3.274 2.988 3.274h3.236c.935 0 1.585-.923 1.271-1.804z"/></svg>