<?xml version="1.0" encoding="UTF-8"?>
<svg xmlns="http://www.w3.org/2000/svg" id="Layer_1" data-name="Layer 1" viewBox="0 0 24 24">
  <path d="M20.5,0H8.499c-1.929,0-3.499,1.57-3.499,3.5v13.5H3c-1.654,0-3,1.346-3,3v.5c0,1.93,1.57,3.5,3.5,3.5h5.5c.552,0,1-.447,1-1s-.448-1-1-1h-2.351c.219-.456,.351-.961,.351-1.5V3.5c0-.827,.673-1.5,1.5-1.5s1.5,.673,1.5,1.5v.5c0,1.654,1.346,3,3,3h6v2c0,.553,.448,1,1,1s1-.447,1-1v-2c1.654,0,3-1.346,3-3v-.5c0-1.93-1.57-3.5-3.5-3.5ZM2,20.5v-.5c0-.552,.449-1,1-1h2v1.5c0,.827-.673,1.5-1.5,1.5s-1.5-.673-1.5-1.5ZM22,4c0,.552-.449,1-1,1H13c-.551,0-1-.448-1-1v-.5c0-.536-.122-1.045-.338-1.5h8.838c.827,0,1.5,.673,1.5,1.5v.5Zm-13,7c0-.553,.448-1,1-1h6c.552,0,1,.447,1,1s-.448,1-1,1h-6c-.552,0-1-.447-1-1Zm14.973,2.095c-.39,1.534-1.609,4.448-4.115,6.472-1.132,.914-2.295,1.47-3.357,1.807,0,0,1-3.375,4.066-6.941-3.103,1.718-5.314,4.825-6.277,7.412-.18,.459-.327,.936-.456,1.408-.121,.445-.535,.747-.997,.747-.684,0-1.192-.651-1.005-1.309,.141-.496,.304-1,.5-1.495,.166-1.36,.992-4.675,3.755-6.906,2.459-1.986,5.498-2.29,7.017-2.289,.579,0,1.012,.534,.869,1.095Zm-12.473,2.905h-1.5c-.552,0-1-.447-1-1s.448-1,1-1h1.5c.552,0,1,.447,1,1s-.448,1-1,1Z"/>
</svg>
