<svg id="Layer_1" viewBox="0 0 24 24" xmlns="http://www.w3.org/2000/svg" data-name="Layer 1"><path d="m18 16h-13v-11c0-1.654 1.346-3 3-3h6c.528 0 1.046.139 1.499.4.476.276 1.089.113 1.366-.364.277-.478.113-1.09-.364-1.366-.757-.438-1.622-.67-2.501-.67h-6c-2.757 0-5 2.243-5 5v14c0 2.757 2.243 5 5 5h6c2.757 0 5-2.243 5-5v-2c0-.553-.447-1-1-1zm-1 3c0 1.654-1.346 3-3 3h-6c-1.654 0-3-1.346-3-3v-1h12zm-8 1c0-.553.447-1 1-1h2c.553 0 1 .447 1 1s-.447 1-1 1h-2c-.553 0-1-.447-1-1zm15-13c0-.651-.419-1.201-1-1.408v-2.592c0-.499-.367-.921-.86-.99-.488-.069-.963.234-1.101.714-.236.823-.913 1.276-1.905 1.276h-2.134c-1.654 0-3 1.346-3 3 0 .695.247 1.327.645 1.836l1.887 4.376c.206.478.677.788 1.198.788.932 0 1.564-.95 1.203-1.81l-.919-2.19h1.12c.992 0 1.669.453 1.905 1.276.135.481.615.785 1.1.714.494-.069.86-.492.86-.99v-2.592c.581-.207 1.001-.757 1.001-1.408zm-3 1.398c-.549-.259-1.18-.398-1.866-.398h-2.134c-.552 0-1-.449-1-1s.448-1 1-1h2.134c.687 0 1.317-.139 1.866-.398v2.797z"/></svg>