<svg id="Layer_1" viewBox="0 0 24 24" xmlns="http://www.w3.org/2000/svg" data-name="Layer 1"><path d="m14.2 13.252c.395.387.4 1.02.014 1.415s-1.021.4-1.414.014c-.305-.299-.572-.63-.804-.984-.723 1.094-1.79 1.955-3.098 2.391l-2.581.86c-.51.175-1.091-.104-1.265-.632-.175-.524.108-1.09.632-1.265l2.581-.86c1.636-.545 2.735-2.07 2.735-3.795v-9.396c0-.552.447-1 1-1s1 .448 1 1v9.396c0 1.083.426 2.098 1.2 2.856zm-4.2 4.748c-.553 0-1 .448-1 1 0 1.019-.688 1.913-1.673 2.175-.486.112-2.878.822-3.332.825-1.064.016-2.022-.927-1.995-2.002 0-1.251.143-2.502.424-3.72l1.656-7.178c.421-1.825 2.023-3.1 3.897-3.1.553 0 1-.448 1-1s-.447-1-1-1c-2.811 0-5.215 1.913-5.847 4.651l-1.655 7.177c-.314 1.364-.475 2.767-.475 4.169-.05 2.152 1.858 4.038 3.996 4.002.881.022 2.981-.707 3.846-.892 1.859-.495 3.158-2.184 3.158-4.108 0-.552-.447-1-1-1zm9.688-9.601c.221.511.822.737 1.316.518.506-.221.738-.81.518-1.316-.953-2.188-3.112-3.601-5.5-3.601-.553 0-1 .448-1 1s.447 1 1 1c1.592 0 3.031.942 3.666 2.399zm3.952 13.833c.424.354.481.984.127 1.408-.354.426-.986.48-1.408.128-.249-.208-1.238-1.046-2.364-2.191-1.035 1.054-1.967 1.863-2.35 2.187-.422.358-1.053.304-1.408-.117-.357-.421-.305-1.052.116-1.409.711-.602 1.51-1.348 2.277-2.143-1.391-1.629-2.631-3.522-2.631-5.094 0-2.206 1.794-4 4-4s4 1.794 4 4c0 1.563-1.246 3.461-2.649 5.104.791.811 1.604 1.556 2.29 2.128zm-1.641-7.232c0-1.103-.897-2-2-2s-2 .897-2 2c0 .915.854 2.257 1.981 3.599 1.156-1.38 2.019-2.733 2.019-3.599z"/></svg>