<svg id="Layer_1" viewBox="0 0 24 24" xmlns="http://www.w3.org/2000/svg" data-name="Layer 1"><path d="m19 3h-14c-2.757 0-5 2.243-5 5v8c0 2.757 2.243 5 5 5h14c2.757 0 5-2.243 5-5v-8c0-2.757-2.243-5-5-5zm3 13c0 1.654-1.346 3-3 3h-14c-1.654 0-3-1.346-3-3v-8c0-1.654 1.346-3 3-3h14c1.654 0 3 1.346 3 3zm-5.02-5.818c-.158-1.274-1.33-2.182-2.613-2.182h-1.367c-.552 0-1 .448-1 1v6.2c0 .442.358.8.8.8.442 0 .8-.358.8-.8v-2.2h.784l.705 2.424c.104.365.455.6.832.576.537 0 .922-.519.765-1.033l-.74-2.43c.023-.017.024-.016.042-.029-.019.012-.031.021-.055.035.723-.508 1.168-1.386 1.047-2.362zm-2.48 1.218h-.9v-1.8h.9c.496 0 .9.404.9.9s-.404.9-.9.9zm-5.9-1.8v1.801h1.601c.442 0 .8.358.8.8s-.358.8-.8.8h-1.601v2.2c0 .442-.358.8-.8.8s-.8-.358-.8-.8v-6.2c0-.552.448-1 1-1h2.2c.442 0 .8.358.8.8s-.358.8-.8.8h-1.601z"/></svg>