<svg id="Layer_1" viewBox="0 0 24 24" xmlns="http://www.w3.org/2000/svg" data-name="Layer 1"><path d="m14 18.997c0 .552-.447 1-1 1h-1v3c0 .552-.448 1-1 1h-4c-.552 0-1-.444-1-.997s.448-1 1-1h3v-2.003h-5c-2.757 0-5-2.243-5-5v-8c0-2.757 2.243-4.997 5-4.997h6c.552 0 1 .445 1 .997s-.448 1-1 1h-6c-1.654 0-3 1.346-3 3v8c0 1.654 1.346 3.003 3 3.003h8c.553 0 1 .445 1 .997zm10-15.999v2.999c0 1.654-1.346 3-3 3h-2.852l-2.431 1.806c-.305.226-.712.26-1.049.089-.336-.17-.667-.576-.667-.952l-.002-6.94c.001-1.655 1.347-3 3.001-3h4c.801 0 1.555.31 2.121.876s.879 1.32.879 2.122zm-2 0c0-.267-.104-.519-.293-.708-.188-.188-.439-.292-.707-.292h-4c-.551 0-1 .45-1 1.001v5.101l1.221-.906c.173-.128.382-.194.597-.194h3.183c.552 0 1-.452 1-1.003v-2.999zm-17.936 11.65c-.193.517.069 1.093.586 1.286.517.195 1.094-.068 1.287-.586.302-.807 1.131-1.35 2.063-1.35s1.761.542 2.063 1.35c.192.522.783.78 1.287.586.518-.193.78-.769.586-1.286-.592-1.585-2.174-2.649-3.936-2.649s-3.344 1.065-3.936 2.649zm5.936-5.648c0-1.105-.895-2-2-2s-2 .895-2 2 .895 2 2 2 2-.895 2-2zm9 10c-2.339 0-4.381 1.539-4.966 3.742-.142.534.177 1.081.71 1.223.52.143 1.083-.171 1.224-.709.353-1.329 1.599-2.256 3.033-2.256s2.679.928 3.033 2.257c.143.533.693.85 1.224.709.534-.142.851-.69.71-1.223-.587-2.203-2.629-3.742-4.966-3.742zm0-1c-1.93 0-3.5-1.57-3.5-3.5s1.57-3.5 3.5-3.5 3.5 1.57 3.5 3.5-1.57 3.5-3.5 3.5zm0-2c.827 0 1.5-.673 1.5-1.5s-.673-1.5-1.5-1.5-1.5.673-1.5 1.5.673 1.5 1.5 1.5z"/></svg>