<svg id="Layer_1" viewBox="0 0 24 24" xmlns="http://www.w3.org/2000/svg" data-name="Layer 1"><path d="m19 4h-1.101c-.465-2.279-2.484-4-4.899-4h-2c-2.414 0-4.434 1.721-4.899 4h-1.101c-2.757 0-5 2.243-5 5v10c0 2.757 2.243 5 5 5h14c2.757 0 5-2.243 5-5v-10c0-2.757-2.243-5-5-5zm-8-2h2c1.304 0 2.416.836 2.829 2h-7.657c.413-1.164 1.525-2 2.829-2zm11 17c0 1.654-1.346 3-3 3h-14c-1.654 0-3-1.346-3-3v-10c0-1.654 1.346-3 3-3h14c1.654 0 3 1.346 3 3zm-6-3c0 1.654-1.346 3-3 3v1c0 .553-.448 1-1 1s-1-.447-1-1v-1h-.268c-1.067 0-2.063-.574-2.598-1.499-.276-.479-.113-1.09.365-1.366.476-.278 1.089-.113 1.366.364.179.31.511.501.867.501h2.268c.551 0 1-.448 1-1 0-.379-.271-.698-.644-.761l-3.041-.506c-1.342-.224-2.315-1.374-2.315-2.733 0-1.654 1.346-3 3-3v-1c0-.553.448-1 1-1s1 .447 1 1v1h.268c1.067 0 2.063.574 2.598 1.499.276.479.113 1.09-.365 1.366-.477.278-1.089.113-1.366-.364-.179-.31-.511-.501-.867-.501h-2.268c-.551 0-1 .448-1 1 0 .379.271.698.644.761l3.041.506c1.342.224 2.315 1.374 2.315 2.733z"/></svg>