<svg id="Layer_1" viewBox="0 0 24 24" xmlns="http://www.w3.org/2000/svg" data-name="Layer 1"><path d="m22.357 15.515c-1.249 2.082-2.711 3.557-4.357 4.455v3.03c0 .553-.447 1-1 1s-1-.447-1-1v-2.254c-.645.156-1.308.254-2 .254-.372 0-1.092-.008-2-.23v2.23c0 .553-.447 1-1 1s-1-.447-1-1v-1.413c1.5-.488 2.872-1.393 3.997-2.587h.003c2.61 0 4.845-1.519 6.642-4.515.284-.474.897-.627 1.372-.343.474.284.627.898.343 1.372zm-6.769-15.515h-3.176c-2.084 0-3.989.766-5.46 2.025.182-.009.362-.025.548-.025.981 0 1.91.132 2.781.372.668-.236 1.383-.372 2.131-.372h3.176c.153 0 .305.006.455.016-.298.547-.888 1.546-1.744 2.656.489.487.914 1.037 1.281 1.632 1.458-1.81 2.29-3.44 2.47-3.813 2.317.968 3.95 3.257 3.95 5.921l-.005 1.588c-2.06-.223-4.055-1.177-5.945-2.829.45.948.752 1.995.877 3.123 1.624.974 3.304 1.575 5.066 1.706 1.073.022 2.029-.931 2.007-2.006v-1.582c0-4.639-3.774-8.412-8.412-8.412zm-6.166 14c-1.038 0-2.804 0-3.842 0-.47 0-.742.481-.472.831.454.587 1.307 1.169 2.396 1.169s1.939-.582 2.391-1.17c.269-.35-.003-.83-.472-.83zm-2.422-3.5c0-.829-.671-1.5-1.5-1.5s-1.5.671-1.5 1.5.671 1.5 1.5 1.5 1.5-.671 1.5-1.5zm2.5-1.5c-.829 0-1.5.671-1.5 1.5s.671 1.5 1.5 1.5 1.5-.671 1.5-1.5-.671-1.5-1.5-1.5zm-2 11c-3.925 0-7.5-4.052-7.5-8.5 0-4.416 3.084-7.5 7.5-7.5s7.5 3.084 7.5 7.5c0 4.448-3.575 8.5-7.5 8.5zm5.5-8.5c0-3.29-2.21-5.5-5.5-5.5s-5.5 2.21-5.5 5.5c0 3.601 3.009 6.5 5.5 6.5s5.5-2.899 5.5-6.5z"/></svg>