<svg id="Layer_1" viewBox="0 0 24 24" xmlns="http://www.w3.org/2000/svg" data-name="Layer 1"><path d="m19 11h-14c-2.757 0-5 2.243-5 5v3c0 2.757 2.243 5 5 5h14c2.757 0 5-2.243 5-5v-3c0-2.757-2.243-5-5-5zm3 8c0 1.654-1.346 3-3 3h-14c-1.654 0-3-1.346-3-3v-3c0-1.654 1.346-3 3-3h14c1.654 0 3 1.346 3 3zm-13.793-2.293-.793.793.793.793c.391.391.391 1.023 0 1.414s-1.023.391-1.414 0l-.793-.793c-.532.57-1.418 1.609-2.207.793-.391-.391-.391-1.023 0-1.414l.793-.793-.793-.793c-.391-.391-.391-1.023 0-1.414s1.023-.391 1.414 0l.793.793.793-.793c.391-.391 1.023-.391 1.414 0s.391 1.023 0 1.414zm6 0-.793.793.793.793c.391.391.391 1.023 0 1.414s-1.023.391-1.414 0l-.793-.793-.793.793c-.391.391-1.023.391-1.414 0s-.391-1.023 0-1.414l.793-.793-.793-.793c-.391-.391-.391-1.023 0-1.414s1.023-.391 1.414 0l.793.793.793-.793c.391-.391 1.023-.391 1.414 0s.391 1.023 0 1.414zm6 0-.793.793.793.793c.391.391.391 1.023 0 1.414s-1.023.391-1.414 0l-.793-.793-.793.793c-.391.391-1.023.391-1.414 0s-.391-1.023 0-1.414l.793-.793-.793-.793c-.391-.391-.391-1.023 0-1.414s1.023-.391 1.414 0l.793.793.793-.793c.391-.391 1.023-.391 1.414 0s.391 1.023 0 1.414zm-15.278-12.364c-.391-.39-.391-1.023 0-1.414 1.889-1.889 4.4-2.929 7.071-2.929s5.183 1.04 7.071 2.929c.391.391.391 1.024 0 1.414-.391.391-1.023.391-1.414 0-1.511-1.511-3.521-2.343-5.657-2.343s-4.146.832-5.657 2.343c-.391.391-1.023.391-1.414 0zm9.899 2.828c-1.512-1.511-4.146-1.511-5.657 0-.391.391-1.023.391-1.414 0s-.391-1.023 0-1.414c1.133-1.133 2.64-1.757 4.243-1.757s3.109.624 4.242 1.757c.391.391.391 1.024 0 1.414-.391.391-1.023.391-1.414 0zm-1.414 1.415c.391.391.391 1.023 0 1.414-.195.195-.451.293-.707.293s-.512-.098-.707-.293c-.391.391-1.023.391-1.414 0s-.391-1.023 0-1.414c.779-.78 2.049-.78 2.828 0z"/></svg>