<svg id="Layer_1" viewBox="0 0 24 24" xmlns="http://www.w3.org/2000/svg" data-name="Layer 1"><path d="m14 2.5c0-1.381 1.119-2.5 2.5-2.5s2.5 1.119 2.5 2.5-1.119 2.5-2.5 2.5-2.5-1.119-2.5-2.5zm10 15.5v5c0 .553-.448 1-1 1s-1-.447-1-1v-5h-6c-.776 0-1.478-.304-2.011-.789-.097 3.727-3.184 6.788-6.989 6.789-3.86 0-7-3.141-7-7s3.14-7 7-7c2.548 0 4.775 1.373 6 3.413v-4.413c0-1.628 1.304-2.949 2.922-2.992.014 0 .025-.008.039-.008h7.039c.552 0 1 .447 1 1s-.448 1-1 1h-4v8h3c1.103 0 2 .897 2 2zm-12.67 1.454c.356-.625.576-1.328.633-2.082-.172.018-.341.053-.514.053-2.729 0-4.948-2.22-4.948-4.948 0-.143.013-.286.025-.428-.709.068-1.371.28-1.963.614-.019.195-.031.391-.031.591 0 3.444 2.803 6.247 6.248 6.247.185 0 .367-.03.551-.046zm-2.805-7.191c-.005.071-.025.14-.025.212 0 1.626 1.323 2.948 2.948 2.948.089 0 .176-.019.264-.027-.508-1.488-1.689-2.649-3.187-3.133zm-1.525 9.737c.865 0 1.666-.241 2.376-.628-3.447-.594-6.162-3.329-6.727-6.786-.401.719-.649 1.534-.649 2.414 0 2.757 2.243 5 5 5zm10-14h-1c-.551 0-1 .448-1 1v6c0 .552.449 1 1 1h1z"/></svg>