<svg id="Layer_1" viewBox="0 0 24 24" xmlns="http://www.w3.org/2000/svg" data-name="Layer 1"><path d="m19 2h-1v-1c0-.552-.447-1-1-1s-1 .448-1 1v1h-8v-1c0-.552-.447-1-1-1s-1 .448-1 1v1h-1c-2.757 0-5 2.243-5 5v12c0 1.817.987 3.493 2.578 4.375.473.265 1.09.098 1.359-.39.268-.483.093-1.092-.391-1.359-.954-.529-1.547-1.535-1.547-2.625v-9.001h20.001v3c0 .552.447 1 1 1s1-.448 1-1v-6c0-2.757-2.243-5-5-5zm-17 6v-1c0-1.654 1.346-3 3-3h14c1.654 0 3 1.346 3 3v1zm21.98 10.221c-.158-1.274-1.33-2.182-2.613-2.182h-1.567c-.442 0-.8.358-.8.8v6.4c0 .442.358.8.8.8.442 0 .8-.358.8-.8v-2.2h.784l.705 2.424c.099.342.412.576.768.576h.064c.537 0 .922-.519.765-1.033l-.74-2.43c.023-.017.024-.016.042-.029-.019.012-.031.021-.055.035.723-.508 1.168-1.386 1.047-2.362zm-2.48 1.218h-.9v-1.8h.9c.496 0 .9.404.9.9s-.404.9-.9.9zm-12.575-3.4c-.873-.001-1.575.717-1.742 1.581l-1.165 5.479c-.103.484.266.939.76.939.365 0 .68-.253.759-.61l.175-.79h2.379l.165.782c.076.36.393.617.761.617.509.026.911-.437.804-.937l-1.142-5.435c-.19-.937-.859-1.621-1.753-1.627zm-.86 5 .686-3.104c.03-.149.105-.253.176-.296l.017.006c.024.016.121.118.168.349l.641 3.044h-1.688zm7.294-5h-1.7c-.442 0-.8.358-.8.8v6.4c0 .442.358.8.8.8s.8-.358.8-.8v-2.2h.922c1.368 0 2.478-1.109 2.478-2.478v-.022c0-1.381-1.119-2.5-2.5-2.5zm0 3.4h-.9v-1.8h.9c.496 0 .9.404.9.9s-.404.9-.9.9z"/></svg>