<svg id="Layer_1" viewBox="0 0 24 24" xmlns="http://www.w3.org/2000/svg" data-name="Layer 1"><path d="m23.497 7.023c-.137 5.854-4.758 10.669-10.497 11.176v3.801h4c.553 0 1 .448 1 1s-.447 1-1 1h-10c-.552 0-1-.448-1-1s.448-1 1-1h4v-3.801c-5.74-.507-10.36-5.322-10.497-11.176-.013-.552.424-1.01.976-1.023h.024c.542 0 .986.433.999.977.112 4.776 3.837 8.718 8.498 9.218v-1.765c-3.726-.472-6.71-3.531-6.98-7.359-.039-.551.376-1.029.927-1.068.549-.035 1.029.376 1.068.927.196 2.784 2.308 5.026 4.985 5.481v-1.538c-1.774-.411-3.189-1.872-3.454-3.732-.078-.546.302-1.053.849-1.131.547-.074 1.054.301 1.131.849.124.871.705 1.582 1.475 1.922v-1.781c0-.552.448-1 1-1s1 .448 1 1v1.78c.769-.34 1.35-1.051 1.475-1.923.08-.546.589-.925 1.132-.848.547.078.927.585.849 1.132-.267 1.859-1.681 3.32-3.455 3.731v1.538c2.676-.455 4.788-2.697 4.985-5.481.039-.551.521-.961 1.067-.927.551.039.966.517.927 1.068-.27 3.829-3.254 6.887-6.979 7.359v1.765c4.661-.5 8.386-4.442 8.497-9.218.013-.552.463-1.034 1.023-.976.552.013.989.471.977 1.023zm-11.497-3.023c.828 0 1.5-.672 1.5-1.5 0-.497-.541-1.299-.973-1.86-.267-.346-.788-.346-1.054 0-.432.561-.973 1.362-.973 1.86 0 .828.672 1.5 1.5 1.5zm3.5 0c.828 0 1.5-.672 1.5-1.5 0-.497-.541-1.299-.973-1.86-.267-.346-.788-.346-1.054 0-.432.561-.973 1.362-.973 1.86 0 .828.672 1.5 1.5 1.5zm3.5 0c.828 0 1.5-.672 1.5-1.5 0-.497-.541-1.299-.973-1.86-.267-.346-.788-.346-1.054 0-.432.561-.973 1.362-.973 1.86 0 .828.672 1.5 1.5 1.5zm-16-1.5c0-.497-.541-1.299-.973-1.86-.267-.346-.788-.346-1.054 0-.432.561-.973 1.362-.973 1.86 0 .828.672 1.5 1.5 1.5s1.5-.672 1.5-1.5zm2 1.5c.828 0 1.5-.672 1.5-1.5 0-.497-.541-1.299-.973-1.86-.267-.346-.788-.346-1.054 0-.432.561-.973 1.362-.973 1.86 0 .828.672 1.5 1.5 1.5zm3.5 0c.828 0 1.5-.672 1.5-1.5 0-.497-.541-1.299-.973-1.86-.267-.346-.788-.346-1.054 0-.432.561-.973 1.362-.973 1.86 0 .828.672 1.5 1.5 1.5zm14.527-3.36c-.267-.346-.788-.346-1.054 0-.432.561-.973 1.362-.973 1.86 0 .828.672 1.5 1.5 1.5s1.5-.672 1.5-1.5c0-.497-.541-1.299-.973-1.86z"/></svg>