<svg id="Layer_1" viewBox="0 0 24 24" xmlns="http://www.w3.org/2000/svg" data-name="Layer 1"><path d="m21 22v1c0 .552-.447 1-1 1s-1-.448-1-1v-1c0-1.823-.769-3.817-1.869-4.849-.301-.247-.601-.163-.832.062l-3.518 4.411c-.376.497-1.189.496-1.564-.001l-3.543-4.457c-.195-.176-.521-.259-.797-.021-1.105 1.032-1.877 3.029-1.877 4.856v1c0 .552-.447 1-1 1s-1-.448-1-1v-1c0-2.414.986-4.894 2.512-6.318 1.009-.986 2.783-.871 3.694.198l2.795 3.515 2.77-3.471c.952-1.113 2.683-1.233 3.729-.232 1.519 1.424 2.501 3.9 2.501 6.308zm-17.128-9.178c.309-1.306 1.854-7.849 2.028-8.386.858-2.653 3.309-4.436 6.1-4.436s5.242 1.783 6.1 4.437c.174.536 1.72 7.079 2.028 8.385.126.538-.206 1.076-.744 1.203-.523.128-1.078-.202-1.203-.744-.7-2.968-1.857-7.827-1.984-8.23-.304-.942-.904-1.72-1.675-2.256-.528 1.312-1.447 2.423-2.669 3.185-1.081.674-2.303 1.021-3.546 1.021-.056 0-.112-.008-.167-.01.444 1.725 1.999 3.009 3.861 3.009.703 0 1.395-.185 1.999-.535.479-.278 1.09-.114 1.366.365.277.478.113 1.09-.364 1.366-.909.525-1.946.803-3.001.803-2.203 0-4.128-1.197-5.171-2.972-.344 1.439-.717 3.01-1.01 4.252-.128.538-.667.874-1.203.744-.538-.126-.87-.665-.744-1.203zm3.97-7.864c1.029.101 2.059-.118 2.952-.675.856-.534 1.492-1.314 1.863-2.23-.215-.032-.434-.052-.657-.052-1.886 0-3.541 1.186-4.158 2.957z"/></svg>