<svg id="Layer_1" viewBox="0 0 24 24" xmlns="http://www.w3.org/2000/svg" data-name="Layer 1"><path d="m10.5 23c0 .552-.448 1-1 1h-4.499c-1.48 0-2.875-.65-3.828-1.783-.952-1.134-1.352-2.62-1.097-4.079l2.449-14c.42-2.398 2.491-4.138 4.926-4.138h9.085c2.432 0 4.503 1.739 4.924 4.134l.386 2.193c.096.544-.268 1.062-.812 1.158-.547.094-1.062-.268-1.158-.812l-.386-2.193c-.253-1.438-1.496-2.48-2.955-2.48h-9.084c-1.461 0-2.704 1.044-2.956 2.483l-2.449 14c-.153.875.087 1.767.658 2.447.572.68 1.409 1.07 2.297 1.07h4.499c.552 0 1 .448 1 1zm.5-18v2c0 .552.448 1 1 1s1-.448 1-1v-2c0-.552-.448-1-1-1s-1 .448-1 1zm2 7v-1c0-.552-.448-1-1-1s-1 .448-1 1v1c0 .552.448 1 1 1s1-.448 1-1zm11 6v2c0 2.206-1.794 4-4 4h-4c-2.206 0-4-1.794-4-4v-2c0-1.477.806-2.766 2-3.459v-1.541c0-2.206 1.794-4 4-4s4 1.794 4 4v1.541c1.194.693 2 1.982 2 3.459zm-8-4h4v-1c0-1.103-.897-2-2-2s-2 .897-2 2zm6 4c0-1.103-.897-2-2-2h-4c-1.103 0-2 .897-2 2v2c0 1.103.897 2 2 2h4c1.103 0 2-.897 2-2zm-4-.5c-.828 0-1.5.672-1.5 1.5s.672 1.5 1.5 1.5 1.5-.672 1.5-1.5-.672-1.5-1.5-1.5z"/></svg>