<svg id="Layer_1" viewBox="0 0 24 24" xmlns="http://www.w3.org/2000/svg" data-name="Layer 1"><path d="m14 5c0-.553.447-1 1-1h3v-3c0-.553.447-1 1-1s1 .447 1 1v3h3c.553 0 1 .447 1 1s-.447 1-1 1h-3v3c0 .553-.447 1-1 1s-1-.447-1-1v-3h-3c-.553 0-1-.447-1-1zm-10.252 14.032c-1.775.463-3.233 1.919-3.713 3.708-.143.534.173 1.082.707 1.226.519.143 1.083-.169 1.225-.706.292-1.091 1.211-2.012 2.287-2.292.534-.14.854-.686.715-1.22-.14-.535-.686-.852-1.22-.716zm16.504 0c-.528-.136-1.08.181-1.22.716-.14.534.181 1.08.716 1.22 1.074.28 1.993 1.201 2.286 2.292.142.538.707.849 1.226.706.533-.144.85-.692.706-1.226-.481-1.789-1.938-3.245-3.714-3.708zm-15.752-7.032c-1.381 0-2.5 1.119-2.5 2.5s1.119 2.5 2.5 2.5 2.5-1.119 2.5-2.5-1.119-2.5-2.5-2.5zm17.5 2.5c0-1.381-1.119-2.5-2.5-2.5s-2.5 1.119-2.5 2.5 1.119 2.5 2.5 2.5 2.5-1.119 2.5-2.5zm-10-.5c1.381 0 2.5-1.119 2.5-2.5s-1.119-2.5-2.5-2.5-2.5 1.119-2.5 2.5 1.119 2.5 2.5 2.5zm0 2c-2.757 0-5 2.243-5 5v2c0 .553.448 1 1 1s1-.447 1-1v-2c0-1.654 1.346-3 3-3s3 1.346 3 3v2c0 .553.447 1 1 1s1-.447 1-1v-2c0-2.757-2.243-5-5-5z"/></svg>