<svg id="Layer_1" viewBox="0 0 24 24" xmlns="http://www.w3.org/2000/svg" data-name="Layer 1"><path d="m6 6h1.566c.681.996 1.662 2.045 3.043 2.725.124.061.258.098.391.139v.636c0 .827-.673 1.5-1.5 1.5h-.5c-.553 0-1 .448-1 1s.447 1 1 1h6c.553 0 1-.448 1-1s-.447-1-1-1h-.5c-.827 0-1.5-.673-1.5-1.5v-.636c.132-.041.266-.078.391-.139 1.381-.68 2.362-1.729 3.043-2.725h1.566c.553 0 1-.448 1-1s-.447-1-1-1h-.496c.253-.64.218-.612.45-1.624.128-.581-.014-1.181-.387-1.645-.374-.465-.931-.731-1.527-.731h-8.08c-.597 0-1.153.267-1.527.731-.373.464-.515 1.064-.387 1.645.232 1.014.197.983.45 1.624h-.496c-.553 0-1 .448-1 1s.447 1 1 1zm9.989-4c-.102.464-.175.793-.205.895-.23.681-1.145 2.986-3.276 4.036-.289.109-.726.109-1.016 0-2.132-1.05-3.046-3.355-3.272-4.026-.035-.116-.113-.464-.26-.905zm5.011 16h-3c-.351 0-.688.061-1 .171v-.171c0-1.654-1.346-3-3-3h-4c-1.381 0-2.548.938-2.895 2.211-.343-.136-.716-.211-1.105-.211h-3c-1.654 0-3 1.346-3 3v1c0 1.654 1.346 3 3 3h18c1.654 0 3-1.346 3-3s-1.346-3-3-3zm-14 4h-4c-.552 0-1-.449-1-1v-1c0-.551.448-1 1-1h3c.552 0 1 .449 1 1zm8 0h-6v-4c0-.551.448-1 1-1h4c.552 0 1 .449 1 1zm6 0h-4v-1c0-.551.448-1 1-1h3c.552 0 1 .449 1 1s-.448 1-1 1z"/></svg>