<svg id="Layer_1" viewBox="0 0 24 24" xmlns="http://www.w3.org/2000/svg" data-name="Layer 1"><path d="m12 6.276v-1.776c0-2.481-2.019-4.5-4.5-4.5s-4.5 2.019-4.5 4.5v1.776c-1.742.621-3 2.271-3 4.224v4c0 2.481 2.019 4.5 4.5 4.5h6c2.481 0 4.5-2.019 4.5-4.5v-4c0-1.953-1.258-3.602-3-4.224zm-4.5-4.276c1.378 0 2.5 1.122 2.5 2.5v1.5h-5v-1.5c0-1.378 1.122-2.5 2.5-2.5zm5.5 12.5c0 1.378-1.122 2.5-2.5 2.5h-6c-1.378 0-2.5-1.122-2.5-2.5v-4c0-1.378 1.122-2.5 2.5-2.5h6c1.378 0 2.5 1.122 2.5 2.5zm-4.5-2.5v1c0 .552-.448 1-1 1s-1-.448-1-1v-1c0-.552.448-1 1-1s1 .448 1 1zm8.5-5c0-.552.448-1 1-1h1.5c.827 0 1.5-.673 1.5-1.5v-.777c-.595-.346-1-.984-1-1.723 0-1.105.895-2 2-2s2 .895 2 2c0 .738-.405 1.376-1 1.723v.777c0 1.93-1.57 3.5-3.5 3.5h-1.5c-.552 0-1-.448-1-1zm7 15c0 1.105-.895 2-2 2s-2-.895-2-2c0-.738.405-1.376 1-1.723v-.777c0-.827-.673-1.5-1.5-1.5h-1.5c-.552 0-1-.448-1-1s.448-1 1-1h1.5c1.93 0 3.5 1.57 3.5 3.5v.777c.595.346 1 .984 1 1.723zm0-10c0 1.105-.895 2-2 2-.738 0-1.376-.405-1.723-1h-2.277c-.552 0-1-.448-1-1s.448-1 1-1h2.277c.346-.595.984-1 1.723-1 1.105 0 2 .895 2 2z"/></svg>