<svg id="Layer_1" viewBox="0 0 24 24" xmlns="http://www.w3.org/2000/svg" data-name="Layer 1"><path d="m23.818 13.366-.143-.459c-.201-.644-.642-1.168-1.241-1.476-.397-.205-.833-.287-1.268-.265-.18-.506-.726-.787-1.241-.619l-6.237 2c-.498.159-.77.673-.656 1.174l-3.522 1.151 1.132-3.895c.363-.056.685-.298.804-.672l1.999-6.241c.153-.477-.082-.969-.517-1.185.03-.452-.055-.906-.27-1.318-.309-.594-.831-1.031-1.471-1.231l-.47-.147c-2.103-.657-4.351.519-5.007 2.616l-5.034 15.651c-.42.578-.676 1.282-.676 2.05 0 1.93 1.569 3.5 3.498 3.5s3.498-1.57 3.498-3.5-1.569-3.5-3.498-3.5c-.09 0-.175.02-.264.027l4.383-13.624c.328-1.052 1.45-1.643 2.505-1.312l.47.147c.348.113.421.304.32.652l-3.85 13.24c-.104.355-.002.74.265.998.266.259.653.347 1.005.231l12.802-4.182c.385-.116.501 0 .632.326l.143.458c.329 1.054-.26 2.178-1.325 2.511l-10.902 3.576c-.525.172-.81.737-.638 1.262.171.53.75.81 1.261.639l10.888-3.572c2.104-.657 3.281-2.905 2.623-5.012zm-18.821 7.134c0 .827-.673 1.5-1.499 1.5s-1.499-.673-1.499-1.5c.004-.815.674-1.498 1.499-1.5.827 0 1.499.673 1.499 1.5z"/></svg>