<svg id="Layer_1" viewBox="0 0 24 24" xmlns="http://www.w3.org/2000/svg" data-name="Layer 1"><path d="m23.989 15.187c0-.834-.067-1.675-.198-2.494l-1.293-8.435c-.377-2.457-2.454-4.258-4.94-4.258h-.566c-.552 0-1 .466-1 1.018s.448.982 1 .982h.566c1.492 0 2.738 1.087 2.964 2.56l1.272 8.298c-.218-.077-.445-.134-.68-.165-2.453-.322-6.137-.693-9.119-.693-2.946 0-6.586.366-9.011.683-.278.036-.541.115-.795.214l1.278-8.337c.226-1.473 1.472-2.56 2.964-2.56h.566c.552 0 1-.43 1-.982s-.448-1.018-1-1.018h-.566c-2.486 0-4.563 1.801-4.94 4.258l-1.292 8.428c-.132.825-.199 1.666-.199 2.501 0 0 0 .589.089 1.395l.684 4.097c.323 1.935 1.981 3.321 3.944 3.321h2.04c1.431 0 2.761-.753 3.471-1.995l.835-1.461c.279-.488.745-.541.932-.541.149.028.653.052.933.541l.835 1.461c.71 1.242 2.04 1.995 3.471 1.995h2.096c1.938 0 3.593-1.366 3.936-3.273.227-1.266.499-2.827.712-4.233.042-.277.011-1.308.011-1.308zm-2.691 5.187c-.171.954-.999 1.626-1.968 1.626h-2.096c-.715 0-1.381-.366-1.736-.986l-.835-1.461c-.554-.969-1.551-1.548-2.668-1.548h-.002c-1.117 0-2.113.58-2.667 1.548l-.835 1.461c-.355.621-1.02.986-1.736.986h-2.04c-.981 0-1.81-.682-1.972-1.65l-.684-4.097c-.062-.371.027-.741.251-1.042.225-.303.555-.497.93-.546 2.363-.309 5.903-.665 8.752-.665 2.889 0 6.578.376 8.859.675.758.077 1.211.803 1.147 1.521-.21 1.387-.479 2.929-.703 4.178zm-13.484-10.374h8.361c1.093 0 1.774-1.186 1.224-2.13l-4.181-7.167c-.547-.937-1.9-.937-2.447 0l-4.181 7.167c-.551.944.13 2.13 1.224 2.13zm3.181-7c0-.552.448-1 1-1s1 .448 1 1v2c0 .552-.448 1-1 1s-1-.448-1-1zm1 4c.552 0 1 .448 1 1s-.448 1-1 1-1-.448-1-1 .448-1 1-1z"/></svg>