<svg id="Layer_1" viewBox="0 0 24 24" xmlns="http://www.w3.org/2000/svg" data-name="Layer 1"><path d="m24 9.501c0 3.067-1.495 5.962-3.998 7.742-.999.711-1.835 1.799-2.632 3.426-.458.934-1.17 1.743-2.061 2.34-.983.658-2.144.985-3.303.985-1.266 0-2.532-.39-3.569-1.163-1.203-.896-2.024-2.188-2.312-3.637-.107-.541.245-1.067.786-1.175.543-.113 1.068.244 1.176.786.193.975.728 1.812 1.545 2.422 1.321.985 3.198 1.034 4.563.119.606-.406 1.07-.931 1.377-1.558.949-1.938 1.988-3.265 3.269-4.175 1.978-1.407 3.158-3.692 3.158-6.113 0-2.132-.913-4.171-2.504-5.594-1.614-1.442-3.693-2.101-5.87-1.857-2.219.25-4.271 1.552-5.488 3.483-.295.467-.913.605-1.379.313-.467-.295-.607-.912-.313-1.379 1.539-2.44 4.14-4.086 6.958-4.403 2.707-.305 5.412.554 7.426 2.353 2.015 1.801 3.171 4.384 3.171 7.085zm-9.5-3.5c1.93 0 3.5 1.57 3.5 3.5 0 .552.447 1 1 1s1-.448 1-1c0-3.033-2.468-5.5-5.5-5.5-2.855-.003-5.263 2.168-5.5 4.999 0 1.298 1.03 2 2 2.001.551 0 1 .449 1 1s-.449 1-1 1-1 .447-1 1 .448 1 1 1c1.654 0 3-1.346 3-3s-1.341-2.996-2.992-3.001c.245-1.717 1.727-2.999 3.492-2.999zm-8.157 9.706c.391.391 1.023.391 1.414 0s.391-1.023 0-1.414l-2.293-2.293 2.293-2.293c.391-.391.391-1.023 0-1.414s-1.023-.391-1.414 0l-2.293 2.293-2.293-2.293c-.391-.391-1.023-.391-1.414 0s-.391 1.023 0 1.414l2.293 2.293-2.293 2.293c-.391.391-.391 1.023 0 1.414s1.023.391 1.414 0l2.293-2.293z"/></svg>