<svg id="Layer_1" viewBox="0 0 24 24" xmlns="http://www.w3.org/2000/svg" data-name="Layer 1"><path d="m21.182 6.942s0 0-.001 0l-.985-.591c-.497-.713-.887-1.382-1.265-2.029-1.352-2.319-2.519-4.321-6.931-4.321s-5.579 2.001-6.931 4.32c-.378.647-.768 1.316-1.265 2.029l-.986.592c-.505.304-.818.859-.818 1.448-.031 1.087 1.115 1.952 2.151 1.624.73-.208 1.333-.371 1.875-.503.087 1.028.433 1.982.974 2.797v3.69h-3c-.552 0-1 .447-1 1s.448 1 1 1h3.333l1.667 4h-3c-.551 0-1-.448-1-1s-.448-1-1-1-1 .447-1 1c0 1.654 1.346 3 3 3h12c1.654 0 3-1.346 3-3 0-.553-.448-1-1-1s-1 .447-1 1-.449 1-1 1h-3l1.667-4h3.333c.552 0 1-.447 1-1s-.448-1-1-1h-3v-3.69c.512-.771.85-1.667.959-2.632.494.118 1.449.351 1.962.474 1.068.288 2.175-.661 2.079-1.761 0-.589-.313-1.145-.818-1.448zm-6.182 9.401c-.474.188-1.2.432-2 .563v-1.997c.718-.121 1.392-.369 2-.721zm-4 .563c-.8-.131-1.526-.375-2-.563v-2.155c.608.353 1.282.6 2 .721zm.167 5.094-1.377-3.305c.673.171 1.435.305 2.21.305s1.537-.133 2.21-.305l-1.377 3.305h-1.667zm.833-9c-2.157 0-3.91-1.72-3.986-3.859 1.05-.125 2.164-.141 3.986-.141 1.734 0 2.898.095 3.973.269-.141 2.079-1.859 3.731-3.973 3.731zm0-6c-3.148 0-4.38.054-6.641.617.586-.828 1.038-1.604 1.438-2.289 1.292-2.216 1.941-3.328 5.203-3.328s3.911 1.112 5.203 3.328c.438.726.94 1.666 1.609 2.497-2.132-.517-3.594-.825-6.812-.825zm3-2.5c0 .828-.672 1.5-1.5 1.5s-1.5-.672-1.5-1.5.672-1.5 1.5-1.5 1.5.672 1.5 1.5z"/></svg>