<svg id="Layer_1" viewBox="0 0 24 24" xmlns="http://www.w3.org/2000/svg" data-name="Layer 1"><path d="m23 0c-.552 0-1 .448-1 1v1h-2v-1c0-.552-.448-1-1-1s-1 .448-1 1v2c0 1.304.837 2.403 2 2.816v9.184c0 1.654-1.346 3-3 3h-.003c-.009-1.467-.26-2.912-.754-4.294l-.853-2.388c-.709-1.985-2.602-3.318-4.709-3.318h-4.362c-2.107 0-4 1.333-4.709 3.318l-.853 2.388c-.502 1.407-.757 2.878-.757 4.373 0 1.461.812 2.722 2 3.397v.524c0 1.103.897 2 2 2s2-.897 2-2h5c0 1.103.897 2 2 2s2-.897 2-2v-.524c.617-.351 1.125-.859 1.476-1.476h.524c2.757 0 5-2.243 5-5v-9.184c1.163-.413 2-1.512 2-2.816v-2c0-.552-.448-1-1-1zm-19.506 11.991c.425-1.191 1.561-1.991 2.825-1.991h4.362c1.265 0 2.4.8 2.825 1.991l.717 2.009h-11.447l.717-2.009zm.428 8.009c-1.06 0-1.921-.862-1.921-1.921 0-.701.073-1.395.205-2.079h1.795v1c0 .552.448 1 1 1s1-.448 1-1v-1h5v1c0 .552.448 1 1 1s1-.448 1-1v-1h1.795c.132.683.205 1.377.205 2.079 0 1.06-.862 1.921-1.921 1.921h-9.159z"/></svg>