<svg id="Layer_1" viewBox="0 0 24 24" xmlns="http://www.w3.org/2000/svg" data-name="Layer 1"><path d="m8.001 22h-3c-1.654 0-3-1.346-3-3v-14c0-1.654 1.346-3 3-3h4.515c.163 0 .325.008.485.023v4.977c0 1.654 1.346 3 3 3h5.813c.309 0 .601-.143.79-.387s.255-.562.179-.861c-.311-1.216-.944-2.329-1.833-3.217l-3.484-3.484c-1.322-1.322-3.08-2.051-4.95-2.051h-4.515c-2.757 0-5.001 2.243-5.001 5v14c0 2.757 2.244 5 5.001 5h3c.553 0 1-.447 1-1s-.447-1-1-1zm4-19.341c.38.218.732.488 1.051.806l3.484 3.484c.314.314.584.668.804 1.051h-4.339c-.552 0-1-.448-1-1zm11.121 9.22c-1.17-1.17-3.072-1.17-4.242 0l-6.707 6.707c-.756.756-1.172 1.76-1.172 2.828v1.586c0 .553.447 1 1 1h1.586c1.068 0 2.072-.416 2.828-1.172l6.707-6.707c1.17-1.17 1.17-3.072 0-4.242zm-1.414 2.828-6.707 6.707c-.378.378-.88.586-1.414.586h-.586v-.586c0-.534.208-1.036.586-1.414l6.707-6.707c.391-.391 1.023-.391 1.414 0s.39 1.024 0 1.414zm-8.707.293c.553 0 1-.447 1-1s-.447-1-1-1h-3v-2c0-1.103-.897-2-2-2h-2c-1.103 0-2 .897-2 2v6c0 1.103.897 2 2 2h3c.553 0 1-.447 1-1v-3zm-5-4v2h-2v-2zm0 6h-2v-2h2z"/></svg>