<svg id="Layer_1" viewBox="0 0 24 24" xmlns="http://www.w3.org/2000/svg" data-name="Layer 1"><path d="m24 12c0 6.617-5.383 12-12 12s-12-5.383-12-12c0-.553.448-1 1-1s1 .447 1 1c0 5.514 4.486 10 10 10s10-4.486 10-10c0-.553.448-1 1-1s1 .447 1 1zm-7.44-2.44c.586-.585.586-1.536 0-2.121s-1.536-.585-2.121 0c-.585.586-.585 1.536 0 2.121s1.536.586 2.121 0zm-.56-7.56c3.309 0 6 2.691 6 6 0 .553.448 1 1 1s1-.447 1-1c0-4.411-3.589-8-8-8-.552 0-1 .447-1 1s.448 1 1 1zm0 3.5c1.378 0 2.5 1.121 2.5 2.5 0 .553.448 1 1 1s1-.447 1-1c0-2.481-2.019-4.5-4.5-4.5-.552 0-1 .447-1 1s.448 1 1 1zm-4 14.5c4.411 0 8-3.589 8-8 0-.553-.448-1-1-1s-1 .447-1 1c0 3.309-2.691 6-6 6-2.967 0-5.431-2.167-5.91-5h2.91c.552 0 1-.447 1-1s-.448-1-1-1h-3v-2h3c.552 0 1-.447 1-1s-.448-1-1-1h-2.91c.478-2.833 2.942-5 5.91-5 .552 0 1-.447 1-1s-.448-1-1-1c-4.411 0-8 3.589-8 8v4c0 4.411 3.589 8 8 8z"/></svg>