<svg id="Layer_1" viewBox="0 0 24 24" xmlns="http://www.w3.org/2000/svg" data-name="Layer 1"><path d="m23.707 22.293-5.969-5.969c1.412-1.725 2.262-3.927 2.262-6.324 0-5.514-4.486-10-10-10s-10 4.486-10 10 4.486 10 10 10c2.398 0 4.6-.85 6.324-2.262l5.969 5.969c.391.391 1.023.391 1.414 0s.391-1.023 0-1.414zm-21.707-12.293c0-4.411 3.589-8 8-8s8 3.589 8 8-3.589 8-8 8-8-3.589-8-8zm11.973-1.744-4.498-2.464c-1.265-.771-3.025.258-2.975 1.738v4.939c-.051 1.475 1.703 2.506 2.964 1.745l4.508-2.47c1.35-.698 1.353-2.785 0-3.489zm-5.473 4.214.003-4.93 4.502 2.453-4.506 2.477z"/></svg>