<svg id="Layer_1" viewBox="0 0 24 24" xmlns="http://www.w3.org/2000/svg" data-name="Layer 1"><path d="m20.929 22.876c.068.548-.32 1.048-.868 1.116-.553.07-1.048-.321-1.116-.868-.199-1.588-.894-3.11-1.813-3.973-.302-.244-.601-.164-.832.062l-3.517 4.411c-.377.497-1.189.497-1.564-.001l-3.543-4.457c-.194-.176-.527-.258-.798-.021-.923.862-1.621 2.387-1.82 3.979-.066.55-.579.939-1.116.868-.548-.068-.937-.568-.868-1.116.258-2.066 1.17-4.008 2.44-5.194 1.009-.99 2.783-.87 3.694.198l2.795 3.515 2.77-3.471c.951-1.113 2.687-1.234 3.729-.232 1.264 1.184 2.172 3.122 2.43 5.184zm-16.807-8.106c1.075-4.542 1.673-7.01 1.778-7.333.034-.105.1-.391.1-.436v-4.001c0-1.654 1.346-3 3-3h6c1.654 0 3 1.346 3 3v4c0 .046.066.331.1.437.149.461 1.294 5.282 1.779 7.333.127.537-.206 1.076-.743 1.203-.524.128-1.078-.201-1.204-.743-.945-3.999-1.75-7.213-1.756-7.23h-3.171c-.05.084-.099.17-.175.239-1.254 1.144-2.877 1.759-4.537 1.759-.051 0-.103-.008-.154-.009.444 1.726 1.999 3.01 3.861 3.01.703 0 1.395-.185 1.999-.535.479-.277 1.091-.114 1.366.365.277.478.113 1.09-.364 1.366-.909.525-1.946.803-3.001.803-2.203 0-4.128-1.197-5.171-2.972-.213.893-.465 1.953-.761 3.202-.125.542-.68.87-1.204.743-.537-.127-.87-.666-.743-1.204zm10.878-12.77h-2v1h1c.553 0 1 .448 1 1s-.447 1-1 1h-1v1h3v-3c0-.551-.448-1-1-1zm-7 4h3v-1h-1c-.552 0-1-.448-1-1s.448-1 1-1h1v-1h-2c-.551 0-1 .449-1 1z"/></svg>