<svg id="Layer_1" viewBox="0 0 24 24" xmlns="http://www.w3.org/2000/svg" data-name="Layer 1"><path d="m9.771 12.563c-.308-1.15-.731-2.427-1.299-3.563 1.18.843 1.959 1.683 2.476 2.429.27.389.833.413 1.157.067.191-.204.378-.416.56-.635.484-.583.462-1.44-.04-2.007-.775-.875-1.713-1.902-2.653-2.855 1.41.167 2.572.718 3.487 1.361.494.347 1.164.067 1.3-.521.074-.321.131-.652.167-.987.093-.857-.378-1.686-1.181-2.001-.923-.363-1.884-.679-2.773-.852.879-.46 1.721-.659 2.491-.701.487-.026.754-.603.451-.986-.631-.797-1.581-1.313-2.944-1.313-3.001 0-3.502 2.001-3.502 2.001s-.5-2.001-3.502-2.001c-1.362.001-2.312.517-2.943 1.314-.303.383-.036.96.452.986.772.041 1.616.24 2.497.701-.891.174-1.855.491-2.78.855-.803.316-1.274 1.145-1.181 2.002.036.335.093.667.168.988.136.588.807.867 1.3.52.916-.645 2.08-1.198 3.492-1.365-.941.954-1.881 1.983-2.656 2.859-.503.567-.524 1.425-.04 2.007.182.219.37.43.561.635.323.346.887.322 1.157-.068.517-.747 1.297-1.589 2.479-2.433-.569 1.137-.992 2.416-1.3 3.568-.144.539.042 1.112.474 1.465.232.19.451.368.65.537.68.574 1.665.574 2.345 0 .201-.17.422-.35.656-.541.432-.353.618-.926.474-1.465zm.278-4.4c.45-.36.997.462 1.188.776.121.173.204.472-.014.6-.147.078-.324-.025-.452-.131-.274-.227-1.171-.885-.722-1.244zm-8.105-2.268c-.2-.008-.44-.043-.598-.172-.158-.188.006-.437.165-.569.425-.391 1.406-1.181 1.922-.521.476.609-1.014 1.238-1.489 1.262zm21.16 13.952c-1.031-.596-2.234-1.199-3.438-1.601 1.43-.238 2.576-.195 3.469-.033.466.084.881-.297.865-.77-.01-.285-.027-.572-.054-.861-.07-.748-.684-1.329-1.434-1.374-1.169-.071-2.564-.134-3.907-.144 1.114-.879 2.327-1.311 3.428-1.503.595-.104.871-.775.551-1.287-.175-.28-.369-.554-.58-.816-.54-.672-1.459-.924-2.25-.58-.909.396-1.812.853-2.563 1.358.297-.947.751-1.683 1.266-2.257.326-.363.107-.96-.378-1.016-1.01-.118-2.047.189-3.011 1.153-2.122 2.122-1.061 3.891-1.061 3.891s-1.769-1.061-3.891 1.061c-.964.964-1.27 2-1.153 3.01.056.485.654.704 1.017.378.574-.517 1.312-.973 2.261-1.27-.507.753-.965 1.659-1.361 2.57-.344.791-.091 1.71.581 2.25.263.211.537.405.817.58.512.319 1.184.043 1.287-.552.192-1.103.623-2.318 1.504-3.435.009 1.345.073 2.742.144 3.912.045.75.627 1.364 1.374 1.434.289.027.577.044.862.054.473.016.855-.4.77-.866-.163-.894-.207-2.041.032-3.473.402 1.206 1.007 2.41 1.603 3.442.279.483.816.756 1.371.7.298-.03.579-.058.84-.08.886-.075 1.583-.772 1.658-1.658.022-.262.051-.546.081-.847.056-.555-.218-1.092-.7-1.371zm-10.25.82c-.147.136-.342.281-.545.301-.245-.021-.305-.314-.285-.519.024-.577.159-1.829.991-1.727.767.094.159 1.592-.161 1.945zm8.975 1.271c-.377.781-1.074-.188-1.321-.649-.123-.273-.2-.562.007-.82.063-.079.137-.127.216-.152.205-.064.443.035.62.174.165.13.314.281.441.448.216.283.187.69.038 1zm-16.204-5.719c.431.346.501.975.156 1.406-1.383 1.728-1.755 4.052-1.85 4.972-.085.801-.755 1.403-1.56 1.403-.696 0-1.316-.468-1.508-1.137-.268-.939-.89-3.39-.89-5.863 0-1.525.551-3.237.574-3.31.172-.524.736-.812 1.26-.642.524.171.812.734.643 1.26-.005.015-.477 1.487-.477 2.691 0 1.176.159 2.356.346 3.334.323-1.226.894-2.702 1.898-3.959.346-.43.974-.502 1.406-.156z"/></svg>