<svg id="Layer_1" viewBox="0 0 24 24" xmlns="http://www.w3.org/2000/svg" data-name="Layer 1"><path d="m22.646 1.531c-.848-.565-1.916-.669-2.857-.277l-2.935 1.222c-2.997-1.174-6.961-2.476-9.854-2.476-3.86 0-7 3.139-7 6.998 0 2.677 1.513 5.005 3.727 6.182l3.541 8.659c.687 1.751 2.731 2.655 4.577 1.885 1.737-.725 2.645-2.854 1.885-4.576l-2.451-5.881c1.644-.47 3.494-1.145 5.554-1.964l2.867 1.418c.404.184.833.274 1.261.274.574 0 1.144-.163 1.645-.485.874-.562 1.395-1.518 1.395-2.557v-5.892c0-1.019-.506-1.964-1.354-2.53zm-20.646 5.467c0-2.756 2.243-4.999 5-4.999 2.058 0 5.16.789 9 2.287v5.198c-3.366 1.335-6.724 2.512-9 2.512-2.757 0-5-2.243-5-4.999zm9.884 12.918c.326.738-.057 1.667-.808 1.961-.734.325-1.667-.057-1.958-.802l-2.916-7.129c.262.03.528.049.798.049.707 0 1.481-.092 2.312-.252l2.572 6.172zm10.116-9.963c0 .361-.174.68-.478.876-.303.195-.667.223-.965.086l-2.558-1.266v-5.484l2.558-1.065c.328-.137.684-.102.979.095.294.196.463.512.463.866v5.892z"/></svg>