<svg id="Layer_1" viewBox="0 0 24 24" xmlns="http://www.w3.org/2000/svg" data-name="Layer 1"><path d="m10 22h-5c-1.654 0-3-1.346-3-3v-6c0-1.654 1.346-3 3-3h10c.528 0 1.046.139 1.499.4.476.276 1.089.113 1.366-.364.277-.478.113-1.09-.364-1.366-.162-.094-.33-.173-.501-.247v-1.422c0-3.86-3.141-7-7-7s-7 3.139-7 6.999v1.424c-1.763.774-3 2.531-3 4.576v6c0 2.757 2.243 5 5 5h5c.553 0 1-.448 1-1s-.447-1-1-1zm-5-15c0-2.757 2.243-5 5-5s5 2.243 5 5v1h-10zm13 5c-3.309 0-6 2.691-6 6s2.691 6 6 6 6-2.691 6-6-2.691-6-6-6zm2.776 8.87c-.445-1.095-1.514-1.87-2.768-1.87h-.016c-1.254 0-2.325.773-2.769 1.868-.751-.728-1.222-1.742-1.222-2.868 0-2.206 1.794-4 4-4s4 1.794 4 4c0 1.127-.472 2.142-1.224 2.87zm-1.276-4.37c0 .828-.672 1.5-1.5 1.5s-1.5-.672-1.5-1.5.672-1.5 1.5-1.5 1.5.672 1.5 1.5zm-8.5-1.5v2c0 .552-.447 1-1 1s-1-.448-1-1v-2c0-.552.447-1 1-1s1 .448 1 1z"/></svg>