<svg id="Layer_1" viewBox="0 0 24 24" xmlns="http://www.w3.org/2000/svg" data-name="Layer 1"><path d="m23.733 14.545-2.093 2.093c-.353.353-.927.353-1.28 0l-2.093-2.093c-.57-.57-.166-1.545.64-1.545h4.186c.806 0 1.21.975.64 1.545zm-4.826-3.545h4.186c.806 0 1.21-.975.64-1.545l-2.093-2.093c-.353-.353-.927-.353-1.28 0l-2.093 2.093c-.57.57-.166 1.545.64 1.545zm1.093 8c0 2.757-2.243 5-5 5h-10c-2.757 0-5-2.243-5-5v-14c0-2.757 2.243-5 5-5h10c2.757 0 5 2.243 5 5 0 .552-.447 1-1 1s-1-.448-1-1c0-1.654-1.346-3-3-3h-4v20h4c1.654 0 3-1.346 3-3 0-.552.447-1 1-1s1 .448 1 1zm-15 3h4v-20h-4c-1.654 0-3 1.346-3 3v14c0 1.654 1.346 3 3 3z"/></svg>