<svg id="Layer_1" viewBox="0 0 24 24" xmlns="http://www.w3.org/2000/svg" data-name="Layer 1"><path d="m22 4.556v-1.056c0-1.93-1.57-3.5-3.5-3.5s-3.5 1.57-3.5 3.5v1.056c-1.19.694-2 1.97-2 3.444v2c0 2.206 1.794 4 4 4h3c2.206 0 4-1.794 4-4v-2c0-1.474-.81-2.75-2-3.444zm-5-1.056c0-.827.673-1.5 1.5-1.5s1.5.673 1.5 1.5v.5h-3zm5 6.5c0 1.103-.897 2-2 2h-3c-1.103 0-2-.897-2-2v-2c0-1.103.897-2 2-2h3c1.103 0 2 .897 2 2zm-2-1c0 .828-.672 1.5-1.5 1.5s-1.5-.672-1.5-1.5.672-1.5 1.5-1.5 1.5.672 1.5 1.5zm2.256 7.109c-.492-.251-1.094-.056-1.346.436-.765 1.497-1.878 2.722-3.196 3.643-.77-2.453-3.04-4.188-5.714-4.188s-4.948 1.737-5.716 4.193c-2.586-1.81-4.284-4.805-4.284-8.193 0-5.514 4.486-10 10-10 .552 0 1-.447 1-1s-.448-1-1-1c-6.617 0-12 5.383-12 12s5.383 12 12 12c4.531 0 8.627-2.508 10.691-6.545.251-.491.056-1.094-.436-1.346zm-14.16 5.097c.371-1.85 1.974-3.206 3.904-3.206s3.532 1.356 3.903 3.205c-1.212.512-2.532.795-3.903.795-1.384 0-2.703-.283-3.904-.794zm1.904-11.206c0 .846.536 1.604 1.333 1.887.521.184.793.755.609 1.275-.184.526-.769.793-1.276.609-1.595-.563-2.667-2.08-2.667-3.771 0-1.424.766-2.751 2-3.465.478-.276 1.089-.112 1.366.365.276.479.113 1.09-.365 1.367-.617.356-1 1.021-1 1.732z"/></svg>