<svg id="Layer_1" viewBox="0 0 24 24" xmlns="http://www.w3.org/2000/svg" data-name="Layer 1"><path d="m18.258 14.253c.423.355.479.986.124 1.409-1.518 1.811-3.436 2.955-5.382 3.253v4.085c0 .553-.448 1-1 1s-1-.447-1-1v-4.078c-4.511-.665-8-5.7-8-9.922 0-.144.015-.275.022-.412-1.81-.779-3.022-2.567-3.022-4.588v-3c0-.553.448-1 1-1s1 .447 1 1v3c0 1.08.58 2.044 1.473 2.574 1.102-2.532 3.957-3.363 6.444-3.57.554-.061 1.034.362 1.08.913s-.363 1.033-.914 1.079c-5.083.424-5.083 3.024-5.083 4.004 0 3.526 3.296 8 7 8 1.685 0 3.452-.956 4.85-2.623.354-.423.984-.48 1.409-.124zm3.542-5.867.622.622c.852-.065 1.582.643 1.578 1.492 0 .828-.672 1.5-1.5 1.5-.849.004-1.557-.726-1.492-1.578l-.622-.622c-.421.266-.887.465-1.386.579v.621c0 .553-.448 1-1 1s-1-.447-1-1v-.621c-.5-.114-.965-.313-1.386-.579l-.622.622c.065.852-.643 1.582-1.492 1.578-.828 0-1.5-.672-1.5-1.5-.004-.849.726-1.557 1.578-1.492l.622-.622c-.266-.421-.465-.887-.579-1.386h-.621c-.552 0-1-.447-1-1s.448-1 1-1h.621c.114-.5.313-.965.579-1.386l-.622-.622c-.852.065-1.582-.643-1.578-1.492 0-.828.672-1.5 1.5-1.5.849-.004 1.557.726 1.492 1.578l.622.622c.421-.266.887-.465 1.386-.579v-.621c0-.553.448-1 1-1s1 .447 1 1v.621c.5.114.965.313 1.386.579l.622-.622c-.065-.852.643-1.582 1.492-1.578.828 0 1.5.672 1.5 1.5.004.849-.726 1.557-1.578 1.492l-.622.622c.266.421.465.887.579 1.386h.621c.552 0 1 .447 1 1s-.448 1-1 1h-.621c-.114.5-.313.965-.579 1.386zm-1.3-2.386c0-1.379-1.122-2.5-2.5-2.5s-2.5 1.121-2.5 2.5 1.122 2.5 2.5 2.5 2.5-1.121 2.5-2.5z"/></svg>