<svg id="Layer_1" viewBox="0 0 24 24" xmlns="http://www.w3.org/2000/svg" data-name="Layer 1"><path d="m13 6c-2.206 0-4 1.794-4 4v3.983c0 2.206 1.794 4 4 4s4-1.794 4-4v-3.983c0-2.206-1.794-4-4-4zm2 7.983c0 1.103-.897 2-2 2s-2-.897-2-2v-3.983c0-1.103.897-2 2-2s2 .897 2 2zm3.812-4.983c-.448 0-.812-.364-.812-.812v-1.376c0-.448.364-.812.812-.812h.229c.502 0 .884.451.801.946l-.229 1.376c-.065.392-.404.679-.801.679zm-14.812-3c-2.206 0-4 1.794-4 4s1.794 4 4 4c.732 0 1.409-.212 2-.556v.556c0 1.103-.897 2-2 2h-2c-.553 0-1 .447-1 1s.447 1 1 1h2c2.206 0 4-1.794 4-4v-4c0-2.206-1.794-4-4-4zm0 6c-1.103 0-2-.897-2-2s.897-2 2-2 2 .897 2 2-.897 2-2 2zm19.971 3.972c-.191 1.175-1.215 2.028-2.436 2.028-.664 0-1.3-.195-1.839-.552-.388-.257-.448-.802-.119-1.131.236-.235.603-.283.888-.111.316.191.688.297 1.069.297.604 0 1.031-.404 1.096-.795.089-.55-.602-.873-.816-.959-.915-.371-1.751-.78-1.753-.78-.692-.484-1.027-1.231-.921-2.049.111-.845.674-1.534 1.471-1.796.839-.277 1.603-.076 2.152.203.405.205.518.733.238 1.095l-.011.014c-.195.253-.539.347-.831.216-.308-.138-.72-.237-1.156-.096-.412.136-.517.447-.516.577.005.442.335.57.433.615.282.128.806.368 1.366.595 1.461.591 1.828 1.745 1.685 2.627z"/></svg>