<svg id="Layer_1" viewBox="0 0 24 24" xmlns="http://www.w3.org/2000/svg" data-name="Layer 1"><path d="m6.021 17.997c.002.552-.444 1.001-.996 1.003h-.004c-.551 0-.998-.445-1-.997-.018-5.233 2.135-7.055 4.216-8.815.169-.143.341-.292.512-.44l-.527-.527c-.451-.451-.132-1.221.506-1.221h2.023c.69 0 1.25.56 1.25 1.25v2.035c0 .633-.765.95-1.213.502l-.621-.621c-.214.186-.428.371-.638.548-1.968 1.665-3.522 2.98-3.508 7.282zm6.687-3.704c-.391-.391-1.023-.391-1.414 0l-.793.793-.793-.793c-.391-.391-1.023-.391-1.414 0s-.391 1.023 0 1.414l.793.793-.793.793c-.391.391-.391 1.023 0 1.414s1.023.391 1.414 0l.793-.793.793.793c.391.391 1.023.391 1.414 0s.391-1.023 0-1.414l-.793-.793.793-.793c.391-.391.391-1.023 0-1.414zm-6.707-5.793c0-.828-.672-1.5-1.5-1.5s-1.5.672-1.5 1.5.672 1.5 1.5 1.5 1.5-.672 1.5-1.5zm10-2.5v13c0 2.757-2.243 5-5 5h-6.001c-2.757 0-5-2.243-5-5v-13c0-1.858 1.279-3.411 3-3.858v-1.142c0-.552.447-1 1-1s1 .448 1 1v1h2v-1c0-.552.447-1 1-1s1 .448 1 1v1h2v-1c0-.552.447-1 1-1s1 .448 1 1v1.142c1.721.447 3 2 3 3.858zm-2 0c0-1.103-.897-2-2-2h-8.001c-1.103 0-2 .897-2 2v13c0 1.654 1.346 3 3 3h6c1.654 0 3-1.346 3-3v-13zm10-3v16.343c0 1.335-.521 2.59-1.465 3.535l-.828.829c-.188.188-.441.293-.707.293s-.52-.105-.707-.293l-.828-.829c-.944-.944-1.465-2.2-1.465-3.535v-16.343c0-1.654 1.346-3 3-3s3 1.346 3 3zm-2 0c0-.551-.448-1-1-1s-1 .449-1 1v16.343c0 .79.32 1.562.879 2.121l.121.121.121-.121c.559-.559.879-1.332.879-2.121z"/></svg>