<svg id="Layer_1" viewBox="0 0 24 24" xmlns="http://www.w3.org/2000/svg" data-name="Layer 1"><path d="m4.972 16.223c.429.348.496.977.148 1.406-.349.431-.98.494-1.406.148-2.36-1.909-3.714-4.744-3.714-7.777 0-5.514 4.486-10 10-10s10 4.486 10 10c0 .375-.021.746-.062 1.111-.059.551-.565.945-1.104.883-.549-.062-.944-.557-.883-1.105.032-.291.049-.588.049-.889 0-4.411-3.589-8-8-8s-8 3.589-8 8c0 2.427 1.083 4.695 2.972 6.223zm6.028-6.223v-4c0-.553-.448-1-1-1s-1 .447-1 1v3h-2c-.552 0-1 .447-1 1s.448 1 1 1h3c.552 0 1-.447 1-1zm13 9.714c0 1.781-1.557 3.286-3.4 3.286h-2.4c-.846.638-1.894 1-3.011 1h-2.378c-1.699 0-3.25-.827-4.151-2.212-.884-1.36-1.438-3.111-1.647-5.205-.163-1.336.972-2.612 2.319-2.583l9.337.002c1.347-.029 2.482 1.247 2.319 2.582-.015.152-.045.289-.064.437 1.901.105 3.076 1.11 3.076 2.693zm-8.81 2.286c1.019 0 1.944-.486 2.474-1.301.708-1.09 1.157-2.541 1.334-4.313-.007-.252-.065-.384-.329-.384l-9.338-.002c-.216 0-.322.131-.329.385.177 1.772.625 3.224 1.334 4.313.53.815 1.456 1.302 2.475 1.302h2.378zm6.81-2.286c.023-.489-.568-.735-1.465-.714-.199.727-.452 1.395-.76 2h.825c.746 0 1.4-.601 1.4-1.286z"/></svg>