<svg id="Layer_1" viewBox="0 0 24 24" xmlns="http://www.w3.org/2000/svg" data-name="Layer 1"><path d="m6 4.5c0 .828-.672 1.5-1.5 1.5s-1.5-.672-1.5-1.5.672-1.5 1.5-1.5 1.5.672 1.5 1.5zm2.5-1.5c-.828 0-1.5.672-1.5 1.5s.672 1.5 1.5 1.5 1.5-.672 1.5-1.5-.672-1.5-1.5-1.5zm15.5 2v10.038c0 .553-.448 1-1 1s-1-.447-1-1v-6.038h-20v11c0 .553-.448 1-1 1s-1-.447-1-1v-15c0-2.757 2.243-5 5-5h14c2.757 0 5 2.243 5 5zm-2 2v-2c0-1.654-1.346-3-3-3h-14c-1.654 0-3 1.346-3 3v2zm-13 9.5c-.828 0-1.5.672-1.5 1.5s.672 1.5 1.5 1.5 1.5-.672 1.5-1.5-.672-1.5-1.5-1.5zm2.5-.366c-.151-.088-.324-.134-.5-.134h-4c-.551 0-1 .448-1 1v2c0 .552.449 1 1 1h2c.552 0 1 .447 1 1s-.448 1-1 1h-2c-1.654 0-3-1.346-3-3v-2c0-1.105.608-2.062 1.5-2.583v-.917c0-1.93 1.57-3.5 3.5-3.5s3.5 1.57 3.5 3.5v.901s0 0 0 0c.478.277.642.889.365 1.366-.276.479-.888.641-1.366.366zm-4-2.634v.5h3v-.5c0-.827-.673-1.5-1.5-1.5s-1.5.673-1.5 1.5zm16.276 8.05c.633 1.086-.15 2.45-1.407 2.45h-9.616c-1.257 0-2.041-1.364-1.407-2.45l4.808-8.242c.629-1.078 2.186-1.078 2.814 0zm-5.215.45c0-.552-.448-1-1-1s-1 .448-1 1 .448 1 1 1 1-.448 1-1zm0-5.002c0-.552-.448-1-1-1s-1 .448-1 1v2.002c0 .552.448 1 1 1s1-.448 1-1z"/></svg>