<svg id="Layer_1" viewBox="0 0 24 24" xmlns="http://www.w3.org/2000/svg" data-name="Layer 1"><path d="m24 18.664v.336c0 1.214-1.082 2.176-2.335 1.973-.984-.16-1.665-1.083-1.665-2.079v-.23l.842-2.664h-1.842v6h2c.552 0 1 .448 1 1s-.448 1-1 1h-6c-.552 0-1-.448-1-1s.448-1 1-1h2v-6h-1.842l.842 2.664v.23c0 .996-.681 1.92-1.665 2.079-1.253.203-2.335-.758-2.335-1.973v-.336l1.054-3.276c.266-.827 1.035-1.388 1.904-1.388h2.042c0-.552.448-1 1-1s1 .448 1 1h2.042c.869 0 1.638.561 1.904 1.388zm-12 4.336c0 .552-.448 1-1 1h-7c-2.206 0-4-1.794-4-4v-15c0-2.757 2.243-5 5-5h10c2.757 0 5 2.243 5 5v5c0 .552-.448 1-1 1s-1-.448-1-1v-5c0-1.654-1.346-3-3-3h-9v14h3c.552 0 1 .448 1 1s-.448 1-1 1h-5c-1.103 0-2 .897-2 2s.897 2 2 2h7c.552 0 1 .448 1 1zm-10-18v11.556c.591-.345 1.268-.556 2-.556v-13.816c-1.161.414-2 1.514-2 2.816z"/></svg>