<svg id="Layer_1" viewBox="0 0 24 24" xmlns="http://www.w3.org/2000/svg" data-name="Layer 1"><path d="m16 10h-6v-5c1.434 0 2.801.617 3.751 1.693.366.414.997.452 1.412.088.414-.366.453-.998.087-1.412-1.33-1.506-3.243-2.369-5.25-2.369v-2c0-.553-.448-1-1-1s-1 .447-1 1v2c-3.86 0-7 3.141-7 7v6c0 4.411 3.589 8 8 8s8-3.589 8-8v-5c0-.553-.448-1-1-1zm-8-5v5h-5c0-2.757 2.243-5 5-5zm1 17c-3.309 0-6-2.691-6-6v-4h12v4c0 3.309-2.691 6-6 6zm14.993-14.084c0 .272-.09.678-.521 1.061l-2.356 1.757c-.331.302-.91.346-1.335.148-.462-.207-.761-.661-.761-1.155v-2.002l-.409.3c-.442.325-1.069.232-1.398-.216-.326-.445-.229-1.071.216-1.397l1.245-.912-1.245-.911c-.446-.326-.543-.951-.217-1.397.326-.445.952-.544 1.397-.216l.41.3v-2.003c0-.494.299-.948.761-1.155.444-.201.958-.143 1.332.146 0 0 2.306 1.556 2.339 1.586.366.325.55.698.549 1.108-.001.409-.187.779-.551 1.101-.031.027-2.091 1.432-2.091 1.432s2.013 1.263 2.055 1.3c.144.127.58.514.58 1.126z"/></svg>