<svg id="Layer_1" viewBox="0 0 24 24" xmlns="http://www.w3.org/2000/svg" data-name="Layer 1"><path d="m22 18.184v-5.184c0-.552-.448-1-1-1s-1 .448-1 1v5h-4.5c-.265 0-.52.105-.707.293l-.707.707h-4.172l-.707-.707c-.188-.188-.442-.293-.707-.293h-4.5v-7c0-1.068.575-2.064 1.5-2.599.478-.276.642-.888.365-1.366-.277-.479-.888-.642-1.366-.365-1.542.892-2.5 2.551-2.5 4.331v7.184c-1.161.414-2 1.514-2 2.816 0 1.654 1.346 3 3 3h18.001c1.654 0 3-1.346 3-3 0-1.302-.839-2.402-2-2.816zm-1 3.816h-18c-.551 0-1-.449-1-1s.449-1 1-1h5.086l.707.707c.188.188.442.293.707.293h5c.265 0 .52-.105.707-.293l.707-.707h5.086c.551 0 1 .449 1 1s-.449 1-1 1zm0-22h-10c-1.657 0-3 1.343-3 3v4c0 1.657 1.343 3 3 3h10c1.657 0 3-1.343 3-3v-4c0-1.657-1.343-3-3-3zm-10 8.5c-.828 0-1.5-.672-1.5-1.5s.672-1.5 1.5-1.5 1.5.672 1.5 1.5-.672 1.5-1.5 1.5zm0-4c-.828 0-1.5-.672-1.5-1.5s.672-1.5 1.5-1.5 1.5.672 1.5 1.5-.672 1.5-1.5 1.5zm5 3c-1.383 0-2.5-1.117-2.5-2.5s1.117-2.5 2.5-2.5 2.5 1.117 2.5 2.5-1.117 2.5-2.5 2.5zm5 1c-.828 0-1.5-.672-1.5-1.5s.672-1.5 1.5-1.5 1.5.672 1.5 1.5-.672 1.5-1.5 1.5zm0-4c-.828 0-1.5-.672-1.5-1.5s.672-1.5 1.5-1.5 1.5.672 1.5 1.5-.672 1.5-1.5 1.5z"/></svg>