<svg id="Layer_1" viewBox="0 0 24 24" xmlns="http://www.w3.org/2000/svg" data-name="Layer 1"><path d="m23.396 10.431-2.427-5.462c-.802-1.804-2.595-2.969-4.569-2.969h-5.4c-.553 0-1 .447-1 1s.447 1 1 1h1v6h-5.5c-.553 0-1 .447-1 1s.447 1 1 1h15.315c.11.415.185.837.185 1.273v1.727c0 1.103-.897 2-2 2h-16c-1.103 0-2-.897-2-2 0-.553-.447-1-1-1s-1 .447-1 1c0 1.859 1.279 3.411 3 3.858v.642c0 1.93 1.57 3.5 3.5 3.5s3.5-1.57 3.5-3.5v-.5h4v.5c0 1.93 1.57 3.5 3.5 3.5s3.5-1.57 3.5-3.5v-.642c1.721-.447 3-1.999 3-3.858v-1.727c0-.987-.203-1.944-.604-2.843zm-15.396 9.069c0 .827-.673 1.5-1.5 1.5s-1.5-.673-1.5-1.5v-.5h3zm9.5 1.5c-.827 0-1.5-.673-1.5-1.5v-.5h3v.5c0 .827-.673 1.5-1.5 1.5zm-3.5-17h2.4c1.185 0 2.261.699 2.741 1.781l1.875 4.219h-7.016zm-14-1c0-.553.447-1 1-1h6c.553 0 1 .447 1 1s-.447 1-1 1h-6c-.553 0-1-.447-1-1zm0 4c0-.553.447-1 1-1h4c.553 0 1 .447 1 1s-.447 1-1 1h-4c-.553 0-1-.447-1-1zm0 4c0-.553.447-1 1-1h2c.553 0 1 .447 1 1s-.447 1-1 1h-2c-.553 0-1-.447-1-1z"/></svg>