<svg id="Layer_1" viewBox="0 0 24 24" xmlns="http://www.w3.org/2000/svg" data-name="Layer 1"><path d="m23.707 17.064c-.391.391-1.024.391-1.414 0l-.928-.928c-1.187-1.188-1.365-2.104-1.365-4.64v-6.531c.011-.605-.576-1.103-1.176-.986-.462.075-.824.555-.824 1.093v3.355c0 .404-.243.77-.617.924-.373.156-.803.07-1.09-.217l-6.926-6.927c-.341-.293-.766-.33-1.123.101-.2.277-.134.719.15 1.003l3.925 3.926c.391.391.391 1.024 0 1.415s-1.024.391-1.414 0l-5.649-5.651c-.338-.295-.765-.331-1.122.1-.201.278-.134.719.15 1.005l5.584 5.584c.391.391.391 1.024 0 1.415s-1.024.391-1.414 0l-5.039-5.039c-.341-.293-.765-.329-1.121.101-.2.277-.134.719.15 1.003l4.971 4.973c.391.391.391 1.024 0 1.415s-1.024.391-1.414 0l-2.765-2.766c-.343-.298-.764-.33-1.122.1-.201.278-.135.719.15 1.003l4.737 4.935c.95.977 2.156 1.659 3.483 1.966 1.472.343 2.806 1.079 3.859 2.133l1.363 1.364c.391.391.391 1.024 0 1.415s-1.024.391-1.414 0l-1.363-1.364c-.788-.788-1.79-1.34-2.896-1.598-1.701-.394-3.247-1.267-4.47-2.524l-4.728-4.927c-.962-.96-1.116-2.503-.344-3.573.237-.33.54-.598.884-.793l-.344-.345c-.976-.974-1.13-2.516-.36-3.586.352-.489.846-.841 1.405-1.018-.127-.71.005-1.452.435-2.048.473-.657 1.205-1.073 2.006-1.137.717-.054 1.399.176 1.942.622.051-.094.098-.189.162-.278.475-.658 1.203-1.138 2.006-1.138.988 0 1.586.224 2.155.792l5.218 5.22v-.94c0-1.516 1.076-2.836 2.503-3.069.877-.14 1.769.104 2.441.675s1.057 1.405 1.057 2.286v6.531c0 2.445.196 2.642.779 3.226l.928.928c.391.391.391 1.024 0 1.415zm-13.208-5.068c-.828 0-1.5.672-1.5 1.5s.672 1.5 1.5 1.5 1.5-.672 1.5-1.5-.672-1.5-1.5-1.5zm7 5.002c-.828 0-1.5.672-1.5 1.5s.672 1.5 1.5 1.5 1.5-.672 1.5-1.5-.672-1.5-1.5-1.5zm-.5-3.502c0-.828-.672-1.5-1.5-1.5s-1.5.672-1.5 1.5.672 1.5 1.5 1.5 1.5-.672 1.5-1.5zm3 9c0 .828.672 1.5 1.5 1.5s1.5-.672 1.5-1.5-.672-1.5-1.5-1.5-1.5.672-1.5 1.5z"/></svg>