<svg id="Layer_1" viewBox="0 0 24 24" xmlns="http://www.w3.org/2000/svg" data-name="Layer 1"><path d="m6.5 4c-1.379 0-2.5 1.121-2.5 2.5v2c0 1.379 1.121 2.5 2.5 2.5h4c1.379 0 2.5-1.121 2.5-2.5v-2c0-1.379-1.121-2.5-2.5-2.5zm4.5 2.5v2c0 .275-.225.5-.5.5h-4c-.275 0-.5-.225-.5-.5v-2c0-.275.225-.5.5-.5h4c.275 0 .5.225.5.5zm12 4.5h-3.343c-1.336 0-2.592.521-3.536 1.465l-1.866 1.866c-1.145-.529-2.594-.347-3.51.571l-3.752 3.752c-1.181 1.181-1.292 3.055-.254 4.268.587.685 1.44 1.078 2.341 1.078.822 0 1.596-.32 2.178-.902l3.841-3.841c.582-.582.902-1.355.902-2.178 0-.475-.118-.929-.321-1.344l1.856-1.856c.566-.566 1.32-.879 2.122-.879h3.343c.553 0 1-.447 1-1s-.447-1-1-1zm-9.316 6.842-3.841 3.842c-.431.432-1.188.402-1.586-.063-.356-.416-.29-1.112.149-1.552l3.752-3.752c.401-.419 1.123-.419 1.524 0 .419.401.419 1.123 0 1.524zm-9.083-1.142c.441.332.53.959.199 1.4-.333.444-.963.528-1.4.199-2.16-1.623-3.399-4.102-3.399-6.8v-5.5c-.001-3.308 2.69-5.999 5.999-5.999h5c3.309 0 6 2.691 6 6v3c0 .553-.447 1-1 1s-1-.447-1-1v-3c0-2.206-1.794-4-4-4h-5c-2.206 0-4 1.794-4 4v5.5c0 2.063.948 3.959 2.601 5.2z"/></svg>