<svg id="Layer_1" viewBox="0 0 24 24" xmlns="http://www.w3.org/2000/svg" data-name="Layer 1"><path d="m12.336.007c-1.895-.084-3.712.574-5.1 1.868-.892.832-1.166 2.061-.713 3.208.458 1.164 1.556 1.916 2.795 1.916.736.042 1.424-.179 2.013-.735.156-.146.496-.368 1-.213.406.123.668.496.668.949 0 1.103-.897 2-2 2h-1c-2.757 0-5 2.243-5 5v5c0 2.757 2.243 5 5 5h4c2.757 0 5-2.243 5-5v-11.733c.001-3.83-2.988-7.087-6.663-7.26zm4.664 18.993c0 1.654-1.346 3-3 3h-4c-1.654 0-3-1.346-3-3v-5c0-1.654 1.346-3 3-3h1c2.206 0 4-1.794 4-4 0-1.334-.839-2.484-2.088-2.863-1.053-.32-2.152-.072-2.942.663-.129.165-.431.229-.651.2-.501 0-.811-.335-.935-.648-.07-.178-.19-.634.216-1.013.99-.924 2.285-1.396 3.643-1.333 2.623.123 4.757 2.483 4.757 5.261z"/></svg>