<svg id="Layer_1" viewBox="0 0 24 24" xmlns="http://www.w3.org/2000/svg" data-name="Layer 1"><path d="m19 1h-14c-2.757 0-5 2.243-5 5v12c0 2.757 2.243 5 5 5h14c2.757 0 5-2.243 5-5v-12c0-2.757-2.243-5-5-5zm-14 2h14c1.654 0 3 1.346 3 3v2h-20v-2c0-1.654 1.346-3 3-3zm14 18h-14c-1.654 0-3-1.346-3-3v-8h20v8c0 1.654-1.346 3-3 3zm-16-15.5c0-.828.672-1.5 1.5-1.5s1.5.672 1.5 1.5-.672 1.5-1.5 1.5-1.5-.672-1.5-1.5zm4 0c0-.828.672-1.5 1.5-1.5s1.5.672 1.5 1.5-.672 1.5-1.5 1.5-1.5-.672-1.5-1.5zm2 10.5v2c0 .553-.448 1-1 1s-1-.447-1-1v-2c0-.553.448-1 1-1s1 .447 1 1zm4-3v5c0 .553-.448 1-1 1s-1-.447-1-1v-5c0-.553.448-1 1-1s1 .447 1 1zm4 2v3c0 .553-.448 1-1 1s-1-.447-1-1v-3c0-.553.448-1 1-1s1 .447 1 1z"/></svg>