<svg id="Layer_1" viewBox="0 0 24 24" xmlns="http://www.w3.org/2000/svg" data-name="Layer 1"><path d="m18.095 8.146c-.157-.19-.417-.514-.579-.695l-4.516-5.318v-1.133c0-.553-.448-1-1-1s-1 .447-1 1v1.132l-4.987 5.868c-.02.023-.038.058-.056.082-.596.823-.958 1.826-.958 2.918v8c0 2.757 2.243 5 5 5h4c2.757 0 5-2.243 5-5v-8c0-1.062-.338-2.044-.905-2.854zm-6.096-4.101 1.66 1.956h-3.325zm5.001 14.956c0 1.654-1.346 3-3 3h-4c-1.654 0-3-1.346-3-3v-6h7c.552 0 1-.447 1-1s-.448-1-1-1h-7c0-.756.29-1.44.754-1.968l.139-.164c.542-.536 1.286-.869 2.107-.869h4c.802 0 1.529.321 2.067.836l.429.506c.317.476.503 1.045.503 1.659v8z"/></svg>