<svg id="Layer_1" viewBox="0 0 24 24" xmlns="http://www.w3.org/2000/svg" data-name="Layer 1"><path d="m21.5 18.02v-.52c0-1.93-1.57-3.5-3.5-3.5h-5v-2h1c2.209 0 4-1.791 4-4v-4c0-2.209-1.791-4-4-4h-4c-2.209 0-4 1.791-4 4v4c0 2.209 1.791 4 4 4h1v2h-5c-1.93 0-3.5 1.57-3.5 3.5v.52c-1.394.105-2.5 1.26-2.5 2.68v.6c0 1.489 1.211 2.7 2.7 2.7h1.6c1.489 0 2.7-1.211 2.7-2.7v-.6c0-1.42-1.106-2.575-2.5-2.68v-.52c0-.827.673-1.5 1.5-1.5h5v2.02c-1.394.105-2.5 1.26-2.5 2.68v.6c0 1.489 1.211 2.7 2.7 2.7h1.6c1.489 0 2.7-1.211 2.7-2.7v-.6c0-1.42-1.106-2.575-2.5-2.68v-2.02h5c.827 0 1.5.673 1.5 1.5v.52c-1.394.105-2.5 1.26-2.5 2.68v.6c0 1.489 1.211 2.7 2.7 2.7h1.6c1.489 0 2.7-1.211 2.7-2.7v-.6c0-1.42-1.106-2.575-2.5-2.68zm-7.237-14.402c0-.341.277-.618.618-.618.341 0 .618.277.618.618v4.763c0 .341-.277.618-.618.618-.341 0-.618-.277-.618-.618zm-4.496 4.056-.351.931c-.089.237-.316.393-.569.393-.426 0-.72-.427-.568-.825l1.787-4.691c.111-.29.389-.482.699-.482s.59.193.7.484l1.772 4.695c.15.397-.143.821-.568.821-.253 0-.479-.156-.568-.393l-.352-.934h-1.983zm-4.767 13.026v.6c0 .386-.314.7-.7.7h-1.6c-.386 0-.7-.314-.7-.7v-.6c0-.386.314-.7.7-.7h1.6c.386 0 .7.314.7.7zm8.5 0v.6c0 .386-.314.7-.7.7h-1.6c-.386 0-.7-.314-.7-.7v-.6c0-.386.314-.7.7-.7h1.6c.386 0 .7.314.7.7zm8.5.6c0 .386-.314.7-.7.7h-1.6c-.386 0-.7-.314-.7-.7v-.6c0-.386.314-.7.7-.7h1.6c.386 0 .7.314.7.7zm-11.237-16.243.53 1.404h-1.064l.535-1.404z"/></svg>