<svg id="Layer_1" viewBox="0 0 24 24" xmlns="http://www.w3.org/2000/svg" data-name="Layer 1"><path d="m17.498 11.397c.03 1.042-.432 2.242-1.498 3.419v3.183c0 .552-.448 1-1 1s-1-.448-1-1v-9.999c0-1 .75-1.186 1.218-.841.816.585 2.176 2.101 2.28 4.238zm-5.498.103c0 1.38-.802 2.448-2 2.834v3.666c0 .552-.448 1-1 1s-1-.448-1-1v-3.666c-1.198-.386-2-1.454-2-2.834 0-1.777 1.344-4.5 3-4.5s3 2.723 3 4.5zm-2 0c0-.945-.615-2.091-1-2.436-.385.344-1 1.491-1 2.436 0 .626.374 1 1 1s1-.374 1-1zm13 1.5c0 2.742-1.015 5.247-2.681 7.176.851.446 1.681 1.307 1.681 2.824 0 .552-.448 1-1 1s-1-.448-1-1c-.056-1.157-.893-1.131-1.304-1.293-1.857 1.431-4.175 2.293-6.696 2.293s-4.837-.861-6.694-2.291c-.415.158-1.245.128-1.306 1.291 0 .552-.448 1-1 1s-1-.448-1-1c0-1.518.83-2.378 1.681-2.824-1.666-1.928-2.681-4.433-2.681-7.176 0-5.728 4.402-10.442 10-10.949v-1.051c0-.552.448-1 1-1s1 .448 1 1v1.051c5.598.508 10 5.221 10 10.949zm-11 9c4.962 0 9-4.038 9-9s-4.038-9-9-9-9 4.038-9 9 4.038 9 9 9zm7.215-22c-.552 0-1 .448-1 1s.448 1 1 1c1.809 0 2.785 1.288 2.785 2.5 0 .552.448 1 1 1s1-.448 1-1c0-2.523-2.102-4.5-4.785-4.5zm-17.215 4.5c0-1.212.976-2.5 2.785-2.5.552 0 1-.448 1-1s-.448-1-1-1c-2.683 0-4.785 1.977-4.785 4.5 0 .552.448 1 1 1s1-.448 1-1z"/></svg>