<svg id="Layer_1" viewBox="0 0 24 24" xmlns="http://www.w3.org/2000/svg" data-name="Layer 1"><path d="m22 14.541v-1.541c0-2.206-1.794-4-4-4s-4 1.794-4 4v1.541c-1.194.693-2 1.982-2 3.459v2c0 2.206 1.794 4 4 4h4c2.206 0 4-1.794 4-4v-2c0-1.477-.806-2.766-2-3.459zm-6-1.541c0-1.103.897-2 2-2s2 .897 2 2v1h-4zm6 7c0 1.103-.897 2-2 2h-4c-1.103 0-2-.897-2-2v-2c0-1.103.897-2 2-2h4c1.103 0 2 .897 2 2zm-2.5-1c0 .828-.672 1.5-1.5 1.5s-1.5-.672-1.5-1.5.672-1.5 1.5-1.5 1.5.672 1.5 1.5zm-9.007 4.087c-.058.51-.49.887-.992.887-1.515-.123-2.907-.936-3.791-2.167-4.719-6.509-5.71-10.014-5.71-11.808 0-2.671 1.04-5.183 2.93-7.07 1.888-1.889 4.399-2.929 7.069-2.929 3.817 0 7.249 2.129 8.956 5.554.247.494.046 1.095-.448 1.341-.496.25-1.094.046-1.341-.448-1.367-2.742-4.112-4.445-7.165-4.446-2.138 0-4.146.832-5.657 2.343-1.512 1.511-2.344 3.52-2.344 5.656 0 .987.52 4 5.332 10.639.538.751 1.368 1.238 2.281 1.343.549.062.942.558.88 1.106zm1.45-10.591c.184.521-.09 1.092-.61 1.276-.429.15-.877.228-1.333.228-2.206 0-4-1.794-4-4s1.794-4 4-4c1.424 0 2.751.766 3.464 1.999.277.479.113 1.09-.364 1.366-.481.277-1.092.113-1.366-.364-.357-.617-1.021-1.001-1.733-1.001-1.103 0-2 .897-2 2s.897 2 2 2c.229 0 .453-.038.667-.114.522-.179 1.092.091 1.276.61z"/></svg>