<svg id="Layer_1" viewBox="0 0 24 24" xmlns="http://www.w3.org/2000/svg" data-name="Layer 1"><path d="m21.833 11.367c-1.142-.822-2.79-.656-3.834.386l-1.769 1.769c-.137-.275-.307-.538-.535-.767-.522-.521-1.194-.791-1.878-.834-.045-.709-.33-1.372-.837-1.88-.229-.229-.491-.399-.766-.536l2.449-2.449c1.043-1.043 1.209-2.69.387-3.834-.507-.703-1.288-1.146-2.144-1.214-.849-.072-1.694.238-2.3.846l-5.147 5.147h-.453c-2.691-.057-5.062 2.311-5.006 5.001v5.998c0 2.757 2.243 5 5 5h5.215c2.384 0 4.63-.923 6.325-2.597l5.661-5.593c1.269-1.212 1.083-3.45-.368-4.443zm-7.551 4.103-1.36 1.36c-.348.349-.955.347-1.3 0t0 0c-.357-.341-.357-.958 0-1.3l1.357-1.357c.358-.359.942-.359 1.301 0 .359.358.359.94.003 1.299zm-3.368-4.283c.235 0 .471.09.65.27.357.343.357.958 0 1.301l-1.357 1.358c-.36.36-.943.358-1.302 0-.358-.359-.358-.942 0-1.302l1.357-1.357c.18-.18.415-.27.651-.27zm1.105-6.917c.431-.364.958-.415 1.405.123.252.35.174.899-.178 1.251l-4.057 4.057c-.276-.567-.723-1.028-1.276-1.327l4.106-4.105zm8.771 10.122-5.657 5.589c-1.317 1.302-3.064 2.02-4.919 2.02h-5.214c-1.654 0-3-1.346-3-3v-5.998c-.033-1.613 1.39-3.035 3.003-3l1.498.002c.551 0 .999.449.999 1 .011.537-.465 1.013-1.002 1l-1.495-.004h-.003c-.551 0-.999.446-1 .997 0 .553.445 1.002.997 1.003l1.496.004h.006c.064 0 .125-.014.188-.018.102.566.368 1.107.804 1.544.522.522 1.195.793 1.879.837.045.709.33 1.371.836 1.878.552.552 1.284.855 2.064.855s1.513-.304 2.064-.855l5.077-5.076c.353-.353.901-.431 1.25-.178.465.312.525 1.02.128 1.401z"/><path d="m19.556 6h-1.735c-.55 0-.944-.531-.785-1.058l1.884-4.344c.124-.358.461-.599.84-.599h1.862c.624 0 1.053.625.83 1.208l-.85 1.792h1.592c.642 0 1.025.715.67 1.249l-4.11 4.413c-.703.753-1.862.137-1.383-.652l1.184-2.01z"/></svg>