<svg id="Layer_1" viewBox="0 0 24 24" xmlns="http://www.w3.org/2000/svg" data-name="Layer 1"><path d="m16 2c0-1.105.895-2 2-2s2 .895 2 2-.895 2-2 2-2-.895-2-2zm-6.5 3c.828 0 1.5-.672 1.5-1.5s-.672-1.5-1.5-1.5-1.5.672-1.5 1.5.672 1.5 1.5 1.5zm-3.51 13.674-.336.336c-.361.387-.654.744-.654 1.32v.169c0 .827-.673 1.5-1.5 1.5s-1.5-.673-1.5-1.5v-19.499c0-.553-.448-1-1-1s-1 .447-1 1v19.5c0 1.93 1.57 3.5 3.5 3.5 1.944.007 3.469-1.594 3.5-3.5v-1.407c0-.527-.638-.791-1.01-.419zm17.245-6.174c.67.938.863 1.837.721 2.803-.167 1.133-1.545 1.6-2.355.79l-2.287-2.287c-.365.412-.888.954-1.543 1.518l.318.324c.599.599.535 1.506-.143 2.015-.675.506-1.619.439-2.216-.157 0 0-.215-.22-.461-.471-1.099.565-2.338.965-3.668.965-2.671 0-4.992-1.598-6.468-2.938-.72-.652-1.133-1.587-1.133-2.562s.413-1.91 1.133-2.563c1.378-1.249 3.494-2.705 5.938-2.898 1.806-1.311 4.398-1.412 6.231-.086.834.588.918 1.783.241 2.531.761.631 1.364 1.252 1.771 1.711l2.287-2.287c.81-.81 2.189-.343 2.355.79.142.965-.051 1.865-.721 2.803zm-16.758 1.081c.615.558 1.4 1.169 2.287 1.638.118-.627.236-1.545.236-2.719 0-1.192-.122-2.105-.241-2.717-.885.468-1.668 1.078-2.282 1.635-.308.279-.477.663-.477 1.082s.169.803.477 1.081zm11.321-1.081c-1.02-1.138-3.464-3.5-6.196-3.5-.32 0-.633.042-.943.101.162.729.342 1.867.342 3.399 0 1.514-.175 2.659-.335 3.4.308.058.619.1.937.1 2.733 0 5.177-2.361 6.196-3.5z"/></svg>