<svg id="Layer_1" viewBox="0 0 24 24" xmlns="http://www.w3.org/2000/svg" data-name="Layer 1"><path d="m22.977 6.328c-.758-.844-1.843-1.328-2.977-1.328h-16c-1.134 0-2.219.484-2.977 1.328-.756.843-1.121 1.974-1 3.102l.648 6c.22 2.035 1.93 3.57 3.977 3.57h2.042c1.487 0 2.842-.816 3.537-2.131l1.01-1.913c.219-.414.605-.459.761-.459s.543.045.762.459l1.01 1.912c.695 1.314 2.05 2.131 3.537 2.131h2.043c2.047 0 3.757-1.535 3.977-3.57l.649-6c.122-1.127-.243-2.258-1-3.102zm-20.465 1.336c.384-.428.913-.664 1.488-.664h3v1c0 .551-.449 1-1 1h-3.989c-.001-.493.166-.963.501-1.336zm19.476 1.552-.649 6c-.11 1.018-.965 1.785-1.988 1.785h-2.043c-.744 0-1.421-.408-1.769-1.066l-1.01-1.912c-.497-.94-1.466-1.525-2.53-1.525-1.063 0-2.033.584-2.53 1.524l-1.01 1.913c-.347.657-1.025 1.065-1.768 1.065h-2.042c-1.023 0-1.878-.768-1.989-1.785l-.456-4.215h3.795c1.654 0 3-1.346 3-3v-1h11c.576 0 1.104.236 1.489.664.384.428.562.979.5 1.551z"/></svg>