<svg id="Layer_1" viewBox="0 0 24 24" xmlns="http://www.w3.org/2000/svg" data-name="Layer 1"><path d="m19.776 3.222c-2.077-2.077-4.84-3.222-7.777-3.222s-5.7 1.145-7.778 3.222c-4.29 4.289-4.29 11.267.028 15.584l3.942 3.642c1.024 1.001 2.377 1.553 3.808 1.553s2.783-.552 3.786-1.533l3.991-3.688c4.289-4.289 4.289-11.268 0-15.557zm-1.386 14.115-3.983 3.681c-1.295 1.268-3.5 1.287-4.838-.02l-3.935-3.634c-3.509-3.51-3.509-9.219 0-12.729 1.7-1.699 3.961-2.636 6.364-2.636s4.663.937 6.363 2.636c3.509 3.51 3.509 9.219.028 12.701zm-2.106-9.668-.899.899c-.245.245-.386.585-.386.932v3.5h-1v-5c0-1.103-.897-2-2-2h-3c-1.103 0-2 .897-2 2v6c0 1.103.897 2 2 2h3c.737 0 1.375-.405 1.722-1h1.278c1.103 0 2-.897 2-2v-3.218l.699-.699c.391-.391.391-1.023 0-1.414s-1.023-.391-1.414 0zm-7.285 6.331v-4h3.001v3.99s0 .006 0 .01h-3z"/></svg>