<svg id="Layer_1" viewBox="0 0 24 24" xmlns="http://www.w3.org/2000/svg" data-name="Layer 1"><path d="m23 22h-2v-11.005c1.659-.031 3-1.385 3-3.051 0-1.12-.611-2.148-1.593-2.684l-8.971-4.892c-.899-.49-1.973-.49-2.873 0l-8.97 4.892c-.983.536-1.593 1.564-1.593 2.684 0 1.666 1.341 3.019 3 3.051v11.005h-2c-.552 0-1 .447-1 1s.448 1 1 1h22c.552 0 1-.447 1-1s-.448-1-1-1zm-9-10.999v10.999h-4v-10.999zm2 0h3v10.999h-3zm-14-3.057c0-.388.211-.743.551-.929l8.97-4.892c.15-.082.314-.122.479-.122s.329.04.479.122l8.971 4.892c.34.186.551.541.551.929 0 .583-.474 1.057-1.057 1.057h-17.887c-.583 0-1.057-.474-1.057-1.057zm3 3.056h3v10.999h-3v-10.998zm5.5-5c0-.828.672-1.5 1.5-1.5s1.5.672 1.5 1.5-.672 1.5-1.5 1.5-1.5-.672-1.5-1.5z"/></svg>