<svg id="Layer_1" viewBox="0 0 24 24" xmlns="http://www.w3.org/2000/svg" data-name="Layer 1"><path d="m10 5c-.552 0-1-.448-1-1v-2h-3c-1.103 0-2 .897-2 2v6c0 1.103.897 2 2 2h1c.553 0 1 .448 1 1s-.447 1-1 1h-1c-2.206 0-4-1.794-4-4v-6c0-2.205 1.794-4 4-4h3.608c.786 0 1.528.301 2.09.848l1.392 1.35c.579.562.91 1.347.91 2.153v2.649c0 .552-.447 1-1 1s-1-.448-1-1v-2zm11.09 7.198c.578.562.91 1.346.91 2.153v5.649c0 2.206-1.794 4-4 4h-4c-2.206 0-4-1.794-4-4v-6c0-2.206 1.794-4 4-4h3.608c.785 0 1.527.301 2.09.848zm-1.09 7.802v-5h-2c-.552 0-1-.448-1-1v-2h-3c-1.103 0-2 .897-2 2v6c0 1.103.897 2 2 2h4c1.103 0 2-.897 2-2zm0-17h-1.036l1.257-1.307c.383-.398.37-1.031-.027-1.414-.399-.383-1.031-.371-1.414.028l-2.199 2.287c-.773.775-.773 2.037-.013 2.798l2.212 2.301c.383.399 1.016.41 1.414.028.397-.383.41-1.016.027-1.414l-1.25-1.307h1.029c1.103 0 2 .897 2 2v2c0 .552.447 1 1 1s1-.448 1-1v-2c0-2.206-1.794-4-4-4zm-14.779 13.307c-.383-.397-1.015-.411-1.414-.027-.397.383-.41 1.016-.027 1.414l1.25 1.307h-1.029c-1.103 0-2-.897-2-2v-1c0-.553-.447-1-1-1s-1 .447-1 1v1c0 2.206 1.794 4 4 4h1.035l-1.256 1.307c-.383.398-.37 1.031.027 1.414.398.382 1.031.371 1.414-.027l2.199-2.288c.773-.774.773-2.036.013-2.798l-2.212-2.301z"/></svg>