<svg id="Layer_1" viewBox="0 0 24 24" xmlns="http://www.w3.org/2000/svg" data-name="Layer 1"><path d="m21.749 1.755-2-1.153c-1.389-.8-3.109-.8-4.498 0l-3.251 1.875-3.251-1.875c-1.389-.8-3.109-.8-4.498 0l-2 1.153c-1.389.802-2.251 2.295-2.251 3.898v2.795c0 1.603.862 3.097 2.251 3.898l3.249 1.874v4.126c0 1.603.862 3.096 2.251 3.897l2.001 1.154c.693.399 1.471.6 2.248.6s1.556-.2 2.249-.6l2-1.154c1.389-.802 2.251-2.295 2.251-3.897v-4.126l3.249-1.874c1.389-.801 2.251-2.295 2.251-3.898v-2.795c0-1.603-.862-3.097-2.251-3.898zm-19.749 6.694v-2.795c0-.891.479-1.72 1.251-2.166l2-1.153c.385-.222.817-.333 1.249-.333s.864.111 1.249.333l3.251 1.875v5.683l-4.5 2.596-3.249-1.874c-.771-.445-1.251-1.275-1.251-2.166zm13.249 12.063-1.999 1.154c-.773.443-1.731.441-2.499 0l-2-1.154c-.771-.445-1.251-1.274-1.251-2.165v-4.126l4.5-2.596 4.5 2.596v4.126c0 .891-.479 1.72-1.251 2.165zm6.751-12.063c0 .891-.479 1.72-1.251 2.166l-3.249 1.874-4.5-2.596v-5.684l3.251-1.875c.77-.444 1.729-.444 2.498 0l2 1.153c.771.445 1.251 1.275 1.251 2.166v2.795z"/></svg>