<svg id="Layer_1" viewBox="0 0 24 24" xmlns="http://www.w3.org/2000/svg" data-name="Layer 1"><path d="m23.862 17.15c.413 2.028-.12 4.073-1.461 5.611-.304.347-.742.557-1.203.574-.021 0-.043.001-.064.001-.438 0-.866-.173-1.18-.481l-1.157-1.145c-.393-.388-.396-1.021-.008-1.414.388-.392 1.021-.396 1.414-.008l.903.894c.771-1.029 1.061-2.334.797-3.634-.348-1.708-1.725-3.093-3.427-3.447-1.39-.288-2.742.033-3.814.905-1.056.859-1.662 2.133-1.662 3.493 0 .967.314 1.907.891 2.68l.908-.893c.395-.388 1.027-.382 1.414.012.388.394.382 1.027-.012 1.414l-1.154 1.135c-.324.324-.781.504-1.243.485-.464-.017-.904-.226-1.208-.575-1.029-1.183-1.596-2.694-1.596-4.258 0-1.965.875-3.804 2.4-5.044 1.524-1.241 3.521-1.72 5.482-1.312 2.475.514 4.476 2.526 4.979 5.007zm-4.155-.857c-.391-.391-1.023-.391-1.414 0l-.715.715c-.026-.001-.051-.008-.078-.008-.828 0-1.5.672-1.5 1.5s.672 1.5 1.5 1.5 1.5-.672 1.5-1.5c0-.027-.006-.052-.008-.078l.715-.715c.391-.391.391-1.023 0-1.414zm-15.207-13.293c-.828 0-1.5.672-1.5 1.5s.672 1.5 1.5 1.5 1.5-.672 1.5-1.5-.672-1.5-1.5-1.5zm4 0c-.828 0-1.5.672-1.5 1.5s.672 1.5 1.5 1.5 1.5-.672 1.5-1.5-.672-1.5-1.5-1.5zm15.5 2v6c0 .552-.447 1-1 1s-1-.448-1-1v-2h-20v8c0 1.654 1.346 3 3 3h3c.552 0 1 .448 1 1s-.448 1-1 1h-3c-2.757 0-5-2.243-5-5v-12c0-2.757 2.243-5 5-5h14c2.757 0 5 2.243 5 5zm-2 2v-2c0-1.654-1.346-3-3-3h-14c-1.654 0-3 1.346-3 3v2z"/></svg>