<?xml version="1.0" encoding="UTF-8"?>
<svg xmlns="http://www.w3.org/2000/svg" id="Layer_1" data-name="Layer 1" viewBox="0 0 24 24">
  <path d="M17.887,9.44l-.887-1.014v-1.426c0-1.654-1.346-3-3-3h-.266c.168-.869,.266-1.638,.266-2,0-1.105-.895-2-2-2s-2,.895-2,2c0,.362,.097,1.131,.266,2h-.266c-1.654,0-3,1.346-3,3v1.426l-.887,1.014c-1.362,1.557-2.113,3.554-2.113,5.623v3.937c0,2.757,2.243,5,5,5h6c2.757,0,5-2.243,5-5v-3.937c0-2.069-.75-4.066-2.113-5.623Zm-8.887-2.44c0-.551,.449-1,1-1h4c.551,0,1,.449,1,1v1h-6v-1Zm9,12c0,1.654-1.346,3-3,3h-6c-1.302,0-2.402-.839-2.816-2h2.816c.552,0,1-.448,1-1s-.448-1-1-1h-3v-2h3c.552,0,1-.448,1-1s-.448-1-1-1h-2.904c.197-1.195,.715-2.32,1.522-3.242l.663-.758h7.438l.663,.758c1.043,1.192,1.618,2.721,1.618,4.305v3.937Z"/>
</svg>
