<?xml version="1.0" encoding="UTF-8"?>
<svg xmlns="http://www.w3.org/2000/svg" id="Layer_1" data-name="Layer 1" viewBox="0 0 24 24">
  <path d="M22.752,18.338l-3.52-3.588c-.467-.477-1.117-.75-1.785-.75h-2.403l-3.374-7.625,2.8-1.493c.114-.061,.215-.143,.298-.242l2.5-3c.354-.424,.296-1.055-.128-1.408-.427-.354-1.055-.296-1.409,.128l-2.374,2.85-5.108,2.724c-1.594,.85-2.977,2.086-3.999,3.573L.176,15.434c-.312,.455-.197,1.078,.258,1.391,.45,.31,1.076,.201,1.391-.258l4.074-5.927c.232-.338,.492-.656,.767-.96l6.075,13.725c.223,.51,.826,.732,1.318,.51,.506-.224,.733-.814,.51-1.319l-2.919-6.595h5.798c.134,0,.263,.054,.356,.15l3.521,3.589c.387,.395,1.02,.4,1.414,.014,.395-.387,.4-1.02,.014-1.414ZM8.235,8.286c.306-.215,1.667-.967,1.667-.967l2.956,6.681h-2.094l-2.529-5.714ZM4,2.5c0-1.381,1.119-2.5,2.5-2.5s2.5,1.119,2.5,2.5-1.119,2.5-2.5,2.5-2.5-1.119-2.5-2.5Z"/>
</svg>
