<svg id="Layer_1" viewBox="0 0 24 24" xmlns="http://www.w3.org/2000/svg" data-name="Layer 1"><path d="m11.5 20.4c-.956 2.187-3.115 3.6-5.5 3.6-1.494 0-2.899-.555-3.976-1.506l-.795.795c-.424.455-1.229.198-1.229-.509v-3.06c0-.398.322-.72.72-.72h3.06c.622-.021.964.804.509 1.229l-.842.842c.705.585 1.6.929 2.553.929 1.591 0 3.03-.942 3.667-2.4.222-.507.811-.738 1.317-.516.506.221.737.811.516 1.316zm.055-7.846c-.27-.111-.579-.05-.785.156l-.795.795c-1.076-.951-2.481-1.506-3.976-1.506-2.386 0-4.545 1.413-5.5 3.6-.221.506.01 1.096.516 1.316.506.223 1.095-.009 1.317-.516.637-1.458 2.077-2.4 3.667-2.4.953 0 1.848.344 2.553.929l-.842.842c-.455.425-.173 1.229.509 1.229h3.06c.398 0 .72-.322.72-.72v-3.06c0-.291-.175-.554-.444-.665zm8.444-.555c0-.828-.672-1.5-1.5-1.5s-1.5.672-1.5 1.5.672 1.5 1.5 1.5 1.5-.672 1.5-1.5zm1-8h-15.999c-.855 0-1.652-.381-2.216-1.004.549-.607 1.335-.996 2.216-.996h18c.552 0 1-.447 1-1s-.448-1-1-1h-18c-2.776-.005-4.98 2.304-5 5.001v6c0 .553.448 1 1 1s1-.447 1-1v-6s0-.004 0-.006c.854.64 1.903 1.006 2.999 1.006h16.001c.551 0 1 .448 1 1v10c0 .552-.449 1-1 1h-6c-.552 0-1 .447-1 1s.448 1 1 1h6c1.654 0 3-1.346 3-3v-10c0-1.654-1.346-3-3-3z"/></svg>