<svg id="Layer_1" viewBox="0 0 24 24" xmlns="http://www.w3.org/2000/svg" data-name="Layer 1"><path d="m11 23c0 .553-.447 1-1 1h-5c-2.757 0-5-2.243-5-5v-14c0-2.757 2.243-5 5-5h6c2.757 0 5 2.243 5 5v5c0 .552-.447 1-1 1s-1-.448-1-1v-5c0-1.654-1.346-3-3-3h-6c-1.654 0-3 1.346-3 3v14c0 1.654 1.346 3 3 3h5c.553 0 1 .447 1 1zm9-1c-.552 0-1 .448-1 1s.448 1 1 1 1-.448 1-1-.448-1-1-1zm3-3c-.552 0-1 .448-1 1s.448 1 1 1 1-.448 1-1-.448-1-1-1zm-3 0c-.552 0-1 .448-1 1s.448 1 1 1 1-.448 1-1-.448-1-1-1zm-2-4v1c0 1.103-.897 2-2 2h-1c-1.103 0-2-.897-2-2v-1c0-1.103.897-2 2-2h1c1.103 0 2 .897 2 2zm-1.998 1-.002-1h-1v1zm1.998 5v1c0 1.103-.897 2-2 2h-1c-1.103 0-2-.897-2-2v-1c0-1.103.897-2 2-2h1c1.103 0 2 .897 2 2zm-1.998 1-.002-1h-1v1zm7.998-7v1c0 1.103-.897 2-2 2h-1c-1.103 0-2-.897-2-2v-1c0-1.103.897-2 2-2h1c1.103 0 2 .897 2 2zm-1.998 1-.002-1h-1v1zm-12.553-5.525-2.688-.539c-.267-.054-.461-.291-.461-.562 0-.316.257-.574.573-.574h2.204c.223 0 .434.107.564.287.142.193.433.213.552.213.381 0 .628-.246.732-.476.132-.291.086-.605-.121-.841-.438-.497-1.067-.782-1.728-.782h-.277v-.7c0-.441-.358-.8-.8-.8s-.8.359-.8.8v.7h-.327c-.646 0-1.256.287-1.672.786-.414.499-.583 1.156-.463 1.804.159.853.887 1.55 1.812 1.735l2.688.538c.268.054.462.291.462.563 0 .316-.258.574-.574.574h-2.204c-.223 0-.434-.107-.564-.287-.142-.193-.433-.213-.552-.213-.381 0-.628.246-.732.477-.131.291-.086.604.122.84.438.498 1.066.783 1.727.783h.278v.7c0 .441.358.8.8.8s.8-.359.8-.8v-.7h.326c.647 0 1.257-.287 1.673-.787.414-.499.583-1.156.463-1.803-.16-.853-.889-1.551-1.812-1.735zm-.449 9.525c.553 0 1-.447 1-1s-.447-1-1-1h-2c-.553 0-1 .447-1 1s.447 1 1 1z"/></svg>