<svg id="Layer_1" viewBox="0 0 24 24" xmlns="http://www.w3.org/2000/svg" data-name="Layer 1"><path d="m11 23c0 .553-.448 1-1 1h-5c-2.757 0-5-2.243-5-5v-14c0-2.757 2.243-5 5-5h5c.552 0 1 .448 1 1s-.448 1-1 1h-5c-1.654 0-3 1.346-3 3v11h7c.552 0 1 .447 1 1s-.448 1-1 1h-7v1c0 1.654 1.346 3 3 3h5c.552 0 1 .447 1 1zm-2-4h-2c-.552 0-1 .447-1 1s.448 1 1 1h2c.552 0 1-.447 1-1s-.448-1-1-1zm15-16v5c0 1.657-1.343 3-3 3h-8.914c-.401 0-.768-.22-.957-.573s-.169-.78.053-1.115l1.818-2.459v-3.853c0-1.657 1.343-3 3-3h5c1.657 0 3 1.343 3 3zm-2.696 5.644-1.363-5.948c-.107-.464-.403-.886-.842-1.07-.919-.385-1.855.155-2.056 1.021l-1.413 5.993c-.104.439.23.86.681.86.324 0 .606-.223.681-.539l.274-1.161h2.409l.265 1.157c.073.318.356.543.682.543h.002c.449 0 .782-.418.682-.856zm-2.863-5.744c-.038 0-.071.026-.079.063l-.787 3.437h1.757l-.811-3.437c-.009-.037-.041-.063-.079-.063zm5.559 13.1v5c0 1.657-1.343 3-3 3h-5c-1.657 0-3-1.343-3-3v-3.853l-1.818-2.459c-.222-.335-.243-.762-.053-1.115s.556-.573.957-.573h8.914c1.657 0 3 1.343 3 3zm-2 .116c0-.34-.276-.616-.616-.616h-2.257v-.384c0-.34-.276-.616-.616-.616h-.021c-.34 0-.616.276-.616.616v.384h-2.257c-.34 0-.616.276-.616.616v.021c0 .34.276.616.616.616h4.191c-.111.963-.484 2.151-1.303 3.071-.276-.31-.507-.648-.692-1-.106-.202-.318-.325-.545-.325-.464 0-.769.492-.553.903.225.43.501.843.83 1.22-.539.328-1.189.559-1.977.635-.32.031-.568.293-.568.614v.021c0 .365.316.648.679.614 1.146-.107 2.079-.485 2.832-1.022.749.533 1.671.913 2.808 1.022.364.035.68-.248.68-.613v-.021c0-.316-.24-.583-.555-.613-.792-.075-1.442-.31-1.984-.639.99-1.135 1.485-2.591 1.607-3.866h.316c.34 0 .616-.276.616-.616v-.021z"/></svg>