<svg id="Layer_1" viewBox="0 0 24 24" xmlns="http://www.w3.org/2000/svg" data-name="Layer 1"><path d="m6 12c3.309 0 6-2.691 6-6s-2.691-6-6-6-6 2.691-6 6 2.691 6 6 6zm0-10c2.206 0 4 1.794 4 4s-1.794 4-4 4-4-1.794-4-4 1.794-4 4-4zm-2.307 4.208.908-2.593c.143-.371.499-.615.896-.615h.754c.402 0 .672.411.513.78l-.457 1.222h1.482c.387-.002.621.428.409.752l-2.627 3.076c-.082.106-.208.169-.342.169-.296 0-.506-.289-.412-.57l.476-1.428h-1.003c-.415.002-.715-.397-.597-.795zm16.058 7.868c-1.083-3.322-1.751-6.007-1.751-7.076 0-.552.449-1 1-1s1 .448 1 1 .448 1 1 1 1-.447 1-1c0-1.654-1.346-3-3-3s-3 1.346-3 3c0 .592.136 1.418.334 2.329l-4.707 3.6-.538-.497c-.405-.373-1.038-.348-1.413.058-.374.406-.349 1.038.058 1.413l.281.259-1.589 1.215c-.896-.847-2.097-1.376-3.425-1.376-2.757 0-5 2.243-5 5s2.243 5 5 5 5-2.243 5-5c0-.708-.152-1.38-.419-1.991l7.28-5.567c.266.959.555 1.912.825 2.755-2.118.581-3.687 2.503-3.687 4.803 0 2.757 2.243 5 5 5s5-2.243 5-5c0-2.5-1.85-4.558-4.249-4.924zm-14.751 7.924c-1.654 0-3-1.346-3-3s1.346-3 3-3 3 1.346 3 3-1.346 3-3 3zm14 0c-1.654 0-3-1.346-3-3s1.346-3 3-3 3 1.346 3 3-1.346 3-3 3z"/></svg>