<?xml version="1.0" encoding="UTF-8"?>
<svg xmlns="http://www.w3.org/2000/svg" id="Layer_1" data-name="Layer 1" viewBox="0 0 24 24">
  <path d="M11,23c0,.552-.448,1-1,1H5c-2.757,0-5-2.243-5-5V5C0,2.243,2.243,0,5,0H13c2.757,0,5,2.243,5,5v13c0,.552-.447,1-1,1s-1-.448-1-1V5c0-1.654-1.346-3-3-3H5c-1.654,0-3,1.346-3,3v14c0,1.654,1.346,3,3,3h5c.552,0,1,.448,1,1ZM13,5H5c-.552,0-1,.448-1,1s.448,1,1,1H13c.553,0,1-.448,1-1s-.447-1-1-1Zm0,5H5c-.552,0-1,.448-1,1s.448,1,1,1H13c.553,0,1-.448,1-1s-.447-1-1-1Zm-3,5H5c-.552,0-1,.448-1,1s.448,1,1,1h5c.552,0,1-.448,1-1s-.448-1-1-1Zm13.695,1.282c-.396-.384-1.029-.374-1.414,.022l-5.107,5.276c-.545,.568-1.528,.553-2.056-.03l-2.391-2.535c-.378-.402-1.012-.42-1.414-.042s-.42,1.012-.042,1.414l2.391,2.535c1.272,1.402,3.621,1.434,4.937,.061l5.119-5.288c.384-.397,.374-1.03-.023-1.414Z"/>
</svg>
