<svg id="Layer_1" viewBox="0 0 24 24" xmlns="http://www.w3.org/2000/svg" data-name="Layer 1"><path d="m19 2h-1v-1c0-.552-.447-1-1-1s-1 .448-1 1v1h-8v-1c0-.552-.447-1-1-1s-1 .448-1 1v1h-1c-2.757 0-5 2.243-5 5v12c0 2.761 2.239 5 5 5h14c2.761 0 5-2.239 5-5v-12c0-2.757-2.243-5-5-5zm-14 2h14c1.302 0 2.402.839 2.816 2h-19.632c.414-1.161 1.514-2 2.816-2zm9.207 7.793c.391.391.391 1.023 0 1.414s-1.023.391-1.414 0l-.793-.793-.793.793c-.391.391-1.023.391-1.414 0s-.391-1.023 0-1.414l.793-.793-.793-.793c-.391-.391-.391-1.023 0-1.414s1.023-.391 1.414 0l.793.793.793-.793c.391-.391 1.023-.391 1.414 0s.391 1.023 0 1.414l-.793.793zm-8.942 8.65c-.744.744-2.058.746-2.823-.019l-.457-.42c-.413-.38-.433-1.025-.044-1.429.377-.392.997-.41 1.397-.042l.524.483 1.315-1.372c.391-.408 1.041-.411 1.436-.007.377.386.38 1.001.007 1.39l-1.352 1.412-.004.004zm16.993-1.416-1.352 1.412-.004.004c-.744.744-2.058.746-2.823-.019l-.457-.42c-.413-.38-.433-1.025-.044-1.429.377-.392.997-.41 1.397-.042l.524.483 1.315-1.372c.391-.408 1.041-.411 1.436-.007.377.386.38 1.001.007 1.39zm-6.258-4.028v7h-8v-7h-6v-7h6v7h8v-7h6v7z"/></svg>