<svg id="Layer_1" viewBox="0 0 24 24" xmlns="http://www.w3.org/2000/svg" data-name="Layer 1"><path d="m18 13c2.206 0 4-1.794 4-4s-1.794-4-4-4-4 1.794-4 4 1.794 4 4 4zm0-6c1.103 0 2 .897 2 2s-.897 2-2 2-2-.897-2-2 .897-2 2-2zm5.668 15.977c-.733.66-1.681 1.023-2.668 1.023-1.128 0-2.222-.472-3-1.225-.778.753-1.872 1.225-3 1.225s-2.222-.472-3-1.225c-.778.753-1.873 1.225-3 1.225s-2.222-.472-3-1.225c-.778.753-1.873 1.225-3 1.225-.987 0-1.935-.363-2.668-1.023-.411-.369-.444-1.001-.075-1.412.369-.41 1.002-.445 1.412-.075.366.329.839.51 1.332.51.89 0 1.793-.585 2.057-1.333.141-.4.519-.667.943-.667s.802.267.943.667c.264.748 1.167 1.333 2.057 1.333s1.793-.585 2.057-1.333c.141-.4.519-.667.943-.667s.802.267.943.667c.264.748 1.167 1.333 2.057 1.333s1.793-.586 2.058-1.333c.141-.399.519-.667.942-.667s.802.267.942.667c.265.748 1.169 1.333 2.058 1.333.492 0 .966-.181 1.332-.51.408-.37 1.04-.336 1.412.075.369.411.335 1.043-.076 1.412zm-15.668-20.477c0-1.381 1.119-2.5 2.5-2.5s2.5 1.119 2.5 2.5-1.119 2.5-2.5 2.5-2.5-1.119-2.5-2.5zm-3.046 15.35c-.448-.323-.55-.948-.227-1.396l3.438-4.773-1.413-.961c-1.097-.746-1.751-1.982-1.751-3.309v-6.411c0-.552.448-1 1-1s1 .448 1 1v6.412c0 .663.327 1.282.875 1.654l10.457 7.107c.456.311.575.933.265 1.389-.313.46-.938.573-1.39.265l-7.387-5.021-3.47 4.817c-.325.451-.953.547-1.396.227z"/></svg>