<svg id="Layer_1" viewBox="0 0 24 24" xmlns="http://www.w3.org/2000/svg" data-name="Layer 1"><path d="m13 2.5c0-1.381 1.119-2.5 2.5-2.5s2.5 1.119 2.5 2.5-1.119 2.5-2.5 2.5-2.5-1.119-2.5-2.5zm6.933 14.589-1.444 6.14c-.108.46-.52.771-.973.771-.635.008-1.128-.612-.975-1.229l1.444-6.14c.034-.402-.1-.571-.499-.631h-6.485c-.898 0-1.741-.397-2.313-1.089-.595-.726-.841-1.709-.593-2.622l1.749-4.949c.31-1.55 1.951-2.627 3.499-2.295.787.153 1.467.603 1.916 1.267.008.047 4.087 5.017 4.109 5.057.349.428.284 1.058-.144 1.407-.426.347-1.058.286-1.407-.144l-2.431-2.985-1.353 4.353h3.453c.772 0 1.49.347 1.97.953.479.605.653 1.384.477 2.136zm-6.171-8.954c.081-.505-.306-1.022-.8-1.126-.6-.134-1.138.352-1.211.934l-1.742 4.93c-.049.37.115.635.222.764.111.135.36.363.771.363h.938l1.823-5.865zm1.846 9.625c.37.488.486 1.107.319 1.7-.638 2.25-2.378 3.54-4.774 3.54h-1.152c0 .552-.447 1-1 1h-5.001c-.553 0-1-.448-1-1v-14c0-.552.447-1 1-1s1 .448 1 1v8h9.077c.607 0 1.165.277 1.53.76zm-1.631 1.24h-8.977v3h3.257c.312-.568.902-1 1.743-1h1.152c1.489 0 2.414-.654 2.824-2z"/></svg>