<svg id="Layer_1" viewBox="0 0 24 24" xmlns="http://www.w3.org/2000/svg" data-name="Layer 1"><path d="m23.907 13.591c-.164-.496-.532-.896-1.011-1.096-.004-.002-.009-.003-.013-.005.252-.287.486-.609.636-1.013.613-1.647.501-3.57.299-4.893-.086-.569-.447-1.053-.965-1.292-.275-.127-.572-.167-.862-.137.029-.556-.045-1.126-.296-1.68-.681-1.507-2.001-2.579-2.988-3.214-.46-.295-1.033-.344-1.534-.127-.519.223-.892.694-.998 1.261-.259 1.374-.421 3.903.998 6.432.001.038-.012.074-.006.113.782 5.362-.96 8.312-2.067 9.594-.622.72-1.279 1.211-1.895 1.527l.545-5.061h-3.5l.546 5.074c-.622-.316-1.288-.811-1.918-1.54-1.107-1.281-2.85-4.231-2.067-9.594.005-.031-.006-.059-.005-.09 1.44-2.536 1.278-5.077 1.018-6.455-.106-.564-.479-1.035-.996-1.26-.504-.217-1.078-.17-1.541.125-.992.635-2.318 1.707-3.002 3.213-.252.555-.327 1.125-.298 1.681-.29-.03-.587.011-.861.138-.518.238-.879.721-.967 1.291-.202 1.322-.314 3.243.299 4.894.15.403.375.74.627 1.027-.469.203-.831.596-.993 1.086-.165.5-.106 1.045.16 1.494.408.688 1.311 1.583 2.557 2.32-.053.046-.121.09-.17.136-.437.404-.669.979-.637 1.578.031.59.318 1.129.788 1.479.685.509 1.747 1.054 2.955 1.313-.02.353.045.709.218 1.029.297.548.842.915 1.456.982 1.272.141 3.045.15 4.569-.516 1.034.451 2.183.593 3.211.593.487 0 .948-.032 1.357-.077.614-.067 1.158-.434 1.456-.981.173-.319.238-.675.219-1.029 1.22-.258 2.291-.804 2.977-1.315.469-.35.756-.889.787-1.479.032-.599-.2-1.174-.636-1.577-.053-.049-.128-.098-.186-.147 1.262-.742 2.17-1.632 2.571-2.309.268-.45.326-.995.161-1.495zm-2-6.207c.104.938.146 2.3-.263 3.397-.134.36-.521.73-1.036.99-.04.02-.065.055-.101.08-.393-.072-.796-.131-1.187-.172.016-.233.027-.472.033-.716.008-.019.023-.032.03-.052.266-.802.631-1.457 1.024-1.999.061-.079.128-.168.204-.274.441-.551.904-.963 1.297-1.254zm-3.843-5.138c.619.456 1.407 1.167 1.809 2.054.401.886-.196 2.134-.727 2.94-1.196-1.85-1.237-3.766-1.082-4.994zm-14.574 9.6c-.022-.013-.036-.033-.059-.044-.548-.262-.958-.644-1.099-1.021-.409-1.099-.367-2.461-.263-3.397.812.601 1.92 1.705 2.525 3.529.007.02.022.033.03.052.006.243.017.481.033.713-.386.04-.781.098-1.168.169zm.615-7.544c.405-.892 1.205-1.606 1.829-2.062.156 1.229.116 3.152-1.093 5.007-.535-.807-1.14-2.059-.736-2.945zm-2.001 9.952c.629-.219 1.765-.492 2.824-.594.167.808.389 1.527.642 2.164-.269.106-.528.219-.782.341-1.34-.572-2.286-1.397-2.684-1.911zm4.369 3.366c.309.494.618.903.894 1.223.015.017.031.031.045.048-.286.356-.558.725-.808 1.118-1.071-.132-2.058-.597-2.604-1.002.412-.382 1.298-.945 2.472-1.387zm1.302 4.329c.241-.464.611-1.085 1.107-1.722.611.442 1.254.78 1.903 1 .143.148.337.234.548.271-1.146.564-2.656.537-3.558.451zm4.872-.451c.211-.037.404-.123.548-.271.646-.219 1.284-.554 1.892-.992.424.541.821 1.123 1.146 1.711-.897.088-2.427.121-3.586-.448zm4.73-1.489c-.25-.393-.522-.763-.808-1.12.014-.016.03-.03.044-.047.276-.32.585-.729.894-1.223 1.196.448 2.088 1.008 2.509 1.374-.6.447-1.611.889-2.639 1.016zm1.807-3.849c-.253-.12-.509-.231-.775-.336.253-.636.475-1.354.642-2.162 1.068.105 2.222.379 2.845.592-.395.506-1.347 1.325-2.712 1.906zm-9.149-4.16c-.433-.52-1.035-1-1.035-2.41 0-.775.41-1.329.773-1.746.17-.196.493-.089.507.17.026.484.109.986.547.986 1.158 0-.326-2 .424-3.172.134-.332.559-.432.839-.208 1.027.822 2.911 2.476 2.911 3.969 0 1.411-.602 1.891-1.035 2.411z"/></svg>