<svg id="Layer_1" viewBox="0 0 24 24" xmlns="http://www.w3.org/2000/svg" data-name="Layer 1"><path d="m23.297 15.704c.209.774.104 1.583-.296 2.277-.399.694-1.045 1.192-1.818 1.4-.773.21-1.583.104-2.277-.295l-.45-.259c-.841.721-1.81 1.279-2.857 1.649v.522c0 1.654-1.346 3-3 3s-3-1.346-3-3v-.522c-1.047-.37-2.016-.929-2.857-1.649l-.45.259c-1.384.83-3.321.31-4.096-1.106-.833-1.38-.309-3.32 1.105-4.096l.451-.26c-.102-.544-.153-1.088-.153-1.625 0-.374.025-.754.074-1.13.072-.549.569-.938 1.122-.861.547.071.933.574.861 1.121-.038.285-.058.575-.058.87 0 .609.087 1.234.258 1.858.121.438-.071.904-.466 1.132l-1.093.629c-.471.258-.646.904-.369 1.364.259.473.903.647 1.365.369l1.091-.627c.396-.226.895-.157 1.213.168.889.908 2.013 1.557 3.25 1.875.442.114.75.513.75.969v1.263c0 .552.449 1 1 1s1-.448 1-1v-1.262c0-.456.309-.854.75-.968 1.238-.32 2.361-.969 3.25-1.877.319-.325.817-.394 1.213-.168l1.091.627c.459.278 1.107.103 1.365-.368.278-.461.103-1.107-.368-1.365l-1.093-.629c-.395-.228-.586-.693-.466-1.132.171-.624.258-1.249.258-1.858s-.087-1.234-.258-1.858c-.121-.438.071-.904.466-1.132l1.093-.629c.471-.258.646-.904.369-1.364-.258-.472-.906-.648-1.365-.369l-1.091.627c-.396.226-.895.157-1.213-.168-.889-.908-2.012-1.557-3.25-1.877-.441-.113-.75-.512-.75-.968v-1.262c0-.552-.449-1-1-1s-1-.447-1-1 .448-1 1-1c1.654 0 3 1.346 3 3v.522c1.047.37 2.016.929 2.857 1.649l.45-.259c1.381-.833 3.322-.309 4.096 1.106.833 1.38.309 3.32-1.105 4.096l-.451.26c.102.544.153 1.088.153 1.625s-.051 1.081-.153 1.625l.451.26c.695.4 1.192 1.046 1.401 1.819zm-19.699-7.704c-1.657 0-3-1.343-3-3v-1.999c0-1.657 1.343-3.001 3-3.001h3c1.65.001 3 1.352 2.999 3.002v5.409c0 .638-.523 1.088-1.089 1.088-.196 0-.397-.054-.583-.173l-1.995-1.327h-2.332zm0-2h2.334c.394 0 .779.117 1.108.335l.559.372v-3.704c0-.357-.185-.595-.296-.705-.11-.11-.349-.296-.704-.296h-3c-.552 0-1.001.448-1.001.999v1.999c0 .551.449 1 1 1zm9 6c1.381 0 2.5-1.119 2.5-2.5s-1.119-2.5-2.5-2.5-2.5 1.119-2.5 2.5 1.119 2.5 2.5 2.5zm-3.099 4.365c.479.278 1.089.113 1.366-.364.357-.617 1.021-1.001 1.733-1.001s1.376.384 1.733 1.001c.278.482.897.639 1.366.364.479-.276.642-.888.365-1.366-.713-1.233-2.041-1.999-3.464-1.999s-2.751.766-3.464 1.999c-.276.479-.113 1.09.365 1.366z"/></svg>