<svg id="Layer_1" viewBox="0 0 24 24" xmlns="http://www.w3.org/2000/svg" data-name="Layer 1"><path d="m14.121 12.123 1.879-1.879v3.256c0 .828-.672 1.5-1.5 1.5h-5c-.828 0-1.5-.672-1.5-1.5v-3.256l1.879 1.879c.585.585 1.353.877 2.121.877s1.536-.292 2.121-.877zm-5.344-3.93 2.516 2.516c.378.377 1.036.377 1.414 0l2.516-2.516c-.215-.119-.459-.193-.723-.193h-5c-.264 0-.508.074-.723.193zm10.223 1.807c-.553 0-1 .448-1 1v5c0 1.654-1.346 3-3 3h-6c-1.654 0-3-1.346-3-3v-8c0-1.654 1.346-3 3-3h4c.553 0 1-.448 1-1s-.447-1-1-1h-4c-.342 0-.677.035-1 .101v-2.101c0-.552-.447-1-1-1s-1 .448-1 1v3.026c-1.207.914-2 2.348-2 3.974v8c0 1.627.793 3.061 2 3.974v3.026c0 .552.447 1 1 1s1-.448 1-1v-2.101c.323.066.658.101 1 .101h6c.342 0 .677-.035 1-.101v2.101c0 .552.447 1 1 1s1-.448 1-1v-3.026c1.207-.914 2-2.348 2-3.974v-5c0-.552-.447-1-1-1zm5-6c0 2.206-1.794 4-4 4s-4-1.794-4-4 1.794-4 4-4 4 1.794 4 4zm-2 0c0-1.103-.897-2-2-2s-2 .897-2 2 .897 2 2 2 2-.897 2-2z"/></svg>