<svg id="Layer_1" viewBox="0 0 24 24" xmlns="http://www.w3.org/2000/svg" data-name="Layer 1"><path d="m23.705 16.717-1.302-3.472c-.277-.737-.721-1.381-1.278-1.898.931-.535 2.119-1.463 2.781-2.938.226-.504 0-1.096-.503-1.321-.502-.226-1.096 0-1.322.503-.982 2.002-2.626 2.512-3.305 2.537l.21-3.95.93-3.013c.177-.853-.147-1.729-.824-2.235-.877-.654-2.181-.914-3.087-.93-.901.006-2.231.279-3.112.939-.675.507-.997 1.384-.796 2.328l.904 2.911.208 3.821h-2.216v-3c0-.737-.405-1.375-1-1.722v-4.229c0-.366-.186-.699-.497-.891-.312-.191-.693-.21-1.019-.046l-1.641.821c-.52.259-.843.782-.843 1.363v2.983c-.595.347-1 .985-1 1.722v3.181c-1.539.412-2.835 1.538-3.407 3.072l-1.304 3.499c-.188.562-.282 1.148-.282 1.741 0 3.036 2.47 5.507 5.507 5.507h12.986c3.037 0 5.507-2.471 5.507-5.507 0-.594-.095-1.18-.295-1.776zm-9.612-14.177c.412-.309 1.29-.567 1.913-.54.673.025 1.481.229 1.89.533.058.043.082.141.086.132l-.725 2.335h-2.528l-.697-2.233c-.019-.091.007-.187.062-.227zm2.845 4.46-.159 3h-1.567l-.164-3zm-9.945 0h2v3h-2zm11.5 15h-12.986c-1.934 0-3.507-1.573-3.507-3.507 0-.378.061-.751.168-1.075l1.292-3.466c.436-1.168 1.565-1.952 2.811-1.952h11.45c1.244 0 2.372.782 2.809 1.947l1.291 3.438c.119.357.18.73.18 1.108 0 1.934-1.573 3.507-3.507 3.507z"/></svg>