<svg id="Layer_1" viewBox="0 0 24 24" xmlns="http://www.w3.org/2000/svg" data-name="Layer 1"><path d="m5.5 11c.828 0 1.5.672 1.5 1.5s-.672 1.5-1.5 1.5-1.5-.672-1.5-1.5.672-1.5 1.5-1.5zm18.5-6v4c0 .552-.447 1-1 1s-1-.448-1-1v-2h-20v6c0 1.654 1.346 3 3 3h2c.553 0 1 .448 1 1s-.447 1-1 1h-2c-2.757 0-5-2.243-5-5v-8c0-2.757 2.243-5 5-5h14c2.757 0 5 2.243 5 5zm-2 0c0-1.654-1.346-3-3-3h-14c-1.654 0-3 1.346-3 3zm2 12c0 3.86-3.141 7-7 7s-7-3.14-7-7 3.141-7 7-7 7 3.14 7 7zm-2 0c0-2.757-2.243-5-5-5s-5 2.243-5 5 2.243 5 5 5 5-2.243 5-5zm-3.192-1.242-2.223 2.134c-.144.14-.379.143-.522 0l-1.131-1.108c-.396-.386-1.028-.379-1.414.015-.387.395-.381 1.027.014 1.414l1.131 1.108c.46.45 1.062.674 1.664.674s1.2-.224 1.653-.671l2.213-2.124c.398-.383.411-1.016.029-1.414-.383-.398-1.017-.411-1.414-.029z"/></svg>