<svg id="Layer_1" viewBox="0 0 24 24" xmlns="http://www.w3.org/2000/svg" data-name="Layer 1"><path d="m12 5.5c0-.828.672-1.5 1.5-1.5s1.5.672 1.5 1.5-.672 1.5-1.5 1.5-1.5-.672-1.5-1.5zm6.5 6.5c.828 0 1.5-.672 1.5-1.5s-.672-1.5-1.5-1.5-1.5.672-1.5 1.5.672 1.5 1.5 1.5zm2.345 5.071-17.147 6.752c-.322.117-.651.174-.974.174-.713 0-1.396-.279-1.919-.802-.76-.76-1.004-1.859-.637-2.869l6.759-17.165c.936-2.332 3.44-3.62 5.826-3.008 5.276 1.359 9.735 5.817 11.094 11.094.615 2.387-.675 4.89-3.001 5.824zm-9.299-15.071c-.568 0-1.119.174-1.592.481.551 1.159 1.353 3.184 1.997 6.185l2.336-.621c1.007-.26 1.923.656 1.663 1.663l-.706 2.599c3.018.685 5.211 1.421 6.233 1.793.462-.678.648-1.526.434-2.354-1.183-4.593-5.063-8.473-9.656-9.656-.235-.061-.473-.09-.708-.09zm1.432 16.019 6.4-2.52c-1.76-.562-4.081-1.179-6.642-1.668.125 1.286.207 2.686.243 4.188zm-1.984.781c-.085-7.365-1.469-12.072-2.4-14.416l-6.555 16.651c-.135.373.081.647.18.747.1.099.374.316.771.171l8.005-3.152z"/></svg>