<svg id="Layer_1" viewBox="0 0 24 24" xmlns="http://www.w3.org/2000/svg" data-name="Layer 1"><path d="m22.929 7.622c-.677-.528-1.544-.711-2.375-.502-.548.137-1.182.258-1.856.363.187-.477.3-1.001.299-1.584.051-2.15-1.953-4.023-4.084-3.896-1.191.042-2.206.592-2.914 1.475-.707-.883-1.722-1.433-2.914-1.475-2.132-.137-4.134 1.751-4.084 3.896 0 .583.112 1.107.299 1.584-.674-.106-1.307-.226-1.856-.363-1.689-.473-3.494.945-3.446 2.697v5.401c-.048 1.751 1.758 3.171 3.446 2.697 1.384-.347 3.444-.638 5.554-.794v3.493c0 .555.329 1.054.838 1.272.509.219 1.098.113 1.503-.273l.658-.634.662.638c.263.25.605.382.954.382.744.012 1.398-.637 1.384-1.385v-3.493c2.11.156 4.17.447 5.555.794 1.682.473 3.496-.945 3.445-2.697v-5.401c0-.864-.39-1.664-1.071-2.195zm-7.946-3.621c1.04-.038 2.04.838 2.014 1.9-.098 1.475-.616 1.622-1.66 1.961-.809.061-1.605.103-2.338.123v-1.891c.166-1.237.94-2.057 1.983-2.094zm-7.323 3.435c-.283-.211-.66-.6-.659-1.534-.024-1.053.974-1.958 2.015-1.9 1.043.037 1.817.856 1.983 2.094v1.891c-1.004-.092-2.459.105-3.339-.55zm-4.7 8.541c-.596.101-.928-.265-.96-.758v-5.401c.033-.492.361-.86.96-.758 1.686.46 4.008.624 6.04.883v5.172c-2.29.162-4.496.474-6.04.861zm9.733 2.896c-.387-.373-1-.373-1.387 0l-.307.295v-9.168h2v9.167l-.307-.295zm9.307-3.653c-.032.492-.362.858-.959.758-1.545-.387-3.75-.699-6.041-.861v-5.172c2.032-.259 4.354-.424 6.041-.883.597-.101.927.265.959.758v5.401z"/></svg>