<svg id="Layer_1" viewBox="0 0 24 24" xmlns="http://www.w3.org/2000/svg" data-name="Layer 1"><path d="m19.776 3.222c-2.078-2.077-4.84-3.222-7.778-3.222s-5.7 1.145-7.778 3.222c-4.289 4.289-4.289 11.267.028 15.584l3.943 3.642c1.024 1.001 2.375 1.553 3.807 1.553s2.783-.552 3.787-1.533l3.992-3.688c4.289-4.289 4.289-11.268 0-15.557zm-1.385 14.115-3.984 3.681c-1.296 1.268-3.5 1.287-4.837-.02l-3.935-3.634c-3.509-3.51-3.509-9.219 0-12.729 1.7-1.699 3.96-2.636 6.364-2.636s4.664.937 6.364 2.636c3.509 3.51 3.509 9.22.028 12.701zm-2.949-11.35-2.5-.829c-.61-.201-1.28-.202-1.89 0l-2.5.829c-1.229.408-2.055 1.553-2.055 2.848v3.187c0 3.571 3.714 5.704 4.853 6.272.196.104.424.216.648.206.194.008.405-.082.583-.156 1.153-.465 4.917-2.293 4.917-6.322v-3.187c0-1.295-.826-2.439-2.056-2.848zm.056 6.034c0 2.581-2.424 3.925-3.455 4.379-.916-.49-3.545-2.098-3.545-4.379v-3.187c0-.432.275-.813.685-.949l2.5-.829c.203-.068.426-.068.629 0l2.5.829c.41.136.686.518.686.949zm-.766-2.201c.375.405.352 1.037-.054 1.413l-1.212 1.124c-.445.439-1.039.661-1.636.661-.602 0-1.207-.225-1.668-.677l-.557-.532c-.399-.383-.413-1.016-.031-1.414s1.016-.413 1.414-.031l.565.541c.152.15.386.149.531.007l1.235-1.146c.405-.375 1.037-.353 1.413.054z"/></svg>