<svg id="Layer_1" viewBox="0 0 24 24" xmlns="http://www.w3.org/2000/svg" data-name="Layer 1"><path d="m6 19h12c.553 0 1-.447 1-1s-.447-1-1-1h-1c-.25-3.008-1.481-5.095-3.097-5-.882.018-1.489.445-1.903.854-.415-.409-1.025-.837-1.923-.854-1.594-.097-2.828 1.996-3.077 5h-1c-.553 0-1 .447-1 1s.447 1 1 1zm4.058-5c.198.004.365.072.675.425.318.362.779.569 1.266.57h.002c.486 0 .947-.207 1.268-.57.31-.353.477-.421.655-.425.068-.07.813.707 1.077 3h-6c.359-2.409.971-3 1.058-3zm8.942-13h-14c-2.757 0-5 2.243-5 5v12c0 2.757 2.243 5 5 5h14c2.757 0 5-2.243 5-5v-12c0-2.757-2.243-5-5-5zm3 17c0 1.654-1.346 3-3 3h-14c-1.654 0-3-1.346-3-3v-8h20zm0-10h-20v-2c0-1.654 1.346-3 3-3h14c1.654 0 3 1.346 3 3zm-16-2.5c0 .828-.672 1.5-1.5 1.5s-1.5-.672-1.5-1.5.672-1.5 1.5-1.5 1.5.672 1.5 1.5zm4 0c0 .828-.672 1.5-1.5 1.5s-1.5-.672-1.5-1.5.672-1.5 1.5-1.5 1.5.672 1.5 1.5z"/></svg>