<svg id="Layer_1" viewBox="0 0 24 24" xmlns="http://www.w3.org/2000/svg" data-name="Layer 1"><path d="m22 23c0 .552-.447 1-1 1s-1-.448-1-1c0-2.785-1.639-5.189-4-6.315v2.499c1.161.414 2 1.514 2 2.816v1c0 .552-.447 1-1 1s-1-.448-1-1v-1c0-.551-.448-1-1-1s-1 .449-1 1v1c0 .552-.447 1-1 1s-1-.448-1-1v-1c0-1.302.839-2.402 2-2.816v-3.104c-.328-.047-.66-.08-1-.08h-2c-.695 0-1.366.105-2 .295v2.983c.595.346 1 .984 1 1.723 0 1.105-.895 2-2 2s-2-.895-2-2c0-.738.405-1.376 1-1.723v-2.014c-1.811 1.267-3 3.364-3 5.736 0 .552-.447 1-1 1s-1-.448-1-1c0-4.962 4.037-9 9-9h2c4.963 0 9 4.038 9 9zm-18.128-10.178c.309-1.306 1.854-7.849 2.028-8.386.858-2.653 3.309-4.436 6.1-4.436s5.242 1.783 6.1 4.437c.174.536 1.72 7.079 2.028 8.385.126.538-.206 1.076-.744 1.203-.523.128-1.078-.202-1.203-.744-.7-2.968-1.857-7.827-1.984-8.23-.304-.942-.904-1.72-1.675-2.256-.528 1.312-1.447 2.423-2.669 3.185-1.081.674-2.303 1.021-3.546 1.021-.056 0-.112-.008-.167-.01.444 1.725 1.999 3.009 3.861 3.009.703 0 1.395-.185 1.999-.535.479-.278 1.091-.114 1.366.365.277.478.113 1.09-.364 1.366-.909.525-1.946.803-3.001.803-2.203 0-4.128-1.197-5.171-2.972-.344 1.439-.717 3.01-1.01 4.252-.128.538-.668.874-1.203.744-.538-.126-.87-.665-.744-1.203zm3.97-7.864c1.03.101 2.059-.118 2.952-.675.856-.534 1.492-1.314 1.863-2.23-.215-.032-.434-.052-.657-.052-1.886 0-3.541 1.186-4.158 2.957z"/></svg>