<svg id="Layer_1" viewBox="0 0 24 24" xmlns="http://www.w3.org/2000/svg" data-name="Layer 1"><path d="m10.7 19.2v-5.601h-.4c-.442 0-.8-.358-.8-.8s.358-.8.8-.8h2.4c.442 0 .8.358.8.8s-.358.8-.8.8h-.4v5.601c0 .442-.358.8-.8.8-.442 0-.8-.358-.8-.8zm12.5-.8h-.6v-5.6c0-.442-.358-.8-.8-.8s-.8.358-.8.8v6.4c0 .442.358.8.8.8h1.4c.442 0 .8-.358.8-.8s-.358-.8-.8-.8zm-15.4 1.6c.442 0 .8-.358.8-.8v-6.4c0-.442-.358-.8-.8-.8s-.8.358-.8.8v2.4h-1.4v-2.4c0-.442-.358-.8-.8-.8s-.8.358-.8.8v6.4c0 .442.358.8.8.8s.8-.358.8-.8v-2.4h1.4v2.4c0 .442.358.8.8.8zm10.918-8c-.293 0-.566.165-.721.563l-.997 2.637-.997-2.637c-.155-.398-.428-.563-.721-.563-.442 0-.81.218-.847.923l-.383 6.228c-.028.46.337.849.799.849.423 0 .772-.329.799-.751l.167-2.679.466 1.197c.255.654 1.18.654 1.434 0l.467-1.197.167 2.68c.026.422.376.751.799.751.461 0 .827-.389.799-.849l-.383-6.228c-.037-.705-.405-.923-.847-.923zm-.439 9.496c.347.431.277 1.06-.153 1.405-.882.709-1.992 1.099-3.126 1.099h-10c-2.757 0-5-2.243-5-5v-14c0-2.757 2.243-5 5-5h4.515c1.869 0 3.627.728 4.95 2.05l3.484 3.486c.888.887 1.521 2 1.833 3.217.173.609-.336 1.264-.969 1.248h-5.813c-1.654 0-3-1.346-3-3v-4.978c-.16-.015-.322-.023-.485-.023h-4.515c-1.654 0-3 1.346-3 3v14c0 1.654 1.346 3 3 3h10c.69 0 1.338-.228 1.874-.657.431-.347 1.06-.277 1.405.153zm-6.279-14.496c0 .551.448 1 1 1h4.339c-.22-.382-.489-.736-.804-1.05l-3.484-3.486c-.318-.318-.671-.587-1.051-.805z"/></svg>