<svg id="Layer_1" viewBox="0 0 24 24" xmlns="http://www.w3.org/2000/svg" data-name="Layer 1"><path d="m22 23c0 .553-.447 1-1 1s-1-.447-1-1c0-2.785-1.639-5.188-4-6.315v2.499c1.161.414 2 1.514 2 2.816v1c0 .553-.447 1-1 1s-1-.447-1-1v-1c0-.552-.448-1-1-1s-1 .448-1 1v1c0 .553-.447 1-1 1s-1-.447-1-1v-1c0-1.302.839-2.402 2-2.816v-3.104c-.328-.047-.66-.08-1-.08h-2c-.695 0-1.366.105-2 .295v2.983c.595.346 1 .984 1 1.723 0 1.105-.895 2-2 2s-2-.895-2-2c0-.738.405-1.376 1-1.723v-2.013c-1.811 1.267-3 3.364-3 5.736 0 .553-.447 1-1 1s-1-.447-1-1c0-4.963 4.037-9 9-9h2c4.963 0 9 4.037 9 9zm-16-17c0-3.309 2.691-6 6-6s6 2.691 6 6-2.691 6-6 6-6-2.691-6-6zm2.157-1.049c.208.028.418.049.628.049 1.898 0 3.581-1.125 4.344-2.818-.36-.107-.734-.182-1.129-.182-1.841 0-3.379 1.256-3.843 2.951zm-.031 1.998c.429 1.747 1.996 3.051 3.874 3.051 2.206 0 4-1.794 4-4 0-1.092-.442-2.081-1.153-2.803-1.123 2.288-3.442 3.803-6.062 3.803-.221 0-.44-.03-.659-.051z"/></svg>