<svg id="Layer_1" viewBox="0 0 24 24" xmlns="http://www.w3.org/2000/svg" data-name="Layer 1"><path d="m24 20.531v2.469c0 .553-.447 1-1 1s-1-.447-1-1v-2.469c0-.822-.493-1.552-1.257-1.856l-2.743-1.098v4.557c0 1.03-.835 1.865-1.865 1.865-.483 0-.946-.187-1.294-.522l-2.274-2.189c-.831-.831-.748-2.231.249-2.949.79-.567 1.884-.393 2.562.285l.622.573v-6.698c0-.827.673-1.5 1.5-1.5s1.5.673 1.5 1.5v3.323l2.485.994c1.527.61 2.515 2.068 2.515 3.714zm-13-8.531c-.553 0-1 .447-1 1s.447 1 1 1h2c.553 0 1-.447 1-1s-.447-1-1-1zm8-12h-14c-2.757 0-5 2.243-5 5v4c0 1.435.617 2.802 1.693 3.75.414.365 1.047.327 1.411-.089.365-.414.325-1.046-.089-1.411-.646-.569-1.016-1.389-1.016-2.25v-4c0-1.654 1.346-3 3-3h14c1.654 0 3 1.346 3 3v4c0 .861-.37 1.681-1.016 2.25-.414.365-.454.997-.089 1.411.366.416.999.453 1.411.089 1.076-.948 1.693-2.315 1.693-3.75v-4c0-2.757-2.243-5-5-5zm-13 6c.553 0 1-.447 1-1s-.447-1-1-1h-1c-.553 0-1 .447-1 1s.447 1 1 1zm5 0c.553 0 1-.447 1-1s-.447-1-1-1h-1c-.553 0-1 .447-1 1s.447 1 1 1zm8-2h-4c-.553 0-1 .447-1 1s.447 1 1 1h4c.553 0 1-.447 1-1s-.447-1-1-1zm-11 5c0 .553.447 1 1 1h6c.553 0 1-.447 1-1s-.447-1-1-1h-6c-.553 0-1 .447-1 1zm11-1c-.552 0-1 .448-1 1s.448 1 1 1 1-.448 1-1-.448-1-1-1zm-14 2c.552 0 1-.448 1-1s-.448-1-1-1-1 .448-1 1 .448 1 1 1zm6.184 8.34c-.79-.567-1.884-.393-2.562.285l-.622.573v-6.698c0-.827-.673-1.5-1.5-1.5s-1.5.673-1.5 1.5v3.323l-2.485.994c-1.527.61-2.515 2.068-2.515 3.714v2.469c0 .553.447 1 1 1s1-.447 1-1v-2.469c0-.822.493-1.552 1.257-1.856l2.743-1.098v4.557c0 1.03.835 1.865 1.865 1.865.483 0 .946-.187 1.294-.522l2.274-2.189c.831-.831.748-2.231-.249-2.949z"/></svg>