<svg id="Layer_1" viewBox="0 0 24 24" xmlns="http://www.w3.org/2000/svg" data-name="Layer 1"><path d="m19 0h-14c-2.757 0-5 2.243-5 5v14c0 2.757 2.243 5 5 5h14c2.757 0 5-2.243 5-5v-14c0-2.757-2.243-5-5-5zm3 19c0 1.654-1.346 3-3 3h-14c-1.654 0-3-1.346-3-3v-14c0-1.654 1.346-3 3-3h14c1.654 0 3 1.346 3 3zm-4.722-5.884c-.815-.769-2.185-.779-3.013-.021l-.269.189c-1.542-.69-2.532-1.684-3.271-3.282l.185-.262c.778-.852.771-2.17-.021-3.013 0 0-1.214-1.537-1.241-1.564-.838-.837-2.335-.801-3.097-.035 0 0-.882.796-.894.808-.747.747-1.158 1.753-1.158 2.835 0 4.611 6.116 10.729 10.729 10.73 1.083 0 2.091-.412 2.87-1.195l.738-.82c.863-.864.863-2.269 0-3.133-.027-.028-1.56-1.236-1.56-1.236zm.11 2.992-.739.821c-.367.368-.869.57-1.417.57h-.004c-3.316 0-8.729-4.876-8.729-8.729 0-.54.197-1.037.557-1.404l.872-.79c.098-.097.18-.094.278-.022l1.143 1.45c.213.164.141.367-.033.526l-.547.779c-.194.277-.235.633-.109.947 1.046 2.605 2.573 4.129 5.105 5.095.31.119.658.076.931-.115l.779-.546c.177-.184.346-.265.526-.033l1.444 1.136c.061.085.05.207-.058.315z"/></svg>