<svg id="Layer_1" viewBox="0 0 24 24" xmlns="http://www.w3.org/2000/svg" data-name="Layer 1"><path d="m14 17v6c.011.539-.385 1-1 1-.212 0-.424-.068-.6-.2l-4-3c-.252-.188-.4-.485-.4-.8v-5.62l-7.015-7.893c-.636-.714-.985-1.634-.985-2.589 0-2.149 1.748-3.898 3.897-3.898h5.103c.553 0 1 .448 1 1s-.447 1-1 1h-5.103c-1.046 0-1.897.852-1.897 1.898 0 .465.17.913.479 1.26l7.268 8.177c.163.183.253.419.253.665v5.5l2 1.5v-4c0-.552.447-1 1-1s1 .448 1 1zm10-10c0 3.86-3.141 7-7 7s-7-3.14-7-7 3.141-7 7-7 7 3.14 7 7zm-2 0c0-2.757-2.243-5-5-5s-5 2.243-5 5 2.243 5 5 5 5-2.243 5-5zm-3.192-1.242-2.223 2.134c-.144.14-.379.143-.522 0l-1.131-1.108c-.396-.385-1.028-.38-1.414.015-.387.395-.381 1.027.014 1.414l1.131 1.108c.46.45 1.062.674 1.664.674s1.2-.224 1.653-.671l2.213-2.124c.398-.383.411-1.016.029-1.414-.383-.398-1.017-.412-1.414-.029z"/></svg>