<svg id="Layer_1" viewBox="0 0 24 24" xmlns="http://www.w3.org/2000/svg" data-name="Layer 1"><path d="m9 5.5c0 .828-.672 1.5-1.5 1.5s-1.5-.672-1.5-1.5.672-1.5 1.5-1.5 1.5.672 1.5 1.5zm5 1c0 2.239-1.135 4.284-3 5.473v7.65c0 1.069-.417 2.074-1.172 2.829l-.996.996c-.367.367-.85.551-1.332.551s-.964-.184-1.332-.55l-.997-.997c-.756-.755-1.172-1.76-1.172-2.829v-.916c0-.4.156-.777.439-1.061l1.021-1.021-.814-.814c-.585-.585-.585-1.536 0-2.121l.814-.814-.325-.324c-2.952-1.153-4.63-4.214-4.003-7.373.495-2.492 2.495-4.515 4.978-5.033 1.96-.411 3.961.067 5.488 1.308s2.403 3.081 2.403 5.047zm-2 0c0-1.361-.607-2.635-1.665-3.495-1.074-.872-2.429-1.191-3.817-.902-1.708.357-3.084 1.75-3.425 3.466-.447 2.25.784 4.428 2.925 5.176.142.05.271.131.377.237l.833.833c.585.585.585 1.536 0 2.121l-.814.814.814.814c.585.585.585 1.536 0 2.121l-1.229 1.229v.709c0 .527.213 1.043.586 1.415l.914.914.914-.914c.373-.372.586-.888.586-1.415v-8.229c0-.375.21-.72.544-.891 1.515-.774 2.456-2.309 2.456-4.004zm5 1.5h2c1.654 0 3-1.346 3-3v-1.277c.595-.346 1-.984 1-1.723 0-1.105-.895-2-2-2s-2 .895-2 2c0 .738.405 1.376 1 1.723v1.277c0 .552-.449 1-1 1h-2c-.552 0-1 .447-1 1s.448 1 1 1zm5 12.277v-1.277c0-1.654-1.346-3-3-3h-5c-.552 0-1 .447-1 1s.448 1 1 1h5c.551 0 1 .448 1 1v1.277c-.595.346-1 .984-1 1.723 0 1.105.895 2 2 2s2-.895 2-2c0-.738-.405-1.376-1-1.723zm-1-10.277c-.738 0-1.376.405-1.723 1h-4.277c-.552 0-1 .447-1 1s.448 1 1 1h4.277c.346.595.984 1 1.723 1 1.105 0 2-.895 2-2s-.895-2-2-2z"/></svg>