<svg id="Layer_1" viewBox="0 0 24 24" xmlns="http://www.w3.org/2000/svg" data-name="Layer 1"><path d="m19.117 4.155c-.546-1.26-1.744-2.107-3.117-2.147v-1.008c0-.553-.448-1-1-1s-1 .447-1 1v1h-5.876c-1.424-.008-2.678.856-3.24 2.155-.578 1.154-.884 2.449-.884 3.742v10.205c0 1.293.306 2.588.883 3.742.563 1.299 1.816 2.163 3.241 2.155h7.752c1.424.008 2.678-.856 3.24-2.155.578-1.154.884-2.449.884-3.742v-10.205c0-1.293-.306-2.588-.883-3.742zm-1.117 13.947c0 .984-.232 1.969-.672 2.848-.239.606-.781 1.06-1.452 1.05h-7.752c-.671.011-1.212-.444-1.452-1.05-.439-.879-.672-1.863-.672-2.848v-10.205c0-.984.232-1.969.672-2.848.239-.606.781-1.06 1.452-1.05h7.752c.671-.011 1.212.444 1.452 1.05.439.879.672 1.863.672 2.848zm-2.619-5.076-3.492 4.676c-.436.632-1.421.167-1.21-.571l.821-2.088h-2.282c-.481 0-.826-.465-.687-.925l1.734-4.595c.108-.314.404-.524.735-.524h1.473c.546 0 .922.547.726 1.057l-.81 1.877h2.406c.562 0 .897.625.587 1.093z"/></svg>