<svg id="Layer_1" viewBox="0 0 24 24" xmlns="http://www.w3.org/2000/svg" data-name="Layer 1"><path d="m21 23c0 .552-.448 1-1 1s-1-.448-1-1 .448-1 1-1 1 .448 1 1zm2-4c-.552 0-1 .448-1 1s.448 1 1 1 1-.448 1-1-.448-1-1-1zm-3 0c-.552 0-1 .448-1 1s.448 1 1 1 1-.448 1-1-.448-1-1-1zm-2-4v1c0 1.103-.897 2-2 2h-1c-1.103 0-2-.897-2-2v-1c0-1.103.897-2 2-2h1c1.103 0 2 .897 2 2zm-1.999 1v-1h-1.001v1zm1.999 5v1c0 1.103-.897 2-2 2h-1c-1.103 0-2-.897-2-2v-1c0-1.103.897-2 2-2h1c1.103 0 2 .897 2 2zm-1.999 1v-1h-1.001v1zm7.999-7v1c0 1.103-.897 2-2 2h-1c-1.103 0-2-.897-2-2v-1c0-1.103.897-2 2-2h1c1.103 0 2 .897 2 2zm-1.999 1v-1h-1.001v1zm-12.001-11c-.828 0-1.5.672-1.5 1.5s.672 1.5 1.5 1.5 1.5-.672 1.5-1.5-.672-1.5-1.5-1.5zm-1 4c-.552 0-1 .448-1 1s.448 1 1 1v3c0 .552.448 1 1 1s1-.448 1-1v-3c0-1.103-.897-2-2-2zm11 1c0-5.514-4.486-10-10-10s-10 4.486-10 10v6c0 2.206 1.794 4 4 4h6c.552 0 1-.448 1-1s-.448-1-1-1h-6c-1.103 0-2-.897-2-2v-6c0-4.411 3.589-8 8-8s8 3.589 8 8c0 .552.447 1 1 1s1-.448 1-1z"/></svg>