<svg id="Layer_1" viewBox="0 0 24 24" xmlns="http://www.w3.org/2000/svg" data-name="Layer 1"><path d="m21.961 7.577c-.348-1.51-1.452-3.763-3.961-4.077.478-.239 1.75-.364 2.228-.429.72-.098 1.032-.97.516-1.482-.785-.778-2.834-1.589-4.653-1.589-3.144 0-4.091 1.818-4.091 1.818s-.947-1.818-4.091-1.818c-1.819 0-3.868.811-4.653 1.589-.516.512-.205 1.384.516 1.482.478.065 1.75.19 2.228.429-2.509.314-3.613 2.567-3.961 4.077-.132.571.424 1.089.98.904.562-.188 1.481-.481 2.481-.481 0 0-1.977.784-2.494 3.534-.099.529.46.933.946.702.565-.269 1.048-.237 1.048-.237 0 2.633.085 3.855-.534 6.075-.949 1.441-1.466 3.138-1.466 4.925 0 .553.447 1 1 1s1-.447 1-1c0-2.209 1.016-4.243 2.786-5.58.194-.148.475-.113.662.079.945.968 2.206 1.501 3.552 1.501s2.606-.533 3.552-1.501c.188-.191.469-.227.662-.079 1.771 1.337 2.786 3.371 2.786 5.58 0 .553.447 1 1 1s1-.447 1-1c0-1.787-.518-3.484-1.466-4.925-.619-2.22-.534-3.442-.534-6.075 0 0 .483-.032 1.048.237.486.231 1.046-.174.946-.702-.517-2.751-2.494-3.534-2.494-3.534 1 0 1.918.293 2.481.481.556.185 1.112-.333.98-.904zm-11.961 8.625v-2.624c-1.44-.655-2.512-1.937-2.87-3.472-.13-.559.221-1.111.783-1.226 2.99-.617 3.854-3.183 4.088-4.38.233 1.196 1.098 3.763 4.088 4.38.562.116.913.668.783 1.226-.358 1.534-1.43 2.817-2.87 3.472v2.624c-1.106 1.012-2.894 1.012-4 0z"/></svg>