<svg id="Layer_1" viewBox="0 0 24 24" xmlns="http://www.w3.org/2000/svg" data-name="Layer 1"><path d="m16.5 3.667v-2.835c0-.459-.373-.832-.832-.832s-.831.372-.831.831v.678h-1.392v-.682c-.001-.456-.371-.827-.829-.827s-.828.371-.828.828v.672h-1.418v-.672c0-.457-.371-.828-.828-.828s-.828.371-.828.828v2.688l-1.009-.93c-.391-.391-1.024-.39-1.414 0-.391.391-.391 1.024 0 1.414l2.748 2.67c.546.546 1.215.967 1.959 1.169v15.161c0 .552.447 1 1 1s1-.448 1-1v-15.084c.861-.168 1.632-.589 2.229-1.186.785-.785 1.271-1.868 1.271-3.062zm-2 0c.026 1.25-1.083 2.359-2.333 2.333-.536-.003-.997-.145-1.451-.513v-1.987l3.784.01zm6.76 3.333h1.739c.553 0 1-.448 1-1s-.447-1-1-1h-3.5c-.628 0-1.2.393-1.425 1.048l-3.029 9.652c-.03.097-.046.198-.046.299v.302c0 2.506 1.964 4.698 4.503 4.698 2.415.055 4.542-2.087 4.497-4.5v-.5c0-.1-.015-.2-.045-.296l-2.695-8.704zm-1.743 1.131 2.126 6.869h-4.282zm1.703 10.182c-.503.477-1.169.722-1.856.683-1.081-.057-1.986-.902-2.266-1.997h4.851c-.1.499-.35.954-.729 1.313zm-15.262-12.29c-.215-.619-.776-1.021-1.433-1.023h-3.525c-.553 0-1 .448-1 1s.447 1 1 1h1.776l-2.73 8.701c-.03.097-.046.198-.046.299v.302c0 2.506 1.82 4.698 4.503 4.698 2.415.055 4.542-2.087 4.497-4.5v-.5c0-.1-.015-.2-.045-.296zm-1.441 2.108 2.126 6.869h-4.281l2.156-6.869zm1.704 10.182c-.502.477-1.164.722-1.856.683-1.081-.057-1.986-.902-2.266-1.997h4.851c-.1.499-.35.954-.729 1.313z"/></svg>