<svg id="Layer_1" viewBox="0 0 24 24" xmlns="http://www.w3.org/2000/svg" data-name="Layer 1"><path d="m23.101.897c-.596-.595-1.39-.895-2.23-.897-.888.018-1.857.104-2.924.264-1.342.258-2.756 1.089-3.71 1.744-.292-.432-.723-.753-1.235-.909-.683-.208-1.41-.09-1.994.32-.662.465-1.312 1.223-1.823 1.909-.19-.134-.407-.232-.643-.285-.597-.134-1.213.043-1.58.415-.624.625-2.01 2.238-2.44 4.544-.293-.017-.578.035-.849.156-.517.23-.895.677-1.037 1.226-1.075 4.158-.512 9.189-.277 10.843l-2.066 2.066c-.391.391-.391 1.023 0 1.414.195.195.451.293.707.293s.512-.098.707-.293l2.066-2.066c.908.129 2.841.358 5.094.358 1.836 0 3.881-.152 5.747-.635.55-.142.997-.52 1.227-1.036.122-.271.174-.563.156-.85 2.307-.431 3.852-1.742 4.484-2.375.432-.433.609-1.047.476-1.645-.054-.237-.152-.456-.289-.647.695-.523 1.468-1.198 1.943-1.9.395-.586.496-1.31.273-1.984-.159-.485-.468-.893-.903-1.181.659-.947 1.498-2.363 1.762-3.736.152-1.027.238-1.997.257-2.881.017-.844-.303-1.636-.898-2.231zm-1.33 4.777c-.279 1.451-1.655 3.3-2.161 3.891-.224.26-.299.618-.197.946.101.328.362.582.694.671l.698.186c.117.042.163.133.18.184.02.059.029.148-.031.239-.415.614-1.494 1.511-2.684 2.232-.333.202-.519.58-.476.968.044.388.31.714.68.837l.329.108c-.67.59-2.198 1.682-4.33 1.682-.378 0-.724.213-.894.551-.17.337-.135.741.09 1.045l.203.273c-2.873.689-6.231.547-8.298.352l12.133-12.132c.391-.391.391-1.023 0-1.414s-1.023-.391-1.414 0l-12.132 12.132c-.196-2.071-.338-5.42.351-8.297l.271.203c.304.226.708.263 1.047.093.338-.169.552-.516.552-.894 0-2.127 1.086-3.654 1.682-4.332l.108.328c.123.37.45.635.837.679.393.046.765-.142.967-.475.732-1.208 1.589-2.256 2.181-2.672.106-.074.212-.059.264-.043.055.017.126.054.172.137l.172.716c.081.337.332.608.662.716.329.11.692.038.956-.187.601-.507 2.478-1.886 3.898-2.16.941-.14 1.826-.219 2.63-.235.287-.027.568.104.776.312.207.207.317.483.312.776-.017.801-.096 1.685-.229 2.586z"/></svg>