<svg id="Layer_1" viewBox="0 0 24 24" xmlns="http://www.w3.org/2000/svg" data-name="Layer 1"><path d="m24 16.578c0 2.156-1.158 4.127-3 5.191v1.231c0 .552-.448 1-1 1s-1-.448-1-1v-1.844c0-.397.235-.757.599-.916 1.458-.638 2.401-2.075 2.401-3.662 0-1.065-.41-2.27-1-3.069v.962c0 1.517-1.076 2.835-2.504 3.067-.876.141-1.767-.103-2.439-.674s-1.057-1.404-1.057-2.286v-1.069c-.59.8-1 2.004-1 3.069 0 1.586.942 3.023 2.401 3.662.364.159.599.519.599.916v1.844c0 .552-.448 1-1 1s-1-.448-1-1v-1.231c-1.842-1.063-3-3.035-3-5.191 0-2.013.952-4.161 2.316-5.222 1.028-.861 2.728-.056 2.684 1.29v1.932c-.011.605.575 1.101 1.175.985.462-.075.825-.555.825-1.093v-1.824c-.044-1.346 1.657-2.151 2.684-1.29 1.364 1.061 2.316 3.208 2.316 5.222zm-14.859-1.498c-.377-.053-.761-.081-1.141-.081-4.411.001-8 3.59-8 8.001 0 .552.448 1 1 1s1-.448 1-1c0-3.309 2.691-6 6-6 .286 0 .575.021.859.061.547.078 1.054-.303 1.131-.85.078-.547-.303-1.053-.85-1.131zm-8.641-8.08c0-.552.448-1 1-1h.5v-.5c0-3.033 2.467-5.5 5.5-5.5h1c3.033 0 5.5 2.467 5.5 5.5v.5h.5c.552 0 1 .448 1 1s-.448 1-1 1h-.5c0 3.309-2.691 6-6 6s-6-2.691-6-6h-.5c-.552 0-1-.448-1-1zm11.5 1h-8c0 2.206 1.794 4 4 4s4-1.794 4-4zm-8-2h8v-.5c0-1.758-1.308-3.204-3-3.449v1.949c0 .552-.448 1-1 1s-1-.448-1-1v-1.949c-1.692.245-3 1.691-3 3.449z"/></svg>