<svg id="Layer_1" viewBox="0 0 24 24" xmlns="http://www.w3.org/2000/svg" data-name="Layer 1"><path d="m20 16c0 .828-.672 1.5-1.5 1.5s-1.5-.672-1.5-1.5.672-1.5 1.5-1.5 1.5.672 1.5 1.5zm-10.5-13c-.828 0-1.5.672-1.5 1.5s.672 1.5 1.5 1.5 1.5-.672 1.5-1.5-.672-1.5-1.5-1.5zm10 3c.828 0 1.5-.672 1.5-1.5s-.672-1.5-1.5-1.5-1.5.672-1.5 1.5.672 1.5 1.5 1.5zm4.5-2v17c0 1.654-1.346 3-3 3h-16c-2.757 0-5-2.243-5-5v-10c0-.868.226-1.711.643-2.452.272-.486.625-.923 1.05-1.298.414-.365 1.046-.327 1.412.088.365.414.326 1.046-.088 1.412-.089.079-.173.162-.251.25.563.627 1.376 1 2.235 1v-4c-.001-2.206 1.793-4 3.999-4h11c2.206 0 4 1.794 4 4zm-17 4h4.5c0-1.657 1.343-3 3-3s3 1.343 3 3h3.5c.352 0 .686.072 1 .184v-4.184c0-1.103-.897-2-2-2h-11c-1.103 0-2 .897-2 2zm15 3c0-.551-.448-1-1-1h-16c-1.096 0-2.146-.363-3-1.003v10.003c0 1.654 1.346 3 3 3h16c.552 0 1-.449 1-1z"/></svg>