<svg id="Layer_1" viewBox="0 0 24 24" xmlns="http://www.w3.org/2000/svg" data-name="Layer 1"><path d="m23 6c-.552 0-1 .447-1 1v3h-20v-4.5c0-1.93 1.57-3.5 3.5-3.5 1.544 0 2.844 1.013 3.307 2.403-.487.365-.807.941-.807 1.597 0 1.105.895 2 2 2s2-.895 2-2c0-.805-.479-1.495-1.165-1.812-.591-2.4-2.755-4.188-5.335-4.188-3.033 0-5.5 2.468-5.5 5.5v17.5c0 .553.448 1 1 1s1-.447 1-1v-1h20v1c0 .553.448 1 1 1s1-.447 1-1v-16c0-.553-.448-1-1-1zm-12 6h2v8h-2zm-2 8h-2v-8h2zm6-8h2v8h-2zm-13 0h3v8h-3zm17 8v-8h3v8z"/></svg>