<svg id="Layer_1" viewBox="0 0 24 24" xmlns="http://www.w3.org/2000/svg" data-name="Layer 1"><path d="m12 9c-2.757 0-5 2.243-5 5s2.243 5 5 5 5-2.243 5-5-2.243-5-5-5zm0 8c-1.654 0-3-1.346-3-3s1.346-3 3-3 3 1.346 3 3-1.346 3-3 3zm11.267-5.484c-.554-.87-1.367-1.951-2.458-2.981l1.937-2.433c.344-.432.272-1.061-.159-1.405-.435-.345-1.062-.271-1.405.16l-1.921 2.413c-.635-.445-1.336-.852-2.107-1.196l.99-2.883c.179-.522-.1-1.091-.621-1.271-.527-.18-1.093.099-1.271.621l-.985 2.87c-.707-.184-1.462-.31-2.265-.369v-3.042c0-.552-.448-1-1-1s-1 .448-1 1v3.043c-.798.059-1.55.183-2.253.366l-.982-2.87c-.179-.523-.748-.802-1.27-.623s-.801.748-.623 1.27l.987 2.883c-.786.349-1.499.764-2.143 1.217l-1.925-2.409c-.346-.432-.975-.5-1.406-.157-.431.345-.501.974-.157 1.406l1.942 2.429c-1.08 1.023-1.885 2.094-2.435 2.957-.985 1.535-.986 3.44-.004 4.972 1.551 2.434 5.079 6.517 11.269 6.517s9.717-4.081 11.265-6.511c.985-1.535.986-3.441.002-4.975zm-1.688 3.897c-1.329 2.087-4.342 5.588-9.579 5.588s-8.251-3.502-9.583-5.593c-.557-.867-.556-1.945.003-2.816 1.33-2.087 4.344-5.589 9.58-5.589s8.25 3.501 9.583 5.594c.557.867.556 1.945-.004 2.817z"/></svg>