<svg id="Layer_1" viewBox="0 0 24 24" xmlns="http://www.w3.org/2000/svg" data-name="Layer 1"><path d="m8 13c2.757 0 5-2.243 5-5s-2.243-5-5-5-5 2.243-5 5 2.243 5 5 5zm0-8c1.654 0 3 1.346 3 3s-1.346 3-3 3-3-1.346-3-3 1.346-3 3-3zm8 18c0 .552-.448 1-1 1s-1-.448-1-1c0-2.674-1.758-4.943-4.179-5.716l-.947 1.421 1.093 3.99c.182.666-.405 1.305-1.201 1.305h-1.532c-.796 0-1.383-.639-1.2-1.305l1.093-3.99-.947-1.421c-2.421.773-4.179 3.042-4.179 5.716 0 .552-.448 1-1 1s-1.001-.448-1.001-1c0-4.411 3.589-8 8-8s8 3.589 8 8zm7.857-6.285c-.286.478-.906.624-1.372.343l-5.523-3.314c-.287.159-.611.257-.962.257-1.105 0-2-.895-2-2s.895-2 2-2 2 .895 2 2c0 .011-.003.021-.003.032l5.518 3.311c.309.185.482.511.485.847.002.179-.044.36-.143.525zm-1.983 3.521c-.693 1.25-1.544 2.411-2.53 3.452-.197.208-.461.312-.726.312-.247 0-.494-.091-.688-.274-.401-.38-.418-1.013-.038-1.414.87-.918 1.621-1.942 2.233-3.045.268-.483.877-.656 1.359-.39.483.268.658.876.39 1.359zm.461-12.921c.534-.13 1.059.208 1.204.741.474 1.748.46 3.558.46 3.558s0 .975-.98.975c-.008 0-.017 0-.025 0-.541 0-.986-.432-.999-.975-.026-1.045-.161-2.087-.401-3.096-.128-.538.204-1.077.741-1.204zm-4.442-5.627c-.38-.401-.363-1.034.038-1.414.401-.379 1.034-.362 1.414.038.985 1.041 1.836 2.202 2.53 3.452.268.483.094 1.091-.39 1.359-.153.085-.32.125-.484.125-.352 0-.693-.186-.875-.515-.612-1.103-1.363-2.127-2.233-3.045z"/></svg>