<svg id="Layer_1" viewBox="0 0 24 24" xmlns="http://www.w3.org/2000/svg" data-name="Layer 1"><path d="m19 2h-1v-1c0-.552-.447-1-1-1s-1 .448-1 1v1h-8v-1c0-.552-.447-1-1-1s-1 .448-1 1v1h-1c-2.757 0-5 2.243-5 5v13c0 .552.447 1 1 1s1-.448 1-1v-10h20v3c0 .552.447 1 1 1s1-.448 1-1v-6c0-2.757-2.243-5-5-5zm-17 6v-1c0-1.654 1.346-3 3-3h14c1.654 0 3 1.346 3 3v1zm8.95 9.038.445 6.142c.034.463-.333.858-.798.858-.419 0-.768-.324-.798-.742l-.265-3.66-.798 1.756c-.304.668-1.253.668-1.557 0l-.798-1.756-.265 3.66c-.03.418-.378.742-.798.742-.465 0-.832-.394-.798-.858l.445-6.142c.043-.705.472-1 .988-1 .342 0 .66.242.841.64l1.164 2.56 1.164-2.56c.181-.398.499-.64.841-.64.516 0 .945.295.988 1zm13.03 1.182c-.158-1.274-1.33-2.182-2.613-2.182h-1.567c-.442 0-.8.358-.8.8v6.4c0 .442.358.8.8.8.442 0 .8-.358.8-.8v-2.2h.784l.705 2.424c.099.342.412.576.768.576h.064c.537 0 .922-.519.765-1.033l-.74-2.43c.023-.017.024-.016.042-.029-.019.012-.031.021-.055.035.723-.508 1.168-1.386 1.047-2.362zm-2.48 1.218h-.9v-1.8h.9c.496 0 .9.404.9.9s-.404.9-.9.9zm-6.295-3.4c-.873-.001-1.575.717-1.742 1.581l-1.165 5.479c-.103.484.266.939.76.939.365 0 .68-.253.759-.61l.175-.79h2.379l.165.782c.076.36.393.617.761.617.509.026.911-.437.804-.937l-1.142-5.435c-.19-.937-.859-1.621-1.753-1.627zm-.86 5 .686-3.104c.03-.149.105-.253.176-.296l.017.006c.024.016.121.118.168.349l.641 3.044h-1.688z"/></svg>