<svg id="Layer_1" viewBox="0 0 24 24" xmlns="http://www.w3.org/2000/svg" data-name="Layer 1"><path d="m23.707 6.239c-.391.391-1.024.391-1.414 0l-3.363-3.363c-.935-.935-2.334-1.109-3.456-.548l5.353 5.353c.391.391.391 1.024 0 1.414s-1.024.391-1.414 0l-5.471-5.471-1.459 1.459 5.471 5.471c.391.391.391 1.024 0 1.414s-1.024.391-1.414 0l-5.471-5.471-1.533 1.533 5.471 5.471c.391.391.391 1.024 0 1.414s-1.024.391-1.414 0l-5.471-5.471-1.52 1.52 5.471 5.471c.391.391.391 1.024 0 1.414s-1.024.391-1.414 0l-5.471-5.471-1.459 1.459 5.471 5.471c.391.391.391 1.024 0 1.414s-1.024.391-1.414 0l-5.385-5.385c-.646 1.143-.495 2.618.478 3.591l3.363 3.363c.391.391.391 1.024 0 1.414s-1.024.391-1.414 0l-3.363-3.363c-1.949-1.948-1.949-5.12 0-7.068l11.811-11.812c1.948-1.948 5.12-1.948 7.068 0l3.363 3.363c.391.391.391 1.024 0 1.414z"/></svg>