<svg id="Layer_1" viewBox="0 0 24 24" xmlns="http://www.w3.org/2000/svg" data-name="Layer 1"><path d="m24 12c0 .553-.447 1-1 1h-2c-.553 0-1-.447-1-1s.447-1 1-1h2c.553 0 1 .447 1 1zm-3.442-3.604c.173 0 .349-.045.509-.14l1.443-.855c.476-.281.632-.896.351-1.37-.28-.475-.893-.632-1.37-.351l-1.443.855c-.476.281-.632.896-.351 1.37.187.315.52.49.861.49zm1.95 8.198-1.532-.903c-.475-.28-1.089-.123-1.369.354-.28.476-.122 1.089.354 1.369l1.532.903c.467.278 1.087.127 1.369-.354.28-.476.122-1.089-.354-1.369zm-4.508-13.094v17c0 2.763-5.657 3.5-9 3.5s-9-.737-9-3.5v-17c0-2.763 5.657-3.5 9-3.5s9 .737 9 3.5zm-15.973 0c.365.476 2.727 1.5 6.973 1.5s6.607-1.024 6.974-1.5c-.366-.476-2.728-1.5-6.974-1.5s-6.608 1.024-6.973 1.5zm13.983 16.941-.008-14.607c-1.952.88-4.923 1.165-7.001 1.165s-5.048-.286-7-1.165v14.665c.19.385 2.568 1.5 7 1.5s6.81-1.115 7.01-1.559zm-4.081-7.383c.365-.32.551-.69.553-1.101 0-.41-.184-.783-.549-1.108-.033-.03-2.339-1.586-2.339-1.586-.375-.289-.888-.346-1.332-.146-.462.207-.761.661-.761 1.155v2.002l-.41-.3c-.446-.328-1.071-.229-1.397.216-.326.446-.229 1.071.217 1.397l1.245.911-1.245.912c-.445.326-.542.952-.216 1.397.329.448.956.54 1.398.216l.409-.3v2.002c0 .494.299.948.761 1.155.425.198 1.005.154 1.335-.148l2.354-1.757c.432-.383.523-.788.523-1.061 0-.612-.437-.999-.58-1.126-.042-.037-2.055-1.3-2.055-1.3s2.059-1.404 2.09-1.432z"/></svg>