<svg id="Layer_1" viewBox="0 0 24 24" xmlns="http://www.w3.org/2000/svg" data-name="Layer 1"><path d="m19.716 16.314c-1.014 3.063-4.539 5.528-7.317 7.057-.735.404-1.561.621-2.39.629-.847-.008-1.673-.225-2.408-.629-3.467-1.906-7.599-4.974-7.601-8.763v-9.1c0-2.391 1.691-4.453 4.022-4.904 2.067-.4 4.078-.604 5.978-.604.552 0 1 .447 1 1s-.447 1-1 1c-1.773 0-3.656.192-5.598.568-1.393.269-2.403 1.505-2.403 2.94v9.099c.002 3.071 4.592 5.927 6.565 7.012.445.245.945.376 1.444.381.481-.005.981-.136 1.426-.381 2.018-1.11 5.53-3.356 6.383-5.934.173-.524.739-.807 1.263-.635.524.173.809.739.635 1.264zm-.216-10.314c0-.828-.672-1.5-1.5-1.5s-1.5.672-1.5 1.5.672 1.5 1.5 1.5 1.5-.672 1.5-1.5zm-2.5 4v2c0 .552.448 1 1 1s1-.448 1-1v-2c0-.552-.448-1-1-1s-1 .448-1 1zm1-10c-3.309 0-6 2.691-6 6 0 1.311.415 2.556 1.201 3.601.333.444.962.529 1.4.199.441-.332.531-.958.199-1.4-.523-.696-.799-1.526-.799-2.4 0-2.206 1.794-4 4-4s4 1.794 4 4c0 .874-.276 1.704-.799 2.399-.332.441-.243 1.068.199 1.4.44.332 1.068.243 1.4-.199.786-1.045 1.201-2.29 1.201-3.601 0-3.309-2.691-6-6-6zm-12.177 9h2.355c.583 0 .989-.526.756-.994-.427-.856-1.124-1.505-1.934-1.506-.811 0-1.507.65-1.933 1.507-.233.468.173.993.756.993zm-.726 4.027c.921 1.52 2.571 2.973 4.904 2.973s3.983-1.453 4.904-2.973c.321-.53-.211-1.175-.804-.996-1.263.38-2.959.971-4.1.97-1.141 0-2.837-.59-4.1-.97-.593-.178-1.125.467-.804.996z"/></svg>