<svg id="Layer_1" viewBox="0 0 24 24" xmlns="http://www.w3.org/2000/svg" data-name="Layer 1"><path d="m5.5 11c.828 0 1.5.672 1.5 1.5s-.672 1.5-1.5 1.5-1.5-.672-1.5-1.5.672-1.5 1.5-1.5zm18.5-6v4c0 .553-.448 1-1 1s-1-.447-1-1v-2h-20v6c0 1.654 1.346 3 3 3h2c.552 0 1 .447 1 1s-.448 1-1 1h-2c-2.757 0-5-2.243-5-5v-8c0-2.757 2.243-5 5-5h14c2.757 0 5 2.243 5 5zm-2 0c0-1.654-1.346-3-3-3h-14c-1.654 0-3 1.346-3 3zm2 12c0 3.859-3.14 7-7 7s-7-3.141-7-7 3.14-7 7-7 7 3.141 7 7zm-2 0c0-2.757-2.243-5-5-5s-5 2.243-5 5 2.243 5 5 5 5-2.243 5-5zm-2.293-2.707c-.391-.391-1.023-.391-1.414 0l-1.293 1.293-1.293-1.293c-.391-.391-1.023-.391-1.414 0s-.391 1.023 0 1.414l1.293 1.293-1.293 1.293c-.391.391-.391 1.023 0 1.414s1.023.391 1.414 0l1.293-1.293 1.293 1.293c.391.391 1.023.391 1.414 0s.391-1.023 0-1.414l-1.293-1.293 1.293-1.293c.391-.391.391-1.023 0-1.414z"/></svg>