<svg id="Layer_1" viewBox="0 0 24 24" xmlns="http://www.w3.org/2000/svg" data-name="Layer 1"><path d="m21.962 1c-1.017 0-1.881.758-2.011 1.762-.435 3.321-3.622 5.722-7.951 6.16v-.922c0-.553-.447-1-1-1s-1 .447-1 1v1h-2v-1c0-.553-.447-1-1-1s-1 .447-1 1v1h-2.506c-.93 0-1.805.362-2.465 1.021-.664.662-1.029 1.544-1.029 2.482 0 1.929 1.568 3.497 3.497 3.497h2.503v3h-2.937l-1.816-.937c-.597-.239-1.247.201-1.247.844v2.183c0 .643.65 1.083 1.247.844l1.813-.934h11.44c1.93 0 3.5-1.57 3.5-3.5s-1.57-3.5-3.5-3.5h-2.5v-2.921c4.329.438 7.517 2.84 7.951 6.159.13 1.005.994 1.763 2.011 1.763 1.124 0 2.038-.914 2.038-2.038v-13.925c0-1.124-.914-2.038-2.038-2.038zm-18.465 13c-.825 0-1.497-.672-1.497-1.497 0-.403.157-.782.442-1.066.282-.281.655-.437 1.055-.437h2.503v3zm4.503 5v-3h2v3zm6.5-3c.827 0 1.5.673 1.5 1.5s-.673 1.5-1.5 1.5h-2.5v-3zm-6.5-2v-3h2v3zm13.934 2.979c-.412-3.154-2.647-5.666-5.909-6.979 3.268-1.311 5.519-3.818 5.976-6.962l-.066 13.94z"/></svg>