<svg id="Layer_1" viewBox="0 0 24 24" xmlns="http://www.w3.org/2000/svg" data-name="Layer 1"><path d="m13 23c0 .553-.448 1-1 1h-7c-2.757 0-5-2.243-5-5v-14c0-2.757 2.243-5 5-5h6c2.757 0 5 2.243 5 5v3c0 .553-.448 1-1 1s-1-.447-1-1v-3c0-1.654-1.346-3-3-3h-6c-1.654 0-3 1.346-3 3v14c0 1.654 1.346 3 3 3h7c.552 0 1 .447 1 1zm-7-10h-1c-.552 0-1 .447-1 1s.448 1 1 1h1c.552 0 1-.447 1-1s-.448-1-1-1zm5 0h-1c-.552 0-1 .447-1 1s.448 1 1 1h1c.552 0 1-.447 1-1s-.448-1-1-1zm-5 4h-1c-.552 0-1 .447-1 1s.448 1 1 1h1c.552 0 1-.447 1-1s-.448-1-1-1zm5 0h-1c-.552 0-1 .447-1 1s.448 1 1 1h1c.552 0 1-.447 1-1s-.448-1-1-1zm-5-12h-1c-.552 0-1 .447-1 1s.448 1 1 1h1c.552 0 1-.447 1-1s-.448-1-1-1zm5 0h-1c-.552 0-1 .447-1 1s.448 1 1 1h1c.552 0 1-.447 1-1s-.448-1-1-1zm-5 4h-1c-.552 0-1 .447-1 1s.448 1 1 1h1c.552 0 1-.447 1-1s-.448-1-1-1zm5 0h-1c-.552 0-1 .447-1 1s.448 1 1 1h1c.552 0 1-.447 1-1s-.448-1-1-1zm12.999 5.335v3.187c0 4.029-3.763 5.857-4.917 6.322-.178.074-.388.156-.583.156-.255 0-.453-.102-.648-.206-1.138-.568-4.853-2.701-4.853-6.272v-3.187c0-1.295.826-2.439 2.055-2.848l2.5-.829c.609-.202 1.279-.201 1.89 0l2.5.829c1.229.408 2.056 1.553 2.056 2.848zm-2 0c0-.432-.275-.813-.686-.949l-2.5-.829c-.203-.068-.426-.068-.629 0l-2.5.829c-.41.136-.685.518-.685.949v3.187c0 2.281 2.629 3.889 3.545 4.379 1.031-.454 3.455-1.798 3.455-4.379z"/></svg>