<svg id="Layer_1" viewBox="0 0 24 24" xmlns="http://www.w3.org/2000/svg" data-name="Layer 1"><path d="m14 8c0-2.761-2.239-5-5-5s-5 2.239-5 5c0 2.744 2.212 4.967 4.949 4.995.43-.864 1.002-1.641 1.673-2.318-.485.219-1.048.323-1.622.323-1.114 0-1.94-.401-2.458-1.304 0 0 .881-.696 2.458-.696 1.139 0 2.215.425 2.723.724.676-.491 1.421-.892 2.222-1.181.02-.181.055-.357.055-.543zm-5 0c-.828 0-1.5-.672-1.5-1.5s.672-1.5 1.5-1.5 1.5.672 1.5 1.5-.672 1.5-1.5 1.5zm1 15c0 .553-.448 1-1 1h-4c-2.757 0-5-2.243-5-5v-14c0-2.757 2.243-5 5-5h8c2.757 0 5 2.243 5 5v2c0 .552-.448 1-1 1s-1-.448-1-1v-2c0-1.654-1.346-3-3-3h-8c-1.654 0-3 1.346-3 3v14c0 1.654 1.346 3 3 3h4c.552 0 1 .447 1 1zm7-13c-3.86 0-7 3.141-7 7s3.14 7 7 7 7-3.141 7-7-3.14-7-7-7zm0 12c-2.757 0-5-2.243-5-5s2.243-5 5-5 5 2.243 5 5-2.243 5-5 5zm-10-6c.552 0 1 .447 1 1s-.448 1-1 1h-2c-.552 0-1-.447-1-1s.448-1 1-1zm13.221-.212c.383.398.37 1.031-.029 1.414l-2.212 2.124c-.452.446-1.052.671-1.653.671s-1.204-.225-1.664-.674l-1.132-1.108c-.395-.387-.401-1.02-.015-1.414.387-.395 1.02-.401 1.414-.016l1.132 1.108c.144.141.379.142.522 0l2.223-2.134c.398-.381 1.031-.37 1.414.029z"/></svg>