<?xml version="1.0" encoding="UTF-8"?>
<svg xmlns="http://www.w3.org/2000/svg" id="Layer_1" data-name="Layer 1" viewBox="0 0 24 24">
  <path d="M12.5,7c1.93,0,3.5-1.57,3.5-3.5s-1.57-3.5-3.5-3.5-3.5,1.57-3.5,3.5,1.57,3.5,3.5,3.5Zm0-5c.827,0,1.5,.673,1.5,1.5s-.673,1.5-1.5,1.5-1.5-.673-1.5-1.5,.673-1.5,1.5-1.5ZM1.165,1.551c-.304-.461-.177-1.081,.284-1.386C1.912-.137,2.531-.011,2.835,.449l2.332,3.536,2.901,2.971,6.445,1.827,4.169-.742,3.871-1.936c.494-.245,1.095-.046,1.342,.447s.047,1.095-.447,1.342l-4,2c-.086,.043-.178,.073-.272,.09l-4.539,.808c-.02,.004-.041,.003-.061,.005l-.347,1.177c-.155,.534-.727,.833-1.242,.677-.53-.156-.833-.712-.677-1.241l.319-1.083-4.102-1.163-.561,2.094c-.141,.537-.705,.85-1.225,.707-.533-.143-.85-.691-.707-1.225l.632-2.359-2.996-3.069c-.044-.045-.084-.095-.12-.147L1.165,1.551ZM23.744,21.565c.369,.41,.335,1.043-.075,1.412-.734,.659-1.682,1.022-2.668,1.022-1.131,0-2.221-.479-3-1.235-.779,.757-1.869,1.235-3,1.235s-2.221-.479-3-1.235c-.779,.757-1.869,1.235-3,1.235s-2.221-.479-3-1.235c-.779,.757-1.869,1.235-3,1.235-.987,0-1.935-.363-2.668-1.022-.411-.369-.444-1.002-.075-1.412,.369-.41,1.001-.443,1.412-.076,.366,.329,.839,.511,1.332,.511,.89,0,1.793-.586,2.057-1.333,.323-.856,1.563-.856,1.886,0,.264,.747,1.167,1.333,2.057,1.333s1.793-.586,2.057-1.333c.323-.856,1.563-.856,1.886,0,.264,.747,1.167,1.333,2.057,1.333s1.793-.586,2.057-1.333c.323-.856,1.563-.856,1.886,0,.264,.747,1.167,1.333,2.057,1.333,.493,0,.965-.182,1.332-.511,.411-.367,1.043-.336,1.412,.076ZM.332,16.978c-.411-.369-.444-1.002-.075-1.412,.369-.41,1.001-.443,1.412-.076,.366,.329,.839,.511,1.332,.511,.89,0,1.793-.586,2.057-1.333,.323-.857,1.563-.856,1.886,0,.264,.747,1.167,1.333,2.057,1.333s1.793-.586,2.057-1.333c.323-.857,1.563-.856,1.886,0,.264,.747,1.167,1.333,2.057,1.333s1.793-.586,2.057-1.333c.323-.857,1.563-.856,1.886,0,.264,.747,1.167,1.333,2.057,1.333,.493,0,.965-.182,1.332-.511,.411-.367,1.043-.336,1.412,.076,.369,.41,.335,1.043-.075,1.412-.734,.659-1.682,1.022-2.668,1.022-1.131,0-2.221-.479-3-1.235-.779,.757-1.869,1.235-3,1.235s-2.221-.479-3-1.235c-.779,.757-1.869,1.235-3,1.235s-2.221-.479-3-1.235c-.779,.757-1.869,1.235-3,1.235-.987,0-1.935-.363-2.668-1.022Z"/>
</svg>
