<svg id="Layer_1" viewBox="0 0 24 24" xmlns="http://www.w3.org/2000/svg" data-name="Layer 1"><path d="m23.123 7.894c-1.133-1.133-3.109-1.133-4.243 0l-1.345 1.345c.225-.418.253-.943-.02-1.412l-4.266-7.11c-.558-.956-1.94-.956-2.497 0l-4.267 7.109c-.273.468-.245.992-.021 1.41l-1.342-1.342c-1.48-1.479-4.396-1.028-4.997 1.354-.275 1.091.112 2.246.908 3.042l2.701 2.701c-.301.143-.588.327-.837.576-1.194 1.132-1.152 3.204.078 4.321l2.36 2.36c1.125 1.126 2.652 1.758 4.244 1.758h2.417c.893-.001 1.34-1.081.709-1.713-.189-.189-.446-.295-.713-.294l-2.826.004c-.797.001-1.562-.315-2.126-.879l-2.729-2.729c-.388-.373-.388-1.041 0-1.414.39-.392 1.025-.391 1.415 0s1.939 1.939 1.939 1.939c.391.391 1.024.391 1.414 0 .391-.39.391-1.024 0-1.414l-6.786-6.784c-.39-.39-.39-1.024 0-1.414.377-.379 1.036-.379 1.414 0l14.4 14.4c.188.188.442.293.707.293.891 0 1.337-1.077.707-1.707l-.449-.449 2.033-2.033c1.165-1.117 1.164-3.127 0-4.243-.249-.249-.536-.433-.837-.576l2.855-2.855c1.17-1.17 1.17-3.072 0-4.242zm-12.123-4.394c0-.552.448-1 1-1s1 .448 1 1v1.5c0 .552-.448 1-1 1s-1-.448-1-1zm1 3.5c.552 0 1 .448 1 1s-.448 1-1 1-1-.448-1-1 .448-1 1-1zm-4.267 3h8.533c.255 0 .484-.069.685-.178l-4.951 4.951-4.95-4.95c.201.108.429.177.683.177zm10.543 6.982c.39-.391 1.025-.392 1.415 0 .189.189.293.439.293.707s-.104.518-.293.707l-2.033 2.033-1.414-1.414 2.033-2.033zm3.432-6.261-6.879 6.879-1.414-1.414 6.879-6.879c.378-.379 1.037-.379 1.414 0 .39.39.39 1.024 0 1.414z"/></svg>