<svg id="Layer_1" viewBox="0 0 24 24" xmlns="http://www.w3.org/2000/svg" data-name="Layer 1"><path d="m19 0h-14c-2.757 0-5 2.243-5 5v10c0 2.757 2.243 5 5 5h1.44l4.087 3.44c.42.374.949.56 1.473.56.515 0 1.026-.18 1.427-.536l4.195-3.464h1.378c2.757 0 5-2.243 5-5v-10c0-2.757-2.243-5-5-5zm3 15c0 1.654-1.346 3-3 3h-1.738c-.232 0-.458.081-.637.229l-4.499 3.72c-.077.069-.192.067-.289-.018l-4.388-3.696c-.18-.152-.408-.235-.644-.235h-1.806c-1.654 0-3-1.346-3-3v-10c0-1.654 1.346-3 3-3h14c1.654 0 3 1.346 3 3v10zm-8.5-5c0 .828-.672 1.5-1.5 1.5s-1.5-.672-1.5-1.5.672-1.5 1.5-1.5 1.5.672 1.5 1.5zm-3.75-1.983c-.999 1.131-1 2.836 0 3.967.366.414.327 1.046-.087 1.411-.412.365-1.045.328-1.412-.087-1.666-1.886-1.666-4.729 0-6.615.367-.413.997-.453 1.412-.087.414.365.453.997.087 1.411zm6-1.324c1.667 1.886 1.667 4.729 0 6.615-.367.415-1 .452-1.412.087-.414-.365-.453-.997-.087-1.411 1-1.131 1-2.836 0-3.967-.366-.414-.327-1.046.087-1.411.413-.366 1.045-.326 1.412.087zm-9-1.321c-2.332 2.639-2.332 6.619 0 9.258.366.414.327 1.046-.087 1.411-.412.365-1.045.328-1.412-.087-2.999-3.394-2.999-8.513 0-11.906.366-.414.998-.452 1.412-.087s.453.997.087 1.411zm12.001-1.324c2.999 3.394 2.999 8.513 0 11.906-.367.415-.999.452-1.412.087-.414-.365-.453-.997-.087-1.411 2.332-2.639 2.332-6.619 0-9.258-.366-.414-.327-1.046.087-1.411s1.046-.327 1.412.087z"/></svg>