<svg id="Layer_1" viewBox="0 0 24 24" xmlns="http://www.w3.org/2000/svg" data-name="Layer 1"><path d="m20.058 12.946c.586.586.586 1.536 0 2.121-.586.586-1.536.586-2.121 0-.586-.586-.586-1.536 0-2.121s1.536-.586 2.121 0zm2.328 5.45c-1.169 1.168-2.786 1.735-4.413 1.585l-3.133 3.133c-.565.565-1.318.877-2.119.879h-1.713c-1.098 0-1.995-.894-2-1.991l-.009-1.987c-.001-.403.154-.782.438-1.066.283-.285.661-.441 1.062-.441h.49l.004-.511c.006-.821.679-1.489 1.5-1.489h.761v-.393c-.71-2.31.136-4.763 2.138-6.149 1.803-1.25 4.243-1.288 6.072-.094 1.419.927 2.332 2.409 2.503 4.065.172 1.657-.404 3.283-1.582 4.46zm-.408-4.253c-.111-1.07-.682-1.993-1.608-2.598-1.155-.754-2.697-.729-3.839.062-1.307.906-1.841 2.523-1.33 4.026.035.104.053.213.053.322v1.55c0 .553-.448 1-1 1h-1.265l-.007 1.008c-.004.549-.451.992-1 .992h-.98l.006 1.485h1.711c.267 0 .519-.104.707-.292l3.487-3.487c.236-.236.575-.339.901-.274 1.149.23 2.331-.13 3.158-.956.749-.749 1.116-1.784 1.006-2.839zm-15.979 7.857h-1c-1.654 0-3-1.346-3-3v-9.276c0-.999.494-1.928 1.322-2.487l7.001-4.724c1.02-.688 2.337-.688 3.356 0l7 4.724c.19.128.364.277.519.443.375.404 1.008.428 1.413.052s.428-1.008.052-1.413c-.258-.278-.549-.527-.865-.74l-7.001-4.724c-1.698-1.146-3.894-1.146-5.593 0l-7 4.724c-1.379.931-2.203 2.48-2.203 4.145v9.276c0 2.757 2.243 5 5 5h1c.552 0 1-.447 1-1s-.448-1-1-1zm7-13c0-.552-.448-1-1-1-2.404 0-4.664.936-6.364 2.636-.391.391-.391 1.023 0 1.414s1.023.391 1.414 0c1.322-1.322 3.08-2.05 4.95-2.05.552 0 1-.448 1-1zm-3.121 5.878c.199-.198.423-.368.667-.503.483-.269.658-.877.39-1.359-.268-.484-.875-.659-1.359-.39-.408.226-.782.508-1.113.84-.391.391-.39 1.023 0 1.414.391.389 1.024.39 1.414-.002z"/></svg>