<svg id="Layer_1" viewBox="0 0 24 24" xmlns="http://www.w3.org/2000/svg" data-name="Layer 1"><path d="m11 3c0-.552-.448-1-1-1s-1 .448-1 1v4c0 .352-.185.678-.487.858l-5.958 3.555c-.355.195-.555.531-.555.897-.015.457.481.811.908.652l4.809-1.422c.301-.09.63-.03.882.158s.401.485.401.801v5.882c0 .335-.168.648-.448.834l-2.104 1.394c-.28.186-.448.498-.448.834.068.456.295.62.748.521l1.924-.669c.522-.185 1.092.095 1.273.616.182.521-.094 1.091-.616 1.272l-1.906.663c-.278.103-.57.153-.863.153-1.364.03-2.591-1.183-2.56-2.557 0-1.008.502-1.943 1.342-2.501l1.658-1.098v-4.007l-3.489 1.031c-1.633.6-3.57-.797-3.511-2.559 0-1.099.599-2.107 1.563-2.634l5.437-3.244v-3.43c0-1.657 1.343-3 3-3s3 1.343 3 3v3.459l2.136 1.398c.462.303.591.923.289 1.385-.303.462-.922.592-1.385.289l-2.588-1.694c-.282-.185-.453-.5-.453-.837v-4zm7.991 13.064-1.906 1.828c-.145.143-.379.142-.523 0l-.785-.769c-.394-.386-1.026-.378-1.414.016-.386.395-.379 1.027.016 1.414l.785.769c.46.449 1.062.674 1.663.674s1.201-.225 1.653-.671l1.896-1.818c.398-.382.412-1.015.029-1.414-.383-.398-1.015-.41-1.414-.029zm5.009 1.436c0 3.584-2.916 6.5-6.5 6.5s-6.5-2.916-6.5-6.5 2.916-6.5 6.5-6.5 6.5 2.916 6.5 6.5zm-2 0c0-2.481-2.019-4.5-4.5-4.5s-4.5 2.019-4.5 4.5 2.019 4.5 4.5 4.5 4.5-2.019 4.5-4.5z"/></svg>