<svg id="Layer_1" viewBox="0 0 24 24" xmlns="http://www.w3.org/2000/svg" data-name="Layer 1"><path d="m23.948 11.182c-.176-.523-.743-.805-1.267-.63-1.126.378-2.045.607-2.84.744 2.313-1.466 2.609-3.406 2.574-4.441-.025-.751-.45-1.442-1.108-1.803-.739-.406-2.117-.871-3.867-.284.586-.609 1.288-1.261 2.189-1.99.43-.347.496-.977.148-1.406-.347-.429-.976-.497-1.406-.148-3.096 2.503-4.248 4.311-5.181 6.004-.364-.165-.813-.265-1.206-.258-.43 0-.853.096-1.245.267-.167-.877-.255-1.611-.255-2.178 0-2.119 1.191-2.904 1.43-3.04.042-.024.098-.024.139 0 .233.133.446.302.631.502.375.405 1.008.428 1.413.053.405-.376.429-1.008.054-1.414-.324-.35-.697-.646-1.109-.88-.653-.371-1.464-.371-2.117 0-1.016.578-2.088 1.855-2.367 3.792-.258-.896-.463-1.913-.563-3.127-.044-.551-.519-.958-1.077-.916-.551.045-.96.528-.915 1.078.35 4.27 1.821 6.615 2.921 8.328-.05.227-.082.46-.08.698 0 .076.004.153.012.232-.073.04-.144.083-.212.129-.176.119-.335.254-.479.4-1.268-.436-2.245-.861-2.892-1.262-1.8-1.118-1.838-2.544-1.828-2.819.001-.047.031-.095.073-.117.236-.128.491-.22.757-.271.542-.104.897-.629.792-1.171-.104-.543-.629-.9-1.171-.792-.468.09-.917.251-1.333.478-.661.359-1.088 1.048-1.117 1.798-.053 1.357.648 3.277 2.771 4.595.377.234.841.471 1.374.708-.515.229-.972.458-1.339.684-2.338 1.441-2.665 3.375-2.652 4.4.011.815.458 1.555 1.166 1.932.482.256 1.235.543 2.186.543.851 0 1.859-.23 2.974-.917.191-.118.393-.257.603-.41-.021.259-.032.504-.032.729 0 3.091 1.869 4.395 2.441 4.721.327.186.693.279 1.059.279s.732-.093 1.059-.279c.572-.326 2.441-1.628 2.441-4.721 0-.208-.012-.437-.03-.674.189.14.374.272.547.381 1.176.744 2.248.974 3.125.974 1.07 0 1.85-.344 2.17-.514.662-.354 1.096-1.039 1.131-1.788.019-.387-.013-1-.27-1.716-.187-.521-.761-.791-1.278-.604-.52.186-.791.758-.604 1.278.153.429.163.777.154.948-.002.048-.032.095-.073.117-.342.182-1.585.689-3.285-.385-.474-.3-1.042-.762-1.687-1.363.479-.342.862-.81 1.081-1.364.128-.258.197-.537.208-.817.277.007.555.014.844.014 1.45 0 3.123-.146 5.784-1.039.523-.176.806-.743.63-1.267zm-3.604-4.377c.042.022.071.07.073.119.025.75-.249 1.832-1.704 2.726-.648.398-1.628.818-2.9 1.249-.144-.147-.298-.286-.473-.404-.068-.046-.139-.09-.213-.13.009-.084.013-.167.013-.248 0-.411-.09-.806-.242-1.172.881-.848 1.639-1.478 2.244-1.85 1.455-.894 2.545-.652 3.202-.289zm-8.359 2.164c.738 0 1.157.523 1.155 1.148 0 .634-1.147 1.912-1.147 1.912s.549-.029 1.119-.029c.434 0 .88-.003 1.107.151.413.28.575.779.456 1.236l.023.032c-.01-.004-.022-.008-.031-.012-.115.522-.606.842-1.104.842-.219 0-.44-.062-.63-.197-.525-.355-.94-2.022-.94-2.022s-.416 1.667-.94 2.022c-.197.133-.421.197-.642.197-.368 0-.729-.177-.951-.504-.355-.525-.218-1.238.307-1.593.227-.154.673-.151 1.107-.151.57 0 1.119.029 1.119.029s-1.147-1.279-1.147-1.912c-.005-.633.525-1.148 1.14-1.148zm-5.105 8.01c-1.436.886-2.518.656-3.172.31-.092-.049-.104-.15-.104-.192-.01-.734.278-1.794 1.702-2.672.484-.298 1.162-.609 1.996-.927.06.475.216.943.502 1.366.21.311.483.557.778.77-.65.593-1.224 1.05-1.701 1.344zm5.189 5.003c-.041.023-.098.023-.139 0-.336-.191-1.431-.97-1.431-2.982 0-.694.134-1.643.384-2.799.005-.005.006-.012.011-.017.383-.06.757-.165 1.094-.362.336.201.723.335 1.13.393.248 1.15.38 2.094.38 2.785 0 2.013-1.095 2.792-1.431 2.982z"/></svg>