<svg id="Layer_1" viewBox="0 0 24 24" xmlns="http://www.w3.org/2000/svg" data-name="Layer 1"><path d="m10.759 4.004c-.333-.62-.976-1.004-1.679-1.004h-1.455c.034-.069.113-.211.139-.283.236-.615.154-1.307-.219-1.85s-.989-.867-1.648-.867h-1.894c-.853 0-1.612.541-1.875 1.306l-2.058 5.215c-.178.588-.07 1.209.297 1.703.366.493.929.776 1.543.776h1.691l-.539 1.623c-.256.9.118 1.804 1.002 2.206s1.805.148 2.342-.634l4.261-6.236c.389-.586.424-1.335.092-1.955zm-5.485 6.301.662-1.99c.102-.305.05-.64-.138-.9s-.49-.415-.811-.415l-2.972.031 1.988-5.031h1.888l-.793 1.543c-.16.31-.146.681.036.978s.505.479.854.479h2.947l-3.66 5.306zm18.726 2.694c0 .97-.701 2-2 2h-.33l-.219 1.656c-.328 2.477-2.459 4.344-4.957 4.344h-.494c0 1.654-1.346 3-3 3h-7c-1.654 0-3-1.346-3-3v-.971c0-.896-.263-1.731-.739-2.354-.751-.982-1.327-2.071-1.711-3.236-.173-.525.112-1.09.637-1.263.526-.175 1.09.113 1.263.637.314.953.785 1.843 1.399 2.646.743.97 1.151 2.238 1.151 3.57v.971c0 .551.449 1 1 1h7c.552 0 1-.449 1-1v-1c0-.552.447-1 1-1h1.494c1.499 0 2.777-1.121 2.975-2.607l.334-2.524c.065-.497.489-.869.991-.869h1.206c-.082-.807-2.458-5.721-3.777-7.353-1.537-2.052-3.833-3.354-6.322-3.602-.55-.055-.951-.545-.896-1.094.055-.55.549-.954 1.094-.896 3.044.304 5.852 1.895 7.702 4.364 1.268 1.567 4.199 7.162 4.199 8.582z"/></svg>