<svg id="Layer_1" viewBox="0 0 24 24" xmlns="http://www.w3.org/2000/svg" data-name="Layer 1"><path d="m21 23c0 .553-.448 1-1 1h-16c-.552 0-1-.447-1-1s.448-1 1-1h16c.552 0 1 .447 1 1zm3-20v10.101c0 2.137-.832 4.146-2.343 5.656l-.949.95c-.188.188-.442.293-.708.293h-16c-.265 0-.52-.105-.708-.293l-.95-.95c-1.511-1.511-2.343-3.52-2.343-5.656v-10.101c.001-1.654 1.347-3 3.001-3s3 1.346 3 3v5.184c.266-.094.542-.164.832-.18.795-.041 1.568.228 2.164.762l2.99 2.775 3.008-2.768c.605-.543 1.373-.809 2.173-.77.29.016.566.086.832.18v-5.183c0-1.654 1.346-3 3-3s3 1.346 3 3zm-19.585 15h7.585v-1.56c0-1.395-.588-2.735-1.614-3.679l-2.735-2.516c-.375-.354-1.057-.319-1.397.085-.329.367-.337.928-.021 1.306l2.57 2.67c.383.398.371 1.031-.028 1.414-.397.383-1.03.371-1.414-.027l-2.616-2.721c-.506-.582-.686-1.277-.747-1.973v-7.999c0-.552-.449-1-1-1s-1 .448-1 1v10.101c0 1.603.624 3.109 1.757 4.242l.657.657zm17.585-15c0-.552-.449-1-1-1s-1 .448-1 1v8c-.036.683-.225 1.368-.701 1.922l-2.578 2.685c-.384.398-1.016.41-1.414.027s-.41-1.016-.027-1.414l2.533-2.634c.282-.352.242-.912-.066-1.255-.35-.408-1.011-.438-1.406-.077l-3.164 2.911c.53 1.001.824 2.124.824 3.276v1.56h5.585l.657-.657c1.134-1.133 1.758-2.64 1.758-4.242v-10.102z"/></svg>