<svg id="Layer_1" viewBox="0 0 24 24" xmlns="http://www.w3.org/2000/svg" data-name="Layer 1"><path d="m5 14c-2.757 0-5 2.243-5 5s2.243 5 5 5 5-2.243 5-5-2.243-5-5-5zm0 8c-1.654 0-3-1.346-3-3s1.346-3 3-3 3 1.346 3 3-1.346 3-3 3zm14.24-7.976-2.263-3.66c-.128-.213.007-.364.262-.364h1.76c.552 0 1-.447 1-1s-.448-1-1-1h-1.674c-.166 0-.328.023-.486.056l-3.656-1.678c-1.417-.789-3.231-.288-4.056 1.124l-1.19 2.116c-.446.733-.558 1.624-.305 2.444.245.794.809 1.451 1.555 1.813l1.812 1.169v3.955c0 .553.448 1 1 1s1-.447 1-1v-3.955c0-.684-.343-1.312-.916-1.68 0 0-1.952-1.256-1.997-1.276-.265-.119-.458-.339-.543-.616-.085-.276-.049-.565.119-.844l1.2-2.133c.273-.467.879-.63 1.417-.336l2.867 1.318c-.219.557-.254 1.239.039 1.792l1.921 3.107c-1.82.748-3.107 2.536-3.107 4.622 0 2.757 2.243 5 5 5s5-2.243 5-5c0-2.675-2.117-4.848-4.76-4.976zm-.24 7.976c-1.654 0-3-1.346-3-3s1.346-3 3-3 3 1.346 3 3-1.346 3-3 3zm-8-19.5c0-1.381 1.119-2.5 2.5-2.5s2.5 1.119 2.5 2.5-1.119 2.5-2.5 2.5-2.5-1.119-2.5-2.5z"/></svg>