<svg id="Layer_1" viewBox="0 0 24 24" xmlns="http://www.w3.org/2000/svg" data-name="Layer 1"><path d="m12 11c-1.87 0-3.627.728-4.95 2.05-.391.391-1.023.391-1.414 0s-.391-1.023 0-1.414c1.7-1.7 3.96-2.636 6.364-2.636.552 0 1 .448 1 1s-.448 1-1 1zm9.899-2.899c.391.391 1.023.391 1.414 0s.391-1.023 0-1.414c-3.021-3.022-7.039-4.687-11.313-4.687s-8.292 1.665-11.313 4.687c-.391.391-.391 1.023 0 1.414s1.023.391 1.414 0c2.645-2.644 6.16-4.101 9.899-4.101s7.255 1.457 9.899 4.101zm2.101 9.899v2c0 2.206-1.794 4-4 4h-4c-2.206 0-4-1.794-4-4-1.105 0-2-.895-2-2s.895-2 2-2c.179 0 .35.031.515.076.351-.632.861-1.155 1.485-1.519v-1.556c0-2.206 1.794-4 4-4s4 1.794 4 4v1.556c1.19.694 2 1.97 2 3.444zm-8-4h4v-1c0-1.103-.897-2-2-2s-2 .897-2 2zm6 4c0-1.103-.897-2-2-2h-4c-1.103 0-2 .897-2 2v2c0 1.103.897 2 2 2h4c1.103 0 2-.897 2-2zm-4-.5c-.828 0-1.5.672-1.5 1.5s.672 1.5 1.5 1.5 1.5-.672 1.5-1.5-.672-1.5-1.5-1.5z"/></svg>