<svg id="Layer_1" viewBox="0 0 24 24" xmlns="http://www.w3.org/2000/svg" data-name="Layer 1"><path d="m8.279 4.193c-.383-.398-.37-1.031.027-1.414l2.33-2.239c.353-.373.787-.54 1.364-.54s.946.197 1.294.554l2.386 2.213c.405.375.429 1.008.054 1.413-.376.405-1.01.428-1.413.053l-1.32-1.225v2.992c0 .552-.447 1-1 1s-1-.448-1-1v-3.036l-1.307 1.256c-.399.383-1.032.371-1.414-.027zm-5.279 4.807c0 .552.447 1 1 1s1-.448 1-1v-2.992l1.32 1.225c.403.375 1.037.353 1.413-.053.375-.405.352-1.038-.054-1.413l-2.386-2.213c-.716-.714-1.974-.699-2.658-.014l-2.328 2.239c-.397.383-.41 1.016-.027 1.414.383.397 1.015.41 1.414.027l1.307-1.256v3.036zm20.68-3.233-2.386-2.213c-.347-.357-.64-.554-1.294-.554s-1.011.166-1.364.54l-2.329 2.24c-.397.383-.41 1.016-.027 1.414.382.397 1.015.41 1.414.027l1.307-1.256v3.036c0 .552.447 1 1 1s1-.448 1-1v-2.992l1.32 1.225c.403.375 1.037.353 1.413-.053.375-.405.352-1.038-.054-1.413zm-2.68 9.733v4c0 2.481-2.019 4.5-4.5 4.5h-9c-2.481 0-4.5-2.019-4.5-4.5v-4c0-2.481 2.019-4.5 4.5-4.5h1.051c.232-1.14 1.242-2 2.449-2h2c1.208 0 2.217.86 2.449 2h1.051c2.481 0 4.5 2.019 4.5 4.5zm-15.949-.5h13.899c-.232-1.14-1.242-2-2.449-2h-9.001c-1.208 0-2.217.86-2.449 2zm13.949 2h-6v1c0 .552-.448 1-1 1-.552 0-1-.448-1-1v-1h-6v2.5c0 1.381 1.119 2.5 2.5 2.5h9c1.381 0 2.5-1.119 2.5-2.5z"/></svg>