<svg id="Layer_1" viewBox="0 0 24 24" xmlns="http://www.w3.org/2000/svg" data-name="Layer 1"><path d="m24 12.34v6.66c0 2.757-2.243 5-5 5h-5.917c-5.058 0-9.549-2.5-11.72-6.525-.262-.486-.081-1.093.406-1.354.486-.264 1.093-.08 1.355.405 1.821 3.377 5.637 5.475 9.959 5.475h5.917c1.654 0 3-1.346 3-3v-6.66c0-5.431-4.085-9.962-9.299-10.315-.235-.017-.469-.024-.701-.024-.552 0-1-.447-1-1s.448-1 1-1c.277 0 .555.01.836.028 6.26.426 11.164 5.833 11.164 12.312zm-18.5-1.84c.828 0 1.5-.672 1.5-1.5s-.672-1.5-1.5-1.5-1.5.672-1.5 1.5.672 1.5 1.5 1.5zm-1.5 3.5c-2.206 0-4-1.794-4-4v-2c0-1.474.81-2.75 2-3.444v-1.056c0-1.93 1.57-3.5 3.5-3.5s3.5 1.57 3.5 3.5v1.056c1.19.694 2 1.97 2 3.444v2c0 2.206-1.794 4-4 4zm0-10h3v-.5c0-.827-.673-1.5-1.5-1.5s-1.5.673-1.5 1.5zm0 8h3c1.103 0 2-.897 2-2v-2c0-1.103-.897-2-2-2h-3c-1.103 0-2 .897-2 2v2c0 1.103.897 2 2 2z"/></svg>