<svg id="Layer_1" viewBox="0 0 24 24" xmlns="http://www.w3.org/2000/svg" data-name="Layer 1"><path d="m23 20h-8.184c-.302-.847-.969-1.514-1.816-1.816v-3.184c0-.552-.448-1-1-1s-1 .448-1 1v3.184c-.847.302-1.514.969-1.816 1.816h-8.184c-.552 0-1 .448-1 1s.448 1 1 1h8.184c.414 1.161 1.514 2 2.816 2s2.402-.839 2.816-2h8.184c.552 0 1-.448 1-1s-.448-1-1-1zm-11 2c-.551 0-1-.449-1-1s.449-1 1-1 1 .449 1 1-.449 1-1 1zm12-17v5c0 2.757-2.243 5-5 5h-2c-.552 0-1-.448-1-1s.448-1 1-1h2c1.654 0 3-1.346 3-3v-1h-3c-.552 0-1-.448-1-1s.448-1 1-1h3v-2c0-1.654-1.346-3-3-3h-1v3c0 .552-.448 1-1 1s-1-.448-1-1v-3h-8v3c0 .552-.448 1-1 1s-1-.448-1-1v-3h-1c-1.654 0-3 1.346-3 3v2h3c.552 0 1 .448 1 1s-.448 1-1 1h-3v1c0 1.654 1.346 3 3 3h2c.552 0 1 .448 1 1s-.448 1-1 1h-2c-2.757 0-5-2.243-5-5v-5c0-2.757 2.243-5 5-5h14c2.757 0 5 2.243 5 5zm-8 4c0-1.94-1.92-3.6-3.286-4.793-.418-.365-1.068-.217-1.286.293-.589 1.384-.566 3.167-1.241 3.167-.189 0-.388-.304-.548-.628-.174-.354-.664-.397-.899-.079-.419.566-.742 1.24-.742 2.04 0 2.209 1.791 4 4 4s4-1.791 4-4zm-4.884.867.884-.884.884.884c.488.489.488 1.279 0 1.767-.244.244-.564.366-.883.366-.32 0-.64-.122-.884-.366-.488-.489-.488-1.28 0-1.767z"/></svg>