<svg id="Layer_1" viewBox="0 0 24 24" xmlns="http://www.w3.org/2000/svg" data-name="Layer 1"><path d="m10 2c0-1.105.895-2 2-2s2 .895 2 2-.895 2-2 2-2-.895-2-2zm11.7 11h-.7c-.552 0-1 .448-1 1v6c0 .552.448 1 1 1h.7c1.269 0 2.3-1.031 2.3-2.3v1.3c0 2.209-1.791 4-4 4h-16c-2.209 0-4-1.791-4-4v-1c0 1.103.897 2 2 2 .938 0 1.761-.666 1.956-1.583.092-.432-.184-.857-.615-.949-.433-.089-.856.184-.949.616-.039.183-.204.316-.392.316-.221 0-.4-.18-.4-.4v-4c0-.221.18-.4.4-.4.192 0 .362.143.395.333.075.436.49.73.924.654.436-.074.729-.488.653-.923-.164-.964-.993-1.663-1.972-1.663-1.103 0-2 .897-2 2v-1c0-2.045 1.541-3.713 3.522-3.952l4.926-5.234c.38-.402 1.012-.421 1.414-.042.402.378.421 1.011.043 1.414l-3.59 3.814h11.37l-3.59-3.814c-.378-.402-.359-1.035.043-1.414s1.033-.36 1.414.042l4.926 5.234c1.981.239 3.522 1.906 3.522 3.952v1.3c0-1.269-1.031-2.3-2.3-2.3zm-14.7 7.2c0-.531-.26-.8-.9-.8v-5.601c0-.442-.358-.8-.8-.8s-.8.358-.8.8v6.4c0 .442.358.8.8.8h.9c.442 0 .8-.269.8-.8zm4.5-5.2c0-1.103-.897-2-2-2s-2 .897-2 2v4c0 1.103.897 2 2 2s2-.897 2-2zm4.5 3.781c0-1.38-.908-2.115-1.571-2.651-.598-.483-.839-.752-.839-1.242 0-.124.214-.289.448-.289.118 0 .258.042.404.122.342.195.742.115.985-.182.347-.336.297-.918-.116-1.167-.346-.208-.771-.373-1.25-.373-.013 0-.026 0-.04 0-1.101 0-2.031.866-2.031 1.889 0 1.276.763 1.945 1.433 2.486.624.505.978.819.978 1.407 0 .25-.204.621-.643.621-.167 0-.329-.036-.478-.103-.337-.165-.7-.079-.943.191-.381.333-.318.954.13 1.191.393.209.836.321 1.291.321 1.385 0 2.242-1.153 2.242-2.221zm2.1-2.581v-1.6c.567 0 .903-.316.9-.8 0-.442-.358-.8-.8-.8h-.7c-.552 0-1 .448-1 1v6c0 .552.448 1 1 1h.7c.442 0 .8-.358.8-.8.003-.484-.333-.8-.9-.8v-1.6c.528 0 .903-.316.9-.8.003-.484-.385-.8-.9-.8zm3.5-1.549v4.801h.101c.386 0 .7-.314.7-.7v-3.4c0-.386-.314-.7-.7-.7-.108 0-.066 0-.101 0zm-12.1-.051c-.221 0-.4.179-.4.4v4c0 .221.179.4.4.4s.4-.179.4-.4v-4c0-.221-.179-.4-.4-.4z"/></svg>