<svg id="Layer_1" viewBox="0 0 24 24" xmlns="http://www.w3.org/2000/svg" data-name="Layer 1"><path d="m23 16v-3.449c.001-4.852-3.376-9.199-8.186-10.391-.723-.716-1.717-1.16-2.814-1.16s-2.09.444-2.814 1.16c-4.81 1.192-8.187 5.539-8.186 10.391v3.449c-.552 0-1 .448-1 1s.448 1 1 1h.979l1.112 1.587c1.495 2.137 3.945 3.413 6.554 3.413h4.711c2.608 0 5.059-1.276 6.554-3.412l1.112-1.588h.979c.552 0 1-.448 1-1s-.448-1-1-1zm-20-3.449c0-3.377 2.004-6.408 5.031-7.86-.008.102-.031.199-.031.302v7.006c0 .552.448 1 1 1s1-.448 1-1v-7.006c0-1.099.897-1.994 2-1.994s2 .895 2 1.994v7.006c0 .552.448 1 1 1s1-.448 1-1v-7.006c0-.104-.023-.201-.031-.302 3.027 1.452 5.031 4.483 5.031 7.86v3.449h-18zm11.355 8.449h-4.711c-1.957 0-3.794-.957-4.915-2.56l-.308-.44h15.158l-.309.441c-1.121 1.603-2.958 2.559-4.915 2.559z"/></svg>