<svg id="Layer_1" viewBox="0 0 24 24" xmlns="http://www.w3.org/2000/svg" data-name="Layer 1"><path d="m19 0h-14c-2.757 0-5 2.243-5 5v10c0 2.757 2.243 5 5 5 0 2.206 1.794 4 4 4h6c2.206 0 4-1.794 4-4 2.757 0 5-2.243 5-5v-10c0-2.757-2.243-5-5-5zm-2 20c0 1.103-.897 2-2 2h-6c-1.103 0-2-.897-2-2v-4h2.55c-.033.162-.05.329-.05.5 0 1.381 1.119 2.5 2.5 2.5s2.5-1.119 2.5-2.5c0-.171-.018-.338-.05-.5h2.55zm5-5c0 1.654-1.346 3-3 3v-3c0-.553-.448-1-1-1h-12c-.552 0-1 .447-1 1v3c-1.654 0-3-1.346-3-3v-10c0-1.654 1.346-3 3-3h14c1.654 0 3 1.346 3 3zm-12-11h-4c-1.103 0-2 .897-2 2v4c0 1.103.897 2 2 2h4c1.103 0 2-.897 2-2v-4c0-1.103-.897-2-2-2zm-4 6v-4h4v4s-4 0-4 0zm10-4c0 .828-.672 1.5-1.5 1.5s-1.5-.672-1.5-1.5.672-1.5 1.5-1.5 1.5.672 1.5 1.5zm4 0c0 .828-.672 1.5-1.5 1.5s-1.5-.672-1.5-1.5.672-1.5 1.5-1.5 1.5.672 1.5 1.5zm-4 4c0 .828-.672 1.5-1.5 1.5s-1.5-.672-1.5-1.5.672-1.5 1.5-1.5 1.5.672 1.5 1.5zm4 0c0 .828-.672 1.5-1.5 1.5s-1.5-.672-1.5-1.5.672-1.5 1.5-1.5 1.5.672 1.5 1.5z"/></svg>