<svg id="Layer_1" viewBox="0 0 24 24" xmlns="http://www.w3.org/2000/svg" data-name="Layer 1"><path d="m6 17.5c0 .552-.448 1-1 1s-1-.448-1-1 .448-1 1-1 1 .448 1 1zm1 1.5c-.552 0-1 .448-1 1s.448 1 1 1 1-.448 1-1-.448-1-1-1zm1-3c-.552 0-1 .448-1 1s.448 1 1 1 1-.448 1-1-.448-1-1-1zm16-7.5v12c0 1.929-1.569 3.499-3.498 3.5h-7.002c-.552 0-1-.448-1-1s.448-1 1-1h3.838c-.217-.455-.338-.963-.338-1.5v-12c0-.539.133-1.044.351-1.5h-7.351c-.847 0-1.604.536-1.886 1.333-.183.525-.769.794-1.276.61-.521-.184-.794-.755-.61-1.276.563-1.595 2.08-2.667 3.772-2.667h4.618l.297-2.373c.187-1.498 1.467-2.627 2.977-2.627h3.108c.553 0 1 .448 1 1s-.447 1-1 1h-3.108c-.503 0-.93.376-.992.875l-.266 2.125h3.867c1.93 0 3.5 1.57 3.5 3.5zm-2 0c0-.827-.673-1.5-1.5-1.5s-1.5.673-1.5 1.5v12c0 .827.673 1.5 1.5 1.5s1.5-.673 1.5-1.5zm-10 9.5c0 3.309-2.691 6-6 6s-6-2.691-6-6c0-2.863 2.016-5.259 4.702-5.855-.099-.264-.207-.501-.303-.687-.253-.491-.061-1.094.43-1.347.49-.254 1.093-.061 1.347.43.146.283.312.652.459 1.074.131-.242.282-.476.482-.676.567-.567 1.381-.839 1.984-.93.519-.078.968.371.89.89-.09.595-.359 1.395-.912 1.961 1.746 1.05 2.921 2.958 2.921 5.14zm-2 0c0-2.206-1.794-4-4-4s-4 1.794-4 4 1.794 4 4 4 4-1.794 4-4z"/></svg>