<?xml version="1.0" encoding="UTF-8"?>
<svg xmlns="http://www.w3.org/2000/svg" id="Layer_1" data-name="Layer 1" viewBox="0 0 24 24">
  <path d="M23.849,20.471l-3.119-4.999c-1.747-2.8-4.76-4.472-8.061-4.472H1c-.553,0-1,.448-1,1s.447,1,1,1H7v7.5c0,1.93,1.57,3.5,3.5,3.5h4c1.93,0,3.5-1.57,3.5-3.5v-5.263c.383,.39,.735,.816,1.032,1.293l3.119,4.999c.294,.472,.916,.609,1.378,.319,.469-.293,.611-.909,.319-1.378Zm-11.18-7.471c.639,0,1.264,.081,1.865,.234l-5.534,6.928v-7.162h3.669Zm1.831,9h-4c-.128,0-.249-.021-.368-.051l5.868-7.347v5.898c0,.827-.673,1.5-1.5,1.5ZM7.5,2.989v2.511c0,2.481,2.019,4.5,4.5,4.5s4.5-2.019,4.5-4.5l.006-2.5,.431-.826c.27-.787-.287-1.615-1.118-1.661L8.74,.003c-1.131-.063-1.986,1.008-1.675,2.097l.435,.889Zm7,2.511c0,1.378-1.121,2.5-2.5,2.5s-2.5-1.122-2.5-2.5v-1.5h5v1.5Z"/>
</svg>
