<?xml version="1.0" encoding="UTF-8"?>
<svg xmlns="http://www.w3.org/2000/svg" id="Layer_1" data-name="Layer 1" viewBox="0 0 24 24">
  <path d="M7,2.5c0-1.381,1.119-2.5,2.5-2.5s2.5,1.119,2.5,2.5-1.119,2.5-2.5,2.5-2.5-1.119-2.5-2.5Zm7.515,9.843l-1.567-.941c-.094-.056-.165-.14-.206-.243l-1.271-3.177c-.482-1.204-1.632-1.982-2.929-1.982-.499,.022-1.028-.043-1.511,.081-.848,.109-1.675,.331-2.467,.681l-2.102,.928c-.836,.382-1.443,1.112-1.665,2.002L.03,12.757c-.135,.536,.191,1.079,.728,1.213,.533,.134,1.078-.192,1.212-.728l.768-3.065c.073-.297,.276-.54,.544-.663l1.693-.748-.891,4.23c-.261,1.112,.123,2.257,.993,2.983l2.747,2.333c.112,.095,.177,.234,.177,.381v4.306c0,.552,.447,1,1,1s1-.448,1-1v-4.306c0-.735-.321-1.43-.882-1.905l-2.754-2.339c-.293-.244-.421-.626-.329-1.019l1.052-4.992c.044-.189,.178-.334,.35-.4,.352-.041,.747-.042,1.105-.04,.196,0,.378,.059,.543,.147-.02,.05-1.12,5.16-1.12,5.16-.114,.54,.231,1.071,.772,1.185,.527,.115,1.073-.228,1.185-.772l.583-2.765,.379,.948c.202,.504,.57,.936,1.035,1.214l1.566,.94c.466,.281,1.086,.135,1.372-.343,.284-.474,.131-1.088-.343-1.372Zm8.899-1.721l-2.293-2.293c-.391-.391-1.023-.391-1.414,0s-.391,1.023,0,1.414l1.257,1.257h-3.964c-.553,0-1,.448-1,1s.447,1,1,1h4.036l-1.329,1.329c-.391,.391-.391,1.023,0,1.414s1.023,.391,1.414,0l2.293-2.293c.378-.378,.586-.88,.586-1.414s-.208-1.037-.586-1.414ZM4.357,17.568c-.538-.136-1.079,.192-1.212,.728l-1.115,4.461c-.135,.536,.191,1.079,.728,1.213,.522,.134,1.08-.188,1.212-.728l1.115-4.461c.135-.536-.191-1.079-.728-1.213Zm11.643-8.568c.553,0,1-.448,1-1v-2c0-.552-.447-1-1-1s-1,.448-1,1v2c0,.552,.447,1,1,1Zm0-5c.553,0,1-.448,1-1V1c0-.552-.447-1-1-1s-1,.448-1,1V3c0,.552,.447,1,1,1Zm0,11c-.553,0-1,.448-1,1v2c0,.552,.447,1,1,1s1-.448,1-1v-2c0-.552-.447-1-1-1Zm0,5c-.553,0-1,.448-1,1v2c0,.552,.447,1,1,1s1-.448,1-1v-2c0-.552-.447-1-1-1Z"/>
</svg>
