<svg id="Layer_1" viewBox="0 0 24 24" xmlns="http://www.w3.org/2000/svg" data-name="Layer 1"><path d="m11 3v-2c0-.552.447-1 1-1s1 .448 1 1v2c0 .552-.447 1-1 1s-1-.448-1-1zm5 1c.553 0 1-.448 1-1v-2c0-.552-.447-1-1-1s-1 .448-1 1v2c0 .552.447 1 1 1zm-8 0c.553 0 1-.448 1-1v-2c0-.552-.447-1-1-1s-1 .448-1 1v2c0 .552.447 1 1 1zm15.124 16.924c-1.147 1.899-3.1 3.043-5.155 3.043-3.281-.003-5.979-2.715-5.969-5.999 0-1.202.737-3.271 1.245-4.168.611-1.192 2.205-1.059 2.679.194.082.201.152.43.25.679.352-1.19.393-2.487.907-3.675.298-.696.8-.903 1.072-.964.277-.06.829-.087 1.412.43 4.27 3.78 5.467 7.3 3.559 10.46zm-4.41-8.533c-.112.41-.193.856-.273 1.292-.252 1.386-.599 3.285-2.415 3.285-.762 0-1.218-.542-1.511-1.112-.28.765-.515 1.642-.515 2.112 0 1.527.868 2.856 2.14 3.529-.259-.742-.053-1.616.532-2.201l.77-1.096c.308-.308.807-.308 1.115 0l.769 1.097c.56.56.776 1.385.567 2.105.6-.359 1.132-.872 1.517-1.511 1.312-2.171.455-4.563-2.697-7.499zm-9.714 3.609h-1.487c-.799-.389-4.226-2.249-5.442-6.064-.325-.923.469-1.966 1.44-1.936h16.978c.913-.027 1.691.903 1.479 1.792-.114.541.23 1.071.771 1.187.538.117 1.07-.229 1.187-.77.5-2.089-1.288-4.267-3.436-4.208h-16.979c-2.286-.069-4.106 2.38-3.347 4.543 1.272 3.986 4.418 6.137 5.922 6.969l-.752 1.505c-1.302.087-2.333 1.16-2.333 2.483 0 1.381 1.119 2.5 2.5 2.5s2.5-1.119 2.5-2.5c0-.709-.298-1.345-.772-1.8l.85-1.7h.922c.553 0 1-.448 1-1s-.447-1-1-1z"/></svg>