<svg id="Layer_1" viewBox="0 0 24 24" xmlns="http://www.w3.org/2000/svg" data-name="Layer 1"><path d="m14.296 18.373c.334.439.249 1.067-.189 1.401-1.933 1.472-3.967 2.751-6.046 3.802-1.523.772-3.377.478-4.6-.748l-2.29-2.293c-1.22-1.219-1.52-3.067-.745-4.597 1.05-2.072 2.32-4.095 3.778-6.013.333-.439.961-.525 1.401-.191.439.334.524.961.19 1.401-1.384 1.822-2.591 3.741-3.585 5.706-.384.757-.233 1.674.374 2.281l2.291 2.294c.608.608 1.524.759 2.282.375 1.971-.996 3.9-2.209 5.735-3.608.44-.335 1.067-.25 1.402.189zm9.675 2.379c-.109.678-.516 1.386-1.177 2.045-1.341 1.46-3.055 1.498-4.029.478-.974-.974-2.729-4.036-2.741-5.838l-9.482-9.481c-1.819-.028-4.849-1.754-5.815-2.721-1.264-1.266-.736-2.821.479-4.032 1.411-1.412 2.954-1.551 4.029-.478.833.833 2.239 3.198 2.636 4.992 3.531-3.563 8.05-5.712 12.019-5.707 2.26 0 4.1 1.84 4.101 4.101.007 3.97-2.152 8.504-5.721 12.032 1.59.364 3.932 1.55 5.005 2.622.582.583.816 1.251.697 1.986zm-18.178-14.959c-.353-1.083-1.155-2.837-1.971-3.653-.418-.316-.578-.03-1.203.478-.447.571-.817.784-.478 1.204.822.822 2.57 1.628 3.651 1.971zm9.207 4.44c.027-.651-.602-1.254-1.248-1.233-.372.004-.766.21-1.169.614-.268.268-.513.533-.757.798l1.762 1.762c.265-.245.53-.489.798-.757.391-.391.609-.811.614-1.184zm1.927 4.426c3.735-3.736 5.065-7.898 5.063-10.547 0-1.178-.924-2.102-2.102-2.102h-.004c-2.65 0-6.81 1.331-10.544 5.065-.142.142-.282.287-.421.431l1.492 1.492c.246-.265.489-.529.757-.797.786-.787 1.648-1.19 2.562-1.2 1.739-.052 3.337 1.517 3.27 3.263-.014.908-.428 1.796-1.2 2.568-.268.268-.533.511-.798.757l1.493 1.493c.144-.14.289-.28.432-.422zm4.932 5.521c-.782-.783-2.538-1.634-3.656-1.987.353 1.084 1.16 2.852 1.976 3.668.099.099.36.363 1.204-.479.405-.405.583-.755.614-.948.007-.045.017-.101-.138-.254zm-13.475-7.675c-.441-.333-1.067-.249-1.401.191-1.211 1.593-2.479 3.515-2.857 4.191-.217.391-.149.878.167 1.194l1.625 1.625c.307.307.776.38 1.158.185.656-.332 2.604-1.586 4.289-2.876.438-.336.521-.963.186-1.402-.336-.438-.962-.521-1.402-.186-1.233.945-2.561 1.829-3.359 2.321l-.526-.526c.517-.81 1.403-2.12 2.312-3.317.334-.439.249-1.067-.19-1.401z"/></svg>