<svg id="Layer_1" viewBox="0 0 24 24" xmlns="http://www.w3.org/2000/svg" data-name="Layer 1"><path d="m14.5 13c-.828 0-1.5-.672-1.5-1.5s.672-1.5 1.5-1.5 1.5.672 1.5 1.5-.672 1.5-1.5 1.5zm7.35-4.725c-.823-4.763-4.945-8.275-9.85-8.275-6.904 0-8.876 4.674-10.181 7.766-.44 1.043-.895 2.121-1.322 2.37-.371.216-.562.644-.477 1.064.086.42.43.739.856.792.219.029 3.521.404 7.257-1.103-.084.187-.133.393-.133.611 0 .828.672 1.5 1.5 1.5s1.5-.672 1.5-1.5c0-.704-.487-1.291-1.142-1.452 1.728-.967 3.462-2.376 4.956-4.467.321-.449.217-1.074-.233-1.395-.449-.32-1.074-.217-1.395.233-3.203 4.484-7.682 5.447-10.186 5.608.227-.454.439-.956.662-1.483 1.23-2.916 2.761-6.544 8.338-6.544 4.104 0 7.523 3.074 7.954 7.15.047.442.379.8.816.879.712.129 1.23.748 1.23 1.471.01.914-.855 1.653-1.756 1.472-.484-.082-.95.193-1.112.652-.917 2.597-4 5.376-7.129 5.376h-.002c-2.899 0-5.598-2.283-6.766-4.539-.254-.49-.857-.68-1.348-.428-.49.254-.682.857-.428 1.348.881 1.7 2.5 3.481 4.542 4.571v3.047c0 .552.448 1 1 1s1-.448 1-1v-2.262c.643.167 1.312.263 2 .263.683 0 1.352-.096 2-.264v2.263c0 .552.448 1 1 1s1-.448 1-1v-3.047c2.123-1.127 3.841-3.019 4.732-4.961 1.822-.12 3.268-1.64 3.268-3.492 0-1.434-.87-2.692-2.15-3.225zm-12.212 7.705c.592.628 1.431 1.02 2.362 1.02s1.77-.392 2.362-1.02c.347-.368.059-.98-.447-.98h-3.831c-.506 0-.795.612-.447.98z"/></svg>