<svg id="Layer_1" viewBox="0 0 24 24" xmlns="http://www.w3.org/2000/svg" data-name="Layer 1"><path d="m23 0c-1.85 0-3.349 1.014-4.223 2.854l-.694 1.46-1.245-.593c-1.989-.948-4.379-.102-5.323 1.875l-1.812 3.679c-.969 1.967-.161 4.364 1.8 5.345l1.359.68-.83 1.747c-.767.104-1.46.444-1.986.962-.016 0-.03-.009-.047-.009h-6c-2.206 0-4 1.794-4 4 0 .97.701 2 2 2h5c.553 0 1-.448 1-1s-.447-1-1-1h-4.999c0-1.103.897-2 2-2h5.051c-.024.165-.051.329-.051.5 0 1.93 1.57 3.5 3.5 3.5s3.5-1.57 3.5-3.5c0-1.358-.785-2.524-1.918-3.104l6.502-13.684c.539-1.136 1.353-1.712 2.416-1.712.553 0 1-.448 1-1s-.447-1-1-1zm-10.602 12.831c-.98-.49-1.385-1.689-.899-2.672l1.816-3.689c.474-.993 1.669-1.417 2.664-.942l1.246.593-3.503 7.373-1.324-.662zm.102 9.169c-.827 0-1.5-.673-1.5-1.5s.673-1.5 1.5-1.5 1.5.673 1.5 1.5-.673 1.5-1.5 1.5z"/></svg>