<?xml version="1.0" encoding="UTF-8"?>
<svg xmlns="http://www.w3.org/2000/svg" id="Layer_1" data-name="Layer 1" viewBox="0 0 24 24">
  <path d="M24,12.036c0,.534-.208,1.036-.586,1.414l-2.293,2.293c-.391,.391-1.023,.391-1.414,0s-.391-1.023,0-1.414l1.329-1.329h-4.036c-.553,0-1-.448-1-1s.447-1,1-1h3.964l-1.257-1.257c-.391-.391-.391-1.023,0-1.414s1.023-.391,1.414,0l2.293,2.293c.378,.377,.586,.879,.586,1.414ZM9.5,5c1.381,0,2.5-1.119,2.5-2.5s-1.119-2.5-2.5-2.5-2.5,1.119-2.5,2.5,1.119,2.5,2.5,2.5Zm5.015,7.343l-1.567-.94c-.093-.056-.167-.142-.207-.243l-1.271-3.177c-.482-1.204-1.631-1.982-2.928-1.982-.499,.022-1.028-.043-1.512,.081-.848,.109-1.675,.331-2.466,.681l-2.102,.928c-.835,.381-1.443,1.111-1.666,2.002L.03,12.757c-.134,.536,.192,1.079,.728,1.213,.534,.134,1.079-.191,1.213-.728l.766-3.065c.074-.297,.277-.541,.544-.663l1.693-.747-.891,4.23c-.26,1.112,.124,2.258,.994,2.982l2.747,2.333c.112,.096,.176,.234,.176,.381v4.306c0,.552,.448,1,1,1s1-.448,1-1v-4.306c0-.735-.321-1.429-.881-1.905l-2.754-2.339c-.293-.244-.42-.625-.329-1.018l1.051-4.992c.044-.189,.179-.334,.351-.4,.352-.041,.748-.042,1.105-.04,.197,0,.378,.059,.543,.147-.019,.05-1.119,5.16-1.119,5.16-.114,.541,.232,1.071,.772,1.185,.527,.115,1.073-.228,1.185-.772l.583-2.765,.379,.947c.201,.504,.569,.936,1.035,1.216l1.567,.94c.466,.281,1.086,.135,1.372-.343,.284-.474,.131-1.088-.343-1.372Zm-10.157,5.226c-.534-.134-1.079,.192-1.213,.728l-1.115,4.461c-.134,.536,.192,1.079,.728,1.213,.522,.134,1.081-.188,1.213-.728l1.115-4.461c.134-.536-.192-1.079-.728-1.213Z"/>
</svg>
