<?xml version="1.0" encoding="UTF-8"?>
<svg xmlns="http://www.w3.org/2000/svg" id="Layer_1" data-name="Layer 1" viewBox="0 0 24 24">
  <path d="M23.391,15.866c-.475-.55-1.165-.866-1.892-.866h-2.363l1.76-3.557c.245-.495,.042-1.095-.453-1.34-.497-.246-1.095-.042-1.34,.453l-2.199,4.443h-3.788c-1.481-.035-2.723,1.402-2.474,2.863l.399,2.718c.286,1.949,1.988,3.419,3.958,3.419h4.616c1.97,0,3.671-1.469,3.957-3.418l.4-2.719c.105-.719-.106-1.448-.582-1.998Zm-1.796,4.425c-.143,.974-.994,1.709-1.979,1.709h-4.616c-.985,0-1.836-.735-1.979-1.709l-.399-2.718c.001-.377,.122-.517,.495-.573h8.382c.373,.056,.494,.196,.495,.573l-.4,2.718ZM8,12c3.309,0,6-2.691,6-6S11.309,0,8,0,2,2.691,2,6s2.691,6,6,6Zm0-10c2.206,0,4,1.794,4,4s-1.794,4-4,4-4-1.794-4-4,1.794-4,4-4Zm1,13c0,.552-.448,1-1,1-3.309,0-6,2.691-6,6v1c0,.552-.448,1-1,1s-1-.448-1-1v-1c0-4.411,3.589-8,8-8,.552,0,1,.448,1,1Z"/>
</svg>
