<svg id="Layer_1" viewBox="0 0 24 24" xmlns="http://www.w3.org/2000/svg" data-name="Layer 1"><path d="m23.707 23.707c-.391.391-1.023.391-1.414 0l-7.136-7.136c-1.52 1.784-2.247 3.638-2.936 5.141-.391.557-1.211.248-1.212-.433-.002-1.632-.232-4.106 2.039-6.818l-.754-.754c-.391-.391-.391-1.023 0-1.414s1.023-.391 1.414 0l.754.754c2.714-2.277 5.192-2.045 6.825-2.045.68 0 .99.822.433 1.212-1.506.69-3.362 1.418-5.148 2.942l7.137 7.137c.391.391.391 1.023 0 1.414zm-13.707-10.744c.017.552-.418 1.013-.97 1.029-.175.005-.352.008-.53.008-2.665 0-4.965-.588-6.5-1.541v2.041c0 1.02 2.532 2.5 6.5 2.5.552 0 1 .447 1 1s-.448 1-1 1c-2.665 0-4.965-.588-6.5-1.541v2.327c0 .751 2.294 2.214 6.5 2.214.552 0 1 .447 1 1s-.448 1-1 1c-4.224 0-8.5-1.447-8.5-4.214v-15.286c0-2.565 3.654-4.5 8.5-4.5s8.5 1.935 8.5 4.5v4.5c0 .553-.447 1-1 1s-1-.447-1-1v-1.541c-1.535.954-3.835 1.541-6.5 1.541s-4.965-.588-6.5-1.541v2.041c0 1.02 2.532 2.5 6.5 2.5.158 0 .315-.003.47-.008.581-.003 1.013.419 1.029.971zm-8-8.463c0 1.02 2.532 2.5 6.5 2.5s6.5-1.48 6.5-2.5-2.532-2.5-6.5-2.5-6.5 1.48-6.5 2.5z"/></svg>