<svg id="Layer_1" viewBox="0 0 24 24" xmlns="http://www.w3.org/2000/svg" data-name="Layer 1"><path d="m8.5 9c2.481 0 4.5-2.019 4.5-4.5s-2.019-4.5-4.5-4.5-4.5 2.019-4.5 4.5 2.019 4.5 4.5 4.5zm0-7c1.378 0 2.5 1.122 2.5 2.5s-1.122 2.5-2.5 2.5-2.5-1.122-2.5-2.5 1.122-2.5 2.5-2.5zm7.5 15h-1.025c-.257-3.351-3.059-6-6.475-6s-6.218 2.649-6.475 6h-1.025c-.552 0-1 .448-1 1s.448 1 1 1v4c0 .552.448 1 1 1s1-.448 1-1v-4h11v4c0 .552.447 1 1 1s1-.448 1-1v-4c.553 0 1-.448 1-1s-.447-1-1-1zm-7.5-4c2.31 0 4.197 1.756 4.449 4h-8.898c.252-2.244 2.139-4 4.449-4zm14.621-12.122c-.567-.567-1.32-.879-2.122-.878h-2.999c-1.654.001-3 1.347-3 3.001v5.621c0 .878.63 1.384 1.365 1.375.289 0 .586-.094.86-.286l2.127-1.711h1.647c1.654 0 3-1.346 3-3v-2c0-.802-.313-1.555-.879-2.122zm-1.121 4.122c0 .551-.448 1-1 1h-2c-.228 0-.449.078-.627.221l-1.372 1.106v-4.326c0-.551.447-1 1-1h2.999c.539-.013 1.011.461 1 .999z"/></svg>