<svg id="Layer_1" viewBox="0 0 24 24" xmlns="http://www.w3.org/2000/svg" data-name="Layer 1"><path d="m24 14c0 2.757-2.243 5-5 5h-6v3h4c.553 0 1 .447 1 1s-.447 1-1 1h-10c-.553 0-1-.447-1-1s.447-1 1-1h4v-3h-6c-2.757 0-5-2.243-5-5v-9c0-2.757 2.243-5 5-5h6c.553 0 1 .448 1 1s-.447 1-1 1h-6c-1.654 0-3 1.346-3 3v9c0 1.654 1.346 3 3 3h14c1.654 0 3-1.346 3-3 0-.553.447-1 1-1s1 .447 1 1zm-14-6c0-1.105-.895-2-2-2s-2 .895-2 2 .895 2 2 2 2-.895 2-2zm-5.937 5.649c-.193.517.068 1.093.586 1.287.514.192 1.094-.067 1.287-.586.303-.808 1.132-1.351 2.063-1.351s1.761.543 2.063 1.351c.193.523.783.778 1.287.586.518-.194.779-.771.586-1.287-.594-1.585-2.176-2.649-3.937-2.649s-3.343 1.064-3.937 2.649zm8.936-6.648v-3.477c0-1.029.657-1.94 1.635-2.266l3.394-1.124c.307-.102.637-.102.943 0l3.392 1.124c.979.325 1.637 1.236 1.637 2.266s0 3.476 0 3.476c0 3.969-3.639 5.738-4.754 6.187 0 0-.244.184-.745.184-.328 0-.853-.25-.853-.25-1.088-.544-4.648-2.598-4.648-6.12zm5.001-.501v3.5c0 .276.224.5.5.5h1c.276 0 .5-.224.5-.5s-.224-.5-.5-.5h-.5v-3c1.214 0 2.178-1.086 1.972-2.338-.162-.983-1.087-1.662-2.084-1.662h-.776c-.997 0-1.922.679-2.084 1.662-.206 1.252.758 2.338 1.972 2.338zm0-1.014h1c.551 0 1-.449 1-1s-.449-1-1-1h-1c-.551 0-1 .449-1 1s.449 1 1 1z"/></svg>