<?xml version="1.0" encoding="UTF-8"?>
<svg xmlns="http://www.w3.org/2000/svg" id="Layer_1" data-name="Layer 1" viewBox="0 0 24 24">
  <path d="M9.5,13c.828,0,1.5,.672,1.5,1.5s-.672,1.5-1.5,1.5-1.5-.672-1.5-1.5,.672-1.5,1.5-1.5Zm5,0c-.828,0-1.5,.672-1.5,1.5s.672,1.5,1.5,1.5,1.5-.672,1.5-1.5-.672-1.5-1.5-1.5Zm7.5-1.638v-.612c0-.966-.356-2.296-2.053-3.145-.494-.245-1.094-.047-1.342,.447-.247,.494-.047,1.095,.447,1.342,.835,.417,.947,.919,.947,1.355v1.422c0,.599,.577,1.081,1.137,.99,.37,.18,.863,.564,.863,1.338,0,.827-.673,1.5-1.5,1.5-.086,0-.17-.014-.252-.027-.483-.089-.954,.19-1.117,.651-.916,2.597-4.001,5.377-7.131,5.377s-6.214-2.78-7.131-5.377c-.163-.461-.633-.733-1.116-.652-.083,.015-.166,.028-.253,.028-.827,0-1.5-.673-1.5-1.5,0-.774,.495-1.159,.861-1.338,.579,.076,1.139-.392,1.139-.99v-1.422c0-.437,.112-.938,.947-1.355,.494-.247,.694-.848,.447-1.342s-.847-.693-1.342-.447c-1.697,.849-2.053,2.179-2.053,3.145v.612c-.932,.462-2,1.44-2,3.138,0,1.852,1.446,3.372,3.268,3.492,1.405,3.063,4.866,6.009,8.732,6.009s7.326-2.945,8.732-6.009c1.821-.12,3.268-1.641,3.268-3.492,0-1.697-1.067-2.676-2-3.138Zm-13.969-.897c.256,.489,.859,.676,1.35,.421,.489-.257,.677-.861,.42-1.351l-.753-1.428c-.175-.41-.139-.881,.067-1.216l1.884-2.706v2.814c0,.553,.448,1,1,1s1-.447,1-1v-2.817l1.856,2.664c.235,.379,.271,.85,.129,1.188l-.787,1.5c-.257,.489-.068,1.094,.421,1.351,.48,.253,1.093,.073,1.351-.421l.82-1.571c.432-1.009,.345-2.168-.264-3.145L12.82,.429c-.373-.537-1.267-.537-1.641,0l-3.734,5.364c-.579,.932-.667,2.091-.201,3.172l.787,1.5Z"/>
</svg>
