<svg id="Layer_1" viewBox="0 0 24 24" xmlns="http://www.w3.org/2000/svg" data-name="Layer 1"><path d="m22 23c0 .553-.447 1-1 1h-18c-.553 0-1-.447-1-1s.447-1 1-1v-9c-.553 0-1-.447-1-1s.447-1 1-1v-9c-.553 0-1-.447-1-1s.447-1 1-1h11c.553 0 1 .447 1 1s-.447 1-1 1h-9v9h.5c.553 0 1 .447 1 1s-.447 1-1 1h-.5v9h14v-7c0-.553.447-1 1-1s1 .447 1 1v7c.553 0 1 .447 1 1zm-7.533-12.982c1.372 1.372 1.372 3.593.008 4.957-.661.661-1.54 1.025-2.475 1.025s-1.813-.364-2.475-1.025c-1.364-1.364-1.364-3.585 0-4.949l.931-.911c.852-.833 2.236-.831 3.088 0zm-1.406 1.421-.915-.896c-.082-.08-.21-.08-.291 0l-.923.903c-.577.577-.577 1.528.008 2.113.566.566 1.555.566 2.121 0 .585-.585.585-1.536 0-2.121zm8.624-6.172-3.04-.506c-.374-.062-.645-.382-.645-.761 0-.552.448-1 1-1h2.268c.356 0 .688.191.867.501.275.478.886.642 1.366.364.478-.276.642-.888.364-1.366-.534-.925-1.53-1.499-2.598-1.499h-.268c0-.553-.447-1-1-1s-1 .447-1 1c-1.654 0-3 1.346-3 3 0 1.359.974 2.51 2.315 2.733l3.04.506c.374.062.645.382.645.761 0 .552-.448 1-1 1h-2.268c-.356 0-.688-.191-.867-.501-.275-.479-.888-.644-1.366-.364-.478.276-.642.888-.364 1.366.534.925 1.53 1.499 2.598 1.499h.268c0 .553.447 1 1 1s1-.447 1-1c1.654 0 3-1.346 3-3 0-1.359-.974-2.51-2.315-2.733z"/></svg>