<?xml version="1.0" encoding="UTF-8"?>
<svg xmlns="http://www.w3.org/2000/svg" id="Layer_1" data-name="Layer 1" viewBox="0 0 24 24">
  <path d="M16.5,7.223v-2.445c0-.592,.636-.966,1.153-.679l2.201,1.223c.532,.296,.532,1.061,0,1.357l-2.201,1.223c-.517,.287-1.153-.087-1.153-.679Zm-4.5-1.223c0-3.309,2.691-6,6-6s6,2.691,6,6-2.691,6-6,6-6-2.691-6-6Zm2,0c0,2.206,1.794,4,4,4s4-1.794,4-4-1.794-4-4-4-4,1.794-4,4Zm-3.5,2.5c0-1.381-1.119-2.5-2.5-2.5s-2.5,1.119-2.5,2.5,1.119,2.5,2.5,2.5,2.5-1.119,2.5-2.5Zm12.5,3.5c-.553,0-1,.448-1,1v2c0,1.654-1.346,3-3,3H5c-1.654,0-3-1.346-3-3V7c0-1.654,1.346-3,3-3h5c.553,0,1-.448,1-1s-.447-1-1-1H5C2.243,2,0,4.243,0,7V15c0,2.757,2.243,5,5,5h6v2H7c-.553,0-1,.447-1,1s.447,1,1,1h10c.553,0,1-.447,1-1s-.447-1-1-1h-4v-2h6c2.757,0,5-2.243,5-5v-2c0-.552-.447-1-1-1Zm-15,0c-1.761,0-3.343,1.064-3.937,2.649-.193,.517,.068,1.093,.586,1.287,.513,.191,1.093-.067,1.287-.586,.303-.808,1.132-1.351,2.063-1.351s1.761,.543,2.063,1.351c.193,.523,.783,.778,1.287,.586,.518-.194,.779-.771,.586-1.287-.594-1.585-2.176-2.649-3.937-2.649Z"/>
</svg>
