<svg id="Layer_1" viewBox="0 0 24 24" xmlns="http://www.w3.org/2000/svg" data-name="Layer 1"><path d="m19 8.424v-1.424c0-3.86-3.141-7-7-7s-7 3.14-7 7v1.424c-1.763.774-3 2.531-3 4.576v6c0 2.757 2.243 5 5 5h10c2.757 0 5-2.243 5-5v-6c0-2.045-1.237-3.802-3-4.576zm-12-1.424c0-2.757 2.243-5 5-5s5 2.243 5 5v1h-10zm13 12c0 1.654-1.346 3-3 3h-10c-1.654 0-3-1.346-3-3v-6c0-1.654 1.346-3 3-3h10c1.654 0 3 1.346 3 3zm-8.513-1.758c.15 1.496-1.021 2.758-2.487 2.758h-1.2c-.442 0-.8-.358-.8-.8s.358-.8.8-.8h1.2c.496 0 .9-.404.9-.9s-.404-.9-.9-.9h-1.2c-.442 0-.8-.358-.8-.8v-3c0-.442.358-.8.8-.8h2.4c.442 0 .8.358.8.8s-.358.8-.8.8h-1.601v1.4h.258c1.308 0 2.499.941 2.63 2.242zm5.513-.942v1.2c0 1.365-1.093 2.474-2.452 2.5-1.401.027-2.548-1.154-2.548-2.556v-2.887c0-1.402 1.147-2.582 2.548-2.556.933.018 1.741.546 2.155 1.318.287.534-.097 1.182-.703 1.182-.29 0-.567-.151-.699-.409-.158-.308-.488-.514-.863-.489-.478.032-.838.451-.838.93v2.968c0 .517.438.933.962.898.478-.032.838-.451.838-.93v-.368h-.1c-.442 0-.8-.358-.8-.8s.358-.8.8-.8h.9c.442 0 .8.358.8.8z"/></svg>