<svg id="Layer_1" viewBox="0 0 24 24" xmlns="http://www.w3.org/2000/svg" data-name="Layer 1"><path d="m13.794 5.102c1.073.282 1.913 1.17 2.14 2.263.278 1.336-.339 2.658-1.537 3.289-.1.053-.727.418-.783.46-.174.132-.387.203-.605.203-.972 0-1.383-1.251-.593-1.817.194-.139.928-.552 1.048-.616.333-.175.62-.587.511-1.112-.072-.346-.355-.648-.689-.736-.425-.111-.736.06-.881.171-.127.098-.228.217-.298.351-.15.283-.544.47-.861.441-.741 0-1.23-.796-.869-1.443.199-.357.472-.675.806-.932.742-.573 1.695-.763 2.61-.522zm-1.794 7.898c0 .552.448 1 1 1s1-.448 1-1-.448-1-1-1-1 .448-1 1zm4.908-8.866c.577.577 1.334.865 2.092.865s1.515-.289 2.092-.865l2.354-2.354c.391-.391.391-1.024 0-1.414-.391-.391-1.023-.391-1.414 0l-2.354 2.354c-.374.374-.981.374-1.355 0l-1.149-1.149c-.39-.391-1.023-.391-1.414 0-.391.39-.391 1.023 0 1.414l1.149 1.149zm5.252 11.002c-.478-.277-1.089-.114-1.367.363-.193.332-.409.655-.643.96-.743.969-1.151 2.237-1.151 3.57v.971c0 .551-.449 1-1 1h-7c-.551 0-1-.449-1-1v-1c0-.552-.448-1-1-1h-1.494c-1.499 0-2.778-1.121-2.974-2.607l-.334-2.524c-.065-.497-.49-.869-.991-.869l-1.208.024c.083-.832 2.459-5.746 3.801-7.407 1.722-2.299 4.346-3.618 7.2-3.618.552 0 1-.448 1-1s-.448-1-1-1c-3.49 0-6.697 1.61-8.777 4.389-1.29 1.597-4.222 7.192-4.222 8.612 0 .97.701 2 2 2h.33l.219 1.655c.327 2.477 2.458 4.345 4.957 4.345h.494c0 1.654 1.346 3 3 3h7c1.654 0 3-1.346 3-3v-.971c0-.896.263-1.732.739-2.354.285-.373.549-.767.784-1.172.277-.478.115-1.09-.363-1.367zm.253-5.136 1.293-1.293c.391-.391.391-1.023 0-1.414s-1.023-.391-1.414 0l-1.293 1.293-1.293-1.293c-.391-.391-1.023-.391-1.414 0s-.391 1.023 0 1.414l1.293 1.293-1.293 1.293c-.391.391-.391 1.023 0 1.414s1.023.391 1.414 0l1.293-1.293 1.293 1.293c.391.391 1.023.391 1.414 0s.391-1.023 0-1.414z"/></svg>