<svg id="Layer_1" viewBox="0 0 24 24" xmlns="http://www.w3.org/2000/svg" data-name="Layer 1"><path d="m10.003 22h-5c-1.654 0-3-1.346-3-3v-7c0-1.654 1.346-3 3-3h1c.552 0 1-.448 1-1v-2h3.973l.027 2.013c.007.547.453.987 1 .987h1c1.37 0 2.564.925 2.905 2.25.136.539.698.857 1.218.719.535-.138.857-.683.72-1.218-.569-2.208-2.561-3.75-4.843-3.75l-.023-1.177c1.174-.408 2.023-1.512 2.023-2.823 0-1.654-1.346-3-3-3h-6c-1.654 0-3 1.346-3 3 0 1.302.839 2.402 2 2.816v1.184c-2.756-.001-5 2.242-5 4.999v7c0 2.757 2.244 5 5 5h5c.552 0 1-.448 1-1s-.448-1-1-1zm-4-20h6c.551 0 1 .449 1 1s-.449 1-1 1h-6c-.551 0-1-.449-1-1s.449-1 1-1zm7 13c0 .552-.448 1-1 1h-2v2c0 .552-.448 1-1 1s-1-.448-1-1v-2h-2c-.552 0-1-.448-1-1s.448-1 1-1h2v-2c0-.552.448-1 1-1s1 .448 1 1v2h2c.552 0 1 .448 1 1zm9.975-.975c-1.322-1.322-3.627-1.322-4.949 0l-4 4c-1.358 1.303-1.358 3.647 0 4.95 1.303 1.357 3.646 1.358 4.949 0l4-4c1.358-1.303 1.358-3.648 0-4.95zm-7.535 7.536c-.582-.558-.582-1.563 0-2.121l1.349-1.349 2.121 2.121-1.349 1.349c-.584.585-1.537.585-2.121 0zm6.121-4-1.237 1.237-2.121-2.121 1.237-1.237c.585-.585 1.537-.585 2.121 0 .582.558.582 1.563 0 2.121z"/></svg>