<svg id="Layer_1" viewBox="0 0 24 24" xmlns="http://www.w3.org/2000/svg" data-name="Layer 1"><path d="m10 21c0 .552-.447 1-1 1h-5c-.553 0-1-.448-1-1s.447-1 1-1h5c.553 0 1 .448 1 1zm9.645-6.676c.27-.292.528-.614.732-.956.359-.603-.116-1.368-.818-1.368h-3.118c-.702 0-1.178.765-.818 1.368.204.342.462.665.732.956-2.362.919-4.355 3.666-4.355 6.513 0 1.747 1.343 3.163 3 3.163h2.285v-1h-.201c-.655 0-1.242-.299-1.631-.768-.385-.464-.058-1.166.545-1.166.232-.016.454.078.611.252.118.128.287.209.474.209h1.937c.256 0 .49-.173.54-.424.058-.293-.135-.566-.415-.623l-2.571-.515c-.954-.191-1.64-1.05-1.608-2.029.036-1.088.962-1.936 2.05-1.936h.268v-.28c0-.398.322-.72.72-.72s.72.322.72.72v.28h.201c.655 0 1.242.299 1.631.767.385.464.058 1.167-.545 1.167-.232.016-.454-.078-.611-.252-.118-.128-.287-.209-.474-.209h-1.936c-.256 0-.49.172-.541.422-.059.293.134.568.414.624l2.572.515c.954.19 1.64 1.051 1.608 2.03-.036 1.088-.962 1.936-2.051 1.936h-.268v1h2.276c1.657 0 3-1.416 3-3.163 0-2.847-1.993-5.594-4.355-6.513zm-12.704-6.323c.263-.019.521.075.71.244l2.734 2.516c.724.666 1.231 1.523 1.468 2.479.13.541.689.863 1.211.73.536-.133.863-.675.73-1.211-.25-1.012-.72-1.944-1.372-2.742l1.916-1.763c.392-.369 1.057-.328 1.406.077.165.184.256.421.255.667 0 .502.5.999 1 .999s1-.497 1-.997v-6c0-.551.448-1 1-1s1 .449 1 1v6c0 .552.447 1 1 1s1-.448 1-1v-6c0-1.654-1.346-3-3-3s-3 1.346-3 3v3.186c-.999-.351-2.154-.174-3.005.587l-1.995 1.836-2.005-1.845c-.597-.534-1.374-.802-2.163-.76-.29.016-.566.086-.832.18v-3.184c0-1.654-1.346-3-3-3s-2.999 1.346-2.999 3v8.101c0 2.137.832 4.146 2.343 5.657l.95.95c.188.187.442.292.707.292h5.5c.553 0 1-.448 1-1s-.447-1-1-1h-5.086l-.657-.657c-1.133-1.133-1.757-2.64-1.757-4.243v-8.1c0-.551.448-1 1-1s1 .449 1 1v6c.06.695.24 1.391.746 1.973l2.616 2.721c.383.397 1.015.411 1.414.027.397-.383.41-1.016.027-1.414l-2.571-2.67c-.316-.377-.307-.938.022-1.305.177-.198.421-.315.687-.33z"/></svg>