<svg id="Layer_1" viewBox="0 0 24 24" xmlns="http://www.w3.org/2000/svg" data-name="Layer 1"><path d="m14 14c-.782 0-1.477.267-2 .718-.523-.451-1.218-.718-2-.718-1.654 0-3 1.418-3 3.16 0 2.387 2.951 4.934 3.287 5.216.496.417 1.104.625 1.713.625s1.217-.208 1.713-.625c.336-.282 3.287-2.829 3.287-5.216 0-1.742-1.346-3.16-3-3.16zm-1.573 6.845c-.247.207-.606.207-.854 0-1.265-1.062-2.573-2.73-2.573-3.685 0-.64.449-1.16 1-1.16.461 0 1 .252 1 .964v.036c0 .553.448 1 1 1s1-.447 1-1v-.036c0-.712.539-.964 1-.964.551 0 1 .521 1 1.16 0 .954-1.309 2.622-2.573 3.685zm-.427-8.845c3.309 0 6-2.691 6-6s-2.691-6-6-6-6 2.691-6 6 2.691 6 6 6zm0-10c2.206 0 4 1.794 4 4s-1.794 4-4 4-4-1.794-4-4 1.794-4 4-4zm9 20v1c0 .553-.448 1-1 1s-1-.447-1-1v-1c0-1.23-.324-2.44-.936-3.499-.276-.479-.113-1.09.365-1.366.477-.278 1.089-.113 1.366.364.788 1.363 1.205 2.919 1.205 4.501zm-15.064-3.499c-.612 1.059-.936 2.269-.936 3.499v1c0 .553-.448 1-1 1s-1-.447-1-1v-1c0-1.582.417-3.138 1.205-4.501.277-.478.889-.643 1.366-.364.479.276.642.888.365 1.366z"/></svg>