<svg id="Layer_1" viewBox="0 0 24 24" xmlns="http://www.w3.org/2000/svg" data-name="Layer 1"><path d="m23.707 22.293-5.969-5.969c1.412-1.725 2.262-3.927 2.262-6.324 0-5.514-4.486-10-10-10s-10 4.486-10 10 4.486 10 10 10c2.398 0 4.6-.85 6.324-2.262l5.969 5.969c.391.391 1.023.391 1.414 0s.391-1.023 0-1.414zm-21.707-12.293c0-4.411 3.589-8 8-8s8 3.589 8 8-3.589 8-8 8-8-3.589-8-8zm11-2c1.103 0 2-.897 2-2 0-.552-.447-1-1-1s-1 .448-1 1h-1.189c-.412-.622-1.058-1-1.811-1-.722 0-1.375.376-1.801 1h-1.199s0 0 0 0c0-.552-.447-1-1-1s-1 .448-1 1c0 1.103.897 2 2 2h.416c-.085.299-.179.641-.271 1h-1.146c-.553 0-1 .448-1 1s.447 1 1 1h.724c-.055.399-.081.676-.021 1.03-.961.145-1.704.969-1.704 1.97 0 .552.447 1 1 1s1-.448 1-1h.626c.605.616 1.445 1 2.374 1s1.769-.384 2.374-1h.626c0 .552.447 1 1 1s1-.448 1-1c0-1.002-.742-1.825-1.704-1.97.06-.354.035-.634-.02-1.03h.724c.553 0 1-.448 1-1s-.447-1-1-1h-1.144c-.092-.36-.186-.702-.272-1h.416zm-3 5c-.735 0-1.333-.598-1.333-1.333 0-.718.617-3.034.939-4.008.069-.21.147-.392.22-.52.019-.032.088-.139.174-.139.103 0 .147.054.195.156.05.102.118.267.201.514.24.713.937 3.196.937 3.997 0 .735-.598 1.333-1.333 1.333z"/></svg>