<svg id="Layer_1" viewBox="0 0 24 24" xmlns="http://www.w3.org/2000/svg" data-name="Layer 1"><path d="m11.5 22h-6.5c-1.654 0-3-1.346-3-3v-8c0-1.654 1.346-3 3-3h1.292c.309 0 .618.073.894.211l2.522 1.261c.681.34 1.495.528 2.292.528h6c.553 0 1-.448 1-1s-.447-1-1-1v-2.29c0-1.041-.397-2.026-1.12-2.775l-1.647-1.71c-.749-.778-1.799-1.225-2.88-1.225h-4.353c-2.206 0-4 1.794-4 4v2.101c-2.279.465-4 2.484-4 4.899v8c0 2.757 2.243 5 5 5h6.5c.552 0 1-.447 1-1s-.448-1-1-1zm-3.5-20h4.353c.222 0 .439.046.647.118v1.882c0 .552.448 1 1 1h1.867c.085.224.133.463.133.71v2.29h-4c-.485 0-.995-.115-1.397-.317l-2.521-1.26c-.553-.277-1.171-.423-1.789-.423h-.292v-2c0-1.103.897-2 2-2zm15.45 5.107c-.492-.249-1.094-.051-1.343.442l-3.125 6.191-.8-.431c-1.199-.644-2.663-.267-3.407.88-.593.913-1.304 1.824-2.112 2.709-1.057 1.101-.844 3.032.435 3.869 1.438.989 3.17 1.883 4.875 2.517 1.119.422 2.42.032 3.095-.989.941-1.416 1.573-2.864 1.877-4.303.236-1.122-.306-2.285-1.316-2.827l-.884-.476 3.149-6.238c.249-.493.051-1.095-.442-1.343zm-2.463 10.472c-.251 1.189-.785 2.403-1.585 3.608-.154.229-.464.321-.732.222-.224-.083-.448-.181-.672-.273.295-.922.559-1.93.662-2.636.053-.364-.398-.573-.661-.315-.689.675-1.434 1.369-2.095 1.949-.586-.321-1.155-.658-1.674-1.015-.32-.3-.342-.503-.092-.87.884-.967 1.662-1.966 2.314-2.971.173-.266.51-.355.781-.207l3.447 1.855c.23.124.359.398.306.652z"/></svg>