<svg id="Layer_1" viewBox="0 0 24 24" xmlns="http://www.w3.org/2000/svg" data-name="Layer 1"><path d="m4.668 17.067-.92 2.959.915 2.903c.167.53-.229 1.07-.785 1.07-.368 0-.691-.244-.792-.598l-.798-2.804-.688.002v2.6c0 .442-.358.8-.8.8-.442 0-.8-.358-.8-.8v-6.4c0-.442.358-.8.8-.8.442 0 .8.358.8.8v2.2h.784l.7-2.407c.102-.351.424-.593.79-.593h.008c.555 0 .951.538.786 1.067zm1.532 2.133h-.4c-.442 0-.8.358-.8.8s.358.8.8.8h.4c.442 0 .8-.358.8-.8s-.358-.8-.8-.8zm-6.2-13.2c0-3.309 2.691-6 6-6h2c2.215 0 4.149 1.21 5.188 3h7.812c1.654 0 3 1.346 3 3 0 .553-.447 1-1 1s-1-.447-1-1-.448-1-1-1h-7.09c.055.326.09.659.09 1s-.035.674-.09 1h3.09c.553 0 1 .447 1 1s-.447 1-1 1h-3.812c-1.039 1.79-2.973 3-5.188 3h-2c-3.309 0-6-2.691-6-6zm8 4c2.229.011 4-1.769 4-4s-1.772-4.011-4-4zm-6-4c0 2.206 1.794 4 4 4v-8c-2.206 0-4 1.794-4 4zm12.193 9.459.253-1.013 1.013-.253c.318-.079.541-.365.541-.693s-.223-.613-.541-.693l-1.013-.253-.253-1.013c-.08-.318-.365-.541-.693-.541s-.613.223-.693.541l-.251 1.004-1.003.232c-.319.074-.548.355-.553.683-.006.328.212.618.529.703l1.023.275.255 1.021c.08.318.365.541.693.541s.613-.223.693-.541zm9.807 3.041c0 1.375-1.102 2.501-2.478 2.5h-.922v2.2c0 .442-.358.8-.8.8-.442 0-.8-.358-.8-.8v-6.4c0-.442.358-.8.8-.8h1.7c1.381 0 2.5 1.119 2.5 2.5zm-1.6 0c0-.496-.404-.9-.9-.9h-.9v1.8h.9c.496 0 .9-.404.9-.9zm.843-7.97-1.418-.354-.354-1.418c-.111-.445-.511-.757-.97-.757s-.859.312-.97.757l-.351 1.406-1.404.325c-.447.103-.767.498-.775.956-.008.459.297.865.74.984l1.432.385.357 1.43c.111.445.511.757.97.757s.859-.312.97-.757l.354-1.418 1.418-.354c.445-.111.757-.511.757-.97s-.313-.859-.757-.97zm-5.243 7.77v3.4c0 1.269-1.031 2.3-2.3 2.3s-2.3-1.031-2.3-2.3v-3.4c0-1.269 1.031-2.3 2.3-2.3s2.3 1.031 2.3 2.3zm-1.6 0c0-.386-.314-.7-.7-.7s-.7.314-.7.7v3.4c0 .386.314.7.7.7s.7-.314.7-.7zm-3.4.2c.014 1.375-1.102 2.501-2.478 2.5h-.922v2.2c0 .442-.358.8-.8.8-.442 0-.8-.358-.8-.8v-6.4c0-.442.358-.8.8-.8h1.7c1.381 0 2.5 1.119 2.5 2.5zm-1.6 0c0-.496-.404-.9-.9-.9h-.9v1.8h.9c.496 0 .9-.404.9-.9z"/></svg>