<svg id="Layer_1" viewBox="0 0 24 24" xmlns="http://www.w3.org/2000/svg" data-name="Layer 1"><path d="m22 7v6.318c-.597.218-1.642.555-3 .872v-11.19c0-1.654-1.346-3-3-3h-8c-1.654 0-3 1.346-3 3v11.19c-1.358-.317-2.403-.654-3-.872v-6.318h-2v7.649c1.192.469 4.099 2.002 11 2.332v3.018h-3c-1.654 0-3 1.346-3 3v1h2v-1c0-.552.449-1 1-1h3v2h2v-2h3c.552 0 1 .448 1 1v1h2v-1c0-1.654-1.346-3-3-3h-3v-3.018c6.911-.332 9.798-1.861 11-2.332v-7.649zm-14-5h8c.552 0 1 .448 1 1v8.754c-3.289-.987-6.71-.988-10 0v-8.754c0-.552.449-1 1-1zm-1 11.843c3.275-1.117 6.724-1.117 10 0v.747c-1.459.239-3.146.41-5 .41s-3.541-.171-5-.41z"/></svg>