<svg id="Layer_1" viewBox="0 0 24 24" xmlns="http://www.w3.org/2000/svg" data-name="Layer 1"><path d="m24 20.5c0 1.93-1.57 3.5-3.5 3.5h-6c-.552 0-1-.447-1-1s.448-1 1-1h6c.827 0 1.5-.673 1.5-1.5s-.673-1.5-1.5-1.5h-5.5c-.552 0-1-.447-1-1s.448-1 1-1h3.071c1.063 0 1.929-.865 1.929-1.929 0-1.943-1.27-2.829-1.27-2.829-.473 1.036-1.519 1.757-2.73 1.757-.552 0-1-.447-1-1s.448-1 1-1 1-.449 1-1v-.5c0-.356.19-.686.498-.865.309-.179.689-.179.998-.003 3.685 2.105 3.577 4.897 3.503 5.512-.013.731-.239 1.406-.601 1.988 1.493.4 2.601 1.751 2.601 3.368zm-12-2.406v2.406c0 1.93-1.57 3.5-3.5 3.5h-3c-1.93 0-3.5-1.57-3.5-3.5v-2.406c-.168-.885-1.544-8.265-1.986-13.76-.09-1.116.293-2.228 1.05-3.048.754-.817 1.824-1.286 2.936-1.286h6c1.112 0 2.182.468 2.935 1.285.758.821 1.141 1.932 1.051 3.049-.442 5.495-1.819 12.875-1.987 13.76zm-9.993-13.92c.373 4.633 1.43 10.667 1.824 12.826h6.338c.395-2.159 1.452-8.193 1.825-12.826.045-.57-.142-1.114-.528-1.532-.381-.414-.902-.642-1.465-.642h-6c-.563 0-1.084.228-1.466.642-.386.418-.573.962-.527 1.532zm7.993 14.826h-6v1.5c0 .827.673 1.5 1.5 1.5h3c.827 0 1.5-.673 1.5-1.5z"/></svg>