<svg id="Layer_1" viewBox="0 0 24 24" xmlns="http://www.w3.org/2000/svg" data-name="Layer 1"><path d="m23 14c0-5.506-4.07-10.066-9.357-10.863.224-.323.357-.714.357-1.137 0-1.105-.895-2-2-2s-2 .895-2 2c0 .423.133.814.357 1.137-5.287.797-9.357 5.357-9.357 10.863-.552 0-1 .448-1 1s.448 1 1 1h2.978c-1.256 1.005-2.265 2.327-2.842 3.898l-.998 2.719c-.19.519.076 1.093.594 1.284.114.042.23.062.345.062.407 0 .79-.251.939-.656l.998-2.719c1.007-2.744 3.648-4.587 6.571-4.587h3.914c.63 0 1.142.512 1.142 1.142 0 .564-.422 1.051-.981 1.131l-5.161.737c-.546.078-.926.584-.848 1.131s.587.93 1.131.848l5.161-.737c.597-.085 1.133-.342 1.57-.711.022-.016 3.8-3.287 3.8-3.287.204-.178.462-.273.733-.246.27.019.515.141.693.345.361.416.32 1.052-.079 1.407l-5.312 4.48c-.419.359-.467.991-.107 1.41.198.23.478.349.759.349.23 0 .462-.079.651-.241l5.325-4.492c.941-.836 1.227-2.143.826-3.267h.198c.552 0 1-.448 1-1s-.448-1-1-1zm-20 0c0-4.962 4.038-9 9-9s9 4.038 9 9z"/></svg>