<svg id="Layer_1" viewBox="0 0 24 24" xmlns="http://www.w3.org/2000/svg" data-name="Layer 1"><path d="m23.945 13.673-2.988-8.651c-.215-.62-.778-1.021-1.434-1.022h-.003c-.654 0-1.217.398-1.435 1.017l-3.03 8.652c-.037.106-.056.218-.056.331v.302c0 2.506 1.846 4.698 4.503 4.698 2.702 0 4.497-2 4.497-4.5v-.5c0-.111-.019-.221-.055-.327zm-4.427-6.693 2.079 6.02h-4.187zm1.703 9.333c-.502.477-1.165.72-1.856.683-1.081-.057-1.986-.902-2.266-1.997h4.851c-.1.499-.35.954-.729 1.313z"/><path d="m10.315 7.233 3.042.507c.373.062.644.382.644.76 0 .551-.449 1-1 1h-2.268c-.356 0-.688-.192-.867-.5-.277-.479-.89-.643-1.366-.365-.479.277-.642.888-.365 1.366.535.925 1.53 1.499 2.598 1.499h.268c0 .553.448 1 1 1s1-.448 1-1c1.654 0 3-1.346 3-3 0-1.36-.974-2.51-2.315-2.733l-3.042-.507c-.373-.062-.644-.382-.644-.76 0-.551.449-1 1-1h2.268c.356 0 .688.192.867.5.277.479.89.643 1.366.365.479-.277.642-.888.365-1.366-.535-.925-1.53-1.499-2.598-1.499h-.268c0-.553-.448-1-1-1s-1 .448-1 1c-1.654 0-3 1.346-3 3 0 1.36.974 2.51 2.315 2.733z"/><path d="m19 22h-6v-7c0-.552-.448-1-1-1s-1 .448-1 1v7h-6c-.552 0-1 .448-1 1s.448 1 1 1h14c.552 0 1-.448 1-1s-.448-1-1-1z"/><path d="m9 14.5v-.5c0-.111-.019-.221-.055-.327l-2.988-8.651c-.215-.62-.778-1.021-1.434-1.022h-.003c-.654 0-1.217.398-1.435 1.017l-3.029 8.652c-.037.106-.056.218-.056.331v.302c0 2.506 1.641 4.698 4.503 4.698 2.414.055 4.541-2.088 4.497-4.5zm-4.482-7.52 2.079 6.02h-4.187zm-2.42 8.02h4.851c-.1.499-.35.954-.729 1.313-.502.477-1.165.72-1.856.683-1.081-.057-1.986-.902-2.266-1.997z"/><path d="m4.503 19c-.081 0 .082.004 0 0z"/></svg>