<svg id="Layer_1" viewBox="0 0 24 24" xmlns="http://www.w3.org/2000/svg" data-name="Layer 1"><path d="m18.986 5.724c-.146-3.18-2.771-5.724-5.986-5.724h-2c-3.215 0-5.84 2.544-5.986 5.724-3.14 2.15-5.014 5.646-5.014 9.473v7.803c0 .553.447 1 1 1s1-.447 1-1v-7.803c0-2.664 1.105-5.13 3-6.907v6.71c0 3.859 3.141 7 7 7s7-3.141 7-7v-6.71c1.895 1.777 3 4.243 3 6.907v7.803c0 .553.447 1 1 1s1-.447 1-1v-7.803c0-3.827-1.874-7.323-5.014-9.473zm-1.986 9.276c0 2.757-2.243 5-5 5s-5-2.243-5-5v-9c0-2.206 1.794-4 4-4h2c2.206 0 4 1.794 4 4zm-1.5-.5c0 .307-.187.583-.472.697l-1.308.523-.523 1.308c-.114.285-.39.472-.697.472s-.583-.187-.697-.472l-.526-1.316-1.318-.556c-.283-.119-.464-.398-.459-.705.006-.307.198-.579.484-.687l1.299-.492.52-1.301c.114-.285.39-.472.697-.472s.583.187.697.472l.523 1.308 1.308.523c.285.114.472.39.472.697zm-5.019-6.99-1.099-.463c-.236-.099-.387-.332-.382-.587s.165-.482.404-.573l1.082-.41.433-1.084c.095-.237.325-.393.58-.393s.486.156.58.393l.436 1.09 1.09.436c.237.095.393.325.393.58s-.156.486-.393.58l-1.09.436-.436 1.09c-.095.237-.325.393-.58.393s-.486-.156-.58-.393l-.439-1.097z"/></svg>