<svg id="Layer_1" viewBox="0 0 24 24" xmlns="http://www.w3.org/2000/svg" data-name="Layer 1"><path d="m21 15c1.654 0 3-1.346 3-3s-1.346-3-3-3c-.527 0-1.017.144-1.446.386-.288-.833-.717-1.597-1.247-2.28l1.407-1.407c.391.187.824.301 1.285.301 1.654 0 3-1.346 3-3s-1.346-3-3-3-3 1.346-3 3c0 .462.113.894.301 1.285l-1.409 1.409c-.682-.532-1.446-.96-2.279-1.249.24-.431.388-.919.388-1.446 0-1.654-1.346-3-3-3s-3 1.346-3 3c0 .527.148 1.015.388 1.446-.833.289-1.597.717-2.279 1.249l-1.409-1.409c.187-.391.301-.824.301-1.285 0-1.654-1.346-3-3-3s-3.001 1.346-3.001 3 1.346 3 3 3c.462 0 .894-.113 1.285-.301l1.407 1.407c-.529.683-.958 1.447-1.247 2.28-.428-.243-.919-.386-1.446-.386-1.654 0-3 1.346-3 3s1.346 3 3 3c.527 0 1.017-.144 1.446-.386.288.833.717 1.597 1.247 2.28l-1.407 1.407c-.391-.187-.824-.301-1.285-.301-1.654 0-3 1.346-3 3s1.346 3 3 3 3-1.346 3-3c0-.462-.113-.894-.301-1.285l1.409-1.409c.682.532 1.446.96 2.279 1.249-.24.431-.388.919-.388 1.446 0 1.654 1.346 3 3 3s3-1.346 3-3c0-.527-.148-1.015-.388-1.446.833-.289 1.597-.717 2.279-1.249l1.409 1.409c-.187.391-.301.824-.301 1.285 0 1.654 1.346 3 3 3s3-1.346 3-3-1.346-3-3-3c-.462 0-.894.113-1.285.301l-1.407-1.407c.529-.683.958-1.447 1.247-2.28.428.243.919.386 1.446.386zm0-4c.552 0 1 .448 1 1s-.448 1-1 1-1-.448-1-1 .448-1 1-1zm-18 2c-.552 0-1-.448-1-1s.448-1 1-1 1 .448 1 1-.448 1-1 1zm18-11c.552 0 1 .448 1 1s-.448 1-1 1-1-.448-1-1 .448-1 1-1zm-7 11.033c0 1.086-.881 1.967-1.967 1.967h-1.242c-.425 0-.771-.345-.771-.77l-.006-4.453c0-.425.343-.771.768-.772l1.251-.005c1.086 0 1.967.881 1.967 1.967zm-3-10.033c0-.552.448-1 1-1s1 .448 1 1-.448 1-1 1-1-.448-1-1zm-8 1c-.552 0-1-.448-1-1s.448-1 1-1 1 .448 1 1-.448 1-1 1zm0 18c-.552 0-1-.448-1-1s.448-1 1-1 1 .448 1 1-.448 1-1 1zm5.766-8.082c-.334.641-1.011 1.082-1.791 1.082-1.086 0-1.967-.881-1.967-1.967l-.008-2.066c0-1.086.881-1.967 1.967-1.967.779 0 1.457.44 1.791 1.082.218.418-.083.918-.557.918h-.016c-.22 0-.43-.117-.525-.315-.12-.249-.383-.428-.681-.433-.402.007-.725.333-.724.736 0 .095.008 1.886.008 2.024 0 .403.322.729.724.736.292-.005.549-.176.673-.417.105-.206.321-.331.552-.331.471 0 .772.5.555.918zm4.234 7.082c0 .552-.448 1-1 1s-1-.448-1-1 .448-1 1-1 1 .448 1 1zm8-1c.552 0 1 .448 1 1s-.448 1-1 1-1-.448-1-1 .448-1 1-1zm-2.5-5.714c0 .394-.32.714-.714.714-.293 0-.557-.179-.664-.452l-.922-2.332v2.184c0 .331-.269.6-.6.6-.331 0-.6-.269-.6-.6v-4.683c0-.396.321-.716.716-.716.292 0 .555.177.664.448l.919 2.278v-2.126c0-.331.269-.6.6-.6s.6.269.6.6v4.686zm-5.755-3.298v2.024c0 .403-.322.729-.724.736-.144-.002-.437-.003-.754-.003.003-.642.001-2.311 0-3.49.317 0 .61 0 .754-.003.402.007.725.333.724.736z"/></svg>