<svg id="Layer_1" viewBox="0 0 24 24" xmlns="http://www.w3.org/2000/svg" data-name="Layer 1"><path d="m23.289.009h-5.315s-.011.013-.011.013v-.014c-.027 0-1.993.018-1.993 2.002 0 2.675-1.786 3.556-2.967 3.847v-2.136c.594-.347.997-.984.997-1.721 0-1.105-.895-2-2-2s-2 .895-2 2c0 .74.406 1.379 1.004 1.725v2.132c-1.181-.289-2.974-1.169-2.974-3.849 0-1.984-1.966-2.002-1.993-2.002v.015l-.011-.015h-5.315c-.507.002-.855.521-.653.985.3.689.904.939 1.314 1.009h4.128c.259 0 .478.232.499.49v.01c.024.287-.212.5-.5.5l-2.789.004c-.541 0-.885.584-.618 1.054.536.943 1.748.942 1.748.942h2.62c.173 0 .333.091.424.238l.007.011c.204.329-.033.751-.421.751l-1.76.003c-.54 0-.885.583-.618 1.053.535.943 1.744.942 1.744.942h5.167s0 2.001 0 2.001h-2.896c-1.516 0-2.835 1.076-3.067 2.503-.333 1.776 1.157 3.538 2.96 3.497h3.001v2h-1.001c-1.654 0-3 1.346-3 3s1.346 3 3 3h1c1.103 0 2-.897 2-2v-2h2c1.654 0 3-1.346 3-3s-1.346-3-3-3h-1.998v-2h3.998c.692 0 1.163-.211 1.68-.57.624-.434.269-1.43-.492-1.43h-5.185v-2s5.161 0 5.161 0 1.209 0 1.744-.942c.267-.47-.078-1.053-.618-1.053l-1.76-.003c-.387 0-.624-.422-.421-.751l.007-.011c.091-.147.251-.238.424-.238h2.62s1.211 0 1.748-.942c.267-.47-.077-1.054-.618-1.054l-2.789-.004c-.288 0-.524-.213-.5-.5 0-.003 0-.007 0-.01.021-.258.24-.49.499-.49h4.127c.411-.069 1.014-.32 1.314-1.009.202-.464-.146-.983-.652-.984zm-12.289 21.991h-1c-.552 0-1-.448-1-1s.448-1 1-1h1zm.002-8h-3.002c-.606.011-1.102-.575-.985-1.175.075-.462.555-.825 1.093-.825h2.895v2zm3.998 2c.552 0 1 .448 1 1s-.448 1-1 1h-1.999v-2z"/></svg>