<svg id="Layer_1" viewBox="0 0 24 24" xmlns="http://www.w3.org/2000/svg" data-name="Layer 1"><path d="m21.298 13.885-1.093-.629c-.479-.274-1.09-.11-1.366.368-.275.479-.11 1.09.368 1.366l1.094.629c.471.258.647.904.368 1.365-.258.471-.906.647-1.365.368l-1.091-.627c-.393-.224-.893-.157-1.213.168-.576.589-1.259 1.055-2 1.407v-2.321c1.246-.939 2-2.416 2-3.979 0-1.534-.689-2.962-1.893-3.917-.887-.704-1.971-1.074-3.09-1.079-.006 0-.012-.004-.018-.004-.004 0-.007.002-.011.002-.39 0-.784.044-1.175.135-1.789.416-3.226 1.837-3.662 3.621-.488 1.995.249 4.023 1.848 5.222v2.32c-.741-.352-1.424-.818-2-1.407-.319-.325-.818-.395-1.213-.168l-1.091.627c-.461.277-1.107.104-1.365-.369-.277-.46-.102-1.106.369-1.364l1.093-.629c.395-.228.586-.693.466-1.132-.171-.624-.258-1.249-.258-1.858s.087-1.234.258-1.858c.121-.438-.071-.904-.466-1.132l-1.093-.629c-.472-.258-.646-.904-.368-1.365.258-.471.905-.648 1.365-.368l1.091.627c.396.227.895.157 1.213-.168.889-.908 2.012-1.557 3.25-1.877.441-.113.75-.512.75-.968v-1.262c0-.552.449-1 1-1s1 .448 1 1v1c0 .553.447 1 1 1s1-.447 1-1v-1c0-1.654-1.346-3-3-3s-3 1.346-3 3v.522c-1.047.37-2.016.929-2.857 1.649l-.45-.259c-1.379-.83-3.322-.31-4.096 1.105-.833 1.381-.31 3.321 1.105 4.097l.451.26c-.102.544-.153 1.088-.153 1.625s.051 1.081.153 1.625l-.451.26c-1.414.775-1.938 2.716-1.105 4.096.774 1.416 2.717 1.938 4.096 1.106l.45-.259c.84.72 1.811 1.268 2.857 1.638v.534c0 1.654 1.346 3 3 3s3-1.346 3-3v-.534c1.046-.37 2.017-.918 2.857-1.638l.449.259c1.383.83 3.321.309 4.097-1.105.832-1.381.309-3.322-1.105-4.097zm-8.298 7.115c0 .552-.449 1-1 1s-1-.448-1-1v-5.555c0-.356-.189-.686-.497-.864-1.185-.689-1.737-2.003-1.409-3.348.233-.951.983-1.747 1.906-2.065v2.332c0 .553.448 1 1 1s1-.447 1-1v-2.331c.307.109.598.268.863.479.723.574 1.137 1.431 1.137 2.352 0 1.068-.562 2.033-1.503 2.581-.308.18-.497.509-.497.864zm10.993-13.085c0 .272-.091.679-.523 1.062l-2.354 1.757c-.331.303-.911.346-1.336.148-.462-.207-.761-.661-.761-1.155v-2.002l-.409.299c-.441.325-1.07.232-1.397-.216-.326-.446-.229-1.071.216-1.397l1.245-.911-1.245-.911c-.445-.326-.542-.951-.216-1.397.325-.445.949-.544 1.397-.216l.409.299v-2.002c0-.494.299-.948.761-1.155.447-.2.958-.142 1.332.146 0 0 2.306 1.556 2.34 1.586.365.325.55.698.549 1.108 0 .409-.187.779-.552 1.101-.03.027-2.091 1.432-2.091 1.432s2.013 1.262 2.054 1.298c.144.127.581.514.582 1.127z"/></svg>