<svg id="Layer_1" viewBox="0 0 24 24" xmlns="http://www.w3.org/2000/svg" data-name="Layer 1"><path d="m19.5 3.133c-.597-.428-1.331.255-.958.889.687 1.17 2.458 2.978 2.458 4.978 0 4.955-4.135 7.494-8 9.01v-.543c.382-.411.857-.84 1.461-1.167.531-.288.685-.974.393-1.502-.073-.132-.154-.269-.235-.408 1.998-.975 3.381-3.021 3.381-5.39s-1.383-4.415-3.381-5.39c.081-.139.162-.276.235-.408.292-.528.138-1.214-.393-1.502-.673-.364-1.208-.855-1.605-1.308-.459-.523-1.254-.523-1.713 0-.397.452-.932.943-1.605 1.308-.531.288-.685.974-.393 1.502.073.132.154.269.235.408-1.998.975-3.381 3.021-3.381 5.39s1.383 4.415 3.381 5.39c-.081.139-.162.276-.235.408-.292.528-.138 1.214.393 1.502.604.327 1.079.755 1.461 1.167v.543c-3.865-1.516-8-4.055-8-9.01 0-2 1.771-3.808 2.458-4.978.372-.634-.361-1.316-.958-.889-1.924 1.38-4.499 3.405-4.499 6.867 0 4.476 2.819 6.924 3.5 9.452.12.444.593.683.999.468l2.896-1.721c.693.382 1.411.705 2.128.997-1.463.468-2.409.704-2.97 1.146l.003.002c-.337.275-.556.688-.556 1.157 0 .828.672 1.5 1.5 1.5s1.5-.672 1.5-1.5c0-.158-.031-.307-.076-.45.584-.2 1.291-.411 2.076-.65v.989c-.305.275-.5.668-.5 1.111 0 .828.672 1.5 1.5 1.5s1.5-.672 1.5-1.5c0-.443-.195-.836-.5-1.111v-.989c.785.239 1.492.451 2.076.65-.045.143-.076.292-.076.45 0 .828.672 1.5 1.5 1.5s1.5-.672 1.5-1.5c0-.469-.219-.882-.556-1.157l.003-.002c-.56-.441-1.508-.678-2.97-1.146.716-.292 1.435-.615 2.128-.997l2.896 1.721c.406.215.88-.024.999-.468.681-2.528 3.5-4.976 3.5-9.452 0-3.462-2.575-5.487-4.5-6.867zm-3.5 5.867c0 1.601-.951 2.975-2.312 3.613-.387-.921-.688-2.067-.688-3.613s.301-2.692.688-3.613c1.361.639 2.312 2.013 2.312 3.613zm-8 0c0-1.601.951-2.975 2.312-3.613.387.921.688 2.067.688 3.613s-.301 2.692-.688 3.613c-1.361-.639-2.312-2.013-2.312-3.613z"/></svg>