<svg id="Layer_1" viewBox="0 0 24 24" xmlns="http://www.w3.org/2000/svg" data-name="Layer 1"><path d="m11.979 22.797c.112.541-.235 1.07-.776 1.183-.527.112-1.072-.232-1.182-.776-.385-1.856-2.076-3.203-4.021-3.203s-3.636 1.347-4.021 3.203c-.112.54-.644.882-1.182.776-.541-.112-.889-.642-.776-1.183.576-2.779 3.09-4.797 5.979-4.797s5.403 2.018 5.979 4.797zm-9.979-10.797c0-2.206 1.794-4 4-4s4 1.794 4 4-1.794 4-4 4-4-1.794-4-4zm2 0c0 1.103.897 2 2 2s2-.897 2-2-.897-2-2-2-2 .897-2 2zm20-5.5c0 3.584-2.916 6.5-6.5 6.5s-6.5-2.916-6.5-6.5 2.916-6.5 6.5-6.5 6.5 2.916 6.5 6.5zm-2 0c0-2.481-2.019-4.5-4.5-4.5s-4.5 2.019-4.5 4.5 2.019 4.5 4.5 4.5 4.5-2.019 4.5-4.5zm-2.379-.5h-1.121v-2c0-.552-.448-1-1-1s-1 .448-1 1v2h-1.121c-.355 0-.676.213-.812.541-.138.329-.062.706.19.957l1.5 1.5c.685.685 1.8.685 2.485 0l1.5-1.5c.253-.252.326-.632.19-.957-.136-.328-.456-.541-.812-.541z"/></svg>