<svg id="Layer_1" viewBox="0 0 24 24" xmlns="http://www.w3.org/2000/svg" data-name="Layer 1"><path d="m21 23c0 .552-.448 1-1 1s-1-.448-1-1 .448-1 1-1 1 .448 1 1zm2-4c-.552 0-1 .448-1 1s.448 1 1 1 1-.448 1-1-.448-1-1-1zm-3 0c-.552 0-1 .448-1 1s.448 1 1 1 1-.448 1-1-.448-1-1-1zm-2-4v1c0 1.103-.897 2-2 2h-1c-1.103 0-2-.897-2-2v-1c0-1.103.897-2 2-2h1c1.103 0 2 .897 2 2zm-1.999 1v-1h-1.001v1zm1.999 5v1c0 1.103-.897 2-2 2h-1c-1.103 0-2-.897-2-2v-1c0-1.103.897-2 2-2h1c1.103 0 2 .897 2 2zm-1.999 1v-1h-1.001v1zm7.999-7v1c0 1.103-.897 2-2 2h-1c-1.103 0-2-.897-2-2v-1c0-1.103.897-2 2-2h1c1.103 0 2 .897 2 2zm-1.999 1v-1h-1.001v1zm1.999-12v1c0 .883-.391 1.67-1 2.22v2.78c0 .552-.448 1-1 1s-1-.448-1-1v-2h-18v11c0 1.654 1.346 3 3 3h4c.552 0 1 .448 1 1s-.448 1-1 1h-4c-2.757 0-5-2.243-5-5v-11.78c-.609-.549-1-1.337-1-2.22v-1c0-2.206 1.794-4 4-4h16c2.206 0 4 1.794 4 4zm-3 2c.551 0 1-.449 1-1v-1c0-1.103-.897-2-2-2h-16c-1.103 0-2 .897-2 2v1c0 .551.449 1 1 1z"/></svg>