<svg id="Layer_1" viewBox="0 0 24 24" xmlns="http://www.w3.org/2000/svg" data-name="Layer 1"><path d="m19.904 15.566c.411 2.015-.533 3.994-2.35 4.924-.343.175-.555.515-.555.887v1.623c0 .552-.447 1-1 1s-1-.448-1-1v-1.623c0-1.127.63-2.149 1.644-2.667.838-.429 1.566-1.444 1.302-2.745-.192-.944-.988-1.732-1.938-1.916-.859-.166-1.691.091-2.293.705-.377.385-1.053.385-1.43 0-.601-.614-1.436-.873-2.293-.705-.949.184-1.745.971-1.938 1.915-.265 1.301.464 2.316 1.303 2.745 1.013.519 1.643 1.541 1.643 2.667v1.623c0 .552-.447 1-1 1s-1-.448-1-1v-1.623c0-.372-.212-.712-.554-.887-1.817-.93-2.762-2.909-2.351-4.924.15-.74.5-1.411.978-1.973-.2-.092-.393-.199-.579-.322-1.714-1.135-2.445-3.203-1.819-5.144.118-.366.028-.756-.234-1.02l-4.147-4.145c-.391-.391-.391-1.023 0-1.414s1.023-.391 1.414 0l4.147 4.147c.797.797 1.074 1.965.724 3.048-.289.896-.086 2.129 1.021 2.862.803.53 1.922.525 2.725-.016.724-.488 1.133-1.261 1.123-2.12-.003-.269.103-.528.293-.718.189-.19.451-.312.719-.293.828-.012 1.63-.399 2.118-1.123.542-.801.549-1.921.017-2.724-.732-1.107-1.971-1.311-2.861-1.021-1.083.351-2.251.072-3.049-.724l-1.147-1.147c-.391-.39-.391-1.023 0-1.414s1.023-.391 1.414 0l1.147 1.147c.263.263.655.354 1.02.235 1.943-.625 4.009.104 5.145 1.819.981 1.483.971 3.471-.026 4.948-.682 1.009-1.716 1.688-2.873 1.918-.15.759-.511 1.453-1.014 2.041.225.102.446.211.653.349.981-.656 2.192-.908 3.389-.676 1.749.339 3.162 1.738 3.516 3.48zm.025-7.825c-.345-.467-1.067-.349-1.245.204-.275.853-.728 1.643-1.338 2.326.929.276 1.77.755 2.474 1.385.451.404 1.162.092 1.178-.513.035-1.258-.37-2.458-1.069-3.401z"/></svg>