<svg id="Layer_1" viewBox="0 0 24 24" xmlns="http://www.w3.org/2000/svg" data-name="Layer 1"><path d="m16.818 11.871-.88-2.053c-.474-1.104-1.556-1.818-2.757-1.818h-2.682c-1.379 0-2.5 1.122-2.5 2.5v2.5c0 .737.405 1.375 1 1.722v.278c0 .553.447 1 1 1s1-.447 1-1h3c0 .553.447 1 1 1s1-.447 1-1v-.275c.518-.308.871-.86.968-1.567.08-.381.018-.909-.15-1.287zm-6.318-1.871h2.682c.4 0 .761.238.919.606l.583 1.394h-4.684v-1.5c0-.276.225-.5.5-.5zm12.5 0c.553 0 1-.448 1-1v-1c0-2.757-2.243-5-5-5h-14c-2.757 0-5 2.243-5 5v8c0 2.757 2.243 5 5 5h14c2.757 0 5-2.243 5-5v-1c0-.553-.447-1-1-1-1.103 0-2-.897-2-2s.897-2 2-2zm-1 5.873c.067 1.697-1.298 3.131-3 3.127h-13c0-.553-.447-1-1-1-.491 0-.88.36-.965.827-1.179-.404-2.035-1.512-2.035-2.827v-8c0-1.315.856-2.422 2.035-2.827.085.466.474.827.965.827.553 0 1-.448 1-1h13c1.702-.004 3.067 1.429 3 3.126-1.724.445-3 2.013-3 3.874s1.276 3.429 3 3.873zm-16-6.873v1c0 .552-.447 1-1 1s-1-.448-1-1v-1c0-.552.447-1 1-1s1 .448 1 1zm0 5v1c0 .553-.447 1-1 1s-1-.447-1-1v-1c0-.553.447-1 1-1s1 .447 1 1z"/></svg>