<svg id="Layer_1" viewBox="0 0 24 24" xmlns="http://www.w3.org/2000/svg" data-name="Layer 1"><path d="m13 17.899v2.871c.043 1.727-1.118 3.23-3 3.23-.221 0-.758-.034-1.028-.104-5.269-1.37-8.972-6.282-8.972-11.769 0-6.537 5.5-12.127 12-12.127.538 0 .729.016 1.09.048.55.05.956.536.906 1.086s-.522.95-1.086.906c-.675-.062-1.367-.053-2.053.022-4.588.508-8.287 4.207-8.794 8.795-.553 5.001 2.704 9.878 7.412 11.103.367.097.745.016 1.044-.216.305-.236.48-.591.48-.975v-2.871c-2.279-.465-4-2.484-4-4.899v-1c-.552 0-1-.448-1-1s.448-1 1-1h2v-3c0-.552.448-1 1-1s1 .448 1 1v3h2c.553 0 1 .448 1 1s-.447 1-1 1h-4v1c0 1.654 1.346 3 3 3s3-1.346 3-3c0-.552.447-1 1-1s1 .448 1 1c0 2.414-1.721 4.434-4 4.899zm10.045-5.895c-.542-.043-1.036.356-1.086.906-.337 3.739-2.818 7.04-6.323 8.408-.514.201-.769.781-.567 1.295.201.52.794.767 1.296.568 4.204-1.642 7.183-5.604 7.587-10.092.05-.55-.356-1.036-.906-1.086zm-7.578-2.461c-.945-.939-1.467-2.189-1.467-3.52s.521-2.581 1.467-3.521l1.798-1.748c.966-.94 2.505-.94 3.472 0l1.789 1.74c.954.948 1.475 2.198 1.475 3.529s-.521 2.581-1.467 3.521c-.944.938-2.199 1.456-3.533 1.456s-2.591-.517-3.533-1.457zm.533-3.52c0 .794.312 1.541.877 2.102 1.133 1.128 3.111 1.129 4.246 0 .565-.562.877-1.309.877-2.103s-.312-1.541-.877-2.104l-1.869-1.817c-.07-.068-.162-.102-.254-.102s-.184.034-.254.102l-1.877 1.825c-.558.555-.869 1.301-.869 2.096z"/></svg>