<svg id="Layer_1" viewBox="0 0 24 24" xmlns="http://www.w3.org/2000/svg" data-name="Layer 1"><path d="m13.377 17.451c-.158.888-.998 1.533-2.002 1.549-.834.011-1.634-.321-2.168-.911v-.003c-.232-.255-.213-.65.042-.882h.002c.255-.233.65-.214.881.042.286.316.736.505 1.204.505.448 0 .764-.265.81-.521.062-.345-.451-.562-.61-.621-.752-.277-1.43-.58-1.43-.58-.6-.382-.864-.969-.777-1.579.094-.649.568-1.178 1.239-1.38.245-.095.779-.067 1.037-.07.807.116 1.383.58 1.415.607l.002.002c.263.221.298.614.076.877l-.004.005c-.221.263-.613.297-.876.076-.025-.021-.633-.495-1.29-.299-.293.088-.351.282-.362.361-.008.059-.013.206.13.302.016 0 .614.263 1.272.506 1.223.451 1.529 1.336 1.408 2.014zm-6.51-4.451c-.347 0-.628.281-.628.628l.005 4.745c0 .346.281.627.627.627.347 0 .628-.281.628-.628-.001-1.289-.003-3.274-.005-4.746 0-.346-.281-.626-.627-.626zm11.604 2 .008 2v.015c0 1.094-.902 1.985-2.012 1.985-1.086 0-1.967-.881-1.967-1.967l-.008-2.066c0-1.086.881-1.967 1.967-1.967 1.109 0 2.012.891 2.012 1.985zm-1.234 2.015-.008-2.015v-.015c0-.394-.342-.726-.75-.733-.402.007-.725.333-.724.736 0 .095.008 1.886.008 2.024 0 .403.322.729.724.736.408-.007.75-.338.75-.733zm4.763-6.53v8.515c0 2.757-2.243 5-5 5h-10c-2.757 0-5-2.243-5-5v-14c0-2.757 2.243-5 5-5h4.515c1.87 0 3.627.728 4.95 2.05l3.485 3.485c1.322 1.322 2.05 3.08 2.05 4.95zm-6.95-7.021c-.315-.315-.674-.564-1.05-.781v4.317c0 .551.449 1 1 1h4.317c-.217-.376-.466-.735-.781-1.05l-3.485-3.485zm4.95 7.021c0-.165-.032-.323-.047-.485h-4.953c-1.654 0-3-1.346-3-3v-4.953c-.162-.016-.32-.047-.485-.047h-4.515c-1.654 0-3 1.346-3 3v14c0 1.654 1.346 3 3 3h10c1.654 0 3-1.346 3-3z"/></svg>