<svg id="Layer_1" viewBox="0 0 24 24" xmlns="http://www.w3.org/2000/svg" data-name="Layer 1"><path d="m22 12h-20c-1.102 0-2 .897-2 2v5c0 2.756 2.244 4.999 5 4.999h13.999c2.757 0 5-2.243 5-5v-5c0-1.103-.897-2-2-2zm-7 2v8h-6v-8zm-13 5v-5h5v8h-2c-1.654 0-3-1.346-3-3zm20 0c0 1.654-1.346 3-3 3h-2v-8h5zm-20.5-16.5c0-1.378 1.122-2.5 2.5-2.5s2.5 1.121 2.5 2.5-1.121 2.5-2.5 2.5-2.5-1.121-2.5-2.5zm8 0c0-1.38 1.119-2.5 2.5-2.5s2.5 1.119 2.5 2.5-1.119 2.5-2.5 2.5-2.5-1.119-2.5-2.5zm8 0c0-1.38 1.119-2.5 2.5-2.5s2.5 1.119 2.5 2.5-1.119 2.5-2.5 2.5-2.5-1.119-2.5-2.5zm-1.436 6.146c.6-1.582 2.182-2.645 3.935-2.645s3.336 1.063 3.935 2.645c.195.517-.064 1.094-.581 1.289-.503.195-1.094-.059-1.29-.581-.307-.81-1.137-1.354-2.064-1.354s-1.758.544-2.064 1.354c-.196.517-.771.778-1.29.581-.517-.196-.776-.773-.581-1.289zm-7.999 0c.6-1.582 2.182-2.645 3.935-2.645s3.336 1.063 3.935 2.645c.195.517-.064 1.094-.581 1.289-.503.195-1.094-.059-1.29-.581-.307-.81-1.137-1.354-2.064-1.354s-1.758.544-2.064 1.354c-.197.517-.773.778-1.29.581-.517-.196-.776-.773-.581-1.289zm-8 0c.6-1.582 2.182-2.645 3.935-2.645s3.336 1.063 3.935 2.645c.195.517-.064 1.094-.581 1.289-.503.195-1.094-.059-1.29-.581-.307-.81-1.137-1.354-2.064-1.354s-1.758.544-2.064 1.354c-.196.517-.772.778-1.29.581-.517-.196-.776-.773-.581-1.289z"/></svg>