<svg id="Layer_1" viewBox="0 0 24 24" xmlns="http://www.w3.org/2000/svg" data-name="Layer 1"><path d="m19 0h-14c-2.757 0-5 2.243-5 5v14c0 2.757 2.243 5 5 5h14c2.757 0 5-2.243 5-5v-14c0-2.757-2.243-5-5-5zm3 19c0 1.654-1.346 3-3 3h-14c-1.654 0-3-1.346-3-3v-14c0-1.654 1.346-3 3-3h14c1.654 0 3 1.346 3 3zm-8.119-13.123-7.416 7.416c-.944.944-1.465 2.2-1.465 3.536v.671c0 .827.673 1.5 1.5 1.5h.671c1.336 0 2.591-.521 3.535-1.465l7.401-7.4c1.17-1.062 1.171-3.198.016-4.256-1.133-1.134-3.111-1.133-4.242 0zm-4.589 10.244c-.605.612-1.435.915-2.292.879-.036-.857.267-1.687.879-2.292l4.957-4.957 1.413 1.413-4.958 4.957zm7.416-7.416-1.044 1.044-1.413-1.413 1.045-1.045c.375-.376 1.02-.392 1.428.016.365.339.364 1.056-.016 1.398z"/></svg>