<svg id="Layer_1" viewBox="0 0 24 24" xmlns="http://www.w3.org/2000/svg" data-name="Layer 1"><path d="m24.013 1.5c-.007-.33-.335-.674-.645-.81-.758-.426-2.132-.69-3.855-.69-1.714 0-3.083.261-3.844.682-.353.125-.605.456-.656.818 0 .008-.013 2.5-.013 2.5h-6v-2.5c-.023-.339-.331-.684-.65-.814-.759-.423-2.131-.686-3.85-.686s-3.09.262-3.85.686c-.319.13-.627.475-.65.814v7.333c0 1.207 1.262 1.963 3.5 2.131v2.069c-2.102.136-3.5.701-3.5 1.467v7.333c0 1.377 1.64 2.167 4.5 2.167s4.5-.79 4.5-2.167v-7.333c0-.767-1.398-1.332-3.5-1.467v-2.069c1.26-.095 2.207-.377 2.797-.82l6.703 5.768v5.921c0 1.377 1.64 2.167 4.5 2.167s4.5-.79 4.5-2.167v-7.333c0-.883-1.85-1.5-4.5-1.5-1.801 0-3.215.289-3.947.749l-6.553-5.638v-2.111h6v2.833c0 1.377 1.64 2.167 4.5 2.167s4.5-.79 4.5-2.167c0 0 .013-7.306.013-7.333zm-17.013 1.273v1.738c-.264.18-1.02.489-2.5.489-1.504 0-2.25-.292-2.5-.458v-1.769c.698.144 1.544.227 2.5.227s1.802-.083 2.5-.227zm0 14.738c-.264.18-1.02.489-2.5.489-1.504 0-2.25-.292-2.5-.458v-1.769c.698.144 1.544.227 2.5.227s1.802-.083 2.5-.227zm-2.5 4.489c-1.386 0-2.204-.233-2.5-.393v-1.928c.65.194 1.459.321 2.5.321 1.02 0 1.838-.129 2.5-.331v1.938c-.296.159-1.114.393-2.5.393zm0-13c-1.386 0-2.204-.233-2.5-.393v-1.928c.65.194 1.459.321 2.5.321 1.02 0 1.838-.129 2.5-.331v1.938c-.296.159-1.114.393-2.5.393zm15 13c-1.386 0-2.204-.233-2.5-.393v-1.928c.65.194 1.459.321 2.5.321 1.02 0 1.838-.129 2.5-.331v1.938c-.296.159-1.114.393-2.5.393zm2.5-6.227v1.738c-.264.18-1.02.489-2.5.489-1.504 0-2.25-.292-2.5-.458v-1.769c.698.144 1.544.227 2.5.227s1.802-.083 2.5-.227zm0-12.998v1.744c-.275.181-1.03.481-2.487.481-1.527 0-2.275-.302-2.513-.466v-1.763c.701.146 1.552.229 2.513.229.95 0 1.791-.082 2.487-.224zm-2.5 6.224c-1.386 0-2.204-.233-2.5-.393v-1.932c.652.196 1.465.325 2.513.325 1.014 0 1.827-.128 2.487-.327v1.934c-.296.159-1.114.393-2.5.393z"/></svg>