<svg id="Layer_1" viewBox="0 0 24 24" xmlns="http://www.w3.org/2000/svg" data-name="Layer 1"><path d="m14.5 0c-3.039 0-4.968 1.357-6.518 2.448-1.223.861-2.191 1.54-3.455 1.55-.817-.25-1.537-.921-1.528-1.935v-1.063c0-.552-.448-1-1-1s-.999.448-.999 1v1.054c-.02 2.119 1.622 3.841 3.834 4.041 1.298.354 2.166 1.712 2.166 3.405v4c0 1.362-.372 3.056-2.134 3.426-2.188.171-3.879 1.929-3.863 4.025l.002 2.05c0 .552.448.999 1 .999.553 0 1-.449.999-1.001l-.002-2.057c-.007-.922.638-1.685 1.559-1.938 1.019.025 1.697.637 2.786 1.709 1.488 1.464 3.341 3.286 7.152 3.286 2.25 0 4.363-.793 5.949-2.233 1.646-1.495 2.552-3.543 2.551-5.767v-7.999c0-4.486-3.734-8-8.5-8zm-5.367 4.084c1.456-1.024 2.961-2.084 5.367-2.084 3.645 0 6.5 2.636 6.5 6v4.937c-.678.386-2.048 1.063-3.346 1.063-.93 0-1.697-.224-2.509-.46-.911-.266-1.853-.54-3.068-.54-1.162 0-2.255.258-3.079.526 0-.009.002-.017.002-.026v-4c0-1.732-.647-3.24-1.713-4.24.651-.342 1.254-.76 1.846-1.176zm9.971 16.202c-1.217 1.105-2.852 1.714-4.604 1.714-2.992 0-4.394-1.379-5.75-2.712-.48-.472-.97-.946-1.516-1.343.643-.533 1.12-1.255 1.413-2.144.485-.22 1.907-.801 3.43-.801.93 0 1.697.224 2.508.46.911.266 1.853.54 3.068.54 1.223 0 2.432-.407 3.346-.82v.82c0 1.652-.673 3.175-1.896 4.286zm-6.892-13.515 2.013-2.013c.428-.428 1.122-.428 1.55 0l2.013 2.013c.454.454.132 1.229-.509 1.229h-1.278v3c0 .552-.448 1-1 1s-1-.448-1-1v-3h-1.278c-.642 0-.963-.776-.509-1.229z"/></svg>