<svg id="Layer_1" viewBox="0 0 24 24" xmlns="http://www.w3.org/2000/svg" data-name="Layer 1"><path d="m24 7v8c0 2.757-2.243 5-5 5h-6v2h4c.552 0 1 .447 1 1s-.448 1-1 1h-10c-.552 0-1-.447-1-1s.448-1 1-1h4v-2h-6c-2.757 0-5-2.243-5-5v-8c0-1.22.444-2.395 1.25-3.308.365-.413.997-.454 1.412-.088.414.366.453.998.087 1.412-.483.547-.75 1.252-.75 1.983v8.001c0 1.654 1.346 3 3 3h14c1.654 0 3-1.346 3-3v-8c0-.731-.266-1.437-.75-1.983-.366-.414-.326-1.046.087-1.412.415-.366 1.046-.325 1.412.088.807.913 1.25 2.088 1.25 3.308zm-19 4v-8c0-1.654 1.346-3 3-3h8c1.654 0 3 1.346 3 3v8c0 1.654-1.346 3-3 3h-8c-1.654 0-3-1.346-3-3zm2 0c0 .552.449 1 1 1h8c.551 0 1-.448 1-1v-8c0-.552-.449-1-1-1h-8c-.551 0-1 .448-1 1zm2.449-3.75.693-.693 2.301 2.301-.693.693c-.535.535-.156 1.449.6 1.449h2.773c.484 0 .877-.393.877-.877v-2.773c0-.756-.914-1.135-1.449-.6l-.693.693-2.301-2.301.693-.693c.535-.535.156-1.449-.6-1.449h-2.773c-.484 0-.877.393-.877.877v2.773c0 .756.914 1.135 1.449.6z"/></svg>