<svg id="Layer_1" viewBox="0 0 24 24" xmlns="http://www.w3.org/2000/svg" data-name="Layer 1"><path d="m12 10c1.105 0 2 .895 2 2s-.895 2-2 2-2-.895-2-2 .895-2 2-2zm-4.082.586-2.829-2.829c-.391-.391-1.023-.391-1.414 0s-.391 1.024 0 1.414l1.837 1.829h-4.512c-.553 0-1 .448-1 1s.447 1 1 1h4.493l-1.82 1.83c-.39.392-.388 1.024.004 1.414s1.025.388 1.414-.004l2.828-2.843c.773-.775.773-2.036 0-2.812zm2.684-2.669c.74.772 2.073.772 2.812 0l2.828-2.829c.391-.391.391-1.024 0-1.414-.391-.391-1.023-.391-1.414 0l-1.828 1.837v-4.511c0-.552-.447-1-1-1s-1 .448-1 1v4.493l-1.83-1.82c-.392-.39-1.024-.388-1.414.004s-.388 1.025.004 1.414zm2.812 8.165c-.774-.774-2.036-.774-2.811-.002l-2.844 2.829c-.392.39-.394 1.022-.004 1.414.389.391 1.021.394 1.414.004l1.83-1.831v4.504c0 .553.447 1 1 1s1-.447 1-1v-4.504l1.828 1.829c.391.391 1.023.391 1.414 0s.391-1.023 0-1.414l-2.828-2.829zm9.586-5.082h-4.504l1.829-1.829c.391-.39.391-1.023 0-1.414s-1.023-.391-1.414 0l-2.829 2.829c-.774.775-.775 2.036-.002 2.811l2.829 2.844c.39.391 1.022.394 1.414.004s.394-1.022.004-1.414l-1.831-1.83h4.504c.553 0 1-.448 1-1s-.447-1-1-1z"/></svg>