<svg id="Layer_1" viewBox="0 0 24 24" xmlns="http://www.w3.org/2000/svg" data-name="Layer 1"><path d="m23.744 21.565c.369.411.335 1.043-.076 1.412-.733.66-1.681 1.023-2.668 1.023-1.128 0-2.222-.472-3-1.225-.778.753-1.872 1.225-3 1.225s-2.221-.472-3-1.225c-.778.753-1.872 1.225-3 1.225s-2.221-.472-3-1.225c-.778.753-1.872 1.225-3 1.225-.987 0-1.935-.363-2.668-1.023-.411-.369-.444-1.001-.075-1.412.369-.41 1.002-.444 1.412-.075.366.329.839.51 1.332.51.89 0 1.793-.585 2.057-1.333.141-.4.519-.667.943-.667s.801.267.943.667c.264.748 1.168 1.333 2.057 1.333s1.793-.585 2.057-1.333c.141-.4.519-.667.943-.667s.801.267.943.667c.264.748 1.168 1.333 2.057 1.333s1.793-.586 2.058-1.333c.141-.399.519-.667.942-.667s.802.267.942.667c.265.748 1.169 1.333 2.058 1.333.492 0 .966-.181 1.332-.51.408-.37 1.04-.336 1.412.075zm-10.757-5.233c-.534-.137-1.077.191-1.211.727-.135.536.19 1.079.727 1.213.067.017 1.044.256 2.374.256.922 0 2.013-.115 3.086-.498.293-.105.493-.337.591-.608.324-.755.435-1.594.447-2.421 0-3.829-3.092-6.946-6.91-6.995-3.889-.066-7.093 3.11-7.09 6.995 0 .801.134 1.585.398 2.333.142.399.519.667.943.667h1.29c.376 0 .72-.211.891-.546.73-1.435 1.811-2.395 1.821-2.404.415-.363.457-.994.094-1.409-.362-.416-.995-.459-1.411-.097-.049.043-1.074.946-1.942 2.382-.057-.303-.085-.612-.085-.925 0-2.596 1.996-4.711 4.53-4.952 1.118 1.591 1.37 3.517 1.376 3.564.059.55.564.944 1.103.883.549-.061.945-.555.885-1.104-.009-.081-.165-1.418-.84-2.938 1.733.786 2.947 2.524 2.947 4.547 0 .438-.073.864-.184 1.28-1.888.502-3.791.061-3.829.052zm11.013-11.332v12c0 .552-.447 1-1 1-.401.008-.916.04-1.207-.293l-.965-.965c.111-.564.172-1.146.172-1.742 0-.328-.02-.65-.054-.969l1.054 1.054v-3.171l-1.201 1.201c-.157-.736-.41-1.436-.735-2.093l.954-.954-2.086-2.086-.613.613c-.478-.472-1.013-.885-1.587-1.241l.786-.786-2.094-2.094-1.694 1.696c-.56-.109-1.138-.17-1.73-.17-.595 0-1.176.061-1.739.172l-1.69-1.691-2.088 2.088.786.786c-.574.356-1.109.769-1.587 1.241l-.613-.613-2.086 2.086.954.954c-.325.658-.578 1.357-.735 2.093l-1.201-1.201v3.17l1.054-1.056c-.034.319-.054.643-.054.971 0 .596.061 1.177.172 1.741l-.964.965c-.291.334-.807.301-1.208.293-.553.001-1.001-.447-1.001-.999v-12c0-2.757 2.243-5 5-5h14c2.757 0 5 2.243 5 5zm-20.346 1.568-1.646-1.646c0 .027-.008.051-.008.078v3.223l1.654-1.654zm3.502-3.502-1.066-1.066h-1.09c-.849 0-1.613.358-2.159.927l2.227 2.227zm6.854-.006s-.976-1.01-1.01-1.06h-2.005c-.036.055-1.011 1.066-1.011 1.066l2.011 2.011zm4.922 2.094 2.227-2.227c-.546-.569-1.31-.927-2.159-.927h-1.105l-1.058 1.059zm3.068-.154c0-.027-.007-.052-.008-.078l-1.646 1.646 1.654 1.654v-3.223z"/></svg>