<?xml version="1.0" encoding="UTF-8"?>
<svg xmlns="http://www.w3.org/2000/svg" id="Layer_1" data-name="Layer 1" viewBox="0 0 24 24">
  <path d="M23.201,2.021c-.468-.097-.934,.149-1.12,.586-1.059,2.278-3.288,4.733-4.685,5.38-.743-.742-2.239-1.987-3.896-1.987h-3c-1.656,0-3.152,1.245-3.896,1.986-1.396-.645-3.625-3.102-4.685-5.38-.187-.437-.655-.677-1.12-.585-.465,.095-.799,.505-.799,.979v6.834c0,3.842,3.267,9.394,9.51,12.571,1.582,.805,3.398,.805,4.98,0,6.243-3.177,9.51-8.729,9.51-12.571V3c0-.475-.334-.884-.799-.979Zm-1.201,7.814c0,3.154-2.95,8.007-8.416,10.788-1.008,.513-2.161,.512-3.167,0C4.95,17.841,2,12.988,2,9.834v-3.374c1.131,1.393,2.408,2.535,3.281,3.15,.858,.604,2.006,.516,2.734-.208,.882-.879,1.811-1.403,2.485-1.403h3c.675,0,1.604,.524,2.485,1.404,.729,.724,1.878,.807,2.733,.207,.873-.615,2.15-1.758,3.281-3.15v3.374Zm-7.066,1.702c.207,.51-.097,1.098-.631,1.233-1.547,.325-3.03,.316-4.584,.006-.55-.133-.872-.735-.648-1.254,.37-.857,1.186-1.521,2.122-1.521h1.645c.939,0,1.744,.673,2.095,1.537Z"/>
</svg>
