<svg id="Layer_1" viewBox="0 0 24 24" xmlns="http://www.w3.org/2000/svg" data-name="Layer 1"><path d="m10.5 1.5c0-.828.672-1.5 1.5-1.5s1.5.672 1.5 1.5-.672 1.5-1.5 1.5-1.5-.672-1.5-1.5zm-1.875 6.281.875-.7v2.919c0 .552.448 1 1 1s1-.448 1-1v-1h1v1c0 .552.448 1 1 1s1-.448 1-1v-2.919l.875.7c.429.344 1.059.277 1.406-.156.345-.431.274-1.061-.156-1.405l-1.329-1.063c-.935-.76-2.12-1.058-3.296-1.156-1.176.098-2.361.396-3.296 1.156l-1.329 1.063c-.431.345-.501.974-.156 1.405.347.431.974.501 1.406.156zm12.375-4.781c-1.654 0-3 1.346-3 3v5.184c-.266-.094-.542-.164-.832-.18-.793-.042-1.567.227-2.173.769l-3.009 2.768c-.082-.084-2.991-2.777-2.991-2.777-.597-.534-1.374-.807-2.163-.76-.29.016-.566.086-.832.18v-5.184c0-1.654-1.346-3-3-3s-3 1.346-3 3v10.101c0 2.137.832 4.146 2.343 5.656l1.95 1.95c.391.391 1.023.391 1.414 0s.391-1.023 0-1.414l-1.95-1.95c-1.133-1.133-1.757-2.64-1.757-4.242v-10.101c0-.551.448-1 1-1s1 .449 1 1v8c.06.695.241 1.391.746 1.973l2.616 2.721c.382.397 1.015.41 1.414.027.397-.383.41-1.016.027-1.414l-2.571-2.67c-.316-.378-.307-.938.022-1.306.342-.404 1.013-.442 1.396-.086l2.734 2.517c1.025.943 1.614 2.285 1.614 3.679v3.56c0 .553.447 1 1 1s1-.447 1-1v-3.56c0-1.152-.294-2.275-.824-3.276l3.163-2.911c.392-.368 1.058-.329 1.407.078.307.342.348.902.066 1.254l-2.533 2.634c-.383.398-.37 1.031.027 1.414.398.382 1.031.371 1.414-.027l2.578-2.685c.476-.554.666-1.239.701-1.922v-8c0-.551.448-1 1-1s1 .449 1 1v10.101c0 1.603-.624 3.109-1.757 4.242l-1.95 1.95c-.391.391-.391 1.023 0 1.414s1.023.391 1.414 0l1.95-1.95c1.511-1.511 2.343-3.52 2.343-5.656v-10.101c0-1.654-1.346-3-3-3z"/></svg>