<svg id="Layer_1" viewBox="0 0 24 24" xmlns="http://www.w3.org/2000/svg" data-name="Layer 1"><path d="m20.98 22.801c.109.541-.24 1.069-.781 1.179-.528.111-1.071-.236-1.18-.781-.376-1.853-2.024-3.198-3.92-3.198h-6.199c-1.895 0-3.544 1.345-3.92 3.198-.11.54-.632.893-1.18.781-.541-.11-.891-.638-.781-1.179.564-2.782 3.038-4.801 5.881-4.801h6.199c2.843 0 5.316 2.019 5.881 4.801zm-4.98-8.971c1.767-.323 3.001-2.071 3-3.83v-3c0-2.206-1.794-4-4-4h-6c-2.206 0-4 1.794-4 4v3c0 1.692 1.071 3.208 2.667 3.772.522.184 1.092-.089 1.276-.61s-.09-1.092-.61-1.276c-.797-.282-1.333-1.04-1.333-1.886v-3c0-1.103.897-2 2-2h6c1.103 0 2 .897 2 2v3c0 .847-.536 1.604-1.333 1.886-.521.184-.794.755-.61 1.276.146.411.531.667.943.667zm-1-13.83h-6c-3.859 0-7 3.14-7 7v3c0 .552.447 1 1 1s1-.448 1-1v-3c0-2.757 2.243-5 5-5h6c2.757 0 5 2.243 5 5v3c0 2.757-2.243 5-5 5h-1c0-1.105-.895-2-2-2s-2 .895-2 2 .895 2 2 2h3c3.859 0 7-3.14 7-7v-3c0-3.86-3.141-7-7-7zm-7 8.5c0 .828.672 1.5 1.5 1.5s1.5-.672 1.5-1.5-.672-1.5-1.5-1.5-1.5.672-1.5 1.5zm8 0c0-.828-.672-1.5-1.5-1.5s-1.5.672-1.5 1.5.672 1.5 1.5 1.5 1.5-.672 1.5-1.5z"/></svg>