<svg id="Layer_1" viewBox="0 0 24 24" xmlns="http://www.w3.org/2000/svg" data-name="Layer 1"><path d="m19 5h-3v-1c0-1.654-1.346-3-3-3h-2c-1.654 0-3 1.346-3 3v1h-3c-2.757 0-5 2.243-5 5v8c0 2.757 2.243 5 5 5h14c2.757 0 5-2.243 5-5v-8c0-2.757-2.243-5-5-5zm-9-1c0-.551.449-1 1-1h2c.551 0 1 .449 1 1v1h-4zm12 14c0 1.654-1.346 3-3 3h-14c-1.654 0-3-1.346-3-3v-8c0-1.654 1.346-3 3-3h14c1.654 0 3 1.346 3 3zm-10-9c-2.761 0-5 2.239-5 5s2.239 5 5 5 5-2.239 5-5-2.239-5-5-5zm2 6h-1v1c0 .552-.448 1-1 1s-1-.448-1-1v-1h-1c-.552 0-1-.448-1-1s.448-1 1-1h1v-1c0-.552.448-1 1-1s1 .448 1 1v1h1c.552 0 1 .448 1 1s-.448 1-1 1z"/></svg>