<?xml version="1.0" encoding="UTF-8"?>
<svg xmlns="http://www.w3.org/2000/svg" id="Layer_1" data-name="Layer 1" viewBox="0 0 24 24">
  <path d="M12,7c.69,0,1.25,.56,1.25,1.25h0c0,.69-.56,1.25-1.25,1.25h0c-.69,0-1.25-.56-1.25-1.25h0c0-.691,.56-1.25,1.25-1.25h0Zm-2-2.974c.552,0,1-.448,1-1,0-.317,.151-.623,.405-.819,.146-.111,.455-.282,.881-.171,.334,.087,.618,.39,.689,.736,.109,.524-.178,.937-.511,1.112-.476,.25-1.067,.562-1.363,1.167-.243,.496-.051,1.118,.445,1.36,.147,.072,.302,.106,.454,.106,.359,0,.699-.194,.87-.542,.072-.083,.356-.232,.526-.322,1.198-.631,1.816-1.952,1.538-3.289-.228-1.093-1.067-1.981-2.14-2.263-.917-.241-1.869-.05-2.611,.522-.741,.572-1.184,1.47-1.184,2.402,0,.552,.448,1,1,1Zm-5.237,4.674h0c-.635,.269-.932,1.003-.663,1.638,.269,.635,1.003,.932,1.638,.663h0c.635-.269,.932-1.003,.663-1.638-.269-.635-1.003-.932-1.638-.663Zm13.472,2.217h0c.635,.269,1.369-.027,1.638-.663h0c.269-.636-.028-1.369-.663-1.638h0c-.635-.269-1.369,.027-1.638,.663h0c-.269,.636,.028,1.369,.663,1.638ZM22.862,2.633c-.75-.579-1.701-.775-2.607-.538-.906,.237-1.664,.891-2.028,1.75-.215,.508,.022,1.095,.531,1.311,.51,.215,1.096-.022,1.311-.531,.124-.292,.382-.514,.692-.596,.179-.048,.527-.083,.879,.187,.273,.211,.416,.6,.347,.947-.104,.525-.529,.792-.904,.824-.397,.033-.912,.11-1.378,.412-.463,.301-.595,.92-.294,1.384,.192,.295,.513,.455,.84,.455,.187,0,.375-.052,.544-.161,.031-.021,.137-.07,.456-.097,1.349-.114,2.433-1.089,2.699-2.428,.218-1.096-.209-2.242-1.087-2.919Zm-1.862,14.367c0,2.206-1.794,4-4,4h-5v2c0,.553-.448,1-1,1s-1-.447-1-1v-1.369c-.734,.836-1.803,1.369-3,1.369-2.206,0-4-1.794-4-4,0-1.442,.781-2.75,2.005-3.453,.103-1.906,1.635-3.439,3.541-3.542,.703-1.224,2.011-2.005,3.454-2.005,1.219,0,2.368,.57,3.121,1.518,1.085,.107,2.06,.683,2.686,1.578,1.829,.376,3.193,1.997,3.193,3.904Zm-2,0c0-1.042-.821-1.913-1.869-1.982-.353-.023-.667-.231-.827-.548-.302-.598-.897-.97-1.554-.97-.002,.006-.052,.012-.102,.014-.392,.021-.735-.173-.923-.5-.364-.635-1.01-1.014-1.726-1.014-.85,0-1.606,.548-1.882,1.363-.155,.458-.612,.735-1.094,.668-.102-.016-.186-.031-.273-.031-.965,0-1.75,.785-1.75,1.75,0,.092,.017,.18,.031,.268,.074,.48-.207,.944-.667,1.101-.815,.276-1.363,1.032-1.363,1.882,0,1.103,.897,2,2,2s2-.897,2-2c0-.352-.092-.697-.267-.999-.276-.479-.113-1.09,.365-1.366,.478-.279,1.09-.114,1.367,.364,.351,.606,.536,1.298,.536,2.001h6c1.103,0,2-.897,2-2ZM3.81,4.408c.305,.44,.201,.932-.037,1.223-.294,.361-.64,.857-.693,1.503-.046,.55,.363,1.034,.914,1.08,.542,.048,1.036-.362,1.08-.914,.001-.019,.021-.125,.249-.404,.856-1.048,.91-2.506,.132-3.627-.636-.918-1.753-1.409-2.853-1.249-.938,.136-1.74,.683-2.2,1.5C-.059,4.335-.116,5.335,.248,6.193c.215,.508,.801,.746,1.311,.531,.509-.216,.746-.803,.531-1.311-.124-.292-.104-.633,.054-.912,.09-.16,.307-.438,.745-.501,.34-.053,.72,.118,.921,.408Z"/>
</svg>
