<svg id="Layer_1" viewBox="0 0 24 24" xmlns="http://www.w3.org/2000/svg" data-name="Layer 1"><path d="m21.989 8.31c-.754-.832-1.848-1.31-2.999-1.31h-5.342l.393-3h2.7c1.007 0 1.836-.32 2.348-.583.338-.174.504-.565.411-.934-.365-1.459-1.676-2.483-3.18-2.483h-.901c-1.316 0-2.485.784-3.001 1.958-.115.262-.177.544-.22.827-.009.011-.336 2.706-.519 4.216h-2.644l-.371-3.168c-.042-.299-.107-.598-.229-.875-.516-1.174-1.684-1.958-3-1.958h-.941c-1.504 0-2.815 1.024-3.18 2.483-.092.369.073.76.411.934.512.263 1.341.583 2.348.583h2.714l.262 2h-.05c-2.206 0-4 1.794-4 4v8c0 2.757 2.243 5 5 5h5c1.52 0 2.867-.696 3.785-1.77 0 0 .002 0 .002-.001 2.15-1.721 5.733-6.199 6.193-10.892.11-1.127-.242-2.201-.991-3.027zm-16.989 4.69h2.5c.275 0 .5.225.5.5v4c0 .275-.225.5-.5.5h-2.5zm8 9h-5c-1.302 0-2.402-.839-2.816-2h2.316c1.379 0 2.5-1.121 2.5-2.5v-4c0-1.379-1.121-2.5-2.5-2.5h-2.5c0-1.103.897-2 2-2h9v10c0 1.654-1.346 3-3 3zm5-3.992v-9.008h.99c.597 0 1.136.231 1.518.653.365.402.537.932.482 1.488-.236 2.407-1.553 4.931-2.99 6.866z"/></svg>