<svg id="Layer_1" viewBox="0 0 24 24" xmlns="http://www.w3.org/2000/svg" data-name="Layer 1"><path d="m.271 4.449c-.378-.403-.357-1.036.046-1.413 2.088-1.958 4.817-3.036 7.683-3.036s5.595 1.078 7.684 3.036c.403.377.424 1.01.046 1.413-.377.404-1.012.423-1.413.046-1.717-1.608-3.96-2.495-6.316-2.495s-4.601.886-6.317 2.495c-.401.378-1.036.359-1.413-.046zm11.913 2.205c-2.346-2.199-6.021-2.199-8.367 0-.403.377-.424 1.01-.046 1.414.38.403 1.012.424 1.413.045 1.58-1.48 4.053-1.48 5.633 0 .401.377 1.036.358 1.413-.045.378-.403.357-1.036-.046-1.414zm-2.184 15.347h-6c-1.103 0-2-.897-2-2v-1c0-1.103.897-2 2-2h5.5c.553 0 1-.448 1-1s-.447-1-1-1h-.5v-4c0-.552-.447-1-1-1s-1 .448-1 1v4h-3c-2.206 0-4 1.794-4 4v1c0 2.206 1.794 4 4 4h6c.553 0 1-.448 1-1s-.447-1-1-1zm14-4v2c0 2.206-1.794 4-4 4h-4c-2.206 0-4-1.794-4-4v-2c0-1.474.81-2.75 2-3.444v-1.556c0-2.206 1.794-4 4-4s4 1.794 4 4v1.556c1.19.694 2 1.97 2 3.444zm-8-4h4v-1c0-1.103-.897-2-2-2s-2 .897-2 2zm6 4c0-1.103-.897-2-2-2h-4c-1.103 0-2 .897-2 2v2c0 1.103.897 2 2 2h4c1.103 0 2-.897 2-2zm-4-.5c-.828 0-1.5.672-1.5 1.5s.672 1.5 1.5 1.5 1.5-.672 1.5-1.5-.672-1.5-1.5-1.5z"/></svg>