<svg id="Layer_1" viewBox="0 0 24 24" xmlns="http://www.w3.org/2000/svg" data-name="Layer 1"><path d="m21 23c0 .552-.448 1-1 1s-1-.448-1-1 .448-1 1-1 1 .448 1 1zm2-4c-.552 0-1 .448-1 1s.448 1 1 1 1-.448 1-1-.448-1-1-1zm-3 0c-.552 0-1 .448-1 1s.448 1 1 1 1-.448 1-1-.448-1-1-1zm-2-4v1c0 1.103-.897 2-2 2h-1c-1.103 0-2-.897-2-2v-1c0-1.103.897-2 2-2h1c1.103 0 2 .897 2 2zm-1.999 1v-1h-1.001v1zm1.999 5v1c0 1.103-.897 2-2 2h-1c-1.103 0-2-.897-2-2v-1c0-1.103.897-2 2-2h1c1.103 0 2 .897 2 2zm-1.999 1v-1h-1.001v1zm7.999-7v1c0 1.103-.897 2-2 2h-1c-1.103 0-2-.897-2-2v-1c0-1.103.897-2 2-2h1c1.103 0 2 .897 2 2zm-1.999 1v-1h-1.001v1zm-17.501-6c-.828 0-1.5.672-1.5 1.5s.672 1.5 1.5 1.5 1.5-.672 1.5-1.5-.672-1.5-1.5-1.5zm0-7c-.828 0-1.5.672-1.5 1.5s.672 1.5 1.5 1.5 1.5-.672 1.5-1.5-.672-1.5-1.5-1.5zm16.5 1.5c0-.828-.672-1.5-1.5-1.5s-1.5.672-1.5 1.5.672 1.5 1.5 1.5 1.5-.672 1.5-1.5zm-2-4.5h-14c-2.757 0-5 2.243-5 5v6c0 2.757 2.243 5 5 5h5c.552 0 1-.447 1-1s-.448-1-1-1h-5c-1.654 0-3-1.346-3-3v-6c0-1.654 1.346-3 3-3h14c1.654 0 3 1.346 3 3v5c0 .552.448 1 1 1s1-.448 1-1v-5c0-2.757-2.243-5-5-5zm-7 12c-2.206 0-4-1.794-4-4s1.794-4 4-4 4 1.794 4 4-1.794 4-4 4zm2-4c0-1.103-.897-2-2-2s-2 .897-2 2 .897 2 2 2 2-.897 2-2z"/></svg>