<svg id="Layer_1" viewBox="0 0 24 24" xmlns="http://www.w3.org/2000/svg" data-name="Layer 1"><path d="m23.279 10.516c-.687-.536-1.909-1.325-3.487-1.738.786-1.332 1.11-2.695 1.233-3.704.071-.577-.126-1.146-.54-1.56-.413-.414-.979-.614-1.561-.54-1.012.125-2.374.448-3.703 1.232-.413-1.578-1.201-2.799-1.736-3.485-.713-.918-2.259-.917-2.97 0-.537.687-1.325 1.91-1.738 3.489-1.333-.786-2.698-1.11-3.703-1.235-.573-.073-1.146.125-1.56.54-.414.414-.611.982-.54 1.56.124 1.009.447 2.371 1.233 3.704-1.578.413-2.8 1.201-3.486 1.737-.459.356-.722.898-.722 1.485s.263 1.129.721 1.484c.687.537 1.909 1.325 3.488 1.738-.786 1.333-1.111 2.697-1.234 3.703-.071.577.126 1.146.54 1.56.358.358.833.555 1.329.555.874 0 2.602-.463 3.934-1.249.413 1.579 1.201 2.801 1.737 3.487.356.459.898.722 1.485.722s1.129-.263 1.484-.721c.536-.687 1.324-1.908 1.737-3.486 1.329.784 2.983 1.251 3.936 1.247.495 0 .97-.196 1.328-.555.414-.414.611-.982.54-1.56-.124-1.007-.448-2.37-1.234-3.703 1.579-.413 2.801-1.201 3.487-1.737.459-.356.722-.898.722-1.485s-.263-1.128-.721-1.484zm-7.792-4.064c1.188-.953 2.541-1.331 3.534-1.472-.139.989-.518 2.342-1.473 3.534-.778.016-1.587.131-2.428.367.236-.841.351-1.65.367-2.428zm-6.974-.002c.016.779.131 1.589.367 2.43-.84-.236-1.649-.351-2.428-.367-.955-1.192-1.333-2.545-1.473-3.534.988.14 2.344.516 3.533 1.471zm0 11.099c-1.19.953-2.545 1.332-3.533 1.471.14-.987.516-2.342 1.471-3.533.779-.016 1.588-.131 2.429-.367-.236.841-.351 1.65-.367 2.429zm.648-4.624c-1.029.38-1.995.575-2.884.575-1.89 0-3.404-.899-4.206-1.5.8-.6 2.315-1.5 4.206-1.5.888 0 1.855.194 2.884.575-.096.293-.161.6-.161.925s.065.632.161.925zm2.839 9.003c-.6-.8-1.5-2.315-1.5-4.206 0-.888.194-1.855.575-2.884.293.096.6.161.925.161s.632-.065.925-.161c.38 1.029.575 1.995.575 2.884 0 1.89-.899 3.404-1.5 4.206zm-1-9.929c0-.552.448-1 1-1s1 .448 1 1-.448 1-1 1-1-.448-1-1zm1.925-2.839c-.293-.096-.601-.161-.925-.161s-.632.065-.925.161c-.38-1.029-.575-1.995-.575-2.884 0-1.89.899-3.404 1.5-4.206.6.8 1.5 2.315 1.5 4.206 0 .888-.194 1.855-.575 2.884zm2.561 8.385c-.016-.778-.131-1.586-.367-2.426.841.236 1.651.351 2.429.367.955 1.191 1.332 2.546 1.471 3.533-.993-.141-2.346-.521-3.534-1.474zm2.236-4.046c-.888 0-1.855-.194-2.884-.575.096-.293.161-.6.161-.925s-.065-.632-.161-.925c1.029-.38 1.995-.575 2.884-.575 1.891 0 3.406.9 4.206 1.5-.8.6-2.315 1.5-4.206 1.5z"/></svg>