<svg id="Layer_1" viewBox="0 0 24 24" xmlns="http://www.w3.org/2000/svg" data-name="Layer 1"><path d="m15 4h3v-3c0-.552.447-1 1-1s1 .448 1 1v3h3c.553 0 1 .448 1 1s-.447 1-1 1h-3v3c0 .552-.447 1-1 1s-1-.448-1-1v-3h-3c-.553 0-1-.448-1-1s.447-1 1-1zm8.802 5.819c.132.715.198 1.449.198 2.181 0 6.617-5.383 12-12 12s-12-5.383-12-12 5.383-12 12-12c.733 0 1.467.066 2.181.198.543.1.902.621.803 1.164-.101.543-.614.904-1.164.803-.595-.109-1.207-.165-1.819-.165-5.515 0-10.001 4.486-10.001 10 0 3.389 1.698 6.384 4.284 8.193.768-2.457 3.04-4.193 5.716-4.193s4.948 1.736 5.717 4.193c2.585-1.81 4.283-4.805 4.283-8.193 0-.611-.056-1.223-.165-1.819-.1-.543.26-1.064.803-1.164.543-.098 1.064.26 1.164.803zm-11.802 12.181c1.384 0 2.704-.284 3.904-.794-.372-1.849-1.975-3.206-3.904-3.206s-3.532 1.356-3.904 3.206c1.2.511 2.519.794 3.904.794zm4-12c0 2.206-1.794 4-4 4s-4-1.794-4-4 1.794-4 4-4 4 1.794 4 4zm-2 0c0-1.103-.897-2-2-2s-2 .897-2 2 .897 2 2 2 2-.897 2-2z"/></svg>