<?xml version="1.0" encoding="UTF-8"?>
<svg xmlns="http://www.w3.org/2000/svg" id="Layer_1" data-name="Layer 1" viewBox="0 0 24 24">
  <path d="M9,22H5c-1.654,0-3-1.346-3-3V5c0-1.654,1.346-3,3-3h4.515c.163,0,.325,.008,.485,.023v3.977c0,1.654,1.346,3,3,3h5.461c.705,.021,1.221-.781,.91-1.414-.349-.766-.827-1.456-1.421-2.05l-3.485-3.485c-1.322-1.322-3.08-2.05-4.95-2.05H5C2.243,0,0,2.243,0,5v14c0,2.757,2.243,5,5,5h4c.552,0,1-.448,1-1s-.448-1-1-1ZM12,2.659c.379,.218,.732,.488,1.05,.806l3.485,3.485c.017,.017,.033,.033,.049,.05h-3.585c-.551,0-1-.449-1-1V2.659Zm5,7.341c-3.86,0-7,3.14-7,7s3.14,7,7,7,7-3.14,7-7-3.14-7-7-7Zm0,12c-2.757,0-5-2.243-5-5s2.243-5,5-5,5,2.243,5,5-2.243,5-5,5Zm2.742-6.499c.556,.522,.138,1.523-.621,1.499h-1.121v2c0,.552-.448,1-1,1s-1-.448-1-1v-2h-1.121c-.759,.026-1.178-.98-.621-1.499l1.5-1.5c.685-.685,1.8-.685,2.485,0l1.5,1.5Z"/>
</svg>
