<svg id="Layer_1" viewBox="0 0 24 24" xmlns="http://www.w3.org/2000/svg" data-name="Layer 1"><path d="m24 18.664v.336c0 1.214-1.082 2.176-2.335 1.973-.984-.16-1.665-1.083-1.665-2.079v-.23l.842-2.664h-1.842v6h2c.552 0 1 .448 1 1s-.448 1-1 1h-6c-.552 0-1-.448-1-1s.448-1 1-1h2v-6h-1.842l.842 2.664v.23c0 .996-.681 1.92-1.665 2.079-1.253.203-2.335-.758-2.335-1.973v-.336l1.054-3.276c.266-.827 1.035-1.388 1.904-1.388h2.042c0-.552.448-1 1-1s1 .448 1 1h2.042c.869 0 1.638.561 1.904 1.388zm-13-4.664c0-.552-.448-1-1-1h-5c-.552 0-1 .448-1 1s.448 1 1 1h5c.552 0 1-.448 1-1zm-6 3c-.552 0-1 .448-1 1s.448 1 1 1h4c.552 0 1-.448 1-1s-.448-1-1-1zm7 6c0 .552-.448 1-1 1h-6c-2.757 0-5-2.243-5-5v-14c0-2.757 2.243-5 5-5h4.515c1.87 0 3.627.728 4.95 2.05l3.653 3.467c.935.934 1.882 2.667 1.882 3.982v.5c0 .552-.448 1-1 1s-1-.448-1-1h-5c-1.654 0-3-1.346-3-3v-4.951c-.162-.016-.321-.048-.485-.048h-4.515c-1.654 0-3 1.346-3 3v14c0 1.654 1.346 3 3 3h6c.552 0 1 .448 1 1zm1.069-19.518c-.323-.323-.688-.576-1.069-.796v4.314c0 .551.449 1 1 1h4.484c-.22-.395-.486-.774-.762-1.05l-3.653-3.467z"/></svg>