<svg id="Layer_1" viewBox="0 0 24 24" xmlns="http://www.w3.org/2000/svg" data-name="Layer 1"><path d="m15 21c0 1.654-1.346 3-3 3s-3-1.346-3-3v-.522c-1.047-.37-2.016-.929-2.857-1.649l-.45.259c-.693.399-1.502.506-2.277.295-.773-.208-1.419-.706-1.819-1.401-.825-1.434-.329-3.271 1.105-4.096l.451-.26c-.102-.544-.153-1.088-.153-1.625s.051-1.082.153-1.625l-.451-.259c-1.434-.825-1.93-2.663-1.105-4.097.399-.695 1.045-1.192 1.819-1.401.773-.209 1.583-.104 2.277.296l.45.258c.841-.72 1.81-1.28 2.857-1.649v-.522c0-1.654 1.346-3 3-3s3 1.346 3 3c0 .552-.447 1-1 1s-1-.448-1-1-.449-1-1-1-1 .449-1 1v1.262c0 .456-.309.854-.75.968-1.237.319-2.361.968-3.25 1.876-.319.326-.818.396-1.213.168l-1.091-.627c-.477-.275-1.09-.109-1.365.368-.275.478-.109 1.09.369 1.366l1.093.628c.395.227.586.693.466 1.132-.171.624-.258 1.25-.258 1.859s.087 1.235.258 1.859c.121.439-.071.905-.466 1.132l-1.093.628c-.478.275-.644.887-.369 1.365.276.479.888.643 1.365.369l1.091-.627c.396-.228.895-.157 1.213.168.889.908 2.012 1.557 3.25 1.876.442.114.75.512.75.968v1.262c0 .551.449 1 1 1s1-.449 1-1 .447-1 1-1 1 .448 1 1zm-3-11c.552 0 1-.448 1-1s-.448-1-1-1c-2.206 0-4 1.794-4 4s1.794 4 4 4c.552 0 1-.448 1-1s-.448-1-1-1c-1.103 0-2-.897-2-2s.897-2 2-2zm8-4h-5c-.553 0-1 .448-1 1s.447 1 1 1h5c1.654 0 3-1.346 3-3v-1.277c.595-.346 1-.984 1-1.723 0-1.105-.895-2-2-2s-2 .895-2 2c0 .738.405 1.376 1 1.723v1.277c0 .551-.448 1-1 1zm3 14.277v-1.277c0-1.654-1.346-3-3-3h-5c-.553 0-1 .448-1 1s.447 1 1 1h5c.552 0 1 .449 1 1v1.277c-.595.346-1 .984-1 1.723 0 1.105.895 2 2 2s2-.895 2-2c0-.738-.405-1.376-1-1.723zm-1-10.277c-.738 0-1.376.405-1.723 1h-5.277c-.553 0-1 .448-1 1s.447 1 1 1h5.277c.346.595.984 1 1.723 1 1.105 0 2-.895 2-2s-.895-2-2-2z"/></svg>