<svg id="Layer_1" viewBox="0 0 24 24" xmlns="http://www.w3.org/2000/svg" data-name="Layer 1"><path d="m11.287 18h.211l-.821 1.822c-.323.717-1.037 1.178-1.823 1.178h-3.854c-.552 0-1-.448-1-1s.448-1 1-1h3.854l.632-1.403c.556.257 1.166.403 1.801.403zm3.213 3c-.828 0-1.5.672-1.5 1.5s.672 1.5 1.5 1.5 1.5-.672 1.5-1.5-.672-1.5-1.5-1.5zm3 0c-.828 0-1.5.672-1.5 1.5s.672 1.5 1.5 1.5 1.5-.672 1.5-1.5-.672-1.5-1.5-1.5zm3 0c-.828 0-1.5.672-1.5 1.5s.672 1.5 1.5 1.5 1.5-.672 1.5-1.5-.672-1.5-1.5-1.5zm-17.5-4.5c0-.828-.672-1.5-1.5-1.5s-1.5.672-1.5 1.5.672 1.5 1.5 1.5 1.5-.672 1.5-1.5zm-3 3c0 .828.672 1.5 1.5 1.5s1.5-.672 1.5-1.5-.672-1.5-1.5-1.5-1.5.672-1.5 1.5zm0 3c0 .828.672 1.5 1.5 1.5s1.5-.672 1.5-1.5-.672-1.5-1.5-1.5-1.5.672-1.5 1.5zm24-11.5c0 .552-.447 1-1 1h-2.093c-.865 0-1.688-.374-2.258-1.024l-1.5-1.714-2.135 4.738h1.985c1.103 0 2 .897 2 2v3c0 .552-.447 1-1 1s-1-.448-1-1v-3h-5.713c-.779 0-1.497-.391-1.92-1.045s-.484-1.469-.163-2.18l2.151-4.775h-2.364c-.346 0-.662.175-.847.468l-1.298 2.064c-.294.468-.911.609-1.379.314-.468-.294-.608-.911-.314-1.379l1.298-2.064c.553-.879 1.503-1.403 2.54-1.403h5.693c1.441 0 2.813.623 3.764 1.708l1.707 1.951c.189.217.464.342.752.342h2.093c.553 0 1 .448 1 1zm-11.18 3 2.651-5.882c-.255-.07-.517-.118-.786-.118h-1.136l-2.522 5.597c-.057.124-.012.224.02.273s.104.13.24.13zm3.566-9c1.381 0 2.5-1.119 2.5-2.5s-1.119-2.5-2.5-2.5-2.5 1.119-2.5 2.5 1.119 2.5 2.5 2.5z"/></svg>