<svg id="Layer_1" viewBox="0 0 24 24" xmlns="http://www.w3.org/2000/svg" data-name="Layer 1"><path d="m21 23c0 .552-.447 1-1 1s-1-.448-1-1c0-3.019-1.925-5.59-4.609-6.57l-1.517 2.276 1.093 3.99c.182.666-.405 1.305-1.201 1.305h-1.532c-.796 0-1.383-.639-1.201-1.305l1.093-3.99-1.517-2.276c-2.684.98-4.609 3.551-4.609 6.571 0 .552-.448 1-1 1s-1-.448-1-1c0-4.962 4.038-9 9-9s9 4.038 9 9zm-17.127-10.178c.308-1.306 1.854-7.849 2.026-8.385.859-2.654 3.31-4.437 6.101-4.437s5.242 1.783 6.1 4.437c.174.536 1.72 7.079 2.028 8.385.126.538-.206 1.076-.744 1.203-.523.128-1.078-.202-1.203-.744-.7-2.968-1.857-7.827-1.984-8.23-.304-.942-.904-1.72-1.675-2.256-.528 1.312-1.447 2.423-2.67 3.185-1.081.674-2.303 1.021-3.546 1.021-.055 0-.111-.008-.167-.01.444 1.725 1.999 3.009 3.861 3.009.703 0 1.395-.185 1.999-.535.479-.278 1.091-.114 1.366.365.277.478.113 1.09-.364 1.366-.909.525-1.946.803-3.001.803-2.203 0-4.128-1.197-5.171-2.972-.344 1.439-.717 3.01-1.01 4.253-.127.538-.668.873-1.203.744-.538-.126-.871-.665-.744-1.203zm3.969-7.864c1.031.102 2.06-.118 2.952-.675.856-.534 1.491-1.314 1.863-2.23-.215-.032-.434-.052-.657-.052-1.886 0-3.54 1.187-4.158 2.958z"/></svg>