<svg id="Layer_1" viewBox="0 0 24 24" xmlns="http://www.w3.org/2000/svg" data-name="Layer 1"><path d="m2.5 8h.85c.826 2.327 3.043 4 5.65 4s4.824-1.673 5.65-4h.85c.828 0 1.5-.672 1.5-1.5v-1c0-.828-.672-1.5-1.5-1.5h-.85c-.826-2.327-3.043-4-5.65-4s-4.824 1.673-5.65 4h-.85c-.828 0-1.5.672-1.5 1.5v1c0 .828.672 1.5 1.5 1.5zm6.5 2c-1.877 0-3.445-1.304-3.874-3.051.22.022.438.051.66.051 2.619 0 4.939-1.515 6.061-3.803.711.722 1.153 1.711 1.153 2.803 0 2.206-1.794 4-4 4zm0-8c.395 0 .769.075 1.13.182-.764 1.692-2.447 2.818-4.344 2.818-.21 0-.42-.021-.628-.049.464-1.695 2.003-2.951 3.843-2.951zm13.976 12.149-1.087-.951c.065-.223.111-.454.111-.699 0-1.381-1.119-2.5-2.5-2.5s-2.5 1.119-2.5 2.5 1.119 2.5 2.5 2.5c.399 0 .77-.102 1.104-.268l1.054.922c.218.19.342.465.342.753v2.593c0 1.654-1.346 3-3 3h-1.192c.232-.656.234-1.385-.01-2.058-1.271-3.499-4.889-5.942-8.798-5.942s-7.528 2.444-8.798 5.944c-.339.934-.203 1.974.365 2.783s1.46 1.273 2.449 1.273h15.984c2.757 0 5-2.243 5-5v-2.593c0-.864-.373-1.688-1.024-2.258zm-7.18 7.43c-.188.268-.483.421-.812.421h-11.968c-.328 0-.624-.153-.812-.422-.196-.279-.241-.627-.123-.953.973-2.68 3.883-4.625 6.918-4.625s5.945 1.945 6.918 4.625c.118.326.074.674-.122.954z"/></svg>