<svg id="Layer_1" viewBox="0 0 24 24" xmlns="http://www.w3.org/2000/svg" data-name="Layer 1"><path d="m23.436 14.971c-.536-.506-1.3-.614-1.946-.277-.615.321-1.199.555-1.748.748 1.284-2.537 1.998-5.039 2.251-7.803.061-.666-.32-1.28-.95-1.529-.644-.253-1.361-.061-1.782.479-1.275 1.636-2.461 2.812-3.527 3.742-.553-3.472-1.299-6.974-2.012-9.09-.254-.754-.93-1.241-1.722-1.241-.792 0-1.468.488-1.722 1.241-.695 2.066-1.473 5.634-2.055 9.378-1.099-1.049-2.224-2.291-3.489-4.002-.001-.002-.002-.003-.003-.005-.409-.548-1.112-.753-1.751-.512-.642.243-1.033.866-.973 1.551.234 2.688.954 5.295 2.05 7.709-.556-.202-1.085-.426-1.546-.666-.645-.337-1.409-.228-1.946.277-.552.52-.717 1.333-.409 2.024.399.895.921 1.759 1.552 2.565 2.298 2.994 6.156 4.439 10.665 4.439 4.294 0 7.75-1.595 9.92-4.439.631-.807 1.153-1.671 1.552-2.565.308-.691.144-1.505-.409-2.024zm-3.651-5.87c-.473 2.713-1.513 5.222-3.263 7.9-.08-1.28-.237-2.775-.447-4.349 1.099-.885 2.343-1.978 3.71-3.551zm-7.785-6.68c.988 3.237 2.034 9.169 2.423 13.402-.861-.739-3.033-2.497-3.033-2.497-.472-.379-.928-.749-1.381-1.126.535-3.773 1.295-7.499 1.991-9.78zm-1.863 12.464s2.595 2.1 3.727 3.102c.433.368.748 1.011.748 1.563 0 1.432-.843 2.438-2.316 2.438-.523 0-1.011-.199-1.384-.542-.244-.215-.481-.437-.714-.664-3.108-3.045-5.223-7.146-5.976-11.561 2.139 2.627 3.98 4.109 5.914 5.664zm-6.854 3.445c-.381-.488-.714-.999-.995-1.524.929.415 1.997.769 3.051 1.019.801 1.32 1.727 2.554 2.77 3.673-2.006-.571-3.623-1.628-4.826-3.168zm17.433 0c-1.12 1.435-2.608 2.441-4.427 3.035.124-.306.216-.626.268-.958.655-.854 1.227-1.681 1.754-2.5.87-.17 2.065-.486 3.396-1.095-.28.523-.612 1.031-.992 1.518z"/></svg>