<svg id="Layer_1" viewBox="0 0 24 24" xmlns="http://www.w3.org/2000/svg" data-name="Layer 1"><path d="m4.5 12c-1.381 0-2.5-1.119-2.5-2.5s1.119-2.5 2.5-2.5 2.5 1.119 2.5 2.5-1.119 2.5-2.5 2.5zm9.5 2c0 .553-.448 1-1 1h-6v6c0 1.654-1.346 3-3 3h-1c-1.654 0-3-1.346-3-3v-4c0-2.206 1.794-4 4-4h6v-4.913l-9.553-5.815c-.277-.169-.447-.47-.447-.795 0-.685.715-1.135 1.332-.84l8.668 4.146v-3.783c0-.553.448-1 1-1s1 .447 1 1v12h1c.552 0 1 .447 1 1zm-9 1h-1c-1.103 0-2 .897-2 2v4c0 .552.449 1 1 1h1c.551 0 1-.448 1-1zm6 2c-.552 0-1 .447-1 1v5c0 .553.448 1 1 1s1-.447 1-1v-5c0-.553-.448-1-1-1zm13-13.442c0-.686-.78-1.081-1.333-.675l-.803.59-.437-2.863c-.054-.351-.355-.609-.71-.609-.396 0-.718.321-.718.718v4.122l-2 1.468v-5.309c0-.553-.448-1-1-1s-1 .447-1 1v22c0 .553.448 1 1 1s1-.447 1-1v-12.927l5.763-5.932c.152-.156.237-.366.237-.583z"/></svg>