<svg id="Layer_1" viewBox="0 0 24 24" xmlns="http://www.w3.org/2000/svg" data-name="Layer 1"><path d="m16.867 16.303c.275-.479.111-1.09-.368-1.366l-.659-.38c.094-.339.16-.689.16-1.058s-.066-.719-.16-1.058l.659-.38c.479-.276.643-.887.368-1.366-.275-.478-.888-.643-1.366-.368l-.649.374c-.5-.51-1.14-.876-1.852-1.061v-.642c0-.552-.448-1-1-1s-1 .448-1 1v.642c-.712.185-1.351.551-1.852 1.061l-.649-.374c-.478-.274-1.09-.11-1.366.368-.275.479-.111 1.09.368 1.366l.659.38c-.094.339-.16.689-.16 1.058s.066.719.16 1.058l-.659.38c-.479.276-.643.887-.368 1.366.278.483.895.64 1.366.368l.649-.374c.5.51 1.14.876 1.852 1.061v.642c0 .552.448 1 1 1s1-.448 1-1v-.642c.712-.185 1.351-.551 1.852-1.061l.649.374c.47.273 1.088.115 1.366-.368zm-4.867-.803c-1.103 0-2-.897-2-2s.897-2 2-2 2 .897 2 2-.897 2-2 2zm-7.5-8.5c1.93 0 3.5-1.57 3.5-3.5s-1.57-3.5-3.5-3.5-3.5 1.57-3.5 3.5 1.57 3.5 3.5 3.5zm0-5c.827 0 1.5.673 1.5 1.5s-.673 1.5-1.5 1.5-1.5-.673-1.5-1.5.673-1.5 1.5-1.5zm15 5c1.93 0 3.5-1.57 3.5-3.5s-1.57-3.5-3.5-3.5-3.5 1.57-3.5 3.5 1.57 3.5 3.5 3.5zm0-5c.827 0 1.5.673 1.5 1.5s-.673 1.5-1.5 1.5-1.5-.673-1.5-1.5.673-1.5 1.5-1.5zm-12.064 16.639c.751.75.751 1.972 0 2.723l-2.346 2.346c-.391.391-1.023.391-1.414 0s-.391-1.023 0-1.414l1.293-1.293h-.969c-2.205-.001-4-1.795-4-4.001v-2c0-.552.448-1 1-1s1 .448 1 1v2c0 1.103.897 2 2 2h.969l-1.293-1.293c-.391-.391-.391-1.023 0-1.414s1.023-.391 1.414 0zm-7.321-8.104c.822-1.563 2.502-2.535 4.385-2.535.208 0 .414.012.616.036.548.064.941.56.877 1.109s-.563.947-1.109.877c-1.207-.142-2.477.45-2.999 1.443-.258.493-.871.674-1.351.42-.489-.257-.677-.862-.42-1.351zm19.385-2.535c1.883 0 3.563.971 4.385 2.535.257.489.069 1.094-.42 1.351-.479.254-1.092.073-1.351-.42-.522-.994-1.794-1.584-2.999-1.443-.548.07-1.045-.329-1.109-.877s.329-1.045.877-1.109c.202-.023.407-.036.616-.036zm-.59 8.293c.391-.391 1.023-.391 1.414 0s.391 1.023 0 1.414l-1.293 1.293h.969c1.103 0 2-.897 2-2v-2c0-.552.448-1 1-1s1 .448 1 1v2c0 2.206-1.794 4-4 4h-.969s1.293 1.293 1.293 1.293c.391.391.391 1.023 0 1.414s-1.023.391-1.414 0l-2.346-2.346c-.751-.75-.751-1.972 0-2.723l2.346-2.346z"/></svg>