<svg id="Layer_1" viewBox="0 0 24 24" xmlns="http://www.w3.org/2000/svg" data-name="Layer 1"><path d="m7 11c0 2.757 2.243 5 5 5s5-2.243 5-5c0-.552.448-1 1-1s1 .448 1 1c0 3.86-3.14 7-7 7s-7-3.14-7-7 3.14-7 7-7c.552 0 1 .448 1 1s-.448 1-1 1c-2.757 0-5 2.243-5 5zm5 1c-.552 0-1-.448-1-1 0-.276.112-.526.293-.707l1.982-1.982c-1.112-.501-2.51-.319-3.397.568s0 0 0 0c-.566.566-.878 1.32-.878 2.121s.312 1.555.878 2.121 1.32.879 2.122.879 1.555-.312 2.121-.878.879-1.32.879-2.122c0-.454-.11-.888-.3-1.286l-1.992 1.992c-.181.181-.431.293-.707.293zm1.275-3.69c.309.139.6.322.846.568s.433.531.578.835l1.714-1.714h2.586c.265 0 .52-.105.707-.293l2-2c.286-.286.372-.716.217-1.09s-.52-.617-.924-.617h-2v-1.999c0-.404-.244-.769-.617-.924-.375-.155-.804-.07-1.09.217l-2 2c-.188.188-.293.442-.293.707v2.586l-1.725 1.725zm6.02 10.9c2.267-2.016 3.705-4.945 3.705-8.21 0-.371-.018-.737-.054-1.099-.055-.549-.542-.951-1.094-.896-.549.055-.951.544-.896 1.094.029.296.044.597.044.901 0 4.962-4.038 9-9 9s-9-4.038-9-9 4.038-9 9-9c.304 0 .604.015.901.044.556.056 1.04-.347 1.094-.896.055-.55-.347-1.04-.896-1.094-.362-.036-.729-.054-1.099-.054-6.065 0-11 4.935-11 11 0 3.265 1.438 6.194 3.705 8.21l-2.051 3.257c-.294.467-.154 1.084.313 1.379.46.292 1.083.158 1.379-.313l1.972-3.132c1.661 1.008 3.601 1.599 5.682 1.599s4.021-.591 5.682-1.599l1.972 3.132c.296.471.919.605 1.379.313.467-.294.608-.912.313-1.379z"/></svg>