<svg id="Layer_1" viewBox="0 0 24 24" xmlns="http://www.w3.org/2000/svg" data-name="Layer 1"><path d="m3 2.5c0-1.381 1.119-2.5 2.5-2.5s2.5 1.119 2.5 2.5-1.119 2.5-2.5 2.5-2.5-1.119-2.5-2.5zm.892 11.836 3.108 1.325v2.339c0 .552.447 1 1 1s1-.448 1-1v-2.339c0-.803-.478-1.526-1.217-1.84l-3.079-1.312c-.486-.226-.704-.92-.704-1.509v-2.352c0-.351.267-.648.582-.648.286 0 .494.122 1.078.49l1.861 1.096c.461.271.987.415 1.522.415h1.955c.553 0 1-.448 1-1s-.447-1-1-1h-1.955c-.179 0-.354-.048-.508-.138l-1.836-1.08c-.637-.402-1.239-.782-2.118-.782h-.005c-1.422.002-2.578 1.19-2.578 2.648v2.352c0 1.189.489 2.687 1.892 3.336zm18.44 7.153c-.366.329-.84.51-1.332.51-.889 0-1.793-.586-2.058-1.333-.141-.399-.519-.667-.942-.667s-.802.267-.942.667c-.265.748-1.169 1.333-2.058 1.333s-1.793-.586-2.058-1.333c-.141-.399-.519-.667-.942-.667s-.802.267-.942.667c-.265.748-1.169 1.333-2.058 1.333s-1.793-.586-2.058-1.333c-.141-.399-.519-.667-.942-.667s-.802.267-.942.667c-.265.748-1.169 1.333-2.058 1.333-.492 0-.966-.181-1.332-.51-.409-.369-1.041-.335-1.412.075-.369.411-.335 1.043.076 1.412.733.66 1.681 1.023 2.668 1.023 1.128 0 2.222-.472 3-1.225.778.753 1.872 1.225 3 1.225s2.222-.472 3-1.225c.778.753 1.872 1.225 3 1.225s2.222-.472 3-1.225c.778.753 1.872 1.225 3 1.225.987 0 1.935-.363 2.668-1.023.411-.369.445-1.001.076-1.412-.372-.411-1.003-.445-1.412-.075z"/><path d="m23 8h-3.531l-1.894-2.273c-.386-.462-.951-.727-1.553-.727-1.114 0-2.021.907-2.021 2.021v3.957c0 1.115.907 2.021 2.021 2.021.602 0 1.167-.265 1.554-.728l1.893-2.272h3.531c.553 0 1-.448 1-1s-.447-1-1-1zm-7 2.979v-4.014l.038.043 1.654 1.985z"/></svg>