<svg id="Layer_1" viewBox="0 0 24 24" xmlns="http://www.w3.org/2000/svg" data-name="Layer 1"><path d="m10.292 12.643c-.821.611-1.292 1.508-1.292 2.461v7.896c0 .552-.448 1-1 1s-1-.448-1-1v-7.896c0-1.592.765-3.074 2.099-4.066.694-.516 1.023-1.375.857-2.242-.165-.862-.882-1.582-1.745-1.75-1.267-.247-2.253.551-2.574 1.468-.088.254-.276.461-.52.575-.244.115-.523.125-.775.031-.42-.156-.831-.154-1.252.008-.515.199-.924.673-1.043 1.206-.125.554-.001 1.091.346 1.512 1.036 1.255 1.606 2.835 1.606 4.449v6.705c0 .552-.448 1-1 1s-1-.448-1-1v-6.705c0-1.15-.408-2.278-1.148-3.175-.739-.895-1.014-2.07-.755-3.223.265-1.184 1.136-2.193 2.273-2.634.579-.223 1.178-.3 1.771-.235.911-1.497 2.662-2.295 4.456-1.946 1.67.326 3.006 1.667 3.326 3.337.311 1.626-.313 3.245-1.628 4.223zm13.052-9.671c-.27-1.722-1.736-2.972-3.486-2.972-1.133 0-2.13.197-3.049.601-1.994.877-4.097.46-5.509-.044-1.035-.369-2.121-.557-3.229-.557-4.738 0-5.969 3.533-6.02 3.684-.173.52.106 1.077.624 1.256.518.178 1.085-.098 1.27-.614.034-.095.87-2.326 4.126-2.326.878 0 1.738.148 2.556.44 1.755.626 4.393 1.134 6.988-.009.659-.29 1.393-.431 2.242-.431.759 0 1.394.539 1.51 1.282.289 1.842.633 4.851.633 8.718 0 2.567-.149 5.051-.443 7.381-.189 1.493-1.477 2.619-2.994 2.619-.883 0-1.718-.384-2.256-1.01l-3.512-4.597c-.334-.439-.962-.522-1.401-.188s-.523.962-.188 1.401l3.546 4.64c.954 1.114 2.343 1.753 3.811 1.753 2.522 0 4.663-1.877 4.979-4.368.305-2.413.459-4.981.459-7.632 0-3.996-.357-7.115-.656-9.028z"/></svg>