<?xml version="1.0" encoding="UTF-8"?>
<svg xmlns="http://www.w3.org/2000/svg" id="Layer_1" data-name="Layer 1" viewBox="0 0 24 24">
  <path d="M0,13c0-.552,.447-1,1-1H23c.553,0,1,.448,1,1s-.447,1-1,1H1c-.553,0-1-.447-1-1Zm3.586,3c-.401,0-.738,.299-.786,.697l-.546,4.533-.552-4.535c-.048-.397-.386-.696-.786-.696h0c-.483,0-.853,.428-.784,.906l.859,5.917c.085,.58,.499,1.177,1.265,1.177s1.174-.554,1.273-1.222l.842-5.873c.068-.477-.302-.904-.784-.904ZM7.204,7.052c.566,.312,1.179,.44,1.784,.433-.471-1.984-1.292-2.994-3.471-5.484,0,0,2.001,.258,3.63,1.986,.635,.717,1.125,1.427,1.496,2.494,.193,.724,.318,1.58,.358,2.56,.02,.471,.364,.864,.829,.944,.455,.081,.923-.173,1.098-.612,.25-.622,.999-1.514,1.98-2.154,.871,.824,2.2,1.038,3.302,.422,1.483-.83,2.936-2.24,3.709-3.781,.243-.484,.024-1.07-.478-1.272-1.119-.45-3.453-.996-5.482-.111-1.212,.528-1.981,1.727-1.91,2.941-.48,.29-.944,.617-1.354,.995-.101-.466-.231-.89-.38-1.286,.556-1.582-.091-3.376-1.624-4.222C7.864-.653,4.882,.146,3.562,.753c-.487,.224-.683,.808-.442,1.287,.871,1.732,2.175,3.959,4.084,5.012Zm5.296,12.448h-.45c-.442,0-.8,.358-.8,.8,0,.389,.283,.697,.65,.77v.658c0,.33-.237,.625-.564,.667-.396,.051-.736-.258-.736-.644v-3.477c0-.33,.237-.625,.564-.667,.306-.039,.577,.135,.686,.395,.032,.077,.2,.5,.85,.5,.5,0,.772-.607,.721-.8-.252-.941-1.077-1.663-2.089-1.699-1.28-.045-2.332,.979-2.332,2.249v3.446c0,1.22,.949,2.259,2.168,2.302,1.28,.045,2.332-.979,2.332-2.249v-1.25c0-.552-.448-1-1-1Zm10.7-3.5c-.442,0-.8,.358-.8,.8v3.2l-1.092-3.36c-.124-.382-.48-.64-.881-.64h0c-.512,0-.927,.415-.927,.927v6.273c0,.442,.358,.8,.8,.8s.8-.358,.8-.8v-3.2l1.092,3.36c.124,.382,.48,.64,.881,.64h0c.512,0,.927-.415,.927-.927v-6.273c0-.442-.358-.8-.8-.8Zm-15.731,1.6c.442,0,.8-.358,.8-.8s-.358-.8-.8-.8h-1.4c-.442,0-.8,.358-.8,.8v6.4c0,.442,.358,.8,.8,.8h1.4c.442,0,.8-.358,.8-.8s-.358-.8-.8-.8h-.601v-1.551h.601c.442,0,.8-.358,.8-.8s-.358-.8-.8-.8h-.601v-1.65h.601Zm10.237-.183l.942,5.634c.083,.497-.3,.95-.805,.95h-.001c-.401,0-.742-.291-.805-.687l-.034-.213h-1.395l-.034,.212c-.063,.396-.404,.688-.806,.688-.504,0-.887-.452-.805-.949l.923-5.59c.109-.668,.563-1.462,1.414-1.462s1.311,.837,1.405,1.416Zm-.959,4.084l-.445-2.783-.44,2.783h.886Z"/>
</svg>
