<svg id="Layer_1" viewBox="0 0 24 24" xmlns="http://www.w3.org/2000/svg" data-name="Layer 1"><path d="m22.677 14.034c-.534.142-.851.689-.709 1.224.021.08.032.161.032.242 0 1.18-2.352 2.5-5.5 2.5s-5.5-1.32-5.5-2.5c0-.628.654-1.145 1.043-1.396.464-.301.596-.92.296-1.384-.3-.463-.919-.596-1.383-.296-1.032.669-1.677 1.523-1.88 2.449-.513.076-1.037.127-1.576.127-3.148 0-5.5-1.32-5.5-2.5v-.918c1.36.875 3.303 1.418 5.5 1.418.939 0 1.854-.099 2.719-.293.539-.121.877-.656.756-1.194-.121-.54-.66-.88-1.195-.757-.722.162-1.489.244-2.281.244-3.148 0-5.5-1.32-5.5-2.5s2.352-2.5 5.5-2.5c.466 0 .928.029 1.373.086.548.059 1.049-.317 1.119-.865s-.317-1.049-.865-1.119c-.529-.067-1.076-.102-1.627-.102-4.205 0-7.499 1.977-7.499 4.5v8c0 2.523 3.294 4.5 7.5 4.5.624 0 1.234-.059 1.833-.146.937 1.842 3.751 3.146 7.167 3.146 4.206 0 7.5-1.977 7.5-4.5v-4c0-.255-.034-.51-.1-.758-.142-.533-.69-.853-1.224-.708zm-20.677 2.466v-.918c1.36.875 3.303 1.418 5.5 1.418.508 0 1.008-.038 1.5-.096v1.98c-.489.068-.988.115-1.5.115-3.148 0-5.5-1.32-5.5-2.5zm14.5 5.5c-3.148 0-5.5-1.32-5.5-2.5v-.918c1.36.875 3.303 1.418 5.5 1.418s4.14-.543 5.5-1.418v.918c0 1.18-2.352 2.5-5.5 2.5zm1.045-8.109c.26.134.566.144.835.034 3.665-1.509 5.555-3.861 5.618-7.011v-2.575c.001-1.391-.886-2.62-2.207-3.059l-3.477-1.152c-.204-.068-.425-.068-.629 0l-3.478 1.152c-1.321.438-2.208 1.668-2.208 3.058v2.597c.06 2.77 1.926 5.109 5.545 6.956zm-3.545-9.552c0-.527.337-.994.837-1.16l3.163-1.048 3.162 1.048c.501.166.838.633.838 1.159v2.556c-.045 2.178-1.34 3.816-3.957 4.999-2.679-1.453-4.003-3.092-4.044-4.979v-2.575z"/></svg>