<svg id="Layer_1" viewBox="0 0 24 24" xmlns="http://www.w3.org/2000/svg" data-name="Layer 1"><path d="m14.5 19.5c0 1.381-1.119 2.5-2.5 2.5s-2.5-1.119-2.5-2.5 1.119-2.5 2.5-2.5 2.5 1.119 2.5 2.5zm5.49 4.372c-.155.087-.323.128-.489.128-.35 0-.688-.184-.872-.51l-4.213-7.49h-4.831l-4.213 7.49c-.183.326-.522.51-.872.51-.166 0-.334-.041-.489-.128-.481-.271-.652-.88-.381-1.362l4.371-7.771v-13.739c0-.552.447-1 1-1s1 .448 1 1v5h4v-5c0-.552.447-1 1-1s1 .448 1 1v13.739l4.371 7.771c.271.481.101 1.091-.381 1.362zm-5.99-9.872v-6h-4v6z"/></svg>