<svg id="Layer_1" viewBox="0 0 24 24" xmlns="http://www.w3.org/2000/svg" data-name="Layer 1"><path d="m0 2.952c.006-.307.198-.579.484-.687l1.299-.492.52-1.301c.114-.285.39-.472.697-.472s.583.187.697.472l.523 1.308 1.308.523c.285.114.472.39.472.697s-.187.583-.472.697l-1.308.523-.523 1.308c-.114.285-.39.472-.697.472s-.583-.187-.697-.472l-.526-1.316-1.318-.556c-.283-.118-.464-.397-.459-.704zm12.399 17.749c-1.131.85-2.48 1.299-3.899 1.299-3.584 0-6.5-2.916-6.5-6.5s2.916-6.5 6.5-6.5c1.057 0 2.105.259 3.033.75.489.258 1.093.071 1.352-.417.258-.488.071-1.093-.417-1.352-1.214-.642-2.586-.981-3.968-.981-4.687 0-8.5 3.813-8.5 8.5s3.813 8.5 8.5 8.5c1.856 0 3.62-.588 5.101-1.7.441-.332.53-.959.199-1.4s-.958-.529-1.4-.199zm11.418-16.039-1.075 2.878-1.124 14.043c-.11 1.355-1.26 2.417-2.618 2.417s-2.507-1.06-2.618-2.412l-1.148-14.116-1.049-2.802c-.434-1.157-.071-2.48.88-3.219.616-.479 1.935-1.451 3.936-1.451 1.435 0 2.661.457 3.935 1.442.953.738 1.316 2.062.883 3.22zm-3.519 8.338h-2.608l.685 8.425c.026.322.301.575.624.575s.599-.253.624-.577l.674-8.423zm.32-4h-3.253l.163 2h2.93zm1.092-5.976c-.888-.688-1.919-1.088-2.618-1.028-.714-.061-1.911.344-2.801 1.035-.267.207-.362.592-.233.938l1.135 3.031h3.601c.024-.156 1.151-3.038 1.151-3.038.129-.346.033-.731-.234-.938zm-10.103 10.896-1.09-.436-.436-1.09c-.095-.237-.325-.393-.58-.393s-.486.156-.58.393l-.433 1.084-1.082.41c-.239.09-.399.317-.404.573s.147.488.382.587l1.099.463.439 1.097c.095.237.325.393.58.393s.486-.156.58-.393l.436-1.09 1.09-.436c.237-.095.393-.325.393-.58s-.156-.486-.393-.58z"/></svg>