<svg id="Layer_1" viewBox="0 0 24 24" xmlns="http://www.w3.org/2000/svg" data-name="Layer 1"><path d="m14 18h2c1.103 0 2-.897 2-2v-2c0-1.103-.897-2-2-2h-2c-1.103 0-2 .897-2 2v2c0 1.103.897 2 2 2zm0-4h2v2h-2zm9.744 7.565c.369.411.335 1.043-.076 1.412-.733.66-1.681 1.023-2.668 1.023-1.13 0-2.221-.479-3-1.236-.779.757-1.87 1.236-3 1.236s-2.221-.479-3-1.236c-.779.757-1.87 1.236-3 1.236s-2.221-.479-3-1.236c-.779.757-1.869 1.236-3 1.236-.987 0-1.935-.363-2.668-1.023-.411-.369-.444-1.001-.075-1.412.369-.41 1.002-.444 1.412-.075.366.329.839.51 1.332.51.89 0 1.793-.585 2.057-1.333.323-.857 1.562-.857 1.886 0 .264.748 1.167 1.333 2.057 1.333s1.793-.585 2.057-1.333c.323-.857 1.563-.856 1.886 0 .264.748 1.167 1.333 2.057 1.333s1.793-.586 2.058-1.333c.323-.856 1.562-.856 1.885 0 .265.748 1.169 1.333 2.058 1.333.492 0 .966-.181 1.332-.51.408-.37 1.04-.336 1.412.075zm-1.947-12.804-4.56-3.077c-1.358-.916-3.114-.917-4.475 0l-1.097.74c-.29-.669-.757-1.259-1.373-1.689-.265-.185-.298-.483-.294-.644.013-.546-.089-1.091-.303-1.62-.463-1.144-1.438-2.014-2.609-2.327-.719-.191-1.453-.192-2.172 0-1.171.313-2.146 1.183-2.609 2.326-.214.529-.316 1.074-.303 1.619.003.162-.03.459-.294.645-1.069.746-1.708 1.967-1.708 3.265-.056.644.311 1.469.506 2.056-.314.586-.515 1.27-.506 1.944 0 2.206 1.794 4 4 4 .726 0 1.409-.194 2-.534v1.534c0 .552.448 1 1 1s1-.448 1-1v-4.095c0-.999.494-1.928 1.322-2.486l4.56-3.077c.68-.459 1.557-.459 2.236 0l4.56 3.077c.828.558 1.322 1.488 1.322 2.486v4.095c0 .552.447 1 1 1s1-.448 1-1v-4.095c0-1.665-.824-3.214-2.203-4.145zm-13.594 0c-1.137.767-1.887 1.957-2.119 3.282-.234 1.04-.911 1.979-2.084 1.957-1.103 0-2-.897-2-2 0-.308.071-.603.23-.917.161-.309.537-1.033-.014-2.194-.143-.301-.216-.601-.216-.89 0-.645.318-1.253.853-1.625.741-.518 1.17-1.389 1.148-2.331-.006-.271.047-.547.158-.822.226-.556.713-.995 1.272-1.145.382-.103.757-.102 1.139 0 .56.15 1.047.589 1.272 1.146.111.274.164.55.158.822-.022.941.407 1.812 1.148 2.33.416.291.695.726.801 1.208l-1.746 1.178z"/></svg>