<?xml version="1.0" encoding="UTF-8"?>
<svg xmlns="http://www.w3.org/2000/svg" id="Layer_1" data-name="Layer 1" viewBox="0 0 24 24">
  <path d="M17,21c0,1.381-1.119,2.5-2.5,2.5-1.025,0-1.903-.618-2.289-1.5H1c-.553,0-1-.448-1-1s.447-1,1-1H12.211c.386-.882,1.264-1.5,2.289-1.5,1.381,0,2.5,1.119,2.5,2.5Zm.5-17c-1.381,0-2.5,1.119-2.5,2.5s1.119,2.5,2.5,2.5,2.5-1.119,2.5-2.5-1.119-2.5-2.5-2.5Zm6.5,1v7c0,2.757-2.243,5-5,5H5c-2.757,0-5-2.243-5-5V5C0,2.243,2.243,0,5,0h14c2.757,0,5,2.243,5,5Zm-2,0c0-1.654-1.346-3-3-3H5c-1.654,0-3,1.346-3,3v7c0,1.654,1.346,3,3,3h14c1.654,0,3-1.346,3-3V5Zm-10.443,.514c-2.048,1.013-3.207,2.596-3.855,3.929-.9-.953-2.014-1.305-2.466-1.415-.534-.132-1.078,.2-1.207,.736-.13,.537,.199,1.077,.736,1.207,.544,.132,1.845,.613,2.161,2.221,.093,.47,.505,.805,.981,.805,.009,0,.019,0,.027,0,.488-.014,.896-.379,.964-.863,.019-.135,.498-3.321,3.545-4.828,.495-.245,.698-.845,.453-1.34-.246-.495-.845-.699-1.34-.453Zm11.443,14.486h-3c-.553,0-1,.448-1,1s.447,1,1,1h3c.553,0,1-.448,1-1s-.447-1-1-1Z"/>
</svg>
