<svg id="Layer_1" viewBox="0 0 24 24" xmlns="http://www.w3.org/2000/svg" data-name="Layer 1"><path d="m14.328 13h2.835c.434 1.441 1.757 2.5 3.337 2.5 1.93 0 3.5-1.57 3.5-3.5s-1.57-3.5-3.5-3.5c-1.58 0-2.903 1.059-3.337 2.5h-2.835c-.79 0-1.562-.32-2.121-.878l-2.371-2.372 1.871-1.872c.559-.558 1.331-.878 2.121-.878h3.335c.434 1.441 1.757 2.5 3.337 2.5 1.93 0 3.5-1.57 3.5-3.5s-1.57-3.5-3.5-3.5c-1.58 0-2.903 1.059-3.337 2.5h-3.335c-1.336 0-2.591.52-3.535 1.464l-1.871 1.872-1.644-1.645c.136-.374.223-.771.223-1.191 0-1.93-1.57-3.5-3.5-3.5s-3.501 1.57-3.501 3.5 1.57 3.5 3.5 3.5c.776 0 1.486-.262 2.067-.691l1.441 1.441-1.441 1.441c-.581-.429-1.291-.691-2.067-.691-1.93 0-3.5 1.57-3.5 3.5s1.57 3.5 3.5 3.5c.776 0 1.486-.262 2.067-.691l1.441 1.441-1.441 1.441c-.581-.429-1.291-.691-2.067-.691-1.93 0-3.5 1.57-3.5 3.5s1.57 3.5 3.5 3.5 3.5-1.57 3.5-3.5c0-.42-.086-.818-.223-1.191l1.644-1.645 1.871 1.872c.944.944 2.199 1.464 3.535 1.464h3.335c.434 1.441 1.757 2.5 3.337 2.5 1.93 0 3.5-1.57 3.5-3.5s-1.57-3.5-3.5-3.5c-1.58 0-2.903 1.059-3.337 2.5h-3.335c-.79 0-1.562-.32-2.121-.878l-1.871-1.872 2.371-2.372c.559-.558 1.331-.878 2.121-.878zm6.172-2.5c.827 0 1.5.673 1.5 1.5s-.673 1.5-1.5 1.5-1.5-.673-1.5-1.5.673-1.5 1.5-1.5zm0-8c.827 0 1.5.673 1.5 1.5s-.673 1.5-1.5 1.5-1.5-.673-1.5-1.5.673-1.5 1.5-1.5zm-17 2.5c-.827 0-1.5-.673-1.5-1.5s.673-1.5 1.5-1.5 1.5.673 1.5 1.5-.673 1.5-1.5 1.5zm0 17c-.827 0-1.5-.673-1.5-1.5s.673-1.5 1.5-1.5 1.5.673 1.5 1.5-.673 1.5-1.5 1.5zm17-3.5c.827 0 1.5.673 1.5 1.5s-.673 1.5-1.5 1.5-1.5-.673-1.5-1.5.673-1.5 1.5-1.5zm-17-5c-.827 0-1.5-.673-1.5-1.5s.673-1.5 1.5-1.5 1.5.673 1.5 1.5-.673 1.5-1.5 1.5zm4.922 1.336-1.644-1.645c.136-.374.223-.771.223-1.191s-.086-.818-.223-1.191l1.644-1.645 2.371 2.372c.175.175.37.319.565.464-.195.145-.39.29-.565.464z"/></svg>