<svg id="Layer_1" viewBox="0 0 24 24" xmlns="http://www.w3.org/2000/svg" data-name="Layer 1"><path d="m6 18h12c.552 0 1 .448 1 1s-.448 1-1 1h-12c-.552 0-1-.448-1-1s.448-1 1-1zm1.493-3.804c-.314.88.336 1.804 1.271 1.804h3.236c1.747 0 3.146-1.493 2.988-3.274s-1.944-2.997-3.699-2.66c-2.087.402-3.226 2.535-3.795 4.13zm-4.493-7.696c0 .828.672 1.5 1.5 1.5s1.5-.672 1.5-1.5-.672-1.5-1.5-1.5-1.5.672-1.5 1.5zm5.5-1.5c-.828 0-1.5.672-1.5 1.5s.672 1.5 1.5 1.5 1.5-.672 1.5-1.5-.672-1.5-1.5-1.5zm14.5 3c-.552 0-1 .448-1 1v10c0 1.654-1.346 3-3 3h-14c-1.654 0-3-1.346-3-3v-8h4c.552 0 1-.448 1-1s-.448-1-1-1h-4v-2c0-1.654 1.346-3 3-3h8c.552 0 1-.448 1-1s-.448-1-1-1h-8c-2.757 0-5 2.243-5 5v12c0 2.757 2.243 5 5 5h14c2.757 0 5-2.243 5-5v-10c0-.552-.448-1-1-1zm-9.657.688c.413.368 1.044.331 1.412-.083l1.404-1.578c1.523-1.714 4.072-4.582 4.232-4.752.362-.362.973-.36 1.332 0 .368.369.369.968.002 1.336l-5.775 5.775c-.391.391-.391 1.023 0 1.414s1.023.391 1.414 0l5.776-5.776c1.145-1.147 1.145-3.015 0-4.162-1.107-1.11-3.031-1.132-4.179.016-.171.179-2.047 2.289-4.328 4.856l-1.371 1.542c-.367.413-.33 1.044.083 1.412z"/></svg>