<svg id="Layer_1" viewBox="0 0 24 24" xmlns="http://www.w3.org/2000/svg" data-name="Layer 1"><path d="m10.5 3.5c0-1.381 1.119-2.5 2.5-2.5s2.5 1.119 2.5 2.5-1.119 2.5-2.5 2.5-2.5-1.119-2.5-2.5zm-5.5 3.5c0-1.105-.895-2-2-2s-2 .895-2 2 .895 2 2 2 2-.895 2-2zm18.792 3.262c-.272.463-.756.738-1.292.738h-4.629c-.371 0-.734-.067-1.079-.201l-1.557-.599-2.171 6.121 1.722 1.275c.761.563 1.215 1.465 1.215 2.411v2.992c0 .553-.447 1-1 1s-1-.447-1-1v-2.992c0-.315-.151-.616-.405-.804l-4.58-3.392-2.773 7.555c-.19.523-.779.783-1.284.594-.518-.19-.784-.765-.594-1.283l5.056-13.776c.264-.718.792-1.287 1.489-1.603.696-.317 1.473-.339 2.186-.064l4.417 1.698c.116.045.236.067.359.067h3.748l-4.478-7.485c-.283-.475-.129-1.089.345-1.372.475-.281 1.088-.129 1.372.345l4.938 8.257c.276.5.269 1.057-.004 1.519zm-10.424-.779-.991-.381c-.209-.082-.437-.074-.642.019-.204.093-.359.259-.437.47v.001l-1.565 4.264 1.65 1.222 1.985-5.594z"/></svg>