<svg id="Layer_1" viewBox="0 0 24 24" xmlns="http://www.w3.org/2000/svg" data-name="Layer 1"><path d="m23.883 15.469c-.198.373-.66 1.127-1.445 1.843l.627 1.007c.292.469.148 1.086-.32 1.378-.462.289-1.083.152-1.378-.32l-.598-.96c-.517.236-1.106.415-1.769.509v1.076c0 .552-.448 1-1 1s-1-.448-1-1v-1.076c-.682-.096-1.285-.282-1.813-.528l-.574.92c-.295.472-.916.609-1.378.319-.469-.292-.611-.909-.319-1.378l.61-.978c-.764-.706-1.214-1.443-1.409-1.811-.259-.488-.073-1.093.415-1.352.487-.26 1.092-.074 1.352.415.308.579 1.513 2.469 4.117 2.469s3.809-1.89 4.117-2.469c.259-.488.864-.673 1.352-.415s.673.864.415 1.352zm-12.414-1.352c-.487-.259-1.093-.074-1.352.415-.308.579-1.513 2.469-4.117 2.469s-3.809-1.89-4.117-2.469c-.26-.488-.865-.674-1.352-.415-.488.259-.673.864-.415 1.352.195.368.645 1.105 1.409 1.811l-.61.978c-.292.469-.149 1.085.319 1.378.462.289 1.083.153 1.378-.319l.574-.92c.528.246 1.131.432 1.813.528v1.076c0 .552.448 1 1 1s1-.448 1-1v-1.076c.663-.093 1.252-.273 1.769-.509l.598.96c.294.473.916.609 1.378.32.469-.292.612-.909.32-1.378l-.627-1.007c.785-.716 1.247-1.469 1.445-1.843.259-.488.073-1.093-.415-1.352zm-11.469-7.117c0-2.206 1.794-4 4-4h3c1.654 0 3 1.346 3 3h5v-2c0-.552.448-1 1-1s1 .448 1 1v2h1v-2c0-.552.448-1 1-1s1 .448 1 1v2h1v-2c0-.552.448-1 1-1s1 .448 1 1v2c.552 0 1 .448 1 1s-.448 1-1 1v2c0 .552-.448 1-1 1s-1-.448-1-1v-2h-1v2c0 .552-.448 1-1 1s-1-.448-1-1v-2h-1v2c0 .552-.448 1-1 1s-1-.448-1-1v-2h-5c0 1.654-1.346 3-3 3h-3c-2.206 0-4-1.794-4-4zm2 0c0 1.103.897 2 2 2h3c.551 0 1-.449 1-1v-2c0-.551-.449-1-1-1h-3c-1.103 0-2 .897-2 2z"/></svg>