<svg id="Layer_1" viewBox="0 0 24 24" xmlns="http://www.w3.org/2000/svg" data-name="Layer 1"><path d="m23.707 22.293-4.259-4.259c1.592-1.908 2.552-4.36 2.552-7.034 0-6.065-4.935-11-11-11s-11 4.935-11 11 4.935 11 11 11c2.673 0 5.125-.961 7.034-2.552l4.259 4.259c.391.391 1.023.391 1.414 0s.391-1.023 0-1.414zm-12.707-2.293c-4.962 0-9-4.037-9-9s4.038-9 9-9 9 4.037 9 9-4.037 9-9 9zm4.422-12.008c.852.065 1.582-.643 1.578-1.492 0-.828-.672-1.5-1.5-1.5-.849-.004-1.557.726-1.492 1.578l-.622.622c-.421-.266-.887-.465-1.386-.579v-.621c0-.553-.448-1-1-1s-1 .447-1 1v.621c-.5.114-.965.313-1.386.579l-.622-.622c.065-.852-.643-1.582-1.492-1.578-.828 0-1.5.672-1.5 1.5-.004.849.726 1.557 1.578 1.492l.622.622c-.266.421-.465.887-.579 1.386h-.621c-.552 0-1 .447-1 1s.448 1 1 1h.621c.114.5.313.965.579 1.386l-.622.622c-.852-.065-1.582.643-1.578 1.492 0 .828.672 1.5 1.5 1.5.849.004 1.557-.726 1.492-1.578l.622-.622c.421.266.887.465 1.386.579v.621c0 .553.448 1 1 1s1-.447 1-1v-.621c.5-.114.965-.313 1.386-.579l.622.622c-.065.852.643 1.582 1.492 1.578.828 0 1.5-.672 1.5-1.5.004-.849-.726-1.557-1.578-1.492l-.622-.622c.266-.421.465-.887.579-1.386h.621c.553 0 1-.447 1-1s-.447-1-1-1h-.621c-.114-.5-.313-.965-.579-1.386zm-4.422 5.508c-1.378 0-2.5-1.121-2.5-2.5s1.122-2.5 2.5-2.5 2.5 1.121 2.5 2.5-1.122 2.5-2.5 2.5z"/></svg>