<svg id="Layer_1" viewBox="0 0 24 24" xmlns="http://www.w3.org/2000/svg" data-name="Layer 1"><path d="m8 2.5c0-1.381 1.119-2.5 2.5-2.5s2.5 1.119 2.5 2.5-1.119 2.5-2.5 2.5-2.5-1.119-2.5-2.5zm-8 7.5v-2c0-.366.106-.705.278-1-.172-.295-.278-.634-.278-1v-2c0-1.103.897-2 2-2h2c1.103 0 2 .897 2 2v2c0 .366-.106.705-.278 1 .172.295.278.634.278 1v2c0 1.103-.897 2-2 2h-2c-1.103 0-2-.897-2-2zm4-2h-2v2h2zm-2-2h2v-2h-2zm22 14.5c0 1.93-1.57 3.5-3.5 3.5-1.391 0-2.585-.822-3.149-2h-5.351c-.553 0-1-.448-1-1s.447-1 1-1h1v-2.275c0-.377-.209-.719-.545-.891l-2.828-1.443c-1.005-.52-1.627-1.541-1.627-2.667v-4.277c0-.716.283-1.358.799-1.809.631-.552 1.661-.822 2.572-.566l4.821 1.929h1.655c1.131 0 2.124.763 2.415 1.856l1.399 5.247c.193.726.268 1.453.281 2.218 1.21.552 2.057 1.766 2.057 3.18zm-13.459-6.888.459.234v-5.769l-.241-.096c-.271-.015-.511.045-.644.162-.058.05-.115.125-.115.303v4.277c0 .375.207.716.541.889zm4.459 4.113v2.275h2.051c.219-1.507 1.391-2.7 2.89-2.943-.027-.489-.084-.962-.211-1.439l-1.398-5.246c-.059-.219-.257-.371-.483-.371h-1.848c-.127 0-.253-.024-.371-.071l-2.629-1.052v5.99l.364.186c1.009.515 1.636 1.539 1.636 2.672zm7 2.775c0-.827-.673-1.5-1.5-1.5s-1.5.673-1.5 1.5.673 1.5 1.5 1.5 1.5-.673 1.5-1.5zm-13.639-3.274c.396.67.639 1.441.639 2.274 0 2.481-2.019 4.5-4.5 4.5s-4.5-2.019-4.5-4.5c0-1.421.675-2.675 1.706-3.5h-.706c-.553 0-1-.448-1-1s.447-1 1-1h3.658c1.018 0 1.956.509 2.513 1.361 0 0 1.173 1.795 1.19 1.865zm-1.361 2.274c0-.51-.155-.984-.419-1.38l-.017-.027c-.451-.659-1.207-1.093-2.064-1.093-1.379 0-2.5 1.122-2.5 2.5s1.121 2.5 2.5 2.5 2.5-1.122 2.5-2.5z"/></svg>