<svg id="Layer_1" viewBox="0 0 24 24" xmlns="http://www.w3.org/2000/svg" data-name="Layer 1"><path d="m10 5.5c0-.828.672-1.5 1.5-1.5s1.5.672 1.5 1.5-.672 1.5-1.5 1.5-1.5-.672-1.5-1.5zm-2.5 9.489c-.835 0-1.511.677-1.511 1.511s.677 1.511 1.511 1.511 1.511-.677 1.511-1.511-.677-1.511-1.511-1.511zm16.5-2.989c0 6.617-5.383 12-12 12s-12-5.383-12-12 5.383-12 12-12 12 5.383 12 12zm-12-10c-2.398 0-4.6.85-6.324 2.262l4.134 4.134c.603-.257 1.253-.396 1.911-.396h5.279c.552 0 1 .448 1 1s-.448 1-1 1h-2.882l1.5 3h2.382c.552 0 1 .448 1 1s-.448 1-1 1h-1.586l3.324 3.324c1.412-1.725 2.262-3.927 2.262-6.324 0-5.514-4.486-10-10-10zm0 20c2.398 0 4.6-.85 6.324-2.262l-14.062-14.062c-1.412 1.725-2.262 3.927-2.262 6.324 0 5.514 4.486 10 10 10zm-5.099-9.301.888-.666-1.433-1.433-.66.499c-.43.325-.525.932-.216 1.373.324.464.969.567 1.421.227zm3.099 1.544v3.757c0 .552.448 1 1 1s1-.448 1-1v-1.757z"/></svg>