<svg id="Layer_1" viewBox="0 0 24 24" xmlns="http://www.w3.org/2000/svg" data-name="Layer 1"><path d="m9 12c3.309 0 6-2.691 6-6s-2.691-6-6-6-6 2.691-6 6 2.691 6 6 6zm0-10c2.206 0 4 1.794 4 4s-1.794 4-4 4-4-1.794-4-4 1.794-4 4-4zm1.75 14.22c-.568-.146-1.157-.22-1.75-.22-3.86 0-7 3.14-7 7 0 .552-.448 1-1 1s-1-.448-1-1c0-4.962 4.038-9 9-9 .762 0 1.519.095 2.25.284.535.138.856.683.719 1.218-.138.535-.68.856-1.218.719zm13.25 2.78c0 .552-.448 1-1 1h-1.465l-1.703 2.555c-.197.297-.541.466-.894.443-.356-.022-.673-.232-.833-.551l-2.229-4.459-1.044 1.566c-.186.278-.498.445-.832.445h-2c-.552 0-1-.448-1-1s.448-1 1-1h1.465l1.703-2.555c.197-.296.541-.473.894-.443.356.022.673.232.833.551l2.229 4.459 1.044-1.566c.186-.278.498-.445.832-.445h2c.552 0 1 .448 1 1z"/></svg>