<?xml version="1.0" encoding="UTF-8"?>
<svg xmlns="http://www.w3.org/2000/svg" id="Layer_1" data-name="Layer 1" viewBox="0 0 24 24">
  <path d="M6,6h-2C1.794,6,0,7.794,0,10v3c0,1.474,.81,2.75,2,3.444v6.556c0,.553,.448,1,1,1s1-.447,1-1v-6h2v6c0,.553,.448,1,1,1s1-.447,1-1v-6.556c1.19-.694,2-1.97,2-3.444v-3c0-2.206-1.794-4-4-4Zm2,7c0,1.103-.897,2-2,2h-2c-1.103,0-2-.897-2-2v-3c0-1.103,.897-2,2-2h2c1.103,0,2,.897,2,2v3ZM4,2.5c0-1.381,1.119-2.5,2.5-2.5s2.5,1.119,2.5,2.5-1.119,2.5-2.5,2.5-2.5-1.119-2.5-2.5Zm7-.5c0-.553,.448-1,1-1h2c.552,0,1,.447,1,1s-.448,1-1,1h-2c-.552,0-1-.447-1-1Zm-.85,2.878c.291-.47,.907-.615,1.376-.324l1.779,1.102c.47,.291,.615,.907,.324,1.377-.292,.473-.914,.612-1.376,.324l-1.779-1.102c-.47-.291-.615-.907-.324-1.377Zm12.021,9.359c-1.526-.646-3.287,.068-3.948,1.631l-1.251,3.339-1.774-2.532c-.873-1.089-2.697-.805-3.197,.53l-1.942,5.459c-.185,.521,.087,1.092,.607,1.277,.507,.183,1.093-.081,1.277-.607l1.845-5.191,3.316,4.737c.353,.363,.758,.666,1.227,.881,1.503,.643,3.287-.06,3.948-1.631l1.483-3.96c.646-1.522-.068-3.287-1.591-3.934Zm-.266,3.192l-1.484,3.961c-.104,.245-.297,.436-.545,.535-.248,.102-.52,.1-.766-.006-.246-.104-.437-.298-.537-.545-.101-.248-.098-.52,.022-.805l1.484-3.961c.215-.512,.815-.743,1.31-.53,.508,.215,.746,.804,.515,1.351Zm-5.815-6.93c0-1.381,1.119-2.5,2.5-2.5s2.5,1.119,2.5,2.5-1.119,2.5-2.5,2.5-2.5-1.119-2.5-2.5Z"/>
</svg>
