<?xml version="1.0" encoding="UTF-8"?>
<svg xmlns="http://www.w3.org/2000/svg" id="Layer_1" data-name="Layer 1" viewBox="0 0 24 24">
  <path d="M19,3c0-1.381,1.119-2.5,2.5-2.5s2.5,1.119,2.5,2.5-1.119,2.5-2.5,2.5-2.5-1.119-2.5-2.5Zm-10,3v.5c0,1.005-.599,1.867-1.456,2.264l.406,7.312c.607,.192,1.05,.753,1.05,1.424,0,.828-.672,1.5-1.5,1.5H1.5c-.828,0-1.5-.672-1.5-1.5,0-.67,.443-1.231,1.05-1.424l.406-7.312c-.857-.397-1.456-1.259-1.456-2.264v-.5c0-.553,.448-1,1-1s1,.447,1,1v.5c0,.275,.224,.5,.5,.5h1v-1c0-.553,.448-1,1-1s1,.447,1,1v1h1c.276,0,.5-.225,.5-.5v-.5c0-.553,.448-1,1-1s1,.447,1,1Zm-3.057,10l-.389-7H3.446l-.389,7h2.886Zm15.557,2.5c-1.381,0-2.5,1.119-2.5,2.5s1.119,2.5,2.5,2.5,2.5-1.119,2.5-2.5-1.119-2.5-2.5-2.5ZM15,4h1c.552,0,1-.447,1-1s-.448-1-1-1h-1c-1.654,0-3,1.346-3,3v6h-1c-.552,0-1,.447-1,1s.448,1,1,1h1v6c0,1.654,1.346,3,3,3h1c.552,0,1-.447,1-1s-.448-1-1-1h-1c-.551,0-1-.448-1-1v-6h2c.552,0,1-.447,1-1s-.448-1-1-1h-2V5c0-.552,.449-1,1-1Zm6.5,5.5c-1.381,0-2.5,1.119-2.5,2.5s1.119,2.5,2.5,2.5,2.5-1.119,2.5-2.5-1.119-2.5-2.5-2.5Z"/>
</svg>
