<svg id="Layer_1" viewBox="0 0 24 24" xmlns="http://www.w3.org/2000/svg" data-name="Layer 1"><path d="m9.415 15.605.352-.932h1.983l.352.934c.089.236.315.393.568.393.424 0 .717-.424.568-.821l-1.772-4.695c-.11-.291-.389-.484-.7-.484s-.589.192-.699.482l-1.788 4.693c-.151.397.142.823.567.823h.003c.252 0 .479-.156.568-.393zm1.348-3.549.53 1.404h-1.064l.535-1.404zm4.737-1.439v4.763c0 .341-.277.618-.618.618s-.618-.277-.618-.618v-4.763c0-.341.277-.618.618-.618s.618.277.618.618zm-12 4.383c-1.933 0-3.5.672-3.5 1.5v6c0 .265.105.52.293.707.238.238 1.028.793 3.207.793s2.969-.555 3.207-.793c.188-.188.293-.442.293-.707v-6c0-.828-1.567-1.5-3.5-1.5zm1.5 2.85v1.002c-.288.073-.759.148-1.5.148s-1.212-.075-1.5-.148v-1.002c.456.093.961.15 1.5.15s1.044-.057 1.5-.15zm-1.5 4.15c-.735 0-1.211-.074-1.5-.146v-.965c.408.067.896.112 1.5.112s1.092-.045 1.5-.112v.965c-.289.072-.765.146-1.5.146zm20.5-5.5c0-.828-1.567-1.5-3.5-1.5s-3.5.672-3.5 1.5v6c0 .265.105.52.293.707.238.238 1.028.793 3.207.793s2.969-.555 3.207-.793c.188-.188.293-.442.293-.707zm-2 1.35v1.002c-.288.073-.759.148-1.5.148s-1.212-.075-1.5-.148v-1.002c.456.093.961.15 1.5.15s1.044-.057 1.5-.15zm-1.5 4.15c-.735 0-1.211-.074-1.5-.146v-.965c.408.067.896.112 1.5.112s1.092-.045 1.5-.112v.965c-.289.072-.765.146-1.5.146zm-8.5-22c-1.933 0-3.5.672-3.5 1.5v6c0 .265.105.52.293.707.238.238 1.028.793 3.207.793s2.969-.555 3.207-.793c.188-.188.293-.442.293-.707v-6c0-.828-1.567-1.5-3.5-1.5zm1.5 2.85v1.002c-.288.073-.759.148-1.5.148s-1.212-.075-1.5-.148v-1.002c.456.093.961.15 1.5.15s1.044-.057 1.5-.15zm-1.5 4.15c-.735 0-1.211-.074-1.5-.146v-.965c.408.067.896.112 1.5.112s1.092-.045 1.5-.112v.965c-.289.072-.765.146-1.5.146zm2.976 14.556c.122.539-.216 1.074-.754 1.196-.726.165-1.473.248-2.222.248s-1.496-.083-2.222-.248c-.538-.122-.876-.658-.754-1.196.122-.539.653-.879 1.197-.754 1.16.263 2.396.263 3.557 0 .546-.124 1.075.215 1.197.754zm2.803-14.088c-.383-.399-.369-1.032.03-1.414.397-.381 1.031-.369 1.413.03 1.513 1.578 2.478 3.64 2.718 5.806.061.549-.335 1.043-.884 1.104-.539.062-1.046-.333-1.104-.884-.194-1.757-.946-3.362-2.173-4.643zm-15.718 4.422c.24-2.166 1.205-4.228 2.718-5.806.382-.399 1.016-.411 1.413-.03.399.382.413 1.015.03 1.414-1.227 1.281-1.979 2.886-2.173 4.643-.059.551-.565.946-1.104.884-.549-.061-.944-.555-.884-1.104z"/></svg>