<svg id="Layer_1" viewBox="0 0 24 24" xmlns="http://www.w3.org/2000/svg" data-name="Layer 1"><path d="m21.937 14.41-9.178-10.095.126-2.573c.032-.625-.283-1.207-.823-1.52-.538-.312-1.197-.295-1.718.041-.215.139-.448.323-.703.53-.698.565-1.488 1.206-2.68 1.206s-1.982-.641-2.68-1.206c-.255-.207-.487-.392-.701-.529-.523-.337-1.182-.353-1.719-.042-.54.312-.855.895-.823 1.517l.851 17.424c.129 2.712 2.357 4.837 5.073 4.837s4.943-2.125 5.073-4.836l.146-2.998 4.191 3.81c1.557 1.415 3.944 1.362 5.436-.13 1.489-1.489 1.546-3.877.129-5.436zm-14.975 7.59c-1.646 0-2.997-1.288-3.075-2.934l-.814-16.678c.812.658 2.027 1.612 3.889 1.612s3.077-.954 3.889-1.612l-.814 16.68c-.078 1.645-1.429 2.933-3.075 2.933zm13.432-3.568c-.733.734-1.91.762-2.676.063l-5.41-4.918.314-6.441 7.836 8.619c.697.768.669 1.942-.063 2.676zm-11.932-9.932c0 .828-.672 1.5-1.5 1.5s-1.5-.672-1.5-1.5.672-1.5 1.5-1.5 1.5.672 1.5 1.5z"/></svg>