<svg id="Layer_1" viewBox="0 0 24 24" xmlns="http://www.w3.org/2000/svg" data-name="Layer 1"><path d="m9.025 3v-2c0-.553.448-1 1-1s1 .447 1 1v2c0 .553-.448 1-1 1s-1-.447-1-1zm-6.477 12.47s0 0 0 0zm11.477-11.47c.552 0 1-.447 1-1v-2c0-.553-.448-1-1-1s-1 .447-1 1v2c0 .553.448 1 1 1zm-8 0c.552 0 1-.447 1-1v-2c0-.553-.448-1-1-1s-1 .447-1 1v2c0 .553.448 1 1 1zm5.973 15.916c-.057.002.055 0 0 0zm-10.964-.773c1.526.319 2.473.213 2.885.179 1.325.898 3.242.913 4.464-.37 2.329-2.312 2.268-5.142 2.048-6.557-.077-.494-.544-.821-1.036-.731-2.456.449-6.057.963-6.847 3.805 2.036.106 3.237-.398 6.239-1.789 0 0-.899 2.069-3.297 3.105 0 0-.814.393-2.367.55-.671-.011-.922.035-1.647-.129-.516-.117-1.036.177-1.185.685-.161.551.181 1.134.743 1.251zm22.966-6.681c0 2.017-1.719 3.538-4 3.538h-2.677c-.95 2.013-2.99 3.82-5.325 3.916-.479 0-.903-.346-.985-.834-.092-.544.275-1.061.819-1.152 2.41-.406 4.16-2.48 4.16-4.93v-4c0-.552-.449-1-1-1h-10c-.551 0-1 .448-1 1v2c0 .553-.448 1-1 1s-1-.447-1-1v-2c0-1.654 1.346-3 3-3h10c1.654 0 3 1.346 3 3h2.008c2.317 0 4 1.456 4 3.462zm-2 0c0-1.154-1.257-1.462-2-1.462h-2.008v2c0 .34-.031.672-.077 1h2.085c.994 0 2-.528 2-1.538zm-3 9.538h-18c-.552 0-1 .447-1 1s.448 1 1 1h18c.552 0 1-.447 1-1s-.448-1-1-1z"/></svg>