<svg id="Layer_1" viewBox="0 0 24 24" xmlns="http://www.w3.org/2000/svg" data-name="Layer 1"><path d="m23.743 21.565c.369.411.335 1.043-.075 1.412-.734.66-1.682 1.023-2.668 1.023-1.128 0-2.222-.472-3-1.225-.779.753-1.873 1.225-3 1.225s-2.222-.472-3-1.225c-.779.753-1.873 1.225-3 1.225s-2.222-.472-3-1.225c-.779.753-1.873 1.225-3 1.225-.986 0-1.934-.363-2.668-1.022-.411-.369-.445-1.001-.076-1.412s1-.446 1.412-.076c.367.33.84.511 1.332.511.889 0 1.793-.586 2.057-1.333.142-.399.519-.667.943-.667s.802.267.943.667c.264.748 1.167 1.333 2.057 1.333s1.793-.586 2.057-1.333c.142-.399.519-.667.943-.667s.802.267.943.667c.264.748 1.167 1.333 2.057 1.333s1.793-.586 2.057-1.333c.142-.399.519-.667.943-.667s.802.267.943.667c.264.748 1.167 1.333 2.057 1.333.493 0 .965-.181 1.332-.51.411-.37 1.043-.335 1.412.075zm-20.743-3.565c1.127 0 2.221-.472 3-1.225.778.753 1.872 1.225 3 1.225s2.221-.472 3-1.225c.778.753 1.872 1.225 3 1.225s2.221-.472 3-1.225c.778.753 1.872 1.225 3 1.225.987 0 1.935-.363 2.668-1.023.411-.369.444-1.001.075-1.412-.369-.41-1.001-.445-1.412-.075-.366.329-.839.51-1.332.51-.89 0-1.793-.585-2.057-1.333-.141-.4-.519-.667-.943-.667s-.801.267-.943.667c-.264.748-1.168 1.333-2.057 1.333s-1.793-.585-2.057-1.333c-.141-.4-.519-.667-.943-.667s-.801.267-.943.667c-.264.748-1.168 1.333-2.057 1.333s-1.793-.585-2.057-1.333c-.141-.4-.519-.667-.943-.667s-.801.267-.943.667c-.264.748-1.168 1.333-2.057 1.333-.493 0-.966-.181-1.332-.511-.412-.369-1.043-.335-1.412.076s-.335 1.043.076 1.412c.734.659 1.682 1.022 2.668 1.022zm-.938-6.889c-.041-.364-.062-.735-.062-1.111-.006-5.551 4.577-10.006 10-10 5.537-.017 9.984 4.551 10 10 0 .375-.021.747-.062 1.111-.057.511-.49.889-.992.889-.489.005-.893-.366-.97-.828-1.242.523-2.565.803-3.896.803s-2.662-.281-3.914-.814c-.214.174-.438.338-.631.532-.192.192-.447.307-.719.307-.886 0-1.359-1.081-.731-1.706.275-.274.574-.526.884-.767-.059-.984-.294-1.935-.692-2.814-2.341 1.318-4.182 4.719-4.201 4.757-.261.492-.875.67-1.353.412-.487-.259-.672-.864-.413-1.352.092-.174 2.088-3.87 4.927-5.521-.493-.617-1.082-1.157-1.747-1.611-2.105 1.443-3.49 3.863-3.49 6.601 0 .3.017.597.049.889.062.549-.334 1.043-.883 1.104-.545.06-1.043-.334-1.104-.883zm13.628-8.202c1.301 2.082 2.074 4.418 2.253 6.832.687-.163 1.353-.419 1.984-.763-.339-2.642-1.968-4.883-4.237-6.068zm-3.69-.909c-.88 0-1.726.148-2.518.412 2.025 1.736 3.288 4.224 3.473 6.911.961.408 1.978.619 3.001.635-.2-2.901-1.399-5.683-3.429-7.932-.175-.011-.349-.027-.527-.027z"/></svg>