<svg id="Layer_1" viewBox="0 0 24 24" xmlns="http://www.w3.org/2000/svg" data-name="Layer 1"><path d="m23.776 21.55-4.808-8.242c-.629-1.078-2.186-1.078-2.814 0l-4.808 8.242c-.633 1.086.15 2.45 1.407 2.45h9.616c1.257 0 2.041-1.364 1.407-2.45zm-6.215 1.45c-.552 0-1-.448-1-1s.448-1 1-1 1 .448 1 1-.448 1-1 1zm1-4c0 .552-.448 1-1 1s-1-.448-1-1v-2.002c0-.552.448-1 1-1s1 .448 1 1zm-13.561-8h13.885c.563 0 1.084.228 1.467.641.384.414.57.951.527 1.512-.042.551.37 1.031.921 1.074.544.035 1.031-.37 1.073-.92.085-1.107-.299-2.209-1.054-3.024s-1.824-1.282-2.935-1.282h-.05c.105-.799.165-1.493.165-2 0-3.86-3.141-7-7-7s-6.999 3.139-6.999 6.999c0 .591.074 1.313.166 2h-.166c-1.11 0-2.18.467-2.935 1.282-.755.814-1.139 1.917-1.052 3.049l.593 5.841c-.937.361-1.606 1.265-1.606 2.328 0 1.378 1.122 2.5 2.5 2.5h5.5c.552 0 1-.448 1-1s-.448-1-1-1h-4.096l-.898-8.847c-.043-.562.144-1.099.527-1.512.383-.414.904-.641 1.467-.641zm5.485-3.5c0-.827.673-1.5 1.5-1.5s1.5.673 1.5 1.5c0 .383-.041.898-.116 1.5h-2.742c-.114-.778-.142-1.238-.142-1.5zm-3.485-.5c0-2.757 2.243-5 5-5s5 2.243 5 5c0 .472-.065 1.177-.182 2h-1.436c.066-.581.103-1.089.103-1.5 0-1.93-1.57-3.5-3.5-3.5s-3.5 1.57-3.5 3.5c0 .386.045.896.126 1.5h-1.429c-.117-.824-.182-1.53-.182-2z"/></svg>