<svg id="Layer_1" viewBox="0 0 24 24" xmlns="http://www.w3.org/2000/svg" data-name="Layer 1"><path d="m23.018 9.785c-.595-.541-1.356-.822-2.169-.782-.804.037-1.545.386-2.085.981l-3.217 3.534c-.551-.909-1.55-1.519-2.689-1.519h-8.858c-2.206 0-4 1.794-4 4v4c0 2.206 1.794 4 4 4h5.583c2.765 0 5.432-1.16 7.317-3.184l6.336-6.803c1.093-1.226.995-3.123-.219-4.229zm-1.259 2.881-6.321 6.787c-1.508 1.618-3.642 2.547-5.854 2.547h-5.584c-1.103 0-2-.897-2-2v-4c0-1.103.897-2 2-2h8.858c.629 0 1.142.513 1.142 1.143 0 .564-.421 1.051-.98 1.13l-5.161.737c-.546.078-.926.585-.848 1.132.078.548.587.93 1.131.849l5.161-.737c1.175-.168 2.129-.987 2.514-2.058l4.427-4.865c.354-.412 1.036-.434 1.427-.066.407.371.44 1.007.089 1.402zm-14.759-6.666v-1c0-.276.224-.5.5-.5h1c.276 0 .5.224.5.5v1c0 .276-.224.5-.5.5h-1c-.276 0-.5-.224-.5-.5zm-1.476 4h4.952c1.392 0 2.524-1.132 2.524-2.524v-3.281c0-.84-.416-1.623-1.112-2.092l-2.476-1.671c-.858-.578-1.966-.578-2.824 0l-2.476 1.671c-.696.47-1.112 1.252-1.112 2.092v3.281c0 1.392 1.132 2.524 2.524 2.524zm-.524-5.805c0-.174.086-.337.231-.434l2.476-1.671c.089-.06.191-.09.293-.09s.204.03.293.09l2.476 1.671c.145.097.23.26.23.434v3.281c0 .289-.235.524-.524.524h-4.951c-.289 0-.524-.235-.524-.524z"/></svg>