<svg id="Layer_1" viewBox="0 0 24 24" xmlns="http://www.w3.org/2000/svg" data-name="Layer 1"><path d="m21 23c0 .552-.448 1-1 1s-1-.448-1-1 .448-1 1-1 1 .448 1 1zm2-4c-.552 0-1 .448-1 1s.448 1 1 1 1-.448 1-1-.448-1-1-1zm-3 0c-.552 0-1 .448-1 1s.448 1 1 1 1-.448 1-1-.448-1-1-1zm-2-4v1c0 1.103-.897 2-2 2h-1c-1.103 0-2-.897-2-2v-1c0-1.103.897-2 2-2h1c1.103 0 2 .897 2 2zm-1.999 1v-1h-1.001v1zm1.999 5v1c0 1.103-.897 2-2 2h-1c-1.103 0-2-.897-2-2v-1c0-1.103.897-2 2-2h1c1.103 0 2 .897 2 2zm-1.999 1v-1h-1.001v1zm7.999-7v1c0 1.103-.897 2-2 2h-1c-1.103 0-2-.897-2-2v-1c0-1.103.897-2 2-2h1c1.103 0 2 .897 2 2zm-1.999 1v-1h-1.001v1zm-11.001-11v.142c1.721.447 3 2 3 3.858.553 0 1 .448 1 1s-.447 1-1 1h-8c-.553 0-1-.448-1-1s.447-1 1-1c0-1.858 1.279-3.411 3-3.858v-.142c0-.552.447-1 1-1s1 .448 1 1zm-1 2c-1.103 0-2 .897-2 2h4c0-1.103-.897-2-2-2zm10 3v-5c0-2.757-2.243-5-5-5h-10c-2.757 0-5 2.243-5 5v15c0 2.206 1.794 4 4 4h6c.553 0 1-.448 1-1s-.447-1-1-1h-6c-1.103 0-2-.897-2-2s.897-2 2-2h6c.553 0 1-.448 1-1s-.447-1-1-1h-6c-.732 0-1.409.212-2 .556v-11.556c0-1.654 1.346-3 3-3h10c1.654 0 3 1.346 3 3v5c0 .552.447 1 1 1s1-.448 1-1z"/></svg>