<svg id="Layer_1" viewBox="0 0 24 24" xmlns="http://www.w3.org/2000/svg" data-name="Layer 1"><path d="m23 2c-.553 0-1 .447-1 1v1.149c-.036.021-.076.033-.109.058l-6.23 4.793h-5.66c-1.646 0-2.985 1.333-2.998 2.977l-3.102-3.384c.059-.189.1-.385.1-.593 0-1.105-.895-2-2-2s-2 .895-2 2 .895 2 2 2c.148 0 .292-.019.431-.049l2.795 3.049h-1.227c-2.206 0-4 1.794-4 4v4c0 .553.448 1 1 1s1-.447 1-1v-2h20v2c0 .553.447 1 1 1s1-.447 1-1v-18c0-.553-.447-1-1-1zm-1 4.646v6.354h-5v-2.508zm-12 4.354h5v2h-6v-1c0-.552.449-1 1-1zm-8 6c0-1.103.897-2 2-2h18v2z"/></svg>