<svg id="Layer_1" viewBox="0 0 24 24" xmlns="http://www.w3.org/2000/svg" data-name="Layer 1"><path d="m24 6.857c0 2.004-.978 6.143-4 6.143-1.103 0-2-.897-2-2s.897-2 2-2c.557 0 1.061.23 1.424.599.377-.886.576-1.998.576-2.742 0-1.231-.387-1.857-2.5-1.857-.552 0-1-.447-1-1s.448-1 1-1c2.986 0 4.5 1.298 4.5 3.857zm-7.991 4.23c.019.879.327 1.681.826 2.332-.529.631-1.15 1.158-1.8 1.57.8.725 1.127 1.862.956 2.917l-1.026 3.81c-.364 1.344-1.591 2.283-2.984 2.283-1.435 0-2.67-.975-3.005-2.369l-.877-3.654c-.182-1.118.127-2.225.915-2.961-.664-.416-1.302-.951-1.845-1.599.491-.642.793-1.43.82-2.294.862 1.627 2.826 2.92 4.012 2.876 1.196.039 3.213-1.255 4.009-2.912zm-4.616 4.912c-.399 0-.776.175-1.034.479-.258.305-.368.705-.303 1.1l.863 3.585c.118.492.555.836 1.061.836.492 0 .925-.332 1.054-.807l1.005-3.712c.044-.297-.066-.697-.324-1.002s-.635-.479-1.034-.479zm5.607-11c0 2.761-2.239 5-5 5s-5-2.239-5-5 2.239-4.999 5-4.999 5 2.239 5 5zm-2 0c0-.552-.448-1-1-1h-1v-1c0-.552-.448-1-1-1s-1 .448-1 1v1h-1c-.552 0-1 .448-1 1s.448 1 1 1h1v1c0 .552.448 1 1 1s1-.448 1-1v-1h1c.552 0 1-.448 1-1zm-11 4.001c-.557 0-1.061.23-1.424.599-.377-.886-.576-1.998-.576-2.742 0-1.231.387-1.857 2.5-1.857.552 0 1-.447 1-1s-.448-1-1-1c-2.986 0-4.5 1.298-4.5 3.857 0 2.004.978 6.143 4 6.143 1.103 0 2-.897 2-2s-.897-2-2-2z"/></svg>