<svg id="Layer_1" viewBox="0 0 24 24" xmlns="http://www.w3.org/2000/svg" data-name="Layer 1"><path d="m21.5 0h-6c-1.375 0-2.5 1.125-2.5 2.501l.002 7.41c0 .858.949 1.378 1.672.915l2.826-1.827h4c1.381 0 2.5-1.119 2.5-2.5v-3.999c0-1.381-1.119-2.5-2.5-2.5zm-1.5 6.999h-3c-1.105 0-2-.895-2-2h1.737l1.242.842c.315.21.726.21 1.041 0l1.242-.842h1.737c0 1.105-.895 2-2 2zm-5-3c0-1.105.895-2 2-2h3c1.105 0 2 .895 2 2zm5.656 10.857c-1.195-1.142-3.089-1.141-4.282.007l-1.464 1.165c-3.198-1.357-5.473-3.638-6.932-6.947l1.158-1.456c.557-.579.863-1.338.863-2.145s-.304-1.559-.857-2.138c0 0-1.852-2.406-1.882-2.437-.584-.584-1.362-.907-2.189-.907s-1.604.322-2.138.859l-1.149 1.007c-1.151 1.148-1.784 2.702-1.784 4.374 0 7.636 10.126 17.762 17.762 17.762 1.673 0 3.227-.633 4.421-1.833l.912-1.05c1.205-1.207 1.205-3.17 0-4.376-.03-.031-2.438-1.883-2.438-1.883zm.977 4.896-.912 1.05c-.771.772-1.821 1.197-2.959 1.197-5.989 0-15.762-8.805-15.762-15.762 0-1.138.425-2.188 1.147-2.913l1.15-1.005c.207-.207.482-.321.774-.321.274 0 .533.1.734.283 0 0 1.842 2.394 1.873 2.424.207.207.321.482.321.774s-.114.567-.321.774c-.027.027-1.635 2.045-1.635 2.045-.224.281-.279.662-.145.995 1.714 4.268 4.682 7.232 8.822 8.812.328.126.702.068.979-.151 0 0 2.018-1.608 2.044-1.635.428-.427 1.121-.427 1.549 0 .03.031 2.425 1.873 2.425 1.873.388.43.374 1.097-.085 1.56z"/></svg>