<svg id="Layer_1" viewBox="0 0 24 24" xmlns="http://www.w3.org/2000/svg" data-name="Layer 1"><path d="m12.6 12.8v5.6h.851c.442 0 .8.358.8.8s-.358.8-.8.8h-1.65c-.442 0-.8-.358-.8-.8v-6.4c0-.442.358-.8.8-.8s.8.358.8.8zm10.601 2.6h-1.601v-1.801h1.601c.442 0 .8-.358.8-.8s-.358-.8-.8-.8h-2.4c-.442 0-.8.358-.8.8v6.4c0 .442.358.8.8.8s.8-.358.8-.8v-2.2h1.601c.442 0 .8-.358.8-.8s-.358-.8-.8-.8zm-5-3.4h-3.401c-.442 0-.8.358-.8.8s.358.8.8.8h.851v5.6c0 .442.358.8.8.8s.8-.358.8-.8v-5.6h.951c.442 0 .8-.358.8-.8s-.358-.8-.8-.8zm-10.762 1.602c.375-.025.705.181.863.489.132.258.409.409.699.409.606 0 .99-.647.703-1.182-.414-.772-1.222-1.3-2.155-1.318-1.401-.027-2.548 1.154-2.548 2.556v2.887c0 1.402 1.147 2.583 2.548 2.556 1.358-.026 2.452-1.135 2.452-2.5v-1.201c0-.441-.358-.799-.799-.799h-.901c-.442 0-.8.358-.8.8s.358.8.8.8h.1v.368c0 .479-.361.898-.838.93-.524.035-.962-.381-.962-.898v-2.968c0-.479.361-.898.838-.93zm12.344-4.85c.076.3.011.617-.179.861s-.481.387-.79.387h-5.813c-1.654 0-3-1.346-3-3v-4.977c-.16-.016-.322-.023-.485-.023h-4.516c-1.654 0-3 1.346-3 3v14c0 1.654 1.346 3 3 3h10c.39 0 .768-.073 1.125-.218.507-.209 1.095.038 1.302.552.207.512-.039 1.095-.552 1.302-.596.242-1.228.364-1.875.364h-10c-2.757 0-5-2.243-5-5v-14c0-2.757 2.243-5 5-5h4.515c1.871 0 3.629.729 4.95 2.051l3.484 3.484c.889.888 1.522 2.001 1.833 3.217zm-2.443-.752c-.22-.383-.489-.736-.804-1.051l-3.484-3.484c-.318-.318-.671-.588-1.051-.806v4.341c0 .552.449 1 1 1z"/></svg>