<svg id="Layer_1" viewBox="0 0 24 24" xmlns="http://www.w3.org/2000/svg" data-name="Layer 1"><path d="m11.999 0c-5.404-.112-10.166 4.65-10.055 10.054 0 2.536 1.933 6.488 5.741 11.742 1.022 1.423 2.678 2.264 4.341 2.204 1.695 0 3.296-.822 4.281-2.195 3.813-5.261 5.747-9.214 5.747-11.751-.001-5.543-4.512-10.054-10.055-10.054zm2.686 20.635c-.613.855-1.606 1.365-2.729 1.366-.978.036-2.011-.486-2.648-1.375-4.667-6.438-5.364-9.387-5.364-10.572-.09-4.329 3.727-8.144 8.056-8.054 4.439 0 8.053 3.613 8.054 8.054 0 1.186-.697 4.136-5.369 10.581zm.279-13.599c-.224-1.435-1.468-2.536-2.964-2.536s-2.74 1.101-2.964 2.536c-1.435.224-2.536 1.468-2.536 2.964s1.101 2.74 2.536 2.964c.224 1.434 1.468 2.536 2.964 2.536s2.74-1.102 2.964-2.536c1.435-.224 2.536-1.468 2.536-2.964s-1.102-2.74-2.536-2.964zm-.464 3.964h-1.5v1.5c0 .552-.449 1-1 1s-1-.448-1-1v-1.5h-1.5c-.551 0-1-.449-1-1s.449-1 1-1h1.5v-1.5c0-.551.449-1 1-1s1 .449 1 1v1.5h1.5c.552 0 1 .449 1 1s-.448 1-1 1z"/></svg>