<svg id="Layer_1" viewBox="0 0 24 24" xmlns="http://www.w3.org/2000/svg" data-name="Layer 1"><path d="m24 12c0 .552-.447 1-1 1h-22c-.552 0-1-.448-1-1s.448-1 1-1h2.059c.5-4.493 4.317-8 8.941-8 1.964 0 3.832.624 5.401 1.805.441.332.529.959.197 1.4-.331.441-.957.531-1.4.198-1.22-.917-2.671-1.403-4.198-1.403-3.519 0-6.432 2.613-6.92 6h9.764c-.365-1.155-1.435-2-2.709-2-.808 0-1.583.347-2.125.952-.37.411-1.001.445-1.412.077-.411-.369-.446-1.001-.077-1.412.921-1.027 2.238-1.617 3.614-1.617 2.384 0 4.362 1.731 4.767 4h2.018c-.101-.709-.303-1.396-.62-2.047-.241-.497-.035-1.095.462-1.337.497-.241 1.096-.034 1.337.462.451.927.733 1.907.845 2.922h2.056c.553 0 1 .448 1 1zm-17 10h-2c-1.654 0-3-1.346-3-3v-2c0-.552-.448-1-1-1s-1 .448-1 1v2c0 2.757 2.243 5 5 5h2c.552 0 1-.448 1-1s-.448-1-1-1zm16-6c-.553 0-1 .448-1 1v2c0 1.654-1.346 3-3 3h-2c-.553 0-1 .448-1 1s.447 1 1 1h2c2.757 0 5-2.243 5-5v-2c0-.552-.447-1-1-1zm-4-16h-2c-.553 0-1 .448-1 1s.447 1 1 1h2c1.654 0 3 1.346 3 3v2c0 .552.447 1 1 1s1-.448 1-1v-2c0-2.757-2.243-5-5-5zm-18 8c.552 0 1-.448 1-1v-2c0-1.654 1.346-3 3-3h2c.552 0 1-.448 1-1s-.448-1-1-1h-2c-2.757 0-5 2.243-5 5v2c0 .552.448 1 1 1zm18.816 11.506c.385-1.145.651-2.273.831-3.344.103-.609-.366-1.162-.984-1.162h-.006c-.491 0-.898.359-.981.843-.165.97-.408 1.989-.756 3.021-.17.503.056 1.054.544 1.263.545.234 1.163-.059 1.352-.621zm-4.209-4.506h-.01c-.461 0-.872.315-.967.767-.206.976-.508 1.947-.937 2.768-.229.438-.099.973.302 1.261.49.352 1.19.201 1.467-.335.502-.969.871-2.102 1.121-3.257.134-.619-.343-1.204-.977-1.204zm-4.097 0c-.461 0-.844.321-.967.765-.348 1.26-.911 2.344-1.72 3.333-.316.386-.269.956.084 1.309.423.423 1.12.377 1.496-.089.967-1.198 1.65-2.529 2.071-4.052.175-.634-.307-1.265-.964-1.265zm-3.925.098c-.498-.238-1.095-.027-1.333.472-.563 1.18-1.428 1.442-1.49 1.459-.529.13-.858.661-.736 1.194.106.463.518.777.974.777.504-.08 1.897-.345 3.057-2.569.238-.499.027-1.095-.472-1.333z"/></svg>