<svg id="Layer_1" viewBox="0 0 24 24" xmlns="http://www.w3.org/2000/svg" data-name="Layer 1"><path d="m8.337 8.66 1.663 4.02v6.32c0 2.757-2.243 5-5 5s-5-2.244-5-5.001v-12.998c0-.553.448-1 1-1s1 .448 1 1v12.999c0 1.654 1.346 3 3 3s3-1.346 3-3v-11.433c.084.367.19.733.337 1.093zm-3.337 11.339c.552 0 1-.448 1-1v-15.998c0-.551.449-1 1-1s1 .449 1 1v1.439c.257-1.115.783-2.154 1.536-3.024-.531-.847-1.465-1.415-2.536-1.415-1.654 0-3 1.346-3 3v15.999c0 .552.448 1 1 1zm18.926-4.876-4.484-11.011c-1.042-2.552-3.967-3.782-6.519-2.739-2.552 1.042-3.78 3.967-2.737 6.523l5.889 14.236c.578 1.506 2.431 2.283 3.912 1.643 1.531-.625 2.268-2.38 1.642-3.914l-5.858-14.241c-.209-.51-.793-.755-1.305-.544-.511.21-.754.794-.544 1.305l5.856 14.239c.208.511-.037 1.096-.547 1.304-.496.214-1.112-.045-1.306-.552l-5.889-14.236c-.625-1.531.112-3.286 1.643-3.911 1.533-.624 3.287.112 3.911 1.642l4.484 11.01c.208.511.792.757 1.303.549.512-.208.757-.792.549-1.303z"/></svg>