<svg id="Layer_1" viewBox="0 0 24 24" xmlns="http://www.w3.org/2000/svg" data-name="Layer 1"><path d="m7.635 15.906c-.489.232-1.095.025-1.33-.48-.186-.395-.29-.839-.305-1.284-.022-.757.347-1.625.92-2.159.886-.822 1.761-.982 2.973-.982 1.071 0 2.159.069 3.234.207.548.07.935.571.865 1.119s-.564.935-1.119.866c-.991-.127-1.994-.191-2.98-.191-.966 0-1.249.112-1.61.447-.182.169-.287.482-.282.632.005.172.046.349.115.496.234.5.02 1.096-.48 1.33zm8.365 4.094c0 2.206-1.794 4-4 4s-4-1.794-4-4c0-.472.097-.918.247-1.339l-.286-.286c-.404-.404-.404-1.059 0-1.462l.951-.951c.404-.404 1.059-.404 1.462 0l.286.286c.421-.151.867-.247 1.339-.247 2.206 0 4 1.794 4 4zm-2 0c0-1.103-.897-2-2-2s-2 .897-2 2 .897 2 2 2 2-.897 2-2zm4.517-6.483 1.09-.436c.237-.095.393-.325.393-.58s-.156-.486-.393-.58l-1.09-.436-.436-1.09c-.095-.237-.325-.393-.58-.393s-.486.156-.58.393l-.433 1.084-1.082.41c-.239.09-.399.317-.404.573s.147.488.382.587l1.099.463.439 1.097c.095.237.325.393.58.393s.486-.156.58-.393l.436-1.09zm-14.017-10.517c-.828 0-1.5.672-1.5 1.5s.672 1.5 1.5 1.5 1.5-.672 1.5-1.5-.672-1.5-1.5-1.5zm4 0c-.828 0-1.5.672-1.5 1.5s.672 1.5 1.5 1.5 1.5-.672 1.5-1.5-.672-1.5-1.5-1.5zm15.5 2v12c0 2.757-2.243 5-5 5-.553 0-1-.448-1-1s.447-1 1-1c1.654 0 3-1.346 3-3v-8h-20v8c0 1.654 1.346 3 3 3 .553 0 1 .448 1 1s-.447 1-1 1c-2.757 0-5-2.243-5-5v-12c0-2.757 2.243-5 5-5h14c2.757 0 5 2.243 5 5zm-2 2v-2c0-1.654-1.346-3-3-3h-14c-1.654 0-3 1.346-3 3v2z"/></svg>