<svg id="Layer_1" viewBox="0 0 24 24" xmlns="http://www.w3.org/2000/svg" data-name="Layer 1"><path d="m19.814 1.195c-1.477-.793-3.032-1.195-4.624-1.195h-6.381c-1.592 0-3.147.402-4.624 1.195-1.965 1.055-3.186 3.14-3.186 5.44v5.364c0 2.206 1.794 4 4 4v4c0 2.206 1.794 4 4 4h6c2.206 0 4-1.794 4-4v-4c2.206 0 4-1.794 4-4v-5.364c0-2.301-1.221-4.386-3.186-5.44zm-4.814 20.805h-2v-5c0-.552-.447-1-1-1s-1 .448-1 1v5h-2c-1.103 0-2-.897-2-2v-6h10v6c0 1.103-.897 2-2 2zm6-10c0 1.103-.897 2-2 2v-6c0-.552-.447-1-1-1s-1 .448-1 1v4h-10v-4c0-.552-.447-1-1-1s-1 .448-1 1v6c-1.103 0-2-.897-2-2v-5.364c0-1.563.816-2.973 2.131-3.679.926-.497 1.886-.795 2.863-.905.161.611.344 1.255.514 1.759.229.679 1.07.912 1.614.445l.878-.854v4.598c0 .552.447 1 1 1s1-.448 1-1v-4.598l.878.854c.544.466 1.386.234 1.614-.445.17-.503.353-1.148.514-1.759.976.109 1.936.408 2.863.905 1.314.706 2.131 2.116 2.131 3.679z"/></svg>