<svg id="Layer_1" viewBox="0 0 24 24" xmlns="http://www.w3.org/2000/svg" data-name="Layer 1"><path d="m9.872 15.765c-.271-.482-.879-.652-1.361-.383l-.631.354c-.505-.526-1.153-.905-1.879-1.094v-.642c0-.553-.447-1-1-1s-1 .447-1 1v.642c-.727.189-1.374.568-1.879 1.094l-.631-.354c-.482-.271-1.091-.1-1.361.383-.271.481-.099 1.091.383 1.361l.637.357c-.086.327-.147.663-.147 1.017s.061.69.147 1.017l-.637.357c-.481.271-.653.88-.383 1.361.272.486.888.65 1.361.383l.631-.354c.505.526 1.153.905 1.879 1.094v.642c0 .553.447 1 1 1s1-.447 1-1v-.642c.727-.189 1.374-.568 1.879-1.094l.631.354c.473.267 1.089.104 1.361-.383.271-.481.099-1.091-.383-1.361l-.637-.357c.086-.327.147-.663.147-1.017s-.061-.69-.147-1.017l.637-.357c.481-.271.653-.88.383-1.361zm-4.872 4.735c-1.103 0-2-.897-2-2s.897-2 2-2 2 .897 2 2-.897 2-2 2zm1-16c0 .828-.672 1.5-1.5 1.5s-1.5-.672-1.5-1.5.672-1.5 1.5-1.5 1.5.672 1.5 1.5zm4 0c0 .828-.672 1.5-1.5 1.5s-1.5-.672-1.5-1.5.672-1.5 1.5-1.5 1.5.672 1.5 1.5zm9-4.5h-14c-2.757 0-5 2.243-5 5v7c0 .552.447 1 1 1s1-.448 1-1v-3h20v2c0 .552.447 1 1 1s1-.448 1-1v-6c0-2.757-2.243-5-5-5zm-17 7v-2c0-1.654 1.346-3 3-3h14c1.654 0 3 1.346 3 3v2zm22 9.981c-.007-.385-.235-.732-.586-.892l-8.768-3.982c-.673-.229-1.427-.07-2.004.429-.588.509-.797 1.337-.497 2.203l3.944 8.675c.159.351.506.579.892.586h.019c.378 0 .725-.214.895-.553l1.38-2.76 3.019 3.019c.391.391 1.023.391 1.414 0s.391-1.023 0-1.414l-3.019-3.019 2.759-1.379c.345-.173.56-.527.553-.913zm-10-2.996.021.02s-.005-.002-.014-.005zm3.042 6.693-3.03-6.668 6.667 3.032-2.126 1.062c-.193.097-.351.254-.447.447l-1.063 2.126z"/></svg>