<svg id="Layer_1" viewBox="0 0 24 24" xmlns="http://www.w3.org/2000/svg" data-name="Layer 1"><path d="m22.376 19.16c.229.906.522 2.296.621 3.773.037.551-.379 1.028-.931 1.064-.545.039-1.03-.379-1.064-.931-.089-1.328-.356-2.591-.565-3.418-.29-1.148-.437-2.315-.437-3.469v-4.692c0-1.364.202-2.728.6-4.055.89-2.964 1.4-5.309 1.4-6.433 0-.552.448-1 1-1s1 .448 1 1c0 1.705-.807 4.752-1.484 7.008-.343 1.14-.516 2.311-.516 3.48v4.692c0 .988.126 1.991.376 2.979zm-20.376-18.16c0-.552-.448-1-1-1s-1 .448-1 1c0 1.705.807 4.752 1.484 7.008.343 1.14.516 2.311.516 3.48v4.692c0 .988-.126 1.991-.376 2.979-.229.906-.522 2.296-.621 3.773-.037.551.379 1.028.931 1.064.545.039 1.03-.379 1.064-.931.089-1.328.356-2.591.565-3.418.29-1.148.437-2.315.437-3.469v-4.692c0-1.364-.202-2.728-.6-4.055-.89-2.964-1.4-5.309-1.4-6.433zm10 12c.828 0 1.5-.672 1.5-1.5s-.672-1.5-1.5-1.5-1.5.672-1.5 1.5.672 1.5 1.5 1.5zm0 8c-.828 0-1.5.672-1.5 1.5s.672 1.5 1.5 1.5 1.5-.672 1.5-1.5-.672-1.5-1.5-1.5zm0-13c.828 0 1.5-.672 1.5-1.5s-.672-1.5-1.5-1.5-1.5.672-1.5 1.5.672 1.5 1.5 1.5zm0-5c.828 0 1.5-.672 1.5-1.5s-.672-1.5-1.5-1.5-1.5.672-1.5 1.5.672 1.5 1.5 1.5zm5.139 14.585-1.532.656c-.368.157-.607.519-.607.919v1.319c0 .427-.483.676-.831.427l-1.588-1.134c-.348-.248-.815-.248-1.163 0l-1.588 1.134c-.348.248-.831 0-.831-.427v-1.319c0-.4-.239-.762-.607-.919l-1.532-.656c-.482-.241-.482-.928 0-1.169l1.532-.656c.368-.157.607-.519.607-.919v-1.272c0-.447.505-.707.869-.447l1.55 1.107c.348.248.815.248 1.163 0l1.55-1.107c.364-.26.869 0 .869.447v1.272c0 .4.239.762.607.919l1.532.656c.482.241.482.928 0 1.169zm-3.639-.585c0-.828-.672-1.5-1.5-1.5s-1.5.672-1.5 1.5.672 1.5 1.5 1.5 1.5-.672 1.5-1.5z"/></svg>