<svg id="Layer_1" viewBox="0 0 24 24" xmlns="http://www.w3.org/2000/svg" data-name="Layer 1"><path d="m23 18c-.15.019-4.988.019-4.988.019l-5.126-4.569 1.134-1.046c.276-.26.638-.404 1.019-.404.316-.003 1.03.24 1.721.532.735.31 1.524.468 2.322.468h3.919c.552 0 1-.448 1-1s-.448-1-1-1h-4v-5c0-2.206-1.794-4-4-4 0-1.105-.895-2-2-2h-2c-1.105 0-2 .895-2 2-2.206 0-4 1.794-4 4v5h-4.001c-.552 0-1 .448-1 1s.448 1 1 1h3.921c.79 0 1.574-.151 2.301-.46.667-.283 1.389-.535 1.778-.54.371 0 .727.138 1.001.388l.546.497-2.069 1.908c-.562.562-.642 1.425-.189 2.055.516.769 1.739.878 2.37.221l1.604-1.494 4.026 3.589-3.118 2.433c-.668.521-1.678.52-2.346 0l-4.337-3.385c-.176-.137-.393-.212-.615-.212h-4.873c-.553 0-1 .448-1 1s.447 1 1 1h4.531l4.065 3.173c.684.533 1.537.827 2.403.827s1.72-.293 2.403-.827l4.065-3.173h4.531c.553 0 1-.448 1-1s-.447-1-1-1zm-14-14h6c1.103 0 2 .897 2 2h-10c0-1.103.897-2 2-2zm3 7.34-.652-.43c-.681-.492-1.478-.909-2.348-.909-.588 0-1.336.222-2 .473v-2.473h4c0 .552.447 1 1 1s1-.448 1-1h4v2.477c-.644-.242-1.376-.472-2-.477-.871 0-1.582.395-2.348.909z"/></svg>