<svg id="Layer_1" viewBox="0 0 24 24" xmlns="http://www.w3.org/2000/svg" data-name="Layer 1"><path d="m23.674 18.273-2.169 1.767.897 2.732c.123.37-.002.777-.311 1.014s-.734.254-1.06.042l-2.524-1.644-2.482 1.661c-.323.216-.748.205-1.059-.028-.312-.233-.441-.638-.325-1.009l.862-2.765-2.179-1.773c-.293-.249-.4-.654-.267-1.015.132-.361.476-.601.86-.601h2.751l.974-2.732c.133-.359.476-.597.859-.597s.726.238.859.597l.974 2.732h2.751c.385 0 .729.241.861.602.132.362.024.768-.271 1.016zm-5.764-11.273h-2.91c-.553 0-1 .448-1 1s.447 1 1 1h3v1c0 .552.447 1 1 1s1-.448 1-1v-2c0-4.411-3.589-8-8-8s-8 3.589-8 8v4c0 3.955 2.948 7.359 6.858 7.919.535.079 1.056-.299 1.131-.849.079-.547-.301-1.054-.848-1.132-2.595-.371-4.618-2.417-5.049-4.938h2.908c.552 0 1-.448 1-1s-.448-1-1-1h-3v-2h3c.552 0 1-.448 1-1s-.448-1-1-1h-2.91c.478-2.833 2.942-5 5.91-5s5.431 2.167 5.91 5zm-6.82 14.959c-4.81-.434-8.616-4.239-9.049-9.049-.049-.549-.523-.944-1.086-.906-.55.05-.955.536-.906 1.086.521 5.773 5.088 10.341 10.861 10.861.542.051 1.038-.354 1.086-.906.049-.55-.356-1.036-.906-1.086z"/></svg>