<svg id="Layer_1" viewBox="0 0 24 24" xmlns="http://www.w3.org/2000/svg" data-name="Layer 1"><path d="m13 14.2h1.2v-1.2h1.6v1.2h1.2v1.6h-1.2v1.2h-1.6v-1.2h-1.2zm-1.846.438c.515.458.846 1.118.846 1.862 0 1.381-1.119 2.5-2.5 2.5h-2.5v-8h2.308c1.266 0 2.292 1.026 2.292 2.292 0 .505-.169.968-.446 1.347zm-2.554-.655h.708c.381 0 .692-.31.692-.692s-.31-.692-.692-.692h-.708v1.383zm1.8 2.517c0-.496-.404-.9-.9-.9h-.9v1.8h.9c.496 0 .9-.404.9-.9zm11.6-8.914v16.414h-20v-21c0-1.654 1.346-3 3-3h9.414zm-7-.586h3.586l-3.586-3.586zm5 2h-7v-7h-8c-.551 0-1 .449-1 1v19h16z"/></svg>