<svg id="Layer_1" viewBox="0 0 24 24" xmlns="http://www.w3.org/2000/svg" data-name="Layer 1"><path d="m18 12c3.309 0 6-2.691 6-6s-2.691-6-6-6-6 2.691-6 6 2.691 6 6 6zm-4-6c0-.74.215-1.424.567-2.019l5.453 5.453c-.595.351-1.28.567-2.019.567-2.206 0-4-1.794-4-4zm8 0c0 .74-.215 1.424-.567 2.019l-5.453-5.453c.595-.351 1.28-.567 2.019-.567 2.206 0 4 1.794 4 4zm.999 7.017c-.551-.106-1.064.26-1.164.803-.49 2.667-2.014 4.923-4.113 6.386-.765-2.463-3.041-4.205-5.722-4.205s-4.948 1.736-5.717 4.193c-2.585-1.81-4.283-4.805-4.283-8.193 0-4.829 3.44-8.965 8.181-9.836.543-.1.902-.621.803-1.164s-.61-.904-1.164-.803c-5.69 1.045-9.82 6.009-9.82 11.802 0 6.617 5.383 12 12 12 5.793 0 10.757-4.13 11.802-9.819.1-.543-.26-1.064-.803-1.164zm-14.903 8.188c.372-1.85 1.975-3.205 3.904-3.205s3.529 1.353 3.903 3.2c-1.206.511-2.524.8-3.903.8s-2.704-.284-3.904-.795zm2.571-12.696c-.424.379-.667.923-.667 1.491 0 1.103.897 2 2 2 .175 0 .346-.022.511-.066.399-.105.819.074 1.048.417.375.562.102 1.351-.552 1.52-.826.214-1.727.164-2.593-.185-.682-.275-1.278-.762-1.69-1.372-1.221-1.809-.817-4.02.609-5.296.41-.368 1.044-.333 1.412.078s.333 1.044-.078 1.412z"/></svg>