<svg id="Layer_1" viewBox="0 0 24 24" xmlns="http://www.w3.org/2000/svg" data-name="Layer 1"><path d="m15 12c.552 0 1-.447 1-1v-6c0-2.757-2.243-5-5-5h-6c-2.757 0-5 2.243-5 5v14c0 2.757 2.243 5 5 5h6c.552 0 1-.447 1-1s-.448-1-1-1h-6c-1.654 0-3-1.346-3-3v-14c0-1.654 1.346-3 3-3h6c1.654 0 3 1.346 3 3v6c0 .553.448 1 1 1zm8.707 10.293c.391.391.391 1.023 0 1.414s-1.023.391-1.414 0l-3.293-3.293-3.293 3.293c-.391.391-1.023.391-1.414 0s-.391-1.023 0-1.414l3.293-3.293-3.293-3.293c-.391-.391-.391-1.023 0-1.414s1.023-.391 1.414 0l3.293 3.293 3.293-3.293c.391-.391 1.023-.391 1.414 0s.391 1.023 0 1.414l-3.293 3.293zm-17.707-9.293h-1c-.552 0-1 .447-1 1s.448 1 1 1h1c.552 0 1-.447 1-1s-.448-1-1-1zm5 0h-1c-.552 0-1 .447-1 1s.448 1 1 1h1c.552 0 1-.447 1-1s-.448-1-1-1zm-5 4h-1c-.552 0-1 .447-1 1s.448 1 1 1h1c.552 0 1-.447 1-1s-.448-1-1-1zm5 0h-1c-.552 0-1 .447-1 1s.448 1 1 1h1c.552 0 1-.447 1-1s-.448-1-1-1zm-5-12h-1c-.552 0-1 .447-1 1s.448 1 1 1h1c.552 0 1-.447 1-1s-.448-1-1-1zm5 0h-1c-.552 0-1 .447-1 1s.448 1 1 1h1c.552 0 1-.447 1-1s-.448-1-1-1zm-5 4h-1c-.552 0-1 .447-1 1s.448 1 1 1h1c.552 0 1-.447 1-1s-.448-1-1-1zm5 0h-1c-.552 0-1 .447-1 1s.448 1 1 1h1c.552 0 1-.447 1-1s-.448-1-1-1z"/></svg>