<svg id="Layer_1" viewBox="0 0 24 24" xmlns="http://www.w3.org/2000/svg" data-name="Layer 1"><path d="m22 18.184v-1.184c0-.552-.447-1-1-1s-1 .448-1 1v1h-4.5c-.266 0-.52.105-.707.293l-.707.707h-4.172l-.707-.707c-.188-.188-.441-.293-.707-.293h-4.5v-7c0-1.654 1.346-3 3-3h6c.553 0 1-.448 1-1s-.447-1-1-1h-6c-2.757 0-5 2.243-5 5v7.184c-1.161.414-2 1.514-2 2.816 0 1.654 1.346 3 3 3h18c1.654 0 3-1.346 3-3 0-1.302-.839-2.402-2-2.816zm-1 3.816h-18c-.552 0-1-.449-1-1s.448-1 1-1h5.086l.707.707c.188.188.441.293.707.293h5c.266 0 .52-.105.707-.293l.707-.707h5.086c.552 0 1 .449 1 1s-.448 1-1 1zm-5-17c0-1.654 1.346-3 3-3v-1c0-.552.447-1 1-1s1 .448 1 1v1.003h.271c1.063 0 2.057.573 2.593 1.495.278.477.116 1.089-.361 1.367-.479.277-1.09.116-1.367-.362-.183-.312-.505-.5-.866-.5l-2.271-.003c-.551 0-.999.449-.999 1 0 .378.271.698.644.76l3.041.507c1.342.223 2.315 1.373 2.315 2.733 0 1.654-1.346 3-3 3v1c0 .552-.447 1-1 1s-1-.448-1-1v-1.002h-.27c-1.066 0-2.061-.574-2.596-1.496-.277-.478-.114-1.09.364-1.367.477-.276 1.09-.114 1.366.364.179.308.51.499.866.499l2.27.002c.551 0 .999-.449.999-1 0-.378-.271-.698-.644-.76l-3.041-.507c-1.342-.223-2.315-1.373-2.315-2.733z"/></svg>