<svg id="Layer_1" viewBox="0 0 24 24" xmlns="http://www.w3.org/2000/svg" data-name="Layer 1"><path d="m4 9c0-.828.672-1.5 1.5-1.5s1.5.672 1.5 1.5-.672 1.5-1.5 1.5-1.5-.672-1.5-1.5zm-4 1v-2c0-1.474.81-2.75 2-3.444v-1.056c0-1.93 1.57-3.5 3.5-3.5s3.5 1.57 3.5 3.5v1.056c1.19.694 2 1.97 2 3.444v2c0 2.206-1.794 4-4 4h-3c-2.206 0-4-1.794-4-4zm4-6h3v-.5c0-.827-.673-1.5-1.5-1.5s-1.5.673-1.5 1.5zm-2 6c0 1.103.897 2 2 2h3c1.103 0 2-.897 2-2v-2c0-1.103-.897-2-2-2h-3c-1.103 0-2 .897-2 2zm17-10h-7c-.552 0-1 .447-1 1s.448 1 1 1h7c1.654 0 3 1.346 3 3v16.85c0 .15-.17.173-.176.161l-4.696-3.789c-.178-.144-.399-.222-.628-.222h-11.5c-1.37 0-2.565-.925-2.906-2.249-.137-.534-.68-.856-1.217-.72-.535.138-.857.684-.719 1.218.568 2.209 2.56 3.751 4.842 3.751h11.147l4.513 3.637c.661.441 1.507.481 2.205.106.7-.374 1.135-1.1 1.135-1.894v-16.849c0-2.757-2.243-5-5-5z"/></svg>