<svg id="Layer_1" viewBox="0 0 24 24" xmlns="http://www.w3.org/2000/svg" data-name="Layer 1"><path d="m22.8 1.2c-.796-.797-1.872-1.216-2.987-1.2-3.972.083-9.48.955-13.166 4.641-5.099 5.099-4.749 13.71-4.57 15.868l-1.784 1.784c-.391.391-.391 1.023 0 1.414.195.195.451.293.707.293s.512-.098.707-.293l1.783-1.783c.457.037 1.199.082 2.133.082 3.504 0 9.714-.631 13.735-4.652 3.686-3.687 4.558-9.195 4.641-13.167.023-1.129-.402-2.19-1.199-2.987zm-.801 2.946c-.031 1.503-.207 3.656-.816 5.854h-5.769l6.492-6.492c.06.205.098.417.094.637zm-3.234 10.854h-8.351l3-3h7.08c-.44 1.057-1.006 2.078-1.729 3zm-9.765-9.765c.922-.724 1.943-1.29 3-1.73v7.08l-3 3zm10.854-3.235c.225-.003.435.035.638.093l-6.492 6.492v-5.768c2.198-.61 4.351-.785 5.854-.816zm-12.854 5.319v8.267l-2.993 2.993c-.013-2.796.395-7.698 2.993-11.26zm-1.578 12.673 2.992-2.992h8.267c-3.562 2.597-8.464 3.004-11.259 2.992z"/></svg>