<svg id="Layer_1" viewBox="0 0 24 24" xmlns="http://www.w3.org/2000/svg" data-name="Layer 1"><path d="m14 9v1c-.552 0-1 .448-1 1s.448 1 1 1h9c.552 0 1-.448 1-1s-.448-1-1-1v-1c0-1.654-1.346-3-3-3h-.373c.663-1.253 1.373-2.764 1.373-3.5 0-1.381-1.119-2.45-2.5-2.45s-2.5 1.069-2.5 2.45c0 .736.71 2.247 1.373 3.5h-.373c-1.654 0-3 1.346-3 3zm6-1c.551 0 1 .449 1 1v1h-5v-1c0-.551.449-1 1-1zm1 9h-1v-2c0-.552-.448-1-1-1s-1 .448-1 1v2h-5c-1.654 0-3 1.346-3 3v.5c0 .827-.673 1.5-1.5 1.5s-1.5-.673-1.5-1.5v-17c0-.539-.133-1.044-.351-1.5h6.351c.552 0 1-.448 1-1s-.448-1-1-1h-9.5c-1.93 0-3.5 1.57-3.5 3.5v.5c0 1.654 1.346 3 3 3h2v13.5c0 1.929 1.569 3.499 3.499 3.5h12.001c1.93 0 3.5-1.57 3.5-3.5v-.5c0-1.654-1.346-3-3-3zm-16-12h-2c-.551 0-1-.449-1-1v-.5c0-.827.673-1.5 1.5-1.5s1.5.673 1.5 1.5zm17 15.5c0 .827-.673 1.5-1.5 1.5h-8.838c.216-.455.338-.963.338-1.5v-.5c0-.551.449-1 1-1h8c.551 0 1 .449 1 1z"/></svg>