<svg id="Layer_1" viewBox="0 0 24 24" xmlns="http://www.w3.org/2000/svg" data-name="Layer 1"><path d="m19 1h-14c-2.757 0-5 2.243-5 5v8c0 2.757 2.243 5 5 5h6v2h-4c-.553 0-1 .447-1 1s.447 1 1 1h10c.553 0 1-.447 1-1s-.447-1-1-1h-4v-2h6c2.757 0 5-2.243 5-5v-8c0-2.757-2.243-5-5-5zm-14 2h14c1.654 0 3 1.346 3 3v7h-20v-7c0-1.654 1.346-3 3-3zm14 14h-14c-1.302 0-2.402-.839-2.816-2h19.632c-.414 1.161-1.514 2-2.816 2zm-5.2-5h1.5c1.27 0 2.3-1.03 2.3-2.3v-3.4c0-1.27-1.03-2.3-2.3-2.3h-1.5c-.442 0-.8.358-.8.8v6.4c0 .442.358.8.8.8zm.8-6.402h.7c.386 0 .7.314.7.7v3.402c0 .386-.314.7-.7.7h-.7zm-7.384 6.402c.345 0 .641-.246.704-.585l.166-.889h2.006l.157.883c.061.342.358.591.705.591h.01c.453 0 .793-.416.701-.86l-1.221-5.947c-.12-.668-.589-1.192-1.346-1.192-.757 0-1.281.586-1.385 1.166l-1.2 5.976c-.089.443.25.857.702.857zm1.862-6.295.638 3.295h-1.262z"/></svg>