<svg id="Layer_1" viewBox="0 0 24 24" xmlns="http://www.w3.org/2000/svg" data-name="Layer 1"><path d="m19 1h-14c-2.757 0-5 2.243-5 5v8c0 2.757 2.243 5 5 5h6v2h-4c-.552 0-1 .448-1 1s.448 1 1 1h10c.552 0 1-.448 1-1s-.448-1-1-1h-4v-2h6c2.757 0 5-2.243 5-5v-8c0-2.757-2.243-5-5-5zm1.5 3.5c0 .828-.672 1.5-1.5 1.5s-1.5-.672-1.5-1.5.672-1.5 1.5-1.5c.104 0 .202.02.303.031.683.14 1.197.745 1.197 1.469zm-7 0c0 .828-.672 1.5-1.5 1.5s-1.5-.672-1.5-1.5.672-1.5 1.5-1.5 1.5.672 1.5 1.5zm-7 0c0 .828-.672 1.5-1.5 1.5s-1.5-.672-1.5-1.5c0-.725.514-1.329 1.197-1.469.101-.01.199-.031.303-.031.828 0 1.5.672 1.5 1.5zm12.5 12.5h-3.55c-.245-1.694-1.688-3-3.45-3s-3.205 1.306-3.45 3h-3.55c-1.654 0-3-1.346-3-3v-5.266c.608-1.032 1.715-1.734 3-1.734 1.394 0 2.587.821 3.15 2h.699c.563-1.179 1.756-2 3.15-2s2.587.821 3.15 2h.699c.563-1.179 1.756-2 3.15-2 1.285 0 2.392.702 3 1.734v5.266c0 1.654-1.346 3-3 3zm-5-6c0 1.105-.895 2-2 2s-2-.895-2-2 .895-2 2-2 2 .895 2 2z"/></svg>