<?xml version="1.0" encoding="UTF-8"?>
<svg xmlns="http://www.w3.org/2000/svg" id="Layer_1" data-name="Layer 1" viewBox="0 0 24 24">
  <path d="M9,12c3.309,0,6-2.691,6-6S12.309,0,9,0,3,2.691,3,6s2.691,6,6,6Zm0-10c2.206,0,4,1.794,4,4s-1.794,4-4,4-4-1.794-4-4,1.794-4,4-4Zm1.751,14.221c-.57-.146-1.16-.221-1.751-.221-3.86,0-7,3.141-7,7,0,.553-.448,1-1,1s-1-.447-1-1c0-4.963,4.038-9,9-9,.76,0,1.516,.096,2.249,.283,.535,.138,.857,.683,.72,1.218-.137,.534-.68,.858-1.217,.72Zm13.221-3.125c-.39,1.534-1.609,4.448-4.115,6.472-1.132,.914-2.295,1.47-3.357,1.807,0,0,1-3.375,4.066-6.941-3.103,1.718-5.314,4.825-6.277,7.412-.18,.459-.327,.936-.456,1.408-.122,.445-.535,.747-.997,.747-.684,0-1.192-.651-1.005-1.309,.141-.496,.305-1,.5-1.495,.166-1.36,.992-4.675,3.755-6.906,2.459-1.986,5.498-2.29,7.017-2.289,.579,0,1.012,.534,.869,1.095Z"/>
</svg>
