<?xml version="1.0" encoding="UTF-8"?>
<svg xmlns="http://www.w3.org/2000/svg" id="Layer_1" data-name="Layer 1" viewBox="0 0 24 24">
  <path d="M8.666,17.925c-.335,.628-1.003,1.058-1.772,1.058-1.08,0-1.956-.876-1.956-1.956l-.008-2.055c0-1.08,.876-1.956,1.956-1.956,.768,0,1.437,.429,1.772,1.058,.221,.415-.08,.916-.55,.916-.227,0-.439-.121-.545-.322-.124-.236-.379-.402-.665-.407-.399,.007-.721,.331-.72,.732,0,.095-.002,.391-.005,.751h.004c.004,.575,.009,1.124,.009,1.261-.001,.401,.321,.725,.72,.732,.287-.005,.541-.171,.665-.407,.106-.201,.318-.322,.545-.322,.47,0,.771,.501,.55,.916Zm8.936-2.488c-.655-.242-1.25-.504-1.265-.504-.142-.096-.137-.242-.129-.301,.012-.079,.069-.271,.36-.359,.654-.195,1.258,.277,1.283,.298,.261,.219,.651,.186,.87-.075l.005-.005c.22-.261,.186-.651-.075-.871l-.003-.002c-.045-.038-1.128-.929-2.438-.534-.667,.201-1.139,.727-1.232,1.373-.086,.607,.177,1.191,.773,1.57,0,0,.674,.301,1.422,.577,.158,.058,.668,.275,.607,.618-.046,.255-.359,.519-.805,.519-.465,0-.913-.187-1.197-.501h0c-.23-.254-.623-.273-.877-.043h0c-.254,.231-.273,.624-.042,.878,.524,.578,1.296,.909,2.118,.909,1.016,0,1.869-.649,2.029-1.543,.12-.674-.185-1.554-1.4-2.002Zm-5.194,0c-.655-.242-1.25-.504-1.265-.504-.142-.096-.137-.242-.129-.301,.012-.079,.069-.271,.36-.359,.654-.195,1.258,.277,1.283,.298,.261,.219,.651,.186,.87-.075l.005-.005c.22-.261,.186-.651-.075-.871l-.003-.002c-.045-.038-1.128-.929-2.438-.534-.667,.201-1.139,.727-1.232,1.373-.086,.607,.177,1.191,.773,1.57,0,0,.674,.301,1.422,.577,.158,.058,.668,.275,.607,.618-.046,.255-.359,.519-.805,.519-.465,0-.913-.187-1.197-.501h0c-.23-.254-.623-.273-.877-.043h0c-.254,.231-.273,.624-.042,.878,.524,.578,1.296,.909,2.118,.909,1.016,0,1.869-.649,2.029-1.543,.12-.674-.185-1.554-1.4-2.002Zm9.592-4.952v8.515c0,2.757-2.243,5-5,5H7c-2.757,0-5-2.243-5-5V5C2,2.243,4.243,0,7,0h4.515c1.869,0,3.627,.728,4.95,2.05l3.484,3.486c1.322,1.321,2.051,3.079,2.051,4.95ZM15.051,3.464c-.315-.315-.675-.564-1.051-.781V7c0,.551,.448,1,1,1h4.316c-.217-.376-.466-.735-.781-1.05l-3.484-3.486Zm4.949,7.021c0-.165-.032-.323-.047-.485h-4.953c-1.654,0-3-1.346-3-3V2.047c-.162-.016-.321-.047-.485-.047H7c-1.654,0-3,1.346-3,3v14c0,1.654,1.346,3,3,3h10c1.654,0,3-1.346,3-3V10.485Z"/>
</svg>
