<svg id="Layer_1" viewBox="0 0 24 24" xmlns="http://www.w3.org/2000/svg" data-name="Layer 1"><path d="m19 0h-14c-2.757 0-5 2.243-5 5v14c0 2.757 2.243 5 5 5h14c2.761 0 5-2.239 5-5v-14c0-2.757-2.243-5-5-5zm3 5v1h-14v-4h11c1.654 0 3 1.346 3 3zm-13.828 5.576c.377-.392.997-.41 1.397-.042l.524.483 1.592-1.653c.391-.406 1.04-.409 1.435-.006.378.386.38 1.003.006 1.392l-1.626 1.689-.004.004c-.744.744-2.058.746-2.823-.019l-.457-.42c-.413-.38-.433-1.025-.044-1.429zm-3.172-8.576h1v4h-4v-1c0-1.654 1.346-3 3-3zm-3 17v-11h4v14h-1c-1.654 0-3-1.346-3-3zm20.126-.25-1.626 1.689-.004.004c-.744.744-2.058.746-2.823-.019l-.457-.42c-.413-.38-.433-1.025-.044-1.429.377-.392.997-.41 1.397-.042l.524.483 1.592-1.653c.391-.406 1.04-.409 1.435-.006.378.386.38 1.003.006 1.392zm-7.126-3.75v7h-7v-7h7v-7h7v7z"/></svg>