<svg id="Layer_1" viewBox="0 0 24 24" xmlns="http://www.w3.org/2000/svg" data-name="Layer 1"><path d="m23.492 12.017c-.487-.654-1.234-1.03-2.05-1.03h-12.827c-1.7 0-3.218 1.079-3.789 2.72l-2.19 7.138c-.398-.509-.636-1.15-.636-1.845v-13c0-1.103.897-2 2-2h2c.154 0 .31.037.447.105l2.105 1.053c.494.247 1.094.047 1.342-.447.247-.494.047-1.095-.447-1.342l-2.105-1.053c-.414-.207-.878-.316-1.342-.316h-2c-2.206 0-4 1.794-4 4v13c0 2.757 2.243 5 5 5h12.558c2.226 0 4.15-1.432 4.802-3.607l1.531-6.116c.234-.782.089-1.605-.398-2.26zm-1.528 1.73-1.532 6.115c-.384 1.279-1.539 2.138-2.874 2.138h-12.558c-.208 0-.411-.021-.607-.062l2.334-7.609c.279-.803 1.039-1.342 1.889-1.342h12.828c.242 0 .383.14.445.224s.156.259.075.536zm-8.964-4.747c.553 0 1-.448 1-1v-1.321c.65.194 1.459.321 2.5.321 1.02 0 1.838-.129 2.5-.331v1.331c0 .552.447 1 1 1s1-.448 1-1v-6.5c0-.883-1.85-1.5-4.5-1.5s-4.5.617-4.5 1.5v6.5c0 .552.447 1 1 1zm6-6.227v1.737c-.263.18-1.02.489-2.5.489-1.504 0-2.251-.292-2.5-.458v-1.769c.698.144 1.544.227 2.5.227s1.802-.083 2.5-.227z"/></svg>