<svg id="Layer_1" viewBox="0 0 24 24" xmlns="http://www.w3.org/2000/svg" data-name="Layer 1"><path d="m20.5 11h-5c-1.93 0-3.5 1.57-3.5 3.5v2c0 1.93 1.57 3.5 3.5 3.5h1.5v2h-1.5c-.553 0-1 .447-1 1s.447 1 1 1h5c.553 0 1-.447 1-1s-.447-1-1-1h-1.5v-2h1.5c1.93 0 3.5-1.57 3.5-3.5v-2c0-1.93-1.57-3.5-3.5-3.5zm1.5 5.5c0 .827-.673 1.5-1.5 1.5h-5c-.827 0-1.5-.673-1.5-1.5v-2c0-.827.673-1.5 1.5-1.5h5c.827 0 1.5.673 1.5 1.5zm-13.5-7.5c1.93 0 3.5-1.57 3.5-3.5v-2c0-1.93-1.57-3.5-3.5-3.5h-5c-1.93 0-3.5 1.57-3.5 3.5v2c0 1.93 1.57 3.5 3.5 3.5h1.5v2h-1.5c-.553 0-1 .447-1 1s.447 1 1 1h5c.553 0 1-.447 1-1s-.447-1-1-1h-1.5v-2zm-6.5-3.5v-2c0-.827.673-1.5 1.5-1.5h5c.827 0 1.5.673 1.5 1.5v2c0 .827-.673 1.5-1.5 1.5h-5c-.827 0-1.5-.673-1.5-1.5zm6.437 13.139c.751.751.751 1.972 0 2.723l-2.346 2.346c-.391.391-1.023.391-1.414 0s-.391-1.023 0-1.414l1.293-1.293h-1.471c-2.481 0-4.5-2.019-4.5-4.5v-1.5c0-.553.447-1 1-1s1 .447 1 1v1.5c0 1.379 1.121 2.5 2.5 2.5h1.471l-1.293-1.293c-.391-.391-.391-1.023 0-1.414s1.023-.391 1.414 0l2.346 2.346zm15.563-11.139v1.5c0 .553-.447 1-1 1s-1-.447-1-1v-1.5c0-1.379-1.121-2.5-2.5-2.5h-1.471l1.293 1.293c.391.391.391 1.023 0 1.414s-1.023.391-1.414 0l-2.346-2.346c-.751-.751-.751-1.972 0-2.723l2.346-2.346c.391-.391 1.023-.391 1.414 0s.391 1.023 0 1.414l-1.293 1.293h1.471c2.481 0 4.5 2.019 4.5 4.5z"/></svg>