<?xml version="1.0" encoding="UTF-8"?>
<svg xmlns="http://www.w3.org/2000/svg" id="Layer_1" data-name="Layer 1" viewBox="0 0 24 24">
  <path d="M7.394,13.189c.249,.294,.113,.747-.256,.856l-2.365,.856,1.179,1.591c.235,.335,.079,.801-.309,.929l-3.884,1.156c-.317,.093-.658-.026-.847-.297l-.795-1.135c-.254-.363-.075-.868,.352-.988l2.374-.563-1.159-1.654c-.274-.391-.002-.929,.475-.941H7.002c.151,.005,.294,.073,.392,.189Zm-.256-3.234l-2.365-.856,1.179-1.591c.235-.335,.079-.801-.309-.929l-3.884-1.156c-.317-.093-.658,.026-.847,.297L.117,6.854c-.254,.363-.075,.868,.352,.988l2.374,.563-1.159,1.654c-.274,.391-.002,.929,.475,.941H7.002c.59-.006,.711-.889,.135-1.045ZM21.5,0c-1.381,0-2.5,1.119-2.5,2.5s1.119,2.5,2.5,2.5,2.5-1.119,2.5-2.5-1.119-2.5-2.5-2.5ZM11,18.333c0,.215-.071,.428-.2,.601l-2.6,3.467c-.332,.441-.242,1.068,.2,1.399,.18,.135,.39,.2,.599,.2,.305,0,.604-.138,.801-.4l2.6-3.466c.387-.516,.601-1.155,.601-1.801v-.407l-2-1.417v1.824Zm8.524-8.814l-3.782,5.448,3.414,2.418c.528,.375,.844,.984,.844,1.632v3.983c0,.553-.447,1-1,1s-1-.447-1-1v-3.983l-5.854-4.146c-1.335-.904-1.676-2.883-.718-4.181l3.25-4.689h-2.155l-2.127,3.07c-.314,.452-.938,.566-1.392,.252s-.567-.938-.253-1.392l2.128-3.07c.373-.539,.987-.86,1.644-.86h2.381c1.425,0,2.825,.486,3.943,1.37,1.307,.922,1.63,2.798,.677,4.149Zm-1.874-2.548c-.267-.211-.556-.375-.851-.518l-3.732,5.383c-.647,.868,.394,1.571,1.043,1.974l3.775-5.439c.322-.457,.215-1.083-.235-1.401Z"/>
</svg>
