<svg id="Layer_1" viewBox="0 0 24 24" xmlns="http://www.w3.org/2000/svg" data-name="Layer 1"><path d="m23 7h-3v-2h3c.553 0 1-.447 1-1s-.447-1-1-1h-3v-2c0-.553-.447-1-1-1s-1 .447-1 1h-3c-2.414 0-4.434 1.721-4.899 4h-5.101c-2.757 0-5 2.243-5 5v10.354c0 1.219.444 2.394 1.25 3.307.367.416.999.453 1.411.089.415-.365.454-.997.089-1.411-.483-.549-.75-1.253-.75-1.984v-10.354c0-1.654 1.346-3 3-3h5.101c.465 2.279 2.484 4 4.899 4h3c0 .553.447 1 1 1s1-.447 1-1v-2h3c.553 0 1-.447 1-1s-.447-1-1-1zm-8 2c-1.654 0-3-1.346-3-3s1.346-3 3-3h3v6zm6 5c-1.654 0-3 1.346-3 3v4c0 1.654 1.346 3 3 3s3-1.346 3-3v-4c0-1.654-1.346-3-3-3zm1 7c0 .552-.448 1-1 1s-1-.448-1-1v-4c0-.552.448-1 1-1s1 .448 1 1zm-9-4v4c0 .552.448 1 1 1s1-.448 1-1 .447-1 1-1 1 .447 1 1c0 1.654-1.346 3-3 3s-3-1.346-3-3v-4c0-1.654 1.346-3 3-3s3 1.346 3 3c0 .553-.447 1-1 1s-1-.447-1-1-.448-1-1-1-1 .448-1 1zm-6-1v2h1c.553 0 1 .447 1 1s-.447 1-1 1h-1v2h2c.553 0 1 .447 1 1s-.447 1-1 1h-2c-1.103 0-2-.897-2-2v-6c0-1.103.897-2 2-2h2c.553 0 1 .447 1 1s-.447 1-1 1z"/></svg>