<svg id="Layer_1" viewBox="0 0 24 24" xmlns="http://www.w3.org/2000/svg" data-name="Layer 1"><path d="m11 2.5c0-1.381 1.119-2.5 2.5-2.5s2.5 1.119 2.5 2.5-1.119 2.5-2.5 2.5-2.5-1.119-2.5-2.5zm13 9.737v1.594c0 1.264-.944 2.332-2.197 2.483-2.607.315-5.188.531-7.41.627l.197.123c.883.551 1.41 1.502 1.41 2.544v3.392c0 .552-.447 1-1 1s-1-.448-1-1v-3.392c0-.347-.176-.664-.47-.848l-2.851-1.782c-2.438-.065-5.443-.298-8.482-.665-1.294-.157-2.198-1.257-2.198-2.677v-1.402c0-.576.248-1.124.679-1.503.431-.378 1.005-.554 1.571-.479 2.018.262 3.997.459 5.799.586l1.165-2.84h-1.726c-1.335 0-2.49-.859-2.874-2.138l-1.072-3.575c-.159-.529.142-1.086.671-1.245.53-.158 1.087.142 1.245.671l1.072 3.575c.128.426.513.712.958.712h10.523c.445 0 .83-.287.958-.713l1.072-3.574c.158-.529.714-.832 1.245-.671.529.159.829.716.671 1.245l-1.072 3.575c-.384 1.279-1.539 2.138-2.874 2.138h-2.136l-1.221 2.92c2.121-.112 4.579-.34 7.094-.666.571-.075 1.141.101 1.57.479.433.38.681.929.681 1.505zm-13.838-1.279c.654.026 1.274.042 1.838.042.145 0 .304-.004.456-.006l1.252-2.994h-2.331l-1.213 2.958zm11.838 1.279c-2.144.287-6.681.772-10 .763-3.589 0-7.811-.478-10.007-.763l.007 1.4c0 .15.032.642.438.691 3.535.427 7.021.671 9.562.671s6.026-.245 9.562-.671c.254-.031.438-.24.438-.498v-1.594zm-12.586 6.631c-.507-.217-1.096.018-1.313.525-.158.369-.519.606-.919.606h-3.181c-.552 0-1 .448-1 1s.448 1 1 1h3.181c1.202 0 2.284-.714 2.757-1.818.218-.508-.018-1.096-.525-1.313z"/></svg>