<svg id="Layer_1" viewBox="0 0 24 24" xmlns="http://www.w3.org/2000/svg" data-name="Layer 1"><path d="m8 23c0 .552-.447 1-1 1h-2c-2.757 0-5-2.243-5-5v-2c0-.552.447-1 1-1s1 .448 1 1v2c0 1.654 1.346 3 3 3h2c.553 0 1 .448 1 1zm15-7c-.553 0-1 .448-1 1v2c0 1.654-1.346 3-3 3h-2c-.553 0-1 .448-1 1s.447 1 1 1h2c2.757 0 5-2.243 5-5v-2c0-.552-.447-1-1-1zm-4-16h-2c-.553 0-1 .448-1 1s.447 1 1 1h2c1.654 0 3 1.346 3 3v2c0 .552.447 1 1 1s1-.448 1-1v-2c0-2.757-2.243-5-5-5zm-18 8c.553 0 1-.448 1-1v-2c0-1.654 1.346-3 3-3h2c.553 0 1-.448 1-1s-.447-1-1-1h-2c-2.757 0-5 2.243-5 5v2c0 .552.447 1 1 1zm23 4c0 .552-.447 1-1 1h-22c-.553 0-1-.448-1-1s.447-1 1-1h2.995c.521-.963 2.51-3.628 5.607-4.622.738-.237 1.539-.378 2.398-.378 4.461 0 7.359 3.805 8.005 5h2.995c.553 0 1 .448 1 1zm-17.572-1h3.849c.346-.595.984-1 1.723-1s1.376.405 1.723 1h3.85c-.919-1.112-2.652-2.699-4.923-2.962-.212-.025-.429-.038-.65-.038-2.586 0-4.565 1.785-5.572 3zm10.875 3.805c-.329-.444-.953-.536-1.399-.208-2.472 1.833-5.206 1.863-7.685.09-.45-.321-1.074-.217-1.396.232s-.218 1.074.231 1.395c1.565 1.119 3.229 1.687 4.944 1.687 1.772 0 3.486-.604 5.096-1.797.443-.329.536-.955.208-1.398z"/></svg>