<svg id="Layer_1" viewBox="0 0 24 24" xmlns="http://www.w3.org/2000/svg" data-name="Layer 1"><path d="m12 12c-3.309 0-6 2.691-6 6s2.691 6 6 6 6-2.691 6-6-2.691-6-6-6zm0 10c-2.206 0-4-1.794-4-4s1.794-4 4-4 4 1.794 4 4-1.794 4-4 4zm1.714-3.75c.4.38.417 1.014.036 1.413-.38.401-1.014.417-1.413.036l-1.025-.975c-.199-.188-.312-.45-.312-.725v-2c0-.553.447-1 1-1s1 .447 1 1v1.571l.714.679zm-9.214-3.25c0 .553-.447 1-1 1h-2.5c-.553 0-1-.447-1-1s.447-1 1-1h2.5c.553 0 1 .447 1 1zm19.315-4.193c-1.637-5.224-6.006-10.807-13.36-10.807h-9.455c-.553 0-1 .448-1 1s.447 1 1 1h3v4h-3c-.553 0-1 .448-1 1s.447 1 1 1h19.387c.656 1.1 1.162 2.263 1.521 3.406.174.555.103 1.134-.202 1.63-.305.498-.806.839-1.372.935-.545.093-.911.608-.819 1.153.09.548.621.912 1.153.819 1.137-.192 2.137-.871 2.744-1.862.602-.982.749-2.175.404-3.274zm-17.815-8.807h3v4h-3zm5 4v-3.974c3.42.159 6.058 1.778 7.944 3.974z"/></svg>