<svg id="Layer_1" viewBox="0 0 24 24" xmlns="http://www.w3.org/2000/svg" data-name="Layer 1"><path d="m24 12c0-.572-.218-1.144-.654-1.581l-2.64-2.628c-.392-.391-1.024-.388-1.415.004-.389.391-.388 1.024.003 1.414l1.8 1.791h-6.594v-4c1.378 0 2.5-1.121 2.5-2.5v-2c0-1.379-1.122-2.5-2.5-2.5h-2c-1.378 0-2.5 1.121-2.5 2.5v2c0 1.379 1.122 2.5 2.5 2.5v4h-8v-4c1.378 0 2.5-1.121 2.5-2.5v-2c0-1.379-1.122-2.5-2.5-2.5h-2c-1.378 0-2.5 1.121-2.5 2.5v2c0 1.379 1.122 2.5 2.5 2.5v4h-1.5c-.552 0-1 .447-1 1s.448 1 1 1h6.5v4c-1.378 0-2.5 1.121-2.5 2.5v2c0 1.379 1.122 2.5 2.5 2.5h2c1.378 0 2.5-1.121 2.5-2.5v-2c0-1.379-1.122-2.5-2.5-2.5v-4h11.594l-1.799 1.791c-.391.39-.393 1.023-.003 1.414.39.392 1.023.394 1.415.004l2.642-2.63c.435-.436.652-1.007.653-1.579zm-12-7.5v-2c0-.275.224-.5.5-.5h2c.276 0 .5.225.5.5v2c0 .275-.224.5-.5.5h-2c-.276 0-.5-.225-.5-.5zm-10 0v-2c0-.275.224-.5.5-.5h2c.276 0 .5.225.5.5v2c0 .275-.224.5-.5.5h-2c-.276 0-.5-.225-.5-.5zm8 15v2c0 .275-.224.5-.5.5h-2c-.276 0-.5-.225-.5-.5v-2c0-.275.224-.5.5-.5h2c.276 0 .5.225.5.5z"/></svg>