<svg id="Layer_1" viewBox="0 0 24 24" xmlns="http://www.w3.org/2000/svg" data-name="Layer 1"><path d="m21 22h-2v-21c0-.553-.448-1-1-1s-1 .447-1 1v2h-2v-2c0-.553-.448-1-1-1s-1 .447-1 1v2h-2v-2c0-.553-.448-1-1-1s-1 .447-1 1v2h-2v-2c0-.553-.448-1-1-1s-1 .447-1 1v21h-2c-.552 0-1 .447-1 1s.448 1 1 1h18c.552 0 1-.447 1-1s-.448-1-1-1zm-14-17h10v17h-10zm6 3v1c0 .553-.448 1-1 1s-1-.447-1-1v-1c0-.553.448-1 1-1s1 .447 1 1zm0 5v1c0 .553-.448 1-1 1s-1-.447-1-1v-1c0-.553.448-1 1-1s1 .447 1 1zm0 5v1c0 .553-.448 1-1 1s-1-.447-1-1v-1c0-.553.448-1 1-1s1 .447 1 1z"/></svg>