<svg id="Layer_1" viewBox="0 0 24 24" xmlns="http://www.w3.org/2000/svg" data-name="Layer 1"><path d="m11 2.551c0-1.38 1.119-2.5 2.5-2.5s2.5 1.119 2.5 2.5-1.119 2.5-2.5 2.5-2.5-1.119-2.5-2.5zm10.5-2.551h-1c-1.379 0-2.5 1.122-2.5 2.5v8.491c-.298-.041-.567-.216-.725-.477l-1.833-3.057c-.557-.886-1.521-1.444-2.573-1.458h-5.123c-1.144 0-2.172.635-2.684 1.658l-1.447 2.895c-.247.494-.047 1.095.447 1.342s1.095.047 1.342-.447l1.447-2.895c.171-.341.514-.553.895-.553h.718l-1.753 4.273c-.554 1.35-.061 2.895 1.172 3.674l3.65 2.309c.292.185.466.501.466.846v3.898c0 .552.447 1 1 1s1-.448 1-1v-3.898c0-1.034-.521-1.982-1.396-2.536l-3.651-2.309c-.41-.26-.574-.775-.391-1.225l2.064-5.032h1.872l-1.8 4.39c-.21.511.034 1.095.545 1.305.499.208 1.095-.029 1.305-.546l1.615-3.938 1.398 2.332c.538.899 1.524 1.458 2.572 1.458h.867c.553 0 1-.448 1-1v-9.5c0-.276.225-.5.5-.5h1c.275 0 .5.224.5.5v19c0 .276-.225.5-.5.5h-1c-.275 0-.5-.224-.5-.5v-5.5c0-.552-.447-1-1-1s-1 .448-1 1v5.5c0 1.378 1.121 2.5 2.5 2.5h1c1.379 0 2.5-1.122 2.5-2.5v-19c.001-1.378-1.12-2.5-2.499-2.5zm-20.5 4h2v1.278c0 .642.679.963 1.076.509l2.459-2.278c.246-.281.246-.737 0-1.019l-2.459-2.278c-.397-.454-1.076-.132-1.076.509v1.278h-2c-.553 0-1 .448-1 1s.447 1 1 1zm6.409 17.984c-.707 1.147-1.919 1.97-3.266 2.014-2.275.074-4.143-1.748-4.143-4.007 0-.761.493-1.987.987-2.53.292-.321.615-.299.782.102.139.335.279.923.731.923 1.068 0 .814-1.511 1.177-2.847.18-.663.765-.825 1.278-.369 1.75 1.558 4.179 3.912 2.454 6.712zm-2.384-1.645-.584-.521c-.234-.234-.613-.234-.847 0l-.585.521c-.573.573-.675 1.512-.148 2.127.609.712 1.704.712 2.313 0 .527-.615.424-1.554-.148-2.127z"/></svg>