<svg id="Layer_1" viewBox="0 0 24 24" xmlns="http://www.w3.org/2000/svg" data-name="Layer 1"><path d="m11.979 22.797c.111.541-.236 1.07-.776 1.183-.527.112-1.073-.232-1.183-.776-.384-1.856-2.075-3.203-4.021-3.203s-3.637 1.347-4.021 3.203c-.112.54-.646.882-1.183.776-.54-.112-.888-.642-.776-1.183.576-2.779 3.091-4.797 5.979-4.797s5.403 2.018 5.979 4.797zm-9.979-10.797c0-2.206 1.794-4 4-4s4 1.794 4 4-1.794 4-4 4-4-1.794-4-4zm2 0c0 1.103.897 2 2 2s2-.897 2-2-.897-2-2-2-2 .897-2 2zm20-5.5c0 3.584-2.916 6.5-6.5 6.5s-6.5-2.916-6.5-6.5 2.916-6.5 6.5-6.5 6.5 2.916 6.5 6.5zm-2 0c0-2.481-2.019-4.5-4.5-4.5s-4.5 2.019-4.5 4.5 2.019 4.5 4.5 4.5 4.5-2.019 4.5-4.5zm-3.501-2.742c-.251-.252-.629-.329-.957-.19-.328.136-.541.456-.541.812v1.121h-2c-.553 0-1 .448-1 1s.447 1 1 1h2v1.121c0 .355.213.676.541.812.325.135.705.062.957-.19l1.5-1.5c.685-.685.685-1.8 0-2.485l-1.5-1.5z"/></svg>