<svg id="Layer_1" viewBox="0 0 24 24" xmlns="http://www.w3.org/2000/svg" data-name="Layer 1"><path d="m9.5 12.999c.828 0 1.5.672 1.5 1.5s-.672 1.5-1.5 1.5-1.5-.672-1.5-1.5.672-1.5 1.5-1.5zm3.5 1.5c0 .828.672 1.5 1.5 1.5s1.5-.672 1.5-1.5-.672-1.5-1.5-1.5-1.5.672-1.5 1.5zm9-3.138v-.613c0-1.136-.489-2.09-1.413-2.759-.449-.324-1.074-.223-1.396.224-.324.447-.225 1.073.223 1.396.406.293.587.645.587 1.139v1.422c0 .599.564 1.071 1.137.991.37.18.863.564.863 1.337.01.914-.855 1.653-1.756 1.472-.475-.082-.95.193-1.113.652-.916 2.597-4.001 5.377-7.131 5.377s-6.215-2.78-7.131-5.377c-.162-.459-.639-.733-1.113-.652-.901.182-1.766-.558-1.756-1.472 0-.775.495-1.159.861-1.337.59.081 1.139-.391 1.139-.991v-1.422c0-.494.181-.846.587-1.139.447-.324.547-.949.223-1.396-.323-.447-.948-.547-1.396-.224-.924.669-1.413 1.624-1.413 2.759v.613c-.933.461-2 1.44-2 3.137 0 1.852 1.446 3.373 3.268 3.492 1.406 3.064 4.866 6.009 8.732 6.009s7.326-2.945 8.732-6.009c1.821-.12 3.268-1.64 3.268-3.492 0-1.697-1.067-2.676-2-3.137zm-4.785-4.903c.515.158 1.088-.139 1.243-.673l1.142-3.833c.158-.53-.144-1.086-.673-1.244-.53-.158-1.087.145-1.243.673l-1.142 3.833c-.158.53.144 1.086.673 1.244zm-11.673-.672c.155.534.728.831 1.243.673.529-.158.831-.714.673-1.244l-1.142-3.833c-.157-.528-.713-.832-1.243-.673-.529.158-.831.714-.673 1.244zm6.458.214c.553 0 1-.448 1-1v-4c0-.552-.447-1-1-1s-1 .448-1 1v4c0 .552.447 1 1 1zm0 4c.828 0 1.5-.672 1.5-1.5s-.672-1.5-1.5-1.5-1.5.672-1.5 1.5.672 1.5 1.5 1.5zm4.068.436c.793.239 1.63-.21 1.869-1.004.239-.793-.21-1.63-1.004-1.869-.793-.239-1.63.21-1.869 1.004-.239.793.21 1.63 1.004 1.869zm-9.001-2.873c-.793.239-1.243 1.076-1.004 1.869s1.076 1.243 1.869 1.004c.793-.239 1.243-1.076 1.004-1.869s-1.076-1.243-1.869-1.004z"/></svg>