<svg id="Layer_1" viewBox="0 0 24 24" xmlns="http://www.w3.org/2000/svg" data-name="Layer 1"><path d="m9.414 15.415-2.704 2.727c-.389.392-1.022.395-1.414.006-.393-.389-.395-1.022-.006-1.414l1.718-1.733h-6.008c-.553 0-1-.448-1-1s.447-1 1-1h6.005l-1.715-1.733c-.389-.392-.387-1.025.006-1.414s1.025-.387 1.414.006l2.707 2.73c.375.374.583.876.583 1.411s-.208 1.037-.586 1.415zm8.086-4.415c-.828 0-1.5.672-1.5 1.5s.672 1.5 1.5 1.5 1.5-.672 1.5-1.5-.672-1.5-1.5-1.5zm6.5-5.379v15.379c0 1.654-1.346 3-3 3h-10c-1.654 0-3-1.346-3-3v-1c0-.552.447-1 1-1s1 .448 1 1v1c0 .551.448 1 1 1h1v-17.999s0 0 0 0c-1.103 0-2 .897-2 2v2c0 .552-.447 1-1 1s-1-.448-1-1v-2c0-2.206 1.794-4 4-4h.561c.237-.407.528-.785.903-1.092.931-.762 2.138-1.068 3.32-.829l3.196.64c2.329.465 4.02 2.527 4.02 4.902zm-2 0c0-1.425-1.015-2.662-2.412-2.941l-3.196-.64c-.588-.119-1.195.033-1.659.415-.466.382-.732.945-.732 1.547v17.999h7c.552 0 1-.449 1-1v-15.38z"/></svg>