<svg id="Layer_1" viewBox="0 0 24 24" xmlns="http://www.w3.org/2000/svg" data-name="Layer 1"><path d="m19 0h-14c-2.757 0-5 2.243-5 5v14c0 2.757 2.243 5 5 5h14c2.757 0 5-2.243 5-5v-14c0-2.757-2.243-5-5-5zm3 19c0 1.654-1.346 3-3 3h-14c-1.654 0-3-1.346-3-3v-14c0-1.654 1.346-3 3-3h14c1.654 0 3 1.346 3 3zm-3.695-13.1-.819-.738c-.836-.838-2.296-.838-3.134 0-.062.051-1.176 1.491-1.241 1.564-.793.843-.8 2.161-.021 3.013l.185.262c-.738 1.599-1.729 2.592-3.271 3.282l-.269-.189c-.829-.758-2.196-.749-3.013.021 0 0-1.532 1.208-1.56 1.236-.863.864-.863 2.269-.035 3.097l.808.892c.745.747 1.75 1.158 2.829 1.158h.008c4.612 0 10.729-6.116 10.729-10.729 0-1.082-.411-2.088-1.158-2.835-.012-.012-.024-.023-.037-.035zm-9.534 11.6c-.548 0-1.053-.203-1.386-.536l-.809-.893c-.075-.076-.083-.195-.022-.279l1.444-1.136c.18-.232.35-.151.526.033l.779.546c.272.191.622.234.931.115 2.532-.966 4.06-2.49 5.105-5.095.126-.314.085-.67-.109-.947l-.547-.779c-.174-.159-.246-.362-.033-.526l1.143-1.45c.098-.072.149-.105.315.058l.836.755c.358.367.556.865.556 1.404 0 3.852-5.413 8.729-8.729 8.73z"/></svg>