<svg id="Layer_1" viewBox="0 0 24 24" xmlns="http://www.w3.org/2000/svg" data-name="Layer 1"><path d="m23 14h-22c-.553 0-1 .448-1 1s.447 1 1 1h2.979c-1.256 1.005-2.265 2.327-2.842 3.898l-.998 2.719c-.19.519.075 1.093.594 1.284.114.042.23.062.345.062.407 0 .79-.251.938-.656l.998-2.719c1.008-2.744 3.648-4.587 6.571-4.587h3.914c.63 0 1.142.512 1.142 1.142 0 .565-.422 1.051-.98 1.131l-5.161.737c-.547.078-.927.584-.849 1.131.078.546.581.924 1.132.848l5.161-.737c.597-.085 1.134-.342 1.571-.711.022-.016 3.798-3.287 3.798-3.287.204-.178.453-.271.735-.246.269.019.515.141.692.345.361.416.319 1.052-.08 1.407l-5.312 4.48c-.419.359-.467.991-.107 1.41.197.23.478.349.759.349.23 0 .463-.079.651-.241l5.324-4.492c.942-.836 1.227-2.144.827-3.267h.197c.553 0 1-.448 1-1s-.447-1-1-1zm-20-6c0-.552.447-1 1-1h8.642c.447-1.72 1.999-3 3.858-3h3.5c.553 0 1 .448 1 1s-.447 1-1 1h-3.5c-.737 0-1.375.405-1.722 1h5.222c.553 0 1 .448 1 1s-.447 1-1 1h-5.222c.347.595.985 1 1.722 1h3.5c.553 0 1 .448 1 1s-.447 1-1 1h-3.5c-1.859 0-3.411-1.28-3.858-3h-8.642c-.553 0-1-.448-1-1zm.229-6.608c-.497-.535-.122-1.388.507-1.392h16.264c.553 0 1 .448 1 1s-.447 1-1 1h-5.207c-1.861 1.529-3.756 2.037-5.462 1.998-3.077-.121-5.25-1.666-6.102-2.606z"/></svg>