<svg id="Layer_1" viewBox="0 0 24 24" xmlns="http://www.w3.org/2000/svg" data-name="Layer 1"><path d="m17 16h-13v-11c0-1.654 1.346-3 3-3h5c.553 0 1-.448 1-1s-.447-1-1-1h-5c-2.757 0-5 2.243-5 5v14c0 2.757 2.243 5 5 5h6c2.757 0 5-2.243 5-5v-2c0-.552-.447-1-1-1zm-1 3c0 1.654-1.346 3-3 3h-6c-1.654 0-3-1.346-3-3v-1h12zm-8 1c0-.552.447-1 1-1h2c.553 0 1 .448 1 1s-.447 1-1 1h-2c-.553 0-1-.448-1-1zm14-14.444v-1.556c0-2.206-1.794-4-4-4s-4 1.794-4 4v1.556c-1.19.694-2 1.97-2 3.444v2c0 2.206 1.794 4 4 4h4c2.206 0 4-1.794 4-4v-2c0-1.474-.81-2.75-2-3.444zm-6-1.556c0-1.103.897-2 2-2s2 .897 2 2v1h-4zm6 7c0 1.103-.897 2-2 2h-4c-1.103 0-2-.897-2-2v-2c0-1.103.897-2 2-2h4c1.103 0 2 .897 2 2zm-2.5-1c0 .828-.672 1.5-1.5 1.5s-1.5-.672-1.5-1.5.672-1.5 1.5-1.5 1.5.672 1.5 1.5z"/></svg>