<svg id="Layer_1" viewBox="0 0 24 24" xmlns="http://www.w3.org/2000/svg" data-name="Layer 1"><path d="m1 2.5c0-1.381 1.119-2.5 2.5-2.5s2.5 1.119 2.5 2.5-1.119 2.5-2.5 2.5-2.5-1.119-2.5-2.5zm11 12.5c-.553 0-1 .448-1 1v7c0 .552.447 1 1 1s1-.448 1-1v-7c0-.552-.447-1-1-1zm12-10.5v18.5c0 .552-.447 1-1 1s-1-.448-1-1v-1h-2.499c-1.516.036-2.756-1.466-2.464-2.95.452-2.646 1.79-4.64 2.804-5.799-4.512-2.69-6.047-7.176-6.568-9.863-.169.337-.273.711-.273 1.113v7.5c0 .552-.447 1-1 1h-2.979c-.651 0-1.264-.319-1.639-.853l-1.382-1.974v3.327c0 .552-.447 1-1 1s-1-.448-1-1v-5.455c-.12-.028-.244-.045-.37-.045-.898 0-1.63.731-1.63 1.63v4.171c0 .699.372 1.356.971 1.715l3.059 1.834c.6.361.971 1.018.971 1.715v3.934c0 .552-.447 1-1 1s-1-.448-1-1v-3.934l-3.059-1.835c-1.197-.719-1.941-2.034-1.941-3.43v-4.171c0-2.002 1.628-3.63 3.63-3.63 1.184 0 2.296.579 2.975 1.549l2.416 3.451h1.979s0-6.5 0-6.5c0-2.481 2.019-4.5 4.5-4.5h4c2.481 0 4.5 2.019 4.5 4.5zm-2 9.5c-.634.611-2.503 2.523-2.992 5.387-.032.314.113.585.493.613h2.499zm0-9.5c0-1.378-1.121-2.5-2.5-2.5h-4c-.143 0-.281.019-.418.042.269 2.174 1.46 7.421 6.663 9.958h.255zm-21 14c-.553 0-1 .448-1 1v3.5c0 .552.447 1 1 1s1-.448 1-1v-3.5c0-.552-.447-1-1-1z"/></svg>