<svg id="Layer_1" viewBox="0 0 24 24" xmlns="http://www.w3.org/2000/svg" data-name="Layer 1"><path d="m19.888 6.561c-.096-.561-.25-1.111-.478-1.642l-.212-.494c-.631-1.473-2.074-2.425-3.677-2.425h-5.521v-1c0-.553-.447-1-1-1s-1 .447-1 1v1.035c-1.406.169-2.631 1.066-3.198 2.389l-.212.494c-.228.531-.382 1.081-.478 1.642-.199.529-.08 1.146-.096 1.715l.737 11.057c.176 2.618 2.367 4.668 4.989 4.668h4.516c2.622 0 4.813-2.05 4.989-4.668l.737-11.061c.054-.425-.03-1.577-.096-1.711zm-13.248-1.349c.315-.736 1.037-1.212 1.839-1.212h7.043c.802 0 1.523.476 1.839 1.212.085.193.258.587.304.788h-11.329c.045-.199.22-.597.304-.788zm10.611 13.987c-.104 1.57-1.42 2.801-2.993 2.801h-4.516c-1.291 0-2.397-.835-2.814-2h2.072c.553 0 1-.447 1-1s-.447-1-1-1h-2.331l-.133-2h2.464c.553 0 1-.447 1-1s-.447-1-1-1h-2.598l-.133-2h2.731c.553 0 1-.447 1-1s-.447-1-1-1h-2.865c-.003-.032-.137-2.048-.128-2h11.986c.006.117-.738 11.066-.742 11.199z"/></svg>