<svg id="Layer_1" viewBox="0 0 24 24" xmlns="http://www.w3.org/2000/svg" data-name="Layer 1"><path d="m24 15v4c0 2.757-2.243 5-5 5h-14c-2.757 0-5-2.243-5-5v-6.292c0-1.356.562-2.672 1.54-3.611l1.46-1.397v-3.699c0-2.207 1.794-4.001 4-4.001h2c.553 0 1 .448 1 1s-.447 1-1 1h-2c-1.103 0-2 .897-2 2v8.243l4.879 4.879c1.133 1.133 3.109 1.133 4.242 0l.829-.829c.391-.39 1.023-.39 1.414 0s.391 1.024 0 1.415l-.829.829c-.944.944-2.199 1.464-3.535 1.464s-2.591-.52-3.535-1.464l-6.406-6.406c-.037.189-.059.383-.059.577v6.292c0 1.654 1.346 3 3 3h14c1.654 0 3-1.346 3-3v-4c0-.552.447-1 1-1s1 .448 1 1zm-9.707-5.293c.391.391 1.023.391 1.414 0l1.293-1.293 1.293 1.293c.391.391 1.023.391 1.414 0s.391-1.023 0-1.414l-1.293-1.293 1.293-1.293c.391-.391.391-1.023 0-1.414s-1.023-.391-1.414 0l-1.293 1.293-1.293-1.293c-.391-.391-1.023-.391-1.414 0s-.391 1.023 0 1.414l1.293 1.293-1.293 1.293c-.391.391-.391 1.023 0 1.414zm-4.293-2.707c0-3.86 3.141-7 7-7s7 3.14 7 7-3.141 7-7 7-7-3.14-7-7zm2 0c0 2.757 2.243 5 5 5s5-2.243 5-5-2.243-5-5-5-5 2.243-5 5z"/></svg>