<svg id="Layer_1" viewBox="0 0 24 24" xmlns="http://www.w3.org/2000/svg" data-name="Layer 1"><path d="m10.985 7.65c-.168.703-.442 1.657-.752 1.967-.511.511-1.339.511-1.85 0s-.511-1.339 0-1.85c.31-.31 1.263-.584 1.967-.752.383-.091.727.252.635.635zm13.015 3.35c0 1.032-.593 2.487-2.142 2.887l-.531 2.988c-.425 2.39-2.496 4.125-4.923 4.125h-8.807c-2.427 0-4.498-1.734-4.923-4.124l-.532-2.989c-1.549-.4-2.142-1.855-2.142-2.887 0-3.624 5.353-8 12-8s12 4.376 12 8zm-4.303 3.616c-.527.246-1.099.384-1.697.384-.892 0-1.735-.284-2.439-.82-.314-.239-.807-.238-1.123 0-1.407 1.072-3.469 1.073-4.877 0-.314-.239-.807-.238-1.123 0-1.177.897-2.809 1.033-4.137.429l.341 1.917c.255 1.434 1.498 2.475 2.954 2.475h8.807c1.457 0 2.699-1.041 2.954-2.475l.339-1.909zm2.303-3.627c0-2.357-4.48-5.988-10-5.988s-10 3.63-10 5.999c.012.45.195 1 1 1 .645 0 1.274.209 1.772.588.707.539 1.749.539 2.455 0 1.027-.783 2.518-.782 3.545 0 .707.539 1.749.539 2.455 0 1.027-.783 2.518-.782 3.545 0 .707.539 1.749.539 2.455 0 .499-.38 1.128-.589 1.773-.589.805 0 .988-.55 1-1.012zm-8.35-3.973c-.383-.091-.727.252-.635.635.168.703.442 1.657.752 1.967.511.511 1.339.511 1.85 0s.511-1.339 0-1.85c-.31-.31-1.263-.584-1.967-.752z"/></svg>