<svg id="Layer_1" viewBox="0 0 24 24" xmlns="http://www.w3.org/2000/svg" data-name="Layer 1"><path d="m24 11c0-1.654-1.346-3-3-3s-3 1.346-3 3c0 1.302.839 2.402 2 2.816v2.684c0 2.481-2.019 4.5-4.5 4.5s-4.5-2.019-4.5-4.5v-3.59c2.833-.478 5-2.942 5-5.91v-3c0-2.206-1.794-4-4-4-.552 0-1 .448-1 1s.448 1 1 1c1.103 0 2 .897 2 2v3c0 2.206-1.794 4-4 4s-4-1.794-4-4v-3c0-1.103.897-2 2-2 .552 0 1-.448 1-1s-.448-1-1-1c-2.206 0-4 1.794-4 4v3c0 2.967 2.167 5.431 5 5.91v3.59c0 3.584 2.916 6.5 6.5 6.5s6.5-2.916 6.5-6.5v-2.684c1.161-.414 2-1.514 2-2.816zm-3 1c-.552 0-1-.449-1-1s.448-1 1-1 1 .449 1 1-.448 1-1 1zm-13 8.376c0 1.447-1.177 2.624-2.624 2.624h-.376c0 .553-.448 1-1 1s-1-.447-1-1h-.268c-1.067 0-2.063-.574-2.598-1.499-.276-.479-.113-1.09.365-1.366.476-.278 1.089-.113 1.366.364.179.31.511.501.867.501h2.644c.344 0 .624-.28.624-.624 0-.307-.219-.565-.522-.616l-3.285-.547c-1.271-.212-2.193-1.301-2.193-2.589 0-1.447 1.177-2.624 2.624-2.624h.376c0-.553.448-1 1-1s1 .447 1 1h.268c1.067 0 2.063.574 2.598 1.499.276.479.113 1.09-.365 1.366-.477.278-1.089.114-1.366-.364-.179-.31-.511-.501-.867-.501h-2.644c-.344 0-.624.28-.624.624 0 .307.219.565.522.616l3.285.547c1.271.212 2.193 1.301 2.193 2.589z"/></svg>