<svg id="Layer_1" viewBox="0 0 24 24" xmlns="http://www.w3.org/2000/svg" data-name="Layer 1"><path d="m8 19c0 .553.448 1 1 1h6c.552 0 1-.447 1-1s-.448-1-1-1h-6c-.552 0-1 .447-1 1zm15-6c-.552 0-1 .447-1 1v5c0 1.654-1.346 3-3 3h-14c-1.654 0-3-1.346-3-3v-4c0-1.654 1.346-3 3-3h11c.552 0 1-.447 1-1s-.448-1-1-1h-3v-9c0-.553-.448-1-1-1s-1 .447-1 1v9h-6c-2.757 0-5 2.243-5 5v4c0 2.757 2.243 5 5 5h14c2.757 0 5-2.243 5-5v-5c0-.553-.448-1-1-1zm-16 2c0-.553-.448-1-1-1h-1c-.552 0-1 .447-1 1s.448 1 1 1h1c.552 0 1-.447 1-1zm4 1c.552 0 1-.447 1-1s-.448-1-1-1h-1c-.552 0-1 .447-1 1s.448 1 1 1zm8-2h-4c-.552 0-1 .447-1 1s.448 1 1 1h4c.552 0 1-.447 1-1s-.448-1-1-1zm-1.807-6.191c.329.448.956.54 1.398.216l.409-.3v2.002c0 .494.299.948.761 1.155.425.198 1.005.154 1.335-.148l2.354-1.757c.432-.383.523-.788.523-1.061 0-.612-.437-.999-.58-1.126-.042-.037-2.055-1.3-2.055-1.3s2.059-1.404 2.09-1.432c.365-.32.551-.69.553-1.101 0-.41-.184-.783-.549-1.108-.033-.03-2.339-1.586-2.339-1.586-.375-.288-.888-.347-1.332-.146-.462.207-.761.661-.761 1.155v2.003l-.41-.3c-.446-.328-1.071-.229-1.397.216-.326.446-.229 1.071.217 1.397l1.245.911-1.245.912c-.445.326-.542.952-.216 1.397zm1.807 10.191c.552 0 1 .448 1 1s-.448 1-1 1-1-.448-1-1 .448-1 1-1zm-14 0c.552 0 1 .448 1 1s-.448 1-1 1-1-.448-1-1 .448-1 1-1z"/></svg>