<svg id="Layer_1" viewBox="0 0 24 24" xmlns="http://www.w3.org/2000/svg" data-name="Layer 1"><path d="m23.871 16.898c-.823-5.294-2.953-9.774-3.221-10.322-1.446-3.869-5.518-6.465-10.153-6.465-5.773 0-10.469 4.697-10.469 10.469 0 1.142.327 4.264.608 6.188.318 2.183 2.058 3.919 4.229 4.223 4.139.579 8.289 1.486 13.063 2.855.363.104.731.155 1.097.155 1.301 0 2.551-.644 3.331-1.793l.895-1.46c.9-1.488.825-2.535.62-3.85zm-2.021.051-9.182-2.987c.814-.733 1.336-1.783 1.336-2.962 0-.732-.212-1.409-.556-2h6.056c.01 0 .018-.005.028-.006.71 1.725 1.778 4.683 2.318 7.955zm-11.846-7.949c1.103 0 2 .897 2 2s-.897 2-2 2-2-.897-2-2 .897-2 2-2zm11.539 10.708-.866 1.415c-.486.715-1.366 1.038-2.197.801-4.866-1.396-9.104-2.321-13.337-2.914-1.297-.182-2.336-1.223-2.527-2.531-.266-1.819-.587-4.856-.587-5.898-.001-4.671 3.798-8.47 8.468-8.47 3.684 0 6.896 1.957 8.145 4.889h-8.638c-2.206 0-4 1.794-4 4 0 1.706 1.073 3.162 2.579 3.736.015.006.03.01.046.016l13.235 4.305c-.073.2-.176.411-.321.651z"/></svg>