<svg id="Layer_1" viewBox="0 0 24 24" xmlns="http://www.w3.org/2000/svg" data-name="Layer 1"><path d="m19 2h-1v-1c0-.552-.447-1-1-1s-1 .448-1 1v1h-8v-1c0-.552-.448-1-1-1s-1 .448-1 1v1h-1c-2.757 0-5 2.243-5 5v12c0 2.757 2.243 5 5 5h1c.552 0 1-.448 1-1s-.448-1-1-1h-1c-1.654 0-3-1.346-3-3v-9h20v3c0 .552.447 1 1 1s1-.448 1-1v-6c0-2.757-2.243-5-5-5zm-17 6v-1c0-1.654 1.346-3 3-3h14c1.654 0 3 1.346 3 3v1zm13.6 9.638v1.65h1.101c.442 0 .8.358.8.8s-.358.8-.8.8h-1.101v1.551h1.101c.442 0 .8.358.8.8s-.358.8-.8.8h-1.9c-.442 0-.8-.358-.8-.8v-6.4c0-.442.358-.8.8-.8h1.9c.442 0 .8.358.8.8s-.358.8-.8.8h-1.101zm8.073.809c.027-1.347-1.221-2.447-2.569-2.447h-1.104c-.552 0-1 .448-1 1v6.038c0 .552.448 1 1 1h1.49c1.186 0 2.274-.813 2.474-1.982.152-.886-.191-1.689-.786-2.212.297-.391.484-.871.495-1.397zm-3.073-.848h.674c.442 0 .8.358.8.8s-.358.8-.8.8h-.674v-1.599zm1.001 4.839h-1.001v-1.599h1.001c.442 0 .8.358.8.8s-.358.8-.8.8zm-11.001-4.801v1.801h1.601c.442 0 .8.358.8.8s-.358.8-.8.8h-1.601v2.2c0 .442-.358.8-.8.8s-.8-.358-.8-.8v-6.4c0-.442.358-.8.8-.8h2.4c.442 0 .8.358.8.8s-.358.8-.8.8h-1.601z"/></svg>