<svg id="Layer_1" viewBox="0 0 24 24" xmlns="http://www.w3.org/2000/svg" data-name="Layer 1"><path d="m10 10h4c1.654 0 3-1.346 3-3v-2c0-1.302-.839-2.402-2-2.816.088-1.164-.822-2.19-2-2.184h-2c-1.178-.005-2.087 1.02-2 2.184-1.161.414-2 1.514-2 2.816v2c0 1.654 1.346 3 3 3zm-1-5c0-.551.449-1 1-1h1v1c0 .552.448 1 1 1s1-.448 1-1v-1h1c.551 0 1 .449 1 1v2c0 .551-.449 1-1 1h-4c-.551 0-1-.449-1-1zm-8.5 1.5c0-1.381 1.119-2.5 2.5-2.5s2.5 1.119 2.5 2.5-1.119 2.5-2.5 2.5-2.5-1.119-2.5-2.5zm6 11.5h-.5v-5c0-1.654-1.346-3-3-3s-3 1.346-3 3v4c0 1.654 1.346 3 3 3h3.5c.276 0 .5.225.5.5v2.5c0 .553.448 1 1 1s1-.447 1-1v-2.5c0-1.379-1.122-2.5-2.5-2.5zm-3.5 0c-.551 0-1-.448-1-1v-4c0-.551.449-1 1-1s1 .449 1 1v5zm15.5-11.5c0-1.381 1.119-2.5 2.5-2.5s2.5 1.119 2.5 2.5-1.119 2.5-2.5 2.5-2.5-1.119-2.5-2.5zm2.5 3.5c-1.654 0-3 1.346-3 3v5h-.5c-1.378 0-2.5 1.121-2.5 2.5v2.5c0 .553.448 1 1 1s1-.447 1-1v-2.5c0-.275.224-.5.5-.5h3.5c1.654 0 3-1.346 3-3v-4c0-1.654-1.346-3-3-3zm1 7c0 .552-.449 1-1 1h-1v-5c0-.551.449-1 1-1s1 .449 1 1zm-7-2h-6c-.552 0-1-.447-1-1s.448-1 1-1h6c.552 0 1 .447 1 1s-.448 1-1 1zm-10 8c0 .553-.448 1-1 1h-3c-.552 0-1-.447-1-1s.448-1 1-1h3c.552 0 1 .447 1 1zm19 0c0 .553-.448 1-1 1h-3c-.552 0-1-.447-1-1s.448-1 1-1h3c.552 0 1 .447 1 1z"/></svg>