<svg id="Layer_1" viewBox="0 0 24 24" xmlns="http://www.w3.org/2000/svg" data-name="Layer 1"><path d="m8.707 6.707-.793.793.793.793c.391.391.391 1.023 0 1.414s-1.023.391-1.414 0l-.793-.793-.793.793c-.391.391-1.023.391-1.414 0s-.391-1.023 0-1.414l.793-.793-.793-.793c-.391-.391-.391-1.023 0-1.414s1.023-.391 1.414 0l.793.793.793-.793c.391-.391 1.023-.391 1.414 0s.391 1.023 0 1.414zm6 0c.391-.391.391-1.023 0-1.414s-1.023-.391-1.414 0l-.793.793-.793-.793c-.391-.391-1.023-.391-1.414 0s-.391 1.023 0 1.414l.793.793-.793.793c-.391.391-.391 1.023 0 1.414s1.023.391 1.414 0zm-5.707 5.293h-4.5c-1.379 0-2.5-1.121-2.5-2.5v-4c0-1.379 1.121-2.5 2.5-2.5h15c1.379 0 2.5 1.121 2.5 2.5v2c0 .553.447 1 1 1s1-.447 1-1v-2c0-2.481-2.019-4.5-4.5-4.5h-15c-2.481 0-4.5 2.019-4.5 4.5v4c0 2.481 2.019 4.5 4.5 4.5h4.5c.553 0 1-.447 1-1s-.447-1-1-1zm15 1.339v2.574c0 3.42-1.953 5.504-5.618 7.012-.27.11-.575.1-.835-.034-3.62-1.847-5.486-4.187-5.547-6.956v-2.596c0-1.391.889-2.62 2.209-3.059l3.478-1.152c.203-.068.426-.068.629 0l3.478 1.152c1.321.438 2.207 1.667 2.207 3.059zm-1.999 0c0-.527-.337-.994-.838-1.16l-3.162-1.048-3.162 1.048c-.501.166-.839.633-.839 1.16v2.574c.04 1.888 1.365 3.526 4.044 4.979 2.617-1.182 3.913-2.82 3.956-4.999v-2.555z"/></svg>