<svg id="Layer_1" viewBox="0 0 24 24" xmlns="http://www.w3.org/2000/svg" data-name="Layer 1"><path d="m24 14c0-2.949-5.067-6.405-9.817-9.414l-.322-.204c-.566-.359-1.236-.475-1.888-.327-.649.147-1.201.54-1.553 1.104-.853 1.368-2.287 2.841-3.42 2.841-1.69 0-2.98-.721-3.944-2.204-.406-.624-1.155-.901-1.868-.691-.71.21-1.188.851-1.188 1.594v7.302c0 1.474.81 2.75 2 3.444v1.556c0 .553.448 1 1 1s1-.447 1-1v-1s0 0 0 0h2v1c0 .553.448 1 1 1s1-.447 1-1v-1h4v1c0 .553.448 1 1 1s1-.447 1-1v-1h2v1c0 .553.448 1 1 1s1-.447 1-1v-1h2s0 0 0 0v1c0 .553.448 1 1 1s1-.447 1-1v-1.556c1.19-.694 2-1.97 2-3.444zm-4 2h-16c-1.103 0-2-.897-2-2v-6.28c1.282 1.496 2.992 2.28 5 2.28 2.56 0 4.564-2.896 5.117-3.782.092-.146.228-.196.3-.213.074-.018.222-.03.373.065l.324.205c.308.195.711.451 1.165.744l-1.355 1.996c-.311.457-.191 1.078.265 1.389.172.117.368.173.561.173.32 0 .635-.153.828-.438l1.368-2.014c.612.417 1.25.865 1.877 1.331l-1.399 2.061c-.311.457-.191 1.078.265 1.389.172.117.368.173.561.173.32 0 .635-.153.828-.438l1.322-1.946c1.474 1.233 2.601 2.45 2.601 3.308 0 1.103-.897 2-2 2z"/></svg>