<svg id="Layer_1" viewBox="0 0 24 24" xmlns="http://www.w3.org/2000/svg" data-name="Layer 1"><path d="m12.688 14.5h.398l.693.693c-.462.256-.779.742-.779 1.307 0 .828.672 1.5 1.5 1.5s1.5-.672 1.5-1.5c0-.237-.06-.459-.158-.658.199.098.421.158.658.158.828 0 1.5-.672 1.5-1.5s-.672-1.5-1.5-1.5c-.565 0-1.052.317-1.307.779l-.693-.693c-.031-1.059-.053-4.188-1.592-5.9-1.577-1.578-4.145-1.578-5.723 0-1.57 1.506-1.57 4.217 0 5.723 1.399 1.399 4.804 1.571 5.502 1.592zm-4.088-5.9c.762-.794 2.132-.794 2.895 0 .594.594.931 2.577.998 3.891-1.34-.07-3.302-.406-3.892-.997-.794-.762-.794-2.133 0-2.895zm14.4-6.6h-22c-.552 0-1 .448-1 1s.448 1 1 1h.58l1.118 13.415c.214 2.571 2.403 4.585 4.983 4.585h8.639c2.58 0 4.769-2.014 4.983-4.585l1.118-13.415h.58c.552 0 1-.448 1-1s-.448-1-1-1zm-3.691 15.249c-.128 1.542-1.442 2.751-2.99 2.751h-8.638c-1.548 0-2.861-1.208-2.99-2.751l-1.104-13.249h16.826z"/></svg>