<svg id="Layer_1" viewBox="0 0 24 24" xmlns="http://www.w3.org/2000/svg" data-name="Layer 1"><path d="m9 12c3.309 0 6-2.691 6-6s-2.691-6-6-6-6 2.691-6 6 2.691 6 6 6zm0-10c2.206 0 4 1.794 4 4s-1.794 4-4 4-4-1.794-4-4 1.794-4 4-4zm1 13c0 .553-.448 1-1 1-3.86 0-7 3.141-7 7 0 .553-.448 1-1 1s-1-.447-1-1c0-4.963 4.038-9 9-9 .552 0 1 .447 1 1zm13 4h-.184c-.414-1.161-1.514-2-2.816-2h-5c-1.654 0-3 1.346-3 3v1c0 1.654 1.346 3 3 3h5c1.302 0 2.402-.839 2.816-2h.184c.552 0 1-.447 1-1v-1c0-.553-.448-1-1-1zm-3 3h-4v-3h4c.551 0 1 .448 1 1v1c0 .552-.449 1-1 1zm-5.414-10.984c.46.074.847.393 1.008.832.107.29.199.513.278.684.019-.166.035-.339.049-.491.087-.95.195-2.133.794-3.238.233-.432.647-.719 1.135-.787.486-.068.984.101 1.328.453.362.371.76.751 1.165 1.139 1.797 1.722 3.656 3.502 3.656 5.392 0 .553-.448 1-1 1s-1-.447-1-1c0-1.036-1.686-2.651-3.04-3.948-.249-.239-.496-.475-.734-.708-.197.609-.258 1.275-.313 1.88-.101 1.106-.254 2.777-1.914 2.777-.771 0-1.302-.522-1.672-1.123-.147.401-.268.849-.342 1.289-.089.548-.62.913-1.152.82-.544-.092-.912-.608-.819-1.152.221-1.312.72-2.558 1.334-3.333.296-.374.768-.558 1.238-.485z"/></svg>