<svg id="Layer_1" viewBox="0 0 24 24" xmlns="http://www.w3.org/2000/svg" data-name="Layer 1"><path d="m12 0c-6.617 0-12 5.383-12 12s5.383 12 12 12 12-5.383 12-12-5.383-12-12-12zm10 12c0 2.398-.85 4.6-2.262 6.324l-2.138-2.138c2.05-2.739 1.838-6.648-.651-9.136-2.489-2.489-6.396-2.701-9.136-.651l-2.138-2.138c1.725-1.412 3.927-2.262 6.324-2.262 5.514 0 10 4.486 10 10zm-7.432-1.466-1.98-1.439c-.351-.255-.825-.255-1.176 0l-.523.38-1.646-1.646c.298-.197.615-.354.94-.48l1.229.893c.35.255.825.255 1.176 0l1.229-.893c.626.243 1.214.611 1.719 1.116.108.108.188.233.284.348l-.45 1.454c-.128.414.025.863.379 1.113l1.225.863c-.043.88-.299 1.752-.803 2.514l-1.697-1.697.457-1.408c.134-.412-.013-.863-.363-1.118zm-12.568 1.466c0-2.398.85-4.6 2.262-6.324l14.063 14.063c-1.725 1.412-3.927 2.262-6.324 2.262-5.514 0-10-4.486-10-10zm10.688 4.93 1.657 1.657c-1.382.494-2.95.591-4.597.036-2.042-.689-3.682-2.329-4.371-4.371-.555-1.646-.458-3.215.036-4.597l2.185 2.185-.579.408c.046.887.319 1.713.769 2.421h1.544c.429.002.81.276.947.683l.497 1.479c.394.1.8.17 1.225.17.236 0 .461-.038.688-.07z"/></svg>