<svg id="Layer_1" viewBox="0 0 24 24" xmlns="http://www.w3.org/2000/svg" data-name="Layer 1"><path d="m13.553 13h-1.053v-2.095c2.559-.471 4.5-2.709 4.5-5.405 0-3.038-2.462-5.5-5.5-5.5s-5.5 2.462-5.5 5.5c0 2.696 1.941 4.934 4.5 5.405v2.047c-.173-.044-.337-.117-.465-.244l-1.075-1.075c-.841-.841-2.209-.843-3.052 0-.078.068-1.517 1.908-1.59 1.99-.191.24-.477.378-.783.378h-.616c-1.609 0-2.919 1.31-2.919 2.919v3.162c0 1.609 1.31 2.919 2.919 2.919.941 0 1.872.151 2.765.448 1.098.366 2.24.552 3.397.552h2.244c1.983 0 3.646-1.423 3.953-3.383.722-4.631.722-5.099.722-5.275 0-1.313-1.075-2.342-2.447-2.342zm-4.6-4.768c-.385-.464-.058-1.166.545-1.166.232-.016.454.078.611.252.118.128.287.209.474.209h1.937c.256 0 .49-.173.54-.424.058-.293-.135-.566-.415-.623l-2.571-.515c-.954-.191-1.64-1.05-1.608-2.029.036-1.088.962-1.936 2.05-1.936h.268v-.28c0-.398.322-.72.72-.72s.72.322.72.72v.28h.201c.655 0 1.242.299 1.631.767.385.464.058 1.167-.545 1.167-.232.016-.454-.078-.611-.252-.118-.128-.287-.209-.474-.209h-1.936c-.256 0-.49.172-.541.422-.059.293.134.568.414.624l2.572.515c.954.19 1.64 1.051 1.608 2.03-.036 1.088-.962 1.936-2.051 1.936h-.268v.28c0 .398-.322.72-.72.72s-.72-.322-.72-.72v-.28h-.201c-.655 0-1.242-.299-1.631-.768zm4.349 12.077c-.153.979-.984 1.691-1.977 1.691h-2.244c-.941 0-1.872-.151-2.765-.448-1.098-.366-2.24-.552-3.397-.552-.507 0-.919-.412-.919-.919v-3.162c0-.507.412-.919.919-.919h.616c.919 0 1.775-.413 2.349-1.134l1.462-1.84c.062-.041.144-.035.2.02l1.075 1.075c.566.566 1.32.879 2.121.879h2.811c.074 0 .447.017.447.341 0 .122-.055.84-.698 4.968zm10.41-8.107c-.388.393-1.021.398-1.414.01l-1.298-1.279v5.068c0 .553-.447 1-1 1s-1-.447-1-1v-5.068l-1.298 1.279c-.394.388-1.026.383-1.414-.01-.388-.394-.384-1.026.01-1.414l2.2-2.169c.826-.825 2.179-.825 3.009.005l2.195 2.164c.394.388.397 1.021.01 1.414z"/></svg>