<svg id="Layer_1" viewBox="0 0 24 24" xmlns="http://www.w3.org/2000/svg" data-name="Layer 1"><path d="m9 22h-6c-.551 0-1-.448-1-1v-9h2.343c1.335 0 2.591-.52 3.535-1.464l2.708-2.708c.751-.751 1.957-.784 2.747-.077.184.165.421.255.667.255l4.999-.006c1.091 0 2.097.593 2.625 1.547.268.483.877.658 1.359.39.483-.268.658-.876.391-1.359-.882-1.59-2.558-2.578-4.376-2.578l-4.647.006c-.415-.303-.875-.509-1.352-.631v-.374l3.53-1.652c.627-.392.627-1.304 0-1.696l-3.199-1.499c-.217-.102-.454-.154-.693-.154-.904 0-1.636.732-1.636 1.636v3.734c-.471.122-.922.335-1.331.63h-4.67c-2.757 0-5 2.243-5 5v10c0 1.654 1.346 3 3 3h6c.552 0 1-.447 1-1s-.448-1-1-1zm-4-14h2.586l-1.122 1.122c-.559.558-1.332.878-2.121.878h-2.159c.414-1.161 1.514-2 2.816-2zm2 7c0 .553-.448 1-1 1h-1c-.552 0-1-.447-1-1s.448-1 1-1h1c.552 0 1 .447 1 1zm0 4c0 .553-.448 1-1 1h-1c-.552 0-1-.447-1-1s.448-1 1-1h1c.552 0 1 .447 1 1zm12.707-3.293-1.293 1.293 1.293 1.293c.391.391.391 1.023 0 1.414s-1.023.391-1.414 0l-1.293-1.293-1.293 1.293c-.391.391-1.023.391-1.414 0s-.391-1.023 0-1.414l1.293-1.293-1.293-1.293c-.391-.391-.391-1.023 0-1.414s1.023-.391 1.414 0l1.293 1.293 1.293-1.293c.391-.391 1.023-.391 1.414 0s.391 1.023 0 1.414zm-2.707-5.707c-3.859 0-7 3.141-7 7s3.141 7 7 7 7-3.141 7-7-3.141-7-7-7zm0 12c-2.757 0-5-2.243-5-5s2.243-5 5-5 5 2.243 5 5-2.243 5-5 5z"/></svg>