<?xml version="1.0" encoding="UTF-8"?>
<svg xmlns="http://www.w3.org/2000/svg" id="Layer_1" data-name="Layer 1" viewBox="0 0 24 24">
  <path d="M23.668,22.977c-.733,.66-1.681,1.023-2.668,1.023-1.13,0-2.221-.479-3-1.236-.779,.757-1.87,1.236-3,1.236s-2.221-.479-3-1.236c-.779,.757-1.87,1.236-3,1.236s-2.221-.479-3-1.236c-.779,.757-1.87,1.236-3,1.236-.987,0-1.935-.363-2.668-1.023-.411-.369-.445-1.001-.076-1.412,.371-.41,1.003-.444,1.412-.075,.366,.329,.84,.51,1.332,.51,.889,0,1.793-.586,2.058-1.333,.323-.857,1.562-.856,1.885,0,.265,.748,1.169,1.333,2.058,1.333s1.793-.586,2.058-1.333c.323-.856,1.563-.857,1.885,0,.265,.748,1.169,1.333,2.058,1.333s1.793-.586,2.058-1.333c.322-.856,1.563-.856,1.885,0,.265,.748,1.169,1.333,2.058,1.333,.492,0,.966-.181,1.332-.51,.409-.37,1.04-.336,1.412,.075,.369,.411,.335,1.043-.076,1.412ZM2.073,17.374c-.191-.808-.003-1.646,.517-2.305,.517-.654,1.282-1.03,2.109-1.058l1.883-8.287c.365-1.604,1.769-2.724,3.413-2.724h.005v-1c0-1.105,.895-2,2-2s2,.895,2,2v1h.005c1.645,0,3.048,1.12,3.413,2.724l1.883,8.287c.827,.028,1.592,.405,2.109,1.058,.52,.658,.708,1.497,.517,2.302-.078,.326-.17,.643-.277,.954-.178,.526-.763,.8-1.271,.62-.522-.18-.8-.749-.62-1.271,.086-.25,.16-.507,.223-.768,.088-.562-.311-.881-.776-.906H4.795c-.467,.026-.865,.343-.776,.909,.062,.259,.137,.515,.223,.766,.18,.522-.098,1.091-.62,1.271-.52,.177-1.091-.098-1.271-.62-.107-.311-.199-.628-.277-.952Zm4.747-3.669l3.835-4.261-2.288-2.543-1.546,6.803Zm6.525-4.261l3.835,4.261-1.546-6.803-2.288,2.543Zm-1.345,1.495l-2.755,3.061h5.51l-2.755-3.061Zm-2.005-5.939c-.195,0-.378,.044-.55,.111l2.555,2.839,2.555-2.839c-.172-.068-.355-.111-.55-.111h-4.01Z"/>
</svg>
