<svg id="Layer_1" viewBox="0 0 24 24" xmlns="http://www.w3.org/2000/svg" data-name="Layer 1"><path d="m8 7c1.768 0 3 2.108 3 4 0 .552-.448 1-1 1s-1-.448-1-1c0-1.054-.679-2-1-2s-1 .946-1 2c0 .552-.448 1-1 1s-1-.448-1-1c0-1.892 1.232-4 3-4zm8 0c-1.768 0-3 2.108-3 4 0 .552.447 1 1 1s1-.448 1-1c0-1.054.68-2 1-2s1 .946 1 2c0 .552.447 1 1 1s1-.448 1-1c0-1.892-1.232-4-3-4zm-.19 8.78c-.516-1.612-2.027-2.78-3.81-2.78s-3.294 1.167-3.81 2.78c-.193.604.281 1.22.915 1.22h5.79c.634 0 1.109-.616.915-1.22zm-10.81-1.28c0-1.403-1.184-3.372-1.922-4.235-.303-.355-.849-.353-1.151.004-.738.874-1.927 2.861-1.927 4.231 0 1.381 1.119 2.5 2.5 2.5s2.5-1.119 2.5-2.5zm.927 2.769c-.738.874-1.927 2.861-1.927 4.231 0 1.381 1.119 2.5 2.5 2.5s2.5-1.119 2.5-2.5c0-1.403-1.184-3.372-1.922-4.235-.303-.355-.849-.353-1.151.004zm16.151-7.004c-.303-.355-.849-.353-1.151.004-.738.874-1.927 2.861-1.927 4.231 0 1.381 1.119 2.5 2.5 2.5s2.5-1.119 2.5-2.5c0-1.403-1.184-3.372-1.922-4.235zm-4.228 7.575c-1.627 1.393-3.705 2.16-5.85 2.16-.552 0-1 .447-1 1s.448 1 1 1c2.621 0 5.16-.938 7.15-2.641.419-.359.469-.99.109-1.41-.36-.419-.991-.467-1.41-.109zm-15.418-9.924c.506.219 1.095-.01 1.317-.516 1.434-3.28 4.672-5.4 8.251-5.4s6.818 2.12 8.252 5.4c.221.511.822.735 1.316.516.506-.221.737-.811.516-1.317-1.751-4.009-5.71-6.599-10.084-6.599s-8.332 2.59-10.084 6.599c-.221.506.01 1.096.516 1.317z"/></svg>