<?xml version="1.0" encoding="UTF-8"?>
<svg xmlns="http://www.w3.org/2000/svg" id="Layer_1" data-name="Layer 1" viewBox="0 0 24 24">
  <path d="M1.05,13c.249-2.25,2.156-4,4.473-4,.447,0,.87,.083,1.278,.204L1.5,13.888c-.466-.231-.464-.76-.45-.888Zm3.343,1h4.63c1,0,.991-.836,.973-1-.119-1.077-.625-2.032-1.367-2.743l-4.235,3.743ZM1.565,2.1C1.253,1.011,2.109-.06,3.24,.003l5.073,.51c.831,.046,1.388,.873,1.118,1.661l-.431,.826v1.5c0,1.93-1.57,3.5-3.5,3.5s-3.5-1.57-3.5-3.5v-1.583l-.435-.818Zm5.435,.9h-3v1.5c0,.827,.673,1.5,1.5,1.5s1.5-.673,1.5-1.5v-1.5Zm8,1.5c0-1.93,1.57-3.5,3.5-3.5s3.5,1.57,3.5,3.5-1.57,3.5-3.5,3.5-3.5-1.57-3.5-3.5Zm2,0c0,.827,.673,1.5,1.5,1.5s1.5-.673,1.5-1.5-.673-1.5-1.5-1.5-1.5,.673-1.5,1.5Zm6,14.5h-6.965l1.258-1.258c.391-.391,.391-1.023,0-1.414s-1.023-.391-1.414,0l-2.293,2.293c-.775,.743-.776,2.086,0,2.828l2.293,2.293c.391,.391,1.023,.391,1.414,0s.391-1.023,0-1.414l-1.328-1.328h7.035c.553,0,1-.447,1-1s-.447-1-1-1Zm-14.879-2.672c-.391-.391-1.023-.391-1.414,0s-.391,1.023,0,1.414l1.258,1.258H1c-.553,0-1,.447-1,1s.447,1,1,1h7.035l-1.328,1.328c-.391,.391-.391,1.023,0,1.414s1.023,.391,1.414,0l2.292-2.292c.778-.743,.777-2.085,0-2.829l-2.293-2.293Zm6.772-2.354c.548,.082,1.052-.307,1.127-.854,.163-1.176,1.24-2.063,2.505-2.063,1.294,0,2.373,.909,2.512,2.114,.061,.55,.568,.945,1.107,.879,.548-.062,.942-.559,.879-1.107-.254-2.215-2.188-3.886-4.498-3.886-2.259,0-4.187,1.629-4.485,3.79-.076,.547,.306,1.052,.854,1.127Z"/>
</svg>
