<svg id="Layer_1" viewBox="0 0 24 24" xmlns="http://www.w3.org/2000/svg" data-name="Layer 1"><path d="m14.016 12.398-1.089 1.089 5.276 4.703c.423-.114.857-.19 1.298-.19h3.499c.553 0 1 .448 1 1s-.447 1-1 1h-3.499c-.666 0-1.321.226-1.846.635l-3.252 2.538c-.684.534-1.537.827-2.403.827s-1.72-.293-2.403-.827l-3.252-2.539c-.524-.409-1.18-.635-1.846-.635h-3.499c-.553.001-1-.447-1-.999s.447-1 1-1h3.499c1.109 0 2.202.376 3.076 1.059l3.252 2.538c.668.52 1.678.52 2.346 0l3.118-2.433-4.026-3.589-1.604 1.494c-.631.657-1.854.548-2.37-.221-.453-.629-.373-1.493.189-2.055l2.027-1.874-.521-.521c-.407-.407-1.028-.508-1.544-.25l-.648.325c-.69.345-1.464.528-2.236.528h-4.558c-.553-.001-1-.449-1-1.001s.447-1 1-1h4.556c.463 0 .928-.109 1.342-.317l.648-.324c1.288-.644 2.835-.392 3.852.625l.602.602.602-.602c1.018-1.018 2.568-1.27 3.852-.625l.648.324c.414.208.879.317 1.342.317h4.556c.553 0 1 .448 1 1s-.447 1-1 1h-4.556c-.772 0-1.546-.183-2.236-.528l-.648-.324c-.516-.258-1.137-.158-1.544.25zm3.679-7.616c-.396-.384-1.029-.374-1.414.022-.384.397-.374 1.03.023 1.414l2.26 2.188c.397.396.919.594 1.439.594.517 0 1.032-.195 1.421-.583l2.27-2.198c.397-.384.407-1.017.023-1.414-.384-.396-1.017-.406-1.414-.022l-1.305 1.226v-1.008c0-2.206-1.794-4-4-4-.553 0-1 .448-1 1s.447 1 1 1c1.103 0 2 .897 2 2v1.045l-1.305-1.263zm-15.13 3.624c.397.396.919.594 1.439.594.517 0 1.032-.195 1.421-.583l2.27-2.198c.397-.384.407-1.017.023-1.414-.384-.396-1.017-.406-1.414-.022l-1.305 1.226v-1.008c0-1.103.897-2 2-2 .553 0 1-.448 1-1s-.447-1-1-1c-2.206 0-4 1.794-4 4v1.045l-1.305-1.263c-.397-.384-1.029-.374-1.414.022-.384.397-.374 1.03.023 1.414l2.26 2.188zm9.435-4.406c1.105 0 2-.895 2-2s-.895-2-2-2-2 .895-2 2 .895 2 2 2zm-2.231 4h4.461c.681 0 1.095-.749.74-1.33-.612-1.001-1.71-1.67-2.971-1.67s-2.359.669-2.971 1.67c-.355.581.059 1.33.74 1.33z"/></svg>