<?xml version="1.0" encoding="UTF-8"?>
<svg xmlns="http://www.w3.org/2000/svg" id="Layer_1" data-name="Layer 1" viewBox="0 0 24 24">
  <path d="M17.834,4.743L22.294,.292c.389-.389,1.023-.39,1.414,.001,.39,.391,.39,1.024-.002,1.415l-4.459,4.45c-1.054,1.099-2.953,1.098-4.007,0-.391-.391-.391-1.024,0-1.415,.391-.39,1.023-.39,1.414,0,.314,.315,.865,.315,1.18,0ZM1.74,6.158c1.054,1.099,2.952,1.1,4.007,0L10.206,1.708c.392-.391,.392-1.023,.002-1.415-.391-.392-1.025-.39-1.414-.001L4.334,4.743c-.314,.315-.866,.315-1.179,.001l-1.447-1.451c-.391-.392-1.023-.392-1.414-.002-.392,.39-.392,1.023-.002,1.414l1.448,1.452Zm21.576,10.435c.909,1.105,.909,2.709,0,3.814l-1.457,1.771c-.954,1.158-2.36,1.822-3.86,1.822H4c-2.206,0-4-1.794-4-4v-3c0-1.858,1.279-3.411,3-3.858v-3.142c0-.552,.447-1,1-1s1,.448,1,1v3h5v-3c0-.552,.447-1,1-1s1,.448,1,1v3h5v-3c0-.552,.447-1,1-1s1,.448,1,1v3.105c1.112,.226,2.121,.822,2.858,1.717l1.458,1.771Zm-10.903-1.593h-4.408l1.311,1.593c.909,1.105,.909,2.709,0,3.814l-1.311,1.593h4.409l2.358-2.864c.304-.368,.304-.903,0-1.271l-2.359-2.864Zm-8.413,7h1.413l2.358-2.864c.304-.368,.304-.903,0-1.271l-2.359-2.864h-1.413c-1.103,0-2,.897-2,2v3c0,1.103,.897,2,2,2Zm17.772-4.136l-1.459-1.771c-.571-.695-1.416-1.093-2.315-1.093h-2.993l1.311,1.593c.909,1.105,.909,2.709,0,3.814l-1.311,1.593h2.994c.899,0,1.744-.398,2.315-1.093l1.458-1.771c.304-.368,.304-.903,0-1.271ZM8.522,4.743c-.391,.391-.391,1.024,0,1.415,1.053,1.099,2.953,1.099,4.006,0L16.988,1.708c.392-.39,.392-1.023,.002-1.415-.391-.392-1.023-.391-1.414-.001l-4.461,4.452c-.315,.316-.865,.314-1.179,0-.391-.391-1.023-.39-1.414,0Z"/>
</svg>
