<svg id="Layer_1" viewBox="0 0 24 24" xmlns="http://www.w3.org/2000/svg" data-name="Layer 1"><path d="m10 19c0 .552-.447 1-1 1h-2c-.553 0-1-.448-1-1s.447-1 1-1h2c.553 0 1 .448 1 1zm-.401-10h-2.163l1.433-2.503c.274-.479.107-1.09-.371-1.365-.482-.273-1.092-.107-1.365.372l-1.982 3.468c-.22.438-.197.947.06 1.363.257.417.703.666 1.192.666h2.162l-1.432 2.503c-.274.479-.107 1.09.372 1.365.471.271 1.088.112 1.364-.372l2-3.504c.203-.436.171-.938-.088-1.344s-.7-.648-1.182-.648zm14.401 0v2c0 .882-.387 1.716-1.061 2.288-.281.238-.6.417-.939.537v5.175c0 2.757-2.243 5-5 5h-12c-2.757 0-5-2.243-5-5v-14c0-2.757 2.243-5 5-5h6c2.757 0 5 2.243 5 5v14c0 1.13-.391 2.162-1.026 3h2.026c1.654 0 3-1.346 3-3v-5.174c-1.169-.426-2-1.606-2-2.939v-1.887c0-.737.405-1.375 1-1.722v-.778c0-.827.673-1.5 1.5-1.5h1c.827 0 1.5.673 1.5 1.5v.778c.595.347 1 .985 1 1.722zm-10-4c0-1.654-1.346-3-3-3h-6c-1.654 0-3 1.346-3 3v14c0 1.654 1.346 3 3 3h6c1.654 0 3-1.346 3-3zm8 4h-2v2c0 .552.448 1 1 1s1-.448 1-1z"/></svg>