<svg id="Layer_1" viewBox="0 0 24 24" xmlns="http://www.w3.org/2000/svg" data-name="Layer 1"><path d="m24 4.5c0-2.481-2.019-4.5-4.5-4.5h-15c-2.481 0-4.5 2.019-4.5 4.5 0 2.31 1.756 4.197 4 4.449v13.051h-1c-.552 0-1 .448-1 1s.448 1 1 1h18c.552 0 1-.448 1-1s-.448-1-1-1h-1v-13.051c2.244-.252 4-2.139 4-4.449zm-22 0c0-1.378 1.122-2.5 2.5-2.5h15c1.378 0 2.5 1.122 2.5 2.5s-1.122 2.5-2.5 2.5c-1.236 0-2.3-.921-2.475-2.142-.078-.546-.589-.925-1.131-.848-.547.078-.927.584-.848 1.131.098.687.367 1.311.738 1.858h-7.567c.371-.547.64-1.171.738-1.858.079-.547-.301-1.053-.848-1.131-.542-.081-1.053.301-1.131.848-.175 1.221-1.239 2.142-2.475 2.142-1.378 0-2.5-1.122-2.5-2.5zm13 17.5v-10c0-.552-.448-1-1-1s-1 .448-1 1v10h-2v-10c0-.552-.448-1-1-1s-1 .448-1 1v10h-3v-13h12v13z"/></svg>