<svg id="Layer_1" viewBox="0 0 24 24" xmlns="http://www.w3.org/2000/svg" data-name="Layer 1"><path d="m5.5 17c.828 0 1.5.672 1.5 1.5s-.672 1.5-1.5 1.5-1.5-.672-1.5-1.5.672-1.5 1.5-1.5zm5.5-5v-1.171c0-1.336.52-2.591 1.464-3.536l6.415-6.414c1.133-1.134 3.109-1.134 4.243 0 .566.566.878 1.32.878 2.121s-.312 1.555-.879 2.122l-6.414 6.414c-.944.944-2.2 1.464-3.536 1.464h-1.171c-.552 0-1-.448-1-1zm2-1c.857.036 1.688-.267 2.293-.878l6.414-6.415c.388-.372.388-1.042 0-1.414-.378-.379-1.037-.378-1.414 0l-6.415 6.414c-.612.605-.914 1.436-.878 2.293zm9.334-2.427c-.512.207-.759.79-.552 1.302.144.357.217.735.217 1.125h-2c-.552 0-1 .448-1 1s.448 1 1 1h2v6c0 1.654-1.346 3-3 3h-13.999c-1.654 0-3-1.346-3-3v-6h6c.552 0 1-.448 1-1s-.448-1-1-1h-6c0-1.654 1.346-3 3-3h4c.552 0 1-.448 1-1s-.448-1-1-1h-4c-2.757 0-5 2.243-5 5v8c0 2.757 2.243 5 5 5h14c2.757 0 5-2.243 5-5v-8c0-.648-.122-1.279-.364-1.875-.207-.511-.79-.759-1.302-.552z"/></svg>