<svg id="Layer_1" viewBox="0 0 24 24" xmlns="http://www.w3.org/2000/svg" data-name="Layer 1"><path d="m21 23c0 .552-.448 1-1 1s-1-.448-1-1c0-3.86-3.14-7-7-7s-7 3.14-7 7c0 .552-.448 1-1 1s-1-.448-1-1c0-4.962 4.038-9 9-9s9 4.038 9 9zm-15.517-13.385c.418-.29.804-.607 1.13-.991-.388-.794-.613-1.682-.613-2.624 0-3.309 2.691-6 6-6s6 2.691 6 6c0 .942-.224 1.83-.613 2.624.326.384.711.701 1.13.991.594.413.659 1.265.088 1.71-.476.371-1.103.675-1.883.675-.985 0-1.742-.216-2.326-.503-.735.322-1.545.503-2.397.503s-1.662-.181-2.397-.503c-.583.287-1.341.503-2.326.503-.78 0-1.407-.304-1.883-.675-.571-.445-.506-1.297.088-1.71zm10.517-3.615c0-1.092-.442-2.081-1.153-2.803-1.123 2.288-3.443 3.803-6.061 3.803-.221 0-.44-.03-.66-.051.429 1.747 1.997 3.051 3.874 3.051 2.206 0 4-1.794 4-4zm-7.843-1.049c.208.028.418.049.628.049 1.897 0 3.58-1.125 4.344-2.818-.361-.107-.735-.182-1.13-.182-1.84 0-3.378 1.256-3.843 2.951z"/></svg>