<svg id="Layer_1" viewBox="0 0 24 24" xmlns="http://www.w3.org/2000/svg" data-name="Layer 1"><path d="m23.707 22.293-2.54-2.54c.524-.791.833-1.736.833-2.753 0-2.757-2.243-5-5-5s-5 2.243-5 5 2.243 5 5 5c1.017 0 1.962-.309 2.753-.833l2.54 2.54c.391.391 1.023.391 1.414 0s.391-1.023 0-1.414zm-9.707-5.293c0-1.654 1.346-3 3-3s3 1.346 3 3-1.346 3-3 3-3-1.346-3-3zm-2.133-6.499c-.179-.309-.511-.501-.867-.501-.551 0-1 .448-1 1 0 2.798 0 8.005-4.016 10.819-.447.314-1.074.21-1.393-.245-.317-.452-.208-1.076.245-1.394 3.164-2.217 3.164-6.576 3.164-9.181 0-1.654 1.346-3 3-3 1.067 0 2.062.574 2.598 1.499.277.478.114 1.09-.364 1.366-.479.278-1.09.114-1.367-.364zm5.732-1.835c.185.521-.088 1.092-.608 1.276-.507.183-1.093-.083-1.276-.608-.707-1.994-2.602-3.334-4.715-3.334-1.417 0-2.774.607-3.724 1.667-.368.412-1 .447-1.412.078-.411-.369-.446-1.001-.077-1.412 1.328-1.482 3.229-2.333 5.213-2.333 2.958 0 5.61 1.875 6.6 4.666zm-11.6 2.334c0 6.6-2.617 8.483-4.813 8.901-.53.104-1.068-.25-1.169-.796-.103-.542.253-1.065.795-1.169 2.634-.501 3.187-4.049 3.187-6.937 0-.393.033-.785.098-1.167.092-.544.605-.902 1.153-.819.544.093.911.609.818 1.153-.046.271-.069.552-.069.833zm12.792-4.498c-.277-.478-.114-1.09.363-1.367s1.089-.115 1.367.363c.871 1.503 1.377 3.215 1.463 4.952.028.552-.397 1.021-.949 1.049-.017 0-.034 0-.051 0-.529 0-.971-.416-.998-.95-.071-1.421-.484-2.82-1.197-4.048zm-18.791 7.498v-3c0-6.065 4.935-11 11-11 2.4 0 4.683.763 6.601 2.206.441.332.53.959.198 1.4-.333.44-.958.531-1.4.197-1.569-1.18-3.436-1.804-5.399-1.804-4.962.001-9 4.038-9 9.001v3c0 .553-.448 1-1 1s-1-.447-1-1z"/></svg>