<svg id="Layer_1" viewBox="0 0 24 24" xmlns="http://www.w3.org/2000/svg" data-name="Layer 1"><path d="m18 4v9c0 2.206-1.794 4-4 4h-1c-.553 0-1-.447-1-1s.447-1 1-1h1c1.103 0 2-.897 2-2h-1c-.553 0-1-.448-1-1s.447-1 1-1h1v-7c0-1.103-.897-2-2-2h-3c-1.103 0-2 .897-2 2v2c0 .552-.447 1-1 1s-1-.448-1-1v-2c0-2.206 1.794-4 4-4h3c2.206 0 4 1.794 4 4zm-6 18h-1c-.553 0-1 .447-1 1s.447 1 1 1h1c.553 0 1-.447 1-1s-.447-1-1-1zm5 0h-1c-.553 0-1 .447-1 1s.447 1 1 1h1c.553 0 1-.447 1-1s-.447-1-1-1zm6-7c-.553 0-1 .447-1 1v1c0 .553.447 1 1 1s1-.447 1-1v-1c0-.553-.447-1-1-1zm0 5c-.553 0-1 .447-1 1v.5c0 .275-.225.499-.502.499h-.5c-.553.002-.999.45-.998 1.003 0 .552.448.998 1 .998h.5c1.379 0 2.5-1.122 2.5-2.5v-.5c0-.553-.447-1-1-1zm.268-10.268c-.473-.471-1.099-.73-1.762-.73h-.503s-.003-.001-.003-.001c-.551 0-.998.446-1 .997-.002.552.444 1.001.997 1.003h.504c.343.052.448.156.499.5v.5c0 .552.447 1 1 1s1-.448 1-1v-.5c0-.668-.261-1.296-.732-1.768zm-12.171-.08c-1.032-.877-2.575-.862-3.599.043l-3.168 2.855c-.41.37-.442 1.002-.073 1.413.371.409 1.002.44 1.413.073l3.161-2.85c.273-.242.691-.247.971-.01.311.265.349.733.024 1.123l-3.118 4.512c-.463.672-.708 1.458-.708 2.273v1.916c0 .552-.448 1-1 1h-2c-.552 0-1-.448-1-1v-7.929c0-1.069.416-2.073 1.172-2.829l2.035-2.036c.391-.391.391-1.024 0-1.414-.391-.391-1.023-.391-1.414 0l-2.035 2.035c-1.134 1.133-1.758 2.64-1.758 4.243v7.929c0 1.654 1.346 3 3 3h2c1.654 0 3-1.346 3-3v-1.916c0-.408.122-.801.354-1.137l3.057-4.433c.979-1.151.838-2.884-.313-3.863z"/></svg>