<svg id="Layer_1" viewBox="0 0 24 24" xmlns="http://www.w3.org/2000/svg" data-name="Layer 1"><path d="m10 12c.552 0 1 .447 1 .998s-.448.998-1 .998-1-.447-1-.998.448-.998 1-.998zm.765 9.572c-.27.126-.491.218-.713.309-2.479-1.27-8.051-4.334-8.051-9.838v-5.16c0-1.292.826-2.434 2.056-2.842l5.944-1.967 5.944 1.967c1.229.407 2.056 1.549 2.056 2.842v3.121c0 .552.447.998 1 .998s1-.446 1-.998v-3.121c0-2.155-1.377-4.058-3.427-4.736l-6.259-2.121c-.205-.068-.425-.068-.63 0l-6.259 2.121c-2.049.678-3.426 2.581-3.426 4.736v5.16c0 6.968 6.867 10.463 9.452 11.777.338.212.749.193 1.097.017.346-.139.652-.266 1.059-.454.501-.233.718-.825.485-1.325-.232-.501-.828-.717-1.328-.485zm3.235-8.574c-.553 0-1-.446-1-.998s-.449-1-1-1h-4c-.551 0-1 .449-1 1v1.996c0 .551.449 1.004 1 1.004h3c.552 0 1 .44 1 .991s-.448.998-1 .998h-3c-1.654 0-3-1.343-3-2.994v-1.996c0-1.299.838-2.396 2-2.81v-1.182c0-1.651 1.346-2.994 3-2.994s3 1.343 3 2.994v1.182c1.161.413 2 1.511 2 2.81 0 .552-.447.998-1 .998zm-5-4.99v.998h2v-.998c0-.551-.449-.998-1-.998s-1 .447-1 .998zm14.872 13.208c-.272.485-.888.649-1.361.382l-.631-.353c-.505.525-1.153.903-1.879 1.092v.641c0 .552-.447.998-1 .998s-1-.446-1-.998v-.641c-.727-.188-1.374-.567-1.879-1.092l-.631.353c-.473.267-1.089.103-1.361-.382-.271-.48-.099-1.088.383-1.358l.637-.356c-.086-.326-.147-.662-.147-1.015s.061-.689.147-1.015l-.637-.356c-.481-.27-.653-.878-.383-1.358.27-.481.878-.653 1.361-.382l.631.353c.505-.525 1.153-.903 1.879-1.092v-.641c0-.552.447-.998 1-.998s1 .446 1 .998v.641c.727.188 1.374.567 1.879 1.092l.631-.353c.481-.27 1.091-.099 1.361.382.271.48.099 1.088-.383 1.358l-.637.356c.086.326.147.662.147 1.015s-.061.689-.147 1.015l.637.356c.481.27.653.878.383 1.358zm-2.872-2.73c0-1.1-.897-1.996-2-1.996s-2 .896-2 1.996.897 1.996 2 1.996 2-.896 2-1.996z"/></svg>