<svg id="Layer_1" viewBox="0 0 24 24" xmlns="http://www.w3.org/2000/svg" data-name="Layer 1"><path d="m8 13c0-.552.447-1 1-1h1c.553 0 1 .448 1 1s-.447 1-1 1h-1c-.553 0-1-.447-1-1zm6 1h1c.553 0 1-.447 1-1s-.447-1-1-1h-1c-.553 0-1 .448-1 1s.447 1 1 1zm-5-8h1c.553 0 1-.448 1-1s-.447-1-1-1h-1c-.553 0-1 .448-1 1s.447 1 1 1zm5 0h1c.553 0 1-.448 1-1s-.447-1-1-1h-1c-.553 0-1 .448-1 1s.447 1 1 1zm-5 4h1c.553 0 1-.448 1-1s-.447-1-1-1h-1c-.553 0-1 .448-1 1s.447 1 1 1zm5 0h1c.553 0 1-.448 1-1s-.447-1-1-1h-1c-.553 0-1 .448-1 1s.447 1 1 1zm10 12c0 1.105-.895 2-2 2-.738 0-1.376-.405-1.723-1h-1.277c-1.654 0-3-1.346-3-3v-2h-3v2.277c.595.346 1 .984 1 1.723 0 1.105-.895 2-2 2s-2-.895-2-2c0-.738.405-1.376 1-1.723v-2.277h-3v2c0 1.654-1.346 3-3 3h-1.277c-.346.595-.984 1-1.723 1-1.105 0-2-.895-2-2s.895-2 2-2c.738 0 1.376.405 1.723 1h1.277c.552 0 1-.448 1-1v-2h-5c-.553 0-1-.447-1-1s.447-1 1-1h3v-11c0-2.757 2.243-5 5-5h6c2.757 0 5 2.243 5 5v11h3c.553 0 1 .447 1 1s-.447 1-1 1h-5v2c0 .552.448 1 1 1h1.277c.346-.595.984-1 1.723-1 1.105 0 2 .895 2 2zm-18-6h12v-11c0-1.654-1.346-3-3-3h-6c-1.654 0-3 1.346-3 3z"/></svg>