<svg id="Layer_1" viewBox="0 0 24 24" xmlns="http://www.w3.org/2000/svg" data-name="Layer 1"><path d="m22.213 22.468c0 .564-.457 1.021-1.021 1.021h-13.277c-.564 0-1.021-.457-1.021-1.021s.457-1.021 1.021-1.021h13.277c.564 0 1.021.457 1.021 1.021zm-18.894-1.532c-.846 0-1.532.686-1.532 1.532s.686 1.532 1.532 1.532 1.532-.686 1.532-1.532-.686-1.532-1.532-1.532zm17.872-4.596h-13.276c-.564 0-1.021.457-1.021 1.021s.457 1.021 1.021 1.021h13.277c.564 0 1.021-.457 1.021-1.021s-.457-1.021-1.021-1.021zm-17.872-.51c-.846 0-1.532.686-1.532 1.532s.686 1.532 1.532 1.532 1.532-.686 1.532-1.532-.686-1.532-1.532-1.532zm10.724-11.745c0-2.252 1.833-4.085 4.085-4.085s4.085 1.833 4.085 4.085-1.833 4.085-4.085 4.085-4.085-1.833-4.085-4.085zm2.042 0c0 1.126.916 2.043 2.043 2.043s2.043-.916 2.043-2.043-.916-2.043-2.043-2.043-2.043.916-2.043 2.043zm-6.128 9.192c0 1.128.914 2.043 2.043 2.043s2.043-.914 2.043-2.043h1.073c1.341 0 2.592-.663 3.346-1.772.317-.467.195-1.102-.271-1.419-.467-.317-1.102-.194-1.419.271-.374.55-.992.878-1.657.878h-6.231c-.611 0-1.181-.274-1.563-.75-.381-.476-.523-1.09-.389-1.685.209-.93.431-1.927.635-2.856.389-1.779 1.475-3.901 4.433-3.901.564 0 1.021-.457 1.021-1.021s-.457-1.021-1.021-1.021c-3.319 0-5.662 2.007-6.428 5.506-.202.926-.424 1.919-.632 2.845-.27 1.203.016 2.445.787 3.408.771.964 1.922 1.517 3.158 1.517h1.073z"/></svg>