<svg id="Layer_1" viewBox="0 0 24 24" xmlns="http://www.w3.org/2000/svg" data-name="Layer 1"><path d="m24 15.991c0 2.057-1.034 3.945-2.767 5.055-.142.091-.233.244-.233.413v1.541c0 .552-.447 1-1 1s-1-.448-1-1v-1.541c0-.808.381-1.55 1.026-2.012.847-.606 1.572-1.405 1.838-2.413.353-1.341.003-2.704-.864-3.685v.375c0 1.656-1.027 2.982-2.499 3.225-.88.144-1.768-.101-2.441-.672-.673-.572-1.06-1.405-1.06-2.287v-.641c-.641.725-1 1.66-1 2.641 0 1.35.668 2.591 1.791 3.335.728.483 1.209 1.259 1.209 2.133v1.541c0 .552-.447 1-1 1s-1-.448-1-1v-1.541c0-.149-.067-.289-.178-.376-.605-.473-1.275-.874-1.701-1.512-1.906-2.858-1.257-6.248 1.012-8.161.522-.441 1.232-.535 1.855-.245.624.291 1.012.897 1.012 1.583v1.252c0 .552.448 1 1 1s1-.448 1-1v-1.253c0-.686.388-1.292 1.011-1.583.621-.289 1.332-.196 1.854.243 1.357 1.144 2.135 2.814 2.135 4.584zm-1-15.991c-.553 0-1 .448-1 1v2c0 1.105-.895 2-2 2h-2.081c-.991-2.396-3.329-3.997-5.92-4-2.589.003-4.927 1.604-5.919 4h-2.08c-1.105 0-2-.895-2-2v-2c0-.552-.447-1-1-1s-1 .448-1 1v2c0 2.209 1.791 4 4 4h1.521l-1.005 4h-3.516c-.553 0-1 .448-1 1s.447 1 1 1h3.013l-.156.62c-.089.433-.103.849-.108 1.223.001.747.103 1.47.289 2.157h-.038c-2.209 0-4 1.791-4 4v2c0 .552.447 1 1 1s1-.448 1-1v-2c0-1.105.895-2 2-2h.881c1.234 2.087 3.384 3.574 5.987 3.924.536.075 1.053-.309 1.124-.858.073-.547-.311-1.051-.858-1.125-3.115-.418-5.38-2.984-5.384-6.083.006-.34.019-.599.058-.794l2.058-8.183c.654-1.724 2.31-2.88 4.134-2.882 1.826.002 3.481 1.158 4.136 2.882l.846 3.362c.135.536.682.859 1.214.726.535-.135.86-.678.726-1.214l-.442-1.756h1.523c2.209 0 4-1.791 4-4v-1.999c0-.552-.447-1-1-1z"/></svg>