<svg id="Layer_1" viewBox="0 0 24 24" xmlns="http://www.w3.org/2000/svg" data-name="Layer 1"><path d="m23.999 18.904c-.028.684-.199 1.63-.848 2.3-.616.636-1.483.803-2.151.829v.967c0 .553-.448 1-1 1s-1-.447-1-1v-1.008c-.657-.024-1.523-.189-2.163-.829-.677-.677-.828-1.617-.837-2.284-.006-.485.394-.885.879-.879.667.008 1.607.16 2.284.837.49.49.753 1.101.837 1.663.109-.554.431-1.143.897-1.624.648-.669 1.566-.846 2.228-.875.487-.021.896.4.875.903zm-.926-8.904c-.351 0-.672.198-.829.512l-.744 1.488h-5.195l1.108-1.584c.89-1.237.763-2.923-.303-4.008-.062-.065-3.866-3.426-3.929-3.485-.643-.654-1.509-.951-2.362-.897-.444-.418-.885-.822-1.052-.937-2.054-1.422-4.832-1.456-6.911-.085-1.89 1.246-2.955 3.321-2.85 5.504 0 3.302.367 5.713 2.196 7.524.041.044 4.148 3.712 4.193 3.754.842.861 2.018 1.302 3.203 1.21 1.197-.091 2.289-.707 3.004-1.701l2.304-3.295h6.594l.744 1.488c.157.314.478.512.829.512.512 0 .927-.415.927-.927v-4.146c0-.512-.415-.927-.927-.927zm-21.005-1.672c-.039-.559-.062-1.167-.063-1.867-.072-1.518.658-2.934 1.952-3.787 1.406-.926 3.285-.902 4.673.059.073.051.131.114.201.169-.627.497-4.87 3.811-6.285 4.95-.177.142-.329.309-.478.477zm13.715.931-4.811 6.879c-.362.503-.918.818-1.525.864-.595.047-1.194-.178-1.67-.661l-4.157-3.719c-.427-.435-.651-1.039-.615-1.655.036-.621.319-1.174.796-1.557 1.407-1.133 5.879-4.625 6.569-5.175.184-.146.403-.221.627-.221.282 0 .572.118.809.357l3.899 3.458c.357.384.396.988.079 1.429z"/></svg>