<svg id="Layer_1" viewBox="0 0 24 24" xmlns="http://www.w3.org/2000/svg" data-name="Layer 1"><path d="m6.801 8.995c.276.479.887.643 1.366.368l.544-.314c.605.652 1.393 1.125 2.289 1.33v.621c0 .552.448 1 1 1s1-.448 1-1v-.621c.896-.205 1.685-.678 2.289-1.33l.544.314c.479.276 1.09.111 1.366-.367.276-.479.111-1.09-.367-1.366l-.55-.317c.129-.418.218-.853.218-1.313s-.089-.895-.218-1.313l.55-.317c.479-.276.643-.887.367-1.365-.276-.479-.887-.643-1.366-.368l-.544.314c-.605-.652-1.393-1.125-2.289-1.33v-.621c0-.552-.448-1-1-1s-1 .448-1 1v.621c-.896.205-1.685.678-2.289 1.33l-.544-.314c-.479-.276-1.09-.111-1.366.368-.276.479-.111 1.09.367 1.366l.55.317c-.129.418-.218.853-.218 1.313s.089.895.218 1.313l-.55.317c-.479.276-.643.887-.367 1.366zm4.199-4.495c0-.552.448-1 1-1 .552 0 1 .448 1 1v1.086l.75.75c.391.39.391 1.024 0 1.414s-1.024.39-1.414 0l-1.043-1.043c-.188-.188-.293-.442-.293-.707zm13 2.5v10.101c0 2.137-.832 4.146-2.343 5.656l-.949.95c-.391.391-1.024.391-1.415 0s-.391-1.023 0-1.414l.95-.95c1.134-1.133 1.758-2.64 1.758-4.242v-10.101c0-.551-.449-1-1-1s-1 .449-1 1v8c-.036.683-.225 1.368-.701 1.922l-2.578 2.685c-.384.398-1.016.41-1.414.027s-.41-1.016-.027-1.414l2.533-2.634c.282-.352.242-.912-.066-1.255-.351-.403-1.013-.45-1.407-.077l-3.163 2.911c.53 1.001.824 2.124.824 3.276v2.56c0 .553-.448 1-1 1s-1-.447-1-1v-2.56c0-1.395-.588-2.735-1.614-3.679l-2.735-2.516c-.38-.368-1.053-.314-1.397.085-.329.367-.337.928-.021 1.306l2.57 2.67c.383.398.371 1.031-.028 1.414-.397.383-1.03.371-1.414-.027l-2.616-2.721c-.506-.582-.686-1.277-.747-1.973v-8c0-.551-.449-1-1-1s-1 .449-1 1v10.101c0 1.603.624 3.109 1.757 4.242l.95.95c.39.391.39 1.023 0 1.414-.391.391-1.024.391-1.415 0l-.95-.95c-1.511-1.511-2.343-3.52-2.343-5.656v-10.101c0-1.654 1.346-3 3-3s3 1.346 3 3v5.184c.266-.094.542-.164.832-.18.799-.045 1.567.226 2.164.761l2.744 2.524c.087.08.164.168.247.252l3.008-2.767c.606-.542 1.373-.81 2.173-.77.29.016.566.086.832.18v-5.184c0-1.654 1.346-3 3-3s3 1.346 3 3z"/></svg>