<svg id="Layer_1" viewBox="0 0 24 24" xmlns="http://www.w3.org/2000/svg" data-name="Layer 1"><path d="m21.942 8.714c-.672-.572-1.56-.815-2.439-.674-.571.093-1.08.365-1.492.749-.533-.485-1.234-.789-2.01-.789-.771 0-1.468.301-2 .78-.532-.48-1.229-.78-2-.78-.352 0-.686.072-1 .184v-5.07c0-1.516-1.076-2.834-2.503-3.067-1.778-.333-3.537 1.156-3.497 2.96v8.655c-.04.036-2.41 2.384-2.41 2.384-1.024 1.021-1.589 2.379-1.59 3.826-.002 1.446.562 2.807 1.584 3.829l2.008 2.007c.391.391 1.023.391 1.414 0s.391-1.023 0-1.414l-2.008-2.007c-.645-.645-.999-1.502-.998-2.414 0-.911.356-1.768 1.002-2.411l2.287-2.283c.391-.389 1.023-.39 1.412 0 .402.408.395 1.038-.04 1.457l-2.407 2.698c-.368.412-.332 1.045.08 1.412.412.366 1.044.331 1.412-.08l2.367-2.656c.294-.293.516-.637.666-1.012.549.61 1.337 1.002 2.221 1.002.771 0 1.468-.301 2-.78.532.48 1.229.78 2 .78s1.468-.301 2-.78c.532.48 1.229.78 2 .78.351 0 .687-.061 1-.171v7.171c0 .553.447 1 1 1s1-.447 1-1v-12c0-.882-.386-1.715-1.058-2.286zm-14.942 2.173v-7.88c-.011-.605.574-1.103 1.175-.985.463.075.825.556.825 1.093v8.555c-.568-.514-1.281-.781-2-.783zm5 3.113c-.552 0-1-.448-1-1v-2c0-.552.448-1 1-1s1 .448 1 1v2c0 .552-.448 1-1 1zm4 0c-.552 0-1-.448-1-1v-2c0-.552.448-1 1-1s1 .448 1 1v2c0 .552-.448 1-1 1zm5-1c0 .552-.448 1-1 1s-1-.448-1-1v-1.893c.002-.607.446-1.121 1-1.107.537-.012 1.011.463 1 1zm-5.791 8.4h-.227v-1.801h.209c.437 0 .791-.354.791-.791v-.018c0-.437-.354-.791-.791-.791h-.209v-.209c0-.437-.354-.791-.791-.791h-.018c-.437 0-.791.354-.791.791v.209h-1.801v-.209c0-.437-.354-.791-.791-.791s-.791.354-.791.791v.209h-.209c-.437 0-.791.354-.791.791v.018c0 .437.354.791.791.791h.209v1.801h-.209c-.437 0-.791.354-.791.791v.018c0 .437.354.791.791.791h.209v.209c0 .437.354.791.791.791s.791-.354.791-.791v-.209h1.801v.191c0 .437.354.791.791.791h.018c.437 0 .791-.354.791-.791v-.191h.227c.437 0 .791-.354.791-.791v-.018c0-.437-.354-.791-.791-.791zm-1.826 0h-1.801v-1.801h1.801zm6.617-3.539v5.339c0 .442-.358.8-.8.8s-.8-.358-.8-.8v-3.515l-.36.372c-.307.317-.814.325-1.131.018s-.326-.814-.018-1.131l1.63-1.682c.162-.167.385-.262.618-.262.475 0 .861.385.861.861z"/></svg>