<?xml version="1.0" encoding="UTF-8"?>
<svg xmlns="http://www.w3.org/2000/svg" id="Layer_1" data-name="Layer 1" viewBox="0 0 24 24">
  <path d="M22.344,13.324c-.532-1.388-1.888-2.32-3.373-2.32l-3.963-.003h-.005c-.968,0-1.91,.397-2.586,1.09l-2.39,2.449c-.663,.679-1.028,1.575-1.028,2.524v1.416c0,.908,.338,1.777,.953,2.446l1.75,1.904c.682,.743,1.652,1.169,2.662,1.169h4.866c1.31,0,2.52-.711,3.158-1.854l1.154-2.071c.523-.938,.602-2.052,.217-3.053l-1.416-3.697Zm-.548,5.777l-1.154,2.069c-.285,.512-.826,.829-1.411,.829h-4.866c-.451,0-.884-.19-1.189-.522l-1.75-1.904c-.274-.299-.426-.687-.426-1.093v-1.416c0-.424,.163-.824,.459-1.128l2.39-2.449c.302-.31,.722-.486,1.155-.486h.002l3.964,.003c.663,0,1.269,.417,1.506,1.036l1.416,3.697c.172,.447,.136,.944-.097,1.364ZM11,7.541v-2.405c0-1.124-.549-2.181-1.468-2.827L7.144,.629c-1.14-.801-2.639-.841-3.82-.104L1.625,1.587c-1.018,.635-1.625,1.731-1.625,2.932v2.981c0,1.447,.914,2.753,2.275,3.248l2.88,1.047c1.144,.418,2.452,.195,3.393-.593l1.208-1.006c.791-.659,1.244-1.627,1.244-2.655Zm-2,0c0,.434-.191,.841-.523,1.118l-1.209,1.007c-.396,.33-.943,.427-1.429,.25l-2.879-1.047c-.574-.209-.959-.759-.959-1.369v-2.981c0-.506,.255-.968,.685-1.235l1.699-1.062c.497-.31,1.129-.294,1.609,.045l2.388,1.68c.387,.272,.619,.717,.619,1.19v2.405Zm7.037,.309c.547,.721,1.413,1.15,2.317,1.15h1.607c.771,0,1.498-.299,2.045-.841h0l1.13-1.119c.787-.779,1.062-1.917,.719-2.968l-.674-2.067c-.392-1.199-1.503-2.005-2.764-2.005h-2.489c-.887,0-1.715,.397-2.271,1.091l-1.021,1.277c-.833,1.04-.853,2.51-.046,3.573l1.446,1.908Zm.162-4.231l1.021-1.277c.174-.217,.432-.341,.709-.341h2.489c.394,0,.741,.252,.863,.625l.674,2.067c.107,.328,.021,.683-.225,.926l-1.13,1.119c-.171,.169-.398,.263-.639,.263h-1.607c-.282,0-.553-.135-.723-.359l-1.446-1.908c-.251-.331-.246-.79,.014-1.114ZM4.827,16.594c-.495-.716-1.431-.982-2.225-.627l-1.522,.673c-.656,.29-1.08,.94-1.08,1.658v1.271c0,.688,.399,1.327,1.016,1.628l1.265,.618c.743,.367,1.651,.181,2.19-.467l1.108-1.33c.52-.622,.561-1.523,.1-2.191l-.852-1.232Zm-1.798,3.36l-1.029-.503v-1.031l1.27-.562,.682,.988-.923,1.108Zm14.971-.954c0,.553-.448,1-1,1h-2c-.265,0-.52-.105-.707-.293l-1-1c-.391-.391-.391-1.023,0-1.414s1.023-.391,1.414,0l.707,.707h1.586c.552,0,1,.447,1,1Z"/>
</svg>
