<svg id="Layer_1" viewBox="0 0 24 24" xmlns="http://www.w3.org/2000/svg" data-name="Layer 1"><path d="m7 7c.828 0 1.5.672 1.5 1.5s-.672 1.5-1.5 1.5-1.5-.672-1.5-1.5.672-1.5 1.5-1.5zm7 0c-.828 0-1.5.672-1.5 1.5s.672 1.5 1.5 1.5 1.5-.672 1.5-1.5-.672-1.5-1.5-1.5zm10 10c0 3.859-3.14 7-7 7s-7-3.141-7-7c0-1.297.361-2.509.979-3.552-.15.032-.309.052-.479.052-1.289 0-2-1.025-2-1.55s.711-.95 2-.95c1.078 0 1.745.299 1.937.704 1.227-1.058 2.82-1.704 4.563-1.704 3.86 0 7 3.141 7 7zm-2 0c0-2.757-2.243-5-5-5s-5 2.243-5 5 2.243 5 5 5 5-2.243 5-5zm-2.879 0h-1.121v-2c0-.553-.448-1-1-1s-1 .447-1 1v2h-1.121c-.355 0-.676.213-.812.541-.138.329-.062.706.19.957l1.5 1.5c.685.685 1.8.685 2.485 0l1.5-1.5c.253-.252.326-.632.19-.957-.136-.328-.456-.541-.812-.541zm-10.749 2.071c-2.771-1.108-4.555-2.872-5.563-4.156-.521-.663-.808-1.52-.808-2.411v-1.504c0-.714.191-1.416.554-2.031l.35-.595c.377-.64.37-1.429-.019-2.06-.546-.885-.886-1.708-.886-2.147 0-1.195.972-2.167 2.167-2.167.568 0 1.141.283 1.572.776.55.63 1.387.882 2.128.63 1.615-.539 3.652-.539 5.268 0 .744.252 1.578 0 2.127-.629.431-.494 1.004-.777 1.572-.777 1.195 0 2.167.972 2.167 2.163-.003.398-.136 1.559-.707 2.13-.391.391-.391 1.023 0 1.414s1.023.391 1.414 0c1.257-1.257 1.293-3.31 1.293-3.54 0-2.298-1.869-4.167-4.167-4.167-1.146 0-2.268.532-3.066 1.51-2.025-.676-4.523-.627-6.522-.049-.812-.929-1.934-1.461-3.079-1.461-2.298 0-4.167 1.869-4.167 4.167 0 .85.398 1.925 1.181 3.193l-.35.594c-.544.922-.831 1.976-.831 3.046v1.504c0 1.338.439 2.634 1.235 3.646 1.16 1.477 3.21 3.504 6.393 4.778.5.203 1.095-.039 1.3-.558.206-.513-.044-1.095-.557-1.3z"/></svg>