<svg id="Layer_1" viewBox="0 0 24 24" xmlns="http://www.w3.org/2000/svg" data-name="Layer 1"><path d="m24 23c0 .552-.448 1-1 1h-22c-.552 0-1-.448-1-1s.448-1 1-1h12.012c-9.796-4.91-10.011-17.173-10.012-17.327v-.673c0-1.103-.897-2-2-2-.552 0-1-.448-1-1s.448-1 1-1c2.206 0 4 1.794 4 4v.667c.006.701.342 17.333 17.333 17.333h.667c.552 0 1 .448 1 1zm-5.921-7.757c1.133 1.133 2.64 1.757 4.243 1.757h.679c.552 0 1-.448 1-1s-.448-1-1-1h-.679c-1.068 0-2.073-.416-2.829-1.171l-5.321-5.321c-.755-.755-1.171-1.76-1.171-2.829v-.679c0-.552-.448-1-1-1s-1 .448-1 1v.679c0 1.603.624 3.109 1.757 4.243zm-6.518-3.682c.586-.586.586-1.536 0-2.121-.586-.586-1.536-.586-2.121 0s-.586 1.536 0 2.121c.586.586 1.536.586 2.121 0zm4.879 4.879c-.586.586-.586 1.536 0 2.121.586.586 1.536.586 2.121 0s.586-1.536 0-2.121c-.586-.586-1.536-.586-2.121 0z"/></svg>