<svg id="Layer_1" viewBox="0 0 24 24" xmlns="http://www.w3.org/2000/svg" data-name="Layer 1"><path d="m22.849 15.594-2.5-1.957c-1.089-.852-2.608-.852-3.697 0l-2.5 1.957c-.731.572-1.151 1.434-1.151 2.363v3.043c0 1.654 1.346 3 3 3h5c1.654 0 3-1.346 3-3v-3.043c0-.929-.42-1.791-1.151-2.363zm-.849 5.406c0 .551-.449 1-1 1h-5c-.551 0-1-.449-1-1v-3.043c0-.31.14-.597.384-.788l2.5-1.957c.181-.142.399-.213.616-.213s.435.071.616.213l2.5 1.957c.244.191.384.478.384.788zm-3-17h-12v-1c0-1.654-1.346-3-3-3h-.5c-1.93 0-3.5 1.57-3.5 3.5v17.001c0 1.929 1.571 3.499 3.5 3.499h6.5c.552 0 1-.448 1-1s-.448-1-1-1h-6.5c-.827 0-1.5-.673-1.5-1.5s.673-1.5 1.5-1.5h.5c1.654 0 3-1.346 3-3v-10h12c1.654 0 3 1.346 3 3v2c0 .552.448 1 1 1s1-.448 1-1v-2c0-2.757-2.243-5-5-5zm-14 12c0 .551-.449 1-1 1h-.5c-.537 0-1.045.122-1.5.338v-13.838c0-.827.673-1.5 1.5-1.5h.5c.551 0 1 .449 1 1zm6-7v10c0 .552-.448 1-1 1s-1-.448-1-1v-10c0-.552.448-1 1-1s1 .448 1 1zm3 0c0-.552.448-1 1-1h3c1.299 0 2 1.03 2 2 0 .552-.448 1-1 1s-1-.448-1-1h-3c-.552 0-1-.448-1-1zm5 11.5h-1c-.552 0-1-.448-1-1v-1c0-.552.448-1 1-1h1c.552 0 1 .448 1 1v1c0 .552-.448 1-1 1z"/></svg>