<svg id="Layer_1" viewBox="0 0 24 24" xmlns="http://www.w3.org/2000/svg" data-name="Layer 1"><path d="m5.095 12.104c-.235-.5-.02-1.095.48-1.331.946-.444 1.425-1.377 1.425-2.773 0-.552.448-1 1-1s1 .448 1 1c0 2.175-.915 3.803-2.575 4.583-.488.232-1.095.025-1.331-.48zm.905-4.104c0-1.103.897-2 2-2 .229 0 .453.039.666.114.522.185 1.092-.088 1.277-.609.184-.521-.088-1.092-.609-1.277-.429-.151-.877-.229-1.334-.229-2.206 0-4 1.794-4 4 0 .552.448 1 1 1s1-.448 1-1zm2.885 6.461c.248 0 .497-.092.69-.276.542-.516.997-1.078 1.353-1.669.285-.473.132-1.088-.34-1.373-.473-.286-1.087-.132-1.373.34-.264.439-.607.861-1.02 1.254-.661.586-.176 1.755.69 1.724zm3.087-5.392c.031-.613.063-1.157-.027-1.736-.092-.544-.608-.911-1.152-.82-.544.092-.912.607-.82 1.152.056.412.026.825.005 1.264-.043.575.421 1.072.999 1.07.521 0 .959-.403.997-.93zm4.028 4.93v5c0 2.757-2.243 5-5 5h-6c-2.757 0-5-2.243-5-5v-13.999c0-2.757 2.243-5 5-5h6c.552 0 1 .448 1 1s-.448 1-1 1h-6c-1.654 0-3 1.346-3 3v11h12v-2c0-.552.448-1 1-1s1 .448 1 1zm-2 5v-1h-12v1c0 1.654 1.346 3 3 3h6c1.654 0 3-1.346 3-3zm-5 0h-2c-.552 0-1 .448-1 1s.448 1 1 1h2c.552 0 1-.448 1-1s-.448-1-1-1zm15-15.999v2.999c0 1.657-1.343 3-3 3h-2.872l-2.454 1.69c-.186.119-.387.173-.583.173-.566 0-1.089-.45-1.089-1.088l-.002-6.772c0-1.65 1.35-3 3-3.001h3.999c1.657-.002 3.001 1.341 3.001 2.999zm-1.708-.193c-.383-.399-1.017-.41-1.414-.029l-2.059 1.97c-.143.141-.379.144-.522.002l-1.096-1.074c-.396-.388-1.028-.381-1.414.014-.387.395-.381 1.027.014 1.414l1.097 1.075c.46.449 1.062.674 1.663.674s1.201-.225 1.653-.671l2.049-1.961c.398-.383.411-1.016.029-1.414z"/></svg>