<svg id="Layer_1" viewBox="0 0 24 24" xmlns="http://www.w3.org/2000/svg" data-name="Layer 1"><path d="m5.5 12c-1.93 0-3.5 1.57-3.5 3.5s1.57 3.5 3.5 3.5 3.5-1.57 3.5-3.5-1.57-3.5-3.5-3.5zm0 5c-.827 0-1.5-.673-1.5-1.5s.673-1.5 1.5-1.5 1.5.673 1.5 1.5-.673 1.5-1.5 1.5zm16.5-1.5c0-1.93-1.57-3.5-3.5-3.5s-3.5 1.57-3.5 3.5 1.57 3.5 3.5 3.5 3.5-1.57 3.5-3.5zm-5 0c0-.827.673-1.5 1.5-1.5s1.5.673 1.5 1.5-.673 1.5-1.5 1.5-1.5-.673-1.5-1.5zm3.999-15.5h-4c-1.653.003-2.999 1.349-2.999 3.002v6.62c.003.516.288.983.745 1.222.484.247 1.018.189 1.48-.134l2.127-1.71h2.647c1.654 0 3-1.346 3-3v-3c0-1.654-1.347-3-3.001-3zm1.001 6c0 .552-.448 1-1 1h-3c-.228 0-.449.078-.627.221l-1.372 1.105v-5.324c0-.552.448-1.001.999-1.001h3.999c.552 0 1.001.447 1.001.999zm-19 3h2.648l2.181 1.751c.423.295.97.33 1.426.093.457-.238.742-.706.744-1.225v-6.617c.001-1.653-1.345-2.999-2.999-3.002h-3.999c-1.654 0-3.001 1.345-3.001 2.999v3c0 1.654 1.346 3 3 3zm-1-6c0-.552.449-1 1.001-1h3.998c.552 0 1.001.45 1.001 1.002v5.322s-1.373-1.104-1.373-1.104c-.178-.143-.399-.221-.627-.221h-3c-.552 0-1-.448-1-1zm21.778 19.372c.347.43.279 1.06-.15 1.406-.428.345-1.058.281-1.406-.15-.822-1.02-2.213-1.628-3.722-1.628s-2.899.608-3.722 1.628c-.347.43-.974.498-1.406.15-.43-.347-.497-.977-.15-1.406 1.197-1.485 3.171-2.372 5.278-2.372s4.081.887 5.278 2.372zm-13 0c.347.43.279 1.06-.15 1.406-.428.345-1.058.281-1.406-.15-.822-1.02-2.213-1.628-3.722-1.628s-2.899.608-3.722 1.628c-.346.43-.974.498-1.406.15-.43-.347-.497-.977-.15-1.406 1.197-1.485 3.171-2.372 5.278-2.372s4.081.887 5.278 2.372z"/></svg>