<svg id="Layer_1" viewBox="0 0 24 24" xmlns="http://www.w3.org/2000/svg" data-name="Layer 1"><path d="m22 18.184v-1.184c0-.552-.447-1-1-1s-1 .448-1 1v1h-4.5c-.266 0-.52.105-.707.293l-.707.707h-4.172l-.707-.707c-.188-.188-.442-.293-.707-.293h-4.5v-7c0-1.654 1.346-3 3-3h2c.552 0 1-.448 1-1s-.448-1-1-1h-2c-2.757 0-5 2.243-5 5v7.184c-1.161.414-2 1.514-2 2.816 0 1.654 1.346 3 3 3h18c1.654 0 3-1.346 3-3 0-1.302-.839-2.402-2-2.816zm-1 3.816h-18c-.551 0-1-.449-1-1s.449-1 1-1h5.086l.707.707c.188.188.442.293.707.293h5c.266 0 .52-.105.707-.293l.707-.707h5.086c.552 0 1 .449 1 1s-.448 1-1 1zm-9-13c0-3.309 2.691-6 6-6h1.031l-1.336-1.293c-.391-.39-.391-1.023 0-1.414s1.023-.391 1.414 0l2.387 2.343c.729.729.728 1.914 0 2.642l-2.387 2.386c-.391.391-1.023.391-1.414 0s-.391-1.024 0-1.414l1.25-1.25h-.945c-2.206 0-4 1.794-4 4s1.794 4 4 4 4-1.794 4-4c0-.271-.026-.54-.08-.802-.109-.541.241-1.069.782-1.178.54-.107 1.068.241 1.179.782.079.392.119.795.119 1.198 0 3.309-2.691 6-6 6s-6-2.691-6-6z"/></svg>