<svg id="Layer_1" viewBox="0 0 24 24" xmlns="http://www.w3.org/2000/svg" data-name="Layer 1"><path d="m9 3c0-1.657 1.367-3 3.054-3s2.946 1.343 2.946 3-1.26 3-2.946 3-3.054-1.343-3.054-3zm12.206 17.824-3.839-3.021 4.057-1.897c.5-.234.716-.829.482-1.33-.234-.5-.826-.715-1.33-.482l-8.128 3.801c-.281.14-.615.14-.919-.012l-8.106-3.789c-.499-.232-1.095-.019-1.329.482s-.018 1.096.482 1.33l4.057 1.896-3.839 3.022c-1.441.845-.746 3.242.931 3.176h6.274c.552 0 1-.447 1-1s-.448-1-1-1h-5.465l4.084-3.214c.014-.011.021-.028.034-.04l2.006.938c.831.415 1.833.424 2.66.012l2.03-.949c.013.012.02.029.034.04l4.084 3.214h-5.466c-.553 0-1 .447-1 1s.447 1 1 1h6.274c1.678.066 2.371-2.331.932-3.176zm-13.206-6.824c.552 0 1-.447 1-1 0-1.654 1.346-3 3-3s3 1.346 3 3c0 .553.447 1 1 1s1-.447 1-1c0-2.757-2.243-5-5-5s-5 2.243-5 5c0 .553.448 1 1 1z"/></svg>