<svg id="Layer_1" viewBox="0 0 24 24" xmlns="http://www.w3.org/2000/svg" data-name="Layer 1"><path d="m23.819 6.311c-.339-2.458-2.47-4.311-4.955-4.311h-2.864c0-1.103-.897-2-2-2h-4c-1.103 0-2 .897-2 2h-2.864c-2.486 0-4.616 1.854-4.956 4.311-.24 1.726-.24 3.652 0 5.378.34 2.458 2.47 4.311 4.956 4.311h13.729c2.485 0 4.616-1.854 4.955-4.311.241-1.726.241-3.652 0-5.378zm-1.98 5.104c-.204 1.473-1.482 2.584-2.975 2.584h-13.728c-1.492 0-2.771-1.111-2.974-2.584-.215-1.546-.215-3.285 0-4.831.204-1.473 1.482-2.584 2.974-2.584h13.729c1.492 0 2.771 1.111 2.975 2.584.214 1.546.214 3.285 0 4.831zm-8.071-3.683c.976.976.976 2.559 0 3.536-.976.976-2.559.976-3.535 0s-.976-2.559 0-3.536l1.153-1.129c.342-.335.889-.335 1.231 0l1.152 1.129zm4.732 9.268c-1.391 0-2.585.822-3.149 2h-6.702c-.564-1.178-1.758-2-3.149-2-1.93 0-3.5 1.57-3.5 3.5s1.57 3.5 3.5 3.5c1.758 0 3.204-1.308 3.449-3h6.101c.245 1.692 1.691 3 3.449 3 1.93 0 3.5-1.57 3.5-3.5s-1.57-3.5-3.5-3.5zm-13 5c-.827 0-1.5-.673-1.5-1.5s.673-1.5 1.5-1.5 1.5.673 1.5 1.5-.673 1.5-1.5 1.5zm13 0c-.827 0-1.5-.673-1.5-1.5s.673-1.5 1.5-1.5 1.5.673 1.5 1.5-.673 1.5-1.5 1.5z"/></svg>