<svg id="Layer_1" viewBox="0 0 24 24" xmlns="http://www.w3.org/2000/svg" data-name="Layer 1"><path d="m12 22h-7c-1.654 0-3-1.346-3-3v-15h3v3c0 .552.447 1 1 1h9v1c0 .552.447 1 1 1s1-.448 1-1v-8c0-.552-.447-1-1-1s-1 .448-1 1v1h-3v-1c0-.552-.447-1-1-1s-1 .448-1 1v1h-3v-1c0-.552-.447-1-1-1s-1 .448-1 1v1h-3v-1c0-.552-.447-1-1-1s-1 .448-1 1v18c0 2.757 2.243 5 5 5h7c.553 0 1-.448 1-1s-.447-1-1-1zm3-18v2h-3v-2zm-5 0v2h-3v-2zm-3 11c0 .552-.447 1-1 1h-1c-.553 0-1-.448-1-1s.447-1 1-1h1c.553 0 1 .448 1 1zm0 4c0 .552-.447 1-1 1h-1c-.553 0-1-.448-1-1s.447-1 1-1h1c.553 0 1 .448 1 1zm0-8c0 .552-.447 1-1 1h-1c-.553 0-1-.448-1-1s.447-1 1-1h1c.553 0 1 .448 1 1zm5 0c0 .552-.447 1-1 1h-1c-.553 0-1-.448-1-1s.447-1 1-1h1c.553 0 1 .448 1 1zm0 4c0 .552-.447 1-1 1h-1c-.553 0-1-.448-1-1s.447-1 1-1h1c.553 0 1 .448 1 1zm0 4c0 .552-.447 1-1 1h-1c-.553 0-1-.448-1-1s.447-1 1-1h1c.553 0 1 .448 1 1zm10.389-5.414c-1.038-1.039-2.419-1.611-3.889-1.611s-2.851.572-3.889 1.611c-1.039 1.039-1.611 2.42-1.611 3.889s.572 2.85 1.619 3.897l1.832 1.792c.564.553 1.307.829 2.049.829s1.484-.276 2.049-.829l1.84-1.8c1.039-1.039 1.611-2.42 1.611-3.889s-.572-2.851-1.611-3.889zm-1.406 6.356-1.832 1.792c-.359.351-.941.351-1.301 0l-1.824-1.784c-.661-.661-1.025-1.541-1.025-2.475s.364-1.814 1.025-2.475 1.539-1.025 2.475-1.025 1.813.364 2.475 1.025 1.025 1.54 1.025 2.475-.364 1.814-1.018 2.467zm-.982-2.473c0 .828-.672 1.5-1.5 1.5s-1.5-.672-1.5-1.5.672-1.5 1.5-1.5 1.5.672 1.5 1.5z"/></svg>