<svg id="Layer_1" viewBox="0 0 24 24" xmlns="http://www.w3.org/2000/svg" data-name="Layer 1"><path d="m19.947 17.139c-.259-1.521-.83-2.554-1.289-3.384-.382-.691-.658-1.19-.658-1.755 0-1.046.331-2.34.597-3.38.226-.883.403-1.58.403-2.12 0-.194-.06-.388-.165-.551-.009-.013-.835-1.297-.835-2.949v-2c0-.513-.388-.942-.897-.995-.515-.058-.978.289-1.082.791-.067.326-.178.639-.328.931-.559 1.093-2.13 2.272-3.692 2.272s-3.134-1.179-3.693-2.273c-.149-.291-.26-.604-.327-.93-.106-.501-.568-.848-1.084-.79-.51.052-.897.482-.897.995v2c0 1.652-.826 2.936-.832 2.945-.109.164-.168.357-.168.555 0 .54.178 1.237.403 2.12.266 1.04.597 2.334.597 3.38 0 .565-.276 1.064-.658 1.755-.459.83-1.03 1.863-1.289 3.384-.222 1.309.275 2.687 1.299 3.596l2.535 2.253c.733.652 1.677 1.011 2.658 1.011h2.91c.981 0 1.925-.359 2.657-1.01l2.536-2.254c1.023-.909 1.521-2.287 1.299-3.596zm-2.627 2.101-2.537 2.254c-.365.326-.838.505-1.328.505h-2.91c-.49 0-.963-.179-1.329-.505l-2.536-2.254c-.512-.455-.763-1.132-.654-1.767.2-1.185.641-1.981 1.066-2.75.298-.538.59-1.096.76-1.724h5.148c.553 0 1-.448 1-1s-.447-1-1-1h-5.063c-.117-1-.376-2.016-.595-2.875-.133-.517-.268-1.047-.319-1.391.241-.44.649-1.304.854-2.408 1.073.951 2.549 1.673 4.124 1.673s3.051-.723 4.124-1.673c.204 1.104.612 1.967.854 2.408-.052.343-.187.874-.319 1.391-.293 1.148-.658 2.578-.658 3.875 0 1.081.462 1.916.908 2.724.426.769.866 1.564 1.066 2.75.108.635-.143 1.312-.654 1.767z"/></svg>