<svg id="Layer_1" viewBox="0 0 24 24" xmlns="http://www.w3.org/2000/svg" data-name="Layer 1"><path d="m24 13c0 .97-.701 2-2 2h-.33l-.219 1.655c-.327 2.477-2.458 4.345-4.957 4.345h-.494c0 1.654-1.346 3-3 3h-7c-1.654 0-3-1.346-3-3v-.971c0-.895-.263-1.731-.74-2.355-1.005-1.312-1.711-2.86-2.04-4.475-.11-.541.239-1.069.781-1.179.54-.112 1.069.239 1.179.781.268 1.318.845 2.583 1.668 3.657.743.972 1.151 2.24 1.151 3.571v.971c0 .552.449 1 1 1h7c.551 0 1-.448 1-1v-1c0-.553.448-1 1-1h1.494c1.499 0 2.778-1.12 2.974-2.606l.334-2.524c.065-.497.49-.869.991-.869h1.207c-.082-.807-2.458-5.722-3.777-7.353-1.167-1.557-2.724-2.665-4.524-3.233-.526-.166-.819-.728-.652-1.255s.728-.82 1.255-.652c2.201.695 4.103 2.047 5.499 3.912 1.268 1.566 4.2 7.161 4.2 8.582zm-17.292 2c.183 0 .356-.089.462-.238l2.728-3.816c.268-.4-.018-.937-.499-.938l-2.036-.008.629-2.04c.147-.477-.21-.96-.709-.96h-1.214c-.42 0-.792.271-.92.671l-1.121 3.499c-.121.394.173.828.585.83h2.05l-.51 2.309c-.078.355.192.691.555.691zm-5.21-5.402c.47.274 1.088.118 1.367-.364.277-.478.114-1.09-.364-1.367-.309-.179-.501-.511-.501-.867 0-.539.428-.979.962-1 .632.066 1.18-.57 1.071-1.188-.235-1.47.99-2.826 2.467-2.813 1.248 0 2.307.941 2.464 2.188.035.279.187.531.417.693.325.264.752.156 1.12.119.827 0 1.5.673 1.5 1.5 0 .477-.219.914-.601 1.2-.441.332-.531.958-.199 1.4.332.441.958.53 1.4.199.876-.658 1.399-1.705 1.399-2.8 0-1.853-1.447-3.375-3.271-3.493-.621-1.766-2.3-3.007-4.229-3.007-2.37.002-4.317 1.842-4.488 4.169-1.17.409-2.012 1.525-2.012 2.833 0 1.067.574 2.062 1.498 2.598z"/></svg>