<svg id="Layer_1" viewBox="0 0 24 24" xmlns="http://www.w3.org/2000/svg" data-name="Layer 1"><path d="m19.5 15h-15c-2.481 0-4.5 2.019-4.5 4.5s2.019 4.5 4.5 4.5h15c2.481 0 4.5-2.019 4.5-4.5s-2.019-4.5-4.5-4.5zm-5.5 4.5c0 1.379-1.122 2.5-2.5 2.5h-3.262c.48-.716.762-1.575.762-2.5s-.282-1.784-.762-2.5h3.262c1.378 0 2.5 1.121 2.5 2.5zm-12 0c0-1.379 1.122-2.5 2.5-2.5s2.5 1.121 2.5 2.5-1.122 2.5-2.5 2.5-2.5-1.121-2.5-2.5zm17.5 2.5h-4.262c.48-.716.762-1.575.762-2.5s-.282-1.784-.762-2.5h4.262c1.378 0 2.5 1.121 2.5 2.5s-1.122 2.5-2.5 2.5zm-16.056-9.024c.539-.122.876-.658.754-1.197-.131-.58-.198-1.179-.198-1.778 0-.796.121-1.565.338-2.291.375 1.728 1.073 3.372 2.08 4.854.312.459.938.573 1.389.265.457-.311.576-.933.265-1.39-1.344-1.978-2.055-4.292-2.055-6.694 0-.01-.006-.019-.006-.03.692-.783 1.534-1.428 2.481-1.893-.012.199-.031.397-.031.596 0 4.385 2.797 8.25 6.959 9.617.511.171 1.091-.108 1.262-.638.172-.525-.113-1.09-.638-1.263-3.34-1.097-5.583-4.198-5.583-7.717 0-.431.045-.859.112-1.282.464-.084.939-.135 1.426-.135.466 0 .92.048 1.365.125-.037.266-.057.535-.057.805 0 3.177 2.584 5.762 5.761 5.762.27 0 .54-.02.806-.057.077.445.125.899.125 1.365 0 .6-.067 1.198-.198 1.778-.122.539.215 1.075.754 1.197.525.122 1.077-.211 1.196-.754.165-.726.248-1.473.248-2.222.001-5.513-4.485-9.999-9.999-9.999s-10 4.486-10 10c0 .749.083 1.496.248 2.222.122.538.661.874 1.196.754zm15.825-6.298c-2.197.159-4.105-1.749-3.947-3.947 1.742.8 3.147 2.204 3.947 3.947z"/></svg>