<svg id="Layer_1" viewBox="0 0 24 24" xmlns="http://www.w3.org/2000/svg" data-name="Layer 1"><path d="m14.592 12h-1.294c-.442 0-.8.358-.8.8v6.4c0 .442.358.8.8.8h1.678c1.181 0 2.263-.809 2.462-1.973.151-.882-.19-1.681-.782-2.202.296-.389.482-.866.492-1.39.027-1.34-1.216-2.436-2.556-2.436zm-.502 1.592h.671c.44 0 .796.356.796.796s-.356.796-.796.796h-.671zm.996 4.816h-.996v-1.592h.996c.44 0 .796.356.796.796s-.356.796-.796.796zm-5.989-4.808v1.801h1.601c.442 0 .8.358.8.8s-.358.8-.8.8h-1.601v2.2c0 .442-.358.8-.8.8s-.8-.358-.8-.8v-6.4c0-.442.358-.8.8-.8h2.4c.442 0 .8.358.8.8s-.358.8-.8.8h-1.601zm13.816 5.228c.269.539-.123 1.173-.726 1.173-.307 0-.589-.174-.726-.449l-.864-1.733-.864 1.733c-.137.275-.418.449-.726.449-.602 0-.994-.634-.726-1.173l1.409-2.827-1.409-2.827c-.269-.539.123-1.173.726-1.173.307 0 .589.174.726.449l.864 1.733.864-1.733c.137-.275.418-.449.726-.449.602 0 .994.634.726 1.173l-1.409 2.827zm-5.79 2.955c-.355.144-.733.217-1.124.217h-9.999c-1.654 0-3-1.346-3-3v-14c0-1.654 1.346-3 3-3h4.515c.163 0 .325.008.485.023v4.977c0 1.654 1.346 3 3 3h5.813c.309 0 .601-.143.79-.387s.255-.562.179-.861c-.312-1.217-.945-2.33-1.833-3.217l-3.484-3.486c-1.323-1.322-3.081-2.05-4.95-2.05h-4.515c-2.757.001-5 2.244-5 5.001v14c0 2.757 2.243 5 5 5h10c.649 0 1.28-.123 1.876-.365.512-.208.759-.791.551-1.303-.209-.512-.794-.757-1.303-.55zm-4.123-19.124c.38.218.732.487 1.051.805l3.484 3.486c.314.314.584.667.804 1.05h-4.339c-.552 0-1-.449-1-1z"/></svg>