<svg id="Layer_1" viewBox="0 0 24 24" xmlns="http://www.w3.org/2000/svg" data-name="Layer 1"><path d="m22.202 12.598c.219-.263.435-.53.623-.825 1.57-2.462 1.555-5.764-.039-8.215-1.296-1.992-3.369-3.274-5.687-3.517-2.098-.212-4.149.429-5.74 1.769-.114-.093-2.733-.629-2.858-.682-1.689-.388-3.432.108-4.66 1.337l-1.376 1.376c-1.227 1.228-1.727 2.97-1.337 4.66l.661 2.865c.003.011.01.019.013.03-.221.265-.437.534-.627.83-1.57 2.463-1.555 5.765.039 8.215 1.438 2.226 3.887 3.565 6.496 3.56 1.802 0 3.534-.633 4.917-1.792l2.872.663c.378.087.76.13 1.137.13 1.308 0 2.57-.514 3.522-1.467l1.376-1.376c1.227-1.227 1.727-2.969 1.337-4.66l-.67-2.901zm-18.323-7.343 1.376-1.376c.737-.736 1.783-1.037 2.796-.802l1.81.418c-.255.391-.477.804-.657 1.239-.896 2.156-2.363 3.697-4.134 4.34-.561.204-1.077.491-1.57.814l-.424-1.836c-.234-1.015.065-2.061.802-2.797zm3.229 16.714c-1.716-.179-3.253-1.133-4.218-2.617-1.174-1.805-1.186-4.236-.029-6.049.705-1.106 1.705-1.918 2.892-2.35 2.304-.836 4.186-2.772 5.298-5.453.284-.686.697-1.302 1.227-1.832 1.215-1.222 2.918-1.818 4.614-1.638 1.715.18 3.253 1.134 4.218 2.617 1.174 1.806 1.186 4.236.029 6.05-.705 1.105-1.705 1.918-2.892 2.349-2.304.837-4.185 2.773-5.298 5.454-.284.686-.697 1.302-1.227 1.832-1.218 1.22-2.899 1.819-4.614 1.637zm13.013-3.224-1.377 1.376c-.736.736-1.781 1.036-2.795.802l-1.81-.418c.255-.391.477-.804.657-1.238.896-2.156 2.363-3.697 4.134-4.34.561-.205 1.077-.492 1.569-.815l.424 1.836c.234 1.015-.065 2.061-.802 2.797z"/></svg>