<svg id="Layer_1" viewBox="0 0 24 24" xmlns="http://www.w3.org/2000/svg" data-name="Layer 1"><path d="m13.186 10.489c-.653-.648-1.716-.648-2.382.011l-1.632 1.672c-1.56 1.56-1.56 4.097 0 5.656 1.489 1.552 4.169 1.552 5.657 0 1.549-1.481 1.55-4.168.008-5.647zm.229 5.925c-.755.756-2.072.756-2.828 0-.78-.78-.78-2.048.009-2.836l1.406-1.44 1.414 1.449c.776.745.776 2.083 0 2.828zm7.087-10.915.616-.616c.51-.51.51-1.336 0-1.846l-1.654-1.654c-.51-.51-1.336-.51-1.846 0l-.603.603-.228-.228c-1.134-1.133-2.641-1.757-4.243-1.757h-5.544c-2.757-.001-5 2.242-5 4.999v14c0 2.757 2.243 5 5 5h10c2.757 0 5-2.243 5-5v-9.544c0-1.473-.533-2.861-1.499-3.957zm-13.502-3.499h5.544c.153 0 .301.027.452.044-.024 1.633-1.356 2.956-2.996 2.956h-6c0-1.654 1.346-3 3-3zm13 17c0 1.654-1.346 3-3 3h-10c-1.654 0-3-1.346-3-3v-12h6c2.483 0 4.534-1.825 4.919-4.201.156.116.313.232.453.372l3.456 3.456c.756.756 1.172 1.76 1.172 2.829z"/></svg>