<svg id="Layer_1" viewBox="0 0 24 24" xmlns="http://www.w3.org/2000/svg" data-name="Layer 1"><path d="m16.582 12c-1.148 0-2.082.933-2.082 2.082v3.837c0 1.148.933 2.082 2.082 2.082s2.082-.933 2.082-2.082v-3.837c0-1.148-.933-2.082-2.082-2.082zm.482 5.918c0 .266-.216.482-.482.482s-.482-.216-.482-.482v-3.837c0-.266.216-.482.482-.482s.482.216.482.482zm6.937-5.118v6.264c0 .517-.419.936-.936.936-.398 0-.752-.251-.883-.627l-1.081-3.085v2.912c0 .442-.358.8-.8.8s-.8-.358-.8-.8v-6.257c0-.52.423-.941.943-.938.394.002.745.251.878.622l1.078 3.008v-2.835c0-.442.358-.8.8-.8s.8.358.8.8zm-16.3-.8c.442 0 .8.358.8.8v4.9c0 1.269-1.031 2.3-2.3 2.3-1.246 0-2.257-.996-2.293-2.233.018-.425.363-.767.793-.767.442 0 .8.358.8.8 0 0 .058.601.7.601.386 0 .7-.314.7-.7v-4.9c0-.442.358-.8.8-.8zm12.082-3.248c-.311-1.217-.945-2.329-1.833-3.217l-3.485-3.485c-1.322-1.322-3.08-2.05-4.95-2.05h-4.515c-2.757 0-5 2.243-5 5v14c0 2.757 2.243 5 5 5h10c.649 0 1.28-.123 1.876-.364.512-.208.758-.791.551-1.303-.208-.511-.791-.759-1.303-.551-.356.145-.734.218-1.124.218h-10c-1.654 0-3-1.346-3-3v-14c0-1.654 1.346-3 3-3h4.515c.163 0 .325.008.485.023v4.977c0 1.654 1.346 3 3 3h5.813c.309 0 .601-.143.79-.387s.255-.562.179-.861zm-6.782-.752c-.551 0-1-.449-1-1v-4.341c.379.218.732.488 1.05.806l3.485 3.485c.314.314.583.668.803 1.05zm-.759 9.619c0-.5-.194-.688-1.091-1.056-.501-.206-2.026-.833-2.026-2.372 0-1.249.958-2.191 2.228-2.191.416 0 .787.106 1.093.245.506.229.615.901.222 1.293-.238.237-.593.29-.901.157-.127-.055-.27-.095-.413-.095-.382 0-.628.232-.628.591 0 .14 0 .467 1.035.892.779.32 2.082.855 2.082 2.536 0 1.533-1.357 2.381-2.296 2.381-.684 0-1.248-.218-1.667-.463-.476-.279-.523-.947-.1-1.3.254-.212.612-.25.896-.083.218.128.514.246.87.246.082-.002.696-.181.696-.781z"/></svg>