<svg id="Layer_1" viewBox="0 0 24 24" xmlns="http://www.w3.org/2000/svg" data-name="Layer 1"><path d="m16 10h-3v-9c0-.552-.448-1-1-1s-1 .448-1 1v9h-3c-2.757 0-5 2.243-5 5v6c0 .449-.551 1-1 1-.552 0-1 .448-1 1s.448 1 1 1h15c2.206 0 4-1.794 4-4v-5c0-2.757-2.243-5-5-5zm-8 2h8c1.302 0 2.402.839 2.816 2h-13.632c.414-1.161 1.514-2 2.816-2zm9 10h-12.201c.129-.319.201-.658.201-1v-5h2v3c0 .552.448 1 1 1s1-.448 1-1v-3h2v3c0 .552.448 1 1 1s1-.448 1-1v-3h2v3c0 .552.447 1 1 1s1-.448 1-1v-3h2v4c0 1.103-.897 2-2 2zm-15.5-18.548c.006-.307.198-.579.484-.687l1.299-.492.52-1.301c.114-.285.39-.472.697-.472s.583.187.697.472l.523 1.308 1.308.523c.285.114.472.39.472.697s-.187.583-.472.697l-1.308.523-.523 1.308c-.114.285-.39.472-.697.472s-.583-.187-.697-.472l-.526-1.316-1.318-.556c-.283-.119-.464-.398-.459-.705zm22 2.048c0 .307-.187.583-.472.697l-1.308.523-.523 1.308c-.114.285-.39.472-.697.472s-.583-.187-.697-.472l-.526-1.316-1.318-.556c-.283-.119-.464-.398-.459-.705.006-.307.198-.579.484-.687l1.299-.492.52-1.301c.114-.285.39-.472.697-.472s.583.187.697.472l.523 1.308 1.308.523c.285.114.472.39.472.697z"/></svg>