<svg id="Layer_1" viewBox="0 0 24 24" xmlns="http://www.w3.org/2000/svg" data-name="Layer 1"><path d="m12 12c3.309 0 6-2.691 6-6s-2.691-6-6-6-6 2.691-6 6 2.691 6 6 6zm0-10c2.206 0 4 1.794 4 4s-1.794 4-4 4-4-1.794-4-4 1.794-4 4-4zm9 19v2c0 .552-.448 1-1 1s-1-.448-1-1v-2c0-1.824-.769-3.817-1.869-4.849-.042-.039-.087-.052-.131-.073v6.922c0 .552-.448 1-1 1s-1-.448-1-1v-5.158l-2 2.508v2.65c0 .552-.448 1-1 1s-1-.448-1-1v-2.651l-2-2.516v5.167c0 .552-.448 1-1 1s-1-.448-1-1v-6.926c-.042.021-.084.033-.124.07-1.104 1.031-1.876 3.028-1.876 4.855v2c0 .552-.448 1-1 1s-1-.448-1-1v-2c0-2.413.986-4.893 2.511-6.318.505-.471 1.167-.716 1.863-.679.7.033 1.368.353 1.832.877l2.795 3.515 2.769-3.471c.5-.564 1.169-.883 1.87-.915.689-.03 1.355.211 1.859.683 1.519 1.424 2.501 3.9 2.501 6.308z"/></svg>