<svg id="Layer_1" viewBox="0 0 24 24" xmlns="http://www.w3.org/2000/svg" data-name="Layer 1"><path d="m10.5 11.5c0-.828.672-1.5 1.5-1.5s1.5.672 1.5 1.5-.672 1.5-1.5 1.5-1.5-.672-1.5-1.5zm1.5-3.5c.828 0 1.5-.672 1.5-1.5s-.672-1.5-1.5-1.5-1.5.672-1.5 1.5.672 1.5 1.5 1.5zm0-5c.828 0 1.5-.672 1.5-1.5s-.672-1.5-1.5-1.5-1.5.672-1.5 1.5.672 1.5 1.5 1.5zm-2.79 13.844c1.467 1.531 4.111 1.531 5.577.003l5.181-5.137c.392-.389.395-1.022.006-1.414-.388-.392-1.022-.394-1.414-.006l-5.184 5.14c-.735.736-2.014.739-2.755-.003l-5.181-5.137c-.393-.389-1.026-.387-1.414.006-.389.392-.386 1.025.006 1.414zm13.766-3.549c-.39-.392-1.022-.395-1.414-.004l-8.186 8.139c-.735.736-2.015.738-2.754-.002l-8.185-8.137c-.392-.39-1.024-.387-1.414.004-.39.392-.388 1.025.004 1.414l8.183 8.135c1.468 1.531 4.111 1.531 5.578.002l8.184-8.137c.392-.39.394-1.022.004-1.414z"/></svg>