<svg id="Layer_1" viewBox="0 0 24 24" xmlns="http://www.w3.org/2000/svg" data-name="Layer 1"><path d="m13 10h5.813c.634.016 1.142-.638.969-1.248-.311-1.216-.944-2.328-1.833-3.217l-3.485-3.484c-1.322-1.322-3.08-2.051-4.95-2.051h-4.514c-2.757 0-5 2.243-5 5v14c0 2.757 2.243 5 5 5h4.5c.552 0 1-.447 1-1s-.448-1-1-1h-4.5c-1.654 0-3-1.346-3-3v-14c0-1.654 1.346-3 3-3h4.515c.163 0 .325.008.485.023v4.977c0 1.654 1.346 3 3 3zm-1-7.341c.379.218.732.487 1.05.806l3.485 3.484c.314.314.584.668.803 1.051h-4.338c-.551 0-1-.448-1-1zm5.5 8.341c-3.59 0-6.5 2.91-6.5 6.5s2.91 6.5 6.5 6.5 6.5-2.91 6.5-6.5-2.91-6.5-6.5-6.5zm3.191 9.653c-.812.83-1.939 1.347-3.191 1.347-1.228 0-2.327-.507-3.133-1.311l-.695.695c-.248.248-.672.072-.672-.278v-2.526c0-.32.259-.579.579-.579h2.526c.351 0 .526.424.278.672l-.607.607c.449.438 1.048.721 1.723.721s1.289-.275 1.738-.716c.171-.168.473-.284.774-.284.862 0 1.281 1.037.679 1.653zm1.309-4.232c0 .32-.259.579-.579.579h-2.526c-.351 0-.526-.424-.278-.672l.607-.607c-.449-.438-1.048-.721-1.723-.721s-1.289.275-1.738.716c-.171.168-.438.284-.774.284-.862 0-1.281-1.037-.679-1.653.812-.83 1.939-1.347 3.191-1.347 1.228 0 2.327.506 3.133 1.311l.695-.695c.248-.248.672-.072.672.278v2.526z"/></svg>