<svg id="Layer_1" viewBox="0 0 24 24" xmlns="http://www.w3.org/2000/svg" data-name="Layer 1"><path d="m18.018 3.008c-1.448-1.868-3.518-3.008-6.018-3.008-2.36 0-4.572 1.128-6 3-3.309 0-6 2.691-6 6 0 1.857.848 3.519 2.177 4.621l.672 5.941c.287 2.53 2.422 4.438 4.968 4.438h8.364c2.547 0 4.683-1.908 4.968-4.438l.673-5.942c1.329-1.101 2.178-2.764 2.178-4.621 0-3.304-2.698-5.992-5.982-5.992zm-10.201 18.992c-1.527 0-2.809-1.145-2.981-2.663l-.518-4.582c.534.156 1.098.244 1.682.244.72 0 1.416-.128 2.08-.374l.369 7.374h-.632zm5.731 0h-3.097l-.363-7.26c1.252.33 2.572.33 3.824 0l-.363 7.26zm5.614-2.662c-.171 1.518-1.452 2.662-2.98 2.662h-.63l.369-7.374c.663.246 1.359.374 2.079.374.584 0 1.148-.088 1.682-.244zm-1.162-6.338c-.619 0-1.213-.138-1.764-.409-.343-.169-.712-.254-1.08-.254-.326 0-.651.067-.955.201-1.394.614-3.007.615-4.401 0-.647-.284-1.39-.265-2.035.053-.552.271-1.146.409-1.765.409-2.206 0-4-1.794-4-4s1.794-4 4-4c1.075 0 1.542-.673 1.789-1.028 1.049-1.253 2.584-1.972 4.211-1.972 1.641 0 3.184.729 4.283 2.062.221.28.737.938 1.717.938 2.206 0 4 1.794 4 4s-1.794 4-4 4z"/></svg>