<?xml version="1.0" encoding="UTF-8"?>
<svg xmlns="http://www.w3.org/2000/svg" id="Layer_1" data-name="Layer 1" viewBox="0 0 24 24">
  <path d="M23.838,12.004c-.229-.579-.749-.987-1.358-1.065-1.77-.194-3.061-1.287-4.643-2.491h0c-1.19-.901-2.023-1.448-3.557-1.448-.918,0-1.735,.397-2.28,.749-.545-.352-1.362-.749-2.28-.749-1.669-.026-2.659,.756-3.933,1.733-1.563,1.19-2.596,1.977-4.269,2.201-1.293,.129-2,1.799-1.121,2.781,1.365,1.632,3.899,3.285,6.103,3.285,3.198,0,4.691-1.819,5.5-2.838,.809,1.019,2.302,2.838,5.5,2.838,2.295,0,4.755-1.704,6.069-3.287,.394-.475,.497-1.129,.269-1.709Zm-6.338,2.996c-2.475-.037-3.287-1.297-4.16-2.365-.657-.84-2.024-.839-2.681,0-.872,1.067-1.686,2.328-4.159,2.364-1.355,0-3.096-1.044-4.203-2.168,1.9-.374,3.151-1.327,4.702-2.508,.993-.787,1.865-1.409,2.721-1.324,.653,0,1.378,.531,1.599,.732,.383,.355,.977,.353,1.359,.003,.225-.205,.949-.735,1.603-.735,.862-.097,1.801,.592,2.784,1.373,1.515,1.156,2.739,2.091,4.607,2.459-1.099,1.123-2.826,2.167-4.172,2.167Z"/>
</svg>
