<svg id="Layer_1" viewBox="0 0 24 24" xmlns="http://www.w3.org/2000/svg" data-name="Layer 1"><path d="m17.5 0c-3.584 0-6.5 2.916-6.5 6.5s2.916 6.5 6.5 6.5 6.5-2.916 6.5-6.5-2.916-6.5-6.5-6.5zm0 11c-2.481 0-4.5-2.019-4.5-4.5s2.019-4.5 4.5-4.5 4.5 2.019 4.5 4.5-2.019 4.5-4.5 4.5zm-5.521 11.797c.112.541-.235 1.07-.776 1.183-.527.112-1.072-.232-1.182-.776-.385-1.856-2.076-3.203-4.021-3.203s-3.636 1.347-4.021 3.203c-.112.54-.645.882-1.182.776-.541-.112-.889-.642-.776-1.183.576-2.779 3.09-4.797 5.979-4.797s5.403 2.018 5.979 4.797zm-5.979-6.797c2.206 0 4-1.794 4-4s-1.794-4-4-4-4 1.794-4 4 1.794 4 4 4zm0-6c1.103 0 2 .897 2 2s-.897 2-2 2-2-.897-2-2 .897-2 2-2zm14.242-4.499c.168.168.257.393.257.621.008.473-.404.886-.879.877h-1.121v2c0 .552-.448 1-1 1s-1-.448-1-1v-2h-1.121c-.355 0-.676-.213-.812-.541-.138-.329-.062-.706.19-.958l1.5-1.5c.685-.685 1.8-.685 2.485 0l1.5 1.5z"/></svg>