<svg id="Layer_1" viewBox="0 0 24 24" xmlns="http://www.w3.org/2000/svg" data-name="Layer 1"><path d="m10.5 23c0 .553-.447 1-1 1h-4.5c-2.757 0-5-2.243-5-5v-9.276c0-1.665.824-3.214 2.203-4.145l7-4.724c1.699-1.146 3.895-1.146 5.594 0l7 4.724c.653.442 1.199 1.039 1.579 1.726.267.483.091 1.092-.394 1.358-.481.268-1.092.09-1.358-.393-.227-.412-.554-.769-.946-1.034l-7-4.723c-1.02-.688-2.336-.688-3.355 0l-7.001 4.724c-.828.558-1.322 1.488-1.322 2.487v9.276c0 1.654 1.346 3 3 3h4.5c.553 0 1 .447 1 1zm7.5-5.5c-.828 0-1.5.672-1.5 1.5s.672 1.5 1.5 1.5 1.5-.672 1.5-1.5-.672-1.5-1.5-1.5zm6 .5v2c0 2.206-1.794 4-4 4h-4c-2.206 0-4-1.794-4-4v-2c0-1.474.81-2.75 2-3.444v-1.556c0-2.206 1.794-4 4-4 1.136 0 2.223.486 2.981 1.333.368.411.333 1.043-.078 1.412-.41.369-1.042.335-1.412-.078-.38-.424-.923-.667-1.491-.667-1.103 0-2 .897-2 2v1h4c2.206 0 4 1.794 4 4zm-2 0c0-1.103-.897-2-2-2h-4c-1.103 0-2 .897-2 2v2c0 1.103.897 2 2 2h4c1.103 0 2-.897 2-2z"/></svg>