<svg id="Layer_1" viewBox="0 0 24 24" xmlns="http://www.w3.org/2000/svg" data-name="Layer 1"><path d="m24 6v10.101c0 2.137-.832 4.146-2.343 5.656l-1.95 1.95c-.391.391-1.023.391-1.414 0s-.391-1.023 0-1.414l1.95-1.95c1.133-1.133 1.757-2.64 1.757-4.242v-10.101c0-.551-.448-1-1-1s-1 .449-1 1v8c-.035.683-.225 1.368-.701 1.922l-2.578 2.685c-.196.204-.458.307-.721.307-.25 0-.499-.093-.693-.279-.397-.383-.41-1.016-.027-1.414l2.533-2.634c.282-.352.241-.912-.066-1.254-.349-.407-1.016-.446-1.407-.078l-3.163 2.911c.531 1.001.824 2.124.824 3.276v3.56c0 .553-.447 1-1 1s-1-.447-1-1v-3.56c0-1.394-.589-2.735-1.614-3.679l-2.734-2.517c-.384-.356-1.055-.318-1.396.086-.329.367-.339.928-.022 1.306l2.571 2.67c.383.398.37 1.031-.027 1.414-.399.383-1.031.37-1.414-.027l-2.616-2.721c-.506-.582-.686-1.277-.746-1.973v-8.001c0-.551-.448-1-1-1s-1 .449-1 1v10.101c0 1.603.624 3.109 1.757 4.242l1.95 1.95c.391.391.391 1.023 0 1.414s-1.023.391-1.414 0l-1.95-1.95c-1.511-1.511-2.343-3.52-2.343-5.656v-10.101c0-1.654 1.346-3 3-3s3 1.346 3 3v5.184c.266-.094.542-.164.832-.18.789-.047 1.566.226 2.163.76.128.121 2.969 2.717 2.991 2.777l3.009-2.768c.605-.542 1.38-.811 2.173-.769.29.016.566.086.832.18v-5.184c0-1.654 1.346-3 3-3s3 1.346 3 3zm-15.872.476v-3.281c0-.506.252-.98.671-1.263l2.477-1.671c.515-.348 1.19-.348 1.705 0l2.476 1.671c.42.283.671.757.671 1.263v3.281c0 .842-.682 1.524-1.524 1.524h-4.952c-.842 0-1.524-.682-1.524-1.524zm3-.976c0 .276.224.5.5.5h1c.276 0 .5-.224.5-.5v-1c0-.276-.224-.5-.5-.5h-1c-.276 0-.5.224-.5.5z"/></svg>