<svg id="Layer_1" viewBox="0 0 24 24" xmlns="http://www.w3.org/2000/svg" data-name="Layer 1"><path d="m9.5 2.5c0-1.381 1.119-2.5 2.5-2.5s2.5 1.119 2.5 2.5-1.119 2.5-2.5 2.5-2.5-1.119-2.5-2.5zm-.5 8.5c.552 0 1-.448 1-1 0-1.103.897-2 2-2s2 .897 2 2c0 .552.448 1 1 1s1-.448 1-1c0-2.206-1.794-4-4-4s-4 1.794-4 4c0 .552.448 1 1 1zm-6-2c1.381 0 2.5-1.119 2.5-2.5s-1.119-2.5-2.5-2.5-2.5 1.119-2.5 2.5 1.119 2.5 2.5 2.5zm6 11.5v2.5c0 .553-.448 1-1 1s-1-.447-1-1v-2.5c0-.275-.224-.5-.5-.5h-3.5c-1.654 0-3-1.346-3-3v-4c0-1.654 1.346-3 3-3s3 1.346 3 3v5h.5c1.378 0 2.5 1.121 2.5 2.5zm-5-2.5v-5c0-.551-.449-1-1-1s-1 .449-1 1v4c0 .552.449 1 1 1zm17-9c1.381 0 2.5-1.119 2.5-2.5s-1.119-2.5-2.5-2.5-2.5 1.119-2.5 2.5 1.119 2.5 2.5 2.5zm3 4v4c0 1.654-1.346 3-3 3h-3.5c-.276 0-.5.225-.5.5v2.5c0 .553-.448 1-1 1s-1-.447-1-1v-2.5c0-1.379 1.122-2.5 2.5-2.5h.5v-5c0-1.654 1.346-3 3-3s3 1.346 3 3zm-2 0c0-.551-.449-1-1-1s-1 .449-1 1v5h1c.551 0 1-.448 1-1zm-14 2h8c.552 0 1-.447 1-1s-.448-1-1-1h-8c-.552 0-1 .447-1 1s.448 1 1 1zm-4 7h-3c-.552 0-1 .447-1 1s.448 1 1 1h3c.552 0 1-.447 1-1s-.448-1-1-1zm19 0h-3c-.552 0-1 .447-1 1s.448 1 1 1h3c.552 0 1-.447 1-1s-.448-1-1-1z"/></svg>