<svg id="Layer_1" viewBox="0 0 24 24" xmlns="http://www.w3.org/2000/svg" data-name="Layer 1"><path d="m3.707 7.449c-.391.391-1.023.391-1.414 0s-.391-1.024 0-1.414l1.036-1.035h-2.329c-.552 0-1-.448-1-1s.448-1 1-1h2.328l-1.035-1.035c-.391-.39-.391-1.023 0-1.414.39-.391 1.023-.391 1.414 0l1.475 1.475c1.088 1.089 1.088 2.86 0 3.949l-1.476 1.475zm19.293-4.449h-2.328l1.035-1.035c.391-.391.391-1.023 0-1.414s-1.023-.391-1.414 0l-1.475 1.475c-1.089 1.089-1.089 2.86 0 3.949l1.475 1.475c.391.391 1.023.391 1.414 0s.391-1.023 0-1.414l-1.035-1.035h2.328c.553 0 1-.448 1-1s-.447-1-1-1zm-15 1c0-2.206 1.794-4 4-4s4 1.794 4 4-1.794 4-4 4-4-1.794-4-4zm2 0c0 1.103.897 2 2 2s2-.897 2-2-.897-2-2-2-2 .897-2 2zm8.73 14.541-3.73-1.258v-5.175c0-1.516-1.076-2.834-2.503-3.066-.878-.144-1.769.103-2.439.674-.672.571-1.057 1.404-1.057 2.286v7.563s-1.032-.815-1.04-.821c-1.211-1.052-3.048-.973-4.151.208-1.13 1.208-1.066 3.11.13 4.23l.558.538c.186.18.435.28.694.28.9 0 1.342-1.095.694-1.72l-.568-.548c-.403-.378-.424-1.013-.046-1.416.375-.402 1.008-.421 1.41-.048.01.009 1.771 1.415 1.771 1.415.476.377 1.112.45 1.66.186s.889-.806.889-1.415v-8.455c-.011-.606.573-1.101 1.175-.986.462.076.825.556.825 1.093v5.893c0 .429.273.811.681.948l4.379 1.477c1.111.416 1.873 1.45 1.942 2.633.031.532.472.942.997.942.02 0 .039 0 .06-.001.551-.032.972-.505.939-1.057-.115-1.973-1.385-3.696-3.268-4.401z"/></svg>