<svg id="Layer_1" viewBox="0 0 24 24" xmlns="http://www.w3.org/2000/svg" data-name="Layer 1"><path d="m21.812 17.893c.73-.709 1.188-1.698 1.188-2.794 0-2.85-2.028-5.325-4.823-5.883l-3.874-.775c-.84-.168-1.479-.852-1.588-1.669l-.419-4.195c-.118-.825-.579-1.569-1.264-2.043-.686-.474-1.544-.642-2.413-.447l-4.709 1.333c-1.714.485-2.91 2.068-2.91 3.849v9.731c0 1.125.47 2.139 1.22 2.866-.741.642-1.22 1.579-1.22 2.634 0 1.93 1.57 3.5 3.5 3.5.98 0 1.864-.407 2.5-1.058.636.651 1.52 1.058 2.5 1.058s1.864-.407 2.5-1.058c.636.651 1.52 1.058 2.5 1.058s1.864-.407 2.5-1.058c.636.651 1.52 1.058 2.5 1.058 1.93 0 3.5-1.57 3.5-3.5 0-1.04-.465-1.966-1.188-2.607zm-18.812-12.624c0-.891.599-1.682 1.455-1.924l4.653-1.32c.522-.142 1.137.277 1.202.792l.218 2.183h-2.529c-.553 0-1 .448-1 1s.447 1 1 1h2.729c.042.322.133.624.246.916l-2.339 1.422c-.472.287-.622.902-.335 1.374.289.476.91.619 1.374.335l2.466-1.499c.261.218.553.398.866.544l-1.375 2.413c-.273.48-.105 1.09.374 1.364.471.271 1.089.111 1.364-.374l1.638-2.874 2.777.556c1.863.373 3.216 2.022 3.216 3.923 0 1.048-.853 1.9-1.9 1.9h-14.1c-1.103 0-2-.897-2-2zm1.5 16.731c-.827 0-1.5-.673-1.5-1.5s.673-1.5 1.5-1.5 1.5.673 1.5 1.5-.673 1.5-1.5 1.5zm5 0c-.827 0-1.5-.673-1.5-1.5s.673-1.5 1.5-1.5 1.5.673 1.5 1.5-.673 1.5-1.5 1.5zm5 0c-.827 0-1.5-.673-1.5-1.5s.673-1.5 1.5-1.5 1.5.673 1.5 1.5-.673 1.5-1.5 1.5zm5 0c-.827 0-1.5-.673-1.5-1.5s.673-1.5 1.5-1.5 1.5.673 1.5 1.5-.673 1.5-1.5 1.5z"/></svg>