<svg id="Layer_1" viewBox="0 0 24 24" xmlns="http://www.w3.org/2000/svg" data-name="Layer 1"><path d="m8.891 21.926c-.449.049-.917.074-1.391.074-3.306 0-5.5-1.204-5.5-2v-1.231c1.349.765 3.28 1.231 5.5 1.231.552 0 1-.447 1-1s-.448-1-1-1c-3.306 0-5.5-1.204-5.5-2v-1.231c1.349.765 3.28 1.231 5.5 1.231.552 0 1-.447 1-1s-.448-1-1-1c-3.306 0-5.5-1.204-5.5-2v-1.231c1.349.765 3.28 1.231 5.5 1.231.732 0 1.454-.053 2.147-.155.546-.081.923-.59.842-1.137-.082-.547-.591-.92-1.137-.842-.596.089-1.219.134-1.853.134-3.306 0-5.5-1.204-5.5-2v-1.231c1.349.765 3.28 1.231 5.5 1.231s4.151-.466 5.5-1.231v.731c0 .553.447 1 1 1s1-.447 1-1v-3.5c.001-2.28-3.223-4-7.499-4s-7.5 1.72-7.5 4v16c0 2.28 3.224 4 7.5 4 .546 0 1.088-.029 1.609-.086.549-.061.945-.554.885-1.103-.061-.55-.562-.95-1.103-.886zm-1.391-19.926c3.306 0 5.5 1.204 5.5 2s-2.194 2-5.5 2-5.5-1.204-5.5-2 2.194-2 5.5-2zm9.5 8c-3.866 0-7 3.134-7 7s3.134 7 7 7 7-3.134 7-7-3.134-7-7-7zm1.315 11.5h-.315c0 .552-.448 1-1 1s-1-.448-1-1c-1.113 0-2.087-.61-2.605-1.513-.38-.662.11-1.487.874-1.487.359 0 .686.196.869.506.174.296.495.494.862.494h2.35c.334 0 .629-.251.649-.585.02-.324-.206-.602-.52-.655l-3.286-.548c-1.277-.213-2.203-1.312-2.192-2.61.011-1.451 1.234-2.603 2.685-2.603h.315c0-.552.448-1 1-1s1 .448 1 1c1.113 0 2.087.61 2.605 1.513.38.662-.11 1.487-.874 1.487-.359 0-.686-.196-.869-.506-.174-.295-.495-.494-.862-.494h-2.376c-.36 0-.649.305-.622.67.021.292.255.525.544.574l3.261.544c1.277.213 2.203 1.312 2.193 2.61-.011 1.451-1.234 2.603-2.685 2.603z"/></svg>