<svg id="Layer_1" viewBox="0 0 24 24" xmlns="http://www.w3.org/2000/svg" data-name="Layer 1"><path d="m8 20c-.551 0-1-.448-1-1s.449-1 1-1h.059c-.036-.329-.059-.662-.059-1 0-.324.022-.642.056-.956.188-1.768.884-3.383 1.944-4.695v-.349c0-2.757-2.243-5-5-5h-.375c.306-.38.793-.724 1.56-1h8.627c.761.275 1.241.63 1.55 1h-.361c-2.495 0-4.551 1.843-4.923 4.235 1.583-1.388 3.652-2.235 5.923-2.235h.896c.609.015 1.111-.593.982-1.188-.144-.749-.439-1.399-.866-1.957 1.715-.451 2.989-2 2.989-3.855 0-.553-.448-1-1-1s-1 .447-1 1c0 1.103-.897 2-2 2h-13.002c-1.103 0-2-.897-2-2 0-.553-.448-1-1-1s-1 .447-1 1c0 1.858 1.279 3.409 2.998 3.857-.435.579-.73 1.26-.871 2.062-.205 1.161-.062 2.435.414 3.685l2.73 7.166c-.17.376-.271.791-.271 1.23 0 1.654 1.346 3 3 3h1.518c-.412-.616-.743-1.289-.995-2zm-3.59-10.109c-.246-.644-.365-1.285-.368-1.891h.958c.364 0 .709.075 1.032.194-.021.099-.032.201-.032.306 0 .828.672 1.5 1.5 1.5.105 0 .207-.011.306-.032.119.323.194.668.194 1.032v5c-.416 0-.812.085-1.172.239l-2.419-6.348zm15.332 5.61c.253.252.326.632.19.958-.136.328-.456.541-.812.541h-1.121v2c0 .553-.448 1-1 1s-1-.447-1-1v-2h-1.121c-.355 0-.676-.213-.812-.541-.138-.329-.062-.706.19-.958l1.5-1.5c.685-.685 1.8-.685 2.485 0l1.5 1.5zm-2.742-5.501c-3.86 0-7 3.141-7 7s3.14 7 7 7 7-3.141 7-7-3.14-7-7-7zm0 12c-2.757 0-5-2.243-5-5s2.243-5 5-5 5 2.243 5 5-2.243 5-5 5z"/></svg>