<svg id="Layer_1" viewBox="0 0 24 24" xmlns="http://www.w3.org/2000/svg" data-name="Layer 1"><path d="m23.999 5.614c0-1.354-.909-2.54-2.216-2.893l-9.782-2.644c-1.293-.334-2.609.454-2.927 1.752-.232.749.182 1.553.935 1.776v1.394c0 .552.447 1 .999 1h6.994v1.999h-4.996l1.998 1.999h5.999c1.656 0 2.998-1.344 2.997-3.001v-1.382zm-3.002 2.384c-.552 0-.999-.448-.999-1s.447-1 .999-1 .999.448.999 1-.447 1-.999 1zm-9.852.879c-.566-.567-1.319-.879-2.12-.879h-2.646c-.801 0-1.554.312-2.119.879l-3.092 3.093c-1.558 1.56-1.558 4.096 0 5.655l5.201 5.204c.755.756 1.758 1.172 2.827 1.172s2.07-.416 2.826-1.172l3.708-3.71c.755-.755 1.171-1.759 1.171-2.827s-.416-2.073-1.171-2.828l-4.584-4.586zm3.171 8.828-3.708 3.71c-.78.781-2.049.778-2.827 0l-5.201-5.204c-.779-.78-.779-2.048 0-2.828l3.043-3.043 1.227 1.227c.555.556 1.456.556 2.011 0l1.073-1.074 4.382 4.383c.378.378.585.88.585 1.414s-.208 1.036-.585 1.414z"/></svg>