<svg id="Layer_1" viewBox="0 0 24 24" xmlns="http://www.w3.org/2000/svg" data-name="Layer 1"><path d="m9 19c.552 0 1 .448 1 1s-.448 1-1 1h-2c-.552 0-1-.448-1-1s.448-1 1-1zm15-11.499v3.999c0 1.381-1.119 2.5-2.5 2.5h-4l-2.826 1.827c-.723.463-1.672-.057-1.672-.915l-.002-7.41c0-1.375 1.125-2.501 2.5-2.501h6c1.381 0 2.5 1.119 2.5 2.5zm-2 2.499h-1.737l-1.242.842c-.315.21-.726.21-1.041 0l-1.242-.842h-1.737c0 1.105.895 2 2 2h3c1.105 0 2-.895 2-2zm0-1c0-1.105-.895-2-2-2h-3c-1.105 0-2 .895-2 2zm-7 9c-.552 0-1 .448-1 1 0 1.654-1.346 3-3 3h-6c-1.654 0-3-1.346-3-3v-1h8c.552 0 1-.448 1-1s-.448-1-1-1h-8v-11c0-1.654 1.346-3 3-3h6c.916 0 1.769.41 2.342 1.125.345.431.975.499 1.406.155.431-.345.5-.975.155-1.406-.955-1.191-2.377-1.875-3.903-1.875h-6c-2.757.001-5 2.244-5 5.001v14c0 2.757 2.243 5 5 5h6c2.757 0 5-2.243 5-5 0-.552-.448-1-1-1z"/></svg>