<svg id="Layer_1" viewBox="0 0 24 24" xmlns="http://www.w3.org/2000/svg" data-name="Layer 1"><path d="m12 3c0-1.657 1.343-3 3-3s3 1.343 3 3c0-1.657 1.343-3 3-3s3 1.343 3 3c0 2.631-3.391 5.403-5.074 6.688-.546.417-1.306.417-1.851 0-1.684-1.284-5.074-4.057-5.074-6.688zm11 7c-.552 0-1 .447-1 1v8c0 1.654-1.346 3-3 3h-14c-1.654 0-3-1.346-3-3v-9.929l6.464 6.464c.972.972 2.247 1.459 3.526 1.459 1.288 0 2.579-.493 3.569-1.484l1.705-1.828c.376-.403.354-1.036-.049-1.413-.404-.376-1.036-.356-1.414.05l-1.681 1.803c-1.17 1.17-3.073 1.17-4.243 0l-7.516-7.518c.504-.949 1.492-1.604 2.639-1.604h4c.552 0 1-.447 1-1s-.448-1-1-1h-4c-2.757 0-5 2.243-5 5v11c0 2.757 2.243 5 5 5h14c2.757 0 5-2.243 5-5v-8c0-.553-.448-1-1-1z"/></svg>