<svg id="Layer_1" viewBox="0 0 24 24" xmlns="http://www.w3.org/2000/svg" data-name="Layer 1"><path d="m23.587 12.019c.345-.443.483-1.009.378-1.564-.11-.585-.474-1.083-.997-1.366-.793-.433-1.618-.642-2.433-.64.566-.57.988-1.298 1.242-2.148.172-.575.077-1.189-.262-1.683-.316-.462-.807-.762-1.357-.833-.069-.558-.372-1.055-.839-1.373-.495-.339-1.107-.434-1.681-.256-.843.257-1.556.675-2.121 1.244-.001-.801-.232-1.581-.646-2.358-.283-.531-.783-.899-1.373-1.01-.532-.102-1.066.032-1.497.345-.432-.312-.965-.444-1.497-.345-.59.11-1.091.479-1.373 1.01-.414.777-.624 1.578-.626 2.379-.565-.568-1.299-1.008-2.142-1.266-.573-.174-1.186-.082-1.681.257-.468.318-.77.815-.839 1.373-.551.071-1.041.371-1.357.833-.338.493-.434 1.107-.262 1.683.254.85.676 1.577 1.242 2.148-.842 0-1.641.207-2.432.639-.524.284-.888.782-.998 1.367-.104.554.033 1.118.378 1.563-.345.443-.483 1.009-.378 1.564.11.585.474 1.083.997 1.366.715.39 1.589.637 2.352.677-.566.571-.981 1.292-1.235 2.142-.172.575-.077 1.189.261 1.683.316.462.806.762 1.358.834.069.558.372 1.054.839 1.372.495.339 1.108.432 1.68.257.843-.256 1.643-.763 2.209-1.333.001.799.212 1.599.626 2.378.283.53.784.898 1.374 1.009.122.023.243.034.364.034.412 0 .808-.137 1.142-.381.335.245.731.381 1.142.381.121 0 .242-.011.364-.034.59-.11 1.091-.479 1.375-1.01.414-.778.624-1.578.625-2.377.029.03.057.06.085.088.566.57 1.28.989 2.122 1.245.574.175 1.186.082 1.681-.257.467-.318.77-.814.839-1.372.551-.071 1.042-.372 1.358-.834.338-.494.433-1.107.262-1.683-.254-.85-.669-1.57-1.236-2.142.806 0 1.573-.252 2.35-.676.524-.284.888-.782.998-1.367.104-.554-.033-1.118-.378-1.563zm-12.751-10.029c.075.064.326.387.394.456.21.215.492.305.771.29.278.015.56-.075.77-.29.088-.091.3-.413.334-.463.26.488.392.975.392 1.446 0 .828-.295 2.359-.808 4.207l-.162.406c-.173-.023-.347-.042-.526-.042s-.349.03-.522.053l-.166-.417c-.513-1.847-.808-3.379-.808-4.207 0-.472.132-.958.332-1.439zm-7.417 11.598c-.468 0-.95-.133-1.432-.337.141-.165.303-.35.486-.542.37-.387.369-.997-.001-1.383-.183-.19-.345-.374-.486-.48.482-.263.964-.396 1.433-.396.827 0 2.362.301 4.213.826l.424.169c-.026.183-.056.365-.056.556 0 .199.031.39.059.581l-.477.195c-1.829.516-3.345.812-4.162.812zm6.05 1.941c-.973 1.763-1.876 3.12-2.481 3.73-.33.332-.762.581-1.237.778-.018-.216-.031-.46-.036-.723-.011-.537-.445-.97-.982-.98-.258-.006-.497-.017-.669.004.159-.531.407-.971.738-1.304.583-.587 1.875-1.465 3.548-2.412l.491-.201c.219.285.474.539.761.757l-.131.349zm-.647-5.931-.438-.174c-1.654-.938-2.931-1.808-3.507-2.388-.332-.334-.58-.773-.778-1.265.213-.018.454-.031.713-.036.537-.012.969-.444.979-.981.005-.262.018-.505-.013-.683.524.16.957.409 1.286.74.585.589 1.456 1.891 2.394 3.573l.166.417c-.304.227-.572.495-.802.797zm4.353 12.413c-.091-.078-.362-.401-.416-.456-.207-.213-.485-.304-.76-.293-.275-.012-.552.08-.76.293-.064.065-.303.387-.356.463-.259-.488-.391-.975-.391-1.446 0-.848.305-2.418.837-4.311l.118-.315c.182.025.362.056.551.056s.374-.018.556-.043l.114.302c.532 1.893.837 3.463.837 4.311 0 .472-.132.958-.332 1.439zm-1.175-8.01c-1.103 0-2-.897-2-2s.897-2 2-2 2 .897 2 2-.897 2-2 2zm2.542-5.616c.938-1.682 1.809-2.984 2.393-3.572.33-.332.762-.581 1.238-.778.017.215.03.458.035.72.01.537.442.97.979.981.259.005.499.019.673-.004-.159.531-.407.971-.739 1.305-.576.58-1.854 1.45-3.507 2.388l-.433.172c-.23-.303-.5-.572-.805-.799l.165-.413zm4.725 9.952c-.537.01-.971.442-.982.98-.005.263-.019.507.01.684-.522-.158-.954-.407-1.284-.739-.605-.61-1.507-1.968-2.481-3.73l-.128-.341c.288-.218.542-.476.763-.762l.485.198c1.673.947 2.965 1.825 3.547 2.411.332.334.58.773.779 1.266-.212.018-.451.031-.709.035zm1.313-4.747c-.818 0-2.333-.296-4.162-.812l-.472-.193c.028-.191.054-.384.054-.583 0-.191-.022-.375-.048-.559l.415-.165c1.852-.525 3.386-.826 4.213-.826.468 0 .95.133 1.432.337-.14.165-.302.349-.485.539-.371.386-.371.996-.001 1.383.183.192.346.377.487.483-.482.263-.964.396-1.433.396z"/></svg>