<svg id="Layer_1" viewBox="0 0 24 24" xmlns="http://www.w3.org/2000/svg" data-name="Layer 1"><path d="m22.686 5.103-2.893-1.446c-.591-2.102-2.505-3.656-4.793-3.656h-6c-2.288 0-4.202 1.554-4.793 3.656l-2.893 1.447c-.777.387-1.272 1.168-1.292 2.036-.021.868.438 1.671 1.195 2.095l2.783 1.558v8.206c0 2.757 2.243 5 5 5h6c2.757 0 5-2.243 5-5v-8.205l2.783-1.559c.757-.424 1.216-1.227 1.195-2.096-.021-.868-.516-1.649-1.292-2.037zm-13.686-3.103h6c1.654 0 3 1.346 3 3v4.622l-4.389 2.458c-.993.557-2.228.556-3.22 0l-4.391-2.459v-4.621c0-1.654 1.346-3 3-3zm-6.806 5.49c-.155-.087-.175-.228-.173-.303.001-.077.028-.216.187-.295l1.792-.896v2.506l-1.806-1.011zm12.806 14.51h-6c-1.654 0-3-1.346-3-3v-1h12v1c0 1.654-1.346 3-3 3zm3-6h-12v-4.087l3.414 1.912c.798.447 1.692.67 2.587.67s1.79-.224 2.588-.67l3.411-1.91v4.086zm3.806-8.51-1.806 1.011v-2.506l1.792.896c.159.079.186.219.188.295s-.019.217-.173.304zm-12.132 1.966 1.125.66c.742.435 1.662.434 2.404 0l1.124-.66c.724-.425 1.173-1.21 1.173-2.049v-1.315c0-.839-.45-1.624-1.173-2.049l-1.125-.66c-.741-.435-1.662-.434-2.404 0l-1.124.66c-.724.425-1.173 1.21-1.173 2.049v1.315c0 .839.45 1.624 1.173 2.049zm3.827-2.049c0 .133-.071.257-.186.324l-1.123.659c-.118.069-.265.069-.381 0l-1.124-.66c-.115-.067-.186-.191-.186-.324v-1.315c0-.101.051-.189.122-.259l.682.4c.43.252.962.252 1.392 0l.682-.4c.071.07.122.158.122.259v1.315zm.5 12.592c0 .552-.448 1-1 1h-2c-.552 0-1-.448-1-1s.448-1 1-1h2c.552 0 1 .448 1 1z"/></svg>