<svg id="Layer_1" viewBox="0 0 24 24" xmlns="http://www.w3.org/2000/svg" data-name="Layer 1"><path d="m24 17c0 .552-.447 1-1 1-.074 0-.153-.009-.23-.014l-.568 3.502c-.244 1.457-1.488 2.511-2.961 2.511h-2.241c-.553 0-1-.448-1-1s.447-1 1-1h2.241c.491 0 .906-.352.987-.836l.596-3.678c-2.077-.903-4.36-3.025-5.226-6.485h-3.293c-.401 0-.781.176-1.04.482-.26.307-.371.71-.305 1.106l.335 2.266c.081.546-.296 1.055-.843 1.136-.535.082-1.057-.294-1.136-.843l-.333-2.248c-.16-.959.114-1.954.754-2.709.641-.756 1.576-1.189 2.566-1.189h8.272c.99 0 1.926.434 2.566 1.189.64.756.914 1.75.751 2.728l-.077.465c-.09.544-.607.909-1.149.824-.545-.09-.914-.605-.823-1.15l.077-.466c.066-.397-.045-.801-.305-1.107-.26-.307-.639-.482-1.04-.482h-2.878c1.093 3.463 3.956 5 5.3 5 .553 0 1 .448 1 1zm-19 5h-4c-.552 0-1 .448-1 1s.448 1 1 1h4c.552 0 1-.448 1-1s-.448-1-1-1zm8 0h-4c-.552 0-1 .448-1 1s.448 1 1 1h4c.553 0 1-.448 1-1s-.447-1-1-1zm-9-3c0 .552.448 1 1 1h4c.552 0 1-.448 1-1s-.448-1-1-1h-4c-.552 0-1 .448-1 1zm-1.843-2c.576.002 1.04-.493.999-1.067-.079-1.168-.131-2.498-.156-3.916.085-5.092.493-7.449.793-8.779.103-.458.479-.795.957-.859 1.217-.162 2.854-.334 5.735-.378 2.913.044 4.549.216 5.766.378.479.063.854.4.956.859.197.877.346 1.791.465 2.873.061.548.538.941 1.104.884.549-.061.944-.555.884-1.104-.128-1.158-.288-2.14-.502-3.092-.284-1.265-1.347-2.23-2.644-2.402-1.274-.17-2.983-.35-6.03-.396-3.016.046-4.725.226-5.999.396-1.297.172-2.36 1.137-2.645 2.402-.319 1.416-.753 3.909-.842 9.219.025 1.485.079 2.848.161 4.05.036.528.475.933.997.933z"/></svg>