<svg id="Layer_1" viewBox="0 0 24 24" xmlns="http://www.w3.org/2000/svg" data-name="Layer 1"><path d="m11.293 12.707c-.391-.39-.391-1.024 0-1.414l.782-.799c-.176-.666-.011-1.403.511-1.925l4.293-4.293-.576-.576c-.42-.42-.42-1.101 0-1.521.315-.315.798-.457 1.203-.271.697.319 1.548.191 2.122-.383l.88-.88c.705-.705 1.839-.877 2.648-.295 1.03.741 1.116 2.188.257 3.046l-.957.957c-.574.574-.701 1.425-.383 2.122.185.405.044.888-.271 1.203-.42.42-1.101.42-1.521 0l-.576-.576-4.293 4.293c-.39.391-.902.586-1.414.586-.172 0-.343-.031-.511-.075l-.782.799c-.391.391-1.024.391-1.414 0zm-2.258-.573c-.478-.277-1.09-.113-1.366.365-.438.756-.668 1.621-.668 2.499 0 2.757 2.243 5 5 5s5-2.243 5-5c0-.422-.053-.842-.157-1.247-.138-.534-.681-.858-1.218-.72-.535.138-.857.683-.72 1.218.062.243.094.495.094.749 0 1.654-1.346 3-3 3s-3-1.346-3-3c0-.527.138-1.045.4-1.498.276-.478.113-1.089-.365-1.366zm14.247.404c-.639-1.009-1.383-1.934-2.205-2.749-.393-.39-1.025-.387-1.414.007-.389.392-.386 1.025.007 1.414.734.735 1.402 1.55 1.914 2.385.557.866.556 1.944-.004 2.816-1.33 2.087-4.342 5.588-9.58 5.588s-8.251-3.504-9.584-5.595c-.556-.867-.556-1.944.004-2.816 1.105-1.734 3.581-4.747 7.744-5.44.545-.091.913-.606.822-1.15-.09-.544-.604-.916-1.15-.822-4.928.821-7.818 4.324-9.101 6.335-.986 1.536-.987 3.441-.004 4.971 1.551 2.435 5.077 6.518 11.269 6.518s9.717-4.081 11.264-6.511c.981-1.527.987-3.422.018-4.951z"/></svg>