<svg id="Layer_1" viewBox="0 0 24 24" xmlns="http://www.w3.org/2000/svg" data-name="Layer 1"><path d="m8.536 22.437c-.242.502-.85.702-1.336.463-3.766-1.828-6.199-5.715-6.199-9.899 0-2.88 1.122-5.498 2.94-7.461l-.672-.747c-.371.136-.795.208-1.268.208-.552 0-1-.448-1-1s.448-1 1-1c.785 0 1-.215 1-1 0-.552.448-1 1-1s1 .448 1 1c0 .541-.103 1.01-.28 1.417l.706.785c1.585-1.187 3.494-1.962 5.574-2.151v-1.052c0-.552.448-1 1-1s1 .448 1 1v1.051c2.08.189 3.989.963 5.574 2.151l.706-.785c-.177-.407-.28-.876-.28-1.417 0-.552.448-1 1-1s1 .448 1 1c0 .785.215 1 1 1 .552 0 1 .448 1 1s-.448 1-1 1c-.473 0-.897-.072-1.268-.208l-.672.747c1.818 1.963 2.94 4.58 2.94 7.461 0 .185-.004.367-.014.55-.027.553-.49.986-1.048.949-.552-.028-.977-.497-.949-1.049.007-.149.011-.299.011-.45 0-4.962-4.038-9-9-9s-9.001 4.038-9.001 9c0 3.478 1.944 6.581 5.073 8.101.497.241.704.84.462 1.336zm3.464-7.437c1.105 0 2-.895 2-2 0-.738-.405-1.376-1-1.723v-4.277c0-.552-.448-1-1-1s-1 .448-1 1v4.277c-.595.346-1 .984-1 1.723 0 1.105.895 2 2 2zm9.808 9h-9.616c-1.257 0-2.041-1.364-1.407-2.45l4.808-8.242c.629-1.078 2.186-1.078 2.814 0l4.808 8.242c.633 1.086-.15 2.45-1.407 2.45zm-3.808-2c0-.552-.448-1-1-1s-1 .448-1 1 .448 1 1 1 1-.448 1-1zm0-5.002c0-.552-.448-1-1-1s-1 .448-1 1v2.002c0 .552.448 1 1 1s1-.448 1-1z"/></svg>