<svg id="Layer_1" viewBox="0 0 24 24" xmlns="http://www.w3.org/2000/svg" data-name="Layer 1"><path d="m2 2.5c0-1.381 1.119-2.5 2.5-2.5s2.5 1.119 2.5 2.5-1.119 2.5-2.5 2.5-2.5-1.119-2.5-2.5zm5 7.5c-.552 0-1 .448-1 1v4h-2c-1.103 0-2-.897-2-2v-3c0-1.103.897-2 2-2h10c.553 0 1-.448 1-1s-.447-1-1-1h-10c-2.206 0-4 1.794-4 4v3c0 1.474.81 2.75 2 3.444v6.556c0 .552.448 1 1 1s1-.448 1-1v-6h2v6c0 .552.448 1 1 1s1-.448 1-1v-12c0-.552-.448-1-1-1zm12.5-10h-9.5c-.552 0-1 .448-1 1s.448 1 1 1h9.5c1.379 0 2.5 1.122 2.5 2.5v6c0 1.378-1.121 2.5-2.5 2.5h-8.5c-.552 0-1 .448-1 1s.448 1 1 1h3v2.277c-.595.346-1 .984-1 1.723 0 1.105.895 2 2 2s2-.895 2-2c0-.738-.405-1.376-1-1.723v-2.277h3.5c2.481 0 4.5-2.019 4.5-4.5v-6c0-2.481-2.019-4.5-4.5-4.5z"/></svg>