<svg id="Layer_1" viewBox="0 0 24 24" xmlns="http://www.w3.org/2000/svg" data-name="Layer 1"><path d="m13 11.264c1.135-.794 2.513-1.264 4-1.264s2.865.47 4 1.264c-1.551 1.085-2.638 2.781-2.92 4.736h-2.16c-.282-1.955-1.369-3.651-2.92-4.736zm5.08 6.736h-2.16c-.282 1.955-1.369 3.651-2.92 4.736 1.135.794 2.513 1.264 4 1.264s2.865-.47 4-1.264c-1.551-1.085-2.638-2.781-2.92-4.736zm-6.586-5.308c-.737.94-1.236 2.072-1.414 3.308h3.819c-.289-1.418-1.191-2.602-2.405-3.308zm-1.414 5.308c.178 1.236.677 2.367 1.414 3.308 1.214-.706 2.116-1.89 2.405-3.308zm8.92-18h-14c-2.757 0-5 2.243-5 5v1.004c-.003.581.502 1.047 1.081.996 1.106.021 2 .929 2 2.041s-.888 2.014-1.99 2.04c-.569-.063-1.103.424-1.091.996v.923c0 2.757 2.243 5 5 5h2c.552 0 1-.447 1-1s-.448-1-1-1h-2c-1.654 0-3-1.346-3-3v-.033c1.767-.432 3.082-2.028 3.082-3.926s-1.315-3.494-3.082-3.926v-.115c0-1.654 1.346-3 3-3h14c1.654 0 3 1.346 3 3v.128c-1.024.267-1.921.934-2.464 1.871-.277.478-.114 1.09.364 1.366.478.278 1.09.113 1.366-.364.358-.617 1.022-1.001 1.733-1.001.552 0 1-.447 1-1v-1c0-2.757-2.243-5-5-5zm3.506 21.308c.737-.94 1.236-2.072 1.414-3.308h-3.819c.289 1.418 1.191 2.602 2.405 3.308zm-2.405-5.308h3.819c-.178-1.236-.677-2.367-1.414-3.308-1.214.706-2.116 1.89-2.405 3.308z"/></svg>