<svg id="Layer_1" viewBox="0 0 24 24" xmlns="http://www.w3.org/2000/svg" data-name="Layer 1"><path d="m7 1.586c-.372-.372-.888-.586-1.414-.586h-2.086c-1.379 0-2.5 1.121-2.5 2.5v4c0 1.379 1.121 2.5 2.5 2.5h3c1.379 0 2.5-1.121 2.5-2.5v-3.086c0-.526-.214-1.042-.586-1.414zm0 5.914c0 .275-.225.5-.5.5h-3c-.275 0-.5-.225-.5-.5v-4c0-.275.225-.5.5-.5h2.086l1.414 1.414zm17 7c-.023-.339-.331-.684-.651-.814-.759-.423-2.131-.686-3.849-.686s-3.09.262-3.849.686c-.319.13-.627.475-.651.814v7.333c0 1.377 1.641 2.167 4.5 2.167s4.5-.79 4.5-2.167zm-2 1.273v1.738c-.263.18-1.02.489-2.5.489-1.504 0-2.251-.292-2.5-.458v-1.769c.698.144 1.544.227 2.5.227s1.802-.083 2.5-.227zm-2.5 6.227c-1.386 0-2.204-.233-2.5-.393v-1.928c.65.194 1.459.321 2.5.321 1.02 0 1.838-.129 2.5-.331v1.938c-.296.159-1.114.393-2.5.393zm-10.697-7.95c-.115-.162-.264-.293-.454-.364-.759-.423-2.131-.686-3.849-.686s-3.09.262-3.849.686c-.319.13-.627.475-.651.814v7.333c0 1.377 1.641 2.167 4.5 2.167s4.5-.79 4.5-2.167v-7.333c0-.161-.081-.309-.197-.45zm-1.803 1.723v1.738c-.263.18-1.02.489-2.5.489-1.504 0-2.251-.292-2.5-.458v-1.769c.698.144 1.544.227 2.5.227s1.802-.083 2.5-.227zm-2.5 6.227c-1.386 0-2.204-.233-2.5-.393v-1.928c.65.194 1.459.321 2.5.321 1.02 0 1.838-.129 2.5-.331v1.938c-.296.159-1.114.393-2.5.393zm7.5-20c-.606 0-1.208.063-1.79.188-.539.119-1.071-.228-1.188-.768-.116-.539.228-1.071.768-1.188.719-.155 1.463-.233 2.21-.233 3.747 0 7.136 2.004 9 5.102v-2.101c0-.553.447-1 1-1s1 .447 1 1v4c.01 1.103-.944 2.013-2 2h-4c-.553 0-1-.447-1-1s.447-1 1-1h2.746c-1.356-2.999-4.375-5-7.746-5z"/></svg>