<svg id="Layer_1" viewBox="0 0 24 24" xmlns="http://www.w3.org/2000/svg" data-name="Layer 1"><path d="m10.5 22h-6.5c-1.103 0-2-.897-2-2s.897-2 2-2h5c.552 0 1-.447 1-1s-.448-1-1-1h-3v-14h9c1.654 0 3 1.346 3 3v4c0 .552.448 1 1 1s1-.448 1-1v-4c0-2.757-2.243-5-5-5h-10c-2.757 0-5 2.243-5 5v15c0 2.206 1.794 4 4 4h6.5c.552 0 1-.447 1-1s-.448-1-1-1zm-6.5-19.816v13.816c-.732 0-1.409.212-2 .556v-11.556c0-1.302.839-2.402 2-2.816zm16.175 14.816h-4.35c.381-.824 1.209-1.4 2.175-1.4s1.794.576 2.175 1.4zm-2.175-5c-3.314 0-6 2.686-6 6s2.686 6 6 6 6-2.686 6-6-2.686-6-6-6zm2.688 6.6h-5.003c.268 1.032 1.2 1.8 2.315 1.8.544 0 1.167-.156 1.564-.467.348-.273.843-.253 1.183.03.318.265.344.758.038 1.037-.702.64-1.758 1-2.785 1-2.498-.01-4.502-2.32-3.89-4.954.332-1.439 1.502-2.606 2.941-2.937 2.309-.531 4.356.935 4.836 2.999.188.76-.415 1.492-1.199 1.492z"/></svg>