<svg id="Layer_1" viewBox="0 0 24 24" xmlns="http://www.w3.org/2000/svg" data-name="Layer 1"><path d="m12.833 14.817c.173.861.673 1.599 1.408 2.077.739.482 1.626.638 2.477.445l5.268-1.176c1.284-.286 2.144-1.485 1.999-2.788-.787-7.111-6.765-11.617-10.173-13.158-.826-.375-1.782-.254-2.494.312-.719.571-1.053 1.485-.873 2.384zm-.27-12.722c.085-.081.285-.131.424-.056 2.815 1.272 8.32 5.326 9.009 11.557.031.283-.164.554-.446.617l-5.268 1.176c-.331.073-.669.014-.95-.171-.281-.183-.472-.464-.538-.793l-2.388-11.904c-.047-.234.094-.376.157-.426zm-12.563 1.405c0-1.381 1.119-2.5 2.5-2.5s2.5 1.119 2.5 2.5-1.119 2.5-2.5 2.5-2.5-1.119-2.5-2.5zm4.316 3.98 1.753.629c.335.12.697.15 1.048.083l1.696-.321c.546-.101 1.066.254 1.168.796.103.543-.254 1.066-.796 1.169l-1.696.321c-.702.133-1.427.077-2.097-.166l-1.776-.637c-.646-.254-.872-.335-1.151-.279-.31.059-.517.4-.451.745l.438 2.311c.11.578.454 1.221.974 1.352l3.743.786c.793.167 1.403.789 1.554 1.586l.372 1.959c.103.543-.253 1.066-.796 1.169-.529.104-1.068-.25-1.168-.796l-.372-1.96-3.782-.796c-1.506-.379-2.266-1.759-2.488-2.927l-.44-2.311c-.271-1.433.644-2.815 2.04-3.083.862-.168 1.525.096 2.228.37zm19.352 15.498c-.733.659-1.681 1.022-2.668 1.022-1.128 0-2.222-.472-3-1.226-.778.754-1.872 1.226-3 1.226s-2.222-.472-3-1.225c-.778.753-1.873 1.225-3 1.225s-2.222-.472-3-1.225c-.778.753-1.873 1.225-3 1.225-.987 0-1.935-.363-2.668-1.022-.411-.369-.444-1.002-.075-1.412s1.002-.443 1.412-.076c.366.329.839.511 1.332.511.89 0 1.793-.586 2.057-1.333.141-.399.519-.667.943-.667s.802.268.943.667c.264.747 1.167 1.333 2.057 1.333s1.793-.586 2.057-1.333c.141-.399.519-.667.943-.667s.802.268.943.667c.264.747 1.167 1.333 2.057 1.333s1.793-.586 2.058-1.333c.141-.4.519-.667.942-.667s.802.267.942.667c.265.747 1.169 1.333 2.058 1.333.492 0 .966-.182 1.332-.511.408-.367 1.04-.337 1.412.076.369.41.335 1.043-.076 1.412z"/></svg>