<svg id="Layer_1" viewBox="0 0 24 24" xmlns="http://www.w3.org/2000/svg" data-name="Layer 1"><path d="m13.5 12.5c0 .828-.672 1.5-1.5 1.5s-1.5-.672-1.5-1.5.672-1.5 1.5-1.5 1.5.672 1.5 1.5zm-1.5 3.5c-.828 0-1.5.672-1.5 1.5s.672 1.5 1.5 1.5 1.5-.672 1.5-1.5-.672-1.5-1.5-1.5zm0 5c-.828 0-1.5.672-1.5 1.5s.672 1.5 1.5 1.5 1.5-.672 1.5-1.5-.672-1.5-1.5-1.5zm2.79-13.844c-1.466-1.53-4.112-1.53-5.577-.003l-5.181 5.137c-.392.389-.395 1.021-.006 1.414.389.394 1.022.396 1.414.006l5.184-5.14c.735-.735 2.015-.738 2.755.003l5.181 5.137c.392.389 1.025.387 1.414-.006s.387-1.025-.006-1.414zm8.184 2.135-8.184-8.135c-1.467-1.53-4.112-1.53-5.578-.002l-8.184 8.137c-.392.389-.394 1.022-.004 1.414.389.392 1.023.394 1.414.004l8.186-8.139c.735-.735 2.016-.737 2.754.002l8.186 8.137c.394.391 1.026.387 1.414-.004.39-.392.388-1.025-.004-1.414z"/></svg>