<svg id="Layer_1" viewBox="0 0 24 24" xmlns="http://www.w3.org/2000/svg" data-name="Layer 1"><path d="m24 9v6.428c0 1.231-.79 2.31-2.012 2.747-1.189.426-1.988 1.562-1.988 2.825v2c0 .553-.448 1-1 1s-1-.447-1-1v-2c0-1.654-1.346-3-3-3s-3 1.346-3 3v2c0 .553-.448 1-1 1s-1-.447-1-1v-2c0-1.37-.925-2.564-2.25-2.905-.535-.138-.856-.684-.719-1.218s.681-.856 1.218-.72c1.138.294 2.094.969 2.759 1.864.913-1.219 2.355-2.021 3.992-2.021s3.082.803 3.995 2.024c.576-.776 1.37-1.392 2.319-1.732.417-.149.687-.488.687-.864v-2.428h-14.001c-.552 0-1-.447-1-1s.448-1 1-1h2v-2c0-.553.448-1 1-1s1 .447 1 1v2h4v-2c0-.553.448-1 1-1s1 .447 1 1v2h4v-2c0-.553.448-1 1-1s1 .447 1 1zm-16 14c0 .553-.448 1-1 1h-6c-.552 0-1-.447-1-1s.448-1 1-1h2v-14.155c-.588-.268-1-.858-1-1.545v-.3h-1c-.552 0-1-.447-1-1s.448-1 1-1h1v-.3c0-.687.412-1.277 1-1.545v-1.155c0-.553.448-1 1-1s1 .447 1 1v1.086c.501.12.963.367 1.337.74l.836.837c.104.104.192.22.277.337h15.55c.552 0 1 .447 1 1s-.448 1-1 1h-15v.3c0 .938-.763 1.7-1.7 1.7h-1.3v14h2c.552 0 1 .447 1 1zm-2.241-17.922-.836-.837c-.153-.153-.365-.241-.582-.241h-.341v2h2v-.341c0-.22-.085-.427-.241-.581z"/></svg>