<svg id="Layer_1" viewBox="0 0 24 24" xmlns="http://www.w3.org/2000/svg" data-name="Layer 1"><path d="m10.728 2.723c.344.206.747.292 1.148.276.142.234.333.439.563.6.34.238.741.361 1.146.361.2 0 .4-.03.595-.091l1.589-.496 2.159 1.774v1.319c0 .395.117.781.336 1.109l.577.865-.379.858c-.181.409-.218.865-.11 1.295-.421.117-.798.369-1.066.727l-.377.502c-.385.514-.679.64-1.087.694-.78.103-1.427.655-1.653 1.409s.011 1.57.606 2.085l1.286 1.114.732.717c.266.26.162.701-.078 1.004l-.327.412c-.28.353-.432.791-.432 1.242v.512c-.01-.012-2.012.4-2.084.413-.205-.029-.562-.103-.766-.097-.509 0-.997.194-1.367.54l-1.717-.714c-.243-.101-.505-.153-.768-.153h-1.331c-.269 0-.548-.366-.432-.65l.419-1.206c.186-.534.136-1.122-.136-1.618s-.742-.854-1.292-.984l-.449-.106c-.132-.031-.25-.119-.316-.234-.211-.368-.462-.819-.671-1.198-.086-.157-.084-.335.006-.488.354-.603.369-1.346.037-1.962l-.162-.3.21-2.086.01-.002c.814-.19 1.423-.867 1.528-1.696l.372-2.932c.044-.301.317-.537.621-.537h.288c.447 0 .882-.15 1.234-.426l.802-.629c.388-.304.649-.739.735-1.222m-.734-2.724c-.521 0-.963.385-1.033.902l-.201 1.469-.802.629h-.288c-1.293 0-2.411.965-2.599 2.245l-.377 2.972-.675.158c-.434.101-.756.468-.801.912l-.308 3.058c-.021.207.021.416.119.599l.301.558c-.446.759-.463 1.688-.034 2.467.214.388.471.85.687 1.227.341.595.92 1.027 1.59 1.186l.449.106-.419 1.206c-.169.486-.181 1.003-.037 1.494.303 1.041 1.273 1.812 2.359 1.812h1.331l2.195.913c.436.162 1.014.134 1.36-.21.087-.085.186-.21.297-.375.28.033.781.173 1.057.078l2.014-.406.765-.027c.572 0 1.008-.504 1.014-1.076v-1.397l.327-.412c.885-1.116.926-2.681-.092-3.676l-.775-.758-1.331-1.154c1.049-.139 1.783-.622 2.424-1.477l.376-.501h.802c.342 0 .662-.167.857-.448.195-.28.24-.638.122-.959l-.374-1.007.591-1.338c.144-.327.112-.704-.086-1.001l-.868-1.302v-1.771c0-.315-.143-.614-.389-.812l-2.907-2.389c-.188-.152-.419-.231-.654-.231-.104 0-.209.016-.311.048l-2.083.65c-.027-.554-.566-.96-1.128-.96h-.714l-1.075-.811c-.177-.125-.462-.191-.676-.191z"/></svg>