<svg id="Layer_1" viewBox="0 0 24 24" xmlns="http://www.w3.org/2000/svg" data-name="Layer 1"><path d="m19 3.999h-.5c-1.378 0-2.5 1.121-2.5 2.5v9.5h-12v-3.799l.654.51c1.064.831 2.395 1.288 3.745 1.288h1.924c1.322 0 2.51-.734 3.102-1.915l.717-1.43c.592-1.183.468-2.574-.325-3.634l-1.154-1.541c-.806-1.078-1.966-1.868-3.267-2.225l-4.168-1.141c-1.48-.405-3.062.297-3.752 1.673l-1.133 2.262c-.689 1.375-.309 3.061.904 4.006l.753.587v5.359h-1c-.552 0-1 .447-1 1s.448 1 1 1h1.041c-.024.165-.041.331-.041.5 0 1.93 1.57 3.5 3.5 3.5s3.5-1.57 3.5-3.5c0-.169-.017-.335-.041-.5h6.082c-.024.165-.041.331-.041.5 0 1.93 1.57 3.5 3.5 3.5s3.5-1.57 3.5-3.5c0-.225-.028-.445-.071-.662 1.198-.394 2.071-1.51 2.071-2.838v-6c0-2.757-2.243-5-5-5zm-6.785 4.221c.336.448.389 1.038.138 1.538l-.717 1.431c-.25.5-.754.811-1.313.811h-1.924c-.308 0-.612-.048-.911-.117l2.937-5.861c.233.197.452.411.636.657l1.154 1.542zm-10.084-1.276 1.132-2.26c.263-.529.879-.796 1.436-.64l3.939 1.078-2.94 5.868-3.221-2.513c-.464-.362-.61-1.007-.346-1.533zm16.369-.945h.5c1.654 0 3 1.346 3 3v1h-4v-3.5c0-.275.224-.5.5-.5zm-11.5 12.5c0 .827-.673 1.5-1.5 1.5s-1.5-.673-1.5-1.5c0-.189.039-.355.093-.5h2.815c.054.145.093.311.093.5zm11.5 1.5c-.827 0-1.5-.673-1.5-1.5 0-.189.039-.355.093-.5h2.815c.054.145.093.311.093.5 0 .827-.673 1.5-1.5 1.5zm2.5-4h-3v-4h4v3c0 .552-.449 1-1 1z"/></svg>