<svg id="Layer_1" viewBox="0 0 24 24" xmlns="http://www.w3.org/2000/svg" data-name="Layer 1"><path d="m20.25 7.157c-.538-.139-1.08.185-1.218.72-.138.534.184 1.08.719 1.218.351.09.671.244.956.441l-6.585 6.586c-.567.566-1.344.849-2.122.85-.777 0-1.555-.283-2.122-.85l-6.583-6.585c.485-.337 1.071-.537 1.705-.537h9.988c0 .238-.015.478-.071.72-.244 1.07-1.127 1.954-2.198 2.198-.238.055-.48.082-.719.082-.552 0-1 .447-1 1s.448 1 1 1c.389 0 .781-.045 1.165-.133 1.831-.418 3.284-1.871 3.703-3.702.54-2.368-.609-4.719-2.795-5.717-.662-.301-1.072-.906-1.072-1.579v-1.869c0-.553-.448-1-1-1s-1 .447-1 1v1.869c0 1.444.88 2.778 2.243 3.399.388.177.714.432.983.731h-5.233c-.02-.546-.24-1.066-.628-1.454l-.375-.375c-.365-.365-.99-.107-.99.41v1.419h-2c-2.758.001-5.001 2.244-5.001 5.001v7c0 2.757 2.243 5 5 5h14c2.757 0 5-2.243 5-5v-7c0-2.282-1.542-4.273-3.75-4.843zm1.75 11.843c0 1.654-1.346 3-3 3h-14c-1.654 0-3-1.346-3-3v-7c0-.281.051-.547.124-.805l6.341 6.342c.945.944 2.201 1.464 3.536 1.464s2.591-.52 3.536-1.464l6.344-6.345c.073.26.12.529.12.809v7z"/></svg>