<svg id="Layer_1" viewBox="0 0 24 24" xmlns="http://www.w3.org/2000/svg" data-name="Layer 1"><path d="m15 10c0-2.773-1.452-4.681-4.074-5.518-.203-.786-.859-1.482-1.926-1.482h-.5v-2c0-.552-.448-1-1-1s-1 .448-1 1v2h-.5c-1.067 0-1.722.696-1.926 1.482-2.622.837-4.074 2.745-4.074 5.518s1.452 4.681 4.074 5.518c.203.785.859 1.482 1.926 1.482h.42l-.4 2.5c-.152.914.553 1.5 1.479 1.5s1.632-.586 1.479-1.5l-.49-2.5h.51c1.067 0 1.722-.696 1.926-1.482 2.622-.837 4.074-2.744 4.074-5.518zm-7.5-3.754c.589.542 1.5 1.71 1.5 3.754s-.915 3.217-1.501 3.756c-.586-.537-1.499-1.703-1.499-3.756s.913-3.214 1.5-3.754zm5.5 3.754c0 2.188-1.312 3.228-2.926 3.684.517-.903.926-2.113.926-3.684s-.409-2.781-.926-3.684c1.614.456 2.926 1.496 2.926 3.684zm-11 0c0-2.188 1.312-3.228 2.926-3.684-.517.903-.926 2.113-.926 3.684s.409 2.781.926 3.684c-1.614-.456-2.926-1.496-2.926-3.684zm22 3c0-2.747-1.425-4.644-4-5.493 0-.832-.675-1.507-1.507-1.507h-.993v-5c0-.552-.448-1-1-1s-1 .448-1 1v4.254c.836 1.076 1.303 2.459 1.446 3.845.043.419.164.821.375 1.186.373.643.679 1.53.679 2.716 0 2.456-1.303 3.634-1.79 3.991-.68-.047-1.432-.063-2.108-.245-.571-.157-1.133.254-1.102.844v.41c0 .97.701 2 2 2h.42l-.4 2.5c-.152.914.553 1.5 1.479 1.5s1.632-.586 1.479-1.5l-.49-2.5h.51c1.067 0 1.722-.696 1.926-1.482 2.622-.837 4.074-2.744 4.074-5.518zm-4.926 3.684c.517-.903.926-2.113.926-3.684s-.409-2.782-.927-3.685c1.614.455 2.927 1.496 2.927 3.685s-1.312 3.228-2.926 3.684z"/></svg>