<svg id="Layer_1" viewBox="0 0 24 24" xmlns="http://www.w3.org/2000/svg" data-name="Layer 1"><path d="m23.996 3.501c0-.935-.364-1.814-1.026-2.475-1.366-1.365-3.585-1.365-4.95 0l-8.027 8.027v-8.053c0-.552-.448-1-1-1s-1 .448-1 1v8.288c-2.134-.654-4.506-.096-6.108 1.507-.391.391-.391 1.024 0 1.414.391.391 1.024.391 1.414 0 .945-.945 2.286-1.344 3.569-1.135l-5.624 5.624c-1.66 1.592-1.648 4.406 0 6.053 1.667 1.667 4.461 1.661 6.054 0l6.196-6.195.724.724c.391.391 1.024.391 1.414 0s.391-1.024 0-1.414l-1.276-1.276 8.614-8.614c.661-.661 1.026-1.54 1.026-2.476zm-18.113 17.836c-.862.863-2.363.861-3.225 0-.885-.849-.884-2.376 0-3.224l6.196-6.196 3.225 3.225zm15.673-16.775-8.614 8.614-2.122-2.122 8.615-8.614c.584-.585 1.537-.585 2.122 0 .582.558.582 1.563 0 2.121z"/></svg>