<svg id="Layer_1" viewBox="0 0 24 24" xmlns="http://www.w3.org/2000/svg" data-name="Layer 1"><path d="m8 5v6.424c.479.241 1.333.576 2.387.576.179 0 .345-.01.5-.027.544-.066 1.044.333 1.106.881s-.333 1.043-.881 1.106c-.225.025-.465.04-.725.04-.931 0-1.739-.189-2.387-.415.175 1.979-1.124 3.718-2.821 4.595 1.313.812 2.62 1.48 4.925 1.722.549.057.948.549.891 1.099-.055.551-.559.95-1.099.89-3.119-.326-4.706-1.331-6.385-2.396-.164-.104-.341-.211-.51-.317-.691.614-1.001 1.516-1.001 2.823v1c0 .553-.448 1-1 1s-1-.447-1-1v-1c0-3.046 1.389-4.867 4.225-5.579.867-.469 1.793-1.31 1.775-2.421v-9.1c-1.898-.376-3.491-1.797-3.968-3.652-.138-.535.184-1.08.719-1.218.533-.137 1.08.184 1.218.719.331 1.282 1.634 2.25 3.032 2.25h5c3.86 0 7 3.14 7 7 0 .552-.448 1-1 1s-1-.448-1-1c0-2.757-2.243-5-5-5h-4zm14.358 14.5c-.094.363-.238.704-.425 1.019l.268.539c.477-.098.989.011 1.359.381.586.586.586 1.536 0 2.121-.586.586-1.536.586-2.121 0-.312-.312-.445-.725-.425-1.133l-.495-.495c-.316.186-.656.33-1.019.425v.642c0 .553-.448 1-1 1s-1-.447-1-1v-.642c-.363-.094-.704-.238-1.019-.425l-.495.495c.02.408-.114.821-.425 1.133-.586.586-1.536.586-2.121 0-.586-.586-.586-1.536 0-2.121.37-.37.882-.479 1.359-.381l.268-.539c-.186-.316-.33-.656-.425-1.019h-.642c-.552 0-1-.447-1-1s.448-1 1-1h.642c.094-.363.238-.704.425-1.019l-.495-.495c-.408.02-.821-.114-1.133-.425-.586-.586-.586-1.536 0-2.121s1.536-.586 2.121 0c.312.312.445.725.425 1.133l.495.495c.316-.186.656-.33 1.019-.425v-1.142c0-.552.448-1 1-1s1 .448 1 1v1.142c.363.094.704.238 1.019.425l.495-.495c-.02-.408.114-.821.425-1.133.586-.586 1.536-.586 2.121 0s.586 1.536 0 2.121c-.312.312-.725.445-1.133.425l-.495.495c.186.316.33.656.425 1.019h.642c.552 0 1 .447 1 1s-.448 1-1 1h-.642zm-1.858-1c0-1.103-.897-2-2-2s-2 .897-2 2 .897 2 2 2 2-.897 2-2z"/></svg>