<svg id="Layer_1" viewBox="0 0 24 24" xmlns="http://www.w3.org/2000/svg" data-name="Layer 1"><path d="m14 13.048c0 1.683-1.364 3.048-3.048 3.048s-3.048-1.364-3.048-3.048 1.364-3.048 3.048-3.048 3.048 1.364 3.048 3.048zm3.5 1.952c-1.381 0-2.5 1.119-2.5 2.5s1.119 2.5 2.5 2.5 2.5-1.119 2.5-2.5-1.119-2.5-2.5-2.5zm-8.5-8.5c0-1.381-1.119-2.5-2.5-2.5s-2.5 1.119-2.5 2.5 1.119 2.5 2.5 2.5 2.5-1.119 2.5-2.5zm15 11v2.641c0 1.225-.731 2.314-1.862 2.777-1.212.494-2.999 1.082-4.638 1.082-1.736 0-3.368-.677-4.596-1.904-.393-.393-.731-.836-1.007-1.319-.268-.466-.75-.754-1.325-.789-.432-.026-.872-.094-1.308-.201-2.452-.606-4.431-2.581-5.045-5.028-.11-.439-.18-.889-.206-1.333-.035-.571-.323-1.054-.791-1.322-.483-.275-.927-.615-1.319-1.007-1.227-1.227-1.903-2.859-1.903-4.596 0-1.645.589-3.43 1.083-4.639.461-1.131 1.551-1.862 2.776-1.862h2.641c1.736 0 3.368.677 4.596 1.904 1.069 1.069 1.729 2.496 1.857 4.019.019.229.159.405.384.485 1.996.706 3.547 2.258 4.254 4.255.08.225.257.365.486.385 1.521.127 2.948.786 4.018 1.856 1.227 1.228 1.903 2.859 1.903 4.596zm-2 0c0-1.202-.468-2.332-1.318-3.182-.746-.747-1.705-1.188-2.771-1.278-1.016-.086-1.859-.74-2.203-1.709-.498-1.405-1.633-2.541-3.037-3.038-.97-.343-1.625-1.188-1.71-2.202-.089-1.067-.531-2.026-1.278-2.772-.85-.851-1.98-1.318-3.182-1.318h-2.642c-.409 0-.772.243-.925.619-.603 1.474-.934 2.852-.934 3.881 0 1.202.468 2.332 1.318 3.182.266.267.568.497.898.686 1.049.602 1.719 1.699 1.793 2.938.02.322.07.646.15.966.437 1.74 1.843 3.143 3.583 3.574.318.078.638.128.95.146 1.241.074 2.34.744 2.94 1.792.188.33.419.632.686.898.85.851 1.98 1.318 3.182 1.318 1.315 0 2.836-.508 3.882-.934.375-.153.618-.517.618-.926z"/></svg>