<svg id="Layer_1" viewBox="0 0 24 24" xmlns="http://www.w3.org/2000/svg" data-name="Layer 1"><path d="m5 11v.816c0 .654.53 1.184 1.184 1.184.261 0 .52-.079.723-.242 1.238-.993 2.065-2.402 2.065-4.108 1.339-1.479 3.389-4.714 3.92-6.182.145-.403.145-.846 0-1.25-.167-.463-.504-.833-.949-1.042-.448-.209-.949-.232-1.409-.066-1.462.527-4.64 2.535-6.145 3.89h-.004c-1.737 0-3.149.851-4.142 2.094-.162.203-.241.462-.241.722h-.002c0 .655.53 1.185 1.184 1.185h.816l.793.793-.5.5c-.391.391-.391 1.023 0 1.414s1.023.391 1.414 0l.5-.5.793.793zm.727-5.519c1.251-1.135 3.833-2.76 5.142-3.349-.591 1.299-2.246 3.916-3.364 5.16l-1.687 1.698-1.805-1.806zm17.273 16.519h-16.1c-.881 0-1.15-.808-.665-1.396l3.995-4.917 1.892 2.506c.372.506.982.807 1.61.807.633-.005 1.231-.315 1.62-.86l.953-1.44.386.483c.393.539 1.035.846 1.689.815.666-.028 1.27-.387 1.608-.949l1.245-2.021.99 1.218c.351.43.981.492 1.407.146.429-.349.493-.979.146-1.407l-6.776-8.34v-1.645l2.502-1.601c.664-.415.664-1.383 0-1.798l-1.654-1.071c-.554-.346-1.195-.53-1.848-.53-.543-.011-.989.467-1 1v5.645l-10.317 12.698c-.701.863-.84 2.024-.361 3.028.478 1.005 1.466 1.629 2.579 1.629h16.099c.553 0 1-.447 1-1s-.447-1-1-1zm-7-13.414 3.896 4.795-1.614 2.591-1.27-1.595c-.199-.25-.508-.398-.826-.376-.319.014-.613.181-.79.447l-1.672 2.55-2.195-2.909z"/></svg>