<svg id="Layer_1" viewBox="0 0 24 24" xmlns="http://www.w3.org/2000/svg" data-name="Layer 1"><path d="m24 12c0 6.617-5.383 12-12 12-2.537 0-4.969-.803-7-2.267v1.267c0 .553-.447 1-1 1s-1-.447-1-1v-3c0-1.103.897-2 2-2h3c.553 0 1 .447 1 1s-.447 1-1 1h-1.993c1.724 1.294 3.813 2 5.993 2 5.514 0 10-4.486 10-10 0-1.256-.229-2.479-.682-3.636-.201-.515.053-1.095.567-1.296.516-.201 1.095.053 1.296.567.543 1.39.818 2.858.818 4.364zm-22 0c0-5.514 4.486-10 10-10 2.182 0 4.268.708 5.99 2h-1.99c-.553 0-1 .447-1 1s.447 1 1 1h3c1.103 0 2-.897 2-2v-3c0-.553-.447-1-1-1s-1 .447-1 1v1.267c-2.03-1.464-4.461-2.267-7-2.267-6.617 0-12 5.383-12 12 0 1.506.275 2.975.818 4.364.201.52.794.766 1.296.567.515-.201.769-.781.567-1.296-.452-1.156-.682-2.38-.682-3.636zm15.696-2.134-.517.298c.204.575.32 1.191.32 1.835s-.117 1.261-.32 1.835l.517.298c.478.276.642.888.366 1.366s-.888.642-1.366.366l-.516-.298c-.803.94-1.915 1.604-3.181 1.836v.595c0 .552-.448 1-1 1s-1-.448-1-1v-.595c-1.265-.233-2.378-.897-3.181-1.836l-.516.298c-.478.276-1.09.112-1.366-.366s-.112-1.09.366-1.366l.517-.298c-.204-.575-.32-1.191-.32-1.835s.117-1.261.32-1.835l-.517-.298c-.478-.276-.642-.888-.366-1.366s.888-.642 1.366-.366l.516.298c.803-.94 1.915-1.604 3.181-1.836v-.595c0-.552.448-1 1-1s1 .448 1 1v.595c1.265.233 2.378.897 3.181 1.836l.516-.298c.478-.276 1.09-.112 1.366.366s.112 1.09-.366 1.366zm-7.696 2.134c0-.552-.448-1-1-1s-1 .448-1 1v1c0 .552.448 1 1 1s1-.448 1-1zm3-2c0-.552-.448-1-1-1s-1 .448-1 1v3c0 .552.448 1 1 1s1-.448 1-1zm3 1c0-.552-.448-1-1-1s-1 .448-1 1v2c0 .552.448 1 1 1s1-.448 1-1z"/></svg>