<?xml version="1.0" encoding="UTF-8"?>
<svg xmlns="http://www.w3.org/2000/svg" id="Layer_1" data-name="Layer 1" viewBox="0 0 24 24">
  <path d="M14,6.051v-.051c0-.552-.447-1-1-1s-1,.448-1,1H3c-.552,0-1,.448-1,1s-.449,1-1,1-1,.448-1,1v1.591c0,.977,.496,1.901,1.332,2.486,0,.195-.131,.619-.197,.834l-.987,3.206c-.63,1.855,.909,3.939,2.868,3.882h.497c1.597,0,2.981-1.026,3.445-2.554l.743-2.446h1.214c.883,0,1.662-.579,1.916-1.425l.452-1.575h2.218c1.379,0,2.5-1.122,2.5-2.5v-2c0-1.207-.86-2.217-2-2.449ZM5.043,17.865c-.206,.679-.821,1.135-1.531,1.135h-.497c-.653,.019-1.166-.676-.956-1.294l.986-3.206c.12-.387,.29-.94,.279-1.5h3.195l-1.477,4.865Zm8.957-7.365c0,.276-.225,.5-.5,.5H7.891c-.014,0-.029,0-.046,0H2.095c-.062-.128-.095-.267-.095-.409v-.762c.851-.302,1.527-.978,1.829-1.829H13.5c.275,0,.5,.224,.5,.5v2Zm9.647-.467l-2.214,1.107,1.929,1.929c.44,.44,.108,1.165-.474,1.165-.039,0-.079-.003-.121-.01l-1.335-.222,.547,2.19c.119,.477-.262,.851-.668,.851-.165,0-.334-.062-.475-.203l-3.373-4.255c.321-.608,.519-1.289,.53-2.021l.007-.009,1.667-.788c.294-.139,.298-.557,.006-.701l-1.673-.826-.03-.037c-.043-.648-.222-1.254-.512-1.799l3.379-4.398c.141-.141,.31-.203,.475-.203,.406,0,.788,.373,.668,.851l-.547,2.19,1.335-.223c.041-.007,.081-.01,.121-.01,.582,0,.913,.726,.474,1.165l-1.929,1.929,2.214,1.107c.503,.251,.503,.969,0,1.22Z"/>
</svg>
