<svg id="Layer_1" viewBox="0 0 24 24" xmlns="http://www.w3.org/2000/svg" data-name="Layer 1"><path d="m24 17c0 3.925-5.271 7-12 7s-12-3.075-12-7c0-2.362 1.869-4.465 5.128-5.77.516-.206 1.095.044 1.3.558.206.513-.044 1.095-.557 1.3-2.424.97-3.872 2.433-3.872 3.912 0 2.71 4.58 5 10 5s10-2.29 10-5c0-1.479-1.447-2.942-3.872-3.912-.513-.205-.762-.787-.557-1.3.204-.514.785-.765 1.3-.558 3.259 1.305 5.128 3.407 5.128 5.77zm-12-13c1.105 0 2-.895 2-2s-.895-2-2-2-2 .895-2 2 .895 2 2 2zm-3.082 8.43c-.409-.613-.918-1.377-.918-2.43 0-2.206 1.794-4 4-4s4 1.794 4 4c.075 1.625-1.353 2.483-1.5 3.75 0 .549.322.948.82 1.018 2.454.434 3.68 1.248 3.68 2.426 0 2.216-4.4 2.807-7 2.807s-7-.591-7-2.807c0-1.191 1.251-2.011 3.72-2.434.471-.085.78-.481.78-1.01 0-.426-.221-.779-.582-1.32zm1.082-2.43c0 .426.221.779.582 1.32.409.613.918 1.377.918 2.43 0 1.497-1.001 2.723-2.435 2.979-.867.148-1.422.332-1.751.48.709.342 2.325.79 4.686.79s3.977-.448 4.685-.79c-.319-.145-.852-.321-1.676-.468-1.462-.202-2.509-1.435-2.509-2.992 0-1.053.509-1.816.918-2.43.361-.541.582-.895.582-1.32 0-1.103-.897-2-2-2s-2 .897-2 2z"/></svg>