<svg id="Layer_1" viewBox="0 0 24 24" xmlns="http://www.w3.org/2000/svg" data-name="Layer 1"><path d="m23.707 22.293-5.973-5.973c.208-.255.414-.513.599-.79.306-.46.181-1.081-.279-1.387-.461-.305-1.081-.181-1.387.279-1.489 2.24-3.981 3.578-6.667 3.578-1.843 0-3.537-.632-4.891-1.683l5.604-5.604c.188-.188.293-.442.293-.707v-7.936c.724.091 1.43.272 2.105.557.508.215 1.095-.023 1.31-.532s-.023-1.095-.532-1.31c-1.23-.52-2.536-.784-3.881-.785 0 0-.001 0-.002 0 0 0 0 0-.001 0-.002 0-.003 0-.005 0-5.514 0-10 4.486-10 10s4.486 10 10 10c2.341 0 4.554-.828 6.317-2.269l5.976 5.976c.391.391 1.023.391 1.414 0s.391-1.023 0-1.414zm-14.701-20.224v7.523l-5.312 5.313c-1.057-1.356-1.694-3.056-1.694-4.905 0-4.074 3.063-7.439 7.006-7.931zm9.994-.069c0-1.105.895-2 2-2s2 .895 2 2-.895 2-2 2-2-.895-2-2zm-5 4c0-1.105.895-2 2-2s2 .895 2 2-.895 2-2 2-2-.895-2-2zm2 3c1.349 0 2.499.807 2.948 1.941.203.512-.22 1.059-.794 1.059h-4.309c-.574 0-.997-.547-.794-1.059.449-1.135 1.6-1.941 2.948-1.941zm5-4c1.349 0 2.499.807 2.948 1.941.203.512-.22 1.059-.794 1.059h-3.709c.344-.59.555-1.268.555-2 0-.278-.029-.549-.083-.811.339-.118.701-.189 1.083-.189z"/></svg>