<?xml version="1.0" encoding="UTF-8"?>
<svg xmlns="http://www.w3.org/2000/svg" id="Layer_1" data-name="Layer 1" viewBox="0 0 24 24">
  <path d="M12.696,13.06c-1.177-.205-2.372,.121-3.274,.882-.903,.763-1.421,1.877-1.421,3.059,0,.722,.199,1.431,.577,2.054,.355,.584,1.008,.946,1.706,.946h3.432c.705,0,1.365-.373,1.724-.973,0,0,0,0,0-.002,.514-.862,.681-1.883,.47-2.875-.334-1.578-1.626-2.82-3.214-3.091Zm1.019,4.94l-3.428,.016c-.19-.313-.287-.655-.287-1.016,0-.591,.259-1.148,.711-1.53,.458-.387,1.047-.541,1.648-.439,.775,.133,1.43,.764,1.594,1.536,.136,.638-.051,1.133-.231,1.436l-.007-.002ZM22,5.5c0-2.054-1.299-5.5-10-5.5S2,3.446,2,5.5c0,1.301,.758,3.536,2.315,6.824-.862,1.411-1.315,3.016-1.315,4.676,0,1.642,.449,3.249,1.298,4.647,.881,1.451,2.509,2.353,4.249,2.353h6.907c1.74,0,3.368-.901,4.249-2.353,.849-1.398,1.298-3.006,1.298-4.647,0-1.66-.453-3.265-1.315-4.676,1.558-3.288,2.315-5.523,2.315-6.824Zm-4.008,15.11c-.521,.857-1.493,1.39-2.539,1.39h-6.907c-1.045,0-2.018-.532-2.539-1.39-.659-1.086-1.008-2.335-1.008-3.61,0-1.445,.442-2.836,1.278-4.023,.209-.296,.241-.684,.083-1.01-2.054-4.257-2.361-5.879-2.361-6.467,0-3.159,5.595-3.5,8-3.5s8,.341,8,3.5c0,.588-.307,2.21-2.361,6.467-.158,.327-.126,.714,.083,1.01,.836,1.187,1.278,2.578,1.278,4.023,0,1.275-.349,2.524-1.008,3.61Zm-.598-15.735c-.771-.399-2.333-.875-5.394-.875-3.23,0-4.771,.551-5.402,.879-.413,.215-.623,.686-.507,1.136,.135,.527,.528,1.769,1.635,4.156,.217,.492,.847,.723,1.329,.486,1.875-.872,4.015-.872,5.889,0,.484,.236,1.113,.006,1.329-.486,1.11-2.394,1.498-3.636,1.63-4.164,.113-.45-.098-.918-.51-1.132Zm-2.544,3.593c-1.841-.621-3.858-.622-5.7,0-.41-.926-.677-1.609-.85-2.095,.687-.182,1.85-.374,3.7-.374s3.01,.191,3.697,.373c-.171,.484-.438,1.167-.847,2.095Z"/>
</svg>
