<svg id="Layer_1" viewBox="0 0 24 24" xmlns="http://www.w3.org/2000/svg" data-name="Layer 1"><path d="m5.947 8.524 2.244-1.783 1.843 1.429c.588.345 1.221.756 1.968.83.46 0 .875-.32.977-.788.117-.54-.226-1.072-.766-1.189-.257-.056-.585-.24-.901-.417l-1.497-1.155 1.386-1.101c.326-.172.667-.297 1.013-.373.54-.117.883-.649.766-1.189s-.652-.884-1.189-.765c-.607.14-1.227.354-1.764.706l-1.841 1.464-2.237-1.726c-.253-1.4-1.474-2.467-2.946-2.467-1.657 0-3.003 1.346-3.003 3 0 1.044.537 1.962 1.348 2.5-.811.538-1.348 1.456-1.348 2.5 0 1.654 1.346 3 3 3 1.475 0 2.698-1.071 2.947-2.476zm-.455-2.192c-.222-.33-.508-.612-.839-.832.336-.223.624-.511.847-.847l1.065.826zm-2.492-4.332c.552 0 1 .449 1 1s-.448 1-1 1-1-.449-1-1 .448-1 1-1zm-1 6c0-.551.448-1 1-1s1 .449 1 1-.448 1-1 1-1-.449-1-1zm21.975 6.105c0 .918-.664 1.895-1.896 1.895h-.213l-.15 1.033c-.298 2.256-2.249 3.967-4.537 3.967h-.179c0 1.654-1.346 3-3 3h-6c-1.654 0-3-1.346-3-3v-.707c0-.812-.236-1.569-.667-2.132-.899-1.177-1.519-2.503-1.839-3.943-.121-.539.219-1.074.758-1.194.539-.118 1.073.219 1.193.758.258 1.154.755 2.219 1.478 3.164.694.91 1.077 2.098 1.077 3.347v.707c0 .551.448 1 1 1h6c.552 0 1-.449 1-1v-1c0-.552.447-1 1-1h1.179c1.288 0 2.388-.963 2.557-2.241l.275-1.902c.07-.492.492-.857.989-.857h.95c-.224-1.042-2.276-5.503-3.307-6.776-.817-1.091-1.869-1.944-3.063-2.497-.501-.232-.72-.826-.487-1.327.231-.501.827-.72 1.327-.487 1.494.691 2.809 1.758 3.802 3.083 1.179 1.457 3.753 6.818 3.753 8.11z"/></svg>