<svg id="Layer_1" viewBox="0 0 24 24" xmlns="http://www.w3.org/2000/svg" data-name="Layer 1"><path d="m22 6.377 1.223-1.429c.833-.873 1.001-2.185.481-3.264-.499-1.039-1.525-1.685-2.68-1.685h-18.048c-1.155.001-2.181.647-2.68 1.686-.498 1.037-.36 2.238.384 3.166l1.264 1.457-1.866 12.588c-.199 1.276.169 2.572 1.01 3.554.843.985 2.07 1.55 3.368 1.55h15.088c1.298 0 2.525-.565 3.368-1.55.841-.982 1.209-2.278 1.005-3.583zm-19.901-3.827c.165-.345.493-.55.877-.55h18.048c.384 0 .712.206.877.55.153.32.125.674-.073.961l-1.292 1.489h-17.079l-1.241-1.43c-.237-.296-.281-.678-.117-1.02zm19.295 18.6c-.463.54-1.137.85-1.85.85h-15.088c-.713 0-1.387-.31-1.85-.85-.46-.538-.661-1.247-.551-1.953l1.808-12.197h16.218l1.864 12.205c.109.698-.092 1.407-.552 1.945zm-9.394-13.15c-4.411 0-8 2.916-8 6.5s3.589 6.5 8 6.5 8-2.916 8-6.5-3.589-6.5-8-6.5zm6 6.5c0 .625-.172 1.221-.48 1.763l-3.365-1.763 3.365-1.763c.309.542.48 1.137.48 1.763zm-12 0c0-.625.172-1.221.48-1.763l3.365 1.763-3.365 1.763c-.309-.542-.48-1.137-.48-1.763zm7-4.432c1.188.15 2.257.562 3.1 1.156l-3.1 1.624zm-2 2.78-3.1-1.624c.843-.594 1.912-1.005 3.1-1.156zm0 3.305v2.78c-1.188-.15-2.257-.562-3.1-1.156zm2 0 3.1 1.624c-.843.594-1.912 1.005-3.1 1.156z"/></svg>