<svg id="Layer_1" viewBox="0 0 24 24" xmlns="http://www.w3.org/2000/svg" data-name="Layer 1"><path d="m20.1 8.8v6.4c0 .442-.358.8-.8.8-.442 0-.8-.358-.8-.8v-6.4c0-.442.358-.8.8-.8.442 0 .8.358.8.8zm-7.6 1.7c.014 1.375-1.102 2.501-2.478 2.5h-.422v2.2c0 .442-.358.8-.8.8-.442 0-.8-.358-.8-.8v-6.4c0-.442.358-.8.8-.8h1.2c1.381 0 2.5 1.119 2.5 2.5zm-1.6 0c0-.496-.404-.9-.9-.9h-.4v1.8h.4c.496 0 .9-.404.9-.9zm6.882 0c.014 1.375-1.102 2.501-2.478 2.5h-.422v2.2c0 .442-.358.8-.8.8-.442 0-.8-.358-.8-.8v-6.4c0-.442.358-.8.8-.8h1.2c1.381 0 2.5 1.119 2.5 2.5zm-1.6 0c0-.496-.404-.9-.9-.9h-.4v1.8h.4c.496 0 .9-.404.9-.9zm-12.482-2.5c-.442 0-.8.358-.8.8v2.601h-1.3v-2.601c0-.442-.358-.8-.8-.8s-.8.358-.8.8v6.4c0 .442.358.8.8.8s.8-.358.8-.8v-2.2h1.301v2.2c0 .442.358.8.8.8s.8-.358.8-.8v-6.4c0-.442-.358-.8-.8-.8zm19.5 4.85c.442 0 .8-.358.8-.8s-.358-.8-.8-.8h-.601v-1.65h.601c.442 0 .8-.358.8-.8s-.358-.8-.8-.8h-1.4c-.442 0-.8.358-.8.8v6.4c0 .442.358.8.8.8h1.4c.442 0 .8-.358.8-.8s-.358-.8-.8-.8h-.601v-1.551h.601zm-16.9-4.85c-.442 0-.8.358-.8.8v6.4c0 .442.358.8.8.8.442 0 .8-.358.8-.8v-6.4c0-.442-.358-.8-.8-.8z"/></svg>