<svg id="Layer_1" viewBox="0 0 24 24" xmlns="http://www.w3.org/2000/svg" data-name="Layer 1"><path d="m24 19.732c0-1.265-.216-2.51-.642-3.699l-.969-2.715c-.708-1.985-2.601-3.318-4.709-3.318h-2.361c-2.108 0-4.001 1.333-4.709 3.318l-.969 2.714c-.426 1.19-.642 2.436-.642 3.7 0 1.158.877 2.106 2 2.241v.527c0 .827.673 1.5 1.5 1.5s1.5-.673 1.5-1.5v-.5h5v.5c0 .827.673 1.5 1.5 1.5s1.5-.673 1.5-1.5v-.527c1.123-.134 2-1.082 2-2.241zm-8.681-7.732h2.361c1.265 0 2.4.8 2.826 1.99l.36 1.01h-8.733l.36-1.01c.426-1.19 1.562-1.99 2.826-1.99zm6.413 8h-10.464c-.147 0-.268-.12-.268-.268 0-.931.151-1.847.433-2.732h1.567v1c0 .553.447 1 1 1s1-.447 1-1v-1h3v1c0 .553.447 1 1 1s1-.447 1-1v-1h1.567c.282.885.433 1.801.433 2.732 0 .147-.12.268-.268.268zm-13.732 3c0 .553-.447 1-1 1h-2c-2.757 0-5-2.243-5-5v-14c0-2.757 2.243-5 5-5h6c2.757 0 5 2.243 5 5v2c0 .553-.447 1-1 1s-1-.447-1-1v-2c0-1.654-1.346-3-3-3h-6c-1.654 0-3 1.346-3 3v14c0 1.654 1.346 3 3 3h2c.553 0 1 .447 1 1zm-1-9c0 .553-.447 1-1 1h-1c-.553 0-1-.447-1-1s.447-1 1-1h1c.553 0 1 .447 1 1zm0 4c0 .553-.447 1-1 1h-1c-.553 0-1-.447-1-1s.447-1 1-1h1c.553 0 1 .447 1 1zm0-12c0 .553-.447 1-1 1h-1c-.553 0-1-.447-1-1s.447-1 1-1h1c.553 0 1 .447 1 1zm4-1c.553 0 1 .447 1 1s-.447 1-1 1h-1c-.553 0-1-.447-1-1s.447-1 1-1zm-4 5c0 .553-.447 1-1 1h-1c-.553 0-1-.447-1-1s.447-1 1-1h1c.553 0 1 .447 1 1z"/></svg>