<svg id="Layer_1" viewBox="0 0 24 24" xmlns="http://www.w3.org/2000/svg" data-name="Layer 1"><path d="m19 0h-14c-2.757 0-5 2.243-5 5v10c0 2.757 2.243 5 5 5h4c.553 0 1-.447 1-1s-.447-1-1-1h-2.09c-.423-2.507-2.403-4.486-4.91-4.91v-6.181c2.507-.423 4.486-2.403 4.91-4.91h10.173c.478 2.834 2.949 5 5.917 5 .553 0 1-.447 1-1v-1c0-2.757-2.243-5-5-5zm-14.147 17.985c-1.535-.076-2.763-1.303-2.839-2.839 1.387.366 2.472 1.452 2.839 2.839zm-2.838-13.132c.076-1.535 1.303-2.763 2.839-2.839-.366 1.387-1.452 2.472-2.839 2.839zm17.112-2.85c1.554.064 2.806 1.316 2.87 2.87-1.401-.363-2.507-1.469-2.87-2.87zm-1.627 5.997c-3.59 0-6.5 2.91-6.5 6.5 0 2.3 1.198 4.316 3 5.471v3.024c0 .857 1.005 1.319 1.655.761l1.845-1.581 1.845 1.581c.65.558 1.655.095 1.655-.761v-3.024c1.802-1.155 3-3.172 3-5.471 0-3.59-2.91-6.5-6.5-6.5zm1.315 11h-.315c0 .552-.448 1-1 1s-1-.448-1-1c-1.113 0-2.087-.61-2.605-1.513-.38-.662.11-1.487.874-1.487.359 0 .686.196.869.506.174.296.495.494.862.494h2.35c.334 0 .629-.251.649-.585.02-.324-.206-.602-.52-.655l-3.286-.548c-1.277-.213-2.203-1.312-2.192-2.61.011-1.451 1.234-2.603 2.685-2.603h.315c0-.552.448-1 1-1s1 .448 1 1c1.113 0 2.087.61 2.605 1.513.38.662-.11 1.487-.874 1.487-.359 0-.686-.196-.869-.506-.174-.295-.495-.494-.862-.494h-2.376c-.36 0-.649.305-.622.67.021.292.255.525.544.574l3.261.544c1.277.213 2.203 1.312 2.193 2.61-.011 1.451-1.234 2.603-2.685 2.603zm-8.315-10h-3.5c-.553 0-1-.447-1-1s.447-1 1-1h3.5c.553 0 1 .447 1 1s-.447 1-1 1zm-2.5 2c.553 0 1 .447 1 1s-.447 1-1 1h-1c-.553 0-1-.447-1-1s.447-1 1-1z"/></svg>