<svg id="Layer_1" viewBox="0 0 24 24" xmlns="http://www.w3.org/2000/svg" data-name="Layer 1"><path d="m24 9c0 .552-.447 1-1 1s-1-.448-1-1c0-3.86-3.141-7-7-7-.553 0-1-.448-1-1s.447-1 1-1c4.963 0 9 4.038 9 9zm-9-5c-.553 0-1 .448-1 1s.447 1 1 1c1.654 0 3 1.346 3 3 0 .552.447 1 1 1s1-.448 1-1c0-2.757-2.243-5-5-5zm-3 4.195v3.281c0 .842-.682 1.524-1.524 1.524h-4.952c-.842 0-1.524-.682-1.524-1.524v-3.281c0-.506.252-.98.672-1.263l2.476-1.671c.515-.348 1.19-.348 1.705 0l2.476 1.671c.42.283.672.757.672 1.263zm-3 1.305c0-.276-.224-.5-.5-.5h-1c-.276 0-.5.224-.5.5v1c0 .276.224.5.5.5h1c.276 0 .5-.224.5-.5zm7 3.5v6c0 2.757-2.243 5-5 5h-6c-2.757 0-5-2.243-5-5v-14c0-2.757 2.243-5 5-5h6c.552 0 1 .448 1 1s-.448 1-1 1h-6c-1.654 0-3 1.346-3 3v11h12v-3c0-.552.447-1 1-1s1 .448 1 1zm-2 5h-12v1c0 1.654 1.346 3 3 3h6c1.654 0 3-1.346 3-3zm1-8c.552 0 1-.448 1-1s-.448-1-1-1-1 .448-1 1 .448 1 1 1zm-5 10c0-.552-.448-1-1-1h-2c-.552 0-1 .448-1 1s.448 1 1 1h2c.552 0 1-.448 1-1z"/></svg>