<svg id="Layer_1" viewBox="0 0 24 24" xmlns="http://www.w3.org/2000/svg" data-name="Layer 1"><path d="m18.933 23.053c-.198.517-.778.773-1.292.573-.582-.224-1.512-.512-2.217-.586-1.398-.141-2.473.127-3.337.411-.751.246-1.778.531-3.073.549-1.041.036-2.336-.231-3.275-.495-.533-.145-.848-.693-.703-1.227.144-.533.692-.854 1.227-.703.685.197 1.897.46 2.726.425 1.023-.014 1.86-.247 2.475-.449 1.003-.329 2.387-.686 4.168-.5 1.133.118 2.376.573 2.729.71.516.198.772.777.573 1.292zm-13.215-3.578c.941.29 2.245.566 3.295.525 1.307-.017 2.348-.302 3.109-.549.881-.286 1.971-.559 3.396-.411.464.047 1.255.216 2.226.474.533.14 1.082-.177 1.224-.71.142-.534-.177-1.082-.71-1.224-.757-.2-1.811-.456-2.535-.53-1.805-.187-3.201.17-4.217.499-.626.203-1.479.438-2.518.451-.942.004-1.586-.12-2.705-.443-.537-.159-1.086.148-1.241.677-.156.53.147 1.086.677 1.241zm12.548-5.949c-.77-.177-1.837-.403-2.544-.476-1.805-.187-3.201.169-4.217.499-.626.203-1.479.438-2.518.451-.818.028-1.893-.185-2.666-.447-.521-.178-1.091.103-1.269.626-.178.522.103 1.091.626 1.269.931.317 2.29.592 3.334.553 1.307-.017 2.348-.302 3.109-.549.881-.286 1.971-.56 3.396-.411.473.048 1.29.202 2.301.435.538.128 1.075-.213 1.198-.751.124-.538-.213-1.074-.751-1.198zm-.292-8.38c-.331-.066-.602-.274-.742-.569-1.55-3.272-5.144-5.098-8.735-4.44-3.271.599-5.837 3.212-6.384 6.502-.161.973-.15 1.945.033 2.889.06.308-.073.654-.346.902-1.145 1.041-1.801 2.524-1.801 4.07 0 1.255.435 2.482 1.223 3.457.348.431.98.494 1.406.148.43-.348.496-.977.148-1.406-.509-.629-.777-1.389-.777-2.199 0-.984.418-1.928 1.147-2.591.784-.715 1.153-1.773.962-2.762-.138-.709-.146-1.443-.023-2.18.402-2.422 2.364-4.422 4.771-4.862 2.752-.503 5.387.835 6.568 3.329.414.873 1.2 1.482 2.158 1.673 2.56.511 4.417 2.779 4.417 5.394 0 1.055-.299 2.078-.864 2.96-.298.465-.163 1.084.302 1.382.464.298 1.082.163 1.382-.302.772-1.205 1.181-2.602 1.181-4.04 0-3.565-2.534-6.658-6.026-7.354z"/></svg>