<svg id="Layer_1" viewBox="0 0 24 24" xmlns="http://www.w3.org/2000/svg" data-name="Layer 1"><path d="m19 2h-1v-1c0-.552-.447-1-1-1s-1 .448-1 1v1h-8v-1c0-.552-.448-1-1-1s-1 .448-1 1v1h-1c-2.757 0-5 2.243-5 5v12c0 2.757 2.243 5 5 5h1c.552 0 1-.447 1-1s-.448-1-1-1h-1c-1.654 0-3-1.346-3-3v-9h20v4c0 .553.447 1 1 1s1-.447 1-1v-7c0-2.757-2.243-5-5-5zm-17 6v-1c0-1.654 1.346-3 3-3h14c1.654 0 3 1.346 3 3v1zm16.766 8.808v4.931c0 1.348-1.164 2.427-2.539 2.288-1.197-.122-2.06-1.22-2.06-2.422v-4.796c0-.442.358-.8.8-.8s.8.358.8.8v4.931c0 .386.314.7.7.7s.7-.314.7-.7v-4.931c0-.442.358-.8.8-.8s.8.358.8.8zm-5.769 0v4.931c0 1.348-1.164 2.427-2.539 2.288-1.142-.116-1.971-1.123-2.046-2.26.038-.406.369-.728.785-.728.442 0 .8.358.8.8v-.1c0 .386.314.7.7.7s.7-.314.7-.7v-4.931c0-.442.358-.8.8-.8s.8.358.8.8zm11.003 6.43c0 .442-.358.8-.8.8h-2.4c-.442 0-.8-.358-.8-.8v-6.4c0-.442.358-.8.8-.8.442 0 .8.358.8.8v5.6h1.6c.442 0 .8.358.8.8z"/></svg>