<svg id="Layer_1" viewBox="0 0 24 24" xmlns="http://www.w3.org/2000/svg" data-name="Layer 1"><path d="m7 4.5c0-1.381 1.119-2.5 2.5-2.5s2.5 1.119 2.5 2.5-1.119 2.5-2.5 2.5-2.5-1.119-2.5-2.5zm8 8.5c0 .552-.447 1-1 1h-.993c-.635 0-1.238-.306-1.613-.818l-.837-1.144-1.521 4.694 1.701.967c.78.444 1.264 1.277 1.264 2.173v3.128c0 .552-.448 1-1 1s-1-.448-1-1v-3.128c0-.179-.097-.346-.253-.435l-4.333-2.466c-1.272-.803-1.766-2.348-1.212-3.698l1.143-3.355c.485-1.188 1.575-1.918 2.797-1.918h.359c.88 0 1.771.393 2.324 1.024l2.183 2.976h.993c.553 0 1 .448 1 1zm-7.72 2.733 1.796-5.587c-.159-.081-.371-.146-.576-.146h-.359c-.407 0-.771.244-.925.621l-1.143 3.355c-.206.506-.041 1.021.37 1.281l.838.477zm16.72-13.233v1.737c0 1.231-.882 2.268-2.097 2.467l-3.561.583c-.236.347-.315.563-.335.656.267.201 1.187.393 1.696.499 1.391.29 3.296.686 3.296 2.399 0 2.495-3.771 3.16-6 3.16-.553 0-1-.448-1-1s.447-1 1-1c1.84 0 3.854-.566 3.992-1.103-.266-.201-1.187-.393-1.696-.499-1.391-.29-3.296-.686-3.296-2.399 0-.522.211-1.092.616-1.718.002-.017 0-.033.002-.05l.677-4.136s0 0 0 0c.199-1.214 1.236-2.096 2.467-2.096h1.737c1.379 0 2.5 1.122 2.5 2.5zm-2 0c0-.276-.225-.5-.5-.5h-1.737c-.246 0-.454.177-.494.42l-.451 2.763 2.764-.453c.242-.04.419-.247.419-.493v-1.737zm-18.056 15.847-.283.653h-2.661c-.552 0-1 .448-1 1s.448 1 1 1h2.681c.8 0 1.523-.477 1.838-1.212l.157-.366-1.252-.713c-.173-.109-.324-.238-.48-.362z"/></svg>