<svg id="Layer_1" viewBox="0 0 24 24" xmlns="http://www.w3.org/2000/svg" data-name="Layer 1"><path d="m6 6v-.336l1.054-3.276c.266-.827 1.035-1.388 1.904-1.388h2.042c0-.552.448-1 1-1s1 .448 1 1h2.042c.869 0 1.638.561 1.904 1.388l1.054 3.276v.336c0 1.214-1.082 2.176-2.335 1.973-.984-.16-1.665-1.083-1.665-2.079v-.23l.842-2.664h-1.842v6h2c.553 0 1 .448 1 1s-.447 1-1 1h-6c-.552 0-1-.448-1-1s.448-1 1-1h2v-6h-1.842l.842 2.664v.23c0 .996-.681 1.92-1.665 2.079-1.253.203-2.335-.758-2.335-1.973zm15 0c-1.654 0-3 1.346-3 3v5.184c-.266-.094-.542-.164-.832-.18-.794-.044-1.567.226-2.173.769l-3.009 2.768c-.082-.084-.16-.172-.247-.252l-2.744-2.525c-.844-.756-1.996-.931-2.996-.579v-5.186c0-1.654-1.346-3-3-3s-3 1.346-3 3v10.101c0 1.592.469 3.133 1.356 4.457.309.462.935.578 1.388.273.458-.308.581-.929.273-1.388-.666-.992-1.018-2.148-1.018-3.342v-10.101c0-.551.449-1 1-1s1 .449 1 1v8c0 .718.241 1.391.747 1.972l2.616 2.721c.383.4 1.017.411 1.414.028.398-.383.411-1.016.028-1.414l-2.57-2.671c-.317-.377-.308-.938.021-1.305.367-.41.999-.443 1.397-.086l2.734 2.516c1.014.933 1.601 2.254 1.615 3.631l-.052.505c-.057.549.341 1.061.892 1.097.852.057 1.043-.341 1.098-.892.006-.079.066-.592.063-.662 0-1.152-.294-2.275-.824-3.276l3.163-2.911c.391-.367 1.058-.329 1.406.077.308.342.35.903.067 1.254l-2.533 2.634c-.383.398-.37 1.031.027 1.414.398.382 1.031.371 1.414-.027l2.578-2.685c.45-.536.673-1.195.688-1.857.002-.023.013-.042.013-.065v-8c0-.551.448-1 1-1s1 .449 1 1v10.101c0 1.194-.352 2.35-1.018 3.343-.307.458-.185 1.08.274 1.387.453.305 1.078.188 1.388-.274.887-1.323 1.355-2.864 1.355-4.456v-10.101c0-1.654-1.346-3-3-3z"/></svg>