<svg id="Layer_1" viewBox="0 0 24 24" xmlns="http://www.w3.org/2000/svg" data-name="Layer 1"><path d="m22.007 6.235 1.114-1.114c.566-.567.879-1.32.879-2.121s-.313-1.555-.878-2.121c-1.132-1.133-3.109-1.135-4.243 0l-1.109 1.11c-.138-.387-.354-.745-.647-1.053-.564-.594-1.359-.935-2.182-.935-1.591 0-2.906 1.239-2.995 2.822-.118 2.103-.4 3.976-.519 4.69-1.003.966-2.503 2.2-4.085 3.5-2.012 1.655-4.092 3.365-5.632 4.905-1.009 1.008-1.503 1.921-1.652 3.053-.172 1.311.317 2.685 1.308 3.674.865.866 1.989 1.342 3.139 1.342 1.3 0 2.501-.635 3.569-1.705 2.61-2.617 7.728-8.646 8.447-9.387.662-.172 2.572-.631 4.718-.816 1.574-.135 2.761-1.427 2.761-3.004 0-.84-.354-1.649-.97-2.219-.298-.276-.648-.485-1.023-.621zm-15.369 14.654c-.914.908-1.44 1.036-1.899 1.085-.691.074-1.419-.203-1.958-.743-.555-.554-.831-1.302-.74-2 .074-.564.287-1.103 1.084-1.898 1.471-1.471 3.514-3.15 5.488-4.774.715-.588 1.414-1.163 2.063-1.709-.883 3.47-2.493 8.311-4.038 10.04zm7.55-8.411c-.5.562-2.406 2.804-2.857 3.327 1.148-3.451 1.878-6.959 2.008-7.606 0-.003 0-.007.002-.01v-.002s0-.006.002-.009c.023-.13.443-2.46.599-5.243.03-.524.469-.934.999-.934.28 0 .54.111.731.312.188.198.284.457.27.73-.117 2.291-.503 6.532-1.754 9.434zm6.879-2.39c-1.294.111-2.479.311-3.412.499l2.439-2.439c.259-.039.538-.069.818-.091.276-.021.55.073.76.266.212.196.328.463.328.752 0 .531-.401.966-.933 1.012zm.64-6.381-4.258 4.258c.175-1.102.297-2.189.381-3.208l2.463-2.464c.381-.378 1.036-.377 1.414 0 .189.188.293.439.293.707s-.104.518-.293.707z"/></svg>