<svg id="Layer_1" viewBox="0 0 24 24" xmlns="http://www.w3.org/2000/svg" data-name="Layer 1"><path d="m24 11c0 .552-.448 1-1 1h-12c-.552 0-1-.448-1-1s.448-1 1-1h1.026l3.273-4h-7.299v.3c0 .938-.763 1.7-1.7 1.7h-1.3v14h2c.552 0 1 .448 1 1s-.448 1-1 1h-6c-.552 0-1-.448-1-1s.448-1 1-1h2v-14.155c-.588-.268-1-.858-1-1.545v-.3h-1c-.552 0-1-.448-1-1s.448-1 1-1h1v-.3c0-.687.412-1.277 1-1.545v-1.155c0-.552.448-1 1-1s1 .448 1 1v1.086c.501.12.964.368 1.337.741l.835.835c.104.104.192.221.277.337h15.55c.552 0 1 .448 1 1s-.448 1-1 1h-4.299l3.273 4h1.026c.552 0 1 .448 1 1zm-18-5.341c0-.22-.085-.427-.241-.583l-.835-.835c-.156-.156-.362-.241-.583-.241h-.341v2h2zm8.61 4.341h4.779l-2.39-2.921-2.39 2.921zm9.39 7.5v3c0 1.93-1.57 3.5-3.5 3.5h-7c-1.93 0-3.5-1.57-3.5-3.5v-3c0-1.93 1.57-3.5 3.5-3.5h7c1.93 0 3.5 1.57 3.5 3.5zm-2 0c0-.827-.673-1.5-1.5-1.5h-7c-.827 0-1.5.673-1.5 1.5v3c0 .827.673 1.5 1.5 1.5h7c.827 0 1.5-.673 1.5-1.5zm-5.5 2v-1c0-.552-.448-1-1-1h-1c-.552 0-1 .448-1 1v1c0 .552.448 1 1 1h1c.552 0 1-.448 1-1zm4 0v-1c0-.552-.448-1-1-1h-1c-.552 0-1 .448-1 1v1c0 .552.448 1 1 1h1c.552 0 1-.448 1-1z"/></svg>