<svg id="Layer_1" viewBox="0 0 24 24" xmlns="http://www.w3.org/2000/svg" data-name="Layer 1"><path d="m9 22h-6c-.552 0-1-.448-1-1v-9h2.343c1.336 0 2.592-.52 3.536-1.464l2.707-2.708c.752-.751 1.959-.783 2.747-.077.184.165.421.255.667.255l4.999-.006c1.091 0 2.097.593 2.625 1.547.269.483.877.658 1.359.39.483-.268.658-.876.391-1.359-.882-1.59-2.558-2.578-4.376-2.578l-4.647.006c-.415-.302-.875-.508-1.352-.631v-.375l3.53-1.652c.627-.392.627-1.304 0-1.696l-3.199-1.498c-.217-.102-.454-.154-.693-.154-.904 0-1.636.732-1.636 1.636v3.735c-.472.121-.922.335-1.331.629h-4.67c-2.757 0-5 2.243-5 5v10c0 1.654 1.346 3 3 3h6c.553 0 1-.447 1-1s-.447-1-1-1zm-4-14h2.586l-1.121 1.122c-.566.566-1.32.878-2.122.878h-2.159c.414-1.161 1.514-2 2.816-2zm2 7c0 .553-.447 1-1 1h-1c-.553 0-1-.447-1-1s.447-1 1-1h1c.553 0 1 .447 1 1zm0 4c0 .553-.447 1-1 1h-1c-.553 0-1-.447-1-1s.447-1 1-1h1c.553 0 1 .447 1 1zm10-9c-3.859 0-7 3.141-7 7s3.141 7 7 7 7-3.141 7-7-3.141-7-7-7zm0 12c-2.757 0-5-2.243-5-5s2.243-5 5-5 5 2.243 5 5-2.243 5-5 5zm3.222-6.212c.382.398.369 1.031-.029 1.414l-2.213 2.124c-.452.446-1.052.671-1.653.671s-1.203-.225-1.663-.674l-1.132-1.109c-.395-.387-.4-1.02-.014-1.414.386-.395 1.019-.401 1.414-.014l1.131 1.108c.144.142.379.139.522-.002l2.223-2.134c.397-.381 1.031-.37 1.414.029z"/></svg>