<svg id="Layer_1" viewBox="0 0 24 24" xmlns="http://www.w3.org/2000/svg" data-name="Layer 1"><path d="m6.874 16.515h-1.374v-1.415h1.298c.394 0 .715.321.715.715 0 .368-.282.66-.639.7zm.364 1.6h-1.752l.013 1.785h1.738c.493 0 .893-.401.893-.893 0-.492-.401-.892-.893-.892zm5.762-.615c0 3.59-2.91 6.5-6.5 6.5s-6.5-2.91-6.5-6.5 2.91-6.5 6.5-6.5 6.5 2.91 6.5 6.5zm-3.269 1.507c0-.734-.481-1.507-1.058-1.843.275-.381.441-.844.441-1.349 0-1.106-.803-2.022-1.84-2.252v-.261c-.001-.443-.361-.802-.804-.802s-.8.356-.804.798v.202h-.666c-.552 0-1 .448-1 1v6c0 .552.448 1 1 1h.7v.2c0 .442.358.8.8.8s.8-.358.8-.8v-.2l.231-.029c1.237-.146 2.2-1.187 2.2-2.463zm14.269-15.007v16c0 2.28-3.225 4-7.5 4-.731 0-1.454-.053-2.147-.155-.546-.081-.923-.59-.842-1.137.082-.545.593-.913 1.137-.842.596.089 1.219.134 1.853.134 3.307 0 5.5-1.204 5.5-2v-1.231c-1.349.765-3.28 1.231-5.5 1.231-.18 0-.358-.003-.535-.01-.553-.02-.983-.482-.964-1.034.02-.553.519-1.006 1.034-.964.153.005.309.008.465.008 3.307 0 5.5-1.204 5.5-2v-1.231c-1.349.765-3.28 1.231-5.5 1.231-.18 0-.358-.003-.535-.01-.553-.02-.983-.482-.964-1.034.02-.553.519-1.009 1.034-.964.153.005.309.008.465.008 3.307 0 5.5-1.204 5.5-2v-1.231c-1.349.765-3.28 1.231-5.5 1.231-4.275 0-7.5-1.72-7.5-4v-4c0-2.28 3.225-4 7.5-4s7.5 1.72 7.5 4zm-13 0c0 .796 2.193 2 5.5 2s5.5-1.204 5.5-2-2.193-2-5.5-2-5.5 1.204-5.5 2zm11 4v-1.231c-1.349.765-3.28 1.231-5.5 1.231s-4.151-.466-5.5-1.231v1.231c0 .796 2.193 2 5.5 2s5.5-1.204 5.5-2z"/></svg>