<svg id="Layer_1" viewBox="0 0 24 24" xmlns="http://www.w3.org/2000/svg" data-name="Layer 1"><path d="m16.5 7h-13c-1.93 0-3.5 1.57-3.5 3.5 0 1.391.822 2.585 2 3.149v9.351c0 .553.448 1 1 1s1-.447 1-1v-3h7v3c0 .553.448 1 1 1s1-.447 1-1v-3h3v3c0 .553.447 1 1 1s1-.447 1-1v-9.351c1.178-.564 2-1.758 2-3.149 0-1.93-1.57-3.5-3.5-3.5zm-12.5 7h3v4h-3zm5 4v-4h7v4zm7.5-6h-13c-.827 0-1.5-.673-1.5-1.5s.673-1.5 1.5-1.5h13c.827 0 1.5.673 1.5 1.5s-.673 1.5-1.5 1.5zm7.5-8c0 1.424-.766 2.751-1.999 3.464-.47.274-1.089.118-1.366-.364-.277-.479-.113-1.09.364-1.366.617-.357 1.001-1.021 1.001-1.733 0-1.103-.897-2-2-2-.551 0-.967.236-1.22.434-.382.302-.926.282-1.286-.043-.198-.179-.531-.391-.994-.391-.394 0-.767.153-1.049.431-.389.383-1.014.383-1.402 0-.564-.555-1.532-.555-2.098 0-.389.383-1.013.383-1.401 0-.283-.277-.656-.431-1.049-.431-.827 0-1.5.673-1.5 1.5v.5c0 .553-.448 1-1 1s-1-.447-1-1v-.5c0-1.93 1.57-3.5 3.5-3.5.623 0 1.223.163 1.75.47 1.054-.613 2.445-.613 3.5 0 1.029-.599 2.384-.62 3.44-.025.561-.292 1.175-.444 1.81-.444 2.206 0 4 1.794 4 4z"/></svg>