<svg id="Layer_1" viewBox="0 0 24 24" xmlns="http://www.w3.org/2000/svg" data-name="Layer 1"><path d="m15 3h-5c-1.398 0-2.701-.967-3.032-2.25-.138-.535-.683-.856-1.218-.719-.535.138-.856.683-.719 1.218.478 1.855 2.07 3.276 3.968 3.652v9.099c0 2.176-3.212 3.022-3.243 3.03-.197.049-.37.156-.5.301-1.897.711-3.257 2.527-3.257 4.669v1c0 .553.448 1 1 1s1-.447 1-1v-1c0-1.305.843-2.406 2.008-2.818.167.104.341.21.504.312 2.011 1.275 3.911 2.479 8.486 2.505h.04c1.835 0 3.569-.72 4.886-2.029 1.338-1.331 2.076-3.096 2.076-4.97v-5c0-3.86-3.14-7-7-7zm0 2c2.757 0 5 2.243 5 5v1.322c-.541-.183-1.2-.322-2-.322-1.185 0-1.971.301-2.664.566-.608.233-1.134.434-1.949.434-1.055 0-1.908-.336-2.387-.576v-6.424zm3.514 13.552c-.946.94-2.182 1.429-3.504 1.447-3.579-.021-5.167-.789-6.831-1.818 1.317-.731 2.821-2.035 2.821-4.181v-.415c.648.226 1.457.415 2.387.415 1.185 0 1.971-.301 2.664-.566.608-.232 1.134-.434 1.949-.434.992 0 1.652.292 2 .501v1.499c0 1.338-.528 2.599-1.486 3.552zm-15.936-6.91-1.156-3.884c-.093-.317.026-.658.297-.847l1.135-.795c.363-.254.868-.075.988.352l.563 2.374 1.654-1.159c.391-.274.929-.002.941.475v4.844c-.005.151-.073.294-.189.392-.294.249-.747.113-.856-.256l-.856-2.365-1.591 1.179c-.335.235-.801.079-.929-.309z"/></svg>