<?xml version="1.0" encoding="UTF-8"?>
<svg xmlns="http://www.w3.org/2000/svg" id="Layer_1" data-name="Layer 1" viewBox="0 0 24 24">
  <path d="M8,11c-1.381,0-2.5-1.119-2.5-2.5s1.119-2.5,2.5-2.5,2.5,1.119,2.5,2.5-1.119,2.5-2.5,2.5Zm15,0c-.553,0-1,.448-1,1v3c0,1.654-1.346,3-3,3H5c-1.654,0-3-1.346-3-3V7c0-1.654,1.346-3,3-3h6c.552,0,1-.448,1-1s-.448-1-1-1H5C2.243,2,0,4.243,0,7V15c0,2.757,2.243,5,5,5h6v2H7c-.552,0-1,.447-1,1s.448,1,1,1h10c.553,0,1-.447,1-1s-.447-1-1-1h-4v-2h6c2.757,0,5-2.243,5-5v-3c0-.552-.447-1-1-1ZM4.063,14.649c-.194,.517,.068,1.093,.585,1.287,.519,.193,1.094-.067,1.288-.586,.303-.808,1.132-1.351,2.063-1.351s1.761,.543,2.063,1.351c.193,.524,.784,.777,1.288,.586,.517-.194,.779-.771,.585-1.287-.594-1.585-2.176-2.649-3.937-2.649s-3.343,1.064-3.937,2.649ZM24,3v3c0,1.654-1.346,3-3,3h-2.647l-2.127,1.711c-.462,.322-.997,.382-1.48,.133-.457-.238-.742-.706-.744-1.221V3.001C14,1.347,15.346,.001,17,.001h3.999c1.614-.035,3.034,1.385,3.001,2.999Zm-2,0c.011-.538-.461-1.011-1-1h-4c-.552,.001-1,.45-1,1.001v5.325s1.373-1.106,1.373-1.106c.178-.143,.399-.221,.627-.221h3c.552,0,1-.449,1-1V3Z"/>
</svg>
