<svg id="Layer_1" viewBox="0 0 24 24" xmlns="http://www.w3.org/2000/svg" data-name="Layer 1"><path d="m24 13c0 .97-.701 2-2 2h-.33l-.219 1.655c-.328 2.478-2.459 4.345-4.957 4.345h-.494c0 1.654-1.346 3-3 3h-7c-1.654 0-3-1.346-3-3v-.971c0-.896-.263-1.731-.739-2.355-1.678-2.191-2.465-4.922-2.215-7.691.037-.4.095-.794.173-1.181.11-.541.637-.893 1.179-.782.542.109.892.637.782 1.178-.064.317-.112.639-.142.966-.205 2.267.438 4.503 1.811 6.294.742.971 1.151 2.239 1.151 3.571v.971c0 .552.448 1 1 1h7c.552 0 1-.448 1-1v-1c0-.553.447-1 1-1h1.494c1.499 0 2.777-1.121 2.975-2.607l.334-2.523c.065-.497.489-.869.991-.869h1.206c-.082-.807-2.458-5.721-3.777-7.353-1.93-2.575-4.951-3.912-8.126-3.603-.536.055-1.039-.349-1.092-.898-.054-.55.349-1.039.898-1.092.35-.034.75-.054 1.097-.054 3.462 0 6.681 1.59 8.801 4.418 1.268 1.567 4.199 7.162 4.199 8.582zm-23-8c.256 0 .512-.098.707-.293l.793-.793 1.125 1.125c-.816.773-.836 2.073-.039 2.868l3.922 3.922c.75.75 1.768 1.172 2.828 1.172h1.25l.707.707c.391.391 1.023.391 1.414 0s.391-1.023 0-1.414l-.707-.707v-1.25c0-.673-.187-1.32-.502-1.901l-1.272 1.272c-.39.39-1.024.39-1.414 0-.39-.391-.39-1.024 0-1.414l1.401-1.401-1.574-1.574-1.432 1.432c-.39.39-1.024.39-1.414 0-.39-.391-.39-1.024 0-1.414l1.432-1.432-.318-.318c-.794-.797-2.095-.777-2.868.039l-1.125-1.125.793-.793c.391-.391.391-1.023 0-1.414s-1.023-.392-1.414-.001l-3 3c-.391.391-.391 1.023 0 1.414.195.195.451.293.707.293z"/></svg>