<svg id="Layer_1" viewBox="0 0 24 24" xmlns="http://www.w3.org/2000/svg" data-name="Layer 1"><path d="m10 2c0-1.105.895-2 2-2s2 .895 2 2-.895 2-2 2-2-.895-2-2zm2 18c-1.105 0-2 .895-2 2s.895 2 2 2 2-.895 2-2-.895-2-2-2zm-2.5-10.4c-.221 0-.4.179-.4.4v4c0 .221.179.4.4.4s.4-.179.4-.4v-4c0-.221-.179-.4-.4-.4zm9 0c-.221 0-.4.179-.4.4v4c0 .221.179.4.4.4s.4-.179.4-.4v-4c0-.221-.179-.4-.4-.4zm5.5 12.4c0 .552-.447 1-1 1h-6c-.293 0-.571-.128-.761-.351s-.273-.518-.227-.807c.014-.084.013-.298-.141-.781-.145-.455.052-.948.47-1.179.897-.495 1.672-1.143 2.336-1.882h-13.355c.664.739 1.439 1.386 2.336 1.882.418.23.614.724.47 1.179-.153.483-.154.697-.141.781.047.29-.036.584-.227.807-.189.223-.468.351-.761.351h-5.999c-.553 0-1-.448-1-1s.447-1 1-1h4.679c-1.565-1.1-2.785-2.584-3.592-4.274-.704-1.474-1.081-3.088-1.087-4.726.006-1.638.383-3.252 1.087-4.726.807-1.69 2.027-3.174 3.592-4.274h-4.679c-.553 0-1-.448-1-1s.447-1 1-1h6c.293 0 .571.128.761.351s.273.518.227.807c-.014.084-.013.298.141.781.145.455-.052.948-.47 1.179-.897.495-1.672 1.143-2.336 1.882h13.356c-.664-.739-1.439-1.386-2.336-1.882-.418-.23-.614-.724-.47-1.179.153-.483.154-.697.141-.781-.047-.29.036-.584.227-.807.189-.223.468-.351.761-.351h6c.553 0 1 .448 1 1s-.447 1-1 1h-4.679c1.565 1.1 2.785 2.584 3.592 4.274.704 1.474 1.081 3.088 1.087 4.726-.006 1.638-.383 3.252-1.087 4.726-.807 1.69-2.027 3.174-3.592 4.274h4.679c.553 0 1 .448 1 1zm-17-6.8c0-.442-.358-.8-.8-.8h-.601v-5.601c0-.442-.358-.8-.8-.8s-.8.358-.8.8v6.4c0 .442.358.8.8.8h1.4c.442 0 .8-.358.8-.8zm4.5-5.2c0-1.103-.897-2-2-2s-2 .897-2 2v4c0 1.103.897 2 2 2s2-.897 2-2zm2.1 4v-4c0-.221.18-.4.4-.4s.4.18.4.4c0 .442.358.8.8.8s.8-.358.8-.8c0-1.103-.897-2-2-2s-2 .897-2 2v4c0 1.103.897 2 2 2s2-.897 2-2v-1.184c0-.442-.358-.816-.8-.816h-.533c-.441 0-.8.375-.8.816 0 .348.223.645.533.754v.429c0 .221-.18.4-.4.4s-.4-.18-.4-.4zm4.9 2c1.103 0 2-.897 2-2v-4c0-1.103-.897-2-2-2s-2 .897-2 2v4c0 1.103.897 2 2 2z"/></svg>