<svg id="Layer_1" viewBox="0 0 24 24" xmlns="http://www.w3.org/2000/svg" data-name="Layer 1"><path d="m11 16v-3.759c0-.317-.213-.6-.518-.687l-1.569-.448c-.924-.293-1.939.475-1.913 1.442v3.469c0 .698.469 1.319 1.14 1.511l2.22.634c.531.152.839.705.687 1.236-.15.536-.719.838-1.236.688l-2.22-.634c-1.525-.437-2.591-1.849-2.591-3.435v-3.469c-.064-2.257 2.31-4.046 4.462-3.365l1.569.448c.362.103.689.279.969.508.279-.229.607-.404.968-.508l1.57-.448c1.26-.361 2.604.008 3.506.961.38.401.363 1.034-.039 1.414-.4.38-1.033.364-1.414-.039-.388-.41-.964-.569-1.504-.414l-1.57.448c-.305.087-.518.37-.518.687v3.759c0 .553-.448 1-1 1s-1-.447-1-1zm12.121 1.121-5.707 5.707c-.755.756-1.76 1.172-2.828 1.172h-1.586c-.552 0-1-.447-1-1v-1.586c0-1.068.417-2.073 1.172-2.828l5.707-5.707c1.133-1.134 3.109-1.134 4.243 0 1.169 1.17 1.169 3.072 0 4.242zm-1.414-2.828c-.378-.379-1.037-.379-1.414 0l-5.708 5.707c-.378.378-.586.88-.586 1.414v.586h.586c.526 0 1.042-.214 1.414-.586l5.707-5.707c.39-.39.39-1.024 0-1.414zm-12.707 7.707h-4c-1.654 0-3-1.346-3-3v-8.516c0-.928.419-1.789 1.15-2.362l7-5.484c1.089-.854 2.611-.853 3.7 0l7 5.485c.416.325.739.757.936 1.248.205.513.789.762 1.3.558.513-.205.763-.787.558-1.3-.327-.818-.867-1.538-1.56-2.081l-7.001-5.484c-1.815-1.422-4.352-1.422-6.167 0l-6.999 5.484c-1.218.954-1.917 2.389-1.917 3.936v8.516c0 2.757 2.243 5 5 5h4c.552 0 1-.447 1-1s-.448-1-1-1z"/></svg>