<svg id="Layer_1" viewBox="0 0 24 24" xmlns="http://www.w3.org/2000/svg" data-name="Layer 1"><path d="m24 15v4c0 2.757-2.243 5-5 5h-14c-2.757 0-5-2.243-5-5v-11c0-2.757 2.243-5 5-5h4c.553 0 1 .448 1 1s-.447 1-1 1h-4c-1.148 0-2.135.655-2.639 1.604l7.518 7.518c1.133 1.133 3.109 1.133 4.242 0l.885-.885c.391-.391 1.023-.391 1.414 0s.391 1.023 0 1.414l-.885.885c-.944.944-2.199 1.464-3.535 1.464s-2.591-.52-3.535-1.464l-6.465-6.465v9.929c0 1.654 1.346 3 3 3h14c1.654 0 3-1.346 3-3v-4c0-.552.447-1 1-1s1 .448 1 1zm-9.27-7.673-.941 3.016c-.127.405.015.846.354 1.101.34.255.804.267 1.156.031l2.708-1.812 2.754 1.793c.355.231.819.213 1.156-.046s.473-.703.339-1.106l-.979-2.98 2.366-1.927c.321-.271.439-.713.295-1.108s-.52-.657-.939-.657h-3.001l-1.062-2.98c-.146-.391-.52-.651-.937-.651s-.792.26-.937.651l-1.062 2.98h-3.001c-.419 0-.794.262-.938.655-.145.394-.028.835.292 1.107l2.377 1.934z"/></svg>