<svg id="Layer_1" viewBox="0 0 24 24" xmlns="http://www.w3.org/2000/svg" data-name="Layer 1"><path d="m9.43 15.423c.319-.493.492-1.061.561-1.511.081-.526-.377-.983-.902-.902-.6.092-1.409.367-1.971.93-.2.2-.352.434-.482.676-.146-.422-.313-.792-.459-1.074-.254-.49-.857-.685-1.348-.43-.491.253-.683.857-.43 1.348.078.15.162.338.244.541h-.234c-2.431 0-4.409 2.019-4.409 4.5s1.978 4.5 4.409 4.5c.543 0 1.085-.104 1.591-.304.506.2 1.047.304 1.591.304 2.431 0 4.409-2.019 4.409-4.5 0-1.81-1.058-3.363-2.57-4.077zm-1.839 6.577c-.392 0-.766-.096-1.113-.284-.149-.081-.313-.122-.478-.122s-.329.041-.478.122c-.347.188-.722.284-1.113.284-1.329 0-2.409-1.122-2.409-2.5s1.081-2.5 2.409-2.5h3.182c1.329 0 2.409 1.122 2.409 2.5s-1.081 2.5-2.409 2.5zm12.909-17h-3.867l.266-2.124c.062-.5.489-.876.992-.876h3.108c.552 0 1-.448 1-1s-.448-1-1-1h-3.108c-1.509 0-2.789 1.129-2.977 2.627l-.297 2.373h-4.618c-2.206 0-4 1.794-4 4v1c0 .552.448 1 1 1s1-.448 1-1v-1c0-1.103.897-2 2-2h7.351c-.219.456-.351.961-.351 1.5v12c0 .537.122 1.045.338 1.5h-3.838c-.552 0-1 .448-1 1s.448 1 1 1h7.001c1.929 0 3.499-1.571 3.499-3.5v-12c0-1.93-1.57-3.5-3.5-3.5zm1.5 15.5c0 .827-.673 1.5-1.5 1.5s-1.5-.673-1.5-1.5v-12c0-.827.673-1.5 1.5-1.5s1.5.673 1.5 1.5z"/></svg>