<svg id="Layer_1" viewBox="0 0 24 24" xmlns="http://www.w3.org/2000/svg" data-name="Layer 1"><path d="m10 12h-3c-1.654 0-3 1.346-3 3v2c0 1.654 1.346 3 3 3h3c1.42 0 2.606-.994 2.916-2.321l1.46 1.117c.669.502 1.625.024 1.625-.812v-3.939c0-.836-.956-1.314-1.625-.812l-1.458 1.094c-.308-1.329-1.495-2.326-2.917-2.326zm1 5c0 .551-.449 1-1 1h-3c-.551 0-1-.449-1-1v-2c0-.551.449-1 1-1h3c.551 0 1 .449 1 1zm4.216-6.337c.77.449 1.684.447 2.464.007l5.069-3.03c.783-.441 1.251-1.241 1.251-2.139s-.468-1.698-1.229-2.126l-5.114-3.057c-.769-.432-1.68-.423-2.441.02-.762.445-1.216 1.237-1.216 2.119v6.087c0 .882.454 1.674 1.216 2.119zm.784-8.206c0-.375.33-.592.654-.409l5.114 3.057c.332.262.332.542-.022.805l-5.069 3.03c-.378.148-.677.005-.677-.396zm8 8.543v8c0 2.757-2.243 5-5 5h-14c-2.757 0-5-2.243-5-5v-12c0-2.757 2.243-5 5-5h2.528c.463 0 .927.109 1.341.316l2.578 1.289c.494.247.694.848.447 1.342s-.847.696-1.342.447l-2.578-1.289c-.138-.069-.293-.105-.447-.105h-2.528c-1.654 0-3 1.346-3 3v1h9.001c.552 0 1 .448 1 1s-.448 1-1 1h-9v9c0 1.654 1.346 3 3 3h14c1.654 0 3-1.346 3-3v-8c0-.552.447-1 1-1s1 .448 1 1z"/></svg>