<?xml version="1.0" encoding="UTF-8"?>
<svg xmlns="http://www.w3.org/2000/svg" id="Layer_1" data-name="Layer 1" viewBox="0 0 24 24">
  <path d="M10.631,12.511c.851,.648,2.04,.649,2.891,0,1.545-1.178,5.555-4.95,5.555-8.211,0-2.371-1.794-4.3-4-4.3-1.161,0-2.266,.564-3.032,1.417-.726-.861-1.797-1.417-2.968-1.417-2.206,0-4,1.929-4,4.3,0,3.262,4.009,7.033,5.554,8.211Zm-1.554-10.511c1.101,0,1.923,1.056,1.923,2,0,.552,.448,1,1,1s1-.448,1-1c0-.906,.927-2,2.077-2,1.103,0,2,1.032,2,2.3,0,2.11-3.105,5.353-4.768,6.62-.14,.106-.327,.105-.465,0-1.663-1.267-4.767-4.51-4.767-6.62,0-1.268,.897-2.3,2-2.3Zm14.923,16c0,.553-.447,1-1,1v2c0,.553-.447,1-1,1s-1-.447-1-1v-6c0-.553,.447-1,1-1s1,.447,1,1v2c.553,0,1,.447,1,1Zm-4-5v10c0,.553-.447,1-1,1s-1-.447-1-1v-4H6v4c0,.553-.448,1-1,1s-1-.447-1-1V13c0-.552,.448-1,1-1s1,.448,1,1v4h12v-4c0-.552,.447-1,1-1s1,.448,1,1ZM3,15v6c0,.553-.448,1-1,1s-1-.447-1-1v-2c-.552,0-1-.447-1-1s.448-1,1-1v-2c0-.553,.448-1,1-1s1,.447,1,1Z"/>
</svg>
