<svg id="Layer_1" viewBox="0 0 24 24" xmlns="http://www.w3.org/2000/svg" data-name="Layer 1"><path d="m19.562 6.768-13.414-3.618c-2.597-.706-5.471 1.023-6.065 3.648-.363 1.465.502 2.949 1.917 3.376v1.826c0 1.654 1.346 3 3 3h10v3h-14c-.552 0-1 .447-1 1s.448 1 1 1h20c1.654 0 3-1.346 3-3v-4.439c0-2.707-1.825-5.088-4.438-5.793zm-17.537.511c.348-1.566 2.083-2.61 3.621-2.194l13.396 3.613c1.559.42 2.697 1.737 2.919 3.302h-5.825l-13.511-3.718c-.44-.112-.71-.562-.601-1.002zm1.975 4.721v-1.266l8.233 2.266h-7.233c-.551 0-1-.449-1-1zm17 6h-4v-4h5v3c0 .552-.449 1-1 1zm0-2.019c0 .828-.672 1.5-1.5 1.5s-1.5-.672-1.5-1.5.672-1.5 1.5-1.5 1.5.672 1.5 1.5z"/></svg>