<svg id="Layer_1" viewBox="0 0 24 24" xmlns="http://www.w3.org/2000/svg" data-name="Layer 1"><path d="m10.498 16.053 4.002-.053c.553 0 1 .448 1 1s-.447 1-1 1h-4c-.745 0-1.423-.413-1.769-1.078-.338-.65-.288-1.424.13-2.019.528-.751 1.328-1.377 2.102-1.981 1.305-1.021 2.537-1.984 2.537-3.422 0-.423-.18-.829-.494-1.113-.318-.288-.732-.425-1.164-.379-.612.061-1.132.554-1.293 1.226-.129.538-.67.869-1.207.738-.536-.129-.867-.669-.738-1.206.361-1.498 1.582-2.602 3.039-2.748.989-.101 1.974.224 2.705.886.732.663 1.152 1.609 1.152 2.596 0 2.413-1.833 3.846-3.306 4.997-.688.539-1.339 1.047-1.696 1.556zm-3.019-9.931c-.482-.264-1.092-.086-1.356.399l-2.122 3.891-2.123-3.891c-.265-.485-.874-.663-1.356-.399-.485.265-.664.872-.399 1.357l2.878 5.276v4.245c0 .552.447 1 1 1s1-.448 1-1v-4.245l2.878-5.276c.265-.485.086-1.092-.399-1.357zm14.598 5.878 1.851-4.628c.205-.513-.045-1.095-.558-1.3-.51-.204-1.096.044-1.3.557l-1.748 4.372h-1.323v-4.001c0-.552-.447-1-1-1s-1 .448-1 1v10c0 .552.447 1 1 1s1-.448 1-1v-4h1.322l1.749 4.372c.205.518.801.761 1.3.557.513-.206.763-.787.558-1.3l-1.851-4.628z"/></svg>