<svg id="Layer_1" viewBox="0 0 24 24" xmlns="http://www.w3.org/2000/svg" data-name="Layer 1"><path d="m22.969 9.25c-.637-.353-1.414-.331-2.098.102l-4.871 3.649v-2.001c0-.728-.395-1.397-1.031-1.75s-1.414-.331-2.098.102l-4.871 3.649v-6.001c.552 0 1-.447 1-1s-.448-1-1-1h-7c-.552 0-1 .447-1 1s.448 1 1 1v12c0 2.757 2.243 5 5 5h13c2.757 0 5-2.243 5-5v-8c0-.728-.395-1.397-1.031-1.75zm-.969 9.75c0 1.654-1.346 3-3 3h-13c-1.654 0-3-1.346-3-3v-12h3v11c0 .553.448 1 1 1s1-.447 1-1v-2.5l6-4.5v4c0 .379.214.725.553.895.338.167.744.132 1.047-.094l6.4-4.801zm-4-1v-1c0-.553.448-1 1-1s1 .447 1 1v1c0 .553-.448 1-1 1s-1-.447-1-1zm-6-1v1c0 .553-.448 1-1 1s-1-.447-1-1v-1c0-.553.448-1 1-1s1 .447 1 1zm-5.243-14.003c.803.072 2.434.269 3.181.748.25.292.333.519.467.762.623 1.07 1.893 1.664 3.107 1.447.92.942 2.389 1.29 3.644.849.742.762 1.754 1.197 2.844 1.197 2.206 0 4-1.794 4-4s-1.794-4-4-4c-.745 0-1.46.203-2.081.583-1.017-.677-2.387-.764-3.473-.212-.438-.242-.933-.371-1.447-.371h-1.346c-1.151 0-3.968.484-5.295 1.452-.634.462-.384 1.475.398 1.544zm6.243-.997c.266 0 .517.104.707.293.366.365.948.39 1.345.061.194-.161.516-.354.949-.354s.834.188 1.128.527c.181.21.442.336.719.346.271.028.546-.095.743-.29.377-.376.878-.583 1.41-.583 1.103 0 2 .897 2 2s-.897 2-2 2c-.7 0-1.337-.365-1.706-.977-.144-.237-.379-.405-.651-.462-.272-.058-.556.002-.783.162-.689.486-1.696.272-2.136-.45-.269-.441-.83-.606-1.293-.379-.503.245-1.035.061-1.325-.449-.139-.28-.454-.899-1.096-1.445z"/></svg>