<svg id="Layer_1" viewBox="0 0 24 24" xmlns="http://www.w3.org/2000/svg" data-name="Layer 1"><path d="m17.393 21.482c.249.493.051 1.094-.442 1.343-1.544.779-3.21 1.175-4.95 1.175-2.52 0-4.837-.861-6.694-2.291-.414.158-1.246.128-1.306 1.291 0 .553-.448 1-1 1s-1-.447-1-1c0-1.518.83-2.378 1.681-2.825-1.666-1.928-2.681-4.433-2.681-7.175 0-1.741.395-3.406 1.175-4.951.249-.492.85-.691 1.343-.442s.691.85.442 1.343c-.637 1.262-.96 2.625-.96 4.049 0 4.963 4.038 9 9 9 1.425 0 2.787-.323 4.05-.96.492-.25 1.094-.052 1.343.442zm1.822-19.482c1.809 0 2.785 1.288 2.785 2.5 0 .552.447 1 1 1s1-.448 1-1c0-2.523-2.102-4.5-4.785-4.5-.553 0-1 .448-1 1s.447 1 1 1zm4.492 20.293c.391.391.391 1.023 0 1.414s-1.023.391-1.414 0l-22-22c-.391-.391-.391-1.023 0-1.414s1.023-.391 1.414 0l.43.43c.767-.47 1.681-.723 2.648-.723.552 0 1 .448 1 1s-.448 1-1 1c-.42 0-.808.075-1.16.211l1.901 1.901c1.604-1.169 3.496-1.885 5.474-2.065v-1.047c0-.552.448-1 1-1s1 .448 1 1v1.051c5.598.508 10 5.221 10 10.949 0 2.334-.747 4.6-2.112 6.474zm-16.744-16.744 4.037 4.037v-2.586c0-.552.448-1 1-1s1 .448 1 1v4.586l.414.414h3.586c.553 0 1 .448 1 1s-.447 1-1 1h-1.586l4.037 4.037c1.001-1.481 1.549-3.233 1.549-5.037 0-4.962-4.037-9-9-9-1.804 0-3.556.548-5.037 1.549z"/></svg>