<svg id="Layer_1" viewBox="0 0 24 24" xmlns="http://www.w3.org/2000/svg" data-name="Layer 1"><path d="m10 23c0 .553-.448 1-1 1h-4.995c-1.17 0-2.279-.51-3.043-1.398-.753-.874-1.087-2.024-.917-3.157.406-2.699 1.885-5.198 4.401-7.444-2.518-2.247-3.997-4.746-4.402-7.445-.17-1.133.165-2.283.917-3.157.764-.889 1.874-1.399 3.044-1.399h9.99c1.169 0 2.279.508 3.043 1.396.752.873 1.087 2.023.917 3.154-.146.975-.44 1.941-.876 2.873-.234.5-.832.715-1.33.481-.5-.233-.716-.829-.482-1.329.354-.757.593-1.537.71-2.32.084-.563-.077-1.115-.455-1.554-.384-.446-.941-.702-1.528-.702h-9.989c-.587 0-1.144.257-1.528.703-.378.439-.54.991-.455 1.556.376 2.499 1.923 4.84 4.599 6.957.24.189.379.479.379.784s-.14.595-.379.784c-2.676 2.117-4.223 4.458-4.599 6.957-.084.564.077 1.116.455 1.556.384.446.941.702 1.528.702h4.995c.552 0 1 .449 1 1.001zm3.509-18.559c.186.275.223.626.098.934-.896 2.133-2.524 3.538-3.983 4.682-.364.29-.879.29-1.244.002-1.464-1.141-3.09-2.538-3.99-4.684-.125-.308-.087-.658.098-.934.186-.275.497-.44.829-.44h7.363c.333 0 .644.164.829.44zm-2.548 1.559h-3.928c.595.803 1.335 1.488 1.966 1.997.631-.513 1.369-1.198 1.962-1.997zm13.039 11c0 3.866-3.134 7-7 7s-7-3.134-7-7 3.134-7 7-7 7 3.134 7 7zm-3 1.897c.01-1.297-.916-2.397-2.193-2.61l-3.261-.544c-.289-.048-.523-.281-.544-.574-.026-.365.263-.67.622-.67h2.376c.367 0 .689.199.862.494.182.31.509.506.869.506.763 0 1.253-.825.874-1.487-.518-.903-1.491-1.513-2.605-1.513 0-.552-.448-1-1-1s-1 .448-1 1h-.315c-1.451 0-2.673 1.152-2.685 2.603-.01 1.297.915 2.397 2.192 2.61l3.286.548c.315.052.54.331.52.655-.02.334-.315.585-.649.585h-2.35c-.367 0-.688-.199-.862-.494-.182-.31-.509-.506-.869-.506-.763 0-1.253.825-.874 1.487.518.903 1.491 1.513 2.605 1.513 0 .552.448 1 1 1s1-.448 1-1h.315c1.451 0 2.673-1.152 2.685-2.603z"/></svg>