<svg id="Layer_1" viewBox="0 0 24 24" xmlns="http://www.w3.org/2000/svg" data-name="Layer 1"><path d="m2 15c0 .552.449 1 1 1h8c.552 0 1 .447 1 1s-.448 1-1 1h-8c-1.654 0-3-1.346-3-3 0-1.302.839-2.402 2-2.816v-7.184c0-2.757 2.243-5 5-5h10c2.757 0 5 2.243 5 5v1c0 .553-.448 1-1 1s-1-.447-1-1v-1c0-1.654-1.346-3-3-3h-10c-1.654 0-3 1.346-3 3v7h4.5c.265 0 .52.105.707.293l.707.707h1.086c.552 0 1 .447 1 1s-.448 1-1 1h-1.5c-.265 0-.52-.105-.707-.293l-.707-.707h-5.086c-.551 0-1 .448-1 1zm22-2v7c0 2.206-1.794 4-4 4h-2c-2.206 0-4-1.794-4-4v-7c0-2.206 1.794-4 4-4h2c2.206 0 4 1.794 4 4zm-2 0c0-1.103-.897-2-2-2h-2c-1.103 0-2 .897-2 2v7c0 1.103.897 2 2 2h2c1.103 0 2-.897 2-2zm-15-9c-.552 0-1 .447-1 1s.448 1 1 1h10c.552 0 1-.447 1-1s-.448-1-1-1zm13 9h-2c-.552 0-1 .447-1 1s.448 1 1 1h2c.552 0 1-.447 1-1s-.448-1-1-1zm0 3h-2c-.552 0-1 .447-1 1s.448 1 1 1h2c.552 0 1-.447 1-1s-.448-1-1-1zm-9-8h-4c-.552 0-1 .447-1 1s.448 1 1 1h4c.552 0 1-.447 1-1s-.448-1-1-1z"/></svg>