<svg id="Layer_1" viewBox="0 0 24 24" xmlns="http://www.w3.org/2000/svg" data-name="Layer 1"><path d="m.144 4.587c-.443-1.671.175-3.237 1.326-4.177.41-.335 1.03-.029 1.03.501v1.59c0 .828.672 1.5 1.5 1.5s1.5-.672 1.5-1.5v-1.59c0-.532.623-.835 1.035-.498.894.733 1.465 1.843 1.465 3.087 0 1.86-1.277 3.423-3 3.869v1.631c0 .553-.447 1-1 1s-1-.447-1-1v-1.623c-1.371-.335-2.493-1.425-2.856-2.79zm23.856 9.413c0 .553-.447 1-1 1h-6c-.553 0-1-.447-1-1s.447-1 1-1v-6c0-.552-.448-1-1-1s-1 .448-1 1v10c0 3.859-3.141 7-7 7s-7-3.141-7-7v-3c-.553 0-1-.447-1-1s.447-1 1-1h6c.553 0 1 .447 1 1s-.447 1-1 1v3c0 .552.448 1 1 1s1-.448 1-1v-10c0-3.859 3.141-7 7-7s7 3.141 7 7v6c.553 0 1 .447 1 1zm-11-1h-2v4c0 1.654-1.346 3-3 3s-3-1.346-3-3v-3h-2v3c0 2.757 2.243 5 5 5s5-2.243 5-5zm8-6c0-2.757-2.243-5-5-5s-5 2.243-5 5v4h2v-4c0-1.654 1.346-3 3-3s3 1.346 3 3v6h2zm.417 10.731c.668.812 1.583 1.924 1.583 3.269 0 1.654-1.346 3-3 3s-3-1.346-3-3c0-1.375.918-2.48 1.589-3.287.335-.444.852-.717 1.411-.713.563-.002 1.085.279 1.417.731zm-.417 3.269c0-.575-.548-1.289-1.005-1.85-.456.553-.995 1.256-.995 1.85 0 .552.448 1 1 1s1-.448 1-1z"/></svg>