<?xml version="1.0" encoding="UTF-8"?>
<svg xmlns="http://www.w3.org/2000/svg" id="Layer_1" data-name="Layer 1" viewBox="0 0 24 24">
  <path d="M22,1h-4c-.553,0-1,.447-1,1s.447,1,1,1h2.586l-3.833,3.833c-.791-.524-1.736-.833-2.753-.833-2.757,0-5,2.243-5,5,0,2.414,1.721,4.434,4,4.899v3.101h-2c-.553,0-1,.447-1,1s.447,1,1,1h2v2c0,.553,.447,1,1,1s1-.447,1-1v-2h2c.553,0,1-.447,1-1s-.447-1-1-1h-2v-3.101c2.279-.465,4-2.484,4-4.899,0-1.017-.309-1.962-.833-2.753l3.833-3.833v2.586c0,.553,.447,1,1,1s1-.447,1-1V3c0-1.103-.897-2-2-2ZM14,14c-1.654,0-3-1.346-3-3s1.346-3,3-3,3,1.346,3,3-1.346,3-3,3ZM7.483,5.461L3.423,3.339l2.515,3.759c.344,.488,.135,1.226-.412,1.464l-3.098,1.43,2.997,1.235c.528,.206,.778,.879,.509,1.379l-1.567,3.075,2.952-1.116c.517-.196,1.094,.065,1.289,.582s-.065,1.094-.582,1.289l-3.474,1.312c-1.424,.568-2.938-1.036-2.251-2.419l1.359-2.667-2.616-1.078c-1.338-.531-1.383-2.526-.088-3.116l2.668-1.231L1.128,3.502C.168,2.036,1.898,.22,3.385,1.062L7.53,3.229l1.171-2.199c.664-1.352,2.76-1.354,3.425-.002l1.016,2.024c.248,.494,.049,1.095-.445,1.342-.492,.25-1.096,.048-1.342-.445l-.942-1.878-1.583,2.974c-.258,.485-.86,.672-1.346,.417Z"/>
</svg>
