<svg id="Layer_1" viewBox="0 0 24 24" xmlns="http://www.w3.org/2000/svg" data-name="Layer 1"><path d="m19 2h-1v-1c0-.552-.447-1-1-1s-1 .448-1 1v1h-8v-1c0-.552-.447-1-1-1s-1 .448-1 1v1h-1c-2.757 0-5 2.243-5 5v12c0 2.757 2.243 5 5 5h1c.553 0 1-.447 1-1s-.447-1-1-1h-1c-1.654 0-3-1.346-3-3v-9h20v3c0 .553.447 1 1 1s1-.447 1-1v-6c0-2.757-2.243-5-5-5zm-17 6v-1c0-1.654 1.346-3 3-3h14c1.654 0 3 1.346 3 3v1zm10.974 14.011c-.191 1.175-1.215 2.028-2.436 2.028-.664 0-1.3-.195-1.839-.552-.388-.257-.448-.802-.119-1.131.236-.235.603-.283.888-.111.316.191.688.297 1.069.297.604 0 1.031-.404 1.096-.795.089-.55-.602-.873-.816-.959-.915-.371-1.751-.78-1.753-.78-.692-.484-1.027-1.231-.921-2.049.111-.845.674-1.534 1.471-1.796.839-.277 1.603-.076 2.152.203.405.205.518.733.238 1.095l-.011.014c-.195.253-.539.347-.831.216-.308-.138-.72-.237-1.156-.096-.412.136-.517.447-.516.577.005.442.335.57.433.615.282.128.806.368 1.366.595 1.461.591 1.828 1.745 1.685 2.627zm8.526-5.972h-1.7c-.442 0-.8.358-.8.8v6.4c0 .442.358.8.8.8.442 0 .8-.358.8-.8v-2.2h.922c1.368 0 2.478-1.109 2.478-2.478v-.022c0-1.381-1.119-2.5-2.5-2.5zm0 3.4h-.9v-1.8h.9c.496 0 .9.404.9.9s-.404.9-.9.9zm-5.9-1.8v1.65h1.101c.442 0 .8.358.8.8s-.358.8-.8.8h-1.101v1.551h1.101c.442 0 .8.358.8.8s-.358.8-.8.8h-1.9c-.442 0-.8-.358-.8-.8v-6.4c0-.442.358-.8.8-.8h1.9c.442 0 .8.358.8.8s-.358.8-.8.8h-1.101z"/></svg>