<?xml version="1.0" encoding="UTF-8"?>
<svg xmlns="http://www.w3.org/2000/svg" id="Layer_1" data-name="Layer 1" viewBox="0 0 24 24">
  <path d="M23,4c-.018,0-.032,.009-.05,.01-.196-.983-.969-1.759-1.95-1.959v-.051c0-.552-.448-1-1-1s-1,.448-1,1H3c-.552,0-1,.448-1,1s-.449,1-1,1-1,.448-1,1v2.189c0,1.357,.851,2.549,2.118,2.967,.332,.109,.645,.212,.235,1.653L.172,18.004c-.718,1.873,.824,4.051,2.83,3.996h.763c1.57,0,2.956-1.001,3.449-2.491l1.162-3.509h2.814c2.225,0,4.15-1.432,4.79-3.563l.731-2.437h3.789c1.211,0,2.222-.866,2.45-2.01,.017,0,.032,.01,.05,.01,.552,0,1-.448,1-1v-2c0-.552-.448-1-1-1ZM5.315,18.88c-.222,.67-.845,1.12-1.551,1.12h-.763c-.669,.021-1.185-.708-.943-1.332l2.199-6.252c.134-.469,.423-1.479,.2-2.416h3.799l-2.941,8.88Zm8.749-7.019c-.384,1.279-1.539,2.138-2.874,2.138h-2.152l.662-2h1.299c.422,0,.799-.265,.941-.662l.48-1.338h2.201l-.558,1.862Zm6.936-4.362c0,.276-.224,.5-.5,.5H2.5c-.053,0-.104,.004-.155,.012-.213-.208-.345-.506-.345-.823v-1.36c.851-.302,1.527-.978,1.829-1.829H20.5c.276,0,.5,.224,.5,.5v3Z"/>
</svg>
