<svg id="Layer_1" viewBox="0 0 24 24" xmlns="http://www.w3.org/2000/svg" data-name="Layer 1"><path d="m21.944.981-2.501-.829c-.617-.203-1.271-.204-1.888 0l-2.5.828c-1.229.408-2.056 1.552-2.056 2.848v3.187c0 3.569 3.714 5.703 4.853 6.272.196.104.424.216.648.206.193.008.405-.082.582-.156 1.153-.464 4.917-2.29 4.917-6.322v-3.187c0-1.295-.826-2.44-2.056-2.848zm.056 6.035c0 2.583-2.424 3.925-3.455 4.379-.915-.491-3.545-2.099-3.545-4.379v-3.187c0-.432.275-.813.685-.949l2.499-.829c.104-.035.21-.052.316-.052s.212.017.315.051l2.5.829c.409.136.685.517.685.949v3.187zm0 11.168v-2.184c0-.552-.447-1-1-1s-1 .448-1 1v2h-4.5c-.266 0-.52.105-.707.293l-.707.707h-4.172l-.707-.707c-.188-.188-.441-.293-.707-.293h-4.5v-7c0-1.654 1.346-3 3-3h3c.553 0 1-.448 1-1s-.447-1-1-1h-3c-2.757 0-5 2.243-5 5v7.184c-1.161.414-2 1.514-2 2.816 0 1.654 1.346 3 3 3h18c1.654 0 3-1.346 3-3 0-1.302-.839-2.402-2-2.816zm-1 3.816h-18c-.552 0-1-.449-1-1s.448-1 1-1h5.086l.707.707c.188.188.441.293.707.293h5c.266 0 .52-.105.707-.293l.707-.707h5.086c.552 0 1 .449 1 1s-.448 1-1 1z"/></svg>