<svg id="Layer_1" viewBox="0 0 24 24" xmlns="http://www.w3.org/2000/svg" data-name="Layer 1"><path d="m23.632 14.255c-.274-.478-.887-.643-1.365-.367l-.977.563c-.605-.652-1.393-1.126-2.289-1.33v-1.121c0-.552-.447-1-1-1s-1 .448-1 1v1.121c-.896.205-1.685.678-2.289 1.33l-.977-.563c-.479-.276-1.09-.111-1.365.367-.276.479-.111 1.09.367 1.366l.983.566c-.129.418-.218.853-.218 1.313s.09.895.218 1.313l-.983.566c-.479.275-.644.887-.367 1.366.277.482.895.64 1.365.367l.977-.563c.605.652 1.393 1.126 2.289 1.33v1.121c0 .552.447 1 1 1s1-.448 1-1v-1.121c.896-.205 1.685-.678 2.289-1.33l.977.563c.47.273 1.088.116 1.365-.367.276-.479.111-1.09-.367-1.366l-.983-.566c.129-.418.218-.853.218-1.313s-.09-.895-.218-1.313l.983-.566c.479-.275.644-.887.367-1.366zm-5.632 5.745c-1.379 0-2.5-1.122-2.5-2.5s1.121-2.5 2.5-2.5 2.5 1.122 2.5 2.5-1.121 2.5-2.5 2.5zm6-10.276v1.276c0 .552-.447 1-1 1s-1-.448-1-1v-1.276c0-.999-.494-1.929-1.322-2.487l-7-4.724c-1.02-.688-2.336-.688-3.355 0l-7.001 4.724c-.828.558-1.322 1.488-1.322 2.487v9.276c0 1.654 1.346 3 3 3h5c.553 0 1 .448 1 1s-.447 1-1 1h-5c-2.757 0-5-2.243-5-5v-9.276c0-1.665.824-3.214 2.203-4.145l7-4.724c1.699-1.146 3.895-1.146 5.594 0l7 4.724c1.379.931 2.203 2.48 2.203 4.145z"/></svg>