<svg id="Layer_1" viewBox="0 0 24 24" xmlns="http://www.w3.org/2000/svg" data-name="Layer 1"><path d="m4 5c0-.553.448-1 1-1h1c.552 0 1 .447 1 1s-.448 1-1 1h-1c-.552 0-1-.447-1-1zm15.107 13.309-4.107-1.54v-4.661c0-1.516-1.076-2.835-2.503-3.067-1.776-.334-3.538 1.157-3.497 2.96v6.688s-.455-.364-.462-.37c-1.21-1.06-3.055-.984-4.161.201-1.13 1.208-1.066 3.11.13 4.23l1.099.995c.182.164.418.255.663.255.896 0 1.329-1.097.675-1.709l-1.059-.991c-.403-.378-.424-1.013-.046-1.416.375-.402 1.008-.421 1.41-.048.009.008 2.12 1.733 2.12 1.733.299.244.712.293 1.061.129.349-.165.571-.518.571-.903v-8.795c0-.552.448-1 1-1s1 .448 1 1v5.462c0 .417.253.788 1.1 1.106l4.306 1.615c1.305.489 2.292 1.616 2.523 2.99.093.552.636.915 1.17.81.542-.102.899-.625.797-1.168-.386-2.047-1.838-3.773-3.789-4.506zm-14.107-8.309h2c.552 0 1-.447 1-1s-.448-1-1-1h-2c-.552 0-1 .447-1 1s.448 1 1 1zm6-4c.552 0 1-.447 1-1s-.448-1-1-1h-1c-.552 0-1 .447-1 1s.448 1 1 1zm8-6h-14c-2.757 0-5 2.243-5 5v4c0 2.757 2.243 5 5 5h1c.552 0 1-.447 1-1s-.448-1-1-1h-1c-1.654 0-3-1.346-3-3v-4c0-1.654 1.346-3 3-3h14c1.654 0 3 1.346 3 3v4c0 1.654-1.346 3-3 3h-1c-.553 0-1 .447-1 1s.447 1 1 1h1c2.757 0 5-2.243 5-5v-4c0-2.757-2.243-5-5-5zm0 8h-2c-.553 0-1 .447-1 1s.447 1 1 1h2c.553 0 1-.447 1-1s-.447-1-1-1zm0-4h-4c-.553 0-1 .447-1 1s.447 1 1 1h4c.553 0 1-.447 1-1s-.447-1-1-1z"/></svg>