<svg id="Layer_1" viewBox="0 0 24 24" xmlns="http://www.w3.org/2000/svg" data-name="Layer 1"><path d="m10 12c0-.828.672-1.5 1.5-1.5s1.5.672 1.5 1.5-.672 1.5-1.5 1.5-1.5-.672-1.5-1.5zm-3.5-1.5c-.828 0-1.5.672-1.5 1.5s.672 1.5 1.5 1.5 1.5-.672 1.5-1.5-.672-1.5-1.5-1.5zm-5 0c-.828 0-1.5.672-1.5 1.5s.672 1.5 1.5 1.5 1.5-.672 1.5-1.5-.672-1.5-1.5-1.5zm16.5 1.5c0-1.054-.41-2.044-1.153-2.787l-5.137-5.181c-.388-.392-1.021-.395-1.414-.006s-.395 1.022-.006 1.414l5.14 5.184c.757.727.756 2.027-.003 2.755l-5.137 5.181c-.389.393-.387 1.025.006 1.414.392.389 1.025.387 1.414-.006l5.134-5.178c.746-.745 1.156-1.736 1.156-2.79zm4.846-2.788-8.137-8.184c-.39-.393-1.022-.395-1.414-.004-.392.389-.394 1.022-.004 1.414l8.139 8.186c.756.727.756 2.027-.002 2.754l-8.137 8.186c-.39.392-.388 1.025.004 1.414.392.39 1.025.388 1.414-.004l8.135-8.184c1.531-1.467 1.531-4.111.002-5.578z"/></svg>