<svg id="Layer_1" viewBox="0 0 24 24" xmlns="http://www.w3.org/2000/svg" data-name="Layer 1"><path d="m22 18.184v-7.184c0-2.757-2.243-5-5-5h-.427c-.477-1.098-1.335-2.02-2.5-2.551-.662-.302-1.073-.907-1.073-1.58v-.869c0-.552-.448-1-1-1s-1 .448-1 1v.869c0 1.444.88 2.778 2.243 3.399.388.177.714.432.983.732h-5.233c-.02-.546-.24-1.066-.628-1.454l-.375-.375c-.365-.365-.99-.107-.99.41v1.419c-2.757 0-5 2.243-5 5v7.184c-1.161.414-2 1.514-2 2.816 0 1.654 1.346 3 3 3h18c1.654 0 3-1.346 3-3 0-1.302-.839-2.402-2-2.816zm-15-10.184h7.988c0 .237-.015.478-.071.72-.244 1.07-1.127 1.954-2.197 2.198-.241.055-.483.083-.721.083-.552 0-1 .448-1 1s.448 1 1 1c.387 0 .778-.044 1.165-.132 1.831-.418 3.284-1.872 3.703-3.703.089-.392.116-.78.116-1.165h.016c1.654 0 3 1.346 3 3v7h-4.5c-.265 0-.52.105-.707.293l-.707.707h-4.172l-.707-.707c-.188-.188-.442-.293-.707-.293h-4.499v-7c0-1.654 1.346-3 3-3zm14 14h-18c-.551 0-1-.449-1-1s.449-1 1-1h5.086l.707.707c.188.188.442.293.707.293h5c.265 0 .52-.105.707-.293l.707-.707h5.086c.551 0 1 .449 1 1s-.449 1-1 1z"/></svg>