<svg id="Layer_1" viewBox="0 0 24 24" xmlns="http://www.w3.org/2000/svg" data-name="Layer 1"><path d="m3.253 3.944c-.172-.258-.138-.602.081-.822l.432-.432c.122-.122.191-.288.191-.461v-.96c0-.173.069-.338.191-.461l.618-.618c.122-.122.288-.191.461-.191h1.079c.36 0 .651.292.651.651v.079c0 .173-.069.338-.191.461l-1.618 1.618c-.122.122-.191.288-.191.461v1.079c0 .36-.292.651-.651.651-.218 0-.421-.109-.542-.29l-.51-.766zm17.704 16.63c0 .538-.38 1.002-.908 1.107l-1.592.318h-4c-.306.613-.933 1-1.618 1h-.882l-.347.347c-.418.418-.986.653-1.577.653h-.492c-.384 0-.764-.09-1.107-.261l-1.136-.568c-.209-.105-.342-.319-.342-.553 0-.341.277-.618.618-.618h.882l.106-.207c.252-.491.757-.8 1.308-.8h.186s.003.001.003.001c.364 0 .571-.418.349-.708-.424-.638-1.09-1.081-1.855-1.174-.346-.065-.597-.368-.597-.72 0-.245.122-.474.326-.61l1.174-.782-.423-.845c-.051-.102-.077-.214-.077-.328v-.094c0-.405.328-.733.733-.733h1.5c.424 0 .768-.344.768-.768 0-.152-.045-.3-.129-.426l-.641-.961c-.15-.225-.23-.49-.23-.761 0-.599-.486-1.085-1.085-1.085h-.462c-.6 0-1.166-.283-1.526-.763l-.928-1.237v-1c-.552 0-1-.448-1-1 0-.64.254-1.254.707-1.707l.293-.293-.287-.287c-.381-.381-.51-.973-.259-1.449.216-.41.551-.743.959-.957l.587-.308.201-.401c.194-.388.512-.7.905-.885l.861-.407c.427-.202.894-.307 1.367-.307.368 0 .667.298.667.667 0 .21-.099.407-.267.533l-1.6 1.2c-.084.063-.133.162-.133.267 0 .184.149.333.333.333h3.687c.541 0 .979.438.979.979 0 .326-.162.63-.432.812l-1.713 1.156c-.207.139-.255.423-.105.623l.01.014c.148.198.102.481-.102.621-.353.242-.182.796.247.796h.756c.498 0 .939.325 1.086.801l.267.863c.077.248.236.462.451.607.187.126.332.304.417.513l.123.3c.096.234.266.429.485.555l.14.081c.23.132.406.341.499.59l1.37 3.692h.886c.383 0 .739.194.948.515l.248.383c.248.383.242.877-.016 1.253l-.701 1.022.671.489c.292.213.464.552.464.913zm-9.848-11.315c-.258-.268-.457-.598-.574-.973-.181-.583-.136-1.19.1-1.717-.024-.221-.018-.445.019-.666.055-.323.175-.63.348-.903h-.713c-.519 0-.998-.17-1.386-.457.152.651-.025 1.364-.533 1.872l-.088.088c.414.366.674.901.674 1.497v.333l.5.667h.415c.44 0 .858.092 1.237.259zm7.102 8.726c-.734-.091-1.367-.583-1.629-1.289l-1.264-3.406c-.563-.361-.998-.903-1.238-1.528-.555-.442-.921-1.078-1.098-1.762-.343.01-.69-.041-.998-.162.553.52.915 1.242.966 2.047l.542.812c.304.456.465.987.465 1.535 0 1.436-1.099 2.62-2.5 2.755.002.401-.116.795-.34 1.129.263.216.503.463.714.737l.165.216c.431.562.591 1.26.465 1.931h.264c.356-.616 1.015-1 1.732-1h3.544c-.291-.636-.23-1.415.211-2.015zm-12.012-7.5c-.249-.525-.986-.617-1.456-.352l-1.373.855c-.257.16-.414.442-.414.745-.032.617.568 1.08 1.155.882.221-.074.462-.056.67.048l.219.11c.282.141.617.12.879-.055l.432-.288c.368-.246.496-.727.298-1.123l-.411-.822z"/></svg>