<svg id="Layer_1" viewBox="0 0 24 24" xmlns="http://www.w3.org/2000/svg" data-name="Layer 1"><path d="m14 10h-1.543s-2.394-2.756-2.394-2.756c-.018-.023-.044-.04-.063-.062v-2.182h-2c-.552 0-1-.448-1-1s.448-1 1-1h2c0-1.71-1.431-3.086-3.161-2.996-1.622.085-2.839 1.541-2.839 3.166v2.83h-.5c-1.93 0-3.5 1.57-3.5 3.5v2c0 1.93 1.57 3.5 3.5 3.5h.823c.346.807.953 1.493 1.749 1.931l3.928 2.16v3.909c0 .553.448 1 1 1s1-.447 1-1v-3.909c0-.729-.397-1.4-1.036-1.752l-.964-.53v-6.588l.945 1.089c.38.438.931.69 1.511.69h1.544c.553 0 1-.448 1-1s-.447-1-1-1zm-12 1.5v-2c0-.827.673-1.5 1.5-1.5h.5v5h-.5c-.827 0-1.5-.673-1.5-1.5zm5.036 3.679c-.639-.352-1.036-1.023-1.036-1.753v-5.426h1.51c.155 0 .327.055.49.132v7.577zm12.964-3.679c0 .828-.672 1.5-1.5 1.5s-1.5-.672-1.5-1.5.672-1.5 1.5-1.5 1.5.672 1.5 1.5zm1-3c0-.828.672-1.5 1.5-1.5s1.5.672 1.5 1.5-.672 1.5-1.5 1.5-1.5-.672-1.5-1.5zm3 6c0 .828-.672 1.5-1.5 1.5s-1.5-.672-1.5-1.5.672-1.5 1.5-1.5 1.5.672 1.5 1.5zm-18.169 4.708-.853 4c-.113.545-.66.885-1.187.771-.54-.115-.885-.646-.77-1.187l.853-4c.115-.54.646-.883 1.187-.771.54.115.885.646.77 1.187z"/></svg>