<svg id="Layer_1" viewBox="0 0 24 24" xmlns="http://www.w3.org/2000/svg" data-name="Layer 1"><path d="m23 12.8v6.4c0 .442-.358.8-.8.8s-.8-.358-.8-.8v-6.4c0-.442.358-.8.8-.8s.8.358.8.8zm-9.785.827 1.142 5.435c.107.5-.296.964-.804.937-.368 0-.685-.258-.761-.617l-.165-.782h-2.379l-.175.79c-.079.356-.394.61-.759.61-.494 0-.863-.456-.76-.939l1.165-5.479c.168-.864.87-1.582 1.742-1.581.894.006 1.563.69 1.753 1.627zm-.924 3.373-.641-3.044c-.047-.231-.109-.355-.185-.355s-.166.235-.196.384l-.667 3.015h1.688zm7.024-5c-.39 0-.724.28-.793.664l-.984 5.482-1.007-5.488c-.07-.38-.402-.657-.788-.657-.5 0-.878.454-.788.946l1.037 5.637c.103.58.61 1.416 1.546 1.416s1.435-.794 1.555-1.462l1.015-5.588c.09-.495-.29-.95-.793-.95zm1.468-3.248c.076.299.011.617-.179.861s-.481.387-.79.387h-5.813c-1.654 0-3-1.346-3-3v-4.977c-.16-.015-.322-.023-.485-.023h-4.516c-1.654 0-3 1.346-3 3v14c0 1.654 1.346 3 3 3h10c.39 0 .768-.073 1.125-.218.506-.209 1.095.038 1.302.552.207.512-.039 1.095-.552 1.302-.596.242-1.228.364-1.875.364h-10c-2.757 0-5-2.243-5-5v-14c0-2.757 2.243-5 5-5h4.515c1.869 0 3.627.728 4.95 2.05l3.484 3.486c.888.887 1.521 2 1.833 3.217zm-2.443-.752c-.22-.382-.489-.736-.804-1.05l-3.484-3.486c-.318-.318-.671-.587-1.051-.805v4.341c0 .551.448 1 1 1z"/></svg>