<svg id="Layer_1" viewBox="0 0 24 24" xmlns="http://www.w3.org/2000/svg" data-name="Layer 1"><path d="m0 7v-2c0-2.757 2.243-5 5-5h2c.552 0 1 .447 1 1s-.448 1-1 1h-2c-1.654 0-3 1.346-3 3v2c0 .553-.448 1-1 1s-1-.447-1-1zm19-7h-2c-.552 0-1 .447-1 1s.448 1 1 1h2c1.654 0 3 1.346 3 3v2c0 .553.448 1 1 1s1-.447 1-1v-2c0-2.757-2.243-5-5-5zm4 16c-.552 0-1 .447-1 1v2c0 1.654-1.346 3-3 3h-2c-.552 0-1 .447-1 1s.448 1 1 1h2c2.757 0 5-2.243 5-5v-2c0-.553-.448-1-1-1zm-16 6h-2c-1.654 0-3-1.346-3-3v-2c0-.553-.448-1-1-1s-1 .447-1 1v2c0 2.757 2.243 5 5 5h2c.552 0 1-.447 1-1s-.448-1-1-1zm17-10c0 .553-.448 1-1 1h-22c-.552 0-1-.447-1-1s.448-1 1-1h4v-3c0-2.206 1.794-4 4-4h6c2.206 0 4 1.794 4 4v3h4c.552 0 1 .447 1 1zm-17-1h1.141c.446-1.722 1.997-3 3.859-3s3.413 1.278 3.859 3h1.141v-3c0-1.103-.897-2-2-2h-6c-1.103 0-2 .897-2 2zm6.723 0c-.346-.595-.984-1-1.723-1s-1.376.405-1.723 1h3.445zm5.277 5c0-.553-.448-1-1-1s-1 .447-1 1c0 1.103-.897 2-2 2h-6c-1.103 0-2-.897-2-2 0-.553-.448-1-1-1s-1 .447-1 1c0 2.206 1.794 4 4 4h6c2.206 0 4-1.794 4-4zm-9.62-1c.703.615 1.613 1 2.62 1s1.917-.385 2.62-1h-5.241z"/></svg>