<?xml version="1.0" encoding="UTF-8"?>
<svg xmlns="http://www.w3.org/2000/svg" id="Layer_1" data-name="Layer 1" viewBox="0 0 24 24">
  <path d="M9.5,4.5c0-1.381,1.119-2.5,2.5-2.5s2.5,1.119,2.5,2.5-1.119,2.5-2.5,2.5-2.5-1.119-2.5-2.5Zm7.5,7.5v3c0,1.474-.81,2.75-2,3.444v4.556c0,.552-.448,1-1,1s-1-.448-1-1v-4h-2v4c0,.552-.448,1-1,1s-1-.448-1-1v-4.556c-1.19-.694-2-1.97-2-3.444v-3c0-2.206,1.794-4,4-4h2c2.206,0,4,1.794,4,4Zm-2,0c0-1.103-.897-2-2-2h-2c-1.103,0-2,.897-2,2v3c0,1.103,.897,2,2,2h2c1.103,0,2-.897,2-2v-3Zm4.5-7c1.381,0,2.5-1.119,2.5-2.5s-1.119-2.5-2.5-2.5-2.5,1.119-2.5,2.5,1.119,2.5,2.5,2.5Zm-15,0c1.381,0,2.5-1.119,2.5-2.5S5.881,0,4.5,0,2,1.119,2,2.5s1.119,2.5,2.5,2.5Zm1.834,1.229c-.428-.152-.876-.229-1.334-.229h-1C1.794,6,0,7.794,0,10v3c0,1.474,.81,2.75,2,3.444v4.556c0,.552,.448,1,1,1s1-.448,1-1v-4c.552,0,1-.448,1-1s-.448-1-1-1c-1.103,0-2-.897-2-2v-3c0-1.103,.897-2,2-2h1c.229,0,.454,.038,.666,.113,.523,.185,1.093-.088,1.277-.608,.185-.521-.087-1.092-.608-1.277Zm13.666-.229h-1c-.458,0-.907,.077-1.334,.229-.521,.185-.792,.756-.608,1.277,.185,.52,.752,.791,1.277,.608,.212-.075,.436-.113,.666-.113h1c1.103,0,2,.897,2,2v3c0,1.103-.897,2-2,2-.552,0-1,.448-1,1s.448,1,1,1v4c0,.552,.448,1,1,1s1-.448,1-1v-4.556c1.19-.694,2-1.97,2-3.444v-3c0-2.206-1.794-4-4-4Z"/>
</svg>
