<svg id="Layer_1" viewBox="0 0 24 24" xmlns="http://www.w3.org/2000/svg" data-name="Layer 1"><path d="m11.513 12.492c-.475-.478-1.184-.625-1.808-.367l-6.953 2.84c-.786.321-1.38.972-1.63 1.784-.25.81-.125 1.678.341 2.382.439.664.949 1.289 1.514 1.857.563.566 1.186 1.079 1.85 1.522.703.472 1.577.597 2.38.353.814-.247 1.467-.838 1.792-1.622l2.874-6.938c.257-.622.116-1.333-.359-1.811zm-4.363 7.983c-.095.229-.286.401-.524.474-.139.04-.413.085-.688-.101-.554-.371-1.074-.798-1.544-1.271-.472-.475-.897-.996-1.264-1.551-.184-.278-.14-.551-.098-.689.074-.237.247-.428.476-.521l6.208-2.536zm-1.65-9.476c-.828 0-1.5-.672-1.5-1.5s.672-1.5 1.5-1.5 1.5.672 1.5 1.5-.672 1.5-1.5 1.5zm6.5-1.5c0-.828.672-1.5 1.5-1.5s1.5.672 1.5 1.5-.672 1.5-1.5 1.5-1.5-.672-1.5-1.5zm-2.5-2.5c-.828 0-1.5-.672-1.5-1.5s.672-1.5 1.5-1.5 1.5.672 1.5 1.5-.672 1.5-1.5 1.5zm9 4c-.828 0-1.5-.672-1.5-1.5s.672-1.5 1.5-1.5 1.5.672 1.5 1.5-.672 1.5-1.5 1.5zm-1 2c.828 0 1.5.672 1.5 1.5s-.672 1.5-1.5 1.5-1.5-.672-1.5-1.5.672-1.5 1.5-1.5zm-5.5 5.5c0-.828.672-1.5 1.5-1.5s1.5.672 1.5 1.5-.672 1.5-1.5 1.5-1.5-.672-1.5-1.5zm12-6.5c0 6.617-5.383 12-12 12-.367 0-.73-.017-1.088-.049-.55-.049-.957-.534-.908-1.085.049-.55.529-.968 1.084-.907.301.026.604.041.912.041 5.514 0 10-4.486 10-10s-4.486-9.999-10-9.999-10 4.486-10 10c0 .307.014.61.041.91.05.55-.356 1.036-.906 1.086-.559.056-1.036-.356-1.086-.906-.032-.358-.049-.723-.049-1.09 0-6.617 5.383-12 12-12s12 5.383 12 12z"/></svg>