<svg id="Layer_1" viewBox="0 0 24 24" xmlns="http://www.w3.org/2000/svg" data-name="Layer 1"><path d="m7.5 13.5c0 2.481 2.019 4.5 4.5 4.5s4.5-2.019 4.5-4.5-2.019-4.5-4.5-4.5-4.5 2.019-4.5 4.5zm4.5-2.5c1.379 0 2.5 1.121 2.5 2.5s-1.121 2.5-2.5 2.5-2.5-1.121-2.5-2.5 1.122-2.5 2.5-2.5zm6.832 11.444c.307.46.183 1.081-.276 1.388-.462.305-1.081.181-1.388-.276-1.052-1.576-3.032-2.556-5.168-2.556s-4.115.979-5.168 2.556c-.309.462-.934.58-1.387.275-.459-.307-.583-.928-.276-1.387 1.419-2.124 4.037-3.444 6.832-3.444s5.413 1.32 6.832 3.444zm-5.592-15.05c-.116-.098-.184-.24-.189-.392v-4.844c.012-.477.55-.748.941-.475l1.654 1.159.563-2.374c.121-.426.626-.606.988-.352l1.135.795c.27.189.39.53.297.847l-1.156 3.884c-.128.388-.594.544-.929.309l-1.591-1.179-.856 2.365c-.109.37-.562.505-.856.256zm10.76 4.106c0 1.13-.051 2.37-.15 3.687-.16 2.115-1.735 4.066-3.85 4.448-.434 0-.832-.283-.96-.72-.154-.53.149-1.086.68-1.24 1.185-.346 2.043-1.406 2.136-2.639.096-1.267.145-2.456.145-3.536 0-1.068-.049-2.254-.144-3.522-.07-.94-.59-1.801-1.389-2.303-.468-.294-.608-.911-.314-1.379.293-.466.909-.607 1.379-.314 1.334.838 2.2 2.275 2.318 3.846.1 1.318.149 2.555.149 3.673zm-18.526-9.741c-.093-.317.026-.658.297-.847l1.134-.795c.363-.254.868-.075.988.352l.563 2.374 1.654-1.159c.391-.274.929-.002.941.475v4.843c-.005.151-.073.294-.189.392-.294.249-.747.113-.856-.256l-.856-2.365-1.591 1.179c-.335.235-.801.079-.929-.309zm-.514 17.143c-.128.437-.527.72-.959.72-2.115-.382-3.691-2.334-3.851-4.448-.099-1.311-.149-2.547-.149-3.673s.05-2.362.149-3.673c.118-1.57.985-3.008 2.319-3.846.468-.293 1.085-.152 1.378.314.294.468.153 1.086-.315 1.379-.798.502-1.317 1.362-1.388 2.303-.095 1.261-.144 2.446-.144 3.522s.048 2.261.144 3.522c.093 1.231.952 2.292 2.137 2.639.53.155.834.71.679 1.24z"/></svg>