<?xml version="1.0" encoding="UTF-8"?>
<svg xmlns="http://www.w3.org/2000/svg" id="Layer_1" data-name="Layer 1" viewBox="0 0 24 24">
  <path d="M9,20h-2.008c.007,.089,.01,.22,.008,.31,0,.932,.758,1.69,1.69,1.69,.284-.007,.783,.029,1.055-.056,.537-.14,1.081,.178,1.222,.712,.141,.534-.178,1.081-.712,1.222-.477,.142-1.069,.125-1.565,.123-2.035,0-3.69-1.655-3.69-3.69,.041-1.735-.711-3.404-2.132-4.728C.719,13.583-.298,10.754,.075,7.822,.59,3.782,3.904,.517,7.956,.059c4.896-.549,9.368,2.954,9.975,7.817,.068,.548-.32,1.047-.868,1.116-.552,.066-1.048-.32-1.116-.868-.472-3.782-3.964-6.512-7.766-6.078-3.147,.355-5.721,2.891-6.121,6.029-.292,2.285,.5,4.488,2.17,6.043,1.2,1.116,2.027,2.451,2.448,3.881h1.322v-7.184c-1.161-.414-2-1.514-2-2.816,0-.552,.448-1,1-1s1,.448,1,1,.449,1,1,1,1-.449,1-1,.448-1,1-1,1,.448,1,1c0,1.302-.839,2.402-2,2.816v8.184c0,.552-.448,1-1,1Zm15-6v8.617c.033,1.081-1.3,1.779-2.168,1.133l-2.183-1.752h-4.649c-1.654,0-3-1.346-3-3v-5c0-1.654,1.345-3,3-3h6c1.654,.002,3,1.348,3,3.002Zm-2,0c0-.551-.449-1-1-1h-6c-.552-.001-1.001,.447-1.001,.999v5c0,.551,.45,1,1.001,1h5c.228,0,.449,.078,.626,.221l1.373,1.104v-7.322Z"/>
</svg>
