<svg id="Layer_1" viewBox="0 0 24 24" xmlns="http://www.w3.org/2000/svg" data-name="Layer 1"><path d="m21.167 19.753c.524-.791.833-1.736.833-2.753 0-2.757-2.243-5-5-5s-5 2.243-5 5 2.243 5 5 5c1.017 0 1.962-.309 2.753-.833l2.54 2.54c.391.391 1.023.391 1.414 0s.391-1.023 0-1.414zm-7.167-2.753c0-1.654 1.346-3 3-3s3 1.346 3 3-1.346 3-3 3-3-1.346-3-3zm10-7v2c0 .552-.447 1-1 1s-1-.448-1-1v-2c0-1.654-1.346-3-3-3h-14c-1.654 0-3 1.346-3 3v3c0 1.654 1.346 3 3 3h4c.553 0 1 .447 1 1s-.447 1-1 1h-4c-2.757 0-5-2.243-5-5v-3c0-2.757 2.243-5 5-5h14c2.757 0 5 2.243 5 5zm-15.293.707-.793.793.793.793c.391.391.391 1.023 0 1.414s-1.023.391-1.414 0l-.793-.793-.793.793c-.391.391-1.023.391-1.414 0s-.391-1.023 0-1.414l.793-.793-.793-.793c-.391-.391-.391-1.023 0-1.414s1.023-.391 1.414 0l.793.793.793-.793c.391-.391 1.023-.391 1.414 0s.391 1.023 0 1.414zm3 3c-.391.391-1.023.391-1.414 0s-.391-1.023 0-1.414l.793-.793-.793-.793c-.391-.391-.391-1.023 0-1.414s1.023-.391 1.414 0l.793.793.793-.793c.391-.391 1.023-.391 1.414 0s.391 1.023 0 1.414z"/></svg>