<svg id="Layer_1" viewBox="0 0 24 24" xmlns="http://www.w3.org/2000/svg" data-name="Layer 1"><path d="m9 12c-.553 0-1 .448-1 1s.447 1 1 1h8c.553 0 1-.448 1-1s-.447-1-1-1v-10c.553 0 1-.448 1-1s-.447-1-1-1h-8c-.553 0-1 .448-1 1s.447 1 1 1v4h-8c-.553 0-1 .448-1 1s.447 1 1 1h8zm6-3h-4v-4h4zm-4 3v-1h4v1zm4-10v1h-4v-1zm5 20h-1v-1c0-1.654-1.346-3-3-3h-6c-1.654 0-3 1.346-3 3v1h-1c-.553 0-1 .448-1 1s.447 1 1 1h14c.553 0 1-.448 1-1s-.447-1-1-1zm-11-1c0-.551.448-1 1-1h6c.552 0 1 .449 1 1v1h-8zm10.041-6.773c-.156-.53.146-1.086.676-1.243l3-.887c.531-.155 1.086.146 1.242.675.156.53-.146 1.086-.676 1.243l-3 .887c-.516.157-1.087-.141-1.242-.675zm4.918 4.5c-.155.533-.727.832-1.242.675l-3-.887c-.53-.157-.832-.713-.676-1.243.157-.529.713-.831 1.242-.675l3 .887c.53.157.832.713.676 1.243zm-17.676-5.743c.53.157.832.713.676 1.243-.155.533-.727.832-1.242.675l-3-.887c-.53-.157-.832-.713-.676-1.243.157-.529.712-.83 1.242-.675zm0 5.532-3 .887c-.516.157-1.087-.141-1.242-.675-.156-.53.146-1.086.676-1.243l3-.887c.531-.156 1.086.146 1.242.675s-.146 1.086-.676 1.243z"/></svg>