<svg id="Layer_1" viewBox="0 0 24 24" xmlns="http://www.w3.org/2000/svg" data-name="Layer 1"><path d="m18.364 12.979c.89.002 1.644.644 1.751 1.56l.503 2.716c.082.444.455.776.905.805.652.061 1.183-.519 1.064-1.163l-.506-2.727c-.275-1.81-1.81-3.17-3.582-3.17s-3.307 1.361-3.582 3.17l-.461 2.33s-.457 1.5 1.149 1.5h1.855c.656 0 1.152-.595 1.033-1.24-.039-.413-.297-.747-.673-.929-.487-.246-.821-.747-.821-1.331 0-.781.602-1.451 1.364-1.521z"/><path d="m3.293 8.938c.391.391 1.023.391 1.414 0s.391-1.023 0-1.414l-1.523-1.523h17.632l-1.523 1.523c-.391.391-.391 1.023 0 1.414s1.023.391 1.414 0l2.862-2.862c.278-.278.431-.647.431-1.04s-.153-.762-.431-1.04l-2.862-2.862c-.391-.391-1.023-.391-1.414 0s-.391 1.023 0 1.414l1.452 1.452h-17.49l1.452-1.452c.391-.391.391-1.023 0-1.414s-1.023-.391-1.414 0l-2.862 2.862c-.278.278-.431.647-.431 1.04s.153.762.431 1.04z"/><path d="m5.5 19c-2.433 0-4.618 1.466-5.437 3.649-.194.517.068 1.094.585 1.288.519.193 1.093-.068 1.288-.585.527-1.406 1.959-2.351 3.563-2.351s3.037.945 3.563 2.351c.194.522.784.778 1.288.585.517-.194.779-.771.585-1.288-.818-2.183-3.003-3.649-5.437-3.649z"/><path d="m2 14.5c0 1.93 1.57 3.5 3.5 3.5s3.5-1.57 3.5-3.5-1.57-3.5-3.5-3.5-3.5 1.57-3.5 3.5zm5 0c0 .827-.673 1.5-1.5 1.5s-1.5-.673-1.5-1.5.673-1.5 1.5-1.5 1.5.673 1.5 1.5z"/><path d="m18.5 19c-2.433 0-4.618 1.466-5.437 3.649-.194.517.068 1.094.585 1.288.519.193 1.093-.068 1.288-.585.527-1.406 1.959-2.351 3.563-2.351s3.037.945 3.563 2.351c.194.522.784.778 1.288.585.517-.194.779-.771.585-1.288-.818-2.183-3.003-3.649-5.437-3.649z"/></svg>