<svg id="Layer_1" viewBox="0 0 24 24" xmlns="http://www.w3.org/2000/svg" data-name="Layer 1"><path d="m9 11c-.553 0-1 .448-1 1v.137c-1.754.442-3.06 2.004-3.102 3.883-.502.053-.898.463-.898.979 0 .552.447 1 1 1h8c.553 0 1-.448 1-1 0-.516-.396-.926-.898-.979-.042-1.879-1.349-3.441-3.102-3.883v-.137c0-.552-.447-1-1-1zm2.108 5h-4.216c.058-1.113.981-2 2.108-2s2.051.887 2.108 2zm12.892 5.531v1.469c0 .552-.447 1-1 1s-1-.448-1-1v-1.469c0-.823-.493-1.552-1.257-1.857l-2.743-1.097v4.192c0 .68-.551 1.231-1.231 1.231h-1.416c-.648 0-1.27-.251-1.737-.7l-1.05-1.011c-.831-.831-.748-2.231.249-2.949.321-.232.696-.34 1.074-.34.541 0 1.087.223 1.488.624l.622.573v-6.698c0-.827.673-1.5 1.5-1.5s1.5.673 1.5 1.5v3.323l2.485.994c1.527.611 2.515 2.069 2.515 3.714zm-18-17.031c0 .828-.672 1.5-1.5 1.5s-1.5-.672-1.5-1.5.672-1.5 1.5-1.5 1.5.672 1.5 1.5zm4 0c0 .828-.672 1.5-1.5 1.5s-1.5-.672-1.5-1.5.672-1.5 1.5-1.5 1.5.672 1.5 1.5zm9-4.5h-14c-2.757 0-5 2.243-5 5v12c0 2.757 2.243 5 5 5h4c.553 0 1-.448 1-1s-.447-1-1-1h-4c-1.654 0-3-1.346-3-3v-8h20v6c0 .552.447 1 1 1s1-.448 1-1v-10c0-2.757-2.243-5-5-5zm-17 7v-2c0-1.654 1.346-3 3-3h14c1.654 0 3 1.346 3 3v2z"/></svg>