<svg id="Layer_1" viewBox="0 0 24 24" xmlns="http://www.w3.org/2000/svg" data-name="Layer 1"><path d="m9 0c-3.309 0-6 2.691-6 6s2.691 6 6 6 6-2.691 6-6-2.692-6-6-6zm0 10c-2.206 0-4-1.794-4-4s1.794-4 4-4 4 1.794 4 4-1.794 4-4 4zm4.866 6.571c-.277.479-.889.643-1.366.364-1.059-.612-2.269-.936-3.499-.936-3.86 0-7 3.141-7 7 0 .553-.448 1-1 1s-1.001-.446-1.001-.999c0-4.963 4.038-9 9-9 1.582 0 3.138.417 4.5 1.205.479.276.642.888.365 1.366zm10.134 3.429c0 1.654-1.346 3-3 3 0 .553-.448 1-1 1s-1-.447-1-1h-.268c-1.067 0-2.063-.574-2.598-1.499-.276-.479-.113-1.09.365-1.366.476-.277 1.089-.114 1.366.364.179.31.511.501.867.501h2.268c.551 0 1-.448 1-1 0-.379-.271-.698-.644-.761l-3.041-.506c-1.342-.224-2.315-1.374-2.315-2.733 0-1.654 1.346-3 3-3 0-.553.448-1 1-1s1 .447 1 1h.268c1.067 0 2.063.574 2.598 1.499.276.479.113 1.09-.365 1.366-.477.278-1.089.114-1.366-.364-.179-.31-.511-.501-.867-.501h-2.268c-.551 0-1 .448-1 1 0 .379.271.698.644.761l3.041.506c1.342.224 2.315 1.374 2.315 2.733zm-7.712-13.798c-.388-.394-.383-1.026.01-1.414l2.2-2.169c.827-.825 2.179-.825 3.009.005l2.195 2.164c.393.388.398 1.02.01 1.414-.388.393-1.021.398-1.414.01l-1.298-1.279v4.067c0 .553-.448 1-1 1s-1-.447-1-1v-4.068l-1.298 1.279c-.394.389-1.027.383-1.414-.01z"/></svg>