<svg id="Layer_1" viewBox="0 0 24 24" xmlns="http://www.w3.org/2000/svg" data-name="Layer 1"><path d="m22.562 16.722c.564-1.299 1.033-2.652 1.176-3.162.15-.534.208-.874.226-.991.256-1.688-.909-3.272-2.598-3.528-1.682-.261-3.263.898-3.508 2.487-.031.12-.266.904-.582 1.775-.298-.269-.585-.535-.866-.802 1.25-3.576 1.589-6.912 1.589-8.235 0-.638-.041-1.043-.059-1.189-.237-1.916-1.993-3.29-3.907-3.048-1.928.237-3.257 1.94-3.03 3.84.015.219.024.817-.033 1.546-.331-.578-.611-1.024-.832-1.613-.942-2.581-2.691-3.781-5.024-3.796-1.556 0-3.062.756-4.04 2.031-.998 1.301-1.322 2.922-.881 4.468 1.162 3.766 3.462 7.207 6.846 10.252-1.926.227-3.481.245-3.532.246-1.926.096-3.259 1.258-3.479 3.036-.236 1.916 1.13 3.666 3.047 3.901.145.019.552.06 1.185.06 1.625 0 5.495-.498 9.498-1.87.447-.154.936-.126 1.341.08 1.106.562 2.068.99 2.817 1.324.448.2 1.131.466 1.894.466 1.517 0 2.908-.828 3.631-2.162.588-1.085.718-2.319.356-3.386-.235-.695-.656-1.282-1.236-1.731zm-.879 4.164c-.373.688-1.09 1.115-1.872 1.115-.29 0-.633-.093-1.127-.313-.683-.305-1.618-.721-2.679-1.259-.515-.262-1.088-.393-1.666-.393-.414 0-.831.067-1.229.204-4.217 1.446-7.818 1.762-8.85 1.762-.517 0-.836-.031-.941-.044-.821-.102-1.407-.852-1.306-1.673.037-.3.149-1.212 1.551-1.282.281-.002 6.932-.077 10.404-2.111.477-.279.637-.892.357-1.369-.28-.476-.894-.637-1.368-.357-.898.527-2.093.902-3.329 1.171-2.053-1.652-3.722-3.438-5.022-5.331.901-.21 2.065-.594 3.333-1.302.482-.269.655-.879.385-1.361-.27-.481-.878-.652-1.361-.385-1.437.803-2.694 1.111-3.47 1.23-.569-1.055-1.04-2.137-1.383-3.25-.259-.91-.058-1.888.551-2.683.61-.795 1.5-1.248 2.464-1.248 1.453.003 2.466.743 3.155 2.537.526 1.182 1.486 2.905 2.443 4.09.229.284.595.419.956.355.359-.065.655-.322.77-.669.713-2.145.547-4.632.544-4.651-.099-.828.465-1.555 1.284-1.657.829-.089 1.577.487 1.679 1.308.013.106.044.427.044.945 0 1.024-.303 4.484-1.685 8.151-.14.37-.048.789.235 1.066.764.749 1.575 1.489 2.479 2.261.239.204.561.286.867.215.307-.068.564-.277.693-.563.623-1.377 1.196-3.271 1.229-3.476.094-.598.642-.995 1.247-.903.599.092 1.012.653.922 1.247-.014.087-.061.347-.175.756-.133.474-.755 2.262-1.431 3.665-.117.243-.131.523-.039.776.093.254.284.459.531.57.523.234.87.592 1.029 1.063.184.542.103 1.195-.221 1.793zm-13.403-16.343c.02.053-.022-.051 0 0z"/></svg>