<svg id="Layer_1" viewBox="0 0 24 24" xmlns="http://www.w3.org/2000/svg" data-name="Layer 1"><path d="m5.309 5.936c-.907-.905-2.207-1.163-3.39-.671-1.184.491-1.919 1.592-1.919 2.874v10.861c0 2.757 2.243 5 5 5h10.83c1.294 0 2.405-.743 2.899-1.938.495-1.196.233-2.507-.684-3.421zm11.572 15.361c-.068.165-.346.703-1.051.703h-10.83c-1.654 0-3-1.346-3-3v-10.861c0-.688.525-.96.686-1.027.349-.144.845-.138 1.211.24l12.737 12.705c.5.498.316 1.075.248 1.24zm6.637-11.57-1.192-1.66c-.48-.668-1.259-1.067-2.082-1.067h-1.389c-.687 0-1.355.282-1.834.772l-1.292 1.323c-.47.482-.729 1.118-.729 1.791v.603c0 .672.259 1.308.729 1.791l.925.947c.479.491 1.148.773 1.835.773h2.177c.882 0 1.691-.444 2.164-1.189l.771-1.214c.564-.889.532-2.015-.083-2.87zm-1.606 1.798-.771 1.214c-.104.164-.282.262-.476.262h-2.177c-.151 0-.297-.062-.403-.17l-.925-.947c-.103-.106-.16-.246-.16-.394v-.603c0-.148.057-.288.16-.394l1.292-1.323c.105-.107.252-.169.403-.169h1.389c.181 0 .352.088.458.234l1.192 1.659c.135.188.142.436.018.631zm-13.396-5.233c.44.45 1.053.708 1.683.708h1.462c.81 0 1.552-.408 1.985-1.091l.611-.961c.518-.815.488-1.849-.076-2.633l-.96-1.336c-.441-.613-1.155-.979-1.91-.979h-.807c-.629 0-1.243.258-1.683.709l-1.048 1.074c-.431.442-.668 1.025-.668 1.642v.462c0 .617.237 1.2.668 1.642l.744.763zm.588-2.867c0-.092.036-.179.1-.246l1.048-1.073c.066-.068.158-.106.252-.106h.807c.113 0 .22.055.286.146l.96 1.336c.084.117.089.271.011.393l-.611.962c-.064.102-.175.162-.296.162h-1.462c-.094 0-.186-.039-.251-.105l-.743-.762c-.064-.066-.1-.153-.1-.246v-.462zm8.255-.308c-.23-.235-.358-.551-.358-.88v-.225c0-.329.129-.644.358-.88l.735-.753c.237-.243.562-.38.901-.38h.48c.405 0 .786.195 1.023.524l.644.896c.3.418.316.976.04 1.41l-.371.585c-.231.364-.632.584-1.063.584h-.997c-.339 0-.664-.137-.901-.38l-.491-.503z"/></svg>