<svg id="Layer_1" viewBox="0 0 24 24" xmlns="http://www.w3.org/2000/svg" data-name="Layer 1"><path d="m23.196 19.134-.974-.562c.166-.497.278-1.019.278-1.572s-.111-1.075-.278-1.572l.974-.562c.479-.276.643-.888.366-1.366-.277-.479-.89-.643-1.366-.366l-.973.562c-.705-.794-1.644-1.375-2.723-1.594v-1.101c0-.553-.447-1-1-1s-1 .447-1 1v1.101c-1.079.22-2.018.801-2.723 1.594l-.973-.562c-.48-.276-1.09-.111-1.366.366-.276.479-.112 1.09.366 1.366l.974.562c-.166.497-.278 1.019-.278 1.572s.111 1.075.278 1.572l-.974.562c-.478.276-.642.888-.366 1.366.278.482.896.639 1.366.366l.973-.562c.705.794 1.644 1.375 2.723 1.594v1.101c0 .553.447 1 1 1s1-.447 1-1v-1.101c1.079-.22 2.018-.801 2.723-1.594l.973.562c.47.273 1.088.116 1.366-.366.276-.479.112-1.09-.366-1.366zm-5.696.866c-1.654 0-3-1.346-3-3s1.346-3 3-3 3 1.346 3 3-1.346 3-3 3zm-12.739 1.54c-1.793-.486-2.761-1.267-2.761-1.754v-7.328c1.426.886 3.515 1.458 5.969 1.534h.031c.538 0 .982-.428.999-.97.017-.552-.417-1.013-.969-1.03-3.736-.114-6.031-1.528-6.031-2.492v-2.041c1.535.954 3.835 1.541 6.5 1.541s4.965-.588 6.5-1.541v.041c0 .553.447 1 1 1s1-.447 1-1v-3c.001-2.565-3.653-4.5-8.499-4.5s-8.5 1.935-8.5 4.5v15.286c0 1.612 1.545 2.955 4.239 3.684.518.145 1.084-.166 1.227-.703.144-.533-.171-1.083-.704-1.227zm3.739-19.54c3.968 0 6.5 1.48 6.5 2.5s-2.532 2.5-6.5 2.5-6.5-1.48-6.5-2.5 2.532-2.5 6.5-2.5zm1.786 15.973c.391.391.391 1.023 0 1.414s-1.023.391-1.414 0l-.327-.327c.1 1.471.382 2.481.936 3.439.276.479.113 1.09-.365 1.366-.469.275-1.088.118-1.366-.364-.827-1.431-1.126-2.895-1.215-4.551l-.464.464c-.391.391-1.023.391-1.414 0s-.391-1.023 0-1.414l1.415-1.414c.754-.755 2.072-.757 2.828 0z"/></svg>