<svg id="Layer_1" viewBox="0 0 24 24" xmlns="http://www.w3.org/2000/svg" data-name="Layer 1"><path d="m22.976 14.149-1.087-.951c.065-.223.111-.454.111-.699 0-1.381-1.119-2.5-2.5-2.5s-2.5 1.119-2.5 2.5 1.119 2.5 2.5 2.5c.399 0 .77-.102 1.104-.268l1.054.922c.218.19.342.465.342.753v2.593c0 1.654-1.346 3-3 3h-1.192c.232-.656.234-1.385-.01-2.058-1.271-3.499-4.889-5.942-8.798-5.942s-7.527 2.444-8.799 5.944c-.338.934-.202 1.975.365 2.783.567.81 1.46 1.273 2.449 1.273h15.984c2.757 0 5-2.243 5-5v-2.593c0-.864-.373-1.688-1.024-2.258zm-7.18 7.43c-.188.268-.483.421-.812.421h-11.968c-.328 0-.623-.153-.812-.421-.196-.28-.24-.628-.123-.953.974-2.681 3.884-4.626 6.919-4.626s5.945 1.945 6.918 4.625c.118.326.074.674-.122.954zm-14.18-7.554c.524.126 1.077-.202 1.203-.744.293-1.242.666-2.814 1.01-4.253 1.043 1.775 2.968 2.972 5.171 2.972 1.055 0 2.092-.278 3.001-.803.478-.276.642-.888.364-1.366-.275-.479-.888-.644-1.366-.365-.604.35-1.296.535-1.999.535-1.862 0-3.417-1.284-3.861-3.009 1.299.053 2.585-.314 3.713-1.011 1.223-.762 2.141-1.874 2.669-3.185.771.537 1.371 1.315 1.676 2.258.052.165.312 1.197 1.261 5.179.128.538.67.871 1.204.741.537-.128.869-.667.741-1.204-.169-.71-.314-1.316-.441-1.849.601-.196 1.038-.754 1.038-1.42v-1c0-.828-.672-1.5-1.5-1.5h-.581c-.976-2.406-3.288-4.001-5.919-4.001s-4.943 1.595-5.919 4h-.581c-.828 0-1.5.672-1.5 1.5v1c0 .666.437 1.224 1.038 1.42-.476 1.983-1 4.2-1.166 4.902-.126.537.206 1.076.744 1.203zm7.384-12.025c.223 0 .442.02.657.052-.371.917-1.007 1.697-1.863 2.23-.893.557-1.923.776-2.952.675.618-1.771 2.272-2.957 4.158-2.957z"/></svg>