<svg id="Layer_1" viewBox="0 0 24 24" xmlns="http://www.w3.org/2000/svg" data-name="Layer 1"><path d="m23.229 2.184-.767.818c.826 1.142.677 2.845-.342 3.827l-.727.733c1.054 1.618 1.606 3.482 1.606 5.438 0 3.962-2.321 7.382-5.67 9h2.67c.553 0 1 .448 1 1s-.447 1-1 1h-13.999c-.553 0-1-.448-1-1s.447-1 1-1h2.67c-1.779-.855-3.282-2.231-4.307-4h-3.363c-.553 0-1-.448-1-1s.447-1 1-1h9c.553 0 1 .448 1 1s-.447 1-1 1h-3.224c1.501 1.872 3.761 3 6.224 3 4.411 0 8-3.589 8-8 0-1.416-.375-2.764-1.067-3.967l-5.121 5.16c-.534.539-1.263.837-2.014.837-.15 0-.301-.012-.452-.036-.545-.088-.915-.602-.827-1.147s.591-.919 1.147-.828c.266.045.533-.042.725-.234l7.313-7.368c.392-.374.392-1.042.003-1.416l-.707-.708c-.391-.39-1.023-.39-1.414 0l-3.375 3.411c-.388.391-1.022.396-1.414.007-.393-.389-.396-1.022-.008-1.415l3.379-3.414c1.061-1.061 2.713-1.152 3.884-.299l.719-.767c.377-.404 1.011-.424 1.413-.046.403.377.424 1.01.046 1.413zm-21.029 6.202c-.266-.421-.465-.887-.579-1.386h-.621c-.553 0-1-.448-1-1s.447-1 1-1h.621c.114-.5.313-.965.579-1.386l-.622-.622c-.852.065-1.581-.643-1.578-1.492 0-.828.672-1.5 1.5-1.5.849-.004 1.557.726 1.492 1.578l.622.622c.421-.266.887-.465 1.386-.579v-.621c0-.552.447-1 1-1s1 .448 1 1v.621c.5.114.965.313 1.386.579l.622-.622c-.065-.852.643-1.582 1.492-1.578.828 0 1.5.672 1.5 1.5.004.849-.726 1.557-1.578 1.492l-.622.622c.266.421.465.887.579 1.386h.621c.553 0 1 .448 1 1s-.447 1-1 1h-.621c-.114.5-.313.965-.579 1.386l.622.622c.852-.065 1.582.643 1.578 1.492 0 .828-.672 1.5-1.5 1.5-.849.004-1.557-.726-1.492-1.578l-.622-.622c-.421.266-.887.465-1.386.579v.621c0 .552-.447 1-1 1s-1-.448-1-1v-.621c-.5-.114-.965-.313-1.386-.579l-.622.622c.065.852-.643 1.582-1.492 1.578-.828 0-1.5-.672-1.5-1.5-.004-.849.726-1.557 1.578-1.492zm1.3-2.386c0 1.378 1.121 2.5 2.5 2.5s2.5-1.122 2.5-2.5-1.121-2.5-2.5-2.5-2.5 1.122-2.5 2.5z"/></svg>