<svg id="Layer_1" viewBox="0 0 24 24" xmlns="http://www.w3.org/2000/svg" data-name="Layer 1"><path d="m23.936 17.927c-.267-1.192-1.419-1.948-2.641-1.925-1.186.022-2.672.235-4.295.515v-7.517c0-2.414-1.721-4.434-4-4.899v-1.101c0-1.657-1.343-3-3-3h-3c-1.657 0-3 1.343-3 3v1.101c-2.279.465-4 2.485-4 4.899v14c0 .552.448 1 1 1s1-.448 1-1v-14c0-1.302.839-2.402 2-2.816v2.816c0 1.657 1.343 3 3 3h3c1.657 0 3-1.343 3-3v-2.816c1.161.414 2 1.514 2 2.816v7.878c-2.478.473-5.782.96-8.041 1.091-.541.031-.959.472-.959 1.014 0 .562.452 1.018 1.014 1.017 2.148-.004 5.076-.051 7.486-.5 1.539-.287 3.161-.408 4.562-.46.248 1.119 1.245 1.96 2.438 1.96 1.565 0 2.8-1.447 2.436-3.073zm-14.936-11.927v3h.5c.276 0 .5.224.5.5s-.224.5-.5.5h-1c-.276 0-.5-.224-.5-.5v-3.5c-1.214 0-2.178-1.086-1.972-2.338.162-.983 1.087-1.662 2.084-1.662h.776c.997 0 1.922.679 2.084 1.662.206 1.252-.758 2.338-1.972 2.338zm6 15.446c.611-.11 1.285-.193 2-.261v1.815c0 .552-.448 1-1 1s-1-.448-1-1zm-5-17.446c0 .551-.449 1-1 1h-1c-.551 0-1-.449-1-1s.449-1 1-1h1c.551 0 1 .449 1 1z"/></svg>