<svg id="Layer_1" viewBox="0 0 24 24" xmlns="http://www.w3.org/2000/svg" data-name="Layer 1"><path d="m14.997 22.924c.042.551-.37 1.031-.921 1.073-.543.044-1.033-.369-1.073-.921-.217-2.847-2.634-5.076-5.503-5.076s-5.286 2.229-5.503 5.076c-.042.55-.508.96-1.073.921-.551-.042-.963-.522-.921-1.073.296-3.882 3.589-6.924 7.497-6.924s7.201 3.042 7.497 6.924zm-12.997-14.424c0-3.033 2.468-5.5 5.5-5.5s5.5 2.467 5.5 5.5-2.468 5.5-5.5 5.5-5.5-2.467-5.5-5.5zm2 0c0 1.93 1.57 3.5 3.5 3.5s3.5-1.57 3.5-3.5-1.57-3.5-3.5-3.5-3.5 1.57-3.5 3.5zm19.569-4.504-2.862-2.862c-.391-.391-1.023-.391-1.414 0s-.391 1.023 0 1.414l1.452 1.452h-4.745c-.553 0-1 .448-1 1s.447 1 1 1h4.816l-1.523 1.523c-.391.391-.391 1.023 0 1.414s1.023.391 1.414 0l2.862-2.862c.277-.278.431-.647.431-1.04s-.153-.762-.431-1.04z"/></svg>