<svg id="Layer_1" viewBox="0 0 24 24" xmlns="http://www.w3.org/2000/svg" data-name="Layer 1"><path d="m16.323 7.714c.46.459.677 1.064.677 1.667 0 3.333-4.524 7.619-7.619 7.619-.603 0-1.208-.218-1.667-.677l-.435-.5c-.372-.372-.372-.975 0-1.347l1.085-.833c.372-.372.975-.372 1.347 0l.891.709c1.726-.659 2.999-1.88 3.75-3.75l-.709-.891c-.372-.372-.372-.975 0-1.347l.833-1.085c.372-.372.975-.372 1.347 0zm3.677.286v8c0 1.627-.793 3.061-2 3.974v3.026c0 .553-.448 1-1 1s-1-.447-1-1v-2.101c-.323.066-.658.101-1 .101h-6c-.342 0-.677-.035-1-.101v2.101c0 .553-.448 1-1 1s-1-.447-1-1v-3.026c-1.207-.914-2-2.348-2-3.974v-8c0-1.627.793-3.061 2-3.974v-3.026c0-.553.448-1 1-1s1 .447 1 1v2.101c.323-.066.658-.101 1-.101h6c.342 0 .677.035 1 .101v-2.101c0-.553.448-1 1-1s1 .447 1 1v3.026c1.207.914 2 2.348 2 3.974zm-2 0c0-1.654-1.346-3-3-3h-6c-1.654 0-3 1.346-3 3v8c0 1.654 1.346 3 3 3h6c1.654 0 3-1.346 3-3z"/></svg>