<svg id="Layer_1" viewBox="0 0 24 24" xmlns="http://www.w3.org/2000/svg" data-name="Layer 1"><path d="m20.25 2.158c-.538-.136-1.08.184-1.218.719s.184 1.08.719 1.218c1.325.341 2.25 1.536 2.25 2.906v7h-20.001v-7.001c0-1.37.925-2.565 2.249-2.906.535-.137.857-.683.719-1.217-.137-.535-.68-.858-1.217-.719-2.209.568-3.751 2.559-3.751 4.842v8c0 2.757 2.243 5 5 5h6v2h-4c-.552 0-1 .448-1 1s.448 1 1 1h10c.552 0 1-.448 1-1s-.448-1-1-1h-4v-2h6c2.757 0 5-2.243 5-5v-8c0-2.282-1.542-4.273-3.75-4.842zm-1.25 15.842h-14c-1.302 0-2.402-.839-2.816-2h19.632c-.414 1.161-1.514 2-2.816 2zm-7.454-5.892c.261.133.566.145.836.034 3.752-1.546 4.582-3.994 4.618-5.794v-2.833c0-1.199-.765-2.259-1.903-2.637l-2.222-.737c-.563-.187-1.185-.187-1.749 0l-2.222.737c-1.138.377-1.903 1.437-1.903 2.637v2.854c.05 2.294 1.58 4.225 4.546 5.739zm-2.546-8.593c0-.336.214-.633.533-.738l2.222-.737c.158-.053.332-.053.489 0l2.222.737c.319.105.533.402.533.738v2.812c-.032 1.631-1.001 2.872-2.957 3.78-2.015-1.113-3.012-2.352-3.043-3.76v-2.832z"/></svg>