<svg id="Layer_1" viewBox="0 0 24 24" xmlns="http://www.w3.org/2000/svg" data-name="Layer 1"><path d="m10.98 16.999c1 0 1.513-.648 1.68-1 .229-.483.511-.935.839-1.349.318-.401.481-.901.481-1.413v-2.385c.336.69.884 1.269 1.643 1.675.626.319 1.298.472 1.958.472 1.398 0 2.744-.681 3.495-1.9.731-1.186.865-2.337.865-4.179 0-1.303-.379-4.538-3.89-6.42-1.937-1.042-4.426-.402-5.549 1.418-.515.835-.656 1.824-.397 2.787.252.934.87 1.745 1.701 2.309l-.656.656c-.75.75-1.172 1.768-1.172 2.83v4.565c-.324-.03-.642-.065-1-.065s-.676.035-1 .065v-4.566c0-1.069-.417-2.074-1.172-2.829l-.656-.656c.831-.563 1.45-1.375 1.701-2.309.259-.962.118-1.951-.397-2.787-1.121-1.82-3.609-2.459-5.546-1.418-3.511 1.882-3.89 5.117-3.89 6.42 0 1.842.134 2.994.865 4.178.745 1.208 2.073 1.888 3.481 1.888.684 0 1.386-.16 2.049-.499.698-.374 1.234-.946 1.567-1.633v4.633c-2.038.739-3 2.223-3 3.712 0 1.942 1.865 2.711 3.227 3.274.392.161.766.315 1.033.468.131.359.496 1.059 1.741 1.059 1.286 0 1.633-.746 1.765-1.129.286-.339.32-.84.053-1.22-.317-.453-.942-.561-1.394-.242-.209.147-.338.325-.423.493-.083-.161-.212-.344-.425-.493-.445-.314-1-.542-1.586-.784-1.128-.466-1.99-.866-1.99-1.425 0-1.317 1.608-2.201 4.001-2.201zm3.226-14.03c.386-.626 1.094-.976 1.826-.976.365 0 .735.087 1.075.269 2.467 1.323 2.835 3.486 2.835 4.658 0 1.714-.127 2.415-.567 3.129-.564.914-1.812 1.219-2.882.676-.41-.221-.694-.564-.819-.993-.14-.478-.069-1.025.196-1.5.336-.605.43-1.136.287-1.623-.193-.658-.736-.95-1.028-1.107-.547-.294-.944-.774-1.09-1.318-.081-.3-.117-.754.168-1.215zm-7.92 6.763c-.126.43-.409.773-.859 1.014-1.029.523-2.278.219-2.843-.697-.44-.713-.567-1.414-.567-3.128 0-1.172.368-3.334 2.835-4.658.34-.182.71-.269 1.075-.269.732 0 1.44.35 1.826.975.285.462.249.916.168 1.216-.146.544-.544 1.024-1.091 1.318-.292.156-.835.448-1.027 1.107-.143.487-.049 1.019.288 1.623.265.476.336 1.023.196 1.5zm12.695 4.266c-2.762 0-5.001 2.239-5.001 5.001s2.239 5.001 5.001 5.001 5.001-2.239 5.001-5.001-2.239-5.001-5.001-5.001zm2.001 6.001h-1v1c0 .552-.448 1-1 1s-1-.448-1-1v-1h-1c-.552 0-1-.448-1-1s.448-1 1-1h1v-1c0-.552.448-1 1-1s1 .448 1 1v1h1c.552 0 1 .448 1 1s-.448 1-1 1z"/></svg>