<svg id="Layer_1" viewBox="0 0 24 24" xmlns="http://www.w3.org/2000/svg" data-name="Layer 1"><path d="m24 19c0 .552-.447 1-1 1v1c0 .552-.447 1-1 1s-1-.448-1-1v-4c0-.552.447-1 1-1s1 .448 1 1v1c.553 0 1 .448 1 1zm-16-3c-.553 0-1 .448-1 1v1c-.553 0-1 .448-1 1s.447 1 1 1v1c0 .552.447 1 1 1s1-.448 1-1v-4c0-.552-.447-1-1-1zm11-2c-.553 0-1 .448-1 1v3h-6v-3c0-.552-.447-1-1-1s-1 .448-1 1v8c0 .552.447 1 1 1s1-.448 1-1v-3h6v3c0 .552.447 1 1 1s1-.448 1-1v-8c0-.552-.447-1-1-1zm-14.563.568c-1.48-.717-2.437-2.314-2.437-4.077-.066-2.297 1.784-4.526 4.11-4.492h4.78c2.329-.032 4.176 2.194 4.109 4.5 0 1.055-.348 2.079-.979 2.883-.341.435-.265 1.063.17 1.404.434.342 1.064.265 1.404-.169.905-1.154 1.404-2.617 1.404-4.109.082-3.184-2.391-6.243-5.579-6.482.121-.092.246-.178.357-.288.758-.758 1.104-1.853 1.213-2.643.088-.635-.451-1.174-1.086-1.086-.79.109-1.885.455-2.643 1.213-.29.29-.502.627-.674.973-.256-.833-.562-1.405-.709-1.675-.265-.485-.872-.664-1.357-.398-.484.265-.663.872-.398 1.357.297.543.661 1.364.806 2.521h-.819c-3.403-.063-6.204 3.133-6.109 6.5 0 2.515 1.398 4.818 3.563 5.868.486.238 1.094.038 1.336-.464.241-.497.034-1.095-.463-1.336z"/></svg>