<svg id="Layer_1" viewBox="0 0 24 24" xmlns="http://www.w3.org/2000/svg" data-name="Layer 1"><path d="m23.704 17.466-5.803 5.749c-.525.521-1.217.781-1.907.781s-1.374-.257-1.898-.771l-2.798-2.76c-.393-.388-.397-1.021-.01-1.414.388-.393 1.021-.397 1.414-.01l2.796 2.758c.274.269.721.27.995-.004l5.803-5.749c.394-.39 1.026-.387 1.414.006.389.393.386 1.025-.006 1.414zm-13.704 4.534h-5c-1.654 0-3-1.346-3-3v-14c0-1.654 1.346-3 3-3h6c1.654 0 3 1.346 3 3v12c0 .553.447 1 1 1s1-.447 1-1v-12c0-2.757-2.243-5-5-5h-6c-2.757 0-5 2.243-5 5v14c0 2.757 2.243 5 5 5h5c.552 0 1-.447 1-1s-.448-1-1-1zm-4-9h-1c-.552 0-1 .447-1 1s.448 1 1 1h1c.552 0 1-.447 1-1s-.448-1-1-1zm6 1c0-.553-.448-1-1-1h-1c-.552 0-1 .447-1 1s.448 1 1 1h1c.552 0 1-.447 1-1zm-6 3h-1c-.552 0-1 .447-1 1s.448 1 1 1h1c.552 0 1-.447 1-1s-.448-1-1-1zm0-12h-1c-.552 0-1 .447-1 1s.448 1 1 1h1c.552 0 1-.447 1-1s-.448-1-1-1zm5 0h-1c-.552 0-1 .447-1 1s.448 1 1 1h1c.552 0 1-.447 1-1s-.448-1-1-1zm-5 4h-1c-.552 0-1 .447-1 1s.448 1 1 1h1c.552 0 1-.447 1-1s-.448-1-1-1zm5 0h-1c-.552 0-1 .447-1 1s.448 1 1 1h1c.552 0 1-.447 1-1s-.448-1-1-1z"/></svg>